<?xml version="1.0" encoding="UTF-8"?>
<svg id="_レイヤー_1" data-name="レイヤー 1" xmlns="http://www.w3.org/2000/svg" version="1.1" viewBox="0 0 283.46 283.46">
  <defs>
    <style>
      .cls-1 {
        fill: #ababac;
      }

      .cls-1, .cls-2, .cls-3, .cls-4, .cls-5, .cls-6, .cls-7 {
        stroke-width: 0px;
      }

      .cls-2 {
        fill: #7f7f7f;
      }

      .cls-3 {
        fill: #e9e9e9;
      }

      .cls-4 {
        fill: #cecfcf;
      }

      .cls-5 {
        fill: #d3d3d3;
      }

      .cls-6 {
        fill: #221714;
      }

      .cls-8 {
        fill: none;
        stroke: #fff;
        stroke-linecap: round;
        stroke-linejoin: round;
        stroke-width: 12.69px;
      }

      .cls-7 {
        fill: #fff;
      }
    </style>
  </defs>
  <path class="cls-7" d="M163.05,111.96v-.02c.53-1.03,2.71-5.41,4.5-10.15,0,0,6.23.39,9.69,3.65-1.92,4.76-3.26,9.53-3.53,10.58h-.01c-.19.63-1.71,5.96-.96,11.39,0,0,.31,3.69-.35,7.13l-6.5,16.8-20.76-7.85.02-.04,6.55-16.93s2.38-5.38,6.89-9.14c0,0,2.64-2.42,4.47-5.42"/>
  <path class="cls-8" d="M163.05,111.96v-.02c.53-1.03,2.71-5.41,4.5-10.15,0,0,6.23.39,9.69,3.65-1.92,4.76-3.26,9.53-3.53,10.58h-.01c-.19.63-1.71,5.96-.96,11.39,0,0,.31,3.69-.35,7.13l-6.5,16.8-20.76-7.85.02-.04,6.55-16.93s2.38-5.38,6.89-9.14c0,0,2.64-2.42,4.47-5.42"/>
  <path class="cls-7" d="M147.68,144.42l6.53-16.94-2.52-.97,2.49,1.11.06-.17c.43-.91,2.68-5.16,6.06-7.98l.05-.03.07-.06c.08-.09,2.86-2.58,4.94-6.02l-4.63-2.82c-.78,1.28-1.8,2.53-2.62,3.41-.41.45-.77.81-1.02,1.08l-.29.27-.07.06,1.84,2-1.76-2.06c-5.08,4.27-7.5,9.91-7.61,10.08l-.03.08-6.58,16.98,5.09,1.97Z"/>
  <path class="cls-8" d="M147.68,144.42l6.53-16.94-2.52-.97,2.49,1.11.06-.17c.43-.91,2.68-5.16,6.06-7.98l.05-.03.07-.06c.08-.09,2.86-2.58,4.94-6.02l-4.63-2.82c-.78,1.28-1.8,2.53-2.62,3.41-.41.45-.77.81-1.02,1.08l-.29.27-.07.06,1.84,2-1.76-2.06c-5.08,4.27-7.5,9.91-7.61,10.08l-.03.08-6.58,16.98,5.09,1.97"/>
  <path class="cls-7" d="M170.04,127.62v.12c.05.59.18,3.69-.34,6.28l5.34,1.04c.75-3.94.42-7.77.42-7.9l-5.42.45Z"/>
  <path class="cls-8" d="M170.04,127.62v.12c.05.59.18,3.69-.34,6.28l5.34,1.04c.75-3.94.42-7.77.42-7.9l-5.42.45"/>
  <path class="cls-7" d="M171.18,114.99l-.03.08-.05.07v.07c-.25.85-1.86,6.42-1.04,12.54l5.38-.73c-.67-4.71.7-9.78.86-10.22l-2.6-.79,2.56.94.03-.06-5.1-1.9Z"/>
  <path class="cls-8" d="M171.18,114.99l-.03.08-.05.07v.07c-.25.85-1.86,6.42-1.04,12.54l5.38-.73c-.67-4.71.7-9.78.86-10.22l-2.6-.79,2.56.94.03-.06-5.1-1.9"/>
  <path class="cls-7" d="M165.37,113.39l.09-.2-2.42-1.23,2.24,1.55h0s.11-.19.11-.19l.09-.15c.54-1.1,2.76-5.54,4.59-10.45l-2.53-.94-.19,2.7h.04c.22.03,1.68.17,3.38.61,1.66.44,3.52,1.27,4.61,2.3l-.04-.03.19.19,3.76-3.95-.18-.14v-.03c-2.32-2.14-5.13-3.11-7.37-3.69-2.22-.57-3.94-.68-4.04-.68l-2.01-.14-.71,1.89c-1.7,4.57-3.85,8.9-4.35,9.89l2.42,1.22-2.24-1.54h-.01s-.09.17-.09.17l-.2.36,4.86,2.46Z"/>
  <path class="cls-8" d="M165.37,113.39l.09-.2-2.42-1.23,2.24,1.55h0s.11-.19.11-.19l.09-.15c.54-1.1,2.76-5.54,4.59-10.45l-2.53-.94-.19,2.7h.04c.22.03,1.68.17,3.38.61,1.66.44,3.52,1.27,4.61,2.3l-.04-.03.19.19,3.76-3.95-.18-.14v-.03c-2.32-2.14-5.13-3.11-7.37-3.69-2.22-.57-3.94-.68-4.04-.68l-2.01-.14-.71,1.89c-1.7,4.57-3.85,8.9-4.35,9.89l2.42,1.22-2.24-1.54h-.01s-.09.17-.09.17l-.2.36,4.86,2.46"/>
  <path class="cls-7" d="M176.29,116.89l.05-.21-2.64-.67,2.61.73c.29-1,1.6-5.68,3.45-10.27l-5.05-2.05c-1.97,4.96-3.31,9.8-3.63,10.89v.02s-.07.23-.07.23l5.27,1.34Z"/>
  <path class="cls-8" d="M176.29,116.89l.05-.21-2.64-.67,2.61.73c.29-1,1.6-5.68,3.45-10.27l-5.05-2.05c-1.97,4.96-3.31,9.8-3.63,10.89v.02s-.07.23-.07.23l5.27,1.34"/>
  <polygon class="cls-7" points="144.06 146 144.21 146.03 167.46 154.84 174.93 135.48 174.97 135.35 169.87 133.46 169.84 133.58 164.34 147.85 146.03 140.93 145.79 140.85 144.06 146"/>
  <polygon class="cls-8" points="144.06 146 144.21 146.03 167.46 154.84 174.93 135.48 174.97 135.35 169.87 133.46 169.84 133.58 164.34 147.85 146.03 140.93 145.79 140.85 144.06 146"/>
  <path class="cls-7" d="M164.57,150.08c.87.32,1.55,1.03,1.54,1.6,0,.53-.71.71-1.54.39l-18.3-7.07c-.85-.33-1.53-1.03-1.5-1.58,0-.53.71-.71,1.54-.39l18.26,7.05Z"/>
  <path class="cls-8" d="M164.57,150.08c.87.32,1.55,1.03,1.54,1.6,0,.53-.71.71-1.54.39l-18.3-7.07c-.85-.33-1.53-1.03-1.5-1.58,0-.53.71-.71,1.54-.39l18.26,7.05"/>
  <path class="cls-7" d="M164.34,147.85c-.13-.95.29-1.8.29-1.8l4.13-10.76c1.75-3.83,1.06-7.47,1.06-7.47l-.18-5.49c-.15-1.99.93-5.96.93-5.96l1.4-4.05c-.37,1.2-.64,2.12-.79,2.67l-.03.08-.05.07v.07c-.25.85-1.86,6.35-1.06,12.45v.07c.05.6.2,3.52-.29,6.06l-5.41,14.06Z"/>
  <path class="cls-8" d="M164.34,147.85c-.13-.95.29-1.8.29-1.8l4.13-10.76c1.75-3.83,1.06-7.47,1.06-7.47l-.18-5.49c-.15-1.99.93-5.96.93-5.96l1.4-4.05c-.37,1.2-.64,2.12-.79,2.67l-.03.08-.05.07v.07c-.25.85-1.86,6.35-1.06,12.45v.07c.05.6.2,3.52-.29,6.06l-5.41,14.06"/>
  <path class="cls-7" d="M172.04,134.26l-2.16-.81-.03.13-.09.21c.46-2.54.34-5.46.29-6.06v-.05s.01.05.01.06l2.32-.31c.05.64.11,1.01.11,1.01.17,2.18-.22,4.56-.45,5.82"/>
  <path class="cls-8" d="M172.04,134.26l-2.16-.81-.03.13-.09.21c.46-2.54.34-5.46.29-6.06v-.05s.01.05.01.06l2.32-.31c.05.64.11,1.01.11,1.01.17,2.18-.22,4.56-.45,5.82"/>
  <path class="cls-7" d="M172.38,127.43l-2.32.31s0-.04-.01-.07c-.81-6.12.81-11.62,1.05-12.47l.03-.06.03-.09.03-.07c-.03.13-.06.19-.09.31v.02s-.07.23-.07.23l2.31.57-.57,1.77c-.77,3.85-.55,7.75-.38,9.54"/>
  <path class="cls-8" d="M172.38,127.43l-2.32.31s0-.04-.01-.07c-.81-6.12.81-11.62,1.05-12.47l.03-.06.03-.09.03-.07c-.03.13-.06.19-.09.31v.02s-.07.23-.07.23l2.31.57-.57,1.77c-.77,3.85-.55,7.75-.38,9.54"/>
  <path class="cls-7" d="M176.03,104.95l-1.3-.53c-.17.4-.31.78-.46,1.19l.51-1.58,1.25.92Z"/>
  <path class="cls-8" d="M176.03,104.95l-1.3-.53c-.17.4-.31.78-.46,1.19l.51-1.58,1.25.92"/>
  <path class="cls-7" d="M173.33,116.13l-2.31-.57.05-.23v-.02c.04-.11.07-.17.11-.31.13-.55.41-1.48.78-2.67l2.31-6.72c.13-.39.29-.78.44-1.19l1.32.53.75.55-3.45,10.63Z"/>
  <path class="cls-8" d="M173.33,116.13l-2.31-.57.05-.23v-.02c.04-.11.07-.17.11-.31.13-.55.41-1.48.78-2.67l2.31-6.72c.13-.39.29-.78.44-1.19l1.32.53.75.55-3.45,10.63"/>
  <path class="cls-7" d="M166.09,149.9l-1.25-.85c-.3-.4-.47-.81-.5-1.2l5.42-14.06.09-.21.03-.13,2.17.81c-.12.51-.2.85-.2.85l-5.75,14.78Z"/>
  <path class="cls-8" d="M166.09,149.9l-1.25-.85c-.3-.4-.47-.81-.5-1.2l5.42-14.06.09-.21.03-.13,2.17.81c-.12.51-.2.85-.2.85l-5.75,14.78"/>
  <path class="cls-7" d="M169.06,146.2l-.57.2-.17-.57c0-.26-.75-.85-1.74-1.24l-18.27-7.05-1.18.22-.56-.26c.23-.53.87-.96,1.94-.55l18.3,7.08c.08.03,2.06.79,2.1,1.76l.14.41Z"/>
  <path class="cls-8" d="M169.06,146.2l-.57.2-.17-.57c0-.26-.75-.85-1.74-1.24l-18.27-7.05-1.18.22-.56-.26c.23-.53.87-.96,1.94-.55l18.3,7.08c.08.03,2.06.79,2.1,1.76l.14.41"/>
  <path class="cls-7" d="M169.99,143.57l-.52.29-.22-.41c-.19-.26-.93-1.12-1.71-1.42l-18.29-7.07-1.04-.07-.07.17h-.63s.35-.68.35-.68c.39-.25.99-.25,1.64,0l18.27,7.07c.91.33,1.76,1.3,2.01,1.7l.22.41Z"/>
  <path class="cls-8" d="M169.99,143.57l-.52.29-.22-.41c-.19-.26-.93-1.12-1.71-1.42l-18.29-7.07-1.04-.07-.07.17h-.63s.35-.68.35-.68c.39-.25.99-.25,1.64,0l18.27,7.07c.91.33,1.76,1.3,2.01,1.7l.22.41"/>
  <path class="cls-7" d="M170.97,141.05l-.52.28-.26-.48c-.13-.35-.85-1.05-1.66-1.35l-18.29-7.08-1.03-.04-.11.18-.61-.04.37-.67c.34-.23.98-.23,1.61.03l18.29,7.06c.87.32,1.78,1.1,2.01,1.66l.21.46Z"/>
  <path class="cls-8" d="M170.97,141.05l-.52.28-.26-.48c-.13-.35-.85-1.05-1.66-1.35l-18.29-7.08-1.03-.04-.11.18-.61-.04.37-.67c.34-.23.98-.23,1.61.03l18.29,7.06c.87.32,1.78,1.1,2.01,1.66l.21.46"/>
  <path class="cls-7" d="M175.28,114.72l-1.18.51-3.31-1.19c-1.88-.71-2.72-.75-2.72-.75l-.89-.96.92-.89c.1-.01,1.12.03,3.35.85l3.3,1.22.56,1.19h-.03Z"/>
  <path class="cls-8" d="M175.28,114.72l-1.18.51-3.31-1.19c-1.88-.71-2.72-.75-2.72-.75l-.89-.96.92-.89c.1-.01,1.12.03,3.35.85l3.3,1.22.56,1.19h-.03"/>
  <path class="cls-7" d="M177.37,108.09l-1.22.53-3.1-1.22c-1.9-.71-2.73-.74-2.73-.74l-.88-.94.9-.93c.11,0,1.15.03,3.38.86l3.12,1.21.53,1.23Z"/>
  <path class="cls-8" d="M177.37,108.09l-1.22.53-3.1-1.22c-1.9-.71-2.73-.74-2.73-.74l-.88-.94.9-.93c.11,0,1.15.03,3.38.86l3.12,1.21.53,1.23"/>
  <path class="cls-7" d="M171.08,109.36l-.04.09-1.25.39c-1.9-.91-5.08-1.54-5.13-1.53l-.71-1.09,1.08-.73c.15.01,3.47.66,5.6,1.72l.45,1.16Z"/>
  <path class="cls-8" d="M171.08,109.36l-.04.09-1.25.39c-1.9-.91-5.08-1.54-5.13-1.53l-.71-1.09,1.08-.73c.15.01,3.47.66,5.6,1.72l.45,1.16"/>
  <path class="cls-7" d="M145.02,148.28l1.29-3.16s.43-1.02,1.23-.84l15.81,6.02s.91.43.77,1.16l-1.28,3.55-17.82-6.73Z"/>
  <path class="cls-8" d="M145.02,148.28l1.29-3.16s.43-1.02,1.23-.84l15.81,6.02s.91.43.77,1.16l-1.28,3.55-17.82-6.73"/>
  <path class="cls-7" d="M179.52,160.19c3.73,1.44,5.58,5.62,4.16,9.34l-31.33,81.08c-1.44,3.73-5.6,5.58-9.34,4.14l-24.24-9.35c-3.74-1.48-5.6-5.64-4.15-9.36l31.31-81.07c1.42-3.74,5.62-5.6,9.34-4.14l24.25,9.36Z"/>
  <path class="cls-8" d="M179.52,160.19c3.73,1.44,5.58,5.62,4.16,9.34l-31.33,81.08c-1.44,3.73-5.6,5.58-9.34,4.14l-24.24-9.35c-3.74-1.48-5.6-5.64-4.15-9.36l31.31-81.07c1.42-3.74,5.62-5.6,9.34-4.14l24.25,9.36"/>
  <path class="cls-7" d="M166.11,154.74c3.72,1.45,5.57,5.62,4.13,9.34l-31.29,81.1c-1.46,3.71-5.64,5.56-9.36,4.13l-24.28-9.39c-3.7-1.42-5.57-5.6-4.13-9.33l31.32-81.06c1.42-3.73,5.61-5.58,9.34-4.14l24.26,9.36Z"/>
  <path class="cls-8" d="M166.11,154.74c3.72,1.45,5.57,5.62,4.13,9.34l-31.29,81.1c-1.46,3.71-5.64,5.56-9.36,4.13l-24.28-9.39c-3.7-1.42-5.57-5.6-4.13-9.33l31.32-81.06c1.42-3.73,5.61-5.58,9.34-4.14l24.26,9.36"/>
  <path class="cls-7" d="M170.82,164.28l-31.3,81.1c-1.58,4.03-6.13,6.04-10.16,4.5l-24.26-9.38c-4.03-1.56-6.02-6.12-4.47-10.13l31.31-81.08c1.55-4.04,6.12-6.06,10.13-4.49l24.22,9.37c4.07,1.56,6.08,6.11,4.53,10.11M101.77,230.81c-1.29,3.41.41,7.23,3.78,8.54l24.28,9.38c3.39,1.32,7.21-.39,8.53-3.81l31.31-81.05c1.32-3.41-.38-7.24-3.77-8.57l-24.25-9.37c-3.43-1.3-7.24.41-8.56,3.81l-31.32,81.07Z"/>
  <path class="cls-8" d="M170.82,164.28l-31.3,81.1c-1.58,4.03-6.13,6.04-10.16,4.5l-24.26-9.38c-4.03-1.56-6.02-6.12-4.47-10.13l31.31-81.08c1.55-4.04,6.12-6.06,10.13-4.49l24.22,9.37c4.07,1.56,6.08,6.11,4.53,10.11M101.77,230.81c-1.29,3.41.41,7.23,3.78,8.54l24.28,9.38c3.39,1.32,7.21-.39,8.53-3.81l31.31-81.05c1.32-3.41-.38-7.24-3.77-8.57l-24.25-9.37c-3.43-1.3-7.24.41-8.56,3.81l-31.32,81.07Z"/>
  <path class="cls-7" d="M108.42,252.42s.59-1.92,1.8-5.1l11.99,3.31s5.36,1.56,5.89-1.54l13.83,4.16s-.89,13.42-13.04,8.4l-20.48-9.24Z"/>
  <path class="cls-8" d="M108.42,252.42s.59-1.92,1.8-5.1l11.99,3.31s5.36,1.56,5.89-1.54l13.83,4.16s-.89,13.42-13.04,8.4l-20.48-9.24"/>
  <path class="cls-7" d="M125.3,259.98h-.65c.01-.05,0-1.56.83-3.49l.57.26c-.78,1.84-.75,3.23-.75,3.23"/>
  <path class="cls-8" d="M125.3,259.98h-.65c.01-.05,0-1.56.83-3.49l.57.26c-.78,1.84-.75,3.23-.75,3.23"/>
  <path class="cls-7" d="M121.65,258.45h-.61c.01-.05.04-1.4.79-3.22l.55.25c-.7,1.69-.73,2.97-.73,2.97"/>
  <path class="cls-8" d="M121.65,258.45h-.61c.01-.05.04-1.4.79-3.22l.55.25c-.7,1.69-.73,2.97-.73,2.97"/>
  <path class="cls-7" d="M118.33,256.95l-.63-.05s.08-.79.71-2.61l.59.18c-.59,1.75-.67,2.48-.67,2.48"/>
  <path class="cls-8" d="M118.33,256.95l-.63-.05s.08-.79.71-2.61l.59.18c-.59,1.75-.67,2.48-.67,2.48"/>
  <path class="cls-7" d="M114.94,255.3h-.64c.03-.08.04-.59.69-2.36l.57.23c-.6,1.67-.61,2.1-.63,2.12"/>
  <path class="cls-8" d="M114.94,255.3h-.64c.03-.08.04-.59.69-2.36l.57.23c-.6,1.67-.61,2.1-.63,2.12"/>
  <path class="cls-7" d="M125.05,249.78c-1.33,1.21-1.85,3.55-1.86,3.57l-.6-.13c.03-.1.55-2.55,2.06-3.91l.41.47Z"/>
  <path class="cls-8" d="M125.05,249.78c-1.33,1.21-1.85,3.55-1.86,3.57l-.6-.13c.03-.1.55-2.55,2.06-3.91l.41.47"/>
  <path class="cls-7" d="M120.36,250.05c-.73,1.32-.82,2.04-.83,2.05l-.63-.11s.15-.79.92-2.23l.55.29Z"/>
  <path class="cls-8" d="M120.36,250.05c-.73,1.32-.82,2.04-.83,2.05l-.63-.11s.15-.79.92-2.23l.55.29"/>
  <path class="cls-7" d="M116.27,251.01l-.59-.11s.25-1.08.81-2.1l.53.29c-.49.95-.74,1.92-.75,1.92"/>
  <path class="cls-8" d="M116.27,251.01l-.59-.11s.25-1.08.81-2.1l.53.29c-.49.95-.74,1.92-.75,1.92"/>
  <path class="cls-7" d="M113.87,248.36l-.67,1.64-.58-.18c.03-.15.4-1.35.75-1.84l.49.37Z"/>
  <path class="cls-8" d="M113.87,248.36l-.67,1.64-.58-.18c.03-.15.4-1.35.75-1.84l.49.37"/>
  <path class="cls-7" d="M124.17,250.91c-.64,1.33-.98,2.48-.98,2.48l-.61-.19s.37-1.16,1.01-2.54l.57.26Z"/>
  <path class="cls-8" d="M124.17,250.91c-.64,1.33-.98,2.48-.98,2.48l-.61-.19s.37-1.16,1.01-2.54l.57.26"/>
  <path class="cls-7" d="M111.7,253.97l-.6-.04s.05-.73.75-2.26l.57.25c-.65,1.42-.73,2.06-.73,2.06"/>
  <path class="cls-8" d="M111.7,253.97l-.6-.04s.05-.73.75-2.26l.57.25c-.65,1.42-.73,2.06-.73,2.06"/>
  <path class="cls-7" d="M190.98,163.83c-.14.66-1.34,6.08-4.57,10.47,0,0-2.04,3.11-3.08,6.46h-.01s-1.22,11.5-1.22,11.5l21.91,3.02,1.34-11.74s.43-5.87-1.72-11.31c0,0-1.19-3.38-1.37-6.87v-.04c.03-1.16.21-6.06.89-11.08,0,0-5.71-2.62-10.29-1.4h.01c-.57,5.12-1.66,9.94-1.93,10.99h.03Z"/>
  <path class="cls-8" d="M190.98,163.83c-.14.66-1.34,6.08-4.57,10.47,0,0-2.04,3.11-3.08,6.46h-.01s-1.22,11.5-1.22,11.5l21.91,3.02,1.34-11.74s.43-5.87-1.72-11.31c0,0-1.19-3.38-1.37-6.87v-.04c.03-1.16.21-6.06.89-11.08,0,0-5.71-2.62-10.29-1.4h.01c-.57,5.12-1.66,9.94-1.93,10.99h.03"/>
  <path class="cls-7" d="M206.72,195.61l1.34-11.83v-.05c0-.2.51-6.35-1.93-12.51l-2.5,1,2.57-.89-.05-.07c-.19-.59-1.04-3.43-1.16-6.07l-5.42.28c.22,3.98,1.46,7.51,1.47,7.65l.03.05.05.07c.94,2.34,1.33,4.92,1.48,6.88.09.98.1,1.82.09,2.37v.65l-.03.19,2.72.19-2.7-.29-1.34,11.75,5.4.63Z"/>
  <path class="cls-8" d="M206.72,195.61l1.34-11.83v-.05c0-.2.51-6.35-1.93-12.51l-2.5,1,2.57-.89-.05-.07c-.19-.59-1.04-3.43-1.16-6.07l-5.42.28c.22,3.98,1.46,7.51,1.47,7.65l.03.05.05.07c.94,2.34,1.33,4.92,1.48,6.88.09.98.1,1.82.09,2.37v.65l-.03.19,2.72.19-2.7-.29-1.34,11.75,5.4.63"/>
  <path class="cls-7" d="M184.11,172.83c-.05.1-2.18,3.3-3.38,7.12l5.18,1.64c.44-1.44,1.14-2.91,1.73-4.03.3-.54.56-1,.75-1.32l.22-.33.04-.11-4.54-2.96Z"/>
  <path class="cls-8" d="M184.11,172.83c-.05.1-2.18,3.3-3.38,7.12l5.18,1.64c.44-1.44,1.14-2.91,1.73-4.03.3-.54.56-1,.75-1.32l.22-.33.04-.11-4.54-2.96"/>
  <path class="cls-7" d="M188.28,163.57v.07s2.71.21,2.71.21l-2.66-.58c-.11.5-1.3,5.62-4.13,9.44l4.39,3.21c3.64-4.99,4.86-10.7,5.04-11.48l.04-.2.03-.26-5.42-.4Z"/>
  <path class="cls-8" d="M188.28,163.57v.07s2.71.21,2.71.21l-2.66-.58c-.11.5-1.3,5.62-4.13,9.44l4.39,3.21c3.64-4.99,4.86-10.7,5.04-11.48l.04-.2.03-.26-5.42-.4"/>
  <path class="cls-7" d="M204.97,165.62l.03-.23v-.38l-.12-.41-2.6.71,2.7.08c.04-1.12.19-5.92.89-10.78l.26-2-1.83-.82c-.1-.05-1.67-.77-3.9-1.34-2.23-.55-5.18-1.02-8.23-.23l.71,2.62-.57-2.64-.23.05,1.15,5.29.22-.03h.05l.08-.03c1.52-.44,3.75-.22,5.49.25.89.22,1.63.47,2.18.67l.6.25.16.05h.02l1.14-2.45-2.69-.39c-.73,5.2-.9,10.19-.94,11.37v.4l.11.41,2.62-.69-2.71-.08v.21l5.42.14Z"/>
  <path class="cls-8" d="M204.97,165.62l.03-.23v-.38l-.12-.41-2.6.71,2.7.08c.04-1.12.19-5.92.89-10.78l.26-2-1.83-.82c-.1-.05-1.67-.77-3.9-1.34-2.23-.55-5.18-1.02-8.23-.23l.71,2.62-.57-2.64-.23.05,1.15,5.29.22-.03h.05l.08-.03c1.52-.44,3.75-.22,5.49.25.89.22,1.63.47,2.18.67l.6.25.16.05h.02l1.14-2.45-2.69-.39c-.73,5.2-.9,10.19-.94,11.37v.4l.11.41,2.62-.69-2.71-.08v.21l5.42.14"/>
  <path class="cls-7" d="M193.53,164.72l.04-.19.03-.03v-.04c.25-1.12,1.37-5.99,1.97-11.3l-5.39-.61c-.56,4.92-1.63,9.68-1.88,10.67l2.64.61-2.64-.66-.03.19,5.26,1.36Z"/>
  <path class="cls-8" d="M193.53,164.72l.04-.19.03-.03v-.04c.25-1.12,1.37-5.99,1.97-11.3l-5.39-.61c-.56,4.92-1.63,9.68-1.88,10.67l2.64.61-2.64-.66-.03.19,5.26,1.36"/>
  <polygon class="cls-7" points="204.38 192.59 185.06 189.92 186.02 181.12 186.02 181.02 180.64 180.23 180.62 180.38 180.6 180.42 179.11 194.58 203.64 197.99 204.38 192.59"/>
  <polygon class="cls-8" points="204.38 192.59 185.06 189.92 186.02 181.12 186.02 181.02 180.64 180.23 180.62 180.38 180.6 180.42 179.11 194.58 203.64 197.99 204.38 192.59"/>
  <path class="cls-7" d="M183.48,196.91c-.13.08-.26.15-.39.22l-1.5.13.27-2.29,2.68.36c-.15.51-.47,1.16-1.07,1.58"/>
  <path class="cls-8" d="M183.48,196.91c-.13.08-.26.15-.39.22l-1.5.13.27-2.29,2.68.36c-.15.51-.47,1.16-1.07,1.58"/>
  <path class="cls-7" d="M185.28,189.95l-.21-.04.91-8.58c.46-1.36,1.12-2.74,1.67-3.79.3-.54.56-1.01.75-1.32l.21-.33.04-.05c3.6-4.98,4.81-10.65,5-11.44l.03-.19.03-.12c.1-.53.3-1.43.52-2.52l-.67,4.08s-.93,3.97-2.02,5.66l-2.78,4.76s-2.3,2.84-2.64,7.07l-.83,6.8Z"/>
  <path class="cls-8" d="M185.28,189.95l-.21-.04.91-8.58c.46-1.36,1.12-2.74,1.67-3.79.3-.54.56-1.01.75-1.32l.21-.33.04-.05c3.6-4.98,4.81-10.65,5-11.44l.03-.19.03-.12c.1-.53.3-1.43.52-2.52l-.67,4.08s-.93,3.97-2.02,5.66l-2.78,4.76s-2.3,2.84-2.64,7.07l-.83,6.8"/>
  <path class="cls-7" d="M185.98,181.34l.03-.21v-.11s-2.23-.32-2.23-.32c.35-1.23,1.15-3.5,2.34-5.34,0,0,.21-.3.58-.83l1.88,1.4s.05-.05.06-.06l-.03.05-.21.33c-.18.31-.45.78-.74,1.32-.56,1.04-1.22,2.43-1.67,3.79"/>
  <path class="cls-8" d="M185.98,181.34l.03-.21v-.11s-2.23-.32-2.23-.32c.35-1.23,1.15-3.5,2.34-5.34,0,0,.21-.3.58-.83l1.88,1.4s.05-.05.06-.06l-.03.05-.21.33c-.18.31-.45.78-.74,1.32-.56,1.04-1.22,2.43-1.67,3.79"/>
  <path class="cls-7" d="M188.59,175.91l-1.89-1.38c.98-1.48,3.05-4.82,4.19-8.58l.34-1.82,2.3.59.05-.2v-.02s0-.04,0-.04c.03-.1.04-.21.09-.35v.11s-.05.2-.05.2c-.17.78-1.38,6.44-4.98,11.43-.01,0-.04.03-.05.05"/>
  <path class="cls-8" d="M188.59,175.91l-1.89-1.38c.98-1.48,3.05-4.82,4.19-8.58l.34-1.82,2.3.59.05-.2v-.02s0-.04,0-.04c.03-.1.04-.21.09-.35v.11s-.05.2-.05.2c-.17.78-1.38,6.44-4.98,11.43-.01,0-.04.03-.05.05"/>
  <path class="cls-7" d="M195.45,154.19c.04-.35.09-.68.11-1.02l-1.42-.17,1.54-.22-.23,1.41Z"/>
  <path class="cls-8" d="M195.45,154.19c.04-.35.09-.68.11-1.02l-1.42-.17,1.54-.22-.23,1.41"/>
  <path class="cls-7" d="M193.53,164.72l-2.31-.59,2-10.98.93-.15,1.42.16c-.03.35-.08.68-.12,1.03l-1.24,7.39c-.23,1.1-.42,2-.53,2.52-.06.14-.07.24-.1.35v.04s-.01.03-.01.03l-.04.19Z"/>
  <path class="cls-8" d="M193.53,164.72l-2.31-.59,2-10.98.93-.15,1.42.16c-.03.35-.08.68-.12,1.03l-1.24,7.39c-.23,1.1-.42,2-.53,2.52-.06.14-.07.24-.1.35v.04s-.01.03-.01.03l-.04.19"/>
  <path class="cls-7" d="M184.53,195.33l-2.67-.36,1.67-13.42s.07-.31.25-.84l2.26.31v.11s-.05.21-.05.21l-.91,8.58.19.04-.57,4.63s-.01.33-.15.74"/>
  <path class="cls-8" d="M184.53,195.33l-2.67-.36,1.67-13.42s.07-.31.25-.84l2.26.31v.11s-.05.21-.05.21l-.91,8.58.19.04-.57,4.63s-.01.33-.15.74"/>
  <path class="cls-7" d="M198.5,163.59l-.07.13-1.24.37s-.8-.36-2.75-.63l-3.57-.47-.81-1.02,1.04-.82,3.59.47c2.34.31,3.27.78,3.37.85l.44,1.12Z"/>
  <path class="cls-8" d="M198.5,163.59l-.07.13-1.24.37s-.8-.36-2.75-.63l-3.57-.47-.81-1.02,1.04-.82,3.59.47c2.34.31,3.27.78,3.37.85l.44,1.12"/>
  <path class="cls-7" d="M199.65,156.72l-.05.1-1.22.38c-.05-.03-.81-.37-2.76-.63l-3.52-.47-.79-1.05,1.04-.79,3.5.47c2.36.32,3.29.77,3.39.83l.41,1.16Z"/>
  <path class="cls-8" d="M199.65,156.72l-.05.1-1.22.38c-.05-.03-.81-.37-2.76-.63l-3.52-.47-.79-1.05,1.04-.79,3.5.47c2.36.32,3.29.77,3.39.83l.41,1.16"/>
  <path class="cls-7" d="M203.58,160.75l-1.16.53s-3-.92-5.1-1.02l-.9-.93.96-.92c2.36.12,5.48,1.08,5.61,1.11l.59,1.17v.07Z"/>
  <path class="cls-8" d="M203.58,160.75l-1.16.53s-3-.92-5.1-1.02l-.9-.93.96-.92c2.36.12,5.48,1.08,5.61,1.11l.59,1.17v.07"/>
  <path class="cls-7" d="M205.1,190.01c2.42.33,3.47,2.12,2.31,3.97l-1.97,3.15c-1.14,1.87-4.06,3.12-6.48,2.8l-17.96-2.42c-2.44-.33-3.47-2.11-2.31-3.98l1.94-3.15c1.18-1.9,4.09-3.13,6.52-2.78l17.95,2.4Z"/>
  <path class="cls-8" d="M205.1,190.01c2.42.33,3.47,2.12,2.31,3.97l-1.97,3.15c-1.14,1.87-4.06,3.12-6.48,2.8l-17.96-2.42c-2.44-.33-3.47-2.11-2.31-3.98l1.94-3.15c1.18-1.9,4.09-3.13,6.52-2.78l17.95,2.4"/>
  <path class="cls-7" d="M207.99,193.52l-.3.66-1.98,3.15c-1.2,1.94-4.24,3.26-6.79,2.93l-17.96-2.44c-1.27-.16-2.23-.71-2.72-1.54-.5-.83-.43-1.9.18-2.9l1.97-3.15c1.2-1.96,4.25-3.26,6.81-2.92l17.94,2.41c1.26.17,2.26.71,2.74,1.56.39.66.45,1.46.12,2.24M178.7,194.24c-.26.63-.22,1.21.08,1.72.39.67,1.18,1.1,2.27,1.24l17.94,2.43c2.32.31,5.09-.86,6.18-2.64l1.97-3.19c.49-.78.57-1.6.18-2.24-.4-.67-1.2-1.1-2.3-1.24l-17.92-2.41c-2.34-.31-5.12.85-6.2,2.63l-1.96,3.15-.26.53Z"/>
  <path class="cls-8" d="M207.99,193.52l-.3.66-1.98,3.15c-1.2,1.94-4.24,3.26-6.79,2.93l-17.96-2.44c-1.27-.16-2.23-.71-2.72-1.54-.5-.83-.43-1.9.18-2.9l1.97-3.15c1.2-1.96,4.25-3.26,6.81-2.92l17.94,2.41c1.26.17,2.26.71,2.74,1.56.39.66.45,1.46.12,2.24M178.7,194.24c-.26.63-.22,1.21.08,1.72.39.67,1.18,1.1,2.27,1.24l17.94,2.43c2.32.31,5.09-.86,6.18-2.64l1.97-3.19c.49-.78.57-1.6.18-2.24-.4-.67-1.2-1.1-2.3-1.24l-17.92-2.41c-2.34-.31-5.12.85-6.2,2.63l-1.96,3.15-.26.53Z"/>
  <path class="cls-7" d="M184.61,194.73l2.64-3.47-1.56,12.82s-1.44,5.91-2.61,3.97l1.53-13.32Z"/>
  <path class="cls-8" d="M184.61,194.73l2.64-3.47-1.56,12.82s-1.44,5.91-2.61,3.97l1.53-13.32"/>
  <path class="cls-7" d="M199.1,197.01l2.61-3.45-1.54,12.84s-1.42,5.88-2.6,3.95l1.54-13.34Z"/>
  <path class="cls-8" d="M199.1,197.01l2.61-3.45-1.54,12.84s-1.42,5.88-2.6,3.95l1.54-13.34"/>
  <path class="cls-7" d="M76.31,264.62l4.59,5.77,9,2.53s-2.53-7.05,3.51-13.48l-5.48-1.77,1.58-7.45-9.4-2.55-3.81,16.95Z"/>
  <path class="cls-8" d="M76.31,264.62l4.59,5.77,9,2.53s-2.53-7.05,3.51-13.48l-5.48-1.77,1.58-7.45-9.4-2.55-3.81,16.95"/>
  <path class="cls-7" d="M88.65,250.83c.68-3.22,1.23-5.78,1.23-5.78l.62-9.43-3.83-1.02-4.27,8.62-1.85,5.48"/>
  <path class="cls-8" d="M88.65,250.83c.68-3.22,1.23-5.78,1.23-5.78l.62-9.43-3.83-1.02-4.27,8.62-1.85,5.48"/>
  <path class="cls-7" d="M90.38,240.03c-3.79.48-5.82-1.49-5.91-1.59l.43-.42s1.93,1.82,5.41,1.4l.07.61Z"/>
  <path class="cls-8" d="M90.38,240.03c-3.79.48-5.82-1.49-5.91-1.59l.43-.42s1.93,1.82,5.41,1.4l.07.61"/>
  <path class="cls-7" d="M90.24,242.29c-3.69,1.11-6.48-1.8-6.57-1.92l.44-.43s2.64,2.75,5.96,1.75l.17.59Z"/>
  <path class="cls-8" d="M90.24,242.29c-3.69,1.11-6.48-1.8-6.57-1.92l.44-.43s2.64,2.75,5.96,1.75l.17.59"/>
  <path class="cls-7" d="M90.11,244.54c-4.42,1.38-7.63-2.18-7.67-2.22l.49-.41s2.96,3.28,6.99,2.05l.18.58Z"/>
  <path class="cls-8" d="M90.11,244.54c-4.42,1.38-7.63-2.18-7.67-2.22l.49-.41s2.96,3.28,6.99,2.05l.18.58"/>
  <path class="cls-7" d="M93.63,259.54c-.6-.21-2.6,2.11-3.73,5.71-1.05,3.45-.61,7.49,0,7.67.6.22,2.39-2.62,3.6-6.01,1.22-3.41.75-7.15.13-7.37"/>
  <path class="cls-8" d="M93.63,259.54c-.6-.21-2.6,2.11-3.73,5.71-1.05,3.45-.61,7.49,0,7.67.6.22,2.39-2.62,3.6-6.01,1.22-3.41.75-7.15.13-7.37"/>
  <path class="cls-7" d="M90.37,271.27s-1.01-5.38,2.93-10.22l3.77,2.18s-2.22,3.77-2.19,8.2l-4.51-.15Z"/>
  <path class="cls-8" d="M90.37,271.27s-1.01-5.38,2.93-10.22l3.77,2.18s-2.22,3.77-2.19,8.2l-4.51-.15"/>
  <path class="cls-7" d="M97.13,263.31c-.35-.11-1.58,1.27-2.26,3.45-.61,2.06-.35,4.48,0,4.59.38.17,1.45-1.56,2.16-3.6.73-2.04.46-4.28.09-4.43"/>
  <path class="cls-8" d="M97.13,263.31c-.35-.11-1.58,1.27-2.26,3.45-.61,2.06-.35,4.48,0,4.59.38.17,1.45-1.56,2.16-3.6.73-2.04.46-4.28.09-4.43"/>
  <path class="cls-7" d="M95.18,270.49l8.6,2.28s-.68-3.66,1.96-6.43l-8.62-2.26c-2.75,3.22-1.8,6.5-1.8,6.5"/>
  <path class="cls-8" d="M95.18,270.49l8.6,2.28s-.68-3.66,1.96-6.43l-8.62-2.26c-2.75,3.22-1.8,6.5-1.8,6.5"/>
  <path class="cls-7" d="M104.17,273.21l-9.06-2.43.03-.15-.11.04c-.05-.14-.97-3.51,1.89-6.82l.11-.16,9.28,2.48-.33.39c-2.49,2.62-1.9,6.14-1.87,6.17l.07.48ZM95.56,270.28l7.84,2.1c-.08-1.06-.05-3.65,1.77-5.84l-7.91-2.14c-2.08,2.57-1.84,5.13-1.7,5.88"/>
  <path class="cls-8" d="M104.17,273.21l-9.06-2.43.03-.15-.11.04c-.05-.14-.97-3.51,1.89-6.82l.11-.16,9.28,2.48-.33.39c-2.49,2.62-1.9,6.14-1.87,6.17l.07.48M95.56,270.28l7.84,2.1c-.08-1.06-.05-3.65,1.77-5.84l-7.91-2.14c-2.08,2.57-1.84,5.13-1.7,5.88"/>
  <path class="cls-7" d="M106.24,266.46c-.3-.1-1.55.89-2.18,2.81-.63,1.93-.16,3.69.21,3.65.45-.05,1.42-1.19,2.05-2.93.53-1.54.23-3.41-.08-3.54"/>
  <path class="cls-8" d="M106.24,266.46c-.3-.1-1.55.89-2.18,2.81-.63,1.93-.16,3.69.21,3.65.45-.05,1.42-1.19,2.05-2.93.53-1.54.23-3.41-.08-3.54"/>
  <path class="cls-7" d="M106.5,270.4c-.59,1.55-1.56,2.76-2.23,2.83l-.4-.18c-.38-.49-.64-2.14-.11-3.89l.14-.35c.63-1.66,1.87-2.81,2.43-2.64.63.25.78,2.46.27,3.91l-.11.31ZM104.31,272.59c.31-.18,1.14-1.04,1.71-2.7.45-1.27.26-2.75.09-3.11-.24.11-1.2.96-1.74,2.57-.52,1.58-.25,2.91-.07,3.23"/>
  <path class="cls-8" d="M106.5,270.4c-.59,1.55-1.56,2.76-2.23,2.83l-.4-.18c-.38-.49-.64-2.14-.11-3.89l.14-.35c.63-1.66,1.87-2.81,2.43-2.64.63.25.78,2.46.27,3.91l-.11.31M104.31,272.59c.31-.18,1.14-1.04,1.71-2.7.45-1.27.26-2.75.09-3.11-.24.11-1.2.96-1.74,2.57-.52,1.58-.25,2.91-.07,3.23"/>
  <path class="cls-7" d="M105.71,267.98c-.15-.03-.74.58-1,1.48-.27.89-.17,1.93-.01,1.98.18.03.7-.73,1.01-1.6.31-.86.15-1.78,0-1.86"/>
  <path class="cls-8" d="M105.71,267.98c-.15-.03-.74.58-1,1.48-.27.89-.17,1.93-.01,1.98.18.03.7-.73,1.01-1.6.31-.86.15-1.78,0-1.86"/>
  <path class="cls-7" d="M111.16,186.93c.27-1.44-2.8-3.22-6.87-4.01-4.07-.79-7.59-.25-7.88,1.19l-6.02,20.76s9.39.09,14.54,3.04l6.24-20.98Z"/>
  <path class="cls-8" d="M111.16,186.93c.27-1.44-2.8-3.22-6.87-4.01-4.07-.79-7.59-.25-7.88,1.19l-6.02,20.76s9.39.09,14.54,3.04l6.24-20.98"/>
  <path class="cls-7" d="M105.11,207.69c-.23,1.44-3.77,1.96-7.87,1.18-4.07-.77-7.13-2.54-6.86-4.01.27-1.44,3.79-1.96,7.87-1.18,4.07.77,7.15,2.58,6.86,4.01"/>
  <path class="cls-8" d="M105.11,207.69c-.23,1.44-3.77,1.96-7.87,1.18-4.07-.77-7.13-2.54-6.86-4.01.27-1.44,3.79-1.96,7.87-1.18,4.07.77,7.15,2.58,6.86,4.01"/>
  <path class="cls-7" d="M107.23,189.16c.67-3.21,1.2-5.79,1.2-5.79l.63-9.4-3.82-1.06-4.27,8.63-1.86,5.49"/>
  <path class="cls-8" d="M107.23,189.16c.67-3.21,1.2-5.79,1.2-5.79l.63-9.4-3.82-1.06-4.27,8.63-1.86,5.49"/>
  <path class="cls-7" d="M108.85,182.66l-.39.47c-3.34-2.72-7.3-2.07-7.34-2.07l-.09-.59c.17-.07,4.25-.73,7.83,2.19"/>
  <path class="cls-8" d="M108.85,182.66l-.39.47c-3.34-2.72-7.3-2.07-7.34-2.07l-.09-.59c.17-.07,4.25-.73,7.83,2.19"/>
  <path class="cls-7" d="M109.11,179.97l-.41.47c-2.64-2.26-6.36-1.82-6.4-1.82l-.07-.63c.18-.01,4-.45,6.89,1.98"/>
  <path class="cls-8" d="M109.11,179.97l-.41.47c-2.64-2.26-6.36-1.82-6.4-1.82l-.07-.63c.18-.01,4-.45,6.89,1.98"/>
  <path class="cls-7" d="M109.23,177.08l-.37.47c-2.53-1.88-5.19-1.32-5.22-1.32l-.11-.61c.12-.01,2.94-.59,5.69,1.46"/>
  <path class="cls-8" d="M109.23,177.08l-.37.47c-2.53-1.88-5.19-1.32-5.22-1.32l-.11-.61c.12-.01,2.94-.59,5.69,1.46"/>
  <path class="cls-7" d="M99.94,215.57l-.45.39c-3.28-3.67-8.26-2.44-8.31-2.42l-.16-.61c.08-.03,5.43-1.34,8.92,2.64"/>
  <path class="cls-8" d="M99.94,215.57l-.45.39c-3.28-3.67-8.26-2.44-8.31-2.42l-.16-.61c.08-.03,5.43-1.34,8.92,2.64"/>
  <path class="cls-7" d="M100.76,213.41l-.48.41c-3.25-3.69-8.23-2.45-8.29-2.45l-.16-.59s5.42-1.34,8.94,2.62"/>
  <path class="cls-8" d="M100.76,213.41l-.48.41c-3.25-3.69-8.23-2.45-8.29-2.45l-.16-.59s5.42-1.34,8.94,2.62"/>
  <path class="cls-7" d="M94.67,205.24s3.53-1.02,6.3,1.81l-2.59,8.72s-2.05-1.82-6.46-2.1l2.75-8.43Z"/>
  <path class="cls-8" d="M94.67,205.24s3.53-1.02,6.3,1.81l-2.59,8.72s-2.05-1.82-6.46-2.1l2.75-8.43"/>
  <path class="cls-7" d="M98.39,215.57c-.17.64-1.78.75-3.56.29-1.83-.47-3.17-1.36-3-2.01.17-.64,1.78-.77,3.59-.29,1.8.47,3.13,1.36,2.97,2.02"/>
  <path class="cls-8" d="M98.39,215.57c-.17.64-1.78.75-3.56.29-1.83-.47-3.17-1.36-3-2.01.17-.64,1.78-.77,3.59-.29,1.8.47,3.13,1.36,2.97,2.02"/>
  <path class="cls-7" d="M103.6,200.1l-.05.09-.83.22c-3.74-2.16-8.73-1.04-8.75-1.04l-.77-.44.47-.75c.22-.05,5.52-1.26,9.66,1.16l.27.75Z"/>
  <path class="cls-8" d="M103.6,200.1l-.05.09-.83.22c-3.74-2.16-8.73-1.04-8.75-1.04l-.77-.44.47-.75c.22-.05,5.52-1.26,9.66,1.16l.27.75"/>
  <path class="cls-7" d="M104.77,195.93l-.08.13-.82.17c-3.45-2.32-8.68-1.01-8.74-1.01l-.75-.45.46-.77c.23-.05,5.79-1.42,9.69,1.19l.23.75Z"/>
  <path class="cls-8" d="M104.77,195.93l-.08.13-.82.17c-3.45-2.32-8.68-1.01-8.74-1.01l-.75-.45.46-.77c.23-.05,5.79-1.42,9.69,1.19l.23.75"/>
  <path class="cls-7" d="M106.39,191.6l-.07.13-.85.17c-3.91-2.52-8.61-1.04-8.66-1.02l-.79-.4.39-.76c.25-.08,5.34-1.7,9.73,1.16l.25.72Z"/>
  <path class="cls-8" d="M106.39,191.6l-.07.13-.85.17c-3.91-2.52-8.61-1.04-8.66-1.02l-.79-.4.39-.76c.25-.08,5.34-1.7,9.73,1.16l.25.72"/>
  <path class="cls-7" d="M90.47,235.81c-.12.37-1.07.44-2.16.17-1.08-.29-1.88-.83-1.76-1.22.09-.39,1.06-.49,2.12-.17,1.09.26,1.91.83,1.8,1.21"/>
  <path class="cls-8" d="M90.47,235.81c-.12.37-1.07.44-2.16.17-1.08-.29-1.88-.83-1.76-1.22.09-.39,1.06-.49,2.12-.17,1.09.26,1.91.83,1.8,1.21"/>
  <path class="cls-7" d="M88.67,234.61c1.66-3.85,5.58-16.34,6.3-19.55"/>
  <path class="cls-8" d="M88.67,234.61c1.66-3.85,5.58-16.34,6.3-19.55"/>
  <path class="cls-7" d="M89.99,235.1c2.63-6.38,4.8-13.18,6.35-19.9.41-1.74-2.34-2-2.75-.27-1.5,6.44-3.67,13.04-6.21,19.15-.69,1.67,1.92,2.66,2.61,1.02"/>
  <path class="cls-8" d="M89.99,235.1c2.63-6.38,4.8-13.18,6.35-19.9.41-1.74-2.34-2-2.75-.27-1.5,6.44-3.67,13.04-6.21,19.15-.69,1.67,1.92,2.66,2.61,1.02"/>
  <path class="cls-7" d="M110.53,251.82c-17.2-9.27-24.21-24.58-28.34-40.79-7.42,7.88-17.36,9.7-24.9,6.76-8.69-3.39-15.01-13.68-9.56-29.05,5.02-14.14,9.54-21.47,13.89-28.55,6.12-9.95,11.89-19.36,18.21-47.16,4.03-17.76,13.24-29.88,25.24-33.25,7.59-2.12,15.27-.16,20.52,5.27,6.98,7.21,8.58,18.97,4.41,32.24-3.26,10.3-21.08,55.19-21.85,57.09l-2.46-.99c.09-.23,4.61-11.63,9.56-24.32-2.11,4.42-4.53,9.14-7.31,14.18-8.37,15.22-14.67,26.83-19.28,37.67-1.24,2.9-2.7,5.42-4.35,7.59,3.99,16.7,10.44,31.77,27.52,40.95l-1.28,2.35ZM68.07,154.59c-1.38,2.44-2.78,4.7-4.19,6.99-4.28,6.97-8.72,14.18-13.64,28.06-5.19,14.61,1.08,22.95,8.03,25.67,6.98,2.72,16.41.69,23.15-7.44-.11-.41-.19-.81-.3-1.24-6.04,7.33-13.8,10.16-19.73,8.38-6.55-1.96-12.15-9.86-8.27-26.14.79-3.28,2.72-7.39,5.66-13.6,2.46-5.22,5.62-11.91,9.29-20.68M111.76,86.27c-.92,0-1.84.07-2.79.23-7.75,1.28-17.75,8.27-21.42,20.58-10.81,36.39-20.56,57-26.36,69.32-2.77,5.86-4.76,10.08-5.48,13.1-3.45,14.47,1.06,21.34,6.43,22.96,5.43,1.63,12.78-1.5,18.25-9.22-.19-.89-.37-1.78-.53-2.66-4.46,8.76-11.19,10.76-16.03,8.82-5-2.01-8.8-8.68-5.39-18.56,3.58-10.4,6.38-16.31,9.34-22.55,5.13-10.84,10.43-22.06,20.44-58.81,4.17-15.39,15.65-22.31,24.29-21.02,6.39.95,13.07,6.77,12.64,20.2-.33,10.37-10.87,31.13-21.06,51.22-6.78,13.36-13.2,25.99-16.62,35.4-1.18,3.22-2.62,6.06-4.24,8.51.08.41.17.81.26,1.23.99-1.54,1.91-3.25,2.7-5.13,4.67-10.95,10.98-22.61,19.39-37.91,26.19-47.62,20.23-65.2,16.45-70.55-2.4-3.38-5.99-5.16-10.28-5.16M110.37,90.97c-7.25,0-16.08,6.36-19.59,19.22-10.06,36.97-15.4,48.29-20.6,59.24-2.92,6.18-5.68,12.02-9.22,22.29-2.84,8.23.01,13.66,3.87,15.22,3.83,1.55,9.36-.43,13.06-8.37.35-.75.71-1.55,1.11-2.41-2.46-12.9-4.5-27.74,2.44-49.01,2.4-7.39,4.34-14.53,6.05-20.82,5.65-20.8,9.78-35.83,23.96-32.92,4.27.86,7.23,3,8.79,6.35,5.28,11.26-6.89,33.77-14.92,48.65l-1.9,3.55c-9.76,18.29-16.15,32.41-20.39,41.75-.44.98-.86,1.9-1.25,2.76.15.81.31,1.6.47,2.4.08.35.14.71.22,1.08.93-1.7,1.78-3.56,2.52-5.59,3.47-9.56,9.92-22.25,16.74-35.7,10.07-19.81,20.46-40.31,20.78-50.1.31-9.92-3.56-16.46-10.36-17.48-.56-.08-1.16-.13-1.75-.13M108.22,95.72c-9.18,0-12.71,11.21-18.17,31.3-1.72,6.32-3.67,13.49-6.1,20.95-6.06,18.61-5.05,32.2-3.03,43.92,4.25-9.37,10.58-23.29,20.14-41.19l1.91-3.55c7.31-13.55,19.55-36.22,14.85-46.27-1.22-2.58-3.47-4.17-6.9-4.86-.96-.19-1.85-.29-2.7-.29M111.71,83.62c5.18,0,9.62,2.19,12.5,6.28,3.17,4.47,6.17,13.61,1.59,31.4.72-2,1.28-3.63,1.65-4.8,3.89-12.31,2.51-23.1-3.77-29.58-4.55-4.71-11.23-6.41-17.89-4.55-11.03,3.09-19.54,14.49-23.36,31.28-.33,1.49-.67,2.93-1,4.32,1.18-3.68,2.37-7.55,3.59-11.63,3.41-11.49,13.08-20.72,23.51-22.45,1.09-.17,2.16-.26,3.19-.26"/>
  <path class="cls-8" d="M110.53,251.82c-17.2-9.27-24.21-24.58-28.34-40.79-7.42,7.88-17.36,9.7-24.9,6.76-8.69-3.39-15.01-13.68-9.56-29.05,5.02-14.14,9.54-21.47,13.89-28.55,6.12-9.95,11.89-19.36,18.21-47.16,4.03-17.76,13.24-29.88,25.24-33.25,7.59-2.12,15.27-.16,20.52,5.27,6.98,7.21,8.58,18.97,4.41,32.24-3.26,10.3-21.08,55.19-21.85,57.09l-2.46-.99c.09-.23,4.61-11.63,9.56-24.32-2.11,4.42-4.53,9.14-7.31,14.18-8.37,15.22-14.67,26.83-19.28,37.67-1.24,2.9-2.7,5.42-4.35,7.59,3.99,16.7,10.44,31.77,27.52,40.95l-1.28,2.35ZM68.07,154.59c-1.38,2.44-2.78,4.7-4.19,6.99-4.28,6.97-8.72,14.18-13.64,28.06-5.19,14.61,1.08,22.95,8.03,25.67,6.98,2.72,16.41.69,23.15-7.44-.11-.41-.19-.81-.3-1.24-6.04,7.33-13.8,10.16-19.73,8.38-6.55-1.96-12.15-9.86-8.27-26.14.79-3.28,2.72-7.39,5.66-13.6,2.46-5.22,5.62-11.91,9.29-20.68ZM111.76,86.27c-.92,0-1.84.07-2.79.23-7.75,1.28-17.75,8.27-21.42,20.58-10.81,36.39-20.56,57-26.36,69.32-2.77,5.86-4.76,10.08-5.48,13.1-3.45,14.47,1.06,21.34,6.43,22.96,5.43,1.63,12.78-1.5,18.25-9.22-.19-.89-.37-1.78-.53-2.66-4.46,8.76-11.19,10.76-16.03,8.82-5-2.01-8.8-8.68-5.39-18.56,3.58-10.4,6.38-16.31,9.34-22.55,5.13-10.84,10.43-22.06,20.44-58.81,4.17-15.39,15.65-22.31,24.29-21.02,6.39.95,13.07,6.77,12.64,20.2-.33,10.37-10.87,31.13-21.06,51.22-6.78,13.36-13.2,25.99-16.62,35.4-1.18,3.22-2.62,6.06-4.24,8.51.08.41.17.81.26,1.23.99-1.54,1.91-3.25,2.7-5.13,4.67-10.95,10.98-22.61,19.39-37.91,26.19-47.62,20.23-65.2,16.45-70.55-2.4-3.38-5.99-5.16-10.28-5.16ZM110.37,90.97c-7.25,0-16.08,6.36-19.59,19.22-10.06,36.97-15.4,48.29-20.6,59.24-2.92,6.18-5.68,12.02-9.22,22.29-2.84,8.23.01,13.66,3.87,15.22,3.83,1.55,9.36-.43,13.06-8.37.35-.75.71-1.55,1.11-2.41-2.46-12.9-4.5-27.74,2.44-49.01,2.4-7.39,4.34-14.53,6.05-20.82,5.65-20.8,9.78-35.83,23.96-32.92,4.27.86,7.23,3,8.79,6.35,5.28,11.26-6.89,33.77-14.92,48.65l-1.9,3.55c-9.76,18.29-16.15,32.41-20.39,41.75-.44.98-.86,1.9-1.25,2.76.15.81.31,1.6.47,2.4.08.35.14.71.22,1.08.93-1.7,1.78-3.56,2.52-5.59,3.47-9.56,9.92-22.25,16.74-35.7,10.07-19.81,20.46-40.31,20.78-50.1.31-9.92-3.56-16.46-10.36-17.48-.56-.08-1.16-.13-1.75-.13ZM108.22,95.72c-9.18,0-12.71,11.21-18.17,31.3-1.72,6.32-3.67,13.49-6.1,20.95-6.06,18.61-5.05,32.2-3.03,43.92,4.25-9.37,10.58-23.29,20.14-41.19l1.91-3.55c7.31-13.55,19.55-36.22,14.85-46.27-1.22-2.58-3.47-4.17-6.9-4.86-.96-.19-1.85-.29-2.7-.29ZM111.71,83.62c5.18,0,9.62,2.19,12.5,6.28,3.17,4.47,6.17,13.61,1.59,31.4.72-2,1.28-3.63,1.65-4.8,3.89-12.31,2.51-23.1-3.77-29.58-4.55-4.71-11.23-6.41-17.89-4.55-11.03,3.09-19.54,14.49-23.36,31.28-.33,1.49-.67,2.93-1,4.32,1.18-3.68,2.37-7.55,3.59-11.63,3.41-11.49,13.08-20.72,23.51-22.45,1.09-.17,2.16-.26,3.19-.26Z"/>
  <path class="cls-7" d="M201.19,152.49l-3.08-.51.08-.45c1.21-7.54,3.91-21.72,9.17-39.2-.17.49-.34,1-.49,1.5-3.69,11.22-12.11,15.2-18.17,13.23-6.7-2.18-12.25-11.91-5.78-32.17.55-1.7,1.14-3.31,1.72-4.96,2.69-7.4,5.47-15.05,5.05-33.49-.32-14.94,2.53-26.05,6.84-33.83-5.26,3.24-10.33,11.03-10.93,21.22l-.03.45c-1.2,20.72-2.24,38.61-14.35,66.18l-2.84-1.26c11.87-27.05,12.85-43.85,14.08-65.12l.03-.43c.68-11.39,6.73-21.62,14.73-24.89.76-.3,1.5-.54,2.24-.69,3.3-4.35,7.1-7.21,10.83-8.72,7.39-2.99,15.31-1.26,20.68,4.54,9.68,10.44,9,29.64-1.79,51.34-18.59,37.35-25.71,73.14-27.9,86.78l-.08.47ZM201.16,20.95c-5.09,7.27-8.74,18.81-8.37,35.41.45,19.02-2.44,26.95-5.23,34.63-.57,1.6-1.15,3.17-1.68,4.84-5.4,16.92-2,26.39,3.78,28.26,4.62,1.5,11.18-1.94,14.25-11.24,5.16-15.67,9.86-27.22,14.02-37.41,3.3-8.07,6.14-15.03,8.37-22.09,7.2-22.76,1.48-31.55-1.31-34.28-2.89-2.82-6.97-3.65-11.16-2.2-1.74.59-3.63,1.66-5.44,3.24.23.18.45.36.67.57,5.15,4.67,15.09,22.42-3.99,85.98-2.64,8.79-6.82,14.41-11.47,15.39-2.33.49-4.49-.27-6.08-2.14-2.83-3.3-4.23-11.06.3-22.97,7.71-20.26,7.77-29.4,7.87-39.97.04-5.58.09-11.92,1.26-20.49.93-6.65,3.29-11.75,6.24-15.46-.69-.13-1.38-.14-2.02-.09M206.18,22.34c-2.86,3.35-5.26,8.15-6.14,14.58-1.16,8.37-1.22,14.33-1.25,20.09-.09,10.87-.16,20.26-8.06,41.05-4.06,10.63-3,17.34-.85,19.84.85.99,1.86,1.36,3.07,1.12,2.67-.57,6.46-4.34,9.14-13.25,19.08-63.6,8.56-79.45,4.88-82.8-.26-.23-.51-.45-.78-.63M217.87,13.05c3.49,0,6.72,1.29,9.3,3.81,6.75,6.6,7.51,20.26,2.08,37.44-1.52,4.81-3.31,9.55-5.32,14.61.78-1.68,1.6-3.37,2.44-5.06,12.01-24.14,9.07-40.56,2.3-47.85-4.53-4.9-10.97-6.3-17.23-3.77-2.67,1.08-5.38,2.96-7.88,5.7.67.12,1.32.3,1.96.54,2.35-2.22,4.91-3.72,7.31-4.54,1.71-.59,3.41-.87,5.05-.87"/>
  <path class="cls-8" d="M201.19,152.49l-3.08-.51.08-.45c1.21-7.54,3.91-21.72,9.17-39.2-.17.49-.34,1-.49,1.5-3.69,11.22-12.11,15.2-18.17,13.23-6.7-2.18-12.25-11.91-5.78-32.17.55-1.7,1.14-3.31,1.72-4.96,2.69-7.4,5.47-15.05,5.05-33.49-.32-14.94,2.53-26.05,6.84-33.83-5.26,3.24-10.33,11.03-10.93,21.22l-.03.45c-1.2,20.72-2.24,38.61-14.35,66.18l-2.84-1.26c11.87-27.05,12.85-43.85,14.08-65.12l.03-.43c.68-11.39,6.73-21.62,14.73-24.89.76-.3,1.5-.54,2.24-.69,3.3-4.35,7.1-7.21,10.83-8.72,7.39-2.99,15.31-1.26,20.68,4.54,9.68,10.44,9,29.64-1.79,51.34-18.59,37.35-25.71,73.14-27.9,86.78l-.08.47ZM201.16,20.95c-5.09,7.27-8.74,18.81-8.37,35.41.45,19.02-2.44,26.95-5.23,34.63-.57,1.6-1.15,3.17-1.68,4.84-5.4,16.92-2,26.39,3.78,28.26,4.62,1.5,11.18-1.94,14.25-11.24,5.16-15.67,9.86-27.22,14.02-37.41,3.3-8.07,6.14-15.03,8.37-22.09,7.2-22.76,1.48-31.55-1.31-34.28-2.89-2.82-6.97-3.65-11.16-2.2-1.74.59-3.63,1.66-5.44,3.24.23.18.45.36.67.57,5.15,4.67,15.09,22.42-3.99,85.98-2.64,8.79-6.82,14.41-11.47,15.39-2.33.49-4.49-.27-6.08-2.14-2.83-3.3-4.23-11.06.3-22.97,7.71-20.26,7.77-29.4,7.87-39.97.04-5.58.09-11.92,1.26-20.49.93-6.65,3.29-11.75,6.24-15.46-.69-.13-1.38-.14-2.02-.09ZM206.18,22.34c-2.86,3.35-5.26,8.15-6.14,14.58-1.16,8.37-1.22,14.33-1.25,20.09-.09,10.87-.16,20.26-8.06,41.05-4.06,10.63-3,17.34-.85,19.84.85.99,1.86,1.36,3.07,1.12,2.67-.57,6.46-4.34,9.14-13.25,19.08-63.6,8.56-79.45,4.88-82.8-.26-.23-.51-.45-.78-.63ZM217.87,13.05c3.49,0,6.72,1.29,9.3,3.81,6.75,6.6,7.51,20.26,2.08,37.44-1.52,4.81-3.31,9.55-5.32,14.61.78-1.68,1.6-3.37,2.44-5.06,12.01-24.14,9.07-40.56,2.3-47.85-4.53-4.9-10.97-6.3-17.23-3.77-2.67,1.08-5.38,2.96-7.88,5.7.67.12,1.32.3,1.96.54,2.35-2.22,4.91-3.72,7.31-4.54,1.71-.59,3.41-.87,5.05-.87Z"/>
  <path class="cls-6" d="M163.05,111.96v-.02c.53-1.03,2.71-5.41,4.5-10.15,0,0,6.23.39,9.69,3.65-1.92,4.76-3.26,9.53-3.53,10.58h-.01c-.19.63-1.71,5.96-.96,11.39,0,0,.31,3.69-.35,7.13l-6.5,16.8-20.76-7.85.02-.04,6.55-16.93s2.38-5.38,6.89-9.14c0,0,2.64-2.42,4.47-5.42"/>
  <path class="cls-6" d="M147.68,144.42l6.53-16.94-2.52-.97,2.49,1.11.06-.17c.43-.91,2.68-5.16,6.06-7.98l.05-.03.07-.06c.08-.09,2.86-2.58,4.94-6.02l-4.63-2.82c-.78,1.28-1.8,2.53-2.62,3.41-.41.45-.77.81-1.02,1.08l-.29.27-.07.06,1.84,2-1.76-2.06c-5.08,4.27-7.5,9.91-7.61,10.08l-.03.08-6.58,16.98,5.09,1.97Z"/>
  <path class="cls-6" d="M170.04,127.62v.12c.05.59.18,3.69-.34,6.28l5.34,1.04c.75-3.94.42-7.77.42-7.9l-5.42.45Z"/>
  <path class="cls-6" d="M171.18,114.99l-.03.08-.05.07v.07c-.25.85-1.86,6.42-1.04,12.54l5.38-.73c-.67-4.71.7-9.78.86-10.22l-2.6-.79,2.56.94.03-.06-5.1-1.9Z"/>
  <path class="cls-6" d="M165.37,113.39l.09-.2-2.42-1.23,2.24,1.55h0s.11-.19.11-.19l.09-.15c.54-1.1,2.76-5.54,4.59-10.45l-2.53-.94-.19,2.7h.04c.22.03,1.68.17,3.38.61,1.66.44,3.52,1.27,4.61,2.3l-.04-.03.19.19,3.76-3.95-.18-.14v-.03c-2.32-2.14-5.13-3.11-7.37-3.69-2.22-.57-3.94-.68-4.04-.68l-2.01-.14-.71,1.89c-1.7,4.57-3.85,8.9-4.35,9.89l2.42,1.22-2.24-1.54h-.01s-.09.17-.09.17l-.2.36,4.86,2.46Z"/>
  <path class="cls-6" d="M176.29,116.89l.05-.21-2.64-.67,2.61.73c.29-1,1.6-5.68,3.45-10.27l-5.05-2.05c-1.97,4.96-3.31,9.8-3.63,10.89v.02s-.07.23-.07.23l5.27,1.34Z"/>
  <polygon class="cls-6" points="144.06 146 144.21 146.03 167.46 154.84 174.93 135.48 174.97 135.35 169.87 133.46 169.84 133.58 164.34 147.85 146.03 140.93 145.79 140.85 144.06 146"/>
  <path class="cls-1" d="M164.57,150.08c.87.32,1.55,1.03,1.54,1.6,0,.53-.71.71-1.54.39l-18.3-7.07c-.85-.33-1.53-1.03-1.5-1.58,0-.53.71-.71,1.54-.39l18.26,7.05Z"/>
  <path class="cls-2" d="M164.34,147.85c-.13-.95.29-1.8.29-1.8l4.13-10.76c1.75-3.83,1.06-7.47,1.06-7.47l-.18-5.49c-.15-1.99.93-5.96.93-5.96l1.4-4.05c-.37,1.2-.64,2.12-.79,2.67l-.03.08-.05.07v.07c-.25.85-1.86,6.35-1.06,12.45v.07c.05.6.2,3.52-.29,6.06l-5.41,14.06Z"/>
  <path class="cls-2" d="M172.04,134.26l-2.16-.81-.03.13-.09.21c.46-2.54.34-5.46.29-6.06v-.05s.01.05.01.06l2.32-.31c.05.64.11,1.01.11,1.01.17,2.18-.22,4.56-.45,5.82"/>
  <path class="cls-2" d="M172.38,127.43l-2.32.31s0-.04-.01-.07c-.81-6.12.81-11.62,1.05-12.47l.03-.06.03-.09.03-.07c-.03.13-.06.19-.09.31v.02s-.07.23-.07.23l2.31.57-.57,1.77c-.77,3.85-.55,7.75-.38,9.54"/>
  <path class="cls-2" d="M176.03,104.95l-1.3-.53c-.17.4-.31.78-.46,1.19l.51-1.58,1.25.92Z"/>
  <path class="cls-2" d="M173.33,116.13l-2.31-.57.05-.23v-.02c.04-.11.07-.17.11-.31.13-.55.41-1.48.78-2.67l2.31-6.72c.13-.39.29-.78.44-1.19l1.32.53.75.55-3.45,10.63Z"/>
  <path class="cls-2" d="M166.09,149.9l-1.25-.85c-.3-.4-.47-.81-.5-1.2l5.42-14.06.09-.21.03-.13,2.17.81c-.12.51-.2.85-.2.85l-5.75,14.78Z"/>
  <path class="cls-7" d="M169.06,146.2l-.57.2-.17-.57c0-.26-.75-.85-1.74-1.24l-18.27-7.05-1.18.22-.56-.26c.23-.53.87-.96,1.94-.55l18.3,7.08c.08.03,2.06.79,2.1,1.76l.14.41Z"/>
  <path class="cls-7" d="M169.99,143.57l-.52.29-.22-.41c-.19-.26-.93-1.12-1.71-1.42l-18.29-7.07-1.04-.07-.07.17h-.63s.35-.68.35-.68c.39-.25.99-.25,1.64,0l18.27,7.07c.91.33,1.76,1.3,2.01,1.7l.22.41Z"/>
  <path class="cls-7" d="M170.97,141.05l-.52.28-.26-.48c-.13-.35-.85-1.05-1.66-1.35l-18.29-7.08-1.03-.04-.11.18-.61-.04.37-.67c.34-.23.98-.23,1.61.03l18.29,7.06c.87.32,1.78,1.1,2.01,1.66l.21.46Z"/>
  <path class="cls-7" d="M175.28,114.72l-1.18.51-3.31-1.19c-1.88-.71-2.72-.75-2.72-.75l-.89-.96.92-.89c.1-.01,1.12.03,3.35.85l3.3,1.22.56,1.19h-.03Z"/>
  <path class="cls-7" d="M177.37,108.09l-1.22.53-3.1-1.22c-1.9-.71-2.73-.74-2.73-.74l-.88-.94.9-.93c.11,0,1.15.03,3.38.86l3.12,1.21.53,1.23Z"/>
  <path class="cls-7" d="M171.08,109.36l-.04.09-1.25.39c-1.9-.91-5.08-1.54-5.13-1.53l-.71-1.09,1.08-.73c.15.01,3.47.66,5.6,1.72l.45,1.16Z"/>
  <path class="cls-6" d="M145.02,148.28l1.29-3.16s.43-1.02,1.23-.84l15.81,6.02s.91.43.77,1.16l-1.28,3.55-17.82-6.73Z"/>
  <path class="cls-6" d="M179.52,160.19c3.73,1.44,5.58,5.62,4.16,9.34l-31.33,81.08c-1.44,3.73-5.6,5.58-9.34,4.14l-24.24-9.35c-3.74-1.48-5.6-5.64-4.15-9.36l31.31-81.07c1.42-3.74,5.62-5.6,9.34-4.14l24.25,9.36Z"/>
  <path class="cls-6" d="M166.11,154.74c3.72,1.45,5.57,5.62,4.13,9.34l-31.29,81.1c-1.46,3.71-5.64,5.56-9.36,4.13l-24.28-9.39c-3.7-1.42-5.57-5.6-4.13-9.33l31.32-81.06c1.42-3.73,5.61-5.58,9.34-4.14l24.26,9.36Z"/>
  <path class="cls-7" d="M170.82,164.28l-31.3,81.1c-1.58,4.03-6.13,6.04-10.16,4.5l-24.26-9.38c-4.03-1.56-6.02-6.12-4.47-10.13l31.31-81.08c1.55-4.04,6.12-6.06,10.13-4.49l24.22,9.37c4.07,1.56,6.08,6.11,4.53,10.11M101.77,230.81c-1.29,3.41.41,7.23,3.78,8.54l24.28,9.38c3.39,1.32,7.21-.39,8.53-3.81l31.31-81.05c1.32-3.41-.38-7.24-3.77-8.57l-24.25-9.37c-3.43-1.3-7.24.41-8.56,3.81l-31.32,81.07Z"/>
  <path class="cls-6" d="M108.42,252.42s.59-1.92,1.8-5.1l11.99,3.31s5.36,1.56,5.89-1.54l13.83,4.16s-.89,13.42-13.04,8.4l-20.48-9.24Z"/>
  <path class="cls-7" d="M125.3,259.98h-.65c.01-.05,0-1.56.83-3.49l.57.26c-.78,1.84-.75,3.23-.75,3.23"/>
  <path class="cls-7" d="M121.65,258.45h-.61c.01-.05.04-1.4.79-3.22l.55.25c-.7,1.69-.73,2.97-.73,2.97"/>
  <path class="cls-7" d="M118.33,256.95l-.63-.05s.08-.79.71-2.61l.59.18c-.59,1.75-.67,2.48-.67,2.48"/>
  <path class="cls-7" d="M114.94,255.3h-.64c.03-.08.04-.59.69-2.36l.57.23c-.6,1.67-.61,2.1-.63,2.12"/>
  <path class="cls-7" d="M125.05,249.78c-1.33,1.21-1.85,3.55-1.86,3.57l-.6-.13c.03-.1.55-2.55,2.06-3.91l.41.47Z"/>
  <path class="cls-7" d="M120.36,250.05c-.73,1.32-.82,2.04-.83,2.05l-.63-.11s.15-.79.92-2.23l.55.29Z"/>
  <path class="cls-7" d="M116.27,251.01l-.59-.11s.25-1.08.81-2.1l.53.29c-.49.95-.74,1.92-.75,1.92"/>
  <path class="cls-7" d="M113.87,248.36l-.67,1.64-.58-.18c.03-.15.4-1.35.75-1.84l.49.37Z"/>
  <path class="cls-7" d="M124.17,250.91c-.64,1.33-.98,2.48-.98,2.48l-.61-.19s.37-1.16,1.01-2.54l.57.26Z"/>
  <path class="cls-7" d="M111.7,253.97l-.6-.04s.05-.73.75-2.26l.57.25c-.65,1.42-.73,2.06-.73,2.06"/>
  <path class="cls-6" d="M190.98,163.83c-.14.66-1.34,6.08-4.57,10.47,0,0-2.04,3.11-3.08,6.46h-.01s-1.22,11.5-1.22,11.5l21.91,3.02,1.34-11.74s.43-5.87-1.72-11.31c0,0-1.19-3.38-1.37-6.87v-.04c.03-1.16.21-6.06.89-11.08,0,0-5.71-2.62-10.29-1.4h.01c-.57,5.12-1.66,9.94-1.93,10.99h.03Z"/>
  <path class="cls-6" d="M206.72,195.61l1.34-11.83v-.05c0-.2.51-6.35-1.93-12.51l-2.5,1,2.57-.89-.05-.07c-.19-.59-1.04-3.43-1.16-6.07l-5.42.28c.22,3.98,1.46,7.51,1.47,7.65l.03.05.05.07c.94,2.34,1.33,4.92,1.48,6.88.09.98.1,1.82.09,2.37v.65l-.03.19,2.72.19-2.7-.29-1.34,11.75,5.4.63Z"/>
  <path class="cls-6" d="M184.11,172.83c-.05.1-2.18,3.3-3.38,7.12l5.18,1.64c.44-1.44,1.14-2.91,1.73-4.03.3-.54.56-1,.75-1.32l.22-.33.04-.11-4.54-2.96Z"/>
  <path class="cls-6" d="M188.28,163.57v.07s2.71.21,2.71.21l-2.66-.58c-.11.5-1.3,5.62-4.13,9.44l4.39,3.21c3.64-4.99,4.86-10.7,5.04-11.48l.04-.2.03-.26-5.42-.4Z"/>
  <path class="cls-6" d="M204.97,165.62l.03-.23v-.38l-.12-.41-2.6.71,2.7.08c.04-1.12.19-5.92.89-10.78l.26-2-1.83-.82c-.1-.05-1.67-.77-3.9-1.34-2.23-.55-5.18-1.02-8.23-.23l.71,2.62-.57-2.64-.23.05,1.15,5.29.22-.03h.05l.08-.03c1.52-.44,3.75-.22,5.49.25.89.22,1.63.47,2.18.67l.6.25.16.05h.02l1.14-2.45-2.69-.39c-.73,5.2-.9,10.19-.94,11.37v.4l.11.41,2.62-.69-2.71-.08v.21l5.42.14Z"/>
  <path class="cls-6" d="M193.53,164.72l.04-.19.03-.03v-.04c.25-1.12,1.37-5.99,1.97-11.3l-5.39-.61c-.56,4.92-1.63,9.68-1.88,10.67l2.64.61-2.64-.66-.03.19,5.26,1.36Z"/>
  <polygon class="cls-6" points="204.38 192.59 185.06 189.92 186.02 181.12 186.02 181.02 180.64 180.23 180.62 180.38 180.6 180.42 179.11 194.58 203.64 197.99 204.38 192.59"/>
  <path class="cls-5" d="M183.48,196.91c-.13.08-.26.15-.39.22l-1.5.13.27-2.29,2.68.36c-.15.51-.47,1.16-1.07,1.58"/>
  <path class="cls-2" d="M185.28,189.95l-.21-.04.91-8.58c.46-1.36,1.12-2.74,1.67-3.79.3-.54.56-1.01.75-1.32l.21-.33.04-.05c3.6-4.98,4.81-10.65,5-11.44l.03-.19.03-.12c.1-.53.3-1.43.52-2.52l-.67,4.08s-.93,3.97-2.02,5.66l-2.78,4.76s-2.3,2.84-2.64,7.07l-.83,6.8Z"/>
  <path class="cls-2" d="M185.98,181.34l.03-.21v-.11s-2.23-.32-2.23-.32c.35-1.23,1.15-3.5,2.34-5.34,0,0,.21-.3.58-.83l1.88,1.4s.05-.05.06-.06l-.03.05-.21.33c-.18.31-.45.78-.74,1.32-.56,1.04-1.22,2.43-1.67,3.79"/>
  <path class="cls-2" d="M188.59,175.91l-1.89-1.38c.98-1.48,3.05-4.82,4.19-8.58l.34-1.82,2.3.59.05-.2v-.02s0-.04,0-.04c.03-.1.04-.21.09-.35v.11s-.05.2-.05.2c-.17.78-1.38,6.44-4.98,11.43-.01,0-.04.03-.05.05"/>
  <path class="cls-2" d="M195.45,154.19c.04-.35.09-.68.11-1.02l-1.42-.17,1.54-.22-.23,1.41Z"/>
  <path class="cls-2" d="M193.53,164.72l-2.31-.59,2-10.98.93-.15,1.42.16c-.03.35-.08.68-.12,1.03l-1.24,7.39c-.23,1.1-.42,2-.53,2.52-.06.14-.07.24-.1.35v.04s-.01.03-.01.03l-.04.19Z"/>
  <path class="cls-2" d="M184.53,195.33l-2.67-.36,1.67-13.42s.07-.31.25-.84l2.26.31v.11s-.05.21-.05.21l-.91,8.58.19.04-.57,4.63s-.01.33-.15.74"/>
  <path class="cls-7" d="M198.5,163.59l-.07.13-1.24.37s-.8-.36-2.75-.63l-3.57-.47-.81-1.02,1.04-.82,3.59.47c2.34.31,3.27.78,3.37.85l.44,1.12Z"/>
  <path class="cls-7" d="M199.65,156.72l-.05.1-1.22.38c-.05-.03-.81-.37-2.76-.63l-3.52-.47-.79-1.05,1.04-.79,3.5.47c2.36.32,3.29.77,3.39.83l.41,1.16Z"/>
  <path class="cls-7" d="M203.58,160.75l-1.16.53s-3-.92-5.1-1.02l-.9-.93.96-.92c2.36.12,5.48,1.08,5.61,1.11l.59,1.17v.07Z"/>
  <path class="cls-6" d="M205.1,190.01c2.42.33,3.47,2.12,2.31,3.97l-1.97,3.15c-1.14,1.87-4.06,3.12-6.48,2.8l-17.96-2.42c-2.44-.33-3.47-2.11-2.31-3.98l1.94-3.15c1.18-1.9,4.09-3.13,6.52-2.78l17.95,2.4Z"/>
  <path class="cls-7" d="M207.99,193.52l-.3.66-1.98,3.15c-1.2,1.94-4.24,3.26-6.79,2.93l-17.96-2.44c-1.27-.16-2.23-.71-2.72-1.54-.5-.83-.43-1.9.18-2.9l1.97-3.15c1.2-1.96,4.25-3.26,6.81-2.92l17.94,2.41c1.26.17,2.26.71,2.74,1.56.39.66.45,1.46.12,2.24M178.7,194.24c-.26.63-.22,1.21.08,1.72.39.67,1.18,1.1,2.27,1.24l17.94,2.43c2.32.31,5.09-.86,6.18-2.64l1.97-3.19c.49-.78.57-1.6.18-2.24-.4-.67-1.2-1.1-2.3-1.24l-17.92-2.41c-2.34-.31-5.12.85-6.2,2.63l-1.96,3.15-.26.53Z"/>
  <path class="cls-1" d="M184.61,194.73l2.64-3.47-1.56,12.82s-1.44,5.91-2.61,3.97l1.53-13.32Z"/>
  <path class="cls-1" d="M199.1,197.01l2.61-3.45-1.54,12.84s-1.42,5.88-2.6,3.95l1.54-13.34Z"/>
  <path class="cls-6" d="M76.31,264.62l4.59,5.77,9,2.53s-2.53-7.05,3.51-13.48l-5.48-1.77,1.58-7.45-9.4-2.55-3.81,16.95Z"/>
  <path class="cls-6" d="M88.65,250.83c.68-3.22,1.23-5.78,1.23-5.78l.62-9.43-3.83-1.02-4.27,8.62-1.85,5.48"/>
  <path class="cls-7" d="M90.38,240.03c-3.79.48-5.82-1.49-5.91-1.59l.43-.42s1.93,1.82,5.41,1.4l.07.61Z"/>
  <path class="cls-7" d="M90.24,242.29c-3.69,1.11-6.48-1.8-6.57-1.92l.44-.43s2.64,2.75,5.96,1.75l.17.59Z"/>
  <path class="cls-7" d="M90.11,244.54c-4.42,1.38-7.63-2.18-7.67-2.22l.49-.41s2.96,3.28,6.99,2.05l.18.58Z"/>
  <path class="cls-1" d="M93.63,259.54c-.6-.21-2.6,2.11-3.73,5.71-1.05,3.45-.61,7.49,0,7.67.6.22,2.39-2.62,3.6-6.01,1.22-3.41.75-7.15.13-7.37"/>
  <path class="cls-6" d="M90.37,271.27s-1.01-5.38,2.93-10.22l3.77,2.18s-2.22,3.77-2.19,8.2l-4.51-.15Z"/>
  <path class="cls-1" d="M97.13,263.31c-.35-.11-1.58,1.27-2.26,3.45-.61,2.06-.35,4.48,0,4.59.38.17,1.45-1.56,2.16-3.6.73-2.04.46-4.28.09-4.43"/>
  <path class="cls-3" d="M95.18,270.49l8.6,2.28s-.68-3.66,1.96-6.43l-8.62-2.26c-2.75,3.22-1.8,6.5-1.8,6.5"/>
  <path class="cls-6" d="M104.17,273.21l-9.06-2.43.03-.15-.11.04c-.05-.14-.97-3.51,1.89-6.82l.11-.16,9.28,2.48-.33.39c-2.49,2.62-1.9,6.14-1.87,6.17l.07.48ZM95.56,270.28l7.84,2.1c-.08-1.06-.05-3.65,1.77-5.84l-7.91-2.14c-2.08,2.57-1.84,5.13-1.7,5.88"/>
  <path class="cls-4" d="M106.24,266.46c-.3-.1-1.55.89-2.18,2.81-.63,1.93-.16,3.69.21,3.65.45-.05,1.42-1.19,2.05-2.93.53-1.54.23-3.41-.08-3.54"/>
  <path class="cls-6" d="M106.5,270.4c-.59,1.55-1.56,2.76-2.23,2.83l-.4-.18c-.38-.49-.64-2.14-.11-3.89l.14-.35c.63-1.66,1.87-2.81,2.43-2.64.63.25.78,2.46.27,3.91l-.11.31ZM104.31,272.59c.31-.18,1.14-1.04,1.71-2.7.45-1.27.26-2.75.09-3.11-.24.11-1.2.96-1.74,2.57-.52,1.58-.25,2.91-.07,3.23"/>
  <path class="cls-6" d="M105.71,267.98c-.15-.03-.74.58-1,1.48-.27.89-.17,1.93-.01,1.98.18.03.7-.73,1.01-1.6.31-.86.15-1.78,0-1.86"/>
  <path class="cls-6" d="M111.16,186.93c.27-1.44-2.8-3.22-6.87-4.01-4.07-.79-7.59-.25-7.88,1.19l-6.02,20.76s9.39.09,14.54,3.04l6.24-20.98Z"/>
  <path class="cls-1" d="M105.11,207.69c-.23,1.44-3.77,1.96-7.87,1.18-4.07-.77-7.13-2.54-6.86-4.01.27-1.44,3.79-1.96,7.87-1.18,4.07.77,7.15,2.58,6.86,4.01"/>
  <path class="cls-6" d="M107.23,189.16c.67-3.21,1.2-5.79,1.2-5.79l.63-9.4-3.82-1.06-4.27,8.63-1.86,5.49"/>
  <path class="cls-7" d="M108.85,182.66l-.39.47c-3.34-2.72-7.3-2.07-7.34-2.07l-.09-.59c.17-.07,4.25-.73,7.83,2.19"/>
  <path class="cls-7" d="M109.11,179.97l-.41.47c-2.64-2.26-6.36-1.82-6.4-1.82l-.07-.63c.18-.01,4-.45,6.89,1.98"/>
  <path class="cls-7" d="M109.23,177.08l-.37.47c-2.53-1.88-5.19-1.32-5.22-1.32l-.11-.61c.12-.01,2.94-.59,5.69,1.46"/>
  <path class="cls-7" d="M99.94,215.57l-.45.39c-3.28-3.67-8.26-2.44-8.31-2.42l-.16-.61c.08-.03,5.43-1.34,8.92,2.64"/>
  <path class="cls-7" d="M100.76,213.41l-.48.41c-3.25-3.69-8.23-2.45-8.29-2.45l-.16-.59s5.42-1.34,8.94,2.62"/>
  <path class="cls-6" d="M94.67,205.24s3.53-1.02,6.3,1.81l-2.59,8.72s-2.05-1.82-6.46-2.1l2.75-8.43Z"/>
  <path class="cls-1" d="M98.39,215.57c-.17.64-1.78.75-3.56.29-1.83-.47-3.17-1.36-3-2.01.17-.64,1.78-.77,3.59-.29,1.8.47,3.13,1.36,2.97,2.02"/>
  <path class="cls-7" d="M103.6,200.1l-.05.09-.83.22c-3.74-2.16-8.73-1.04-8.75-1.04l-.77-.44.47-.75c.22-.05,5.52-1.26,9.66,1.16l.27.75Z"/>
  <path class="cls-7" d="M104.77,195.93l-.08.13-.82.17c-3.45-2.32-8.68-1.01-8.74-1.01l-.75-.45.46-.77c.23-.05,5.79-1.42,9.69,1.19l.23.75Z"/>
  <path class="cls-7" d="M106.39,191.6l-.07.13-.85.17c-3.91-2.52-8.61-1.04-8.66-1.02l-.79-.4.39-.76c.25-.08,5.34-1.7,9.73,1.16l.25.72Z"/>
  <path class="cls-1" d="M90.47,235.81c-.12.37-1.07.44-2.16.17-1.08-.29-1.88-.83-1.76-1.22.09-.39,1.06-.49,2.12-.17,1.09.26,1.91.83,1.8,1.21"/>
  <path class="cls-7" d="M88.67,234.61c1.66-3.85,5.58-16.34,6.3-19.55"/>
  <path class="cls-6" d="M89.99,235.1c2.63-6.38,4.8-13.18,6.35-19.9.41-1.74-2.34-2-2.75-.27-1.5,6.44-3.67,13.04-6.21,19.15-.69,1.67,1.92,2.66,2.61,1.02"/>
  <path class="cls-6" d="M110.53,251.82c-17.2-9.27-24.21-24.58-28.34-40.79-7.42,7.88-17.36,9.7-24.9,6.76-8.69-3.39-15.01-13.68-9.56-29.05,5.02-14.14,9.54-21.47,13.89-28.55,6.12-9.95,11.89-19.36,18.21-47.16,4.03-17.76,13.24-29.88,25.24-33.25,7.59-2.12,15.27-.16,20.52,5.27,6.98,7.21,8.58,18.97,4.41,32.24-3.26,10.3-21.08,55.19-21.85,57.09l-2.46-.99c.09-.23,4.61-11.63,9.56-24.32-2.11,4.42-4.53,9.14-7.31,14.18-8.37,15.22-14.67,26.83-19.28,37.67-1.24,2.9-2.7,5.42-4.35,7.59,3.99,16.7,10.44,31.77,27.52,40.95l-1.28,2.35ZM68.07,154.59c-1.38,2.44-2.78,4.7-4.19,6.99-4.28,6.97-8.72,14.18-13.64,28.06-5.19,14.61,1.08,22.95,8.03,25.67,6.98,2.72,16.41.69,23.15-7.44-.11-.41-.19-.81-.3-1.24-6.04,7.33-13.8,10.16-19.73,8.38-6.55-1.96-12.15-9.86-8.27-26.14.79-3.28,2.72-7.39,5.66-13.6,2.46-5.22,5.62-11.91,9.29-20.68M111.76,86.27c-.92,0-1.84.07-2.79.23-7.75,1.28-17.75,8.27-21.42,20.58-10.81,36.39-20.56,57-26.36,69.32-2.77,5.86-4.76,10.08-5.48,13.1-3.45,14.47,1.06,21.34,6.43,22.96,5.43,1.63,12.78-1.5,18.25-9.22-.19-.89-.37-1.78-.53-2.66-4.46,8.76-11.19,10.76-16.03,8.82-5-2.01-8.8-8.68-5.39-18.56,3.58-10.4,6.38-16.31,9.34-22.55,5.13-10.84,10.43-22.06,20.44-58.81,4.17-15.39,15.65-22.31,24.29-21.02,6.39.95,13.07,6.77,12.64,20.2-.33,10.37-10.87,31.13-21.06,51.22-6.78,13.36-13.2,25.99-16.62,35.4-1.18,3.22-2.62,6.06-4.24,8.51.08.41.17.81.26,1.23.99-1.54,1.91-3.25,2.7-5.13,4.67-10.95,10.98-22.61,19.39-37.91,26.19-47.62,20.23-65.2,16.45-70.55-2.4-3.38-5.99-5.16-10.28-5.16M110.37,90.97c-7.25,0-16.08,6.36-19.59,19.22-10.06,36.97-15.4,48.29-20.6,59.24-2.92,6.18-5.68,12.02-9.22,22.29-2.84,8.23.01,13.66,3.87,15.22,3.83,1.55,9.36-.43,13.06-8.37.35-.75.71-1.55,1.11-2.41-2.46-12.9-4.5-27.74,2.44-49.01,2.4-7.39,4.34-14.53,6.05-20.82,5.65-20.8,9.78-35.83,23.96-32.92,4.27.86,7.23,3,8.79,6.35,5.28,11.26-6.89,33.77-14.92,48.65l-1.9,3.55c-9.76,18.29-16.15,32.41-20.39,41.75-.44.98-.86,1.9-1.25,2.76.15.81.31,1.6.47,2.4.08.35.14.71.22,1.08.93-1.7,1.78-3.56,2.52-5.59,3.47-9.56,9.92-22.25,16.74-35.7,10.07-19.81,20.46-40.31,20.78-50.1.31-9.92-3.56-16.46-10.36-17.48-.56-.08-1.16-.13-1.75-.13M108.22,95.72c-9.18,0-12.71,11.21-18.17,31.3-1.72,6.32-3.67,13.49-6.1,20.95-6.06,18.61-5.05,32.2-3.03,43.92,4.25-9.37,10.58-23.29,20.14-41.19l1.91-3.55c7.31-13.55,19.55-36.22,14.85-46.27-1.22-2.58-3.47-4.17-6.9-4.86-.96-.19-1.85-.29-2.7-.29M111.71,83.62c5.18,0,9.62,2.19,12.5,6.28,3.17,4.47,6.17,13.61,1.59,31.4.72-2,1.28-3.63,1.65-4.8,3.89-12.31,2.51-23.1-3.77-29.58-4.55-4.71-11.23-6.41-17.89-4.55-11.03,3.09-19.54,14.49-23.36,31.28-.33,1.49-.67,2.93-1,4.32,1.18-3.68,2.37-7.55,3.59-11.63,3.41-11.49,13.08-20.72,23.51-22.45,1.09-.17,2.16-.26,3.19-.26"/>
  <path class="cls-6" d="M201.19,152.49l-3.08-.51.08-.45c1.21-7.54,3.91-21.72,9.17-39.2-.17.49-.34,1-.49,1.5-3.69,11.22-12.11,15.2-18.17,13.23-6.7-2.18-12.25-11.91-5.78-32.17.55-1.7,1.14-3.31,1.72-4.96,2.69-7.4,5.47-15.05,5.05-33.49-.32-14.94,2.53-26.05,6.84-33.83-5.26,3.24-10.33,11.03-10.93,21.22l-.03.45c-1.2,20.72-2.24,38.61-14.35,66.18l-2.84-1.26c11.87-27.05,12.85-43.85,14.08-65.12l.03-.43c.68-11.39,6.73-21.62,14.73-24.89.76-.3,1.5-.54,2.24-.69,3.3-4.35,7.1-7.21,10.83-8.72,7.39-2.99,15.31-1.26,20.68,4.54,9.68,10.44,9,29.64-1.79,51.34-18.59,37.35-25.71,73.14-27.9,86.78l-.08.47ZM201.16,20.95c-5.09,7.27-8.74,18.81-8.37,35.41.45,19.02-2.44,26.95-5.23,34.63-.57,1.6-1.15,3.17-1.68,4.84-5.4,16.92-2,26.39,3.78,28.26,4.62,1.5,11.18-1.94,14.25-11.24,5.16-15.67,9.86-27.22,14.02-37.41,3.3-8.07,6.14-15.03,8.37-22.09,7.2-22.76,1.48-31.55-1.31-34.28-2.89-2.82-6.97-3.65-11.16-2.2-1.74.59-3.63,1.66-5.44,3.24.23.18.45.36.67.57,5.15,4.67,15.09,22.42-3.99,85.98-2.64,8.79-6.82,14.41-11.47,15.39-2.33.49-4.49-.27-6.08-2.14-2.83-3.3-4.23-11.06.3-22.97,7.71-20.26,7.77-29.4,7.87-39.97.04-5.58.09-11.92,1.26-20.49.93-6.65,3.29-11.75,6.24-15.46-.69-.13-1.38-.14-2.02-.09M206.18,22.34c-2.86,3.35-5.26,8.15-6.14,14.58-1.16,8.37-1.22,14.33-1.25,20.09-.09,10.87-.16,20.26-8.06,41.05-4.06,10.63-3,17.34-.85,19.84.85.99,1.86,1.36,3.07,1.12,2.67-.57,6.46-4.34,9.14-13.25,19.08-63.6,8.56-79.45,4.88-82.8-.26-.23-.51-.45-.78-.63M217.87,13.05c3.49,0,6.72,1.29,9.3,3.81,6.75,6.6,7.51,20.26,2.08,37.44-1.52,4.81-3.31,9.55-5.32,14.61.78-1.68,1.6-3.37,2.44-5.06,12.01-24.14,9.07-40.56,2.3-47.85-4.53-4.9-10.97-6.3-17.23-3.77-2.67,1.08-5.38,2.96-7.88,5.7.67.12,1.32.3,1.96.54,2.35-2.22,4.91-3.72,7.31-4.54,1.71-.59,3.41-.87,5.05-.87"/>
</svg>