<?xml version="1.0" encoding="UTF-8"?>
<svg id="_レイヤー_1" data-name="レイヤー 1" xmlns="http://www.w3.org/2000/svg" version="1.1" viewBox="0 0 243.3 42.73">
  <defs>
    <style>
      .cls-1 {
        fill: #f6ab00;
      }

      .cls-1, .cls-2, .cls-3 {
        stroke-width: 0px;
      }

      .cls-4 {
        fill: #fff;
        stroke: #fff;
        stroke-linecap: round;
        stroke-linejoin: round;
        stroke-width: .36px;
      }

      .cls-2 {
        fill: #636a6c;
      }

      .cls-3 {
        fill: #1d2088;
      }
    </style>
  </defs>
  <path class="cls-1" d="M33.48,26.54l-8.68,1.33,2.81-7.74c-.95-.31-1.96-.49-3.02-.49-5,0-9.06,3.8-9.06,8.48s4.06,8.48,9.06,8.48,9.06-3.8,9.06-8.48c0-.54-.06-1.06-.16-1.57Z"/>
  <path class="cls-2" d="M47.44,34.71c-.68.23-1.98.55-3.27.55-1.79,0-3.09-.45-3.99-1.31-.89-.86-1.38-2.14-1.38-3.58.01-3.26,2.39-5.13,5.61-5.13,1.26,0,2.24.25,2.72.47l-.47,1.79c-.54-.25-1.19-.42-2.27-.42-1.85,0-3.26,1.05-3.26,3.17s1.28,3.22,3.1,3.22c.49,0,.9-.06,1.08-.13v-2.07h-1.51v-1.73h3.65v5.17Z"/>
  <path class="cls-2" d="M52.46,35.32c-2.08,0-3.68-1.37-3.68-3.67s1.51-3.77,3.81-3.77c2.17,0,3.63,1.5,3.63,3.66,0,2.59-1.85,3.79-3.74,3.79h-.01ZM52.51,33.73c.87,0,1.41-.86,1.41-2.14,0-1.05-.41-2.13-1.41-2.13s-1.46,1.08-1.46,2.14c0,1.2.51,2.12,1.44,2.12h.02Z"/>
  <path class="cls-2" d="M60.91,35.32c-2.09,0-3.69-1.37-3.69-3.67s1.51-3.77,3.82-3.77c2.17,0,3.62,1.5,3.62,3.66,0,2.59-1.85,3.79-3.74,3.79h-.01ZM60.95,33.73c.87,0,1.41-.86,1.41-2.14,0-1.05-.41-2.13-1.41-2.13s-1.46,1.08-1.46,2.14c0,1.2.51,2.12,1.44,2.12h.01Z"/>
  <path class="cls-2" d="M72.98,24.82v8.21c0,.82.03,1.65.06,2.13h-1.97l-.09-1.04h-.04c-.44.79-1.31,1.2-2.23,1.2-1.69,0-3.04-1.44-3.04-3.66-.01-2.39,1.49-3.79,3.19-3.79.89,0,1.56.32,1.88.8h.03v-3.86h2.21ZM70.77,31.06c0-.13,0-.27-.03-.41-.13-.6-.61-1.08-1.29-1.08-1.02,0-1.53.9-1.53,2.03,0,1.19.6,1.95,1.51,1.95.64,0,1.16-.44,1.3-1.06.03-.14.05-.32.05-.49v-.94Z"/>
  <path class="cls-2" d="M84.96,34.89c-.39.19-1.32.42-2.5.42-3.39,0-5.14-2.13-5.14-4.94,0-3.35,2.39-5.2,5.35-5.2,1.15,0,2.03.23,2.42.44l-.47,1.75c-.44-.19-1.07-.36-1.87-.36-1.75,0-3.11,1.06-3.11,3.26,0,1.96,1.16,3.2,3.13,3.2.69,0,1.41-.13,1.86-.32l.32,1.75Z"/>
  <path class="cls-2" d="M89.33,35.32c-2.08,0-3.68-1.37-3.68-3.67s1.52-3.77,3.81-3.77c2.17,0,3.63,1.5,3.63,3.66,0,2.59-1.85,3.79-3.74,3.79h-.01ZM89.37,33.73c.88,0,1.41-.86,1.41-2.14,0-1.05-.41-2.13-1.41-2.13s-1.45,1.08-1.45,2.14c0,1.2.51,2.12,1.44,2.12h.02Z"/>
  <path class="cls-2" d="M94.45,30.31c0-.89-.03-1.63-.06-2.27h1.88l.09.97h.04c.3-.46.95-1.13,2.15-1.13.93,0,1.65.48,1.95,1.22h.03c.28-.38.58-.67.93-.87.4-.22.83-.35,1.36-.35,1.37,0,2.4.96,2.4,3.08v4.2h-2.15v-3.86c0-1.03-.34-1.63-1.05-1.63-.52,0-.87.35-1.03.77-.05.16-.07.38-.07.55v4.17h-2.15v-3.99c0-.89-.32-1.5-1.03-1.5-.57,0-.9.43-1.03.78-.07.18-.09.38-.09.57v4.13h-2.15v-4.85Z"/>
  <path class="cls-2" d="M106.97,30.31c0-.89-.03-1.63-.06-2.27h1.88l.09.97h.05c.3-.46.95-1.13,2.16-1.13.93,0,1.64.48,1.95,1.22h.03c.28-.38.58-.67.93-.87.39-.22.83-.35,1.35-.35,1.37,0,2.4.96,2.4,3.08v4.2h-2.16v-3.86c0-1.03-.33-1.63-1.04-1.63-.53,0-.87.35-1.04.77-.04.16-.07.38-.07.55v4.17h-2.15v-3.99c0-.89-.32-1.5-1.03-1.5-.57,0-.9.43-1.04.78-.07.18-.09.38-.09.57v4.13h-2.15v-4.85Z"/>
  <path class="cls-2" d="M126.21,32.87c0,.93.03,1.69.06,2.29h-1.92l-.1-1h-.05c-.27.44-.95,1.16-2.23,1.16-1.46,0-2.5-.9-2.5-3.1v-4.18h2.21v3.83c0,1.03.34,1.66,1.12,1.66.61,0,.97-.42,1.11-.77.06-.13.09-.29.09-.48v-4.23h2.21v4.83Z"/>
  <path class="cls-2" d="M127.98,30.31c0-.89-.03-1.63-.06-2.27h1.92l.1.99h.05c.29-.47,1-1.15,2.2-1.15,1.45,0,2.54.97,2.54,3.07v4.21h-2.21v-3.95c0-.92-.32-1.54-1.13-1.54-.61,0-.97.42-1.14.83-.06.15-.07.35-.07.55v4.11h-2.21v-4.85Z"/>
  <path class="cls-2" d="M137.6,27.1c-.74,0-1.22-.52-1.22-1.18s.49-1.18,1.25-1.18,1.22.51,1.24,1.18c0,.66-.48,1.18-1.25,1.18h-.02ZM136.51,35.16v-7.12h2.21v7.12h-2.21Z"/>
  <path class="cls-2" d="M145.85,34.98c-.39.19-1.14.34-1.98.34-2.3,0-3.77-1.41-3.77-3.66,0-2.08,1.43-3.79,4.08-3.79.58,0,1.22.1,1.69.27l-.35,1.65c-.26-.12-.65-.22-1.23-.22-1.17,0-1.92.83-1.91,1.99,0,1.31.87,2.01,1.95,2.01.53,0,.93-.09,1.27-.23l.26,1.63Z"/>
  <path class="cls-2" d="M153.05,33.44c0,.67.03,1.32.12,1.72h-2l-.13-.71h-.05c-.47.57-1.19.88-2.04.88-1.44,0-2.3-1.05-2.3-2.19,0-1.85,1.66-2.72,4.18-2.72v-.09c0-.38-.2-.92-1.29-.92-.73,0-1.5.24-1.96.53l-.41-1.42c.5-.28,1.47-.64,2.76-.64,2.38,0,3.12,1.4,3.12,3.07v2.49ZM150.91,31.79c-1.16,0-2.07.28-2.07,1.12,0,.57.38.85.87.85.54,0,1-.37,1.15-.82.03-.12.04-.25.04-.38v-.77Z"/>
  <path class="cls-2" d="M157.17,26.1v1.94h1.59v1.63h-1.59v2.59c0,.86.22,1.25.87,1.25.31,0,.45-.02.66-.06l.02,1.68c-.27.1-.82.19-1.43.19-.71,0-1.31-.25-1.67-.61-.41-.42-.61-1.11-.61-2.11v-2.93h-.95v-1.63h.95v-1.34l2.17-.6Z"/>
  <path class="cls-2" d="M161.13,27.1c-.74,0-1.22-.52-1.22-1.18s.49-1.18,1.25-1.18,1.22.51,1.23,1.18c0,.66-.48,1.18-1.25,1.18h-.01ZM160.04,35.16v-7.12h2.21v7.12h-2.21Z"/>
  <path class="cls-2" d="M167.31,35.32c-2.08,0-3.68-1.37-3.68-3.67s1.52-3.77,3.82-3.77c2.17,0,3.62,1.5,3.62,3.66,0,2.59-1.85,3.79-3.74,3.79h-.02ZM167.35,33.73c.87,0,1.41-.86,1.41-2.14,0-1.05-.41-2.13-1.41-2.13s-1.46,1.08-1.46,2.14c0,1.2.51,2.12,1.44,2.12h.02Z"/>
  <path class="cls-2" d="M172.43,30.31c0-.89-.03-1.63-.06-2.27h1.93l.1.99h.04c.29-.47,1-1.15,2.2-1.15,1.46,0,2.55.97,2.55,3.07v4.21h-2.21v-3.95c0-.92-.32-1.54-1.12-1.54-.61,0-.97.42-1.13.83-.06.15-.08.35-.08.55v4.11h-2.21v-4.85Z"/>
  <path class="cls-2" d="M180.95,33.24c.41.25,1.25.53,1.91.53s.95-.22.95-.58c0-.38-.22-.55-1.03-.83-1.48-.48-2.05-1.3-2.04-2.13,0-1.34,1.14-2.34,2.9-2.34.83,0,1.56.2,2,.42l-.38,1.51c-.32-.16-.95-.39-1.54-.39-.54,0-.84.22-.84.57s.28.53,1.15.83c1.35.45,1.91,1.15,1.92,2.19,0,1.34-1.03,2.32-3.07,2.32-.93,0-1.76-.22-2.3-.51l.39-1.57Z"/>
  <path class="cls-2" d="M197.49,34.89c-.39.19-1.33.42-2.51.42-3.39,0-5.14-2.13-5.14-4.94,0-3.35,2.39-5.2,5.36-5.2,1.15,0,2.03.23,2.42.44l-.47,1.75c-.43-.19-1.06-.36-1.86-.36-1.75,0-3.12,1.06-3.12,3.26,0,1.96,1.16,3.2,3.13,3.2.68,0,1.41-.13,1.86-.32l.32,1.75Z"/>
  <path class="cls-2" d="M201.86,35.32c-2.08,0-3.69-1.37-3.69-3.67s1.51-3.77,3.82-3.77c2.17,0,3.63,1.5,3.63,3.66,0,2.59-1.85,3.79-3.74,3.79h-.01ZM201.9,33.73c.87,0,1.41-.86,1.41-2.14,0-1.05-.41-2.13-1.41-2.13s-1.45,1.08-1.45,2.14c0,1.2.51,2.12,1.44,2.12h.01Z"/>
  <path class="cls-2" d="M207.56,35.32c-.74,0-1.28-.57-1.28-1.34s.54-1.35,1.31-1.35,1.28.54,1.3,1.35c0,.77-.52,1.34-1.31,1.34h-.01Z"/>
  <path class="cls-2" d="M209.36,36.89c.47-1.29.85-2.81,1.06-4.13l2.26-.14c-.48,1.48-1.13,3.01-1.83,4.15l-1.48.13Z"/>
  <path class="cls-2" d="M216.18,25.34h2.21v7.95h3.9v1.86h-6.11v-9.82Z"/>
  <path class="cls-2" d="M226.01,26.1v1.94h1.59v1.63h-1.59v2.59c0,.86.22,1.25.88,1.25.31,0,.45-.02.65-.06v1.68c-.26.1-.8.19-1.41.19-.72,0-1.31-.25-1.68-.61-.4-.42-.61-1.11-.61-2.11v-2.93h-.95v-1.63h.95v-1.34l2.17-.6Z"/>
  <path class="cls-2" d="M235.71,24.82v8.21c0,.82.03,1.65.06,2.13h-1.96l-.09-1.04h-.05c-.44.79-1.31,1.2-2.23,1.2-1.69,0-3.05-1.44-3.05-3.66-.02-2.39,1.49-3.79,3.19-3.79.89,0,1.56.32,1.88.8h.03v-3.86h2.21ZM233.49,31.06c0-.13,0-.27-.03-.41-.13-.6-.61-1.08-1.29-1.08-1.02,0-1.53.9-1.53,2.03,0,1.19.6,1.95,1.51,1.95.64,0,1.16-.44,1.29-1.06.03-.14.05-.32.05-.49v-.94Z"/>
  <path class="cls-2" d="M238.18,35.32c-.74,0-1.28-.57-1.28-1.34s.54-1.35,1.31-1.35,1.28.54,1.29,1.35c0,.77-.52,1.34-1.31,1.34h-.02Z"/>
  <g>
    <g>
      <path class="cls-4" d="M21.6,27.19c-.02-.12-.04-.2-.07-.25-.03-.05-.06-.1-.11-.15-.06-.04-.12-.08-.21-.1-.08-.02-.19-.02-.29,0-.13.02-.24.06-.32.13-.07.07-.12.15-.14.24-.02.09-.01.21.01.36l.07.42c.02.14.05.24.08.3.03.07.07.12.12.16.05.04.12.08.19.08.08.01.18,0,.28,0,.1-.02.18-.05.25-.09.07-.04.12-.1.16-.16.04-.07.06-.13.06-.21,0-.07,0-.18-.03-.32l-.07-.4ZM21.22,28.03s-.02.04-.05.04c-.03,0-.05,0-.06-.03-.01-.02-.03-.07-.04-.15l-.12-.73c-.02-.08-.02-.14-.01-.16,0-.03.02-.04.06-.05.03,0,.05,0,.06.02.01.02.02.07.04.16l.13.74c.01.07.01.12,0,.14Z"/>
      <path class="cls-4" d="M23.42,26.48c-.02-.06-.07-.1-.13-.13-.06-.03-.14-.04-.22-.03-.06.01-.12.04-.16.07-.05.04-.09.1-.12.16-.1-.11-.21-.15-.35-.13-.07,0-.12.04-.17.08-.05.04-.08.09-.11.16v-.16s-.5.08-.5.08l.27,1.61.48-.08-.19-1.12c-.01-.08-.02-.13-.03-.15,0-.03,0-.05.02-.06.01-.02.03-.04.05-.04.03,0,.06,0,.07.04.02.03.04.12.06.28l.17,1.03.48-.08-.18-1.05c-.02-.14-.03-.22-.03-.26,0-.03.02-.05.06-.06.03,0,.06,0,.07.04.02.03.04.12.06.25l.18,1.05.48-.08-.19-1.15c-.03-.14-.05-.23-.08-.29Z"/>
      <path class="cls-4" d="M25.22,26.02c-.06-.03-.14-.04-.22-.03-.07.02-.12.04-.17.08-.05.04-.09.09-.11.16-.1-.11-.21-.15-.34-.13-.07.01-.13.03-.17.08-.05.04-.09.09-.12.16l-.02-.15-.49.08.27,1.62.48-.08-.19-1.12c-.01-.08-.02-.13-.02-.16,0-.02,0-.05.02-.07.01-.02.03-.03.05-.03.04,0,.06,0,.08.04.01.03.03.13.06.28l.17,1.03.35-.06.12-.02-.04-.22-.14-.83c-.02-.14-.04-.23-.02-.26,0-.03.02-.05.05-.06.04,0,.06.01.07.04.02.03.03.12.06.26l.09.54.09.51.48-.08-.19-1.15c-.02-.08-.03-.14-.04-.19-.01-.04-.02-.07-.03-.09-.02-.06-.07-.1-.13-.13Z"/>
      <path class="cls-4" d="M26.3,27.21s-.05,0-.07-.03c-.01-.03-.03-.1-.05-.22l-.19-1.1-.49.09.19,1.09c.02.14.04.23.06.28.01.05.03.09.07.13.03.04.07.07.12.08.05.02.12.02.19,0,.07-.01.12-.03.17-.06.04-.04.08-.09.1-.15l.02.14.5-.09-.27-1.62-.49.08.18,1.09c.02.13.03.21.03.23,0,.03-.02.05-.06.05Z"/>
      <path class="cls-4" d="M27.34,25.79l-.02-.15-.5.09.27,1.62.5-.08-.18-1.09c-.02-.12-.03-.19-.03-.23,0-.03.03-.05.06-.05.04,0,.06,0,.07.02.01.02.03.09.04.21l.19,1.12.49-.08-.19-1.13c-.02-.14-.05-.24-.08-.3-.02-.06-.07-.1-.13-.13-.06-.03-.13-.04-.22-.03-.07.01-.12.03-.17.07-.04.04-.08.09-.1.16Z"/>
      <polygon class="cls-4" points="28.4 27.13 28.9 27.04 28.63 25.43 28.13 25.51 28.4 27.13"/>
      <rect class="cls-4" x="28.08" y="25.11" width=".51" height=".26" transform="translate(-3.78 5.03) rotate(-9.52)"/>
      <path class="cls-4" d="M28.97,26.41c.03.16.06.28.11.36.05.08.12.14.21.17.09.03.2.04.34.02.11-.02.2-.05.26-.1.07-.05.12-.11.16-.19.03-.08.05-.15.04-.21,0-.06-.01-.16-.03-.29l-.44.07.03.19c.01.08.02.14.01.18,0,.03-.03.05-.06.06-.03,0-.05-.01-.07-.03-.02-.03-.03-.07-.04-.13l-.13-.76c-.01-.07-.01-.12,0-.14,0-.02.03-.03.05-.04.03,0,.05,0,.06.03.01.02.03.06.04.13l.03.18.47-.08c-.03-.15-.06-.27-.1-.35-.04-.08-.12-.14-.22-.18-.1-.04-.21-.05-.34-.03-.13.02-.24.07-.32.14-.08.07-.13.14-.14.22-.02.07-.01.18,0,.32l.08.46Z"/>
      <path class="cls-4" d="M30.13,25.81l.46-.07-.03-.17c-.02-.09-.02-.15-.02-.17,0-.02.02-.04.06-.04.03,0,.05,0,.07.03.02.02.03.08.04.16.01.07.01.12,0,.14,0,.02-.09.08-.24.17-.14.08-.23.15-.26.2-.03.05-.03.14-.02.26l.02.13c.02.17.08.27.16.3.08.04.16.04.25.03.07,0,.12-.04.16-.07.05-.03.08-.09.1-.15l.02.14.48-.08-.14-.81c-.05-.27-.08-.45-.11-.53-.03-.09-.1-.15-.19-.19-.1-.05-.23-.06-.39-.03-.14.02-.25.06-.32.13-.08.07-.13.14-.15.21-.02.07-.01.17,0,.29l.02.11ZM30.84,26.27c.01.08.02.13,0,.15,0,.02-.03.04-.06.04-.03,0-.05,0-.07-.02-.01-.02-.03-.07-.04-.16-.01-.08-.02-.13,0-.17,0-.04.04-.1.11-.17l.06.33Z"/>
      <path class="cls-4" d="M31.27,25.28l.11-.02.14.82c.03.16.05.26.07.31.02.04.04.07.09.1.04.03.09.05.14.05s.13,0,.24-.02l.2-.03-.05-.26c-.08,0-.12.01-.13,0-.02-.01-.04-.07-.05-.18l-.15-.87.13-.02-.04-.26-.13.02-.04-.26-.5.08.05.25-.11.02.04.26Z"/>
      <polygon class="cls-4" points="32.34 26.47 32.84 26.38 32.57 24.76 32.07 24.85 32.34 26.47"/>
      <polygon class="cls-4" points="32.55 24.67 32.51 24.41 32 24.49 32.05 24.75 32.55 24.67"/>
      <path class="cls-4" d="M33.96,25.11c-.02-.12-.04-.2-.07-.25-.03-.05-.06-.1-.11-.15-.06-.05-.12-.08-.21-.1-.08-.02-.18-.02-.29,0-.14.02-.24.06-.31.13-.08.06-.13.14-.14.23-.02.09-.01.21,0,.36l.07.41c.03.14.05.24.08.31.03.06.07.12.12.16.05.04.12.06.19.07.08.02.18,0,.28,0,.1-.02.19-.05.26-.09.07-.04.12-.09.16-.16.04-.06.06-.14.06-.2,0-.07-.01-.18-.03-.33l-.06-.4ZM33.58,25.96s-.02.04-.05.05c-.03,0-.05,0-.06-.03-.01-.02-.03-.07-.04-.15l-.12-.73c-.02-.08-.02-.14-.02-.16,0-.02.03-.04.06-.04.03,0,.05,0,.06.02.01.02.03.07.04.15l.12.75c0,.07.02.12,0,.14Z"/>
      <path class="cls-4" d="M35.17,24.51c-.03-.06-.07-.1-.13-.13-.06-.03-.13-.04-.21-.02-.07.01-.13.04-.17.07-.05.04-.09.09-.11.16l-.02-.15-.5.08.27,1.62.49-.08-.18-1.09c-.02-.12-.03-.2-.02-.22,0-.03.02-.05.06-.06.04,0,.05,0,.07.02,0,.03.02.09.05.21l.19,1.12.5-.08-.19-1.13c-.03-.14-.05-.24-.07-.3Z"/>
      <path class="cls-4" d="M36.57,25.26c-.02-.12-.05-.2-.11-.26-.06-.06-.16-.11-.32-.16-.11-.03-.19-.06-.23-.08-.04-.02-.06-.04-.08-.06,0-.02-.02-.06-.02-.11,0-.04,0-.06,0-.08.01-.02.03-.04.06-.04.04,0,.06,0,.07.02,0,.02.02.06.03.14v.09s.45-.07.45-.07v-.1c-.03-.08-.04-.14-.06-.18-.01-.04-.05-.07-.09-.11-.05-.04-.11-.06-.19-.08-.08-.01-.17-.01-.28,0-.11.02-.2.05-.28.1-.07.05-.13.1-.15.17-.02.06-.03.16,0,.29.01.09.04.17.09.23.04.06.14.12.3.17.19.07.29.11.32.13.02.02.04.06.05.14.01.06.01.09,0,.11,0,.02-.03.03-.07.04-.03,0-.05,0-.07-.03-.01-.03-.03-.08-.04-.17l-.02-.1-.44.07.02.08c.02.14.06.23.1.3.05.06.12.1.21.13.1.02.21.02.33,0,.12-.01.21-.05.28-.1.07-.05.12-.11.14-.18.02-.07.02-.17,0-.3Z"/>
    </g>
    <g>
      <path class="cls-3" d="M21.6,27.19c-.02-.12-.04-.2-.07-.25-.03-.05-.06-.1-.11-.15-.06-.04-.12-.08-.21-.1-.08-.02-.19-.02-.29,0-.13.02-.24.06-.32.13-.07.07-.12.15-.14.24-.02.09-.01.21.01.36l.07.42c.02.14.05.24.08.3.03.07.07.12.12.16.05.04.12.08.19.08.08.01.18,0,.28,0,.1-.02.18-.05.25-.09.07-.04.12-.1.16-.16.04-.07.06-.13.06-.21,0-.07,0-.18-.03-.32l-.07-.4ZM21.22,28.03s-.02.04-.05.04c-.03,0-.05,0-.06-.03-.01-.02-.03-.07-.04-.15l-.12-.73c-.02-.08-.02-.14-.01-.16,0-.03.02-.04.06-.05.03,0,.05,0,.06.02.01.02.02.07.04.16l.13.74c.01.07.01.12,0,.14Z"/>
      <path class="cls-3" d="M23.42,26.48c-.02-.06-.07-.1-.13-.13-.06-.03-.14-.04-.22-.03-.06.01-.12.04-.16.07-.05.04-.09.1-.12.16-.1-.11-.21-.15-.35-.13-.07,0-.12.04-.17.08-.05.04-.08.09-.11.16v-.16s-.5.08-.5.08l.27,1.61.48-.08-.19-1.12c-.01-.08-.02-.13-.03-.15,0-.03,0-.05.02-.06.01-.02.03-.04.05-.04.03,0,.06,0,.07.04.02.03.04.12.06.28l.17,1.03.48-.08-.18-1.05c-.02-.14-.03-.22-.03-.26,0-.03.02-.05.06-.06.03,0,.06,0,.07.04.02.03.04.12.06.25l.18,1.05.48-.08-.19-1.15c-.03-.14-.05-.23-.08-.29Z"/>
      <path class="cls-3" d="M25.22,26.02c-.06-.03-.14-.04-.22-.03-.07.02-.12.04-.17.08-.05.04-.09.09-.11.16-.1-.11-.21-.15-.34-.13-.07.01-.13.03-.17.08-.05.04-.09.09-.12.16l-.02-.15-.49.08.27,1.62.48-.08-.19-1.12c-.01-.08-.02-.13-.02-.16,0-.02,0-.05.02-.07.01-.02.03-.03.05-.03.04,0,.06,0,.08.04.01.03.03.13.06.28l.17,1.03.35-.06.12-.02-.04-.22-.14-.83c-.02-.14-.04-.23-.02-.26,0-.03.02-.05.05-.06.04,0,.06.01.07.04.02.03.03.12.06.26l.09.54.09.51.48-.08-.19-1.15c-.02-.08-.03-.14-.04-.19-.01-.04-.02-.07-.03-.09-.02-.06-.07-.1-.13-.13Z"/>
      <path class="cls-3" d="M26.3,27.21s-.05,0-.07-.03c-.01-.03-.03-.1-.05-.22l-.19-1.1-.49.09.19,1.09c.02.14.04.23.06.28.01.05.03.09.07.13.03.04.07.07.12.08.05.02.12.02.19,0,.07-.01.12-.03.17-.06.04-.04.08-.09.1-.15l.02.14.5-.09-.27-1.62-.49.08.18,1.09c.02.13.03.21.03.23,0,.03-.02.05-.06.05Z"/>
      <path class="cls-3" d="M27.34,25.79l-.02-.15-.5.09.27,1.62.5-.08-.18-1.09c-.02-.12-.03-.19-.03-.23,0-.03.03-.05.06-.05.04,0,.06,0,.07.02.01.02.03.09.04.21l.19,1.12.49-.08-.19-1.13c-.02-.14-.05-.24-.08-.3-.02-.06-.07-.1-.13-.13-.06-.03-.13-.04-.22-.03-.07.01-.12.03-.17.07-.04.04-.08.09-.1.16Z"/>
      <polygon class="cls-3" points="28.4 27.13 28.9 27.04 28.63 25.43 28.13 25.51 28.4 27.13"/>
      <rect class="cls-3" x="28.08" y="25.11" width=".51" height=".26" transform="translate(-3.78 5.03) rotate(-9.52)"/>
      <path class="cls-3" d="M28.97,26.41c.03.16.06.28.11.36.05.08.12.14.21.17.09.03.2.04.34.02.11-.02.2-.05.26-.1.07-.05.12-.11.16-.19.03-.08.05-.15.04-.21,0-.06-.01-.16-.03-.29l-.44.07.03.19c.01.08.02.14.01.18,0,.03-.03.05-.06.06-.03,0-.05-.01-.07-.03-.02-.03-.03-.07-.04-.13l-.13-.76c-.01-.07-.01-.12,0-.14,0-.02.03-.03.05-.04.03,0,.05,0,.06.03.01.02.03.06.04.13l.03.18.47-.08c-.03-.15-.06-.27-.1-.35-.04-.08-.12-.14-.22-.18-.1-.04-.21-.05-.34-.03-.13.02-.24.07-.32.14-.08.07-.13.14-.14.22-.02.07-.01.18,0,.32l.08.46Z"/>
      <path class="cls-3" d="M30.13,25.81l.46-.07-.03-.17c-.02-.09-.02-.15-.02-.17,0-.02.02-.04.06-.04.03,0,.05,0,.07.03.02.02.03.08.04.16.01.07.01.12,0,.14,0,.02-.09.08-.24.17-.14.08-.23.15-.26.2-.03.05-.03.14-.02.26l.02.13c.02.17.08.27.16.3.08.04.16.04.25.03.07,0,.12-.04.16-.07.05-.03.08-.09.1-.15l.02.14.48-.08-.14-.81c-.05-.27-.08-.45-.11-.53-.03-.09-.1-.15-.19-.19-.1-.05-.23-.06-.39-.03-.14.02-.25.06-.32.13-.08.07-.13.14-.15.21-.02.07-.01.17,0,.29l.02.11ZM30.84,26.27c.01.08.02.13,0,.15,0,.02-.03.04-.06.04-.03,0-.05,0-.07-.02-.01-.02-.03-.07-.04-.16-.01-.08-.02-.13,0-.17,0-.04.04-.1.11-.17l.06.33Z"/>
      <path class="cls-3" d="M31.27,25.28l.11-.02.14.82c.03.16.05.26.07.31.02.04.04.07.09.1.04.03.09.05.14.05s.13,0,.24-.02l.2-.03-.05-.26c-.08,0-.12.01-.13,0-.02-.01-.04-.07-.05-.18l-.15-.87.13-.02-.04-.26-.13.02-.04-.26-.5.08.05.25-.11.02.04.26Z"/>
      <polygon class="cls-3" points="32.34 26.47 32.84 26.38 32.57 24.76 32.07 24.85 32.34 26.47"/>
      <polygon class="cls-3" points="32.55 24.67 32.51 24.41 32 24.49 32.05 24.75 32.55 24.67"/>
      <path class="cls-3" d="M33.96,25.11c-.02-.12-.04-.2-.07-.25-.03-.05-.06-.1-.11-.15-.06-.05-.12-.08-.21-.1-.08-.02-.18-.02-.29,0-.14.02-.24.06-.31.13-.08.06-.13.14-.14.23-.02.09-.01.21,0,.36l.07.41c.03.14.05.24.08.31.03.06.07.12.12.16.05.04.12.06.19.07.08.02.18,0,.28,0,.1-.02.19-.05.26-.09.07-.04.12-.09.16-.16.04-.06.06-.14.06-.2,0-.07-.01-.18-.03-.33l-.06-.4ZM33.58,25.96s-.02.04-.05.05c-.03,0-.05,0-.06-.03-.01-.02-.03-.07-.04-.15l-.12-.73c-.02-.08-.02-.14-.02-.16,0-.02.03-.04.06-.04.03,0,.05,0,.06.02.01.02.03.07.04.15l.12.75c0,.07.02.12,0,.14Z"/>
      <path class="cls-3" d="M35.17,24.51c-.03-.06-.07-.1-.13-.13-.06-.03-.13-.04-.21-.02-.07.01-.13.04-.17.07-.05.04-.09.09-.11.16l-.02-.15-.5.08.27,1.62.49-.08-.18-1.09c-.02-.12-.03-.2-.02-.22,0-.03.02-.05.06-.06.04,0,.05,0,.07.02,0,.03.02.09.05.21l.19,1.12.5-.08-.19-1.13c-.03-.14-.05-.24-.07-.3Z"/>
      <path class="cls-3" d="M36.57,25.26c-.02-.12-.05-.2-.11-.26-.06-.06-.16-.11-.32-.16-.11-.03-.19-.06-.23-.08-.04-.02-.06-.04-.08-.06,0-.02-.02-.06-.02-.11,0-.04,0-.06,0-.08.01-.02.03-.04.06-.04.04,0,.06,0,.07.02,0,.02.02.06.03.14v.09s.45-.07.45-.07v-.1c-.03-.08-.04-.14-.06-.18-.01-.04-.05-.07-.09-.11-.05-.04-.11-.06-.19-.08-.08-.01-.17-.01-.28,0-.11.02-.2.05-.28.1-.07.05-.13.1-.15.17-.02.06-.03.16,0,.29.01.09.04.17.09.23.04.06.14.12.3.17.19.07.29.11.32.13.02.02.04.06.05.14.01.06.01.09,0,.11,0,.02-.03.03-.07.04-.03,0-.05,0-.07-.03-.01-.03-.03-.08-.04-.17l-.02-.1-.44.07.02.08c.02.14.06.23.1.3.05.06.12.1.21.13.1.02.21.02.33,0,.12-.01.21-.05.28-.1.07-.05.12-.11.14-.18.02-.07.02-.17,0-.3Z"/>
    </g>
  </g>
  <g>
    <path class="cls-4" d="M20.38,11.05l-4.66,3.72,2.2,2.59-3.38.62,2.48-8.51h0c-.73-.18-1.51-.27-2.3-.27-4.98,0-9.01,3.71-9.01,8.29s4.03,8.29,9.01,8.29,9-3.71,9-8.29c0-2.6-1.3-4.91-3.33-6.43Z"/>
    <path class="cls-3" d="M20.38,11.05l-4.66,3.72,2.2,2.59-3.38.62,2.48-8.51h0c-.73-.18-1.51-.27-2.3-.27-4.98,0-9.01,3.71-9.01,8.29s4.03,8.29,9.01,8.29,9-3.71,9-8.29c0-2.6-1.3-4.91-3.33-6.43Z"/>
  </g>
  <g>
    <path class="cls-1" d="M18.05,11.99c.06.07.09.13.1.15.01.03,0,.06-.04.08-.03.03-.06.03-.09.02-.03-.02-.08-.07-.14-.15l-.61-.77c-.08-.09-.11-.14-.12-.18-.01-.03,0-.06.03-.08.03-.03.06-.03.09-.01.03.01.08.07.15.16l.63.79ZM17.8,10.67c-.06-.05-.14-.08-.23-.11-.09-.02-.19-.01-.3.02-.12.03-.23.1-.34.19-.14.11-.23.23-.28.35-.05.12-.05.24-.01.36.03.12.12.25.25.41l.35.44c.12.15.21.25.29.31.08.06.16.09.25.1.08.02.18.01.28-.03.1-.04.2-.1.32-.2.1-.08.18-.17.24-.26.05-.09.08-.19.08-.29,0-.1-.02-.2-.06-.29-.05-.08-.12-.2-.25-.36l-.34-.42c-.09-.12-.18-.21-.24-.24Z"/>
    <path class="cls-1" d="M19.4,10.91c.06.08.1.12.1.16,0,.03,0,.06-.03.08-.03.02-.06.03-.09.02-.03-.02-.08-.06-.14-.14l-.62-.78c-.07-.09-.11-.15-.12-.18,0-.03,0-.06.03-.09.04-.02.07-.03.09-.01.03.02.08.07.14.16l.63.78ZM19.16,9.58c-.06-.04-.14-.08-.23-.1-.09-.01-.19-.01-.3.02-.11.03-.22.09-.34.19-.14.11-.23.23-.28.35-.04.13-.05.25-.01.36.04.12.12.26.24.42l.35.43c.12.15.21.25.29.31.08.06.15.09.24.11.09.02.18,0,.28-.03.1-.04.2-.11.32-.2.1-.08.18-.17.24-.26.05-.09.08-.2.08-.3,0-.1-.02-.19-.06-.28-.05-.08-.13-.2-.25-.35l-.33-.42c-.1-.12-.18-.21-.24-.26Z"/>
    <path class="cls-1" d="M20.73,9.79c.07.09.12.16.13.19,0,.03,0,.07-.04.1-.03.02-.06.02-.08,0-.03,0-.07-.05-.13-.12l-.67-.83c-.05-.07-.08-.12-.09-.15,0-.03,0-.05.04-.07.03-.03.06-.03.09-.02.03,0,.06.05.12.11l.63.79ZM19.45,8.19l.39.49c-.08-.02-.16,0-.23.01-.07.02-.14.05-.21.1-.08.07-.14.15-.16.24-.03.09-.03.17,0,.23.03.07.1.17.2.3l.64.8c.1.12.18.2.24.25.06.05.14.06.23.05.09,0,.18-.04.26-.1.06-.05.11-.11.14-.17.04-.07.06-.16.07-.24l.1.13.52-.42-1.66-2.09-.52.42Z"/>
  </g>
</svg>