<?xml version="1.0" encoding="UTF-8"?>
<svg xmlns="http://www.w3.org/2000/svg" xmlns:xlink="http://www.w3.org/1999/xlink" version="1.1" viewBox="0 0 283.5 283.5">
  <defs>
    <style>
      .cls-1, .cls-2, .cls-3, .cls-4, .cls-5, .cls-6 {
        fill: none;
      }

      .cls-7 {
        fill: #403f3f;
      }

      .cls-2 {
        stroke-width: .5px;
      }

      .cls-2, .cls-4, .cls-5, .cls-6 {
        stroke: #221714;
      }

      .cls-8 {
        isolation: isolate;
      }

      .cls-9 {
        clip-path: url(#clippath-11);
      }

      .cls-10 {
        clip-path: url(#clippath-10);
      }

      .cls-11 {
        clip-path: url(#clippath-15);
      }

      .cls-12 {
        clip-path: url(#clippath-13);
      }

      .cls-13 {
        clip-path: url(#clippath-14);
      }

      .cls-14 {
        clip-path: url(#clippath-12);
      }

      .cls-15 {
        mix-blend-mode: multiply;
      }

      .cls-16 {
        clip-path: url(#clippath-1);
      }

      .cls-17 {
        clip-path: url(#clippath-3);
      }

      .cls-18 {
        clip-path: url(#clippath-4);
      }

      .cls-19 {
        clip-path: url(#clippath-2);
      }

      .cls-20 {
        clip-path: url(#clippath-7);
      }

      .cls-21 {
        clip-path: url(#clippath-6);
      }

      .cls-22 {
        clip-path: url(#clippath-9);
      }

      .cls-23 {
        clip-path: url(#clippath-8);
      }

      .cls-24 {
        clip-path: url(#clippath-5);
      }

      .cls-25 {
        fill: #c9caca;
      }

      .cls-26 {
        fill: #fff;
      }

      .cls-27 {
        fill: #666463;
      }

      .cls-3 {
        stroke: #767676;
        stroke-miterlimit: 10;
        stroke-width: 4px;
      }

      .cls-4 {
        stroke-width: .9px;
      }

      .cls-4, .cls-5 {
        stroke-linecap: round;
      }

      .cls-4, .cls-5, .cls-6 {
        stroke-linejoin: round;
      }

      .cls-28 {
        fill: #221714;
      }

      .cls-5 {
        stroke-width: 1.4px;
      }

      .cls-6 {
        stroke-width: 1.2px;
      }

      .cls-29 {
        fill: url(#_名称未設定グラデーション);
      }

      .cls-30 {
        fill: #f7f9f9;
      }

      .cls-31 {
        clip-path: url(#clippath);
      }

      .cls-32 {
        fill: #8aba29;
      }
    </style>
    <clipPath id="clippath">
      <polygon class="cls-1" points="72.8 207.5 132.3 267.2 138.4 72.5 72.8 8.3 72.8 207.5"/>
    </clipPath>
    <linearGradient id="_名称未設定グラデーション" data-name="名称未設定グラデーション" x1="-584" y1="17.2" x2="-578.7" y2="17.2" gradientTransform="translate(-9632.4 -150.3) rotate(-180) scale(16.7 -16.7)" gradientUnits="userSpaceOnUse">
      <stop offset="0" stop-color="#dcdddd"/>
      <stop offset="1" stop-color="#c9caca"/>
    </linearGradient>
    <clipPath id="clippath-1">
      <rect class="cls-1" x="72.8" y="29.1" width="65.7" height="69.3"/>
    </clipPath>
    <clipPath id="clippath-2">
      <rect class="cls-1" x="72.8" y="39.3" width="65.7" height="69.3"/>
    </clipPath>
    <clipPath id="clippath-3">
      <rect class="cls-1" x="72.8" y="49.5" width="65.7" height="69.3"/>
    </clipPath>
    <clipPath id="clippath-4">
      <rect class="cls-1" x="72.8" y="59.7" width="65.7" height="69.3"/>
    </clipPath>
    <clipPath id="clippath-5">
      <rect class="cls-1" x="72.8" y="69.9" width="65.7" height="69.3"/>
    </clipPath>
    <clipPath id="clippath-6">
      <rect class="cls-1" x="72.8" y="80.1" width="65.7" height="69.3"/>
    </clipPath>
    <clipPath id="clippath-7">
      <rect class="cls-1" x="72.8" y="90.3" width="65.7" height="69.3"/>
    </clipPath>
    <clipPath id="clippath-8">
      <rect class="cls-1" x="72.8" y="100.5" width="65.7" height="69.3"/>
    </clipPath>
    <clipPath id="clippath-9">
      <rect class="cls-1" x="72.8" y="110.7" width="65.7" height="69.3"/>
    </clipPath>
    <clipPath id="clippath-10">
      <rect class="cls-1" x="72.8" y="120.9" width="65.7" height="69.3"/>
    </clipPath>
    <clipPath id="clippath-11">
      <rect class="cls-1" x="72.8" y="131.1" width="65.7" height="69.3"/>
    </clipPath>
    <clipPath id="clippath-12">
      <rect class="cls-1" x="72.8" y="141.3" width="65.7" height="68.9"/>
    </clipPath>
    <clipPath id="clippath-13">
      <rect class="cls-1" x="72.2" y="7.7" width="137.2" height="267.4"/>
    </clipPath>
    <clipPath id="clippath-14">
      <rect class="cls-1" x="72.5" y="144.5" width="60.4" height="123.3"/>
    </clipPath>
    <clipPath id="clippath-15">
      <polygon class="cls-1" points="94.6 9 169.2 72.5 192.7 72.5 118.1 9 94.6 9"/>
    </clipPath>
  </defs>
  <!-- Generator: Adobe Illustrator 28.6.0, SVG Export Plug-In . SVG Version: 1.2.0 Build 709)  -->
  <g>
    <g id="_レイヤー_1" data-name="レイヤー_1">
      <g class="cls-8">
        <g id="_レイヤー_1-2" data-name="_レイヤー_1">
          <path class="cls-26" d="M153.9,274.3l-9.6-2.7-10.5-2.7-61.6-60.7c-.2-.2-.3-.4-.3-.6v-62.2c0-.1,0-.2,0-.3v-3.7c0-.1,0-.2,0-.4v-5.4c0-.1,0-.2,0-.3v-4.1c0-.1,0-.2,0-.4v-5.4c0-.1,0-.2,0-.3v-4.1c0-.1,0-.2,0-.4v-5.4c0-.1,0-.2,0-.3v-4.1c0-.1,0-.2,0-.4v-5.4c0-.1,0-.2,0-.3v-4.1c0-.1,0-.2,0-.4v-5.4c0-.1,0-.2,0-.3v-4.1c0-.1,0-.2,0-.4v-5.4c0-.1,0-.2,0-.3v-4.1c0-.1,0-.2,0-.4v-5.4c0-.1,0-.2,0-.3v-4.1c0-.1,0-.2,0-.4v-5.4c0-.1,0-.2,0-.3v-4.1c0-.1,0-.2,0-.4v-5.4c0-.1,0-.2,0-.3v-4.1c0-.1,0-.2,0-.4v-5.4c0-.1,0-.2,0-.3v-4.1c0-.1,0-.2,0-.4v-5.4c0-.1,0-.2,0-.3v-4.1c0-.1,0-.2,0-.4V8.3c0-.3.2-.6.5-.8.1,0,.3-.1.4-.1h61.6c.2,0,.4,0,.6.2l74.2,64.2c.3.2.4.4.4.8v200.8c0,.5-.4.9-.9.9h-54.9Z"/>
          <path class="cls-28" d="M134.4,8.3l74.3,64.3h0v200.8h-54.9l-9.4-2.7-10.5-2.7-61.2-60.4v-62.4h0v-3.8h0s0,0,0,0h0s0-6,0-6h0v-4.2h0s0,0,0,0h0s0-6,0-6h0v-4.2h0s0,0,0,0h0s0-6,0-6h0v-4.2h0s0,0,0,0h0s0-6,0-6h0v-4.2h0s0,0,0,0h0s0-6,0-6h0v-4.2h0s0,0,0,0h0s0-6,0-6h0v-4.2h0s0,0,0,0h0s0-6,0-6h0v-4.2h0s0,0,0,0h0s0-6,0-6h0v-4.2h0s0,0,0,0h0s0-6,0-6h0v-4.2h0s0,0,0,0h0s0-6,0-6h0v-4.2h0s0,0,0,0h0s0-6,0-6h0v-4.1h0V8.3h0s0,0,0,0h0s0,0,0,0h61.6,0ZM134.4,6.5h-61.6c-.3,0-.5,0-.8.2,0,0,0,0-.2,0-.6.3-.9.9-.9,1.6v20.3c0,.2,0,.3,0,.5v4.1c0,.2,0,.3,0,.5v5.1c0,.2,0,.3,0,.5v4.1c0,.2,0,.3,0,.5v5.1c0,.2,0,.3,0,.5v4.1c0,.2,0,.4,0,.5v5.1c0,.2,0,.3,0,.5v4.1c0,.2,0,.4,0,.5v5.1c0,.2,0,.3,0,.5v4.1c0,.2,0,.4,0,.5v5.1c0,.2,0,.3,0,.5v4.1c0,.2,0,.3,0,.5v5.1c0,.2,0,.3,0,.5v4.1c0,.2,0,.4,0,.5v5.1c0,.2,0,.3,0,.5v4.1c0,.2,0,.4,0,.5v5.1c0,.2,0,.3,0,.5v4.1c0,.2,0,.4,0,.5v5.1c0,.2,0,.3,0,.5v4.1c0,.2,0,.4,0,.5v5.1c0,.2,0,.3,0,.5v4.1c0,.2,0,.4,0,.5v5.1c0,.2,0,.3,0,.5v3.7c0,.2,0,.4,0,.5v62c0,.5.2.9.5,1.3l61.2,60.4c.2.2.5.4.8.5l10.6,2.7,9.3,2.7c.2,0,.3,0,.5,0h54.9c1,0,1.8-.8,1.8-1.8V72.6c0-.7-.4-1.2-.9-1.6L135.6,6.9c-.3-.3-.8-.4-1.2-.4"/>
          <g class="cls-31">
            <rect class="cls-29" x="50.9" y="4.6" width="109.6" height="266.3" transform="translate(-22.3 20.4) rotate(-10)"/>
          </g>
          <polygon class="cls-30" points="138.5 72.6 155.3 72.6 208.7 72.6 134.4 8.3 72.8 8.3 138.5 72.6"/>
          <polygon class="cls-26" points="208.7 273.4 208.7 72.6 155.1 72.6 134 67.1 134 268 153.9 272.9 208.7 273.4"/>
          <g class="cls-15">
            <g class="cls-16">
              <polygon class="cls-25" points="72.8 29.1 138.4 94.3 138.4 98.3 72.8 33.2 72.8 29.1"/>
            </g>
          </g>
          <g class="cls-15">
            <g class="cls-19">
              <polygon class="cls-25" points="72.8 39.3 138.4 104.5 138.4 108.6 72.8 43.4 72.8 39.3"/>
            </g>
          </g>
          <g class="cls-15">
            <g class="cls-17">
              <polygon class="cls-25" points="72.8 49.5 138.4 114.7 138.4 118.8 72.8 53.6 72.8 49.5"/>
            </g>
          </g>
          <g class="cls-15">
            <g class="cls-18">
              <polygon class="cls-25" points="72.8 59.7 138.4 124.9 138.4 129 72.8 63.8 72.8 59.7"/>
            </g>
          </g>
          <g class="cls-15">
            <g class="cls-24">
              <polygon class="cls-25" points="72.8 69.9 138.4 135.1 138.4 139.2 72.8 74 72.8 69.9"/>
            </g>
          </g>
          <g class="cls-15">
            <g class="cls-21">
              <polygon class="cls-25" points="72.8 80.1 138.4 145.3 138.4 149.4 72.8 84.2 72.8 80.1"/>
            </g>
          </g>
          <g class="cls-15">
            <g class="cls-20">
              <polygon class="cls-25" points="72.8 90.3 138.4 155.5 138.4 159.6 72.8 94.4 72.8 90.3"/>
            </g>
          </g>
          <g class="cls-15">
            <g class="cls-23">
              <polygon class="cls-25" points="72.8 100.5 138.4 165.7 138.4 169.8 72.8 104.6 72.8 100.5"/>
            </g>
          </g>
          <g class="cls-15">
            <g class="cls-22">
              <polygon class="cls-25" points="72.8 110.7 138.4 175.9 138.4 180 72.8 114.8 72.8 110.7"/>
            </g>
          </g>
          <g class="cls-15">
            <g class="cls-10">
              <polygon class="cls-25" points="72.8 120.9 138.4 186.1 138.4 190.2 72.8 125 72.8 120.9"/>
            </g>
          </g>
          <g class="cls-15">
            <g class="cls-9">
              <polygon class="cls-25" points="72.8 131.1 138.4 196.3 138.4 200.4 72.8 135.2 72.8 131.1"/>
            </g>
          </g>
          <g class="cls-15">
            <g class="cls-14">
              <polygon class="cls-25" points="72.8 141.3 138.4 206.5 138.4 210.2 72.8 145 72.8 141.3"/>
            </g>
          </g>
          <g class="cls-15">
            <g class="cls-12">
              <g>
                <polygon class="cls-27" points="72.8 33.2 72.8 29.1 72.8 29.1 72.8 8.3 72.9 8.3 134.4 8.3 208.7 72.6 208.8 72.6 208.8 273.4 155.1 274.5 134 268 72.8 207.5 72.8 145 72.8 145 72.8 141.3 72.8 141.3 72.8 135.2 72.8 135.2 72.8 131.1 72.8 131.1 72.8 125.5 72.8 125 72.8 125 72.8 120.9 72.8 120.9 72.8 114.8 72.8 114.8 72.8 110.7 72.8 110.7 72.8 104.6 72.8 104.6 72.8 100.5 72.8 100.5 72.8 94.4 72.8 94.4 72.8 90.3 72.8 90.3 72.8 84.2 72.8 84.2 72.8 80.1 72.8 80.1 72.8 74 72.8 74 72.8 69.9 72.8 69.9 72.8 63.8 72.8 63.8 72.8 59.7 72.8 59.7 72.8 53.6 72.8 53.6 72.8 49.5 72.8 49.5 72.8 43.4 72.8 43.4 72.8 39.3 72.8 39.3 72.8 33.2 72.8 33.2"/>
                <polygon class="cls-6" points="72.8 33.2 72.8 29.1 72.8 29.1 72.8 8.3 72.9 8.3 134.4 8.3 208.7 72.6 208.8 72.6 208.8 273.4 155.1 274.5 134 268 72.8 207.5 72.8 145 72.8 145 72.8 141.3 72.8 141.3 72.8 135.2 72.8 135.2 72.8 131.1 72.8 131.1 72.8 125.5 72.8 125 72.8 125 72.8 120.9 72.8 120.9 72.8 114.8 72.8 114.8 72.8 110.7 72.8 110.7 72.8 104.6 72.8 104.6 72.8 100.5 72.8 100.5 72.8 94.4 72.8 94.4 72.8 90.3 72.8 90.3 72.8 84.2 72.8 84.2 72.8 80.1 72.8 80.1 72.8 74 72.8 74 72.8 69.9 72.8 69.9 72.8 63.8 72.8 63.8 72.8 59.7 72.8 59.7 72.8 53.6 72.8 53.6 72.8 49.5 72.8 49.5 72.8 43.4 72.8 43.4 72.8 39.3 72.8 39.3 72.8 33.2 72.8 33.2"/>
              </g>
            </g>
          </g>
          <line class="cls-4" x1="138.5" y1="72.6" x2="138.2" y2="264.6"/>
          <g class="cls-15">
            <g class="cls-13">
              <polygon class="cls-6" points="132.3 267.2 73.1 207.5 73.1 145.1 132.3 204.6 132.3 267.2"/>
            </g>
          </g>
          <line class="cls-1" x1="138.2" y1="267.2" x2="138.2" y2="209.5"/>
          <line class="cls-2" x1="138.2" y1="267.2" x2="138.2" y2="209.5"/>
          <polygon class="cls-7" points="155.1 273.9 134 268 134 67.1 155.1 72.5 155.1 273.9"/>
          <polyline class="cls-5" points="208.7 72.6 155.3 72.6 134 67.1 72.8 8.3"/>
          <line class="cls-1" x1="134" y1="67.1" x2="134" y2="269.1"/>
          <line class="cls-6" x1="134" y1="67.1" x2="134" y2="269.1"/>
          <line class="cls-1" x1="155.1" y1="72.6" x2="155.1" y2="274.5"/>
          <line class="cls-6" x1="155.1" y1="72.6" x2="155.1" y2="274.5"/>
          <path class="cls-26" d="M170.5,240c-.2,0-.5,0-.5-.5s.2-.5.5-.5h1c.7,0,1,.2,1,1.1v2.1c0,.2-.1.5-.4.5s-.4-.3-.4-.5v-.5c-.6.9-1.4,1-1.8,1-1.4,0-2.8-1-2.8-3.4s1.3-3.4,2.9-3.4,2.6,1.2,2.6,2,0,.5-.5.5-.4-.2-.5-.4c-.3-1.1-1.3-1.1-1.6-1.1-1.1,0-1.8.9-1.8,2.4s.2,1.5.5,1.8c.3.4.7.6,1.2.6,1.1,0,1.6-1.2,1.6-1.5s0-.2-.2-.2h-.7Z"/>
          <path class="cls-26" d="M177.3,238.7c.3,0,.5.1.5.5s-.1.5-.5.5h-2.4v1.5c0,.2,0,.3.3.3h2.6c.2,0,.5,0,.5.5s-.2.5-.5.5h-2.9c-.7,0-1-.3-1-1.1v-4.3c0-.8.3-1.1,1-1.1h2.8c.2,0,.5,0,.5.5s-.2.5-.5.5h-2.4c-.2,0-.3.1-.3.3v1.3h2.4Z"/>
          <path class="cls-26" d="M180.4,239.6c.3,0,.5.1.5.5s-.1.5-.5.5h-1.4c-.3,0-.5-.1-.5-.5s.1-.6.5-.6h1.4Z"/>
          <path class="cls-26" d="M187.2,239.3c0,2-1.1,3.4-2.9,3.4s-2.9-1.5-2.9-3.4,1-3.4,2.9-3.4,2.9,1.6,2.9,3.4M182.6,239.3c0,1.4.6,2.4,1.8,2.4s1.8-.9,1.8-2.4-.6-2.4-1.8-2.4-1.8.9-1.8,2.4"/>
          <path class="cls-26" d="M191.9,241s0,0,0,0,0,0,0,0v-4.6c0-.3.1-.5.6-.5s.5.2.5.5v5.6c0,.6-.5.7-.8.7s-.6,0-.9-.5l-2-4.6s0,0,0,0c0,0,0,0,0,0v4.6c0,.3-.1.6-.5.6s-.6-.2-.6-.6v-5.6c0-.6.5-.7.8-.7s.6,0,.8.5l2.1,4.6h0Z"/>
          <path class="cls-26" d="M195.4,240.1c0,.4,0,1.5,1.4,1.5s1.4-1.2,1.4-1.5v-3.8c0-.2.1-.5.5-.5s.6.2.6.5v3.8c0,2.1-1.4,2.6-2.5,2.6s-2.5-.3-2.5-2.6v-3.8c0-.2,0-.5.5-.5s.6.2.6.5v3.8h0Z"/>
          <path class="cls-26" d="M139,87.7c-.1,0-.3,0-.3-.4s.2-.3.3-.3l1.6.4c0,0,.3,0,.3.4s-.2.3-.3.2l-1.6-.4ZM139.2,86.8c0,0-.3,0-.3-.4s.2-.3.3-.2l1.3.3c0,0,.3,0,.3.4s-.2.3-.3.2l-1.3-.3ZM139.2,88.7c0,0-.3,0-.3-.4s.2-.3.3-.2l1.3.3c0,0,.3,0,.3.4s-.2.3-.3.2l-1.3-.3ZM139.2,89.6c0,0-.3,0-.3-.4s.2-.3.3-.2l1.3.3c0,0,.3,0,.3.4s-.2.3-.3.2l-1.3-.3h0ZM140.7,91.5c0,.5,0,.6-.6.5h-.6c-.5-.3-.6-.4-.6-.9v-.7c0-.6.1-.6.6-.5l.6.2c.5.1.6.3.6.8v.6h0ZM140.2,90.8c0,0,0-.2-.1-.2h-.3c0,0-.1,0-.1,0v.4c0,0,0,.2.1.2h.3c.1,0,.1,0,.1,0v-.4ZM141.5,91.6c-.1.4-.2.6-.4.5-.1,0-.3-.2-.3-.4s0,0,.1-.5c0-.3.1-.5.2-.8,0-.2,0-.3.3-.3,0,0,.3,0,.3.3s-.1.9-.2,1.1M141.4,87.4c0,0-.3,0-.3-.4s.2-.3.3-.3l2.1.5c.3,0,.8.2.8.9s0,1.2-.2,1.7c-.1.4-.4.3-.8.3-.3,0-.5-.1-.5-.5s.1-.3.3-.3c.2,0,.3,0,.4,0,.1-.2.1-1,.1-1.1,0-.2,0-.2-.2-.3l-.6-.2c0,.3-.1.5-.2.7.4.3.4.3.4.5s-.1.4-.3.3c-.1,0-.2,0-.3-.2,0,0,0,0-.1,0-.3.5-.8.8-1.1.8-.2,0-.4-.2-.4-.5s0-.2.1-.2c.4-.2.5-.3.7-.5-.2-.1-.4-.2-.4-.3,0,0-.1-.1-.1-.2s0-.3.3-.3c0,0,.2,0,.5.3,0-.2,0-.3,0-.4l-.7-.2h0ZM142.9,90.9c-.1,0-.2,0-.5-.3,0,0-.4-.3-.5-.4-.1-.1-.1-.2-.1-.2,0-.1,0-.4.3-.3.2,0,.4.2.7.4.2.2.5.3.5.5s-.1.4-.3.3M142.4,91.7c0,.2,0,.2.2.2.3,0,.3,0,.3-.3,0-.2,0-.3.2-.2.3,0,.3.3.3.4,0,.2,0,.6-.1.8-.1.2-.3.2-.8,0-.6-.2-.8-.3-.8-.9v-1c0,0,0-.3.3-.2.3,0,.3.3.3.4v.8h0ZM144,92.8c-.2,0-.3-.2-.3-.6,0-.3,0-.4-.3-1,0,0,0-.2,0-.3,0-.2.3-.2.4-.2.2,0,.3.2.4.6.1.3.3,1,.3,1.2s-.3.3-.4.3"/>
          <path class="cls-26" d="M146.5,88.8c0,0,.3,0,.3.4s-.2.3-.3.2l-1.7-.4c0,0-.3,0-.3-.4s.2-.3.3-.2l1.7.4ZM146.3,87.9c0,0,.3,0,.3.4s-.2.3-.3.2l-1.4-.3c0,0-.3,0-.3-.4s.2-.3.3-.2l1.4.3ZM146.3,89.7c.1,0,.3,0,.3.4s-.1.3-.3.2l-1.4-.3c-.2,0-.3-.1-.3-.4s.1-.3.3-.2l1.4.3ZM146.3,90.7c0,0,.3,0,.3.4s-.2.3-.3.2l-1.4-.3c0,0-.3,0-.3-.4s.2-.3.3-.2c0,0,1.4.3,1.4.3ZM146.6,92.9c0,.5-.1.6-.6.5l-.7-.2c-.5-.1-.6-.3-.6-.8v-.6c0-.6.1-.6.6-.5l.7.2c.5.1.6.2.6.8,0,0,0,.6,0,.6ZM146,92.2c0-.1,0-.2-.1-.2h-.4c-.1,0-.1,0-.1,0v.4c0,.1,0,.2.1.2h.4c0,.1.1,0,.1,0,0,0,0-.4,0-.4ZM148.9,90.8h.5c0,.1.4.2.4.5s-.1.3-.4.3h-.5c0-.1,0,1.7,0,1.7l.8.2c.1,0,.4,0,.4.4s0,.4-.4.3l-2.7-.7c-.1,0-.3,0-.3-.4s0-.3.2-.3h.2s0-2.9,0-2.9c0-.1,0-.4.3-.3.2,0,.4.2.4.5v2.9h.4c0,.1,0-3.9,0-3.9l-1.1-.2c0,0-.4,0-.4-.4s0-.3.4-.3l2.4.6c.1,0,.4.1.4.4s0,.4-.4.3l-.7-.2v1.5h0Z"/>
          <path class="cls-26" d="M139.6,120.7c0,.2.1.2.4.3.1,0,.4,0,.4,0,.2,0,.2-.2.2-.6,0-.2,0-.4.4-.3.4,0,.4.3.4.5,0,.3,0,.9-.2,1.1-.2.2-.4.1-1.1,0-.6-.1-.7-.2-.7-.2-.4-.2-.5-.5-.5-.9v-2.2h-.6c0,.4,0,1.3-.6,1.9-.5.5-1.2.6-1.4.6-.2,0-.4-.3-.4-.6s.1-.2.5-.3c.9-.2,1.2-.6,1.2-1.8l-1.4-.3c-.1,0-.4,0-.4-.4s.2-.3.4-.3l2.1.5v-1.8c0,0,0-.4.4-.3.4,0,.4.3.4.5v1.8l2.1.5c0,0,.3,0,.3.4s-.1.4-.3.3l-1.5-.3v1.9h0ZM136.7,116.7c0-.1-.3-.6-.3-.7,0,0,0-.2,0-.3,0-.2.2-.3.4-.3.2,0,.3,0,.8,1.1.1.3.1.3.1.4,0,.3-.3.3-.4.3-.2,0-.2-.1-.5-.6M139.6,117.5c0-.1,0-.2.2-.4.1-.2.3-.5.4-.6,0,0,.1-.2.3-.1.2,0,.4.3.4.5s-.3.6-.4.7c-.3.4-.4.4-.6.4-.1,0-.4-.2-.4-.4"/>
          <path class="cls-26" d="M147.1,122.4c0,.7-.3.8-.8.7l-3.5-.8c-.5-.1-.8-.3-.8-1v-3.8c0-.7.2-.8.8-.7l3.5.8c.5.1.8.4.8,1,0,0,0,3.8,0,3.8ZM146.4,118.6c0-.2,0-.3-.2-.3l-3.1-.7c-.2,0-.3,0-.3.2v3.5c0,.2,0,.3.3.3l3.1.7c.2,0,.2,0,.2-.2v-3.5ZM145.9,121c0,.6-.2.7-.7.6l-1.2-.3c-.5-.1-.7-.3-.7-.9v-1.5c0-.6.2-.7.7-.6l1.2.3c.4.1.7.3.7.9v1.5h0ZM145.2,119.5c0-.1,0-.2-.2-.2l-.8-.2c-.1,0-.2,0-.2.2v1.2c0,.1,0,.2.2.2l.8.2c.1,0,.2,0,.2-.2v-1.2h0Z"/>
          <path class="cls-26" d="M148.6,121.2c-.3,0-.5,0-.6,0-.3,0-.3-.4-.3-.4,0-.3.2-.3.4-.2.1-.1.2-.3.3-.4-.1-.2-.3-.4-.4-.5-.3-.3-.3-.4-.3-.6s.1-.3.3-.3c0,0,.1,0,.1,0,0-.1.2-.3.3-.5.2-.3.2-.4.4-.3.1,0,.4.2.4.3s-.4.8-.5,1c0,0,.1.2.2.2,0-.1.2-.3.3-.4.2-.4.3-.5.4-.4.1,0,.4.2.4.4s-.8,1.2-1.1,1.5c.2,0,.3,0,.5,0,0-.2,0-.3,0-.3,0-.2.2-.2.2-.2.2,0,.2.2.3.5,0,.3.2.7.2.8,0,0,0,0,.1,0h.4c.2.1.5.2.5.6s-.2.9-.5,1.4c-.3.5-.4.4-.6.4-.2,0-.3-.2-.3-.4s0-.1.2-.3c0,0,0,0-.2,0,0,0-.1,0-.2-.2,0,0-.1-1.2-.1-1.2,0-.2.2-.2.3-.2.1,0,.2.1.2.4,0,.6.1.9,0,1,.2-.2.5-.7.5-.9s0,0,0,0h-.2c-.2-.1-.3-.3-.3-.4s0,0,0,0h-.2c-.2,0-.2-.2-.2-.3-.1,0-.2,0-.3,0v2.4c0,0,0,.3-.3.3-.3,0-.3-.3-.3-.4v-2.3h0ZM148.4,121.8c0,.2,0,1-.1,1.3,0,.1,0,.3-.2.2,0,0-.3,0-.3-.3s.1-.7.1-.8c0-.1,0-.6,0-.7,0-.1.2-.1.2-.1.3,0,.3.3.3.4M151,118.9s0-.3.1-.3c0-.1.2-.2.3-.1,0,0,.4,0,.4.4s0,.2,0,.2l.7.2c.4.1.6.3.6.8v1c0,.5-.2.6-.6.5h-.6c0-.1,0,0,0,0,0,.2.1.5.3.8,0,0,.2-.1.2-.2.3-.3.4-.3.5-.3.2,0,.3.2.3.4s-.1.3-.8.6c.1.2.3.5.5.7.3.3.3.4.3.6,0,.2-.2.4-.4.3-.2,0-.4-.4-.6-.6-.3-.4-.4-.8-.5-1v.8c0,.4,0,.7-.7.6-.5,0-.7-.2-.7-.5s0-.3.2-.3c0,0,0,0,.3,0,.1,0,.2,0,.2-.2v-2h-.5c-.4-.2-.6-.4-.6-.9v-1c0-.5.2-.6.6-.5h.3c0,0,0,0,0,0ZM150.7,119.8l1.6.4v-.2c0,0,0-.2-.1-.2l-1.4-.3c0,0-.1,0-.1.1v.2h0ZM150.7,120.3v.2c0,0,0,.2.2.2l1.4.3c.1,0,.1,0,.1-.1v-.2l-1.6-.4h0Z"/>
          <path class="cls-26" d="M141.8,133.7c0,.1,0,.3-.3.3-.3,0-.4-.2-.4-.4v-.8l-1.5-.3c-.1,0-.2,0-.2.2v.4c0,0,0,.3-.3.3-.2,0-.4-.2-.4-.4v-.4c0-.6.1-.7.7-.6l1.6.4v-.2l-1.8-.4c-.1,0-.3,0-.3-.4s.1-.3.3-.2l4.2.9c.2,0,.3.1.3.4s0,.3-.3.2l-1.8-.4v.2l1.6.4c.6.1.7.3.7.9v.4c0,0,0,.4-.3.3-.3,0-.4-.2-.4-.4v-.4c0-.1,0-.2-.2-.3l-1.4-.3v.8h0ZM141,136.2l-1.3-.3c-.5-.1-.6-.4-.6-.8v-.9c0-.6.2-.6.6-.5l3.4.7c.4.1.6.3.6.8v.9c0,0,0,.1,0,.2,0,0,.5,0,.5.4s0,.6-.2.7c-.1.2-.4.1-.8,0l-1.4-.3c-.7-.1-.9-.2-.9-.9h0q0-.1,0-.2ZM140.8,132.9s.2,0,.2.2,0,.2-.2.1l-1-.2c0,0-.2,0-.2-.2s0-.2.2-.1l1,.2ZM140.8,133.4c0,0,.2,0,.2.2s0,.2-.2.1l-1-.2c0,0-.2,0-.2-.2s0-.2.2-.1l1,.2h0ZM141,135.7v-.4l-1.2-.3v.2c0,0,0,.1.1.2l1.1.2h0ZM141,134.8v-.3l-1.1-.2c0,0-.1,0-.1.1v.2l1.2.3h0ZM141.8,135l1.3.3v-.2c0-.1,0-.1-.1-.2l-1.1-.3v.3h0ZM141.8,135.5v.4l1.1.2c.1,0,.1,0,.1-.1v-.2l-1.3-.3h0ZM141.8,136.5c0,.2.1.2.2.2l1.2.3c.3,0,.4,0,.4-.3,0,0-.1,0-.4,0l-1.4-.3h0ZM143.1,133.4c0,0,.2,0,.2.2s0,.2-.2.1l-1-.2c0,0-.2,0-.2-.2s0-.2.2-.1l1,.2h0ZM143.1,133.9c0,0,.2,0,.2.2s0,.2-.2.1l-1-.2c0,0-.2,0-.2-.2s0-.2.2-.1l1,.2Z"/>
          <path class="cls-26" d="M146.1,136.1c0,.2-.2.8-.5,1.3-.2.5-.3.6-.5.5-.2,0-.4-.3-.4-.4s0-.1.1-.3c.3-.7.4-.7.6-1.3,0-.1.1-.2.3-.2.1,0,.4.2.4.4M145.7,135.2c0,0-.1,0-.4-.3,0,0-.4-.4-.4-.4,0,0,0-.2,0-.2,0-.2.1-.4.4-.3,0,0,.2,0,.5.4.3.3.4.4.4.6s-.1.4-.4.4M145.9,133.5c-.1,0-.1,0-.4-.3,0,0-.4-.4-.4-.4,0,0-.1-.1-.1-.3s.1-.4.4-.3c0,0,.2,0,.5.4.4.4.4.4.4.6,0,.2-.1.4-.3.4M149,138.2c0,.6-.1.7-.7.6-.4,0-.6-.1-.6-.5s.2-.3.3-.3c0,0,.2,0,.2,0,0,0,.1,0,.1-.2v-1.2h-.4c-.4-.2-.6-.4-.6-.9v-1.1c0-.5.2-.6.6-.5h.2c0-.2.1-.3.1-.4l-1-.2c-.1,0-.2,0-.2.2v1.7c0,.4,0,1.5-.4,2.5-.2.4-.2.5-.4.5-.2,0-.4-.2-.4-.4s0-.2,0-.3c.4-.8.5-1.5.5-2.4v-1.7c0-.6.2-.7.7-.6l2.9.6c0,0,.3,0,.3.4s-.2.3-.3.2l-1-.2c0,.1,0,.2-.2.4h.6c.4.2.6.4.6,1v1.1c0,.5-.2.6-.6.5h-.5c0-.1,0,1.3,0,1.3h0ZM148,137c0,.2-.3.6-.4.8-.2.3-.3.4-.4.4-.2,0-.3-.2-.3-.4s0-.2.2-.4c.1-.1.2-.3.4-.6,0-.1,0-.2.2-.1.1,0,.4.1.4.3M147.9,135l1.5.3v-.3c0,0,0-.2-.1-.2l-1.2-.3c-.1,0-.1,0-.1.1v.3ZM147.9,135.6v.3c0,0,0,.1.1.2l1.2.2c.1,0,.1,0,.1-.1v-.3l-1.5-.3h0ZM149.9,137.6c0,.2.2.4.2.6,0,.1.1.3.1.4,0,.2-.2.3-.4.2-.1,0-.2,0-.4-.7,0-.2-.2-.6-.2-.8,0-.2.2-.2.4-.2.2,0,.2.1.4.5"/>
          <path class="cls-26" d="M140,105c0,.3,0,1.2,1.1,1.5,1.1.2,1.1-.7,1.1-.9v-2.9c0-.2,0-.4.4-.3.3,0,.4.2.4.5v2.9c0,1.7-1.1,1.7-2,1.5-.7-.2-1.9-.7-1.9-2.5v-2.9c0-.2,0-.4.4-.3.3,0,.4.2.4.5v2.9h0Z"/>
          <path class="cls-26" d="M146.9,107.3s0,0,0,0,0,0,0,0v-3.5c0-.2,0-.4.4-.3.3,0,.4.2.4.5v4.4c0,.4-.4.4-.6.4-.2,0-.5-.1-.7-.6l-1.6-4s0,0,0,0h0v3.6c0,.2-.1.4-.4.3-.3,0-.4-.2-.4-.5v-4.4c0-.4.4-.4.6-.4.2,0,.5.1.7.6l1.6,3.9h0Z"/>
          <path class="cls-26" d="M149.6,108.8c0,.2-.1.4-.4.3-.3,0-.4-.3-.4-.5v-4.5c0-.2,0-.4.4-.3.3,0,.4.3.4.5v4.5Z"/>
          <path class="cls-32" d="M147.6,98.2c0,.5-.4.8-.9.7l-6.2-1.5c-.5-.1-.9-.6-.9-1.1v-1.4c0-.5.4-.8.9-.7l6.2,1.5c.5.1.9.6.9,1.1v1.4h0Z"/>
          <path class="cls-32" d="M147.6,112.8c0,.5-.4.8-.9.7l-6.2-1.4c-.5-.1-.9-.6-.9-1.1v-1.4c0-.5.4-.8.9-.7l6.2,1.4c.5.1.9.6.9,1.1v1.4h0Z"/>
          <path class="cls-32" d="M147.6,127.6c0,.5-.4.8-.9.7l-6.2-1.4c-.5-.1-.9-.6-.9-1.1v-1.4c0-.5.4-.8.9-.7l6.2,1.4c.5,0,.9.6.9,1.1v1.4h0Z"/>
          <path class="cls-32" d="M147.6,142.2c0,.5-.4.8-.9.7l-6.2-1.4c-.5,0-.9-.6-.9-1v-1.4c0-.5.4-.8.9-.7l6.2,1.4c.5.1.9.6.9,1.1v1.4h0Z"/>
          <path class="cls-26" d="M185.9,88.5c-1.1,0-2.1.2-2.8.5-.7-.3-1.8-.5-2.8-.5-4.6,0-8.8,4.3-8.8,10.3s5.3,11.6,11.6,11.6,11.6-5,11.6-11.6-4.1-10.3-8.8-10.3M183.1,92.1c.9.5,2.1,2.1,2.1,3.8s-.8,2.3-2.1,2.3-2.1-1-2.1-2.3,1.2-3.3,2.1-3.8M183.1,107.6c-4.8,0-8.7-3.8-8.7-8.8s3.2-7.6,5.8-7.4c-1.2,1.2-1.9,3-1.9,4.7,0,2.9,2.3,5,4.9,5s4.9-2.1,4.9-5-.7-3.4-1.9-4.7c2.5-.1,5.8,3,5.8,7.4s-3.9,8.8-8.7,8.8"/>
          <polygon class="cls-26" points="177.4 112.7 177.4 113.9 178.1 113.9 178.1 116.2 176.2 112.7 174.1 112.7 174.1 113.9 174.8 113.9 174.8 117.7 174.1 117.7 174.1 119 176.9 119 176.9 117.7 176.2 117.7 176.2 115.4 178.1 119 179.6 119 179.6 113.9 180.3 113.9 180.3 112.7 177.4 112.7"/>
          <polygon class="cls-26" points="186.2 115.1 186.2 112.7 180.7 112.7 180.7 115.1 182 115.1 182 113.9 182.6 113.9 182.6 117.7 181.7 117.7 181.7 119 185.2 119 185.2 117.7 184.3 117.7 184.3 113.9 185 113.9 185 115.1 186.2 115.1"/>
          <polygon class="cls-26" points="192.2 115.1 192.2 112.7 186.7 112.7 186.7 115.1 187.9 115.1 187.9 113.9 188.6 113.9 188.6 117.7 187.7 117.7 187.7 119 191.2 119 191.2 117.7 190.2 117.7 190.2 113.9 190.9 113.9 190.9 115.1 192.2 115.1"/>
          <g class="cls-11">
            <g>
              <line class="cls-3" x1="240.9" y1="68.4" x2="59.2" y2="68.4"/>
              <line class="cls-3" x1="240.9" y1="61.7" x2="59.2" y2="61.7"/>
              <line class="cls-3" x1="240.9" y1="54.9" x2="59.2" y2="54.9"/>
              <line class="cls-3" x1="240.9" y1="48.1" x2="59.2" y2="48.1"/>
              <line class="cls-3" x1="240.9" y1="41.4" x2="59.2" y2="41.4"/>
              <line class="cls-3" x1="240.9" y1="34.6" x2="59.2" y2="34.6"/>
              <line class="cls-3" x1="240.9" y1="27.9" x2="59.2" y2="27.9"/>
              <line class="cls-3" x1="240.9" y1="21.1" x2="59.2" y2="21.1"/>
              <line class="cls-3" x1="240.9" y1="14.3" x2="59.2" y2="14.3"/>
              <line class="cls-3" x1="240.9" y1="7.6" x2="59.2" y2="7.6"/>
              <line class="cls-3" x1="240.9" y1=".8" x2="59.2" y2=".8"/>
              <line class="cls-3" x1="240.9" y1="-6" x2="59.2" y2="-6"/>
              <line class="cls-3" x1="240.9" y1="-12.7" x2="59.2" y2="-12.7"/>
              <line class="cls-3" x1="240.9" y1="-19.5" x2="59.2" y2="-19.5"/>
            </g>
          </g>
        </g>
      </g>
    </g>
  </g>
</svg>