<?xml version="1.0" encoding="UTF-8"?>
<svg id="_レイヤー_1" data-name="レイヤー 1" xmlns="http://www.w3.org/2000/svg" version="1.1" viewBox="0 0 752 157">
  <defs>
    <style>
      .cls-1 {
        fill: #00a73c;
      }

      .cls-1, .cls-2, .cls-3, .cls-4, .cls-5, .cls-6, .cls-7 {
        stroke-width: 0px;
      }

      .cls-1, .cls-2, .cls-4, .cls-5, .cls-6, .cls-7 {
        fill-rule: evenodd;
      }

      .cls-2 {
        fill: #fdd000;
      }

      .cls-3, .cls-7 {
        fill: #231815;
      }

      .cls-4 {
        fill: #e60012;
      }

      .cls-5 {
        fill: #0068b7;
      }

      .cls-6 {
        fill: #92308d;
      }
    </style>
  </defs>
  <path class="cls-3" d="M184.11,111.31c5.69,3,14.82,5.98,24.08,5.98,9.97,0,15.24-4.13,15.24-10.54,0-5.84-4.55-9.41-16.11-13.39-15.96-5.71-26.49-14.54-26.49-28.64,0-16.38,13.81-28.79,36.33-28.79,10.97,0,18.81,2.15,24.5,4.85l-4.84,17.39c-3.71-1.86-10.68-4.56-19.94-4.56s-13.98,4.41-13.98,9.25c0,6.12,5.28,8.84,17.82,13.69,16.94,6.26,24.8,15.1,24.8,28.78,0,16.11-12.24,29.78-38.63,29.78-10.97,0-21.8-2.99-27.21-6l4.42-17.8Z"/>
  <path class="cls-3" d="M281.31,133.55v-39.34l-30.36-56.71h24.94l9.69,23.08c3.01,6.98,5.13,12.12,7.41,18.38h.27c2.13-5.97,4.42-11.53,7.28-18.38l9.67-23.08h24.39l-31.63,55.99v40.05h-21.67Z"/>
  <path class="cls-3" d="M340.06,133.55V37.5h25.36l19.96,35.2c5.69,10.1,11.24,22.08,15.66,32.91h.3c-1.29-12.68-1.73-25.65-1.73-40.18v-27.93h19.95v96.04h-22.78l-20.53-37.06c-5.69-10.4-12.09-22.64-16.66-33.9h-.59c.75,12.81,1.02,26.35,1.02,42.02v28.94h-19.95Z"/>
  <path class="cls-3" d="M454.22,108.88l-6.72,24.66h-22.5l29.32-96.05h28.37l29.93,96.05h-23.38l-7.41-24.66h-27.63ZM478.58,92.64l-6-20.37c-1.55-5.7-3.28-12.97-4.7-18.53h-.41c-1.3,5.7-2.86,12.97-4.28,18.53l-5.84,20.37h21.23Z"/>
  <path class="cls-3" d="M518.07,38.79c6.7-1.13,16.09-1.98,29.35-1.98s23.08,2.54,29.5,7.83c6.12,4.7,10.12,12.68,10.12,22.08s-3,17.52-8.69,22.8c-7.41,6.84-18.52,10.12-31.35,10.12-2.86,0-5.42-.14-7.41-.57v34.5h-21.52V38.79ZM539.58,82.39c1.85.41,4.12.56,7.27.56,11.54,0,18.66-5.84,18.66-15.53,0-8.84-6-14.1-16.96-14.1-4.41,0-7.41.27-8.97.7v28.36Z"/>
  <path class="cls-3" d="M596.89,111.31c5.69,3,14.81,5.98,24.08,5.98,9.98,0,15.23-4.13,15.23-10.54,0-5.84-4.56-9.41-16.08-13.39-15.99-5.71-26.5-14.54-26.5-28.64,0-16.38,13.81-28.79,36.32-28.79,10.97,0,18.82,2.15,24.5,4.85l-4.84,17.39c-3.7-1.86-10.68-4.56-19.96-4.56s-13.96,4.41-13.96,9.25c0,6.12,5.29,8.84,17.81,13.69,16.96,6.26,24.79,15.1,24.79,28.78,0,16.11-12.25,29.78-38.61,29.78-10.97,0-21.79-2.99-27.2-6l4.41-17.8Z"/>
  <polygon class="cls-3" points="720.72 92.93 685.39 92.93 685.39 115.73 724.85 115.73 724.85 133.55 663.74 133.55 663.74 37.5 722.86 37.5 722.86 55.31 685.39 55.31 685.39 75.26 720.72 75.26 720.72 92.93"/>
  <polygon class="cls-6" points="59.54 79.1 64.77 95.45 64.36 78.29 59.54 79.1"/>
  <polygon class="cls-6" points="83.95 86.08 78.35 98.41 87.54 89.42 83.95 86.08"/>
  <polygon class="cls-6" points="93.57 105.97 79.79 117.94 95.49 110.46 93.57 105.97"/>
  <polygon class="cls-6" points="28.27 113.36 43.37 121.54 31.17 109.44 28.27 113.36"/>
  <polygon class="cls-6" points="44.6 85.34 51.19 98.55 51.83 85.5 44.6 85.34"/>
  <path class="cls-7" d="M62.93,82.55c.47.09.92.17,1.41.25.04.19.09.34.13.54l.11-.13c.08,0,.9.24,1.05.25v.27c.13.05.25.08.38.11-.1.14-.14.14-.25.27.2.03.42.09.62.12v.25h.41c.04.23.07.44.12.64.52.17.15.07.38.39.09.04.16.1.26.14v.37c.09.04.18.09.26.13v.27c.18.09.33.18.52.25v.26h.14c.21.34-.14.23.36.38v.52h-.51v.11h.14v.53h.12v-.53h.25c.09.38.23.34.26.38v1.3h.13v.26h.12v.13h-.12c.03.14.09.27.12.38h-.39v.14h.27c.03,1.11.09,2.23.12,3.34h.15c.03.34.07.68.11,1.03h.13c-.09.26-.16.52-.24.79h.11c.07.3-.19,1.06-.26,1.27.05.09.09.18.15.26-.1.04-.18.07-.27.13-.1.26.17.05.27.13-.06.07-.1.16-.15.25h.15v.14h-.15v.49h-.12v.14l.12.12-.12.14c.03.07.21.05.27.25-.05.07-.21.06-.27.26h.27c.02.2-.25.17-.27.25v.14h.12v.12h-.12c-.24.14.27.13.27.13v.26c-.15-.04-.27-.08-.4-.13v.13c.16.16.04,0,.13.26h.27c-.06.46-.18.52-.27.89.09-.04.17-.08.27-.13v.77h.11v.65h-.26c.05.13.09.26.15.39h.11v.13h-.11c.01.31.14.4.24.63.25-.07.11.03.25-.12h.13v-.39h.27c.05-.13.25-.21.25-.25v-.39c.1-.05.18-.09.27-.14v-.25c.16-.12.33-.25.5-.39v-.38c.07-.16.12.05.14-.13-.07-.06-.23.04-.14-.13h.14c.09-.17.09-.21.13-.52h.25c.03-.32.03-.45.12-.64h.14c.14-.31,0-.63.12-.89h.13c.04-.19.08-.34.12-.53h.12v-.12h-.12v-.5h.27v-.39h.13c-.05-.1-.1-.17-.13-.26.09-.05.17-.09.25-.13v-.26h.13v-.26h.13c.04-.26.09-.52.14-.77.16-.13.33-.24.5-.38.12-.24-.1-.21-.13-.26v-.13h.13v-.38c.09-.06.18-.09.27-.12v-.52c.07-.04.14-.07.25-.12.1-.25.17-.52.25-.78h.25v-.38h.27c.06-.33.11-.56.12-1.03.35-.08.29-.16.65-.25v-.39h.26c.17-.24.68-.36.38-.63h.52c.09-.17.18-.34.25-.52.13-.04.25-.09.39-.13v-.26h.26c.03-.09.07-.19.11-.25h.13v.13c.08-.06.18-.09.25-.13,0,0,.12.16.26.13v-.13h.25v-.12c.14.05.29.07.4.12.01,0,.06-.17.26-.12v.12h.38c.06.07.1.16.13.25h.39c.04.09.09.17.13.26h.25c.07.06.07.19.26.27v-.14h.12v.14c.21.13.23.16.53.25v.28c.09-.06.16-.11.25-.14v.52h.38c.07.14.22.19.25.25.23.41-.22.35.39.52v.25h.26c.04.14.07.26.13.39l-.13.12c.07.05.16.09.26.14.04.22.07.42.12.63.13.09.25.18.38.26,0,0-.12.38-.12.51h.52c.05.14.08.26.13.41h-.25c.22.36.22.09.39.24v.13h-.14c-.05.34-.08.69-.13,1.03h-.12c.03.11.07.26.12.37h-.12v.4h-.13c.04.18.08.34.13.52h-.13c-.06.13-.09.26-.14.39-.08.04-.17.08-.25.12v.64c-.08-.03-.18-.09-.25-.12v.91h-.26c-.05.21-.09.41-.13.63h-.13v1.16c-.13.08-.26.16-.39.25v.77c-.08.05-.16.09-.25.13v.65h-.13v.38h-.14v.38h-.12v.25h-.12v-.12c-.23-.13-.11.2-.13.25.16.12.14.11.25.27-.17.04-.58.14-.65.25-.03.05.22.4.13.65h-.13v.26h-.13v.25l-.25.26v.25c-.09.05-.17.08-.27.13v.38h-.12v.26h-.13c.04.11.09.25.13.37-.09.05-.16.1-.25.13-.04.25-.1.52-.12.79-.15.07-.28.16-.39.25v.26h-.12v.25h-.15v.52h-.12v.26h-.14c-.18.52.02,1.21-.11,1.42-.16.14,0,.05-.29.14-.03.54-.18.34-.25.88h.14v-.25c.26-.15.26-.29.64-.38v-.38h.27c.07-.34.22-.59.36-.91.11.04.17.09.27.14v-.14c.13-.14.21-.8.25-1.04.35-.07.28-.01.39-.38h.25v-.5h.38c.14-.39.28-.78.4-1.16h.12v-.52c.14-.09.26-.16.39-.27.04-.12.08-.25.12-.37h.13v-.27c.11-.17.57-.17.26-.51h.26v-.39h.26v-.38c.12-.05.25-.09.38-.13v-.12h.27v-.13c.13.05.25.08.38.13-.05-.09-.08-.16-.13-.27h.27c.11-.13.07-.25.25-.38.13.15,0,.06.25.13v-.25c.25.11.21.18.52.25v-.25h.25v.25c.52.12.47.36,1.16.39v.25h.25v.39c.18.05.37.08.54.11v.54c.12.04.25.07.39.11-.07.22-.12.31-.14.65.14-.04.27-.08.39-.12v.26c.63.63.3,2.23.25,3.21h.27c-.22.53-.22.87-.13,1.42h-.26c.09.4-.02.85.12,1.27h-.37v.14h.12c-.05.21-.09.43-.12.65h-.13c.05.13.07.26.13.38h-.27c-.04.47-.17.63-.25,1.04h-.28c.06.08.11.17.15.25h-.15v.14s.26.14.15.38c-.09.04-.17.09-.27.13v.89c-.07.05-.16.08-.25.13v.52h-.13c-.05.2.13.25.13.25-.04.23-.08.43-.13.65-.12.04-.24.09-.39.14.05.12.1.25.14.37-.17.14-.36.27-.54.4-.02.16-.07.33-.11.5-.09.05-.18.09-.26.12-.17.22-.23.42-.25.79h-.27c-.06.29-.11.31-.25.52h-.12c.02.08.08.17.12.25h-.12c-.16.14,0,.05-.27.12-.02.42-.11.49-.24.8-.08-.07-.18-.11-.25-.15.03.08.07.18.12.25h-.25c.04.13.08.25.13.39h-.13c-.16.14,0,.06-.27.13-.05.48-.09.54-.5.64-.05.25-.09.51-.13.76h-.26c-.06.22-.1.44-.13.66-.22.12-.2.16-.52.25-.05.17-.09.34-.13.5h-.26v.65h-.25v.4h-.27c-.06.3-.11.3-.26.5h-.12c-.04.28-.09.52-.13.79h-.14c-.13.15,0,.04-.25.13v-.25h-.13c.04.13.09.25.13.38-.29.22-.59.42-.88.64.09.24.16.21.23.52-.5.13-.14.16-.38.39-.09-.05-.17-.1-.26-.13v.13c.29.31-.03.55-.4.64.14.16.29.2.4.4h-.4c-.07.24-.17.5-.25.77h-.26c-.17.34-.34.67-.49,1.02h-.26c-.18.23-.35.43-.53.65h-.11c.04.14.09.25.11.37h-.25c-.14.15,0,.07-.26.13v.27h-.25c-.18.37-.38.59-.77.77v.38h-.27v.39h-.24c-.04.13-.08.25-.14.39h-.38v.51h-.13v-.14h-.64c-.13.48-.25.44-.64.66v.12h-.38v.13c-.13.05-.28.09-.4.14-.04.08-.08.17-.12.25-.13-.05-.25-.08-.39-.12v.38h-.5c-.05.13-.08.27-.14.39-.25.09-.5.17-.77.26v.25c-.05.05-.28-.22-.52-.13-.03.08-.08.17-.13.25h-.64v.14h-.39c-.06.13-.16.25-.26.37-.07-.04-.17-.08-.23-.12-.11,0-.61.2-1.04.25-.16-.14,0-.05-.25-.14-.07.14-.09.27-.14.4-.5.04-1.05.45-1.53.25v-.13c-.2-.1-.23-.09-.53-.13v.25c-.49.04-.88.19-1.29.26-.04-.09-.07-.17-.14-.26-.12.04-.25.09-.38.13v-.13c-.14-.14-.06,0-.14-.25h.14v-.4h-.25v.52c-.41.23-.36.37-1.04.39-.46-.6-.23.1-.77,0v-.13h-.24v-.13h-.12v.13h-.14v-.13c-.15-.02-.21.24-.51.13-.05-.09-.1-.16-.14-.26h-.77v-.13c-.43-.1-.58.36-.89.25-.05-.09-.09-.18-.14-.25-.21-.04-.43-.1-.64-.13v-.13h-.15v.13c-.23-.04-.51-.08-.76-.13-.17.03.06.14-.12.13h-.14c-.03-.13-.08-.27-.13-.38-.12.04-.25.08-.38.12-.02,0-.08-.2-.26-.24v.12h-.12v-.12c-.25-.08-.53.03-.66.12-.02-.12-.07-.25-.12-.39-.13.05-.25.09-.38.14-.05-.09-.09-.18-.14-.27-.19-.05-.16.21-.25.27h-.25v-.27h-.52c-.06-.13-.26-.25-.26-.25v-.14h.12v-.12h-.12v.12c-.48-.12-.93-.24-1.41-.38v-.13h-.14v.13h-.38v.14c-.11-.02-.23-.12-.52-.14v-.25h-.38v-.25h.12v-.14h-.12s-.39-.54-.39-.14h-.13v-.24c-.63-.03-.44-.16-.89-.26v-.26c-.69-.04-.75-.29-1.16-.51h-.25v-.14h-.27l-.25-.25h-.26c-.15-.17-.25-.34-.39-.51h-.27c-.07-.14-.16-.26-.25-.39h-.14v-.52c-.07.06-.17.09-.26.14v-.25h-.12c-.05-.14-.09-.27-.12-.41h-.4c-.09-.34-.02-.27-.38-.37v-.26c-.19-.08-.16-.17-.25-.27-.32-.23-.24.14-.39-.38h-.26c-.23-.14.26-.11.26-.11v-.27c-.23.05-.44.08-.65.12v-.26c-.42-.07-.53-.23-.64-.63h-.12v-.37c-.18-.05-.36-.09-.53-.15-.07-.44-.28-.48-.38-.89-.17-.05-.33-.1-.52-.13.05-.09.09-.16.14-.25-.09-.05-.18-.09-.29-.13v-.27h-.1c-.21-.34.1-.25-.39-.37v-.25h-.25v-.39h-.27c-.05-.13-.09-.26-.15-.39h-.11v-.25h-.13v-.52h-.13v.25c-.14.22-.14-.25-.14-.25h-.23s-1.02-1.59-1.03-1.67h-.26c-.05-.23-.09-.44-.14-.65h-.27c.05-.09.1-.17.14-.27-.21-.16-.42-.33-.64-.5v-.39c-.07-.03-.16-.08-.25-.13-.18-.31-.25-.59-.26-1.01-.37-.11-.28-.06-.39-.41h-.24v-.25h-.15s.12-.29.15-.51h-.15v.13c-.17-.09-.08-.16-.25-.27.04-.12.08-.25.14-.38h-.38c-.06-.14-.1-.27-.12-.39,0,0,.19-.06.12-.26-.1.05-.18.09-.27.13v-.64c-.17-.12-.34-.25-.5-.39v-.27h-.14c-.05-.25-.09-.5-.13-.77h.13v-.12h-.13c-.12-.4-.18-.64-.26-1.03h.26c-.12-.45-.17-.23-.38-.51.26-.07.11.01.26-.14-.14-.03-.26-.07-.39-.11-.11-.95-.3-1.52-.13-2.2v-1.16h.13v-.12h-.13v-.14h.13v-.12c.09.04.17.08.26.12v-.12h-.12v-.77c.12-.08.26-.16.38-.25v-.14h.38c.05-.09.09-.16.14-.25h.26v-.14h.65v-.14h.26v-.11c.11.03.24.08.38.11.05-.08.08-.16.13-.24.2-.07.26.13.26.13.25.03.25-.13.25-.13h.52v.13c.11-.04.25-.09.38-.13.1.04.05.27.26.24.05,0-.13-.24.13-.24.04.13.06.24.12.38.08-.04.18-.09.27-.14v.14h1.02v.27c.09.02.16.08.26.11v.27h.11v.13c.18-.04.36-.08.54-.13.04.09.07.17.13.26.27.23.61.43,1.02.51.12.48.42.56.9.65v.26c.17-.05.35-.09.52-.14.04.22.07.43.12.66h.52c.05.13.08.24.13.38.09-.05.16-.09.26-.14.03.09.07.17.12.27h1.3c.07-.16.21-.2.25-.27v-.24h.13v-.66h.13v-.26h.14v-.38h.13v-.13h-.13v-.64h.13c.06-.32-.13-.33-.13-.5.04-.18.09-.36.13-.52h-.13v-.52h-.14c.05-.13.1-.27.14-.38-.09-.04-.18-.09-.27-.13v-.76h-.13v-.79h-.12c.05-.29.09-.6.12-.91-.07-.02-.17-.07-.25-.13-.05-.41-.08-.85-.12-1.27,0,0,.2-.2.24-.28h-.24c0-.19-.14-.51-.14-.51h.14v-.52c-.05-.16-.18.07-.14-.12.03-.09.28-.05.26-.25h-.12v-.38h-.14c-.12-.31-.06-1.04,0-1.04v-.14h-.25v-.25c.09-.02.17-.08.25-.13v-.64h-.14c0-.17.23-.21.14-.52h-.14v-.39h-.12c.04-.43.09-.85.12-1.29h-.12v-1.4h.12c-.03-.08-.08-.18-.12-.26-.03-.3.13-.35.12-.52h-.12v-1.91h.12c.1-.34-.12-.49-.12-.66h.12v-.39h-.12v-.13h.12c.05-.29.1-.59.14-.89h.26c-.11-.13-.16-.13-.26-.26.56-.5.14-.54.38-1.27h.12v-.54c.13-.08.26-.17.39-.25v-.38h.13v-.14l-.13-.12h.13v-.38h.11c.04-.15.09-.25.14-.39h.27v-.51c.14-.09.33-.36.38-.38h.49c.18-.07-.03-.07.15-.13-.05-.12-.11-.25-.15-.39h.15v-.12c.25-.05.5-.09.76-.14l.13.14c.04-.09.09-.18.14-.26h.13c.04.09.09.17.13.26h.51v.12c.21.04.43.09.65.13v.14c.15.14.05,0,.13.25.12-.04.27-.09.39-.13v.13c.24.14.3.29.38.64.24.09.51.17.77.25v.25c.09-.02.18-.08.28-.11.21.31-.15.24.36.39.04.3.04.31.14.52h.12c-.04.12-.09.25-.12.38h.26c-.04.08-.09.16-.14.25.1.05.17.09.27.14v.26h.12c-.03.16-.09.33-.12.5h.12c.16.16,0,.06.26.13v.38h.26v.25c-.09.05-.17.08-.26.14v.52h.12v-.52h.26v.64h.27c.02.55.09,1.11.13,1.7.09.02.16.07.25.11v.38c.07.05.17.09.25.13-.04.09-.08.18-.13.27.09.04.18.09.27.13.04.38.07.75.12,1.15.08.05.17.09.25.12v.13h-.13v.77h.13v.52h.12c-.02.09-.07.17-.12.26.09.04.17.09.26.12v.39h.13c-.04.22-.09.43-.13.65h.13v.25h.14v.26c.06.05.16.1.25.13.04.47.08.95.12,1.42h.12v.39h.14c-.03.12-.08.26-.14.38.11-.03.19-.07.27-.12v.39h.13c.11.16.11.22.12.5h.27v.26h.25v.25h.52c.05-.21.1-.43.12-.63h-.12v-.13h.39v-.53h.27c.07-.92.3-1.55.12-2.57h.26v-.64s-.17-.04-.14-.26h.14v-.52c.05-.17.11.05.13-.14.05-.28-.13-.36-.13-.36.05-.22.08-.45.13-.65h-.13v-.13h.13v-1.53s-.18-.05-.13-.27h.13v-.89c.04-.2.13.03.13-.15l-.13-.12.13-.14h-.13c-.05-.3.11-.33.13-.51v-1.16s.14,0,.12-.26h-.12v-.14h.12v-.12h-.12c-.02-.19.07.06.12-.13.09-.34-.06-.59-.12-.76h.38v-.12h-.12c.08-.39.17-.78.25-1.16h-.25c-.03-.21.21-.16.25-.27v-.9l.13-.13c.1.05.18.09.25.13v-.13h-.13v-.78c.1-.04.19-.08.26-.12v-.53h.26c-.08-.12-.16-.25-.26-.38h.13c.05-.16.1-.34.13-.52h.13c.01-.15-.26-.22-.13-.5h.13c.16-.27.2-.26.27-.65h.38c.07-.16.08-.34.14-.52h-.14v-.12h.27c.03-.14.08-.26.11-.39h.14c-.02-.09-.06-.17-.14-.25h.41c.14-.16,0-.05.25-.12.07-.4.24-.52.38-.8.18.05.36.09.51.15.06-.09.11-.17.15-.27h.12v.12c.18.2.14-.21.14-.25M61.89,90.8c-.01.29-.01.32-.13.5h-.13c-.11.3.16.35.13.52h-.13v.91h.13c-.04.15-.08.34-.13.5.1.14.17-.05.13.13h-.13v.39h-.11c.04.34.07.69.11,1.02h-.11v.38c-.06.12-.29.05-.27.27,0,0,.17.07.13.27,0,0-.2.03-.13.24.08.05.17.09.27.11-.06.27-.1.53-.14.79h.14c0,.2-.1-.05-.14.13.04.3.07.6.14.91h-.41v.13h.14c.15.25-.15.36-.14.5h.14v.38c-.09-.04-.16-.07-.27-.12v.12c.14.12.46.5.41.79h-.13v.25h-.14s.14.32.14.52c-.09-.06-.16-.08-.27-.13v.13c.55.4-.07.45.41.64v.38h-.27v.13h.14c.04.2-.2.16-.27.25v.27h-.11c-.05.19.08-.04.11.12.04.18-.07-.04-.11.14.03.12.08.26.11.39-.07.04-.14.09-.23.13v1.02c-.07-.02-.18-.06-.27-.13v.13c.1.12.12.9,0,1.18-.13.08-.25.15-.39.26-.02.04-.1.42-.14.51-.29.02-.31.02-.52.13v.12h-.13v-.12c-.12.05-.25.09-.38.12v-.12h-.12c.05.09.08.17.12.26h-.12v.12h-.9v-.25c-.54.1-.82.16-1.3-.12-.04-.09-.07-.17-.12-.27-.27-.03-.52-.07-.79-.11v-.25c-.3-.15-.53-.32-.76-.54v-.11c-.14-.04-.26-.1-.39-.13v-.27h-.25v-.12c-.18-.14-.27-.33-.39-.52h-.12v-.25c-.13-.05-.26-.08-.4-.14v-.37h-.25c-.09-.4-.21-.28-.26-.4v-.51h-.13c-.04-.25-.08-.52-.13-.77h-.12c.03-.13.09-.25.12-.38h-.12v-.27c-.1-.04-.17-.07-.27-.11-.04-.13.23-.25.14-.52h-.14v-.25h-.12c.04-.11.09-.19.12-.27h-.12c-.12-.27-.12-.48-.14-.89.15-.14.06,0,.14-.26h-.25c-.01-.43-.08-.59-.14-.89h.25v-.13h-.36c-.08-.31-.1-.61-.14-.92h-.14c-.08-.27.18-.37.14-.5-.1-.05-.19-.08-.26-.12v-.91c-.13-.09-.25-.16-.4-.24v-.79h-.11c-.04-.27-.09-.53-.13-.77h-.25c.01-.36.07-1.16-.13-1.28h-.27c-.07-.91-.54-1.14-.65-1.93-.11-.05-.25-.09-.38-.14,0,.5.04.53-.37.66-.08.37-.21.3-.25.39v.89c-.11.04-.18.09-.27.14-.07.29-.18.59-.25.89-.08-.04-.17-.08-.25-.12v.12h.12c.13.17.09.46,0,.64-.07.05-.16.1-.26.13v.13h.14v.78s-.18-.02-.14.27c0,0,.24.59.14,1.02h-.14v.64h.14v.12h-.14v.4h-.11c-.11.3.16.37.11.52-.08.04-.16.07-.26.13.08.26.18-.04.26.13,0,.26-.26.93-.11,1.4h.11v1.04h.14c-.04.09-.09.18-.14.26,0,.45.09.35.14.9h-.25v.25h.25c.02.76.12.98,0,1.68.03.07.2.04.25.25h-.13c-.07.29.27.97.39,1.03h-.25c-.04.27-.08.51-.13.79.13.08.27.15.39.26-.03.11-.07.25-.12.36.05.27.09.53.12.77h-.12c-.06.14-.08.27-.13.4h.13v.37h.12v1.3c.13.04.27.08.39.12-.18.5-.04.92.13,1.41v1.68h.13v.26h.12v.12h-.12v1.16h-.13v.38h-.13c.04.13.09.27.13.39h-.25v.26h-.27v.64h-.12c-.28.34-.3.04-.39.64-.48.12-.98.57-1.17.14-.2-.06-.2.1-.25-.14,0,0,.25,0,.14-.11h-.14v.11c-.16-.14-.04.02-.13-.25h.13v-.13h-.13c-.11.23-.21.34-.26.64-.13-.05-.27-.09-.4-.13v.13c-.25.05-.5.09-.77.13v-.13h-.26v-.13h-.37v-.14c-.44-.16-.44,0-.9,0-.09-.31-.07-.21-.26-.37v-.13h-.52c-.04-.1-.09-.17-.12-.26-.22-.04-.43-.08-.65-.12v-.14c-.14-.04-.26-.08-.39-.13v-.25c-.69-.07-.7-.47-1.27-.63v-.27c-.11.05-.2.09-.27.14-.05-.09-.09-.19-.15-.26-.18-.15-.36-.2-.62-.26v-.27c-.53-.14-.21-.26-.41-.38-.11.04-.24.09-.36.12,0,0,.02-.08-.27-.12v-.26c-.3.05-.61.09-.89.12v.14h-.27v.12c-.09-.03-.16-.08-.25-.12v.12h-.13c.04.09.09.17.13.26-.09.04-.17.08-.25.13-.25.34.13.25-.39.4v.77h-.14c-.02.17.11-.06.14.12v.38h-.14c-.02.06.11.29.14.52h-.14v-.13c-.11-.25-.14.26-.14.26h.14c.14.13,0,.04.27.13.04.34.09.69.13,1.02h.14v.27h.12c.04.5.09,1.01.13,1.54.12.09.25.16.37.26l-.12.12c.04.38.16.27.27.64h.25c.07,1.01.69,1.67,1.03,2.45h.39c.02.58,0,.73.26,1.03.09.04.17.08.25.12.09.26.16.52.26.77.23.36.42.05.53.76h.25c.07.72.46.63.49,1.43h.41v.12c.25.24.12.3.25.52.09.04.17.08.26.13.39.43.94.83,1.03,1.53.45.13.25.16.52.39v.12h.25v.39c.35.1.28.02.38.39h.27c.03.13.06.26.11.38l-.11.13c.06-.05.16-.08.25-.13v.27c.12.05.26.08.38.13v.12c.14.06.28.09.4.15v.24h.38v.14c.22.16.32.34.4.63.11.05.26.11.38.14v.27c.08.02.15.08.25.11v.12h.28c.13.19.24.36.37.52.12.04.27.09.38.13v.27c.09-.06.19-.09.26-.14v.14h.91c.35.04.68.07,1.02.12v.25c.48.14.39.34,1.03.38v.92c.62.26,1.25.68,2.05.76v.39h.13v-.14c.44.09.87.19,1.28.26.05.09.09.18.13.27h.78v.13h.39v.12h.37c.05.09.11.18.14.26l.13-.12h.52v.38h.12v-.26c.45.04.65.13,1.03.26v.14c.16,0,.45-.27.78-.14.05.08.09.17.13.25.12-.05.26-.08.38-.12v-.14c.16.05.36.08.51.14v.12h.52c.04.09.09.17.14.26.13-.04.26-.09.39-.12v-.14c.61.04,1.2.09,1.8.14v-.14c.23-.05.15.06.23.14.18-.02-.02-.11.15-.14h.88c.06-.08.1-.17.14-.25.27.05.53.08.78.14.26-.05.7-.14,1.16-.14v.25c.14-.14.05,0,.13-.25.42-.09.49-.22,1.03-.26v-.26h.39v.14c.11.24.11-.26.11-.26.48-.08.75-.15,1.18,0v-.13h-.14c-.05-.17.35-.32.38-.38v-.25h.53c.03-.09.09-.18.12-.27.26-.2.47-.23.9-.27v-.25c.54-.02.61-.16,1.03-.26v-.26c.13-.23.77-.05.39-.52h.25c.16-.14,0-.04.27-.11v-.27h.25c.25-.3.53-.3.64-.77h.26c.13-.46.43-.61.64-1.03h.38c.04-.17.09-.34.14-.51.37-.1.41-.15.5-.52h.27c.05-.46.15-.39.24-.78h.27v-.38h.12c.15-.16,0-.06.27-.13.09-.4.29-.48.38-.92.36-.07.27,0,.38-.36h.13v-.66c.17-.04.34-.07.52-.12v-.4h.12c.1.2.23.4.4.52v-.52h-.26v-.24h.26l-.14-.13c0-.07.12-.28.14-.52h.39v-.12c.27-.3.07-.7.23-1.02h.13c.25-.34.45-.37.54-.91h.25c.07-.29.11-.3.27-.5h.12c-.05-.09-.09-.16-.12-.25.07-.05.14-.09.23-.13.06-.17.1-.34.13-.51h.27c.09-.58.39-.77.51-1.29h.52c-.18-.48-.13-.53.13-.9h.12c.04-.22.08-.45.14-.65.25-.22.51-.43.77-.64.08-.25.17-.51.25-.77.08-.04.16-.09.26-.13.19-.23.31-.52.39-.9h.25c.05-.25.08-.5.13-.77h.39c.04-.43.08-.86.13-1.29h.12v-.77c.13-.08.27-.16.37-.25,0,0-.11-.39-.11-.52h.25c0-.48.38-1.29.12-1.42h.25c.09-.52.18-1.03.26-1.53h.13v-.27h.13c-.04-.14-.1-.25-.13-.38h.13v-1.04h.13v-.12h-.13c-.01-.21.13-.26.13-.26.05-.26-.13-.25-.13-.25v-.66h-.13v.27h-.13v.38h-.26c-.07.29-.1.32-.25.5h-.12v.25c-.09.05-.18.09-.25.13v.64h-.14v.14h-.25c.03-.11.23-.29.12-.52h-.12c-.09.46-.19.93-.27,1.43h-.25v.25h-.13c.05.08.08.17.13.27h-.25v.13c-.1.03-.18.07-.26.11v.26c-.18.08-.36.17-.52.26v.38c-.09.05-.18.09-.25.14v.39h-.13c-.05.13-.09.26-.13.38h-.26c-.1.42-.17.48-.65.52-.08.32-.43.86-.64,1.03h-.25c-.09.13-.16.26-.25.39-.17,0-.22-.2-.51,0-.1.13-.19.26-.27.37h-.25v.14c-.45.04-.87.08-1.29.13v-.13c-.06,0-.29.12-.52.13-.1-.39-.25-.44-.64-.51v-.39c-.32-.08-.22-.06-.38-.25h-.14v-.27h-.12v-.38c-.09-.04-.17-.09-.26-.12v-.27c-.13-.09-.25-.16-.38-.24.03-.09.09-.19.13-.26h-.13c-.05-.26-.1-.52-.14-.79h.14v-.12c.13.1.13.16.25.26v-.4h-.25c.01-.31.11-.34.13-.51h-.13v-.51h.13v-.13c-.04-.06-.23-.03-.13-.25.09-.05.18-.11.25-.14v-.63c.13-.04.27-.09.39-.13.02-.32.02-.45.12-.66h.14c.04-.38.08-.76.13-1.14.13-.05.26-.09.39-.12,0-.33.08-.45.13-.65h-.13v-.12c.08-.04.17-.09.25-.14.06-.2.1-.41.14-.64h.13v-.12h.38v-.13c-.17-.08-.29-.12-.38-.25.12-.05.26-.09.38-.15-.05-.07-.1-.15-.12-.25h.12v-.65c.08-.03.17-.07.25-.11v-.39h.13c.16.16,0,.05.25.13v-.13c-.25-.06-.09.02-.25-.12.32-.29.11-.27.25-.65h.13v-.38h.13v-.26h.14v-.26c.11-.09.24-.17.39-.26v-.39h.11v-.14c-.09-.09-.18.05-.11-.11.07-.05.14-.08.25-.14v-.77h.12c.16.15,0,.05.27.13.07-.6.17-1.2.24-1.8l-.13-.14h.13c.25-.37.31-.2.39-.77h.25v-.13c-.21-.14-.16-.07-.25-.39h.25v-.65c.09-.04.18-.06.27-.12v-.26h.13c-.04-.14-.09-.26-.13-.4.13-.02.25-.08.38-.12-.04-.15-.25-.47-.13-.77.1-.04.19-.09.26-.13v-.9s.35-.1.27-.26h-.27v-.12h.12c-.04-.26,0-.12-.12-.25-.14-.15,0-.06-.26-.13-.15-.75-.71-1-.89-1.67-.42-.05-.38-.11-.63-.25v.12c.14.13.14.09.23.25h-.11c-.12.17-.27.36-.39.52-.14.05-.25.09-.4.14v.25c-.2.04-.41.09-.65.12-.09.45-.14.26-.38.52h-.11c.03.08.07.17.11.25-.09.05-.17.08-.25.13v.38h-.12v.26c-.1.04-.18.07-.26.12-.23.39.23.35-.38.52.04.17.09.35.11.52h-.11v.23h-.13c-.05.27-.09.53-.13.79-.13.05-.26.09-.38.13-.04.5-.18.54-.26,1.04h-.26v.11h.14v.13h-.14v.52c-.09.05-.18.08-.25.12v.27h-.13v.52h-.14c-.03.29-.07.6-.12.88-.12.06-.26.1-.39.14.09.2.16.13.27.27-.04.21-.35.3-.4.38v.25h-.25c.11.23.02.05.25.14v.11h-.25c-.02.31-.09.62-.12.92h-.14v.25h-.11c-.07.25-.1.51-.14.76-.14.07-.27.1-.38.13-.21.17-.32.62-.39.9h-.26c-.16.12-.34.84-.52.54h-.12v.11h.12v.4h-.25c-.12.53-.07.13-.39.38v.12h-.14c-.24.3.17.25-.37.39-.23.22-1.35.25-1.8.14v-.14c-.17.05-.35.1-.51.14v-.14c-.14-.15-.05,0-.14-.27h-.37v-.24c-.18-.05-.34-.09-.51-.13v-.25h-.27c-.05-.15-.08-.26-.13-.4h-.13c-.2-.23-.3-.41-.37-.76h-.39c-.14-.39-.26-.79-.41-1.16-.03-.21.14-.22.15-.26-.04-.25-.1-.5-.15-.77h.15v-.65h-.15c.05-.08.11-.16.15-.25h-.15c-.03-.77-.07-1.54-.12-2.3-.01-.84-.01-3.02.12-3.24.18-.12,0-.02.27-.11-.05-.21-.07-.42-.12-.64,0-.2.14.05.12-.13h-.12v-.38h-.15v-.12h.15v-.9h-.15v-.91h-.12c.05-.26.09-.51.12-.77h-.12c-.07-.31.12-.33.12-.51h-.12c.05-.13.09-.26.12-.39h-.12v-.24h-.13v-.13h.13c-.04-.13-.08-.26-.13-.4h.25c.04-.06-.14-.28-.12-.51h.12v-.12h-.12v-.27h-.13v-.38c-.08-.05-.18-.09-.25-.15v-.11h.13v-.79c-.16-.53-.38-.44-.13-1.14-.09.05-.17.09-.25.12v-.12c-.41-.27-.12-.41-.78-.52v-.39c-.3-.17-.36-.46-.63-.64v-.12h-.14v.12c-.1-.05-.18-.08-.26-.12.03.17,0,0,.13.12-.06.27-.4.35-.52.52.05.08.08.16.12.25h-.12v.27c-.13.09-.26.18-.39.25v.38c-.11.09-.25.17-.37.26v.27h-.15v.49h-.11v.14c.09.14.17-.04.11.11h-.11v.64c-.09.06-.18.09-.27.15.05.13.09.25.14.38h-.14v.65h-.13c-.05.2-.03.48.13.52v.13h-.26Z"/>
  <path class="cls-2" d="M107.64,97.81c9.91-3.97,12.38-11.89,13.37-16.35.75,8.7-7.41,20.29-8.91,20.79l-4.46-4.44Z"/>
  <path class="cls-2" d="M113.59,100.28c9.89-3.98,12.37-11.88,13.38-16.35.72,8.72-7.45,20.3-8.94,20.81l-4.45-4.46Z"/>
  <path class="cls-2" d="M155.18,97.81c-9.88-3.97-12.37-11.89-13.37-16.35-.73,8.7,7.45,20.29,8.93,20.79l4.45-4.44Z"/>
  <path class="cls-2" d="M147.77,102.26c-9.92-3.96-12.39-11.89-13.38-16.34-.74,8.71,7.42,20.3,8.91,20.79l4.47-4.45Z"/>
  <path class="cls-7" d="M133.33,51.18v.27c.37.09.29.03.39.39h.5v.12h.14c-.03.23-.07.44-.14.64h.27v.39h.51v.14h.13v.38h.26v.27c.13-.05.26-.1.38-.13.03.25,0,.38.13.51h.27c-.05.09-.08.17-.14.26h.14v.13h.51v.52h.25c.04.33.08.68.13,1.02h.26c.04.16.07.35.12.52h.4v.12c-.16.12-.29.09-.26.39h.13v.12h-.13c0,.31.13.33.26.52h.13v.26h.26c.03.7.3.78.38,1.42h.26c-.08.26,0,.13-.13.26.13.39.24.76.38,1.15v1.04s.46.24.38.39h-.11c-.05.13-.09.25-.12.38.34.09.28.03.38.38h.12v.52c.11.04.16.09.26.13v.38h.14c.04.13.07.26.13.38h-.27c.04.14.09.26.14.39h.25v.38h.12c-.04.08-.08.18-.12.26h.12v.25h.13v.26h.14c.02.13.07.25.12.38h.25v.52h.25c-.09.59-.1.96.14,1.54h-.14v.14h.39v.63c.31.06.39.16.64.26-.07.24-.13.51-.13.91-.09-.06-.17-.09-.26-.13v.13h.11v.13h.14v-.13h.13v.39h.27c0,.66.04.51.25.89-.32.09-.25.05-.39.25.09-.03.17-.08.26-.12v.12h.13c.07.27.18.53.26.76h.26c.02.62.25.95.37,1.43-.04.21-.09.43-.12.63h.12v.39h.13c.05.22.09.44.12.64l-.12.13c.12.09.27.17.4.26v.38h.12c.16.41.02.43,0,.77h-.24c.04.13.07.28.13.41.07-.06.17-.09.26-.13v.63h.13v.39h.23c.06.29.14.22.14.25v.63h.14c-.05.14-.1.27-.14.41.14.03.25.07.4.12-.05.09-.09.16-.15.25.1.15.25-.06.26.4-.04.07-.08.16-.11.24h.11v.26h.15c.02.14.07.26.11.39h-.11v.25h-.26v.14c.3.02.31.05.5.12,0,.27-.02.14-.13.27.06.23.3.26.39.37,0,.16-.25.34-.14.64.11.06.17.11.26.14.07.21-.12.25-.12.25-.02.21.12.27.12.27.04.21-.12.26-.12.26.03.07.09.16.12.25h-.12c-.03.09-.09.17-.14.25h.26c.15-.14,0-.05.27-.12-.03.31-.04.31-.13.51h-.14c.04.14.09.24.14.4h.13c0,.3-.25.11-.27.25v.11h.14v.78h-.14c.09.31.18.6.27.91h-.27l.14.13c-.05.32-.14.29-.26.5h-.14c.02.21.29.81.14,1.17-.09.04-.18.08-.26.14-.15.25,0,.23,0,.62h-.24c-.06.22-.1.43-.15.65h-.26c-.07.32-.06.21-.25.38v.13h-.25c-.09.14-.19.27-.26.39h-.14v.38c-.06-.05-.17-.09-.24-.12v.26c-.3,0-.34-.03-.52-.13v.13c-.16.1-.2.33-.25.39-.26.15-.37-.08-.65.25-.26-.07-.11,0-.26-.13-.13-.16-.05,0-.13-.27h-.27v.27c-.36.07-.41.35-.62.13v.25c-.15.16-.05,0-.14.25-.44-.1-.47-.31-1.02-.38-.23.35-.39.45-.92.53h-.38v.12c-.25.21-.5.43-.76.64h-.13v.51c-.64.02-.45.15-.9.27v.24h-.39v.12h-.13v.39h-.12c-.05.1-.09.18-.13.27h-.26c-.09.12-.17.26-.26.37h-.39c-.07-.15-.22-.2-.26-.25v-.39h-.12v.39c-.11.19-.51.13-.63,0v.25c-.24.25-.44.3-.76.13-.15-.04-.06-.21-.29-.24-.3.37-1.08.45-1.67.24v-.13h-.77v-.11h-.26v-.13c-.15-.04-.23.23-.51.13v-.13c-.21-.12-.32-.1-.65-.12v-.27c-.7-.02-.62-.21-1.02-.39h-.53v-.12c-.13-.14-.03,0-.12-.24h-.39c-.06-.52-.16-.46-.38-.78h-.13c-.12-.22.16-.46.13-.51h-.25v-.14c-.31-.32-.23-.01-.27-.65-.16-.04-.34-.09-.5-.12-.03-.31-.09-.61-.12-.9-.12-.09-.25-.17-.39-.26v-.12c-.21-.05-.43-.09-.63-.13-.08-.09-.11-.18-.16-.27-.13-.06-.5-.04-.5.13h-.12v-.27c-.21-.12-.17-.08-.26-.37-.13-.05-.26-.09-.39-.13v.13c-.21.1-.3.12-.64.12-.12-.25-.16-.2-.25-.5-.15.14-.05,0-.14.25-.46-.11-.39-.41-.77,0-.02-.13-.08-.25-.11-.4-.31.04-.61.11-.93.15v-.15c-.49-.07-1-.17-1.52-.25v-.25h-.51v-.26c-.32-.08-.29-.13-.52-.26-.03.14-.1.26-.14.4-.54-.26-.92-.75-1.53-.91v-.77h-.24c-.06-.18-.09-.35-.14-.52-.13-.05-.25-.08-.36-.13v-.38h-.28c-.09-.26-.16-.52-.26-.77-.12-.05-.26-.08-.38-.14v-1.01h-.26c.04-.31.09-.6.11-.9h-.11c-.09-.48-.17-.96-.26-1.41h.13v-.39c.13-.09.24-.18.39-.26-.05-.08-.08-.18-.14-.25h.14v-.27h.13c.07-.2-.13-.25-.13-.26v-.12h.13v-.64h.14v-.51h.12v-.52h.13v-.27h.13c-.09-.12-.16-.25-.26-.38.09-.03.17-.09.26-.12.15-.28,0-.54.13-.89h.15v-.41h.11c.05-.11.09-.25.12-.39h.27c.03-.28,0-.34.11-.51h.13v-.38c.11-.05.18-.09.27-.14v-.13h-.13c.04-.09.08-.17.13-.26.13.05.26.09.38.13v-.13h-.11v-.5h.24c-.12-.64-.19-1.04.13-1.57.09-.04.18-.08.26-.13v-.37h.15v-.28h.11v-.5h.12v-.27h.14v-.89h.26c.09-.38.21-.28.26-.38.05-.32.09-.61.12-.91.09-.05.17-.07.25-.13v-.52c.1-.05.17-.09.27-.12.05-.35.07-.7.13-1.04h.26v-.25h.26c.03-.31.03-.34.11-.52h.14c.09-.2-.14-.25-.14-.25v-.15h.14v-.38c.16-.08.36-.16.49-.25,0-.13-.06-.26-.12-.39h.12c.05-.13.1-.25.16-.38.07.04.16.08.23.12v-.12h-.11c.04-.26.07-.52.11-.77h.26v.38h.14c-.05-.22-.08-.43-.14-.65h.14v-.26h.13c.11-.38.24-.77.37-1.16.12-.09.25-.16.39-.25.05-.14.09-.26.12-.38h.14v.13c.12-.04.25-.09.37-.13.18.13-.11.09.14.25v-.25h-.14c.05-.3.08-.62.14-.92h.12c.16-.13,0-.04.26-.13.05-.12.09-.25.13-.37h.13c-.04-.14-.08-.26-.13-.39.09-.04.19-.09.26-.12v-.25h.26v-.13h-.13c-.23-.12.25-.14.25-.14.09-.25.17-.51.25-.77.14-.05.25-.09.41-.12v-.79h.12c.09-.13.17-.25.26-.39.11-.04.25-.09.39-.12v-.27c.15.05.34.09.49.14v-.14c-.24-.06-.09.03-.24-.13.42-.23.29-.23.24-.76h.39v-.14c.16-.14.07,0,.12-.26h.4v-.12h-.13v-.4h.25v-.12h.13v-.38c.1-.06.18-.09.26-.14v-.26h.14c.17-.19.05-.18.37-.26v-.26h.27v-.26c.13.05.25.09.38.13v-.13h-.13c.05-.22.08-.43.13-.65.18.04.35.1.51.13v-.24c.54-.14.36-.18.91-.27v-.51h.13c.17-.26.3-.3.38-.66.23-.04.44-.07.65-.12v.39h.26c-.01-.3-.04-.33-.14-.51h.14v-.13c.26-.15.51.13.64.13v-.13c.1.04.17.08.27.13v-.27h.12v.14c.18-.05.18-.11.51-.14M131.29,55.3c0,.68.1.33-.15.91h-.13v-.39h-.25c.07.21.1.21.12.51h-.38v-.26c-.15.14-.05,0-.13.26-.62.36-.21.53-.38.77v.12h-.12v-.12c-.1.04-.2.08-.27.12-.07.2-.11.21-.14.52-.41.09-.46.18-.51.64h-.26c.09.18.18.35.26.53-.62.02-.45.12-.9.24-.02.14-.1.27-.12.4h-.14c-.04.13-.07.25-.13.39-.07.02-.17.07-.26.13.05.07.09.16.13.25h-.38c-.04.12-.09.25-.13.38,0,0,.21.06.13.26-.13.11-.27.18-.4.25v.27s-.18.16-.25.25h-.14v.4c-.12.38-.24.76-.36,1.15-.13.05-.27.07-.41.12-.02.13-.07.27-.11.39h-.12c.04.08.07.17.12.26-.16.14-.35.12-.64.13-.06.12-.1.25-.14.39h-.11v.25c-.09.04-.18.08-.27.13-.13.19.05.4-.13.51h-.26v.25h.26v.26h-.26c-.05.57-.32.68-.37,1.29h-.26c-.09.4-.22.3-.27.39v.77c-.07.05-.16.1-.25.14-.25.34.13.25-.39.39-.02.27-.02.33-.13.5h-.12v.26h-.14c-.04.26-.09.52-.13.78-.08.04-.17.07-.25.14-.2.24-.22.46-.27.89h-.37v.13h-.16v.39h-.12c-.01.13-.07.26-.11.39h-.25c-.06.46-.08.93-.14,1.41h-.25v.25h-.25v.25c-.1.05-.19.1-.26.13-.05.2.13.25.13.25-.06.35-.08.7-.13,1.04h-.39c.05.21.1.43.12.64h-.25c.04.21.09.43.13.64-.13.04-.25.08-.38.15v.75c-.08.04-.18.09-.25.13v.39c-.04.09-.29.04-.28.25h.14c.05.13.1.26.14.38h-.51v.13c.11.04.23.09.37.13-.04.09-.26.26-.26.26-.1.22.19.46.12.52-.12.03-.23.09-.38.12v.52c-.07.05-.16.09-.26.12,0,.07.12.26.13.52-.13-.05-.26-.09-.38-.12-.05.29-.08.57-.11.9h-.14c-.01.08.22.42.14.78h-.14v.89c-.09.46-.09.66,0,1.14.14.06.25.11.37.14v.91h.13c.11.41.36.67.78.77v.26h.64c.09.3.04.23.25.39v.12h.4c.17.05-.06.13.13.13v-.13h.39c.04.13.07.26.11.38h.14v-.12h.64v.12h.37v.25c.16-.14.07,0,.13-.25.28.05.52.08.77.13v.12c.13-.02.27-.08.39-.12v.12c.39.17.38.07.77,0v.28c.14.05.38.05.52.12v.13c.13.09.26.17.39.26v-.26c.45.04.5.17.91.26v.27c.36.09.78.16,1.14.26.05.15.09.34.14.51.56-.17.25.04.89.11v.4c.73.2.12.2.39.63h.14v-.13c.17.06.33.09.5.13v.64h.26v.26h.26c-.05.13-.08.26-.13.38h.13c.09.32.18.61.25.89.24.05.45.1.67.15,0,0,.18.48.24.37v-.25c.13.03.26.09.39.14v.11h.27v.15h.25v.12c.4.04.78.1,1.16.13v.12h.13c.04-.09.07-.16.13-.25.29.04,0,.06.12.25.2-.14.02-.02.14-.25.16.04.35.1.5.13,0,0,.15-.23.38-.13,0,0,.29.32.39.39v-.52c-.14-.16-.06,0-.11-.26.3-.1.59-.18.88-.26.05-.15.09-.26.12-.4.31.11.21.07.64.14v-.14h-.13v-.37h.13v.13c.12.25.13-.25.13-.25h.39v-.27c.34-.08.41-.22.65-.38v-.14h.25c.04-.08.08-.17.13-.25.47-.09.95-.18,1.41-.27v-.13h.26c.04-.07.09-.17.13-.26.11.05.25.09.39.12.04-.08.07-.16.12-.25.08.05.17.09.26.13v-.13c.38-.08.77-.17,1.16-.25v.25c.1-.05.25-.25.25-.25h.52c.05-.09.07-.18.12-.25h.26v-.15c.08.04.18.11.25.15.06-.15.11-.26.14-.4.25-.07.18.09.26.14h.26v-.51h.27c.06-.4.16-.78.23-1.17h.25v-.26c.09-.04.18-.07.27-.13-.04-.21-.09-.43-.12-.64.08-.05.17-.08.24-.13-.03-.48-.07-.95-.13-1.41h.13v-.41h.12c.1-.26-.12-.38-.12-.38-.06-.28.14-.75.12-.75h-.12c-.03-.26-.07-.53-.13-.78h-.12c.03-.07.08-.17.12-.25h-.12v-.9h.12v-.13c-.12-.05-.27-.09-.37-.14v-.12h.11v-.39h.15c-.06-.13-.09-.25-.15-.39-.11-.03-.25-.08-.36-.12-.09-.55-.2-1.12-.26-1.67l.14-.13h-.14v-.25h-.13c-.04-.29-.09-.6-.12-.9h-.14v-.26c-.08-.04-.17-.09-.26-.11v-.41c-.09-.04-.17-.08-.26-.11v-.41h-.13v-.5h-.13v-.91h-.13v-.51h-.12v-.26h-.14v-.39h-.12v-.12c.07-.18.11.05.12-.13h-.12v-.25h-.13v.13c-.19.14-.11-.32-.12-.4h.12c0-.18-.1.06-.12-.13-.05-.45.22-.39,0-.77-.13-.09-.25-.17-.39-.25-.04-.3-.07-.6-.13-.91h.13v-.12c-.13-.1-.25-.18-.38-.26-.19-.28.04-.68-.13-1.04-.1-.04-.19-.07-.27-.12v-.4h-.13c-.04-.12-.08-.26-.12-.38h.25v-.25c-.37-.09-.43-.15-.5-.51.13-.16.06-.01.11-.26h-.38v-.13c-.29-.34-.07-.7-.25-1.17h-.13v-.25h-.13v-.51h-.13c.05-.13.09-.26.13-.39h-.13c-.15.16,0,.05-.25.13v-.25h.13v-.12h-.13v-.52h-.26c.04-.14.08-.25.11-.39h-.24v-.5h-.26v-.39c.3-.08.25-.04.39-.25h-.13c-.16.15,0,.05-.26.12-.05-.29-.01-.33-.14-.51h-.12v-.25h-.13v-.26h-.13c.04-.13.09-.25.13-.39-.09-.03-.18-.09-.26-.12-.04-.39-.09-.78-.13-1.17h-.25c-.1-.48-.37-.56-.52-.89.05-.09.09-.18.14-.25h-.14c-.09-.19-.16-.35-.26-.52l.13-.12c-.13-.09-.25-.18-.38-.27v-.77c-.13-.04-.26-.09-.39-.13-.04-.07.23-.28.13-.52-.08-.05-.18-.09-.26-.12v-.51c-.09-.05-.16-.1-.25-.13v-.39h-.12c-.05-.12-.09-.25-.14-.38h-.27c-.04-.25-.06-.52-.12-.77h-.13c-.14-.14,0-.07-.26-.13v-.39c-.34-.02-.44-.03-.66-.12v.12c-.2.13-.25.28-.36.52h-.14v-.26h-.12v.26c-.13-.05-.25-.08-.38-.13v.13h-.26v.14c-.2.14-.23.16-.5.24"/>
  <polygon class="cls-1" points="25.63 17.94 44.43 35.28 38 36.76 46.91 51.12 25.63 38.75 35.74 31.8 25.63 17.94"/>
  <path class="cls-7" d="M37.67,29.62h.13c.05.08.09.17.16.26h-.16v.12c.21-.16.44-.33.65-.5v-.14h.4v-.12h.37v-.15h.26v-.11c.15.05.26.08.38.11v-.11h.53v-.13c.3-.11.84.13.89.13v-.13h.26v-.14h.14v.14c.28,0,.25-.14.25-.14h1.29s0-.18.26-.11v.11c.08-.03.17-.09.25-.11v.11h.39v.14c.09-.04.18-.08.27-.14.04.1.09.18.13.27h.13v-.13c.18,0-.05.08.12.13h.64v.26c.12.04.26.07.39.12.18-.03-.04-.18.12-.12v.25c.77-.3.46-.18.78.26.13-.11.12-.26.12-.26.14.04.26.07.39.13v.26c.16.04.35.09.51.12.23.72.16.13.65.39.13.16.26.34.38.5h.14v.41h.13v-.25c.36.09.41.14.52.51.48.06.35.16.77.25v.39h.13v.14c.2.04.41.07.63.12.21.69.71.44.91,1.16h.25c-.04.12-.07.25-.13.37.28.16.49.33.89.39.2.61.11.14.53.39.13.17.26.35.38.52h.13v.25c.36.09.42.14.5.52h.39v.25h.13c.07.18-.05.04-.13.13.03.19.14.17.26.26v-.14h.14v.52h.13v.13c.12-.04.25-.1.39-.13.03.13.08.26.12.39h.14c.04.14.08.26.12.38.09.05.16.09.25.13v.52c.14.05.28.08.39.12.1.41.29.47.39.91h.25v.38h.13c.17.27.49.66.12,1.03v.13c.15-.04.26-.09.37-.13.2.52.37,1.03.53,1.55,0,.25-.39.23-.24.64.09.05.16.08.24.14-.04.24-.08.52-.11.76h.11v.77s.19.02.14.27h-.14v.12c0,.18.12-.05.14.13v.13h-.14c-.08.39.14.62.14.78h-.14c.05.08.1.18.14.27h-.14v.25h-.11c-.05.31-.08.61-.13.89-.09.05-.18.09-.29.13-.17.23-.29.53-.37.9-.16.05-.36.08-.51.12v.27c-.63.14-1.28.8-1.8.25h-.13v.39c-.14-.05-.28-.09-.4-.13-.09.05,0,.2-.24.13v-.13h-1.16v-.13h-.12c.02-.07.07-.16.12-.25h-.27v.25c-.42-.04-.86-.07-1.27-.12v.39c-.13-.05-.26-.09-.41-.13-.1.38-.23.76-.37,1.16h.28v.76h.1c.19.48.26.66.28,1.3.13.03.25.07.38.13.05.26.09.5.13.77.26.09.13,0,.26.13h.12c-.09.19-.11.22-.12.5h.25c.06.55.3.67.53,1.05h.25c.07.3.11.3.25.52h.13c-.05.06-.09.16-.13.26.08.03.16.07.25.11.04.14.09.27.12.4l.14.12c.11-.04.26-.09.38-.12.04.12.09.25.12.37.13.09.26.17.4.26v.38c.29-.23.3.07.37.39.34.09.22.06.39.26h.12v.26c.06.09.16.07.25.25h.28v.27c.12.19.32,0,.5.12v.14c.24.2.3.14.38.52h.28c-.07.12-.11.26-.15.38l.15-.12c.19-.04.14.21.21.24h.29c-.04.22-.09.43-.14.64h.52v.27c-.25.07-.12-.02-.25.12.11-.05.25-.08.38-.12.04.2.09.43.13.64,0,.03-.18.06-.13.25h.13v.15s-.26,0-.13.13h.39c-.05.08-.1.16-.15.25.07.09.38-.12.27.13h-.12c-.05.13-.1.26-.15.39h.27s0,.5.13.26v-.13h.13c-.09.24,0,.1-.13.24v.13c-.09-.03-.17-.07-.25-.13v.26h.52c-.1.13-.18.27-.27.4h.13v.11c0,.05-.16.05-.13.28,0,0,.17.09.13.37,0,0-.21.13-.13.39h.13v.51c.09.05.16.09.27.14v1.16h-.13c0,.17.21.21.13.52h-.13c-.05.16-.1.34-.14.5h.14v.12h-.27c-.12.11-.11.18-.25.27.08.13.16.26.25.38l.13.14h-.25c-.16.16-.12.34-.12.64,0,0-.5,0-.27.14h.12v.51h-.12v-.14c-.3.03-.31.11-.51.27v.13h-.27c-.27,1.04-.75.28-1.15.78h.13v-.13h.25v.13h-.13v.12c-.25.16-.56.02-.77,0v.39c-.14.04-.26.09-.39.14-.04.13-.08.25-.12.38-.27.04-.22.11-.25.12-.14-.04-.27-.08-.39-.12v.39c-.27-.25-.62.23-1.16.25-.04.14-.09.26-.12.4-.82.02-.57.12-1.03.38h-.26c-.04.09-.09.17-.13.27h-.64v.12h-.12v-.12h-.13c-.04.12-.1.25-.13.37h-.15v-.12h-.75v-.13h-.13v.13h-.52v-.13c-.13.04-.26.07-.38.13-.02,0-.05-.19-.25-.13v.13h-.27v.12c-.19.05-.25-.12-.25-.12-.08.05-.18.08-.26.12h-.12v-.12h-.13v.12h-.13v-.12h-.14v.12c-.22-.04-.42-.07-.64-.12-.08.26.02.12-.13.26v-.26c-.13-.05-.25-.09-.39-.13v.13c-.26.05-.51.08-.78.12v-.25h-.39v-.12h-1.4c-.21-.13-.04-.48-.13-.65h-.14v-.14c-.22.05-.43.09-.64.14v-.14h-.14v.14h-.26c-.11-.44-.32-.57-.76-.64v-.26c-.26.08-.11-.02-.26.13-.45-.38-.18-.68-1.03-.77v-.25c-.47-.12-.65-.34-1.04-.52-.05-.16-.07-.33-.13-.51h.13c-.07-.09,0-.19-.26-.13v.13h-.12v-.13c-.38-.23-.6-.74-.64-1.29h-.25v-.52h-.4v-.39c-.31-.05-.39-.14-.65-.24-.04-.14-.08-.27-.13-.38h.13c.05-.13.09-.27.16-.39-.2-.13-.36-.26-.53-.38-.14-.3.14-.64.13-.78h-.13c-.04-.26-.08-.52-.14-.77-.07-.05-.17-.09-.24-.13-.21-.47.09-.78-.26-1.16v-.52c.09.05.16.1.26.13v-.13c-.12-.04-.26-.08-.38-.12.28-.43-.38-.45-.26-1.02h.13c-.22-.53-.43-1.04-.64-1.56-.09-.38-.18-.76-.25-1.16.04-.08.07-.16.12-.27h-.12v-.37h-.12v-.65h-.14v-.13h.14c.05-.53-.33-.92,0-1.3v-.12c-.11.05-.2.09-.27.12v-.37h-.14v-.9c.08.05.19.07.27.14v-.14h-.13c-.06-.24.14-.09.27-.12v-.14h-.41c-.04-.41-.07-.85-.13-1.29h-.13v-.52h-.12v-.39h-.12c.04-.11.06-.25.12-.37h-.12c-.05-.13-.08-.25-.14-.39,0-.02.18-.05.14-.25h-.14c-.13-.51-.07-1.34,0-1.54h-.25c-.09-.78-.18-1.54-.26-2.32.26-.08.12.02.26-.12h-.26v-1.04c.26.08.12-.03.26.13h.25v-.13c-.17-.05-.34-.1-.51-.14-.02-1.05-.25-1.28-.52-1.93l.12-.12c0-.3-.12-.27-.12-.27v-.64h-.13c-.05-.23.13-.23.13-.26v-1.53h-.13c0-.1.21-.43.13-.78h-.13l.13-.12c-.05-.13-.09-.26-.13-.39h.13v-1.54h-.13c-.09-.32.16-.36.13-.52,0,0-.21-.14-.13-.39h.13v-.64h.12c.13-.2.11-.31.13-.64.27-.09.12.02.27-.13h-.27c.02-.22.14-.46.13-.52h-.13v-.51h.13v-.26h.14c.07-.19-.14-.26-.14-.26v-.13h.14v-.64c.09-.04.17-.08.26-.13-.04-.08-.09-.17-.14-.25h.14v-.26h.12c.19-.44-.05-.64.13-.89v-.14c.14.04.26.1.38.14-.08-.14-.18-.27-.24-.38h.24c.04-.21.09-.43.13-.64h.27v-.27h.27v-.26h.24v-.64c.34-.09.3-.03.38-.38.22-.05.42-.09.65-.13v-.26c.52-.13.29-.3.89-.39v-.37ZM44.23,31.04c-.13.09-.13.16-.25.25v.13c-.13-.05-.27-.09-.39-.13v-.13h-.26v-.12h-.39c-.05-.08-.07-.18-.13-.26h-.38v-.13h-.91v.13c-.65.04-1.29.09-1.91.11v-.11h-.15c-.04.09-.1.18-.12.26h-.39v.25c-.88.04-.62.34-1,.77-.16.05-.28.08-.4.13.05.09.09.18.12.26-.12.09-.25.16-.39.25v.27c-.07.03-.17.08-.24.12v.27h-.12c-.05.37-.09.77-.14,1.15h-.12c.02.08.09.18.12.25h-.12v.27h-.13c-.17.47,0,1.18-.26,1.53v1.05c-.09-.06-.17-.11-.25-.14.08.38.17.77.25,1.16h-.13c-.04.44-.08.86-.12,1.29h.12c.07.3-.15.36-.12.52h.12v.51h.13v.13h-.13v.39h.13c-.05.09-.09.16-.13.26h.13c.04.26-.25.58-.13,1.02h.13v.52s-.18.04-.13.24h.13v.27h.13v.89h.13c.03.25.08.51.13.76h.12v.65c-.1-.04-.18-.09-.26-.12.05.1.39.39.39.39.07.2-.14.24-.14.24-.06.52.33,1.27.14,1.93h-.14v.13h.14v.26h.12l-.12.14c.03.25.07.51.12.77h.11c.13.38.12,1.55,0,1.66v.14h.4c-.04.12-.09.25-.13.38h.38c-.07.15-.2.2-.25.26l.12.12c.09.56.18,1.13.28,1.68h-.16v.13s.2.11.16.38h-.16v.13h.16v.27h.12c-.06.29-.09.59-.12.91h.12v.51h.13v.51h.13v.12h-.13l.13.13c-.05.13-.1.28-.13.4.09.03.14.08.25.11v.91h.26c0,.2-.14.49-.14.52h.14v.37h.14v.52h.11c-.04.22-.1.43-.11.65h.11c.14.27.02.23.26.38-.1.14-.14.14-.26.27h.26c.22,1.12.45,1.84.64,3.07h.26c.1.52.18,1.04.27,1.55.08.05.17.09.25.14v.39h.13v.38c.12.09.25.18.39.26v.13h.25c-.02.08-.09.17-.13.25h.13v.39c.13.08.27.17.4.27v.24h.11c.05.14.09.27.13.39h.27c-.05.13-.09.25-.13.39.07-.05.16-.09.26-.14v.14c.44.16.53.4,1.02.52v.26c.25.07.12-.03.25.12h.14c.07.23-.07.2-.14.25v.39h.14v-.25c.13-.04.25-.11.38-.14.14.17.27.36.39.53h.37v.13h.26v.12c.18.12.22.09.52.13v.27h.26v.38c.13-.09.25-.18.38-.27v.14h.26c.08.13.16.25.27.39.12-.05.25-.1.37-.14.04.09.08.17.13.26h.13v.25h.13c.05-.1.32-.25.51-.13v.13h.14c-.05-.13-.09-.25-.14-.38h.27v.25c.13-.04.25-.09.39-.12v.12h1.02v-.12h.14c.13.03.26.08.39.12v-.12h.12c.04.08.08.17.13.25.28-.07-.05-.13.13-.25l.12.12c.13-.04.26-.09.4-.12v.12c.07.05.17.08.23.13v-.25h.41c.06-.26-.02-.11.12-.26.01,0-.02-.25.13-.13v.26c.29-.11.09-.11.39,0,.13-.26.18-.32.51-.39.1-.35.03-.31.39-.38v.24h.13c.13-.18.25-.34.38-.52h.65c.03-.09.07-.17.12-.24h.24v-.14h.52v-.25c.5-.13.77-.28,1.17-.51.02-.1.07-.18.12-.26.09.03.18.08.26.13v-.52c.31-.08.28-.14.51-.27v-.5h.12v-.14s-.18-.04-.12-.24h.12v-.52h.15v-.14h-.15c-.04-.34-.09-.7-.12-1.02.28.07.11-.02.28.11h.11c-.15-.21-.07-.17-.38-.24,0-.66-.48-2.32-.25-2.58v-.13c-.2.07-.21.12-.52.13,0-.6-.06-.81-.26-1.15h-.51c-.07.25.02.11-.14.25-.01.05.04.23-.12.13v-.26h-.14c.05.13.09.26.14.39-.09.04-.18.08-.27.13-.22.34.13.24-.39.38v.26h-.14c-.15.21-.34.43-.51.64-.08-.04-.16-.07-.25-.13-.12.19.05.42-.12.52-.13-.03-.25-.07-.38-.12-.05.09-.09.16-.13.25h-.25c-.15.07-.07.21-.27.26v-.13c-.26,0-.39,0-.51.13v.25h-.12v-.13h-.39v-.13h-.12v.37h-.13v-.37h-.13v-.13h-.15c-.1.23.09.4.15.5h-.65c-.04.08-.08.16-.13.26-.43-.04-.84-.1-1.29-.12h-.5v.12h-.14c-.13-.18-.26-.34-.38-.51-.27,0-.04.25-.13.25h-.13v-.12h-.65c-.05-.08-.09-.18-.13-.25-.22-.05-.42-.09-.63-.13v-.27h-.53v-.24h-.13v-.28c-.06.05-.16.09-.25.13-.08-.16-.19-.33-.26-.52-.17-.04-.35-.08-.52-.13v-.13h-.37v-.13c-.23-.17-.43-.34-.66-.51v-.39h-.13c.04-.08.09-.17.13-.25-.13-.15-.29-.09-.38-.28h.13v-.11h-.27c-.09-.4-.18-.73-.38-1.04-.09-.04-.16-.07-.27-.12v-.25h-.12c.05-.18.07-.34.12-.51-.43-.12-.33-.29-.76-.39.1-.16.08-.16.25-.27v-.37c-.08.04-.17.09-.25.12-.09-.39-.17-.77-.27-1.16h-.24c-.06-.27-.1-.51-.13-.78-.08-.04-.17-.09-.27-.13v-.38h-.13v-.52c-.34.39-.36-.36-.39-.76h-.25v-.51c-.13-.05-.25-.09-.39-.12v-.14h-.13v-.64c-.07-.04-.16-.09-.26-.12-.13-.32-.05-.57,0-.77h-.23v-.51h-.15c-.04-.14-.1-.27-.12-.39h.12v-.12c-.1.02-.16.07-.26.12-.05-.12-.08-.26-.12-.39h.38s-.01-.51-.12-.25v.12h-.13c-.05-.12-.08-.26-.12-.38-.14-.09-.25-.18-.39-.27v-.14h.14c-.04-.1-.09-.24-.14-.37h-.14v-.27h-.12v-.12h.12v-.89c-.22-.82-.02-2.19,0-3.47h-.23c.01-.21.07-.43.11-.65,0-.02-.19-.04-.11-.25h.11v-.25h.12c.07-.21-.12-.26-.12-.26v-.13h.12c.07-.27-.12-.39-.12-.39v-.11h.12v-.52c.28-.08.14.02.28-.14h-.28v-.26h.14v-.64h.14c.08-.26.16-.51.25-.77h.12v-.26h.13c-.04-.09-.08-.18-.13-.27.09-.05.16-.08.26-.13.15-.21.15-.55.15-.9h.36c.08-.21.13-.4.13-.77.13-.04.27-.07.39-.12v.25h.13c.05-.21.08-.43.13-.65.09-.04.17-.07.25-.12.08-.18.17-.35.26-.52h.39v-.13h.25c.48-.24.22-.37,1.04-.38.07-.25-.02-.11.12-.25v-.13c.21.04.44.09.64.13v-.26c.17.22.81.02,1.18-.13v-.12c.11.05.25.07.37.12.05-.07.09-.18.13-.26.12.05.26.08.39.14v-.14c.07.05.18.08.26.14v-.14h.13c.06.08.09.18.12.26l.13-.12h.13v.12h.77v.13h.26c.07.04.11.18.24.26,0,0-.01.49-.11.25v-.13h-.13c.08.27-.03.11.13.27v.24h.11v-.38c.31.12.53.23.92.26.04.12.08.25.14.39.52.07.54.27,1.02.39v.38h.14v.14h.39v.25h.25c.09.38.2.31.25.77.18-.07.21-.09.54-.13.06.29.08.33.25.52h.13c.04.13.08.25.13.38.12.04.25.07.38.13v.13h.26v.39c.12.04.25.09.38.12.15.63.5.62.66,1.16.59.15.59.67,1.03,1.04v.11h.36v.65c.1.04.2.09.28.13.04.25.07.51.13.76l-.13.14h.25c.05.22.09.42.13.64h.26c-.03.14-.09.27-.12.38h-.14v.14h.14v.38h.12v.14h.14v-.14c.08-.04.16-.07.25-.13v-.77s.17,0,.12-.25h-.12v-.39s.2-.13.12-.39h-.12c-.05-.25-.1-.51-.13-.77h-.26c-.03-.26-.09-.52-.12-.76h-.14v-.27h-.13c.05-.13.09-.27.13-.39v-.13h-.13c.05-.17.09-.34.13-.5h-.13c-.16-.39-.22-.66-.52-.9v-.13c-.07.04-.15.08-.24.13-.15-.58-.31-.2-.12-.78h-.26c-.08-.44-.14-.25,0-.64-.09.05-.18.09-.26.14-.05-.08-.1-.18-.13-.27l.13-.12h-.25v-.25c-.17-.05-.34-.11-.5-.14,0,0,0-.48.12-.25v.13h.13c-.1-.35-.23-.42-.4-.65h-.12v-.39h-.14v-.25h-.12c.04.17.09.34.12.52-.12-.05-.25-.09-.38-.13v-.39h.12v-.13c-.07.05-.16.09-.25.13v-.13c-.23-.15-.29-.37-.52-.51v-.13c-.09.04-.17.09-.26.13v-.13h-.25v-.39h-.28c-.09-.26-.16-.52-.26-.76-.12.04-.25.08-.38.13v-.13c-.12-.09-.25-.16-.39-.26v-.26c-.11-.12-.13.13-.13.13-.17.04-.09-.02-.14-.13v-.12h-.37v-.25h-.27c-.08-.36-.16-.29-.25-.64-.84-.11-.47-.45-.9-.78h-.28c-.11-.16-.24-.34-.37-.51h-.13v-.25c-.12-.1-.25-.19-.37-.27v-.25c-.18.04-.34.09-.53.12v-.12h-.26v-.12c-.35-.27-.49-.39-.9-.27-.1-.23-.19-.33-.26-.64-.42-.04-.59-.11-.77-.39M45.13,38.88h-.14c.01.22-.32.13-.5.14-.6.12-1.21.25-1.8.37v.14c-.32.24-.48.56-.78.75v.52h-.25c-.04.13-.08.26-.14.39h-.13v.26h-.13v.65c-.09.05-.18.09-.26.12v.13h.14c.01.32-.14.38-.14.38.04.09.08.17.14.25-.1.05-.17.08-.27.13-.03.25.32.17.27.53h-.14c-.06.31.15.53.14.63h-.14v1.15c.02.25.15.46.14.52h-.14c-.03.25-.08.52-.13.77h.13v.13h-.13c.05.1.1.18.13.25h-.13v.14h.13v.51h.14c-.05.1-.1.17-.14.26.08.47.17.95.26,1.41h.13v.39h.13v.38h.14v.39c.07.04.17.07.25.13v.24h.13v.27h.14c.07.4.16.78.26,1.16.07.05.16.09.25.13.04.27.07.52.12.77h.25v.27h.27c-.07.39-.16.39,0,.75h.12v.66c.08.04.17.09.25.12v.39h.14c-.04.14-.07.26-.14.4.13.12.41-.04.52.12.05.21.09.43.14.64-.03.17-.2-.04-.14.12,0,0,.23.17.27.26h.25c.05.94.6,1.43.9,2.19h.25c.07.59.26.87.52,1.29.09.04.19.09.26.13.08.23-.1.2-.13.25.06.32.11.07,0,.39h.25v.39h.14v-.14h.12c.03.18.09.35.13.52h.38c-.1.11-.15.11-.26.26.13-.05.26-.09.39-.15v.15h.26v.13h.52v.12h.25v.12c.14.04.26.09.4.13.07.26-.03.12.11.26.85.17,1.72.34,2.59.51v-.24c.13.02.25.07.38.13v-.13c.44-.14.85-.27,1.3-.39v.12h.26s-.23-.32-.13-.51c.25-.22.51-.43.77-.65.23-.39-.18-.32.38-.64v-.27c-.03-.05-.43-.21-.38-.38h.11v-.13c-.13.07-.31.14-.5,0-.05-.14-.09-.26-.13-.38h-.12c-.05-.09-.09-.16-.13-.26h-.25c-.15-.22-.27-.43-.41-.65h-.25c-.07-.57-.22-.37-.25-1.03h-.14v.26h-.26c-.06-.49-.07-.39.13-.89h-.13v-.13h-.12v.63h-.13c-.07-.2-.12-.2-.13-.51-.15.09-.15.14-.25.24-.07-.27-.09-.36-.28-.51v-.13h-.38c-.09-.29-.18-.59-.26-.9-.12-.07-.25-.16-.39-.24.05-.09.08-.18.14-.26h-.26c-.1-.43-.23-.5-.26-1.04-.14-.04-.25-.08-.39-.13-.04-.17-.1-.33-.13-.51h-.11c-.05-.51-.1-1.03-.14-1.55h-.13v-.37h-.14v-.39h-.12v-1.02c-.02-.05-.17-.04-.13-.25h.13c-.04-.09-.09-.19-.13-.27h.13v-.25c.23-.38.39-.05.52-.76h.24c.14-.45.43-.44.65-.79h.39c.18-.73.79-.86,1.41-1.15v-.14c.08.04.15.09.25.14.09-.06.09-.43.26-.39v.25c.36-.1.14-.24.77-.25-.15-.33-.25-.54-.26-1.02h-.25c-.26-.43-.52-.86-.77-1.29h-.28c-.04-.49-.15-.36-.23-.76h-.27v-.12c-.3-.28-.07-.32-.63-.39v-.4c-.32-.07-.22-.07-.39-.26h-.14v-.25h-.12v-.39c-.14.05-.25.09-.39.14v-.14c-.2-.16-.17-.06-.24-.39h-.4v-.12c-.34-.26-.67-.52-1.03-.78-.05-.13-.09-.25-.13-.39-.18-.03-.33-.08-.51-.11v-.14c-.18-.14-.22-.18-.51-.25v-.13h-.52v-.52c-.25.16,0,.17-.14.25-.25-.08-.51-.17-.77-.25v-.26Z"/>
  <path class="cls-5" d="M107.85,49.9c0,7.69-6.24,13.93-13.93,13.93s-13.93-6.24-13.93-13.93,6.24-13.95,13.93-13.95,13.93,6.25,13.93,13.95"/>
  <path class="cls-7" d="M96.62,30.82c.22.05.43.08.64.12v.14h.77v.14c.08.03.18.07.26.12v.25c.12-.03.26-.08.4-.12.09.12.18.26.25.4h.12c-.06.08-.08.16-.12.24h.12v-.12h.13v.12c.39.45-.13.78,0,1.16.07.04.17.09.26.13-.13.46-.26.95-.39,1.43h.26c-.06.37-.22.98-.12,1.55h.12v.12h-.12c.04.29.07.6.12.91h-.12c.04.13.07.24.12.36-.05.45-.09.87-.12,1.3.14.11,0-.02.12.13.47.03.94.08,1.42.13.05.07.1.17.12.26h1.29c.09.12.17.25.27.38h.75v.13h.53v.12h.51c.17.05-.05.12.12.13v-.13h.13c.11.05,0,.16.39.24v.28c.71.02.9.3,1.55.38-.06.08-.1.16-.14.25h.14c.14-.15,0-.05.26-.13v.27c.33.08.68.17,1.03.26v-.4h.25v-.25h.37c-.04-.18-.07-.35-.12-.52h.12c.07-.17.11-.34.14-.51h.24v-.52h.14c-.04-.15-.09-.26-.14-.39.16-.09.35-.18.53-.27v-.38c.09-.04.17-.09.25-.13v-.52h.12c.09.26,0,.11.13.26v-.91h.26c.05-.45.15-.4.25-.77h.27c.04-.4.08-.4.26-.64h.11c.03-.05.09-.43.12-.52.14.04.27.09.39.13v-.13h.15v.13h.39v.13h.13l.11-.13v.13c.18.04.35.09.53.13.12.3.3.37.12.66h.15v-.14c.07.04.15.09.25.14.04.12.07.25.12.38h-.12v.37h-.12c-.16.16,0,.05-.27.13-.04.22-.09.44-.12.65-.09-.05-.18-.09-.25-.14v.14c.07.09.18,0,.12.26-.08.05-.17.09-.25.12v.4c-.13.27-.3.54-.38.9h-.26v.52h-.13c.03.08.07.16.13.25,0,0-.57.2-.4.26.13.21.12-.13.27.13-.32.02-.32.03-.54.12.07.13.1.26.14.38h-.14v.13h-.12v-.13h-.11v.39s-.51,1.37-.53,1.81c.13-.05.27-.09.39-.13-.06.08-.09.15-.13.25h.5v.37h.14v-.12c.24.04.52.09.78.12.04.1.08.18.13.27.11-.04.25-.09.38-.12.07.12.17.25.25.37h.27c.42.27.17.32.89.4.12-.24.19-.34.27-.65.38-.06.57-.3.88-.38v.27c.14-.05.27-.09.39-.15-.11-.12-.16-.12-.25-.25.34-.3.06-.38.25-.77.13-.08.27-.16.39-.26.07-.22.09-.43.13-.64.08.04.17.08.25.13.19-.2.23-.29.25-.64h.28v-.27h.25c.09-.48.28-.22.14-.63.14-.17.43-.15.63-.26.04-.08.09-.16.12-.25h.39v.12c.15.08.25,0,.25-.12h.14v.25h.51c.16.29.29.29.38.65h.27v.52c.08.04.16.08.24.12-.08.22-.16.43-.24.65-.18-.05-.34-.07-.51-.13v.13h.24v.12h-.11c-.15.14,0,.06-.27.13-.04.18-.09.35-.13.53h-.38c.04.08.08.16.12.26-.12.08-.26.15-.38.25v.25h-.14c-.06.09-.1.17-.12.27h-.27c-.06.6-.32.59-.37,1.16h-.38c-.11.43-.27.49-.39.9h-.28c-.02.13-.07.27-.13.39h.13c.16.26.45.43.78.52v.25c.29.19.22.38.39.52.16.04.35.08.52.12.02.13.06.26.12.39.18.08.35.17.51.25-.04.13-.08.27-.12.4h.12c.15.14,0,.04.26.13v.26h.5c-.07.36-.22.29-.24.52h.14c.03.12.07.26.11.38h-.24c-.05.18.11.25-.14.26,0,0,0-.29-.13-.12v.24h-.12c.04.22.07.43.12.64h.26v.77h.14v.15c-.1.14-.19-.05-.14.11h.14c-.07.08-.1.17-.14.25h.14v.13h-.52c.04.12.07.25.12.39-.09.05-.18.09-.26.13v.39h-.12v-.13c-.17-.09-.1.06-.14.13h.14v.12h-.14v.13h-.37v.13h-.12v-.39h-.15c-.15.36-.15.44-.64.51-.12.44-.25.34-.39.77h-.39v.52c-.07-.04-.15-.08-.25-.11v.26h-.11c-.17.16-.2.24-.27.5-.36-.09-.38-.22-.64-.38v.52h-.14c.05.07.1.17.14.26h-.27v.13c-.48-.08-.28-.08-.75,0v.37c-.18.09-.18.21-.27.26h-.26v.13h-.12c-.26.3.12.24-.39.39v-.26h-.27c.05.13.09.26.15.4-.1-.05-.19-.1-.27-.14v.14h.12c-.04.07-.09.16-.12.24-.44.16-.62.02-.77.52-.31-.07-.29-.12-.54-.25v.13h-.12s.09.45-.12.27v-.14h-.14c.07-.07.1-.16.14-.25h-.14c-.15.15,0,.04-.23.13v.52c-.2.13-.36.25-.53.38-.05-.37,0-.36-.25-.51v.13h-.13v-.52h-.13c.05.31.09.61.13.9h-.13c-.13.16,0,.05-.25.14v.51c-.35-.05-.68-.08-1.02-.13v.26h-.27c.05.13.09.25.12.38-.14-.04-.25-.23-.5-.13-.09.13-.18.26-.27.38-.35.05-.68.1-1.02.14v.14h-.26v.11h-.38v.13h-.89c-.05.09-.09.17-.13.25h-.78v-.12c.25-.08.12.03.25-.13h-.25v.13c-.13-.04-.25-.09-.38-.13v.13h-.14v.4h-.13v-.14c-.12.03-.26.08-.38.14v.1c-.13-.02-.26-.07-.38-.1-.05.07-.1.16-.13.25h-.26c-.16.1.02.25-.38.25v-.13c-.2.02-.33.19-.65.13v-.13c-.22-.05-.23.12-.26.13h-.51v-.13h-.12v.13h-.65v.12c-.22.05-.22-.11-.26-.12-.25-.05-.76.12-.76.12v-.25c-.21-.01.04.1-.14.13h-.64s-.05.19-.26.12v-.12c-.13-.07-.27-.34-.52-.25v.13c-.13.14-.04,0-.12.25-.27-.02-.53-.14-.89,0-.04.1-.09.19-.12.27h-.13v-.13h-.89v.13h-.26v.12c-.09.02-.95-.2-1.04-.25-.13.05-.25.09-.39.13v.12s-.85-.12-1.16-.12v-.27c-.23.12-.34.2-.63.27.04-.09.09-.18.11-.27h-.11v.14h-.27v-.14c-.25-.04-.16.06-.25.14h-.13v-.14c-.17-.02-.34-.08-.53-.12v-.13h-.77v-.28h-.5v.15h-.14v-.15h-.25v-.23c-.52-.06-1.04-.09-1.54-.14-.05-.12-.1-.25-.13-.38-.13-.24-.13.25-.13.25-.52-.13-.27-.26-.65-.51l.13.14c-.04.07-.06.14-.13.24h-.26v-.13h-.12v.13c-.11.04-.17.09-.27.13v-.13h-.26c-.02-.1-.07-.17-.11-.24h-.41v-.14c-.28-.09-.59-.18-.88-.27l-.14.13c-.05-.09-.08-.16-.14-.25-.36-.18-.49,0-.88,0v-.25h-.54v-.26c-.56.2-.61-.05-1.39-.13v-.25c-.14.05-.26.08-.39.13-.05-.09-.07-.18-.14-.26-.38-.08-.75-.17-1.15-.27v-.25c-.21-.04-.43-.08-.63-.13.03-.3.05-.33.12-.52h-.12c-.09.11-.13.36-.39.25v-.12h-.26c-.09-.3-.43-.68-.65-.39v-.24c.15-.12.04.01.14-.14-.14.05-.54.16-.78,0v-.13c-.14-.15-.04,0-.11-.26h-.65c-.16-.27-.29-.28-.39-.65h-.62v-.24h-.29c-.07-.5-.07-.43,0-.89-.4.14-.31.06-.75,0v-.26c-.13.08-.25.15-.39.26-.09-.36-.04-.3-.38-.4.02-.13.09-.27.13-.39-.13.04-.27.1-.4.12-.05-.55-.26-.57-.38-1.02h-.52c-.11-.15.02-.02-.13-.13v-.37c-.45-.06-.4-.16-.77-.27v-.27h-.38v-.62h-.39v-.27c-.29-.07-.23-.04-.37-.26h-.14c-.04-.21-.07-.44-.13-.64-.73-.2-.25-.25-.51-.63-.04-.09-.28-.12-.4-.27.28-.09.12.01.26-.14h-.26c-.09-.42-.18-.27-.25-.77h.25v-.12c-.14-.11-.25-.02-.25.12h-.12v-.25c-.16-.13-.29-.33-.38-.52.07-.05.16-.08.25-.13v-.27h.13v.13h.12c-.04-.13-.08-.26-.12-.38h-.25c.03-.27.08-.52.12-.77.08.03.17.07.25.12v-.24c.23-.3,1.15-.95,1.55-1.05v-.25c.19.05.36.09.53.14.09-.14.16-.26.25-.4.17-.04.32-.08.52-.12.02-.09.08-.17.11-.26h.39c.04-.09.1-.18.13-.25h.39c.05-.09.07-.18.13-.28.37-.31.38-.08.65-.63.16.13.17.27.38.38-.03-.41-.21-.27.13-.52v-.12h.38v-.12c.13.02.26.07.37.12v-.25c.14-.06.25-.11.41-.13v-.13h.38c.04-.09.09-.18.13-.27h.38v-.12c.23-.17.3-.29.64-.38.04-.13.1-.25.13-.39h-.13c-.02-.21-.07-.42-.11-.65h-.27c-.05-.28-.01-.32-.11-.5h-.14v-.28c-.09-.02-.17-.07-.26-.11-.03-.16-.09-.35-.12-.51h-.13v-.52c-.09-.05-.19-.1-.25-.13.02-.13.06-.27.11-.38h-.11v.12c-.12.26-.13-.25-.13-.25.15-.11.02.01.13-.14-.09.05-.18.09-.29.14v-.26h-.12c-.21-.31.15-.23-.38-.39-.05-.27-.09-.5-.13-.78-.36-.1-.3-.04-.38-.38h-.13v-.39c.18.04.34.08.52.13v-.13h.5v.13h.4v.13c.21-.05.41-.09.62-.13.04.08.09.16.14.25.26.04.53.08.77.12.02.37.03.55.14.76h-.14v.14h.4c.03.18.09.34.12.52.05.1.27.06.26.26h-.13c-.04.13-.1.25-.13.38h.13c.12-.14.09-.15.25-.25v.12c.68.42.06.58.52.77-.02.46.01.74.13,1.04.14-.05.26-.09.39-.13.04.31.14.4.26.63.3-.07.31-.12.51-.25v-.13c.3-.14.62.11.77.13v-.13h.25v-.12c.33-.29.08-.3.64-.39.15.16,0,.07.27.11v-.36h.52v.12c-.26.06-.12-.02-.26.13h.26c.15-.35.15-.45.64-.51.16.16.5.29.89.13.04-.11.1-.18.13-.27h.79c.04-.09.07-.16.12-.27h.25v-.24h.52v-.13h.12v.13c.37-.05.7-.09,1.04-.13.13.04.26.08.39.13v-.13c.43-.12.78-.02,1.03-.25.13-.16.05,0,.13-.27h-.13c.05-.09.09-.17.13-.27-.09-.03-.19-.07-.27-.12-.04-.22-.07-.44-.11-.63-.1-.06-.2-.11-.26-.13.05-.12.07-.18.13-.28h-.13c-.2-.6-.02-1.2,0-1.94h-.27c.1-.28.14-.21,0-.5h-.12c.03-.13.1-.25.12-.37h-.12v-.27h-.13v-.26h-.13v-.39h-.13c-.09-.18-.07-.34-.13-.51.4-.27.04-.24.26-.51h.13c.32.45.23.05.65.25v.15c.19.09.3.11.64.11v-.26c.25.12.37.18.52.39h.14c-.05.09-.11.18-.14.25h.14v.13h.38c.15.09-.04.07.12.12-.05.25-.15.2,0,.52h.12v.27c.1.03.18.07.26.12v.62h.26c-.05.16-.24.48-.11.8.06.03.15.08.23.11-.04.3-.09.6-.12.91h.12c.16.15,0,.05.28.12.05.35.11.67.11,1.16h.27c-.17.23-.09-.08-.27.12,0,.14.13.24.13.53h.65v-.13h.13v.13h.13s-.04-.44.13-.27v.27c.33.07.29.12.51.25-.02-.2-.11-.25-.11-.25-.19-.06.11-.13.11-.13h.39c.16-.13.68-.02,1.16,0,1.04.04,2.08.09,3.1.13.11-.16-.02-.03.12-.13-.1-.33,0-.6,0-1.15h.25v-.13c-.17-.12-.16-.12-.25-.28.13-.03.25-.08.39-.12v-.12h-.14v-.5h-.12c-.06-.22.12-.24.12-.27v-.14h-.12v-.51c-.25-.07-.13.02-.25-.13.29-.32.08-.7.25-1.16h.12v-.39h.14c-.06-.21-.09-.44-.14-.66h.14v-.12h-.14v-1.14h-.12v-.14h.12v-.9ZM87.36,41.5h-.25v-.27c-.1.04-.26.27-.26.27-.14-.04-.27-.09-.39-.14-.05.1-.09.18-.13.26h-.64c-.15-.13,0-.05-.27-.12v.38c-.28.03-.31.03-.52.14v.13c-.12-.05-.25-.09-.36-.13-.04.08-.09.18-.13.25-.45.18-.81-.22-1.02-.25h-.15v.13c-.16-.05-.33-.09-.5-.13-.03.29-.07.32-.14.5-.16,0,.06-.09-.11-.13-.12-.23-.12.27-.12.27-.32.03-.34.04-.52.12v.13h-.13v-.13c-.25.05-.51.09-.77.13v.27c-.11-.05-.18-.1-.27-.13v.13c-.45.15-.84.22-1.14.5-.1.13-.18.25-.27.4-.25.03-.51.08-.76.12,0,0-.01-.27-.14-.12v.25c-.42,0-.73,0-1.02.12v.14h-.39c-.04.09-.1.17-.13.26h-.12v-.12c-.49,0-.12.16-.64,0-.2.77-.93.93-1.29,1.54h-.29v-.13s-.29.12-.5.13c-.2.78-.29.22-.76.51-.41.24.15.48-.79.52v-.25c-.14.11-.02-.02-.12.12-.17.11-.13.31-.25.38h-.27c-.03.09-.09.18-.13.27-.09-.05-.16-.09-.26-.13-.14.18-.24.34-.39.52h-.12v.38h-.12c-.12.15-.09.17-.26.27v-.13h-.12v.52c.33.09.46.13.5.52h-.12v.12c.2.17.41.33.63.52.12.17-.06.38.13.5h.26c.04.17.09.34.14.52.34.1.28.05.38.39h.25c-.07.2-.09.21-.12.51h.12c.09-.3.05-.23.26-.38v.38h.27v.12c.13-.05.25-.08.38-.12.06.37.14.41.51.51v.39c.63.16.55.36.78.89h.11v.52h.14v-.27h.25c.25.14.26.88.64.51v.27c.23.04.42.09.64.14v.26c.32.04.47.1.92.11.04.13.07.26.12.38l-.12.14h.12v-.14h.13v.14c.13-.05.27-.09.39-.14v.26c.34.14.59.18.77.52v.38h.13c.17-.24.12-.21.52-.26v.14h.37c.1.12.18.25.25.38h.4v.13h.26v.13h.25c.13.12-.12.14-.12.14v.11h.12v-.11c.24-.13.54.07.64.11v.12c.21-.05.43-.08.65-.12v.25c.29.1.59.18.89.26v.12h.15v-.12c.38.05.76.09,1.15.12v.27h.88v.13h.27v.13h.13v-.13h.12v.13h.13v-.13h.13v.13c.09-.04.18-.08.26-.13.1.13.17.25.25.38.14-.03.27-.08.4-.13v.13h.5c.04.08.09.18.13.27.25-.05.52-.08.76-.13.09.3.05.25.27.38v-.12h-.12v-.13h.12v-.13c.3.07.31.1.53.26v.12h.37c.05.09.09.19.14.26.42-.04.85-.07,1.27-.13.09.13.18.26.26.38l.13-.13c.25.05.5.07.75.13v-.25h.27v.25c.18-.05.34-.08.53-.13v.13h.11v-.25c.27-.04.52-.07.77-.13v.26c.14-.06.22-.24.27-.26.06-.03.42-.09.52-.13-.16-.13,0-.04-.26-.12-.17-.14-.52-.07-.9,0v-.26c-.5.08-.72.08-1.15.13v-.4h-.4v.27h-.25v-.27h-.25c-.05.1-.08.19-.13.27-.21.08-.25-.14-.26-.14-.13.05-.25.08-.38.14v-.39h-.14v.12c-.33.11-.49-.41-.64-.5-.21-.04-.43-.09-.63-.14v-.39c-.09.05-.2.1-.27.14v-.14c-.17-.14-.05,0-.14-.25-.39-.1-.48-.28-.9-.38-.09-.35-.03-.28-.39-.39v-.26c-.32-.18-.2-.35-.39-.5h-.25c-.06-.09-.07-.19-.13-.26h-.27c-.21-.16-.46-.93-.51-1.3h-.25v-.24c-.13-.1-.27-.17-.4-.27,0,0,.14-.38.14-.51-.14-.05-.26-.08-.37-.13.01-.22.09-.63.11-.64h-.25c-.02-.65-.09-1.28-.14-1.92h.14c.05-.2.09-.35.15-.52-.09.04-.17.09-.28.13v-.52c.22-.11.29-.2.39-.38h-.25v.26c-.14-.15-.04,0-.14-.26h-.12c.04-.27.09-.52.12-.77h.14c.07-.29-.27-.5-.14-.91h.14v-.26h.15v-.39h.11c-.02-.13-.07-.25-.11-.38.09-.04.14-.09.23-.12v-.52h-.13c.04-.08.09-.17.13-.25.09.03.19.09.27.13v-.13h-.14v-.52h.27c-.06-.32-.13-.52.25-.78v-.13h.13v.13h.13v-.39h-.13v-.39h.26v-.38h.25c.1-.43.28-.48.4-.9.17-.05.34-.08.5-.13v.4h.13c.03-.19-.11-.4.12-.4,0,0,.06.3.13.13v-.26h.27c0-.27.13-.43.13-.51h-.13v-.27c.42-.1.43-.23,1.04-.26v-.26c-.57.05-1.14.1-1.69.14-.09-.28-.12-.12,0-.39h-.12c-.04.12-.09.25-.13.39M99.58,41.62c.11.43.32.55.79.65.04.21.07.43.12.64.37.08.44.15.64.39h.12c.12.18-.06.4.12.5.24.13.36-.1.38-.13.09.04.19.09.27.13v.12s-.45-.06-.27.15h.15c.05.32.12.51.38.64h.26c-.03.12-.09.25-.12.39.17,0-.05-.12.12-.14.11-.24.13.26.13.26h.38c-.04.17-.07.34-.13.52.09.05.19.08.25.11v.54h.39v.25h.27c0,.7.12.83.25,1.28v1.16h.13c-.05.26-.08.51-.13.77h-.13c.04.12.07.26.13.38h.13c-.05.14-.08.26-.13.38h-.13c-.05.21.13.24.13.26.05.19-.13.27-.13.27.04.12.07.25.13.37-.09-.04-.17-.07-.25-.12v.52h-.13v.51h-.14v.26h-.13v.65c-.17.59-.22.76-.12,1.41h-.26c-.07.12-.17.25-.26.39h-.12v.4h-.13v.11h.13v.13c-.13.08-.25.16-.39.25v.4h-.13c-.14.13,0,.04-.25.13v.26c-.4,0-.25-.26-.39.12-.16.05-.36.09-.52.14v.12c.15.15.04,0,.14.26-.27.1-.51.17-.77.26.04.09.07.17.12.25h-.12c-.15.16,0,.06-.27.12v.27h-.24v.39h-.13v-.14c-.13-.05-.57.21-.65.27-.14-.18.11-.12-.12-.27.01.41.24.25-.12.39v-.13c-.14-.08-.75.09-.91.13v.25h-.37v-.12c-.16.02-.27.24-.53.12,0,0-.16-.2-.24-.25-.05.38-.03.35-.26.52v.13c-.2,0,.06-.09-.13-.13-.44-.07-.71.07-1.03.13v.25h.77v.13h.14c.04-.08.07-.17.12-.25.13.04.25.08.39.12v-.12h.77v.12c.58.2,1.18.02,1.66-.12h1.04v-.13h.25v-.13c.57-.24.99.15,1.14-.27.4-.03.8-.07,1.16-.12v-.26c.19.05.34.09.52.13v-.13c.5-.12.95-.12,1.29,0v-.12h-.14v-.14h.66v-.25c.36,0,.43.08.62.13v-.13c.23-.14.23-.18.52-.27v.27h.14v-.39h.51c.04-.08.08-.16.14-.25h.25c.05-.09.1-.16.12-.26h.28v-.13c.16.04.33.1.5.13.1-.37.14-.43.51-.52v.39h.14v-.51c.36-.09.29-.04.39-.38.45-.03,1.57-.55,1.66-.52v.12h.27c.23-.86.39,0,.52-.76.2-.05.42-.09.64-.14v-.39h.13c.25-.3.93-.69,1.41-.77v.24h.13v-.24h-.13c-.12-.34.32-.39.38-.52v-.25c.58-.16.47-.5,1.04-.65v-.25c.3-.02.39-.11.51-.11v.11h.13c.03-.09.08-.16.14-.27.15.05.34.11.5.15-.14-.43-.08-.21,0-.66.14-.04.25-.07.39-.12v-.39h-.25c-.24-.13.25-.13.25-.13v-.38c.17-.05.33-.1.52-.12v-.14c-.52-.11-.91-.54-1.04-1.03h-.25v-.52c-.5.15-.36.02-.77-.26v-.13h-.52v-.27h-.25v-.52c-.53-.01-.61-.15-1.03-.25v-.25c-.3-.03-.34-.02-.5-.12v-.14c-.27-.04-.52-.09-.78-.13-.09-.13-.17-.25-.25-.38-.17-.08-.52.1-.52.13v-.27c-.15-.05-.27-.09-.39-.14v-.13h-.38v-.11h-.14v.11h-.13c-.1-.02.02-.06-.27-.11.04-.17.09-.34.13-.52-.14-.1,0,.02-.13-.12h-.12c0,.4.25.24-.13.38v-.14h-.52c-.08-.12-.16-.24-.25-.38h-.39c-.04-.09-.09-.18-.14-.25-.13-.05-.24-.09-.39-.14v-.14c-.3-.08-.59-.16-.9-.25-.02-.09-.07-.17-.12-.27h-.39c-.05-.07-.08-.16-.12-.25h-.27v-.12c-.22-.05-.41-.1-.64-.12v-.26c-.41-.1-.84-.18-1.28-.27-.03-.08-.08-.16-.14-.26-.38-.05-.76-.09-1.15-.14-.03-.08-.07-.16-.14-.25-.38-.05-.75-.07-1.15-.13v-.13h-.27v-.14c-.19-.04-.4-.09-.62-.12v-.14h-1.55ZM91.73,42.52v-.25c-.16.1-.03,0-.14.12h-.11c.04.1.09.17.11.27h-.11c-.13.14-.24.24-.52.26l-.13-.13v.13c-.48.16-.95.34-1.42.52v.24c-.17,0-.39.11-.38-.12,0,0,.3-.05.12-.12h-.26c.05.22.1.42.14.64h-.14v.12c-.08-.04-.17-.09-.25-.12v.37c-.09-.03-.17-.08-.25-.12v.4h-.13c-.11.16-.11.21-.14.51h-.26v.12h-.12v.4c-.09.05-.17.08-.25.11v.4c-.09.03-.19.09-.27.13v.38c-.07-.04-.16-.09-.25-.13-.02.15.23.21.13.5h-.13c-.06.19-.07.35-.13.52h-.14c.05.09.1.18.14.26h-.14v.77h-.12c-.02.29-.09.61-.12.9h-.26v.27h.38c-.02.26-.09.52-.12.77,0,.03.17.04.12.26h-.12v.64h.12c.05.21.1.43.12.66-.07.02-.15.07-.25.11.02.27.24.18.25.25.05.18-.07-.04-.12.13v.52h.27c.05.25.07.51.13.77.09.04.17.08.25.12-.04.18-.07.35-.11.52.11.07.25.16.38.24v.27h.12c.04.09.09.17.13.25h.25c.05.23.09.43.13.64.09-.04.17-.09.27-.12v.12c.08.05.25.26.25.26.12-.05.25-.08.38-.12v.12q.25.2.27.64h.37v.26h-.26v.13c.12-.03.26-.09.4-.13v.39h.63v.27h1.54v.37h.13v-.25c.37,0,.55.05.78.12-.05.09-.09.18-.13.27h.13v-.14h.13c-.05-.13-.08-.25-.13-.37.77-.05,1.54-.1,2.32-.14.04-.09.08-.16.11-.26h.91v-.13h.25v-.13h.77v-.12h.14v.12h.13c.03-.08.07-.17.11-.26h.52c.04-.08.09-.17.13-.26.09.05.16.09.26.14v-.38h.14c.02-.09.09-.19.13-.26h.25c.21-.27.43-.52.65-.79h.13v-.25c.15-.05.33-.07.52-.13v-.25h.26c-.01-.18-.1.04-.14-.12.09-.14.17-.27.26-.4h.25c-.04-.12-.09-.24-.13-.37h.27c.04-.29.12-.25.12-.26-.05-.13-.11-.25-.12-.39h.24c.33-.32.16-.61.14-1.02h.25v-.66s.15.04.15-.25c-.11-.12-.18.05-.15-.12h.15v-.27h.12v-.5h.13c.09-.33-.14-.71-.13-.79h.13v-.38h.13c-.04-.12-.08-.25-.13-.38-.02-.31.1-.33.13-.52-.04-.52-.08-1.03-.13-1.55.09.05.17.09.27.14-.15-.23-.09-.18-.4-.27-.03-.21-.08-.43-.12-.66-.15-.02-.28-.07-.39-.13l.12-.11v-.14h-.12c.06-.12.1-.26.12-.38h-.25v.12h-.38v-.24c-.34-.31-.68-.61-1.02-.91v-.27c-.09.05-.18.1-.26.15v-.27c-.22-.13-.45-.25-.65-.37-.08-.19-.16-.36-.25-.52h-.4c-.03-.08-.06-.16-.12-.26-.13.04-.26.09-.39.12v-.12h-.37v-.14h-.65s.04-.14-.26-.13v.13h-.12v-.13c-.39.05-.77.1-1.16.13v-.13h-.25v-.12h-.79v-.13h-.23c-.16-.09,0-.3-.4-.27v.14c-.22-.05-.43-.09-.63-.14-.08.14-.18.27-.26.39h-.53v.12c-.16.05-.34.1-.5.13"/>
  <path class="cls-4" d="M164.24,123.07c0,5.82-15.48,10.54-34.57,10.54s-34.55-4.72-34.55-10.54,15.48-10.53,34.55-10.53,34.57,4.72,34.57,10.53"/>
  <path class="cls-7" d="M125.36,110.15v.25c.52.09.48.05,1.02,0v.26h.27v.25c.21.05.42.09.64.13.18.12,0,.36.13.52.08.12,1.53.72,1.79.65v-.13h.26v-.12h.64v-.14h.26v-.11c.12-.05.25-.1.38-.15v-.25c.32.02.32.05.52.14.03-.18.14-.57.25-.65h.39v-.12c.09-.05.17-.09.26-.12v-.27h.13v.12h.52v.14h.11v-.14h-.11c-.04-.16.03.04.11-.12.29-.32.5-.2.77-.12.15-.04.27-.09.41-.14v.14h.11c.09.15,0,.25-.11.25v.14h.26v-.52c.5.09.46.05,1.04,0v.38h.11c.06-.25.11-.52.52-.38.05.09.09.16.12.26.13-.09.26-.16.39-.26v.14c.18.08.22.08.5.12.06-.12.09-.26.14-.4.26.05.53.1.77.14,0,0,0-.14.27-.14v.14h.13v-.14c.11-.02.26-.07.37-.13v.13h.53v.14h1.16s0,.09.24.14v.25c.18-.07.34-.16.52-.25v.12h.27v.27c.42.03.85.07,1.29.12.13.17.25.35.39.51.21-.04.43-.09.63-.13v.13h.26c.1.13.16.27.28.38.21.05.41.1.62.15.05.07.09.16.13.25h.52v.12h.12c.05.13.11.26.14.39.18-.05.34-.08.52-.14v.14h.25c.05.07.09.16.13.25h.38v.12h-.12v.52h.12c.16-.14,0-.05.27-.12v-.13c-.16-.14-.05,0-.13-.26h.25v.26h.26v.25c.13-.08.26-.16.38-.25.05.13.09.25.14.39.3.05.59.09.89.14.11.03,0,.16.39.25v.26c.18.04.33.09.52.12l.13-.12c.05.09.1.17.12.27.29.25.49.35,1.02.37v.52c.56.2,1.01.16,1.17.78.37.09.29.05.39.38h.39c.05.18.08.34.13.53.17.03.34.08.49.13.05.08.11.17.13.25.31.04.6.08.91.13.05.08.1.18.14.25.11.04.25.09.38.13v.12c.23.18.42.28.65.13v.26c.07.08.74.35.9.37v.54h.13v.12c.13-.04.24-.09.37-.12v.37h-.13c-.09.23.23.03.28.26-.09.04-.19.09-.28.14-.07.37.2.27.28.37v.26h-.28v.38h.13v.15h.4c.03.11.08.25.11.38.18-.05.35-.1.52-.13v.64h.27v.25h.22v.39h.27v.63c.14.05.27.09.39.13-.07.16-.05.31-.12.52h-.13c.04.13.09.25.13.37h-.27c-.09.39-.22.32-.27.41v.63h-.11c-.05.27-.07.53-.11.79-.2.03-.37.08-.53.12-.08.63-.26.38-.38.89-.39.1-.44.16-.53.52h-.37c-.11.37-.05.29-.41.39v.52c-.52.05-.61.21-1.02.37v.14c-.21.07-.26-.14-.26-.14-.14.05-.25.1-.39.14v.38c-.37.08-.41.14-.5.51h-.41v.65h-.13v.14c-.18.04-.41.07-.62.12-.03.32-.05.32-.13.51-.28-.09-.1.02-.26-.12h-.13c.04-.07.09-.18.13-.27h-.13c-.12.15,0,.02-.13.13.04.09.09.16.13.25h-.26c-.04.08.26.4.13.66h-.13c-.15.18-.23.19-.51.26v.26c-.38.13-.79.25-1.17.38-.13.29-.28.42-.37.77h-.39v.38c-.41.05-.38.11-.65.27v.12c-.12-.08-.26-.18-.38-.27v.14h-.13c.11.13-.03.02.13.12.14.14,0,.05.26.13v.25c-.26-.04-.51-.07-.77-.14-.07.32-.04.24-.26.39v.13h-.77v.13c-.17.05-.35.1-.51.13-.04.11-.09.18-.13.27h-.26c-.04.08-.09.17-.12.25-.08-.06-.16-.08-.26-.14-.15.14-.11.63-.52.51v-.12h-.23v.26h-.28v-.26h-.25c-.04.12-.07.26-.11.38-.68.01-.98.27-1.54.38-.05.13-.1.26-.14.4-.14-.16-.05,0-.14-.27h-.38c-.05.12-.07.27-.13.37-.18-.03-.34-.07-.51-.11-.06.07-.1.16-.13.25h-.25v-.25h-.27v-.27h-.25c-.05.27-.07.51-.13.77-.22.13-.19.18-.5.26v.13h-.13v-.13h-.14v.13c-.26-.04-.52-.09-.78-.13-.07.3-.04.24-.25.38v.13c-.12.25-.14-.26-.14-.26-.26.05-.52.09-.76.13-.04-.01-.12-.36-.27-.25-.04.12-.08.25-.12.38-.21.11-.49-.16-.51-.13v.27c-.3.04-.34.03-.5.12v.13c-.13-.04-.27-.08-.41-.13v.13h-.9c-.18-.04.05-.15-.11-.13-.07.09-.11.17-.14.26-.23-.02-.29-.5-.39-.39v.12c-.13.16-.04,0-.13.26-.51-.08-.36-.19-.76.12-.23-.31.14-.26-.4-.38v.13c.16.16.06,0,.13.26h-.25v.14h-.12v-.14h-.15v.14h-.36c-.06.09-.11.17-.14.25-.2.08-.25-.14-.26-.14-.12.06-.25.11-.39.14v-.14c-.12-.03-.25-.06-.37-.11v.11h-.25v.14h-2.07v-.14h-.26v-.11c-.25-.06-.4.51-.78.39-.07-.13-.15-.27-.23-.39-.14.05-.27.09-.41.11v-.25h-.12c-.09.08-.1.22-.39.14v-.14h-.38c-.07-.12-.17-.26-.26-.38-.15-.06.02.1-.13.13-.22.05-.19-.11-.24-.13h-.78v-.12c-.2-.05-.24.12-.25.12-.26.04-.26-.12-.26-.12h-.13v.12h-.11c-.37-.15-.84,0-1.31-.12v-.13c-.15.05-.34.09-.51.13-.09-.17-.17-.34-.26-.52-.09-.04-.39.25-.65.12v-.12c-.17-.13-.34-.26-.5-.38v.13h-.13v-.13c-.12.03-.25.09-.39.13v-.52h-.14c-.36.42-.78.02-1.41-.11-.07-.27-.18-.27,0-.53h-.15v.13h-.62l-.13.13c-.1-.13-.16-.26-.27-.38h-.37v-.13c-.18-.05-.34-.08-.52-.12v-.14c-.26-.04-.52-.08-.78-.12v-.13c-.15-.14-.06,0-.13-.26-.34-.04-.68-.09-1.02-.12v-.14h-.14v-.39h-.12v.25h-.38c.03-.13.07-.25.13-.38-.82,0-.58-.12-1.04-.39h-.25c-.06-.08-.1-.15-.13-.25-.18-.08-.03.1-.13.13,0,0-.63-.43-1.16-.52v-.25c-.37-.2-.56-.53-1.03-.64v-.26c-.18-.05-.98-.44-1.04-.52v-.26h-.25v-.13h-.64c.04-.11.07-.19.13-.26h-.38c-.06-.13-.08-.26-.14-.4-.12-.15-.49-.15-.65-.25-.03-.08-.09-.17-.12-.26-.21-.21-.42-.3-.77-.39v-.26h-.26v-.26c-.43-.1-.71-.44-.91-.77.26-.06.11.02.26-.12h-.62c-.05-.26-.11-.51-.15-.78-.38-.07-.41-.14-.51-.51-.71-.22-.13-.18-.39-.66-.08-.04-.17-.07-.24-.12-.38-.41-.84-.7-.9-1.41-.33-.09-.22-.08-.38-.27h-.14v-.26c-.09-.04-.19-.07-.26-.11-.16-.18-.22-.38-.39-.53v-.38c-.25-.07-.11.02-.25-.13h-.12v-.38c-.06-.11-.35-.16-.39-.39.04-.14.09-.25.13-.38-.09-.05-.17-.09-.26-.12-.23-.29-.26-.5-.26-1.04h.13v-.39h.13c.07.27-.02.14.13.27v-.27h-.13c-.2-.35.31-.35,0-.5v-.13h.13v-.14h.25v-.13c.34-.28.57-.47.76-.88h.4v.25h.14v-.39h.12v.14c.32.1.28-.23.39-.26h.24c.04-.14.09-.27.14-.39h.39v-.38h.14v-.14h.37c.07-.26.16-.51.26-.77h.27c-.05-.13-.1-.26-.14-.37.36-.11.29-.06.4-.41.54-.03.79-.17.89-.64.26-.04.52-.07.77-.12.04-.22.09-.43.14-.65.08.05.16.09.25.13.05-.09.1-.18.13-.27h.13v.13c.18-.05.34-.08.52-.13.05-.3.15-.39.26-.64.5-.05.53-.2,1.03-.25v-.38h.12c.14-.17,0-.06.27-.14.08-.37.05-.3.38-.39v-.13h.52v-.25c.32-.04.7-.09,1.03-.12v-.14c.29-.25.03-.23.51-.38v.25h.12c-.03-.18-.08-.34-.12-.52h.65c.05.08.09.18.13.26h.13v-.26h-.26v-.25c.64-.02.91.09,1.29.25-.15-.23-.1-.16-.39-.25.04-.14.09-.25.12-.4h.91c.04-.08.09-.16.14-.25h.23v-.13h.54v-.13h.24v-.13c.35-.05.69-.08,1.03-.13.45-.21.3-.61.9-.39v-.25h.13v.12c.48.09.25-.24.4-.4.08.05.15.1.25.14v-.27c.1-.12.1.13.1.13.24.14.14-.17.15-.24.19.03.35.07.52.12v.13c.13-.02.26-.07.37-.13v-.12h.52v.12c.26.08.18-.07.28-.12h.13v.12c.25-.05.5-.09.76-.12v-.12c.18.08.35.15.53.24v.13h.12v-.13h.38v-.12c.23-.04.23.11.28.12h.77v-.12c.2.03.43.07.65.12-.05.1-.1.17-.14.27h.52v.14h.38ZM117.9,113.1c-.21-.04-.43-.09-.64-.12v.12c-.14.14-.04,0-.12.25-.43.05-.86.09-1.29.13v.26h-.28v-.12c-.15.08-.33.18-.5.25v.14h-.38c-.1.11-.16.23-.26.38h-.78c-.03.08-.07.16-.11.25-.33.2-.52.24-1.04.26.05-.08.1-.17.13-.26h-.13c-.11.18-.25.34-.38.51-.13-.03-.25-.08-.4-.11v.11c-.16.16-.19.24-.24.52-.7.07-.42.28-.79.5-.38.14-.78.26-1.15.4-.04.12-.09.25-.14.39-.12.03-.25.08-.37.13v.14c-.08-.06-.18-.11-.26-.14v.14c-.32.23-.46.52-.91.63v.37h-.13v-.12c-.12.04-.25.09-.39.12v.39h-.25v.53c-.36.08-.29.03-.39.39h.39v.51h-.39v.13h-.13v.5c.35.05.7.09,1.04.13v-.13h.24v-.14h.13v.14c.22-.04.43-.07.65-.14-.06.1-.09.19-.14.27h.14c.26-.25.99-.28,1.41-.13v.13h.39v.12c.4.08.28-.37.76-.26v.13h.79v.12c.25.07.39-.12.39-.12.24.04.51.08.76.12v-.26h.13v.13h.77v.12h.65v.12c.38-.03.75-.08,1.16-.12v.12c.13.05.26.09.38.15v.25c.42-.52.42.07.91,0v-.14c.36-.07,1.03.17,1.14.14,0,0,.16-.23.39-.14.1.14.17.27.26.39h.51c.06.1.1.19.14.26.47-.05.94-.07,1.42-.13v.26c.07-.05.16-.09.25-.14v-.13c.44-.15.38.3.89.26.19-.02-.04-.09.14-.14h.63v.14c.21.04.26-.14.28-.14.28-.05.61.14.89.27v-.13h-.12c-.05-.18.05.04.12-.14v-.13c.43.09.55.23,1.15.26v.25c.43-.07.59-.16.78,0h.13v.39h.14v-.52h.23v.12c.05,0,.31-.11.53-.12v.26c.15-.16.03,0,.12-.26.32.02.37.11.52.12.12-.05.05-.25.27-.25v.13h.25v.12h.39v.13h.13v-.13h.12v.13h.52c.05.09.09.16.13.26.34.09.29-.22.39-.26h.38v-.13c.21.1.43.17.65.26v-.13c.26-.06.39.13.39.13.25-.04.5-.09.76-.13v.13h.27v.13c.17-.05.33-.1.52-.13v.13h.36c.18.04-.05.12.15.12v-.12c.3-.09.32.09.52.12.04-.09.09-.18.12-.26h.76c.05-.09.09-.16.13-.26.14.1.27.17.39.26v-.13c.2-.11.3-.11.64-.13-.04.13-.07.26-.12.39h.38v-.13c.13.04.26.08.39.13v-.13h.37v.26c.36.02.29.17.65,0,.04-.09.09-.18.14-.26h.13v.13h.78v-.26c.67-.04,1.37-.1,2.04-.13.09.3.05.24.26.39v.12h.13v-.12h.12v-.39c.41-.04.79-.09,1.16-.12v-.13c.21-.04.24.13.26.13.26.04.38-.13.38-.13.14-.03.8.13,1.18.13v.26h.13v-.13c.12-.14.04,0,.1-.25h.4v.13c.05,0,.28-.12.51-.13v-.26c.2.07.21.09.51.13v.27c.09-.06.18-.09.25-.13v.13h.52s.05-.2.39-.13c0,0,.02.14.26.13v-.13h.51l.13.13c.04-.09.09-.18.14-.27.17-.04-.05.09.12.14h.78v.13h.13v-.13h.38v-.14h.9v.14h.14c.1-.07,0-.36.37-.26.05.08.1.17.13.26.14.04.24-.2.53-.14.26.07.64.22,1.02.27.05-.13.08-.27.13-.39.21.05.43.08.65.13v-.13c.14-.15.05,0,.13-.26h.25v.26c.14-.15.06,0,.13-.26.16.04.34.09.51.12v-.12h.4c.17-.05-.06-.13.12-.13.12.09-.05.16.12.13v-.13c.23-.08.61.14.65.13v-.13c.14-.15.06,0,.12-.25-.27-.19-.25-.31-.25-.79-.45-.08-.67-.2-.77-.64-.17-.05-.36-.08-.53-.14v-.11c-.07.03-.16.08-.27.11v-.25c-.18-.04-.41-.09-.62-.12v-.27c-.27-.13-.54-.36-.78-.5h-.25c-.13-.23-.26-.44-.39-.65h-.38c-.15-.18-.28-.35-.4-.52h-.26c-.11-.17-.23-.35-.37-.52-.22-.04-.44-.07-.66-.12-.11-.16-.25-.34-.38-.52h-.26c-.05-.07-.08-.16-.12-.25-.18-.03-.34-.09-.51-.12v-.14c-.19-.04-.34-.07-.52-.13v-.13h-.39v-.13c-.23-.04-.43-.08-.64-.13-.04-.08-.09-.16-.13-.25-.26-.04-.51-.08-.78-.14v-.25c-.4-.04-.4-.07-.62-.26v-.12h-.41c-.04-.09-.08-.17-.13-.26-.21-.11-.45.17-.52.14v-.27c-.09-.04-.18-.09-.23-.12v-.14h-.52v-.13h-.26v-.12c-.26-.04-.52-.09-.78-.13v-.12c-.07.04-.17.09-.26.12-.05-.09-.08-.16-.13-.26-.25-.04-.5-.07-.77-.12v-.12h-.27v-.13c-.28-.1-.88.13-.89.13v-.13h-.52v-.14c-.59.05-1.19.09-1.81.14v.13c-.41.12-.77-.21-1.03-.27-.37-.06-.27.22-.37.27-.31-.05-.59-.09-.9-.13v-.14c-.09.05-.17.09-.25.14-.17-.14.09-.09-.14-.26v.39c-.21-.05-.44-.09-.63-.13v.25h-.41v.26h-.77c-.05.12-.09.26-.12.38h-.4c-.04.13-.07.27-.11.39-.14.09-.28.17-.41.27v.11c-.25-.09-.51-.17-.76-.26v.14c-.39.25-.06.15-.25.49-.11-.04-.18-.07-.27-.11v.25c-.36-.04-.81-.08-.52-.39h-.25v.26c-.14-.04-.26-.07-.39-.11v.11h-.13v-.11h-.15s-.09.18-.37.11v-.11c-.17.04-.34.08-.52.11v-.11c-.25-.09-.52-.17-.75-.27v-.11h-.41c-.07-.18-.15-.36-.25-.53-.38-.25-.36.24-.52-.39-.76-.16-.75-.66-1.68-.77v-.26c-.72,0-.99-.14-1.41-.37v.11c.16.15.04,0,.14.26h-.66v-.12h-.11v.12h-.14v-.12h-.14v.12c-.12-.03-.24-.09-.38-.12v-.4h-.12c-.04.32-.05.34-.13.52-.66-.26-1.59-.1-2.2.13v.13h-.26v.14h-.12v-.14c-.27.05-.54.09-.78.14-.09.13-.16.25-.26.38-.5.3-.6-.19-.77.26M103.88,123.65h.27c.03.12.07.25.12.38.09.05.15.08.27.13.17.27.3.54.37.91.34.07.29.16.64.25.04.22.1.42.15.64.33.09.62.36.37.64.18.04.36.07.52.12v.39h.13c.15.14,0,.05.26.12.05.22.09.44.13.66.36.09.48.24.76.39-.02.07-.08.17-.13.25h.13v-.13c.12-.24.13.27.13.27.22.03.43.07.65.12.09.35.02.29.38.39.04.12.1.25.13.38.3-.02.31-.03.52-.13v.13c.17.14.19.23.25.51.35.13.68.26,1.03.39-.02.08-.08.17-.12.25.12-.04.26-.09.38-.13.06.09.09.18.15.27.36.3.61.63,1.14.77v.26h.51v.26c.42.09.27.19.78.26v.26c.14-.15.05,0,.13-.26h.26v.26c.12.08.26.15.39.25v.26c.06.04.29-.23.51-.13.05.02,0,.16.37.26v.26c.5,0,.61.12.91.25-.14.16,0,.07-.24.14v.25h.12v-.13c.19.08.09.15.25.25v-.37c.4.12.78.25,1.18.37.04.09.08.18.12.27.21.04.42.1.64.13.04.09.09.18.13.25.19,0-.02-.02.12-.14.21.07.19.21.26.27.14-.03.23-.25.51-.13v.13c.33.21.25.22.76.25v.25c.32.08.29.14.52.27v-.14h-.11c-.25-.12.25-.13.25-.13.34.39.89.3,1.43.53v.12h.38v.13c.48-.05.92-.08,1.41-.13v.25h.64v.27c.74.05,1.46.07,2.19.13v.12h.38v.13c.17,0,.23-.23.52-.13v.13h.27v.13c.09.01.3-.21.63-.13v.13c.21-.05.42-.09.64-.13v.13c.32.06.37-.13.37-.13.44.05.88.09,1.3.13v-.26c.54.14.27.27.65.53.03-.31.04-.31.12-.53.39-.04.77-.08,1.15-.12v-.13h.25v-.12c.22.04.45.07.66.12v.13s.3-.12.52-.13v-.27c.34.05.68.09,1.04.14v-.26c.28-.02.32-.02.5-.13v-.12c.34-.06.68-.08,1.03-.14v-.12c.21-.08,1.17.12,1.17.12.02-.09.07-.18.13-.26.13.05.23.08.39.14v-.27c.24-.02.51-.08.75-.13v-.13c.26-.04.52-.08.78-.13v-.12h.27v-.13c.42-.04.84-.07,1.29-.14.03-.08.07-.15.12-.25.13.04.26.1.38.13v-.26c.13.09.26.16.39.26v-.26c.16,0,.52.12.52.12.04-.08.09-.18.14-.27h.24c.05-.12.08-.25.14-.37l.11-.14h.77c.05-.09.09-.18.12-.25h.26v-.52h.13c.04.13.1.26.13.38.22-.11.22-.25.52-.25l.14.13v-.13c.2-.16.2-.2.52-.26v-.25h.25v.25h.13c-.04-.12-.08-.25-.13-.38.9-.04.96-.58,1.68-.77.07-.31.04-.24.26-.38v-.13h.38v.13h.13v-.51h.12c.09-.14.17-.27.26-.39h.38v-.14c.26-.18.42-.3.8-.38.03-.17.07-.33.12-.52h.37v-.14h.13v-.38h.41c.09-.49.3-.51.38-1.03h.51c.08-.37.14-.43.51-.51v-.27c.29-.02.33-.02.52-.13v-.13h.37v-.13c.25-.17.33-.29.67-.38.06-.36.03-.29.37-.38.05-.25.1-.53.14-.79.3.04.3.05.5.14.03-.5.21-.59.4-.91h-.13v-.12c-.4.14-.55.03-.92.12v-.37h-.12v.25c-.21.04-.43.09-.65.12v.27h-.76v-.14c-.08.05-.18.09-.26.14-.57-.05-1.13-.09-1.67-.14v-.25c-.35.11-.29.04-.4.39-.16.04-.34.08-.49.14-.05-.09-.1-.18-.13-.27-.14.05-.27.09-.39.14v-.27c-.16.15-.06,0-.14.27-.48-.02-.41-.16-.89,0v.14c-.34-.05-.7-.09-1.03-.14,0-.18.1.05.12-.14.25-.11-.25-.13-.25-.13v-.12h-.38c-.02.3-.06.32-.13.53-.22-.05-.43-.09-.64-.14v-.14c-.26.05-.52.09-.77.14v-.14c-.28-.05-.39.14-.39.14-.11-.05-.25-.09-.39-.14v.14c-.13-.05-.25-.09-.37-.14v.14c-.14.14-.05,0-.14.26-.47-.1-.68-.33-1.01-.53v.41c-.38-.05-.78-.09-1.17-.14v.14c-.31.02-.61.08-.89.12v-.39h-.14v.14h-.39v.14c-.14.14-.05,0-.13.26-.32,0-.44,0-.63.11v.14c-.47-.04-.96-.09-1.43-.14v-.11h-.13v.11h-.77v-.11h-.12v.11h-.26v.14c-.53.16-.53-.22-.65-.25-.29-.05-.59-.11-.89-.14v.14h-.13v-.14c-.18.02.06.07-.12.14h-.64v.11h-.4v.14c-.32-.04-.68-.09-1.03-.14.06-.07.1-.16.15-.25h-.15c-.15.29-.2.32-.64.39v-.25c-.45,0-.53.15-.76,0v-.26h-.13v.26c-.51-.04-1.03-.47-1.55-.26-.11.02,0,.29-.39.26v-.14h-.38v-.12c-.17.02-.33.08-.52.12-.2-.04-.81-.47-1.16-.39v.14c-.16.04-.33.08-.52.14v-.27h-.63v-.13h-.13v.13h-.77v-.13h-.39v-.12h-.14v.12h-.89v.13c-.21.07-.23-.12-.25-.13h-.13v.13c-.14-.04-.26-.08-.38-.13v.13c-.3.08-1.35-.28-1.43-.38v.25c-.12-.03-.25-.09-.39-.12v.12c-.29.05-.6.09-.89.13v-.25c-.14.15-.05,0-.12.25-.36-.08-.3-.04-.41-.38-.2.04-.43.09-.63.13v-.25c-.32.07-.28.13-.51.25v-.39h-.14v.13c-.2.08-.59-.3-.63-.26v.26c-.18.05-.02-.05-.14-.13-.21.05-.27.12-.65.13v-.26h-.25v-.26c-.15.16-.06,0-.12.26-.22.05-.44.08-.66.13v-.13h-.38v-.12s-.63.25-.91.12c-.04-.12-.08-.26-.13-.39-.13-.23-.13.27-.13.27-.41-.09-.85-.17-1.27-.27-.05-.08-.07-.16-.13-.26-.34-.08-.36.26-.4.26,0,0-.6-.2-.9-.13v.13h-.5v-.13h-.25v-.14c-.27.03-.2.26-.27.26-.31-.08-.59-.16-.89-.26v-.12c-.23.04-.43.09-.64.12v-.12c-.32.04-.61.09-.91.12v.14c-.23.05-.22-.11-.26-.14h-.64v.26c-.63,0-.97-.23-1.16-.26-.4-.04-.27.34-.77.26v-.13c-.14.05-.27.09-.4.13v-.13c-.27-.06-.37.13-.37.13h-.15v-.13h-.11v.13c-.27.03-.27-.13-.27-.13-.26.05-.52.09-.76.13-.05-.13-.1-.26-.13-.38-.21-.05-.43-.08-.64-.13v-.26h-.13v.39c.2.15.3.34.38.64"/>
</svg>