<?xml version="1.0" encoding="UTF-8"?>
<svg id="_レイヤー_1" data-name="レイヤー 1" xmlns="http://www.w3.org/2000/svg" version="1.1" viewBox="0 0 283.46 283.46">
  <defs>
    <style>
      .cls-1 {
        stroke-width: 1.36px;
      }

      .cls-1, .cls-2 {
        fill: none;
        stroke: #231815;
        stroke-linecap: round;
        stroke-linejoin: round;
      }

      .cls-2 {
        stroke-width: .68px;
      }

      .cls-3 {
        fill: #fff;
        stroke-width: 0px;
      }
    </style>
  </defs>
  <path class="cls-1" d="M183.23,201.21c-25.16-6.42-43.52,2.53-53.69,10.82l-18.3,14.92c-11.03,8.99-19.64,22.66,7.29,30.3,27.52,7.82,47.58-3.09,57.89-12.6l17.05-15.7c9.48-8.75,15.42-21.2-10.24-27.74ZM201.57,215.23c-.02,4.73-3.67,9.63-8.11,13.72l-17.05,15.7c-10.31,9.51-30.37,20.42-57.89,12.6-13.26-3.77-17.9-8.99-17.88-14.4h0v2.36h0c-.16,5.49,4.42,10.81,17.88,14.64,27.52,7.82,47.58-3.09,57.89-12.6l17.05-15.7c4.58-4.22,8.32-9.31,8.1-14.18v-2.14s0,0,0,0Z"/>
  <path class="cls-3" d="M201.57,215.23c-.02,4.73-3.67,9.63-8.11,13.72l-17.05,15.7c-10.31,9.51-30.37,20.42-57.89,12.6-13.26-3.77-17.9-8.99-17.88-14.4h0v2.36h0c-.16,5.49,4.42,10.81,17.88,14.64,27.52,7.82,47.58-3.09,57.89-12.6l17.05-15.7c4.58-4.22,8.32-9.31,8.1-14.18v-2.14s0,0,0,0Z"/>
  <path class="cls-2" d="M201.57,215.23c-.02,4.73-3.67,9.63-8.11,13.72l-17.05,15.7c-10.31,9.51-30.37,20.42-57.89,12.6-13.26-3.77-17.9-8.99-17.88-14.4h0v2.36h0c-.16,5.49,4.42,10.81,17.88,14.64,27.52,7.82,47.58-3.09,57.89-12.6l17.05-15.7c4.58-4.22,8.32-9.31,8.1-14.18v-2.14s0,0,0,0Z"/>
  <path class="cls-3" d="M183.23,201.21c-25.16-6.42-43.52,2.53-53.69,10.82l-18.3,14.92c-11.03,8.99-19.64,22.66,7.29,30.3,27.52,7.82,47.58-3.09,57.89-12.6l17.05-15.7c9.48-8.75,15.42-21.2-10.24-27.74"/>
  <path class="cls-2" d="M183.23,201.21c-25.16-6.42-43.52,2.53-53.69,10.82l-18.3,14.92c-11.03,8.99-19.64,22.66,7.29,30.3,27.52,7.82,47.58-3.09,57.89-12.6l17.05-15.7c9.48-8.75,15.42-21.2-10.24-27.74Z"/>
  <path class="cls-1" d="M81.6,241.44c0,.73-.59,1.16-1.31.95-.72-.2-1.31-.95-1.31-1.68s.59-1.16,1.31-.95c.72.2,1.31.95,1.31,1.68ZM81.6,219.07c0,.73-.59,1.16-1.31.97-.72-.2-1.31-.94-1.31-1.67s.59-1.16,1.31-.97c.72.19,1.31.94,1.31,1.67ZM81.6,146.35c0,.73-.59,1.18-1.31,1.01-.72-.17-1.31-.91-1.31-1.63s.59-1.18,1.31-1c.72.17,1.31.9,1.31,1.63ZM81.6,123.98c0,.73-.59,1.18-1.31,1.02-.72-.17-1.31-.89-1.31-1.62s.59-1.18,1.31-1.02c.72.17,1.31.89,1.31,1.62ZM91.42,212.03v-59.77c.84-50.06,3.29-73.82,25.01-91.56,13.29-11.16,37.32-26.3,37.32-26.3l12.56-7.43s21.7-12,32.55-15.52c2.39-.84,4.46-1.16,6.26-.98l-15.81-2.66s-8.66-1.35-18.96,2.9c-6.08,2.15-32.9,17.23-32.9,17.23l-14.68,8.36s-27.83,15.33-37.14,23.41c-16.59,15.34-16.06,46.34-16.4,89.03v54.52c.21,47.21,2.17,59.86,9.8,62.1l23.34,6.87c-6.11-2.2-11.35-15.04-10.96-60.21ZM152.02,202.46s.01,0,.02,0l-9.9-2.54c1.78,1.89,3.75,3.34,5.89,4.32,2.82.35,5.83.02,8.99-1.03-1.74,0-3.41-.25-5-.76ZM192.09,70.01h0s-.01,0-.02,0c1.19.25,2.34.64,3.45,1.15-1.98-1.97-4.21-3.43-6.63-4.32-2.34-.11-4.81.25-7.39,1.08l10.59,2.09ZM174.95,74.35c6.27-4.08,12.09-5.4,17.14-4.34l-10.6-2.09c-2.45.8-4.99,2.02-7.61,3.72-22.39,14.48-41.62,56.81-41.62,93.67,0,16.28,3.75,28.09,9.87,34.61l9.91,2.55c-10.18-3.22-17-16.63-17-38.14,0-35.35,18.42-76,39.92-89.98ZM210.77,108.49c0,31.73-15.57,70.28-35.82,86.96-21.5,17.71-39.92,4.23-39.92-31.13s18.42-76,39.92-89.98c20.25-13.17,35.82,2.42,35.82,34.15ZM211.07,107.22c0,32.94-16.15,72.99-37.19,90.4-22.39,18.53-41.62,4.56-41.62-32.31s19.23-79.19,41.62-93.67c21.04-13.61,37.19,2.64,37.19,35.58ZM153.75,34.41s-24.03,15.13-37.32,26.3c-21.72,17.74-24.17,41.5-25.01,91.56v59.77c-.44,49.56,5.92,60.2,12.76,60.57,10.24-.12,27.91-15.48,27.91-15.48l53.91-47.58s16.94-15.53,20.88-25.14c5.48-9.3,10.86-26.25,10.53-70.17v-49.88c-.59-40.97-2.31-58.56-18.54-52.87-10.85,3.52-32.55,15.52-32.55,15.52l-12.56,7.43Z"/>
  <path class="cls-3" d="M153.75,34.41s-24.03,15.13-37.32,26.3c-21.72,17.74-24.17,41.5-25.01,91.56v59.77c-.44,49.56,5.92,60.2,12.76,60.57,10.24-.12,27.91-15.48,27.91-15.48l53.91-47.58s16.94-15.53,20.88-25.14c5.48-9.3,10.86-26.25,10.53-70.17v-49.88c-.59-40.97-2.31-58.56-18.54-52.87-10.85,3.52-32.55,15.52-32.55,15.52l-12.56,7.43Z"/>
  <path class="cls-2" d="M153.75,34.41s-24.03,15.13-37.32,26.3c-21.72,17.74-24.17,41.5-25.01,91.56v59.77c-.44,49.56,5.92,60.2,12.76,60.57,10.24-.12,27.91-15.48,27.91-15.48l53.91-47.58s16.94-15.53,20.88-25.14c5.48-9.3,10.86-26.25,10.53-70.17v-49.88c-.59-40.97-2.31-58.56-18.54-52.87-10.85,3.52-32.55,15.52-32.55,15.52l-12.56,7.43Z"/>
  <path class="cls-3" d="M211.07,107.22c0,32.94-16.15,72.99-37.19,90.4-22.39,18.53-41.62,4.56-41.62-32.31s19.23-79.19,41.62-93.68c21.04-13.61,37.19,2.65,37.19,35.58"/>
  <path class="cls-2" d="M211.07,107.22c0,32.94-16.15,72.99-37.19,90.4-22.39,18.53-41.62,4.56-41.62-32.31s19.23-79.19,41.62-93.68c21.04-13.61,37.19,2.65,37.19,35.58Z"/>
  <path class="cls-3" d="M210.77,108.49c0,31.73-15.57,70.28-35.82,86.96-21.49,17.71-39.91,4.23-39.91-31.13s18.42-76,39.91-89.98c20.25-13.17,35.82,2.42,35.82,34.15"/>
  <path class="cls-2" d="M210.77,108.49c0,31.73-15.57,70.28-35.82,86.96-21.49,17.71-39.91,4.23-39.91-31.13s18.42-76,39.91-89.98c20.25-13.17,35.82,2.42,35.82,34.15Z"/>
  <path class="cls-3" d="M174.95,74.35c6.27-4.08,12.09-5.4,17.14-4.34l-10.6-2.09c-2.45.79-4.99,2.02-7.61,3.72-22.39,14.48-41.62,56.81-41.62,93.67,0,16.28,3.75,28.09,9.87,34.61l9.9,2.55c-10.18-3.22-17-16.63-17-38.14,0-35.35,18.42-76,39.92-89.98"/>
  <path class="cls-2" d="M174.95,74.35c6.27-4.08,12.09-5.4,17.14-4.34l-10.6-2.09c-2.45.79-4.99,2.02-7.61,3.72-22.39,14.48-41.62,56.81-41.62,93.67,0,16.28,3.75,28.09,9.87,34.61l9.9,2.55c-10.18-3.22-17-16.63-17-38.14,0-35.35,18.42-76,39.92-89.98Z"/>
  <path class="cls-3" d="M192.09,70.01h0s-.01,0-.02,0c1.19.25,2.34.64,3.45,1.15-1.98-1.97-4.21-3.43-6.63-4.32-2.34-.11-4.81.25-7.39,1.08l10.59,2.09Z"/>
  <path class="cls-2" d="M192.09,70.01h0s-.01,0-.02,0c1.19.25,2.34.64,3.45,1.15-1.98-1.97-4.21-3.43-6.63-4.32-2.34-.11-4.81.25-7.39,1.08l10.59,2.09Z"/>
  <path class="cls-3" d="M152.02,202.46s.01,0,.02,0l-9.9-2.54c1.78,1.89,3.75,3.34,5.89,4.32,2.81.36,5.83.02,8.99-1.03-1.74,0-3.41-.25-5-.76"/>
  <path class="cls-2" d="M152.02,202.46s.01,0,.02,0l-9.9-2.54c1.78,1.89,3.75,3.34,5.89,4.32,2.81.36,5.83.02,8.99-1.03-1.74,0-3.41-.25-5-.76Z"/>
  <path class="cls-3" d="M91.42,212.03v-59.77c.84-50.06,3.29-73.82,25.01-91.56,13.29-11.17,37.32-26.3,37.32-26.3l12.56-7.43s21.7-12,32.55-15.52c2.39-.84,4.46-1.16,6.26-.98l-15.81-2.66s-8.66-1.35-18.96,2.9c-6.08,2.14-32.9,17.23-32.9,17.23l-14.68,8.36s-27.83,15.33-37.14,23.41c-16.59,15.34-16.06,46.34-16.4,89.03v54.52c.21,47.21,2.17,59.86,9.8,62.1l23.35,6.87c-6.11-2.2-11.36-15.04-10.96-60.2"/>
  <path class="cls-2" d="M91.42,212.03v-59.77c.84-50.06,3.29-73.82,25.01-91.56,13.29-11.17,37.32-26.3,37.32-26.3l12.56-7.43s21.7-12,32.55-15.52c2.39-.84,4.46-1.16,6.26-.98l-15.81-2.66s-8.66-1.35-18.96,2.9c-6.08,2.14-32.9,17.23-32.9,17.23l-14.68,8.36s-27.83,15.33-37.14,23.41c-16.59,15.34-16.06,46.34-16.4,89.03v54.52c.21,47.21,2.17,59.86,9.8,62.1l23.35,6.87c-6.11-2.2-11.36-15.04-10.96-60.2Z"/>
  <path class="cls-3" d="M81.6,123.98c0,.73-.59,1.18-1.31,1.02-.72-.17-1.31-.89-1.31-1.62s.59-1.18,1.31-1.02c.72.16,1.31.89,1.31,1.62"/>
  <path class="cls-2" d="M81.6,123.98c0,.73-.59,1.18-1.31,1.02-.72-.17-1.31-.89-1.31-1.62s.59-1.18,1.31-1.02c.72.16,1.31.89,1.31,1.62Z"/>
  <path class="cls-3" d="M81.6,146.35c0,.73-.59,1.18-1.31,1.01-.72-.18-1.31-.91-1.31-1.63s.59-1.18,1.31-1c.72.17,1.31.9,1.31,1.63"/>
  <path class="cls-2" d="M81.6,146.36c0,.73-.59,1.18-1.31,1.01-.72-.18-1.31-.91-1.31-1.63s.59-1.18,1.31-1c.72.17,1.31.9,1.31,1.63Z"/>
  <path class="cls-3" d="M81.6,219.07c0,.73-.59,1.16-1.31.97-.72-.2-1.31-.94-1.31-1.67s.59-1.16,1.31-.97c.72.2,1.31.94,1.31,1.67"/>
  <path class="cls-2" d="M81.6,168.77c0,.73-.59,1.16-1.31.97-.72-.2-1.31-.94-1.31-1.67s.59-1.16,1.31-.97c.72.2,1.31.94,1.31,1.67Z"/>
  <path class="cls-3" d="M81.6,241.44c0,.73-.59,1.16-1.31.95-.72-.2-1.31-.95-1.31-1.68s.59-1.16,1.31-.95c.72.2,1.31.95,1.31,1.68"/>
  <path class="cls-2" d="M81.6,191.15c0,.73-.59,1.16-1.31.95-.72-.2-1.31-.95-1.31-1.68s.59-1.16,1.31-.95c.72.2,1.31.95,1.31,1.68Z"/>
</svg>