<?xml version="1.0" encoding="UTF-8"?>
<svg id="_レイヤー_1" data-name="レイヤー 1" xmlns="http://www.w3.org/2000/svg" version="1.1" viewBox="0 0 283.46 283.46">
  <defs>
    <style>
      .cls-1 {
        fill: #231815;
      }

      .cls-1, .cls-2, .cls-3, .cls-4, .cls-5, .cls-6 {
        stroke-width: 0px;
      }

      .cls-2 {
        fill: #138e41;
      }

      .cls-7, .cls-8, .cls-9, .cls-10 {
        fill: none;
        stroke: #231815;
      }

      .cls-7, .cls-9 {
        stroke-width: .7px;
      }

      .cls-8, .cls-10 {
        stroke-width: .35px;
      }

      .cls-3 {
        fill: #040000;
      }

      .cls-4 {
        fill: #666464;
      }

      .cls-9, .cls-10 {
        stroke-linecap: round;
        stroke-linejoin: round;
      }

      .cls-5 {
        fill: #1d99d1;
      }

      .cls-6 {
        fill: #fff;
      }
    </style>
  </defs>
  <path class="cls-4" d="M115.45,6.26h39.62s2.55.11,2.55,3.19v257.4s.11,3.51-2.76,3.51h-39.09s-2.76.11-2.76-3.72V9.02s0-2.76,2.44-2.76"/>
  <path class="cls-9" d="M115.45,6.26h39.62s2.55.11,2.55,3.19v257.4s.11,3.51-2.76,3.51h-39.09s-2.76.11-2.76-3.72V9.02s0-2.76,2.44-2.76Z"/>
  <polyline class="cls-10" points="157.62 9.44 154.01 9.44 154.01 266.95 157.62 266.95"/>
  <path class="cls-10" d="M133.08,35.44c0,1.64-1.33,2.97-2.97,2.97s-2.97-1.33-2.97-2.97,1.33-2.97,2.97-2.97,2.97,1.33,2.97,2.97Z"/>
  <path class="cls-10" d="M131.77,35.41c0,.92-.74,1.66-1.66,1.66s-1.66-.75-1.66-1.66.74-1.66,1.66-1.66,1.66.75,1.66,1.66Z"/>
  <path class="cls-10" d="M126.79,46.78h11.87s.85.16.85,1.06v15.03s.05.74-1.12.74h-11.55s-.82,0-.82-.82.13-3.75.13-3.75l-1.33-1.17v-5.58l1.38-1.17v-3.66s-.05-.69.59-.69Z"/>
  <polygon class="cls-10" points="126.98 48.72 129.47 48.72 129.47 50.85 127 50.85 126.98 48.72"/>
  <polygon class="cls-10" points="126.98 59.66 129.47 59.66 129.47 61.79 127 61.79 126.98 59.66"/>
  <polygon class="cls-10" points="130.16 48.17 138.42 48.17 138.42 62.4 130.29 62.4 130.29 59 128.3 59 128.3 57.7 125.99 57.7 125.99 52.76 128.3 52.76 128.3 51.54 130.19 51.54 130.16 48.17"/>
  <path class="cls-10" d="M126.79,72.21h11.87s.85.16.85,1.06v15.03s.05.74-1.12.74h-11.55s-.82,0-.82-.82.13-3.74.13-3.74l-1.33-1.17v-5.58l1.38-1.17v-3.66s-.05-.69.59-.69Z"/>
  <polygon class="cls-10" points="126.98 74.15 129.47 74.15 129.47 76.27 127 76.27 126.98 74.15"/>
  <polygon class="cls-10" points="126.98 85.09 129.47 85.09 129.47 87.21 127 87.21 126.98 85.09"/>
  <polygon class="cls-10" points="130.16 73.59 138.42 73.59 138.42 87.82 130.29 87.82 130.29 84.42 128.3 84.42 128.3 83.12 125.99 83.12 125.99 78.18 128.3 78.18 128.3 76.96 130.19 76.96 130.16 73.59"/>
  <path class="cls-10" d="M126.79,97.56h11.87s.85.16.85,1.06v15.03s.05.74-1.12.74h-11.55s-.82,0-.82-.82.13-3.74.13-3.74l-1.33-1.17v-5.58l1.38-1.17v-3.66s-.05-.69.59-.69Z"/>
  <polygon class="cls-10" points="126.98 99.5 129.47 99.5 129.47 101.63 127 101.63 126.98 99.5"/>
  <polygon class="cls-10" points="126.98 110.44 129.47 110.44 129.47 112.57 127 112.57 126.98 110.44"/>
  <polygon class="cls-10" points="130.16 98.94 138.42 98.94 138.42 113.18 130.29 113.18 130.29 109.78 128.3 109.78 128.3 108.48 125.99 108.48 125.99 103.54 128.3 103.54 128.3 102.32 130.19 102.32 130.16 98.94"/>
  <path class="cls-10" d="M128.2,130.49h5.63s.85,0,.85-.9v-1.36s.32-.32.8-.32h1.99s.69.11.69.69v19.46s0,.61-.61.61h-2.13s-.78-.43-.78-.78v-1.14s-.12-.58-1.18-.58h-5.26s-.58-.05-.58-.59-.05-.9-.05-.9c0,0-.05-.64-.9-.64s-1.33.16-1.33.16l-1.49-1.65v-8.34l1.81-1.65h1.33s.69-.05.69-.69v-.9s-.05-.48.53-.48Z"/>
  <rect class="cls-10" x="135.21" y="128.53" width="2.18" height="1.59"/>
  <rect class="cls-10" x="135.21" y="146.54" width="2.18" height="1.59"/>
  <polygon class="cls-10" points="136.54 131.29 136.54 145.47 128.3 145.47 128.3 142.18 126.13 142.18 126.13 134.53 128.14 134.53 128.14 131.19 136.54 131.29"/>
  <path class="cls-10" d="M128.2,157.05h5.63s.85,0,.85-.9v-1.36s.32-.32.8-.32h1.99s.69.11.69.69v19.46s0,.61-.61.61h-2.13s-.78-.43-.78-.78v-1.14s-.12-.59-1.18-.59h-5.26s-.58-.05-.58-.59-.05-.9-.05-.9c0,0-.05-.64-.9-.64s-1.33.16-1.33.16l-1.49-1.65v-8.34l1.81-1.65h1.33s.69-.05.69-.69v-.9s-.05-.48.53-.48Z"/>
  <rect class="cls-10" x="135.21" y="155.09" width="2.18" height="1.59"/>
  <rect class="cls-10" x="135.21" y="173.09" width="2.18" height="1.59"/>
  <polygon class="cls-10" points="136.54 157.85 136.54 172.03 128.3 172.03 128.3 168.74 126.13 168.74 126.13 161.09 128.14 161.09 128.14 157.74 136.54 157.85"/>
  <path class="cls-10" d="M127.83,180.85h4.89s1.27.05,1.27,1.27v13.6s-.16,1.35-1.35,1.35h-4.65s-1.34-.27-1.34-1.34v-13.88s.12-1.01,1.18-1.01Z"/>
  <polygon class="cls-10" points="130.43 182.39 132.5 182.39 132.5 195.4 130.53 195.4 130.43 182.39"/>
  <path class="cls-10" d="M137.97,180.85h4.89s1.27.05,1.27,1.27v13.6s-.16,1.35-1.35,1.35h-4.65s-1.34-.27-1.34-1.34v-13.88s.12-1.01,1.18-1.01Z"/>
  <polygon class="cls-10" points="140.57 182.39 142.65 182.39 142.65 195.4 140.68 195.4 140.57 182.39"/>
  <path class="cls-10" d="M129.31,204.54h12.38s1.28.11,1.28,1.28v25.23s-.11,1.38-1.38,1.38h-12.32s-1.22-.05-1.22-1.22v-25.65s.16-1.01,1.27-1.01Z"/>
  <polygon class="cls-10" points="129.58 205.92 137.76 205.92 137.76 207.72 139.72 207.72 139.72 209.53 141.37 209.53 141.37 214.1 139.72 214.1 139.72 215.9 137.71 215.9 137.71 217.87 129.42 217.87 129.58 205.92"/>
  <polygon class="cls-10" points="129.58 218.98 137.76 218.98 137.76 220.79 139.72 220.79 139.72 222.6 141.37 222.6 141.37 227.17 139.72 227.17 139.72 228.97 137.71 228.97 137.71 230.94 129.42 230.94 129.58 218.98"/>
  <path class="cls-10" d="M139.33,251.96c0,3.42-2.77,6.19-6.19,6.19s-6.19-2.77-6.19-6.19,2.77-6.19,6.19-6.19,6.19,2.77,6.19,6.19Z"/>
  <path class="cls-10" d="M137.96,251.96c0,2.66-2.16,4.82-4.82,4.82s-4.82-2.16-4.82-4.82,2.16-4.82,4.82-4.82,4.82,2.16,4.82,4.82Z"/>
  <path class="cls-10" d="M136.75,251.96c0,1.99-1.62,3.61-3.61,3.61s-3.61-1.62-3.61-3.61,1.62-3.61,3.61-3.61,3.61,1.62,3.61,3.61Z"/>
  <path class="cls-10" d="M136.75,251.96c0,1.99-1.62,3.61-3.61,3.61s-3.61-1.62-3.61-3.61,1.62-3.61,3.61-3.61,3.61,1.62,3.61,3.61Z"/>
  <path class="cls-10" d="M136.75,251.96c0,1.99-1.62,3.61-3.61,3.61s-3.61-1.62-3.61-3.61,1.62-3.61,3.61-3.61,3.61,1.62,3.61,3.61Z"/>
  <path class="cls-10" d="M136.75,251.96c0,1.99-1.62,3.61-3.61,3.61s-3.61-1.62-3.61-3.61,1.62-3.61,3.61-3.61,3.61,1.62,3.61,3.61Z"/>
  <path class="cls-10" d="M136.75,251.96c0,1.99-1.62,3.61-3.61,3.61s-3.61-1.62-3.61-3.61,1.62-3.61,3.61-3.61,3.61,1.62,3.61,3.61Z"/>
  <path class="cls-10" d="M136.75,251.96c0,1.99-1.62,3.61-3.61,3.61s-3.61-1.62-3.61-3.61,1.62-3.61,3.61-3.61,3.61,1.62,3.61,3.61Z"/>
  <path class="cls-10" d="M136.75,251.96c0,1.99-1.62,3.61-3.61,3.61s-3.61-1.62-3.61-3.61,1.62-3.61,3.61-3.61,3.61,1.62,3.61,3.61Z"/>
  <path class="cls-10" d="M136.75,251.96c0,1.99-1.62,3.61-3.61,3.61s-3.61-1.62-3.61-3.61,1.62-3.61,3.61-3.61,3.61,1.62,3.61,3.61Z"/>
  <path class="cls-10" d="M136.75,251.96c0,1.99-1.62,3.61-3.61,3.61s-3.61-1.62-3.61-3.61,1.62-3.61,3.61-3.61,3.61,1.62,3.61,3.61Z"/>
  <path class="cls-10" d="M136.75,251.96c0,1.99-1.62,3.61-3.61,3.61s-3.61-1.62-3.61-3.61,1.62-3.61,3.61-3.61,3.61,1.62,3.61,3.61Z"/>
  <path class="cls-10" d="M134.95,251.96c0,1-.81,1.81-1.81,1.81s-1.81-.81-1.81-1.81.81-1.81,1.81-1.81,1.81.81,1.81,1.81Z"/>
  <path class="cls-10" d="M153.96,246.07h-13.23s-.96.16-.96.85v9.61s.05.85.85.85h13.33"/>
  <path class="cls-1" d="M142.3,249.83h1.02c.83,0,1.08-.78,1.08-1.39,0-.78-.41-1.31-1.07-1.31h-1.03v2.7ZM142.65,247.44h.64c.47,0,.76.34.76,1.02s-.29,1.06-.74,1.06h-.66v-2.08Z"/>
  <path class="cls-1" d="M146.95,247.95c-.04-.45-.39-.89-1.04-.89-.74,0-1.19.58-1.19,1.41,0,1.04.56,1.44,1.14,1.44.19,0,.97-.04,1.11-1.06h-.34c-.11.63-.5.74-.72.74-.63,0-.84-.49-.84-1.12,0-.71.37-1.07.83-1.07.24,0,.61.08.71.56h.33Z"/>
  <rect class="cls-1" x="148.82" y="247.14" width=".36" height="2.7"/>
  <polygon class="cls-1" points="151.6 249.31 151.59 249.31 150.24 247.14 149.81 247.14 149.81 249.83 150.16 249.83 150.16 247.65 150.17 247.65 151.54 249.83 151.95 249.83 151.95 247.14 151.6 247.14 151.6 249.31"/>
  <rect class="cls-1" x="142.3" y="254.7" width="1.39" height=".33"/>
  <polygon class="cls-1" points="151.59 254.7 151.07 254.7 151.07 254.17 150.74 254.17 150.74 254.7 150.21 254.7 150.21 255.03 150.74 255.03 150.74 255.55 151.07 255.55 151.07 255.03 151.59 255.03 151.59 254.7"/>
  <path class="cls-1" d="M146.92,255.82c-.52,0-.94-.43-.94-.95s.42-.96.94-.96c.37,0,.67.2.83.5h.52c-.18-.57-.72-.98-1.36-.98-.72,0-1.33.55-1.41,1.27h-1.11l-1.43-1.44-1.6,1.6,1.6,1.59,1.45-1.43h1.09c.08.71.69,1.27,1.41,1.27.64,0,1.17-.41,1.36-.98h-.52c-.17.3-.47.49-.83.49M142.97,256.02l-1.15-1.15,1.15-1.17,1.17,1.17-1.17,1.15Z"/>
  <path class="cls-1" d="M150.9,256.46l1.6-1.59-1.6-1.6-1.44,1.44h-2.04c-.07-.22-.25-.36-.49-.36-.27,0-.51.24-.51.52s.24.51.51.51c.24,0,.42-.14.49-.34h2.03l1.45,1.43ZM150.9,253.7l1.15,1.17-1.15,1.15-1.16-1.15,1.16-1.17Z"/>
  <path class="cls-1" d="M142.95,253.16h-.3v-2.07h-.54v-.29c.38-.03.53-.08.62-.55h.23v2.9Z"/>
  <path class="cls-1" d="M143.56,251.3c0-.94.55-1.04.79-1.04.39,0,.72.32.72.86s-.27.74-.61.97l-.24.17c-.31.22-.38.45-.39.56h1.25v.35h-1.57c.01-.61.23-.93.54-1.16l.3-.22c.24-.18.42-.3.42-.68,0-.23-.12-.52-.45-.52-.43,0-.45.51-.46.71h-.29Z"/>
  <polygon class="cls-1" points="146.78 250.2 147.13 250.2 146.28 253.16 145.95 253.16 145.1 250.2 145.44 250.2 146.11 252.72 146.12 252.72 146.78 250.2"/>
  <rect class="cls-1" x="148.33" y="250.99" width="4" height=".62"/>
  <rect class="cls-1" x="148.33" y="251.88" width="1.12" height=".62"/>
  <rect class="cls-1" x="149.74" y="251.88" width="1.12" height=".62"/>
  <rect class="cls-1" x="151.18" y="251.88" width="1.12" height=".62"/>
  <path class="cls-4" d="M100.21,255.85h9.29s1.81.16,2.02,1.54c.21,1.38,1.33,13.17,1.33,13.17h44.78l1.01-9.4,4.57-.05.69-4.46s.27-.85,1.11-.85,8.34.16,8.34.16c0,0,1.54.16,1.75,1.59.21,1.43,1.7,18.43,1.7,18.43,0,0,0,.74-.8.74h-81.37s-.69,0-.64-1.01c.05-1.01,1.12-14.71,1.12-14.71h4.04l.48-4.25s-.05-.9.58-.9"/>
  <path class="cls-7" d="M100.21,255.85h9.29s1.81.16,2.02,1.54c.21,1.38,1.33,13.17,1.33,13.17h44.78l1.01-9.4,4.57-.05.69-4.46s.27-.85,1.11-.85,8.34.16,8.34.16c0,0,1.54.16,1.75,1.59.21,1.43,1.7,18.43,1.7,18.43,0,0,0,.74-.8.74h-81.37s-.69,0-.64-1.01c.05-1.01,1.12-14.71,1.12-14.71h4.04l.48-4.25s-.05-.9.58-.9Z"/>
  <line class="cls-7" x1="94.47" y1="270.56" x2="112.85" y2="270.56"/>
  <line class="cls-7" x1="99.14" y1="261" x2="111.94" y2="261"/>
  <line class="cls-7" x1="101.64" y1="256.01" x2="101.06" y2="260.63"/>
  <polyline class="cls-7" points="107.96 260.84 107.59 258.13 103.82 258.13 101.64 256.86"/>
  <line class="cls-7" x1="165.22" y1="255.9" x2="164.53" y2="261.32"/>
  <line class="cls-7" x1="175.31" y1="261.37" x2="163.2" y2="261.37"/>
  <polyline class="cls-7" points="171.81 261.21 171.54 258.13 166.97 257.97 165.06 256.96"/>
  <line class="cls-7" x1="157.62" y1="270.56" x2="176.32" y2="270.56"/>
  <path class="cls-6" d="M152.77,231.69V31.55c0-.74-.61-1.33-1.37-1.33h-9.31c-.75,0-1.37.6-1.37,1.33v145.42c0,.73.61,1.33,1.37,1.33h2.48c.62,0,1.12.49,1.12,1.09v52.3c0,.73.61,1.33,1.37,1.33h4.35c.75,0,1.37-.6,1.37-1.33"/>
  <rect class="cls-2" x="140.73" y="128.06" width="12.04" height="20.8"/>
  <rect class="cls-5" x="140.73" y="154.66" width="12.04" height="20.8"/>
  <rect class="cls-2" x="140.73" y="47.6" width="12.04" height="65.79"/>
  <path class="cls-8" d="M152.77,231.69V31.55c0-.74-.61-1.33-1.37-1.33h-9.31c-.75,0-1.37.6-1.37,1.33v145.42c0,.73.61,1.33,1.37,1.33h2.48c.62,0,1.12.49,1.12,1.09v52.3c0,.73.61,1.33,1.37,1.33h4.35c.75,0,1.37-.6,1.37-1.33Z"/>
  <polygon class="cls-6" points="143.67 51.67 143.67 54.36 144.71 54.36 144.71 54.7 143.34 54.7 143.34 51.67 143.67 51.67"/>
  <path class="cls-6" d="M145.52,53.8l-.3.89h-.38l1.06-3.03h.47l1.07,3.03h-.38l-.31-.89h-1.23ZM146.65,53.48l-.51-1.47-.51,1.47h1.02Z"/>
  <polygon class="cls-6" points="148.23 51.67 149.83 54.33 149.83 51.67 150.16 51.67 150.16 54.7 149.67 54.7 148.07 52.04 148.07 54.7 147.74 54.7 147.74 51.67 148.23 51.67"/>
  <polygon class="cls-6" points="146.71 55.51 147.01 55.51 147.01 58.53 146.67 58.53 146.67 55.91 146.13 56.31 146.08 55.97 146.71 55.51"/>
  <polygon class="cls-3" points="143.97 36.63 143.51 36.63 142.66 33.61 143.01 33.61 143.74 36.31 144.44 33.61 144.91 33.61 145.62 36.31 146.34 33.61 146.7 33.61 145.85 36.63 145.38 36.63 144.67 33.93 143.97 36.63"/>
  <path class="cls-3" d="M147.73,33.61c.32,0,.52.05.69.19.21.18.29.47.29.71,0,.9-.76.9-1.03.9h-.34v1.23h-.33v-3.03h.73ZM147.71,35.07c.23,0,.66,0,.66-.56s-.42-.58-.66-.58h-.37v1.14h.37Z"/>
  <path class="cls-3" d="M150.45,34.07c-.16-.13-.33-.19-.53-.19-.31,0-.54.19-.54.51s.23.42.52.53c.37.13.79.3.79.89,0,.49-.35.89-.98.89-.29,0-.54-.07-.78-.24l.1-.33c.2.16.41.24.66.24.33,0,.66-.16.66-.54,0-.3-.21-.45-.41-.53-.56-.21-.9-.34-.9-.89,0-.52.37-.86.87-.86.23,0,.43.06.62.18l-.08.34Z"/>
  <polygon class="cls-6" points="143.67 77.06 143.67 79.76 144.71 79.76 144.71 80.09 143.34 80.09 143.34 77.06 143.67 77.06"/>
  <path class="cls-6" d="M145.52,79.2l-.3.89h-.38l1.06-3.03h.47l1.07,3.03h-.38l-.31-.89h-1.23ZM146.65,78.87l-.51-1.47-.51,1.47h1.02Z"/>
  <polygon class="cls-6" points="148.23 77.06 149.83 79.72 149.83 77.06 150.16 77.06 150.16 80.09 149.67 80.09 148.07 77.43 148.07 80.09 147.74 80.09 147.74 77.06 148.23 77.06"/>
  <path class="cls-6" d="M147.74,83.6v.33h-2c.23-.24.6-.64.98-1.11.43-.53.57-.79.57-1.1,0-.36-.25-.55-.53-.55-.44,0-.65.4-.71.52l-.14-.38c.21-.3.5-.47.85-.47s.86.22.86.88c0,.29-.08.53-.36.93-.15.21-.38.5-.77.95h1.26Z"/>
  <polygon class="cls-6" points="143.67 102.43 143.67 105.12 144.71 105.12 144.71 105.45 143.34 105.45 143.34 102.43 143.67 102.43"/>
  <path class="cls-6" d="M145.52,104.56l-.3.89h-.38l1.06-3.03h.47l1.07,3.03h-.38l-.31-.89h-1.23ZM146.65,104.24l-.51-1.47-.51,1.47h1.02Z"/>
  <polygon class="cls-6" points="148.23 102.43 149.83 105.09 149.83 102.43 150.16 102.43 150.16 105.45 149.67 105.45 148.07 102.8 148.07 105.45 147.74 105.45 147.74 102.43 148.23 102.43"/>
  <path class="cls-6" d="M145.86,108.79c.33.24.67.24.77.24.55,0,.74-.35.74-.62,0-.32-.26-.56-.74-.56h-.26v-.33h.26c.41,0,.57-.28.57-.51,0-.3-.22-.47-.53-.47-.27,0-.5.12-.68.35l-.13-.33c.36-.34.73-.34.81-.34.41,0,.85.25.85.78,0,.13-.02.48-.42.66.37.13.59.39.59.78s-.26.92-1.08.92c-.32,0-.59-.07-.87-.23l.1-.33Z"/>
  <polygon class="cls-6" points="143.67 133.08 143.67 135.78 144.71 135.78 144.71 136.11 143.34 136.11 143.34 133.08 143.67 133.08"/>
  <path class="cls-6" d="M145.52,135.21l-.3.89h-.38l1.06-3.03h.47l1.07,3.03h-.38l-.31-.89h-1.23ZM146.65,134.89l-.51-1.47-.51,1.47h1.02Z"/>
  <polygon class="cls-6" points="148.23 133.08 149.83 135.74 149.83 133.08 150.16 133.08 150.16 136.11 149.67 136.11 148.07 133.45 148.07 136.11 147.74 136.11 147.74 133.08 148.23 133.08"/>
  <path class="cls-6" d="M147.05,139.95v-.68h-1.3v-.32l1.28-2.04h.36v2.03h.38v.32h-.38v.68h-.33ZM146.08,138.95h.96v-1.54l-.96,1.54Z"/>
  <polygon class="cls-6" points="144.49 141.1 144.74 141.1 144.74 143.79 144.46 143.79 144.46 141.46 144.01 141.81 143.97 141.51 144.49 141.1"/>
  <path class="cls-6" d="M145.68,142.44c0-.27,0-1.4.81-1.4s.81,1.13.81,1.4,0,1.4-.81,1.4-.81-1.12-.81-1.4M147.02,142.44c0-.45-.06-1.11-.53-1.11s-.53.64-.53,1.11.07,1.11.53,1.11.53-.64.53-1.11"/>
  <path class="cls-6" d="M149.62,141.6c-.22-.19-.45-.27-.72-.27-.59,0-1.01.42-1.01,1.1,0,.54.26,1.12,1.06,1.12.28,0,.46-.07.53-.11v-.81h-.65v-.29h.93v1.31c-.26.13-.54.19-.82.19-.93,0-1.32-.71-1.32-1.4,0-.82.54-1.39,1.3-1.39.43,0,.7.18.81.25l-.1.31Z"/>
  <polygon class="cls-6" points="143.97 164.48 143.56 164.48 142.81 161.46 143.12 161.46 143.76 164.16 144.39 161.46 144.81 161.46 145.43 164.16 146.08 161.46 146.39 161.46 145.64 164.48 145.22 164.48 144.6 161.78 143.97 164.48"/>
  <path class="cls-6" d="M146.68,163.59l-.27.89h-.34l.95-3.03h.42l.95,3.03h-.34l-.27-.89h-1.1ZM147.68,163.27l-.45-1.48-.45,1.48h.9Z"/>
  <polygon class="cls-6" points="148.92 161.46 150.35 164.12 150.35 161.46 150.64 161.46 150.64 164.48 150.21 164.48 148.79 161.83 148.79 164.48 148.49 164.48 148.49 161.46 148.92 161.46"/>
  <polygon class="cls-6" points="144.57 165.63 144.82 165.63 144.82 168.32 144.53 168.32 144.53 166 144.08 166.35 144.04 166.05 144.57 165.63"/>
  <path class="cls-6" d="M145.76,166.98c0-.27,0-1.4.81-1.4s.81,1.13.81,1.4,0,1.4-.81,1.4-.81-1.13-.81-1.4M147.1,166.98c0-.45-.06-1.11-.53-1.11s-.53.64-.53,1.11.07,1.1.53,1.1.53-.64.53-1.1"/>
  <path class="cls-6" d="M149.7,166.14c-.22-.18-.45-.26-.72-.26-.59,0-1.01.42-1.01,1.1,0,.54.26,1.12,1.06,1.12.28,0,.46-.07.53-.11v-.81h-.66v-.29h.93v1.31c-.26.13-.54.19-.82.19-.93,0-1.32-.71-1.32-1.41,0-.81.54-1.39,1.3-1.39.43,0,.7.18.81.25l-.1.31Z"/>
  <path class="cls-3" d="M151.8,208.1h-1.11v.15h1.25v.62h-.26v-.44h-.99v.59h-.24v-.59h-.99v.44h-.25v-.62h1.24v-.15h-1.1v-.2h2.45v.2ZM150.69,210.23c0,.07,0,.09.1.09h.83c.13,0,.16-.02.17-.31l.23.07c-.03.3-.06.45-.32.45h-.98c-.16,0-.28-.03-.28-.21v-.23h-1.08v-.98h2.41v.98h-1.09v.14ZM150.45,209.67h-.84v.23h.84v-.23ZM150.45,209.29h-.83v.21h.83v-.21ZM150.3,208.7h-.66v-.14h.66v.14ZM150.3,208.97h-.66v-.15h.66v.15ZM151.53,209.29h-.84v.21h.84v-.21ZM151.53,209.67h-.84v.23h.84v-.23ZM151.52,208.7h-.67v-.14h.67v.14ZM151.52,208.97h-.67v-.15h.67v.15Z"/>
  <path class="cls-3" d="M150.3,211.52h-1.15v-.22h1.15v.22ZM150.2,211.09h-.95v-.22h.95v.22ZM150.2,211.94h-.95v-.21h.95v.21ZM150.2,212.37h-.95v-.21h.95v.21ZM150.2,213.51h-.95v-.92h.95v.92ZM149.96,212.8h-.47v.5h.47v-.5ZM151.31,211.6h.69v.23h-.69v.49h.56v1.18h-1.38v-1.18h.57v-.49h-.71v-.23h.71v-.47c-.36.04-.49.04-.67.05l-.04-.22c.57,0,1.24-.11,1.46-.19l.1.21c-.17.05-.27.08-.6.13v.5ZM151.62,212.55h-.89v.74h.89v-.74Z"/>
  <path class="cls-3" d="M151.18,214.03s.05.04.06.05c.13-.18.17-.25.2-.31l.19.07c-.09.15-.21.3-.26.36.03.03.09.09.13.13.17-.22.19-.24.23-.3l.17.09c-.15.21-.28.37-.51.62.24-.02.26-.02.36-.02-.02-.07-.04-.1-.06-.15l.17-.06c.09.19.15.39.16.45l-.19.08c-.02-.08-.03-.11-.04-.15-.07,0-.32.03-.34.03.02,0,.18.1.28.17l-.11.13h.39v.21h-.83c.03.15.07.3.14.46.17-.16.23-.26.3-.37l.21.1c-.1.16-.21.32-.39.48.1.16.19.24.24.24.06,0,.1-.08.18-.37l.2.14c-.08.31-.17.46-.36.46-.22,0-.4-.25-.45-.32-.29.19-.53.26-.65.3l-.11-.21c.13-.03.35-.09.64-.29-.1-.23-.15-.42-.19-.62h-.59c0,.07,0,.12,0,.19.22.09.36.18.51.3l-.14.19c-.17-.16-.36-.26-.39-.28-.04.4-.16.58-.28.73l-.18-.17c.19-.25.23-.47.24-.96h-.13v-.18l-.12.17c-.04-.08-.09-.16-.15-.31v1.45h-.23v-1.36c-.06.26-.15.5-.25.68l-.13-.29c.27-.41.34-.9.36-1h-.31v-.23h.33v-.58h.23v.58h.24v.23h-.24v.13c.07.16.15.31.28.49h.89c-.08-.49-.11-.94-.11-1.43h.24c0,.46.04.87.05.98h.06c.08-.08.19-.21.23-.26-.04-.04-.16-.18-.32-.31l.13-.14ZM150.62,214.55c.1.22.14.37.16.46l-.19.06c-.01-.06-.02-.09-.03-.13-.11,0-.62.05-.65.05l-.03-.19c.05,0,.07,0,.09,0,.04-.04.11-.12.26-.3-.04-.04-.18-.19-.35-.32l.13-.14s.05.04.07.05c.12-.14.17-.21.24-.33l.19.07c-.12.18-.2.28-.29.38.05.05.09.09.13.14.15-.19.19-.24.23-.31l.16.1c-.15.21-.42.53-.54.66.11,0,.18,0,.31-.02-.03-.09-.04-.12-.06-.16l.17-.07ZM151.41,214.91c-.11.01-.21.02-.32.03,0,.08.03.19.04.27h.44s-.16-.1-.27-.16l.11-.14Z"/>
  <polygon class="cls-3" points="147.18 211.4 147.4 211.4 147.4 213.42 147.15 213.42 147.15 211.67 146.75 211.94 146.72 211.71 147.18 211.4"/>
  <path class="cls-3" d="M151.8,221.4h-1.11v.15h1.25v.61h-.26v-.43h-.99v.58h-.24v-.58h-.99v.43h-.25v-.61h1.24v-.15h-1.1v-.2h2.45v.2ZM150.69,223.53c0,.07,0,.09.1.09h.83c.13,0,.16-.02.17-.31l.23.07c-.03.3-.06.46-.32.46h-.98c-.16,0-.28-.03-.28-.21v-.24h-1.08v-.98h2.41v.98h-1.09v.14ZM150.45,222.97h-.84v.23h.84v-.23ZM150.45,222.59h-.83v.21h.83v-.21ZM150.3,222h-.66v-.14h.66v.14ZM150.3,222.27h-.66v-.14h.66v.14ZM151.53,222.59h-.84v.21h.84v-.21ZM151.53,222.97h-.84v.23h.84v-.23ZM151.52,222h-.67v-.14h.67v.14ZM151.52,222.27h-.67v-.14h.67v.14Z"/>
  <path class="cls-3" d="M150.3,224.82h-1.15v-.21h1.15v.21ZM150.2,224.39h-.95v-.21h.95v.21ZM150.2,225.24h-.95v-.21h.95v.21ZM150.2,225.68h-.95v-.22h.95v.22ZM150.2,226.81h-.95v-.91h.95v.91ZM149.96,226.1h-.47v.5h.47v-.5ZM151.31,224.91h.69v.23h-.69v.49h.56v1.18h-1.38v-1.18h.57v-.49h-.71v-.23h.71v-.47c-.36.03-.49.04-.67.05l-.04-.22c.57,0,1.24-.12,1.46-.19l.1.2c-.17.06-.27.08-.6.13v.5ZM151.62,225.85h-.89v.74h.89v-.74Z"/>
  <path class="cls-3" d="M151.18,227.33s.05.04.06.05c.13-.18.17-.25.2-.31l.19.07c-.09.15-.21.31-.26.36.03.03.09.09.13.13.17-.22.19-.24.23-.3l.17.08c-.15.21-.28.37-.51.63.24-.02.26-.02.36-.02-.02-.07-.04-.1-.06-.15l.17-.07c.09.19.15.39.16.45l-.19.08c-.02-.08-.03-.11-.04-.15-.07.01-.32.03-.34.04.02,0,.18.1.28.17l-.11.13h.39v.21h-.83c.03.15.07.3.14.46.17-.16.23-.25.3-.37l.21.1c-.1.16-.21.32-.39.48.1.16.19.23.24.23.06,0,.1-.08.18-.37l.2.15c-.08.31-.17.46-.36.46-.22,0-.4-.25-.45-.32-.29.19-.53.26-.65.3l-.11-.21c.13-.03.35-.09.64-.29-.1-.23-.15-.41-.19-.61h-.59c0,.07,0,.12,0,.19.22.09.36.18.51.3l-.14.19c-.17-.16-.36-.26-.39-.28-.04.4-.16.58-.28.73l-.18-.17c.19-.25.23-.47.24-.96h-.13v-.18l-.12.17c-.04-.08-.09-.16-.15-.31v1.45h-.23v-1.36c-.06.26-.15.5-.25.68l-.13-.29c.27-.41.34-.9.36-1h-.31v-.23h.33v-.58h.23v.58h.24v.23h-.24v.14c.07.16.15.31.28.49h.89c-.08-.49-.11-.94-.11-1.43h.24c0,.46.04.86.05.98h.06c.08-.08.19-.21.23-.27-.04-.05-.16-.18-.32-.32l.13-.14ZM150.62,227.86c.1.22.14.37.16.45l-.19.07c-.01-.06-.02-.09-.03-.13-.11.01-.62.05-.65.05l-.03-.19c.05,0,.07,0,.09,0,.04-.04.11-.12.26-.3-.04-.04-.18-.19-.35-.33l.13-.14s.05.03.07.05c.12-.14.17-.21.24-.33l.19.07c-.12.18-.2.28-.29.38.05.05.09.09.13.14.15-.19.19-.24.23-.31l.16.1c-.15.21-.42.53-.54.66.11,0,.18,0,.31-.02-.03-.09-.04-.12-.06-.16l.17-.07ZM151.41,228.21c-.11,0-.21.01-.32.02,0,.08.03.19.04.27h.44s-.16-.1-.27-.16l.11-.14Z"/>
  <path class="cls-3" d="M147.94,226.5v.22h-1.48c.16-.16.45-.42.72-.74.32-.36.42-.52.42-.73,0-.24-.19-.37-.39-.37-.33,0-.48.27-.53.35l-.1-.26c.15-.2.37-.31.63-.31s.63.15.63.59c0,.19-.06.36-.27.62-.11.14-.28.34-.57.63h.94Z"/>
  <path class="cls-1" d="M148.92,186.68c-.43-.02-.82-.41-.8-1.05.02-.63.34-.74.74-.65v.45c-.13-.05-.36-.02-.4.19-.06.36.15.55.35.57.13.02.18-.11.24-.33.06-.28.16-.69.58-.65.29.03.7.25.72.93.01.42-.15.74-.64.66v-.43c.2.04.34-.05.33-.28-.02-.29-.24-.41-.36-.39-.15.02-.17.15-.23.4-.06.25-.15.62-.51.6M149.4,188.33v-.58c.05-.18.1-.27.22-.29.13-.02.35.1.36.39.01.23-.13.32-.33.29v.43c.49.08.66-.24.64-.66-.03-.68-.43-.9-.72-.93-.42-.04-.52.38-.58.65-.06.23-.11.35-.24.34-.2-.02-.41-.21-.35-.57.04-.21.27-.23.4-.18v-.45c-.4-.1-.72.01-.74.64-.02.64.37,1.03.8,1.05.06,0,.12,0,.17-.03v.91c0,.17-.08.36-.2.48-.19.17-.38.35-.57.53-.2.18-.32.47-.32.73v.36h-.24v.82h.84v-.82h-.25v-.36c0-.17.08-.36.21-.48.18-.16.36-.33.54-.49v2.63h-.33l.5.81.5-.81h-.33v-3.65c.18.17.36.33.54.5.13.12.21.31.21.48v.5c-.15.07-.25.21-.25.38,0,.23.19.42.43.42s.43-.19.43-.42c0-.17-.1-.32-.25-.38v-.5c0-.26-.12-.54-.31-.72-.19-.18-.38-.35-.57-.53-.13-.12-.21-.18-.21-.48"/>
</svg>