<?xml version="1.0" encoding="UTF-8"?>
<svg id="_レイヤー_1" data-name=" レイヤー 1" xmlns="http://www.w3.org/2000/svg" version="1.1" viewBox="0 0 306.52 90.58">
  <defs>
    <style>
      .cls-1 {
        fill: #f29600;
      }

      .cls-1, .cls-2, .cls-3 {
        stroke-width: 0px;
      }

      .cls-2 {
        fill: #1d2087;
      }

      .cls-3 {
        fill: #fff;
      }
    </style>
  </defs>
  <rect class="cls-2" x="8.47" y="24.89" width="288.31" height="47"/>
  <rect class="cls-3" x="12.21" y="28.8" width="280.67" height="39.18"/>
  <path class="cls-1" d="M71.74,40.32l2.3-6.8,10.08.11,3.18,5.7c-5.15,3.62-12.93,13.92-6.57,17.98,6.36,4.05,14.69-5.71,12.39-21.38h11.94l-2.63,6.9h-3.07c1.21,7.89-4.38,23.79-18.97,20.83-14.58-2.96-6.68-19.51-2.41-23.35h-6.25Z"/>
  <path class="cls-1" d="M138.83,49.42l-2.96-12.06-6.58,1.64.37,1.52c-1.44-1.31-3.02-1.85-4.98-1.85h-4.67l2.04-4.82h-7.56l-2.04,4.82h-4.43l-2.52,6.8h4.07l-7.47,17.65h7.56l7.47-17.65h5.36c1.53,0,2.19,1.43,1.86,2.41-.33.98-2.52,6.25-3.18,7.89-.66,1.64-1.43,2.3-2.41,2.3h-2.41l-2.08,5.04h7.67c4.27,0,5.15-3.5,6.03-5.7.68-1.7,2.68-7.1,3.54-9.43l.73,2.96,6.58-1.53Z"/>
  <polygon class="cls-1" points="148.47 46.68 141.13 46.68 145.63 33.96 152.97 33.96 148.47 46.68"/>
  <path class="cls-1" d="M160.64,33.96h7.24s-4.5,12.28-6.47,17.43c-1.97,5.15-6.25,11.62-16.77,11.62h-6.47l2.63-6.68c2.41,0,4.83.11,7.02-.33,2.19-.44,5.37-2.63,6.91-5.92,1.69-3.62,5.92-16.12,5.92-16.12"/>
  <polygon class="cls-1" points="180.71 42.51 175.67 42.51 175.11 44.05 180.15 44.05 180.71 42.51"/>
  <polygon class="cls-1" points="179.94 44.49 174.9 44.49 174.34 46.02 179.39 46.02 179.94 44.49"/>
  <polygon class="cls-1" points="192.18 42.51 187.14 42.51 186.58 44.05 191.63 44.05 192.18 42.51"/>
  <polygon class="cls-1" points="191.41 44.49 186.37 44.49 185.82 46.02 190.86 46.02 191.41 44.49"/>
  <polygon class="cls-1" points="188.19 38.13 198.79 38.13 200.43 33.96 174.68 33.96 173.03 38.13 183.07 38.13 182.81 38.78 171.06 38.78 168.42 45.47 173.92 45.47 175.22 41.97 181.47 41.97 180.06 46.13 185.32 46.13 186.73 41.97 192.98 41.97 191.68 45.47 197.47 45.47 200.1 38.78 187.93 38.78 188.19 38.13"/>
  <path class="cls-1" d="M180.36,58.48l.32-.8h6.39l-.55.8h-6.15ZM172.46,54.49l.38-.98h3.55l-.39.98h-3.54ZM174.26,49.88h3.54l-.33.89h-3.54l.33-.89ZM182.32,53.51h4.01l-.39.98h-4l.39-.98ZM183.74,49.88h4.06l-.35.89h-4.04l.33-.89ZM191.46,55.51l3.64-9h-25.42l-5.23,13.2h5.93l.81-2.04h3.54l-.81,2.04h.04-.04c-.94,2.67.62,3.28,1.42,3.28h12.93c2.84,0,5.49-4.87,5.85-6.64,0,0-1.86-.27-2.3-.44-.17-.07-.28-.22-.37-.39"/>
  <polygon class="cls-1" points="215.57 38.28 204.4 38.28 205.91 34.2 217.07 34.2 215.57 38.28"/>
  <polygon class="cls-1" points="211.85 47.76 200.68 47.76 202.19 43.68 213.35 43.68 211.85 47.76"/>
  <polygon class="cls-1" points="209.98 52.45 198.82 52.45 200.33 48.38 211.49 48.38 209.98 52.45"/>
  <path class="cls-1" d="M209.63,53.25h-11.17l-2.59,7.02h0l-1.17,3.16h5.45l.39-1.06h5.72l3.37-9.12ZM203.28,58.12h-1.12l.44-1h1.12l-.44,1Z"/>
  <path class="cls-1" d="M233.25,38.9l.12-5.67c-1.65,1.3-13.11,1.77-16.06,1.53l-.83,5.32c1.73.06,3.35.06,4.86.03l-.58,1.5h-5.67l1.1-2.9h-12.58l-1.68,4.43h12.45l-1.32,3.54h5.77l-.77,2.01h-5l-5.67,14.76h5.54l.36-.95h4.02l-.37.95h5.92l5.67-14.76h-4.92l.77-2.01h6.04l1.89-5.08h-6l.7-1.82c3.95-.37,6.24-.9,6.24-.9M219.55,56.97h-4.02l1.3-3.07h4.02l-1.3,3.07Z"/>
</svg>