<?xml version="1.0" encoding="UTF-8"?>
<svg id="_レイヤー_1" data-name=" レイヤー 1" xmlns="http://www.w3.org/2000/svg" version="1.1" viewBox="0 0 306.52 90.58">
  <defs>
    <style>
      .cls-1 {
        fill: #0b308e;
        stroke-width: 0px;
      }

      .cls-2 {
        fill: none;
        stroke: #fff;
        stroke-linecap: round;
        stroke-linejoin: round;
        stroke-width: .59px;
      }
    </style>
  </defs>
  <g>
    <g>
      <path class="cls-1" d="M283.55,47.53h6.14l-.84,3.98c-1.46,1.74-4.21,2.95-6.49,2.95-3.85,0-6.39-2.28-6.39-7.36,0-6.79,4.66-11.96,9.25-11.96,3.25,0,5.15,1.65,5.75,4.9h3.09c-.3-2.24-1.93-7.83-8.55-7.83-7.04,0-12.47,6.97-12.47,15.06,0,6.72,3.88,10.13,9.02,10.13,2.36,0,4.35-.66,6.05-1.83l1.35,1.69h1.19l2.66-12.65h-8.82l-.93,2.93Z"/>
      <path class="cls-1" d="M271.03,35.43l.92-2.93h-14.05l-3.34,11.24,1.5,1.87h0c1.72-.87,3.68-1.23,5.65-1.11,8.01.71,5.67,10.04-1.85,9.99-3.33,0-5.98-1.99-7.47-3.32,0,0-.8,2.54-.91,2.91.77.69,3.77,3.32,8.25,3.32,11.68,0,13.74-14.91,2.64-15.67-1.58-.11-3.21.02-4.4.39l1.99-6.7h11.07Z"/>
      <polygon class="cls-1" points="249.71 44.51 243.41 44.51 245.36 38.31 242.4 38.31 240.46 44.5 234.16 44.5 233.25 47.41 239.54 47.41 237.6 53.62 240.55 53.62 242.5 47.42 248.79 47.42 249.71 44.51"/>
      <path class="cls-1" d="M155.7,35.41c-1.66,0-3.28,1.34-3.63,3-.35,1.66.71,3,2.37,3s3.28-1.34,3.63-3c.35-1.66-.71-3-2.37-3"/>
      <polygon class="cls-1" points="138.31 49.93 137.94 35.53 132.22 35.53 125.76 49.93 125.54 35.53 119.83 35.53 120.78 56.49 127.35 56.49 133.64 42.34 133.9 56.49 140.52 56.49 150.33 35.53 144.61 35.53 138.31 49.93"/>
      <polygon class="cls-1" points="148.39 56.49 154.1 56.49 156.89 43.28 151.18 43.28 148.39 56.49"/>
      <polygon class="cls-1" points="173.17 49.21 172.07 35.53 163.18 35.53 158.75 56.51 164.23 56.51 167.73 39.95 169.31 56.51 173.96 56.51 182.53 39.93 179.03 56.51 184.52 56.51 188.95 35.53 180.1 35.53 173.17 49.21"/>
      <polygon class="cls-1" points="229.08 56.51 224.62 45.7 233.28 35.53 226.78 35.53 222.1 41.55 219.96 35.53 213.43 35.53 217.83 45.7 208.76 56.51 215.41 56.51 220.27 50.27 222.48 56.51 229.08 56.51"/>
      <path class="cls-1" d="M198.24,35.53l-12.35,20.98h6.17l2.32-4.44h7.83l.38,4.44h6.17l-3.19-20.98h-7.32ZM201.77,47.44h-4.94l4.15-7.71.78,7.71Z"/>
    </g>
    <path class="cls-1" d="M113.93,43.23c-1.66,0-3.28,1.34-3.63,3-.35,1.66.71,3,2.37,3s3.28-1.34,3.63-3c.35-1.66-.71-3-2.37-3"/>
    <g>
      <path class="cls-1" d="M14.79,46.34c2.87.1,6.37.36,9.82.71,0,0,.01,0,.02,0,.08,0,.16-.06.18-.14l.95-4.11c.01-.05,0-.11-.03-.15-.03-.04-.08-.07-.13-.08-2.8-.28-6.54-.58-9.85-.69,0,0,0,0,0,0-.09,0-.16.06-.18.14l-.94,4.08c-.01.05,0,.11.03.15.03.04.08.07.14.07Z"/>
      <path class="cls-1" d="M16.16,39.8c2.85.1,7.15.42,10.24.76,0,0,.01,0,.02,0,.08,0,.16-.06.18-.14l.96-4.16c.01-.05,0-.11-.03-.15-.03-.04-.08-.07-.13-.08-3.02-.31-7.06-.58-10.28-.69,0,0,0,0,0,0-.09,0-.16.06-.18.14l-.94,4.08c-.01.05,0,.11.03.15s.08.07.14.07Z"/>
      <path class="cls-1" d="M36.99,38.8s-.09-.08-.15-.08h-4.96c-.08,0-.16.06-.18.14-2.77,8.99-7.64,12.39-17.96,12.56-.09,0-.17.06-.19.15l-1.06,4.6c-.01.06,0,.12.04.16.04.05.09.07.15.07h0c6.3-.03,11.25-1.28,15.12-3.81,4.36-2.85,7.38-7.31,9.23-13.62.02-.06,0-.12-.03-.17Z"/>
      <path class="cls-1" d="M61.36,38.7h-6.54l.82-3.55c.01-.06,0-.12-.04-.16-.04-.05-.09-.07-.15-.07h-4.96c-.09,0-.17.06-.19.15l-.84,3.64h-9.84c-.09,0-.17.06-.19.15l-1.01,4.4c-.01.06,0,.12.04.16.04.05.09.07.15.07h9.67c-1.6,4.92-5.07,7.81-10.32,8.59-.08.01-.14.07-.16.15l-.99,4.27c-.01.06,0,.12.04.17.04.04.09.07.15.07,0,0,.01,0,.02,0,8.43-.79,14.17-5.37,16.62-13.24h6.71c.09,0,.17-.06.19-.15l1.01-4.4c.01-.06,0-.12-.04-.16-.04-.05-.09-.07-.15-.07Z"/>
      <path class="cls-1" d="M86.67,34.41c-.37-.47-.94-.72-1.61-.72-1.17,0-2.42.82-2.95,1.95h-17.3c-.09,0-.17.06-.19.15l-1.01,4.4c-.01.06,0,.12.04.16.04.05.09.07.15.07h14.48c-2.39,6.6-7.48,10.55-14.73,11.43-.08,0-.15.07-.17.15l-.99,4.27c-.01.06,0,.12.04.17.04.04.09.07.15.07,0,0,0,0,.01,0,4.97-.3,9.3-1.79,12.87-4.42,4.1-3.02,7.07-7.49,8.82-13.27,1.27-.2,2.45-1.3,2.74-2.55.16-.71.04-1.36-.35-1.85ZM85.37,36.27c-.11.46-.63.88-1.1.88-.22,0-.43-.1-.57-.27-.14-.17-.18-.39-.13-.61.11-.49.64-.93,1.12-.93.22,0,.42.09.55.26.14.18.19.42.13.67Z"/>
      <path class="cls-1" d="M106.57,35.64h-16.96c-.09,0-.17.06-.19.15l-1.01,4.37c-.01.06,0,.12.04.16.04.05.09.07.15.07h10.98c-2.91,6.11-9.65,10.1-15.03,11.34-.07.02-.13.07-.15.15l-1.03,4.44c-.01.06,0,.13.05.17.04.04.09.06.14.06,0,0,.02,0,.03,0,4.65-.68,9.66-2.94,13.75-6.2,1.21,3.21,3.79,5.56,7.07,6.44.02,0,.03,0,.05,0,.03,0,.07,0,.1-.03.05-.03.08-.07.09-.12l1.15-4.99c.02-.09-.02-.17-.1-.22-1.02-.53-3.46-2.11-3.95-5.47,2.42-3,4.09-6.4,4.99-10.1.01-.06,0-.12-.04-.17s-.09-.07-.15-.07Z"/>
    </g>
  </g>
  <g>
    <g>
      <path class="cls-2" d="M283.55,47.53h6.14l-.84,3.98c-1.46,1.74-4.21,2.95-6.49,2.95-3.85,0-6.39-2.28-6.39-7.36,0-6.79,4.66-11.96,9.25-11.96,3.25,0,5.15,1.65,5.75,4.9h3.09c-.3-2.24-1.93-7.83-8.55-7.83-7.04,0-12.47,6.97-12.47,15.06,0,6.72,3.88,10.13,9.02,10.13,2.36,0,4.35-.66,6.05-1.83l1.35,1.69h1.19l2.66-12.65h-8.82l-.93,2.93Z"/>
      <path class="cls-2" d="M271.03,35.43l.92-2.93h-14.05l-3.34,11.24,1.5,1.87h0c1.72-.87,3.68-1.23,5.65-1.11,8.01.71,5.67,10.04-1.85,9.99-3.33,0-5.98-1.99-7.47-3.32,0,0-.8,2.54-.91,2.91.77.69,3.77,3.32,8.25,3.32,11.68,0,13.74-14.91,2.64-15.67-1.58-.11-3.21.02-4.4.39l1.99-6.7h11.07Z"/>
      <polygon class="cls-2" points="249.71 44.51 243.41 44.51 245.36 38.31 242.4 38.31 240.46 44.5 234.16 44.5 233.25 47.41 239.54 47.41 237.6 53.62 240.55 53.62 242.5 47.42 248.79 47.42 249.71 44.51"/>
      <path class="cls-2" d="M155.7,35.41c-1.66,0-3.28,1.34-3.63,3-.35,1.66.71,3,2.37,3s3.28-1.34,3.63-3c.35-1.66-.71-3-2.37-3"/>
      <polygon class="cls-2" points="138.31 49.93 137.94 35.53 132.22 35.53 125.76 49.93 125.54 35.53 119.83 35.53 120.78 56.49 127.35 56.49 133.64 42.34 133.9 56.49 140.52 56.49 150.33 35.53 144.61 35.53 138.31 49.93"/>
      <polygon class="cls-2" points="148.39 56.49 154.1 56.49 156.89 43.28 151.18 43.28 148.39 56.49"/>
      <polygon class="cls-2" points="173.17 49.21 172.07 35.53 163.18 35.53 158.75 56.51 164.23 56.51 167.73 39.95 169.31 56.51 173.96 56.51 182.53 39.93 179.03 56.51 184.52 56.51 188.95 35.53 180.1 35.53 173.17 49.21"/>
      <polygon class="cls-2" points="229.08 56.51 224.62 45.7 233.28 35.53 226.78 35.53 222.1 41.55 219.96 35.53 213.43 35.53 217.83 45.7 208.76 56.51 215.41 56.51 220.27 50.27 222.48 56.51 229.08 56.51"/>
      <path class="cls-2" d="M198.24,35.53l-12.35,20.98h6.17l2.32-4.44h7.83l.38,4.44h6.17l-3.19-20.98h-7.32ZM201.77,47.44h-4.94l4.15-7.71.78,7.71Z"/>
    </g>
    <path class="cls-2" d="M113.93,43.23c-1.66,0-3.28,1.34-3.63,3-.35,1.66.71,3,2.37,3s3.28-1.34,3.63-3c.35-1.66-.71-3-2.37-3"/>
    <g>
      <path class="cls-2" d="M14.79,46.34c2.87.1,6.37.36,9.82.71,0,0,.01,0,.02,0,.08,0,.16-.06.18-.14l.95-4.11c.01-.05,0-.11-.03-.15-.03-.04-.08-.07-.13-.08-2.8-.28-6.54-.58-9.85-.69,0,0,0,0,0,0-.09,0-.16.06-.18.14l-.94,4.08c-.01.05,0,.11.03.15.03.04.08.07.14.07Z"/>
      <path class="cls-2" d="M16.16,39.8c2.85.1,7.15.42,10.24.76,0,0,.01,0,.02,0,.08,0,.16-.06.18-.14l.96-4.16c.01-.05,0-.11-.03-.15-.03-.04-.08-.07-.13-.08-3.02-.31-7.06-.58-10.28-.69,0,0,0,0,0,0-.09,0-.16.06-.18.14l-.94,4.08c-.01.05,0,.11.03.15s.08.07.14.07Z"/>
      <path class="cls-2" d="M36.99,38.8s-.09-.08-.15-.08h-4.96c-.08,0-.16.06-.18.14-2.77,8.99-7.64,12.39-17.96,12.56-.09,0-.17.06-.19.15l-1.06,4.6c-.01.06,0,.12.04.16.04.05.09.07.15.07h0c6.3-.03,11.25-1.28,15.12-3.81,4.36-2.85,7.38-7.31,9.23-13.62.02-.06,0-.12-.03-.17Z"/>
      <path class="cls-2" d="M61.36,38.7h-6.54l.82-3.55c.01-.06,0-.12-.04-.16-.04-.05-.09-.07-.15-.07h-4.96c-.09,0-.17.06-.19.15l-.84,3.64h-9.84c-.09,0-.17.06-.19.15l-1.01,4.4c-.01.06,0,.12.04.16.04.05.09.07.15.07h9.67c-1.6,4.92-5.07,7.81-10.32,8.59-.08.01-.14.07-.16.15l-.99,4.27c-.01.06,0,.12.04.17.04.04.09.07.15.07,0,0,.01,0,.02,0,8.43-.79,14.17-5.37,16.62-13.24h6.71c.09,0,.17-.06.19-.15l1.01-4.4c.01-.06,0-.12-.04-.16-.04-.05-.09-.07-.15-.07Z"/>
      <g>
        <path class="cls-2" d="M86.67,34.41c-.37-.47-.94-.72-1.61-.72-1.17,0-2.42.82-2.95,1.95h-17.3c-.09,0-.17.06-.19.15l-1.01,4.4c-.01.06,0,.12.04.16.04.05.09.07.15.07h14.48c-2.39,6.6-7.48,10.55-14.73,11.43-.08,0-.15.07-.17.15l-.99,4.27c-.01.06,0,.12.04.17.04.04.09.07.15.07,0,0,0,0,.01,0,4.97-.3,9.3-1.79,12.87-4.42,4.1-3.02,7.07-7.49,8.82-13.27,1.27-.2,2.45-1.3,2.74-2.55.16-.71.04-1.36-.35-1.85ZM85.37,36.27c-.11.46-.63.88-1.1.88-.22,0-.43-.1-.57-.27-.14-.17-.18-.39-.13-.61.11-.49.64-.93,1.12-.93.22,0,.42.09.55.26.14.18.19.42.13.67Z"/>
        <path class="cls-2" d="M86.67,34.41c-.37-.47-.94-.72-1.61-.72-1.17,0-2.42.82-2.95,1.95h-17.3c-.09,0-.17.06-.19.15l-1.01,4.4c-.01.06,0,.12.04.16.04.05.09.07.15.07h14.48c-2.39,6.6-7.48,10.55-14.73,11.43-.08,0-.15.07-.17.15l-.99,4.27c-.01.06,0,.12.04.17.04.04.09.07.15.07,0,0,0,0,.01,0,4.97-.3,9.3-1.79,12.87-4.42,4.1-3.02,7.07-7.49,8.82-13.27,1.27-.2,2.45-1.3,2.74-2.55.16-.71.04-1.36-.35-1.85ZM85.37,36.27c-.11.46-.63.88-1.1.88-.22,0-.43-.1-.57-.27-.14-.17-.18-.39-.13-.61.11-.49.64-.93,1.12-.93.22,0,.42.09.55.26.14.18.19.42.13.67Z"/>
        <path class="cls-2" d="M86.67,34.41c-.37-.47-.94-.72-1.61-.72-1.17,0-2.42.82-2.95,1.95h-17.3c-.09,0-.17.06-.19.15l-1.01,4.4c-.01.06,0,.12.04.16.04.05.09.07.15.07h14.48c-2.39,6.6-7.48,10.55-14.73,11.43-.08,0-.15.07-.17.15l-.99,4.27c-.01.06,0,.12.04.17.04.04.09.07.15.07,0,0,0,0,.01,0,4.97-.3,9.3-1.79,12.87-4.42,4.1-3.02,7.07-7.49,8.82-13.27,1.27-.2,2.45-1.3,2.74-2.55.16-.71.04-1.36-.35-1.85ZM85.37,36.27c-.11.46-.63.88-1.1.88-.22,0-.43-.1-.57-.27-.14-.17-.18-.39-.13-.61.11-.49.64-.93,1.12-.93.22,0,.42.09.55.26.14.18.19.42.13.67Z"/>
      </g>
      <path class="cls-2" d="M106.57,35.64h-16.96c-.09,0-.17.06-.19.15l-1.01,4.37c-.01.06,0,.12.04.16.04.05.09.07.15.07h10.98c-2.91,6.11-9.65,10.1-15.03,11.34-.07.02-.13.07-.15.15l-1.03,4.44c-.01.06,0,.13.05.17.04.04.09.06.14.06,0,0,.02,0,.03,0,4.65-.68,9.66-2.94,13.75-6.2,1.21,3.21,3.79,5.56,7.07,6.44.02,0,.03,0,.05,0,.03,0,.07,0,.1-.03.05-.03.08-.07.09-.12l1.15-4.99c.02-.09-.02-.17-.1-.22-1.02-.53-3.46-2.11-3.95-5.47,2.42-3,4.09-6.4,4.99-10.1.01-.06,0-.12-.04-.17s-.09-.07-.15-.07Z"/>
    </g>
  </g>
  <g>
    <g>
      <path class="cls-1" d="M283.55,47.53h6.14l-.84,3.98c-1.46,1.74-4.21,2.95-6.49,2.95-3.85,0-6.39-2.28-6.39-7.36,0-6.79,4.66-11.96,9.25-11.96,3.25,0,5.15,1.65,5.75,4.9h3.09c-.3-2.24-1.93-7.83-8.55-7.83-7.04,0-12.47,6.97-12.47,15.06,0,6.72,3.88,10.13,9.02,10.13,2.36,0,4.35-.66,6.05-1.83l1.35,1.69h1.19l2.66-12.65h-8.82l-.93,2.93Z"/>
      <path class="cls-1" d="M271.03,35.43l.92-2.93h-14.05l-3.34,11.24,1.5,1.87h0c1.72-.87,3.68-1.23,5.65-1.11,8.01.71,5.67,10.04-1.85,9.99-3.33,0-5.98-1.99-7.47-3.32,0,0-.8,2.54-.91,2.91.77.69,3.77,3.32,8.25,3.32,11.68,0,13.74-14.91,2.64-15.67-1.58-.11-3.21.02-4.4.39l1.99-6.7h11.07Z"/>
      <polygon class="cls-1" points="249.71 44.51 243.41 44.51 245.36 38.31 242.4 38.31 240.46 44.5 234.16 44.5 233.25 47.41 239.54 47.41 237.6 53.62 240.55 53.62 242.5 47.42 248.79 47.42 249.71 44.51"/>
      <path class="cls-1" d="M155.7,35.41c-1.66,0-3.28,1.34-3.63,3-.35,1.66.71,3,2.37,3s3.28-1.34,3.63-3c.35-1.66-.71-3-2.37-3"/>
      <polygon class="cls-1" points="138.31 49.93 137.94 35.53 132.22 35.53 125.76 49.93 125.54 35.53 119.83 35.53 120.78 56.49 127.35 56.49 133.64 42.34 133.9 56.49 140.52 56.49 150.33 35.53 144.61 35.53 138.31 49.93"/>
      <polygon class="cls-1" points="148.39 56.49 154.1 56.49 156.89 43.28 151.18 43.28 148.39 56.49"/>
      <polygon class="cls-1" points="173.17 49.21 172.07 35.53 163.18 35.53 158.75 56.51 164.23 56.51 167.73 39.95 169.31 56.51 173.96 56.51 182.53 39.93 179.03 56.51 184.52 56.51 188.95 35.53 180.1 35.53 173.17 49.21"/>
      <polygon class="cls-1" points="229.08 56.51 224.62 45.7 233.28 35.53 226.78 35.53 222.1 41.55 219.96 35.53 213.43 35.53 217.83 45.7 208.76 56.51 215.41 56.51 220.27 50.27 222.48 56.51 229.08 56.51"/>
      <path class="cls-1" d="M198.24,35.53l-12.35,20.98h6.17l2.32-4.44h7.83l.38,4.44h6.17l-3.19-20.98h-7.32ZM201.77,47.44h-4.94l4.15-7.71.78,7.71Z"/>
    </g>
    <path class="cls-1" d="M113.93,43.23c-1.66,0-3.28,1.34-3.63,3-.35,1.66.71,3,2.37,3s3.28-1.34,3.63-3c.35-1.66-.71-3-2.37-3"/>
    <g>
      <path class="cls-1" d="M14.79,46.34c2.87.1,6.37.36,9.82.71,0,0,.01,0,.02,0,.08,0,.16-.06.18-.14l.95-4.11c.01-.05,0-.11-.03-.15-.03-.04-.08-.07-.13-.08-2.8-.28-6.54-.58-9.85-.69,0,0,0,0,0,0-.09,0-.16.06-.18.14l-.94,4.08c-.01.05,0,.11.03.15.03.04.08.07.14.07Z"/>
      <path class="cls-1" d="M16.16,39.8c2.85.1,7.15.42,10.24.76,0,0,.01,0,.02,0,.08,0,.16-.06.18-.14l.96-4.16c.01-.05,0-.11-.03-.15-.03-.04-.08-.07-.13-.08-3.02-.31-7.06-.58-10.28-.69,0,0,0,0,0,0-.09,0-.16.06-.18.14l-.94,4.08c-.01.05,0,.11.03.15s.08.07.14.07Z"/>
      <path class="cls-1" d="M36.99,38.8s-.09-.08-.15-.08h-4.96c-.08,0-.16.06-.18.14-2.77,8.99-7.64,12.39-17.96,12.56-.09,0-.17.06-.19.15l-1.06,4.6c-.01.06,0,.12.04.16.04.05.09.07.15.07h0c6.3-.03,11.25-1.28,15.12-3.81,4.36-2.85,7.38-7.31,9.23-13.62.02-.06,0-.12-.03-.17Z"/>
      <path class="cls-1" d="M61.36,38.7h-6.54l.82-3.55c.01-.06,0-.12-.04-.16-.04-.05-.09-.07-.15-.07h-4.96c-.09,0-.17.06-.19.15l-.84,3.64h-9.84c-.09,0-.17.06-.19.15l-1.01,4.4c-.01.06,0,.12.04.16.04.05.09.07.15.07h9.67c-1.6,4.92-5.07,7.81-10.32,8.59-.08.01-.14.07-.16.15l-.99,4.27c-.01.06,0,.12.04.17.04.04.09.07.15.07,0,0,.01,0,.02,0,8.43-.79,14.17-5.37,16.62-13.24h6.71c.09,0,.17-.06.19-.15l1.01-4.4c.01-.06,0-.12-.04-.16-.04-.05-.09-.07-.15-.07Z"/>
      <g>
        <path class="cls-1" d="M86.67,34.41c-.37-.47-.94-.72-1.61-.72-1.17,0-2.42.82-2.95,1.95h-17.3c-.09,0-.17.06-.19.15l-1.01,4.4c-.01.06,0,.12.04.16.04.05.09.07.15.07h14.48c-2.39,6.6-7.48,10.55-14.73,11.43-.08,0-.15.07-.17.15l-.99,4.27c-.01.06,0,.12.04.17.04.04.09.07.15.07,0,0,0,0,.01,0,4.97-.3,9.3-1.79,12.87-4.42,4.1-3.02,7.07-7.49,8.82-13.27,1.27-.2,2.45-1.3,2.74-2.55.16-.71.04-1.36-.35-1.85ZM85.37,36.27c-.11.46-.63.88-1.1.88-.22,0-.43-.1-.57-.27-.14-.17-.18-.39-.13-.61.11-.49.64-.93,1.12-.93.22,0,.42.09.55.26.14.18.19.42.13.67Z"/>
        <path class="cls-1" d="M86.67,34.41c-.37-.47-.94-.72-1.61-.72-1.17,0-2.42.82-2.95,1.95h-17.3c-.09,0-.17.06-.19.15l-1.01,4.4c-.01.06,0,.12.04.16.04.05.09.07.15.07h14.48c-2.39,6.6-7.48,10.55-14.73,11.43-.08,0-.15.07-.17.15l-.99,4.27c-.01.06,0,.12.04.17.04.04.09.07.15.07,0,0,0,0,.01,0,4.97-.3,9.3-1.79,12.87-4.42,4.1-3.02,7.07-7.49,8.82-13.27,1.27-.2,2.45-1.3,2.74-2.55.16-.71.04-1.36-.35-1.85ZM85.37,36.27c-.11.46-.63.88-1.1.88-.22,0-.43-.1-.57-.27-.14-.17-.18-.39-.13-.61.11-.49.64-.93,1.12-.93.22,0,.42.09.55.26.14.18.19.42.13.67Z"/>
        <path class="cls-1" d="M86.67,34.41c-.37-.47-.94-.72-1.61-.72-1.17,0-2.42.82-2.95,1.95h-17.3c-.09,0-.17.06-.19.15l-1.01,4.4c-.01.06,0,.12.04.16.04.05.09.07.15.07h14.48c-2.39,6.6-7.48,10.55-14.73,11.43-.08,0-.15.07-.17.15l-.99,4.27c-.01.06,0,.12.04.17.04.04.09.07.15.07,0,0,0,0,.01,0,4.97-.3,9.3-1.79,12.87-4.42,4.1-3.02,7.07-7.49,8.82-13.27,1.27-.2,2.45-1.3,2.74-2.55.16-.71.04-1.36-.35-1.85ZM85.37,36.27c-.11.46-.63.88-1.1.88-.22,0-.43-.1-.57-.27-.14-.17-.18-.39-.13-.61.11-.49.64-.93,1.12-.93.22,0,.42.09.55.26.14.18.19.42.13.67Z"/>
      </g>
      <path class="cls-1" d="M106.57,35.64h-16.96c-.09,0-.17.06-.19.15l-1.01,4.37c-.01.06,0,.12.04.16.04.05.09.07.15.07h10.98c-2.91,6.11-9.65,10.1-15.03,11.34-.07.02-.13.07-.15.15l-1.03,4.44c-.01.06,0,.13.05.17.04.04.09.06.14.06,0,0,.02,0,.03,0,4.65-.68,9.66-2.94,13.75-6.2,1.21,3.21,3.79,5.56,7.07,6.44.02,0,.03,0,.05,0,.03,0,.07,0,.1-.03.05-.03.08-.07.09-.12l1.15-4.99c.02-.09-.02-.17-.1-.22-1.02-.53-3.46-2.11-3.95-5.47,2.42-3,4.09-6.4,4.99-10.1.01-.06,0-.12-.04-.17s-.09-.07-.15-.07Z"/>
    </g>
  </g>
</svg>