<?xml version="1.0" encoding="UTF-8"?>
<svg id="_レイヤー_1" data-name=" レイヤー 1" xmlns="http://www.w3.org/2000/svg" version="1.1" viewBox="0 0 306.52 90.58">
  <defs>
    <style>
      .cls-1 {
        fill: #f39800;
      }

      .cls-1, .cls-2 {
        stroke-width: 0px;
      }

      .cls-2 {
        fill: #0081cc;
      }
    </style>
  </defs>
  <path class="cls-2" d="M20.99,56.31c3.77.13,8.38.47,12.92.94,0,0,.02,0,.02,0,.11,0,.21-.08.24-.19l1.25-5.41c.02-.07,0-.14-.04-.2-.04-.06-.1-.09-.17-.1-3.68-.36-8.61-.77-12.96-.9,0,0,0,0,0,0-.11,0-.21.08-.24.19l-1.24,5.38c-.02.07,0,.14.04.2.04.06.11.09.18.09Z"/>
  <path class="cls-2" d="M22.79,47.7c3.74.14,9.41.56,13.47,1,0,0,.02,0,.03,0,.11,0,.21-.08.24-.19l1.26-5.47c.02-.07,0-.14-.04-.2-.04-.06-.1-.09-.17-.1-3.98-.41-9.29-.76-13.53-.9,0,0,0,0,0,0-.11,0-.21.08-.24.19l-1.24,5.38c-.02.07,0,.14.04.2s.11.09.18.09Z"/>
  <path class="cls-2" d="M50.2,46.38c-.05-.06-.12-.1-.2-.1h-6.53c-.11,0-.21.07-.24.18-3.64,11.83-10.05,16.31-23.64,16.53-.12,0-.22.08-.24.2l-1.4,6.05c-.02.08,0,.16.05.22.05.06.12.1.2.1h0c8.3-.04,14.81-1.68,19.9-5.01,5.74-3.75,9.71-9.61,12.14-17.93.02-.08,0-.16-.04-.22Z"/>
  <path class="cls-2" d="M82.27,46.26h-8.61l1.08-4.67c.02-.08,0-.16-.05-.22-.05-.06-.12-.1-.2-.1h-6.53c-.12,0-.22.08-.25.2l-1.11,4.79h-12.95c-.12,0-.22.08-.25.2l-1.34,5.78c-.02.08,0,.16.05.22.05.06.12.1.2.1h12.73c-2.1,6.48-6.67,10.28-13.58,11.3-.1.02-.19.09-.21.19l-1.3,5.62c-.02.08,0,.16.06.22.05.06.12.09.19.09,0,0,.02,0,.02,0,11.09-1.04,18.65-7.07,21.87-17.43h8.83c.12,0,.22-.08.25-.2l1.34-5.78c.02-.08,0-.16-.05-.22-.05-.06-.12-.1-.2-.1Z"/>
  <path class="cls-2" d="M115.57,40.61c-.49-.61-1.24-.95-2.11-.95-1.55,0-3.18,1.08-3.89,2.57h-22.77c-.12,0-.22.08-.25.2l-1.34,5.78c-.02.08,0,.16.05.22.05.06.12.1.2.1h19.06c-3.14,8.68-9.84,13.88-19.38,15.04-.11.01-.19.09-.22.2l-1.3,5.62c-.02.08,0,.16.05.22.05.06.12.09.19.09,0,0,.01,0,.02,0,6.54-.4,12.24-2.36,16.93-5.82,5.4-3.98,9.3-9.85,11.6-17.46,1.68-.26,3.23-1.71,3.61-3.36.21-.93.05-1.79-.47-2.44ZM113.86,43.05c-.14.6-.83,1.15-1.45,1.15-.3,0-.57-.13-.74-.35-.18-.22-.24-.52-.18-.8.15-.65.84-1.22,1.47-1.22.29,0,.56.12.73.34.19.23.25.55.18.88Z"/>
  <path class="cls-2" d="M141.78,42.23h-22.31c-.12,0-.22.08-.25.2l-1.33,5.75c-.02.08,0,.16.05.22.05.06.12.1.2.1h14.44c-3.83,8.04-12.69,13.29-19.78,14.93-.1.02-.17.1-.19.19l-1.35,5.84c-.02.08,0,.17.06.23.05.05.12.08.19.08.01,0,.02,0,.04,0,6.12-.9,12.71-3.87,18.1-8.15,1.59,4.23,4.98,7.32,9.31,8.47.02,0,.04,0,.07,0,.05,0,.09-.01.13-.04.06-.04.1-.09.12-.16l1.52-6.57c.03-.11-.03-.23-.13-.28-1.35-.69-4.55-2.78-5.19-7.19,3.18-3.95,5.39-8.43,6.56-13.3.02-.08,0-.16-.05-.22s-.12-.1-.2-.1Z"/>
  <path class="cls-1" d="M154.78,40.43h7.59c.08,0,.14-.08.12-.15l-3.01-13.48s0-.02,0-.04c.03-1.12.94-2.03,2.06-2.03h-10.27c-.08,0-.14.08-.12.15l3.51,15.45c.01.06.06.1.12.1Z"/>
  <path class="cls-1" d="M192.46,59.73h-6.98c-.09,0-.17.06-.2.14l-1.23,3.79c-.03.09-.11.14-.2.14h-6.76c-.12,0-.22-.11-.21-.23l1.8-15.03c.01-.1.1-.18.21-.18h10.1c.09,0,.17-.06.2-.14l.67-2.06-.05.42c.51-2.53,1.83-4.43,3.39-4.43h-20.31c-.13,0-.22-.11-.2-.24l2.68-17.74c.26-1.34,1.63-3.18,3.95-3.67h-11.49c-.1,0-.19.07-.2.18l-3.22,21.29c-.02.1-.1.18-.2.18h-15.71c-.09,0-.17.06-.2.14l-1.85,5.8c-.04.13.06.27.2.27h9.52c.16,0,.26.18.17.32l-13.28,20.98c-.09.14.01.32.17.32h10.56c.07,0,.14-.04.18-.1l12.15-21.4c.04-.06.11-.1.18-.1h2.76c.12,0,.22.11.21.23l-2.76,21.15c-.02.12.08.23.21.23h3.08s0,0,0,0h19.36l1.03-3.2,1.72-5.3s.01-.03.02-.04c.57-1.01,1.65-1.7,2.89-1.7h-2.34Z"/>
  <path class="cls-1" d="M196.14,24.72h-11.65s-.09.02-.11.06l-9.05,15.45c-.05.08.01.19.11.19h7.92s.09-.02.11-.06l8.28-13.53.09-.14c.05-.06.11-.12.16-.18.7-.47,3.15-1.69,4.14-1.79Z"/>
  <g>
    <path class="cls-1" d="M213.91,69.73c-6.44,0-11.04-1.5-13.29-4.34-1.54-1.94-2-4.52-1.32-7.46,1.16-5.02,4.04-7.57,6.89-9.58-.07,0-10.8,0-10.8,0-.12,0-.23-.05-.31-.14-.08-.09-.11-.22-.08-.34l1.28-5.58c.04-.18.2-.3.38-.31,0,0,27.45.15,27.45.15.12,0,.23.05.31.15.08.09.11.22.08.34l-1.07,5.21c-.04.18-.2.31-.39.31-7.54.02-15.38,4.23-16.45,8.84-.34,1.49-.16,2.7.56,3.6,1.62,2.03,5.73,2.33,9.54,2.35.12,0,.23.06.31.15.08.09.1.22.08.34l-1.38,5.99c-.04.17-.19.3-.37.31-.48.02-.95.02-1.4.02ZM219.82,53.96c-.12,0-.24-.06-.31-.15-.08-.09-.1-.22-.08-.34l.83-3.59c.04-.18.2-.31.39-.31h3.16c.12,0,.24.06.31.15.08.09.1.22.08.34l-.83,3.59c-.04.18-.2.31-.39.31h-3.16ZM215.02,53.96c-.12,0-.24-.06-.31-.15-.08-.09-.1-.22-.08-.34l.83-3.59c.04-.18.2-.31.39-.31h3.13c.12,0,.24.06.31.15.08.09.1.22.08.34l-.83,3.59c-.04.18-.2.31-.39.31h-3.13Z"/>
    <path class="cls-1" d="M243.07,69.63c-2.46,0-4.27-.64-5.24-1.86-.78-.98-.99-2.26-.63-3.82l1.11-4.79c.08-.36.2-.84,0-1.09-.03-.04-.14-.17-.46-.17-1.06,0-2.44,1.22-3.59,3.2-1.37,2.28-3.08,5.9-3.99,7.84-.06.14-.22.25-.37.25h-6.32c-.14,0-.26-.07-.34-.19s-.08-.26-.02-.38c4.88-9.91,10.02-20.23,14.67-27.96.07-.12.2-.19.34-.19h6.61c.15,0,.28.08.35.21.07.13.06.29-.02.41-2.35,3.48-5.77,9.37-6.8,11.24.8-.38,2.21-.82,3.52-.82,1.44,0,2.48.39,3.08,1.15.71.89.84,2.32.4,4.26l-1.12,4.86c-.03.11-.1.44.05.63.1.13.3.19.61.19,1.87,0,3.83-3.8,5.4-10.44.04-.18.2-.31.39-.31h6.12c.12,0,.24.06.31.15.08.1.1.22.07.34-2.74,11.47-7.49,17.29-14.12,17.29Z"/>
    <path class="cls-1" d="M263.67,70c-.12,0-.24-.06-.31-.15-.08-.09-.1-.22-.08-.34l1.93-8.35c-1.68,1.63-4.11,3.62-6.2,5.05-.07.05-.15.07-.22.07s-.16-.02-.22-.07c-.14-.09-.2-.26-.16-.42l1.68-7.25c.02-.09.07-.17.14-.22,2.01-1.59,4.87-3.98,7.13-6.37l.08-.34h-5.25c-.12,0-.24-.06-.31-.15-.08-.09-.1-.22-.08-.34l1.25-5.39c.04-.18.2-.31.39-.31h5.43l1.12-4.86c.04-.18.2-.31.39-.31h5.71c.12,0,.24.06.31.15.08.09.1.22.08.34l-1.07,4.61c.92-.55,3.73-2.24,7.39-2.24,2.9,0,5.07.89,6.47,2.65,1.72,2.16,2.12,5.47,1.17,9.59-2.02,8.73-8.27,13.85-17.15,14.03,0,0,0,0,0,0-.12,0-.23-.05-.31-.15-.08-.09-.11-.22-.08-.34l1.25-5.43c.04-.16.17-.28.33-.3,4.82-.65,8.16-3.49,9.15-7.78.48-2.08.33-3.69-.44-4.66-.54-.68-1.37-1.02-2.46-1.02-2.76,0-5.01,1.93-6.82,3.47l-.51.43-3.71,16.08c-.04.18-.2.31-.39.31h-5.61Z"/>
  </g>
</svg>