<?xml version="1.0" encoding="UTF-8"?>
<svg id="_レイヤー_1" data-name=" レイヤー 1" xmlns="http://www.w3.org/2000/svg" version="1.1" viewBox="0 0 306.52 90.58">
  <defs>
    <style>
      .cls-1 {
        fill: #f29600;
      }

      .cls-1, .cls-2, .cls-3 {
        stroke-width: 0px;
      }

      .cls-2 {
        fill: #1d2087;
      }

      .cls-3 {
        fill: #fff;
      }
    </style>
  </defs>
  <rect class="cls-3" x="156.15" y="25.79" width="128.72" height="38.99"/>
  <path class="cls-2" d="M25.67,66.55h260.97V24.03H25.67v42.52ZM283.11,63.01h-125.18V27.56h125.18v35.45Z"/>
  <polygon class="cls-3" points="43.75 58.6 60.26 38.65 61.97 32.05 35.44 32.05 33.26 38.52 52.42 38.52 34.95 58.59 43.75 58.6"/>
  <polygon class="cls-3" points="68.91 58.61 85.44 46.6 81.4 42.61 67.87 51.38 67.69 51.38 74.52 32.05 68.17 32.05 58.56 58.61 68.91 58.61"/>
  <polygon class="cls-3" points="137.75 31.95 131 31.95 127.23 42.72 133.92 42.72 137.75 31.95"/>
  <polygon class="cls-3" points="128.02 31.95 121.5 31.95 117.59 42.72 124.14 42.72 128.02 31.95"/>
  <polygon class="cls-3" points="149.78 31.95 141.94 31.94 132.43 58.4 140.25 58.4 149.78 31.95"/>
  <polygon class="cls-3" points="104.51 37.43 99.11 37.43 96.19 46.05 101.54 46.05 104.51 37.43"/>
  <polygon class="cls-3" points="96.69 37.43 91.47 37.43 88.44 46.05 93.69 46.05 96.69 37.43"/>
  <polygon class="cls-3" points="114.51 37.43 108.33 37.43 100.73 58.55 106.78 58.55 114.51 37.43"/>
  <polygon class="cls-1" points="209.15 39.33 214.09 31.79 207.39 31.79 202.43 39.33 209.15 39.33"/>
  <polygon class="cls-1" points="193.4 39.28 192.61 31.79 186.41 31.79 187.2 39.28 193.4 39.28"/>
  <polygon class="cls-1" points="211.12 46.48 212.9 40.75 200.29 40.75 203.03 31.79 196.84 31.79 194.09 40.75 183 40.75 181.22 46.48 188.2 46.48 186.7 51.16 178.62 58.79 186.28 58.79 192.58 52.5 194.54 46.48 196.79 46.48 193.03 58.79 207.26 58.79 209.95 50.07 204.06 50.07 202.83 53.65 200.76 53.65 202.97 46.48 211.12 46.48"/>
  <polygon class="cls-1" points="242.05 46.49 232.5 46.5 227.75 53.21 230.99 53.21 233.77 49.41 237.81 49.41 230.37 58.78 234.09 58.78 241.4 49.54 242.05 46.49"/>
  <polygon class="cls-1" points="264.62 53.94 265.75 50.4 260.08 50.41 261.49 45.76 258.12 45.76 254.21 58.78 257.56 58.78 259.02 53.94 264.62 53.94"/>
  <polygon class="cls-1" points="252.58 49.45 253.52 46.5 243.83 46.5 242.91 49.45 248.77 49.45 240.68 58.78 244.33 58.78 247.37 55.34 249.37 58.78 253.08 58.78 249.64 52.78 252.58 49.45"/>
  <polygon class="cls-1" points="225.36 57.11 226.4 53.78 223.86 51.83 227.61 49.86 228.49 47.08 224.14 47.08 224.56 45.74 221.68 45.74 221.24 47.08 216.96 47.08 216.11 49.91 222.69 49.91 214.79 54.05 213.78 57.19 218.89 54.49 217.52 58.78 220.4 58.78 221.81 54.36 225.36 57.11"/>
</svg>