<?xml version="1.0" encoding="UTF-8"?>
<svg id="_レイヤー_1" data-name="レイヤー 1" xmlns="http://www.w3.org/2000/svg" version="1.1" viewBox="0 0 283.46 283.46">
  <defs>
    <style>
      .cls-1 {
        stroke-width: .61px;
      }

      .cls-1, .cls-2, .cls-3, .cls-4, .cls-5, .cls-6, .cls-7, .cls-8, .cls-9, .cls-10 {
        fill: none;
      }

      .cls-1, .cls-2, .cls-3, .cls-4, .cls-5, .cls-6, .cls-7, .cls-9, .cls-10 {
        stroke-linecap: round;
        stroke-linejoin: round;
      }

      .cls-1, .cls-2, .cls-3, .cls-4, .cls-5, .cls-7, .cls-8, .cls-9, .cls-10 {
        stroke: #231815;
      }

      .cls-2, .cls-6 {
        stroke-width: .79px;
      }

      .cls-11 {
        fill: #231815;
      }

      .cls-11, .cls-12, .cls-13, .cls-14 {
        stroke-width: 0px;
      }

      .cls-3 {
        stroke-width: 1.91px;
      }

      .cls-4 {
        stroke-width: .95px;
      }

      .cls-5 {
        stroke-width: 1.32px;
      }

      .cls-6 {
        stroke: #fff;
      }

      .cls-7 {
        stroke-width: .38px;
      }

      .cls-8, .cls-10 {
        stroke-width: .59px;
      }

      .cls-12 {
        fill: #666464;
      }

      .cls-13 {
        fill: #d3d3d4;
      }

      .cls-9 {
        stroke-width: .66px;
      }

      .cls-14 {
        fill: #fff;
      }
    </style>
  </defs>
  <path class="cls-12" d="M192.04,231.91l2.79-1.83,8.57,5.06,1.17,4.07,8.93,5.16c.32.18.41.54.41.91v1.09s-40.19,23.3-40.19,23.3c-.5.26-1.62.26-1.97.04l-98.82-56.92-.02-1.26c0-.31.06-.65.51-.88l8.03-4.43c-.56-.42-.17-1.3.34-1.61l23.42-13.85,1.54.54,6.2-3.56c.64-.37,1.23-.62,2.1-.08l7.19,4.1.11-.02,3-1.68,8.5,4.92,1.98,4.58,56.22,32.35Z"/>
  <path class="cls-3" d="M192.04,231.91l2.79-1.83,8.57,5.06,1.17,4.07,8.93,5.16c.32.18.41.54.41.91v1.09s-40.19,23.3-40.19,23.3c-.5.26-1.62.26-1.97.04l-98.82-56.92-.02-1.26c0-.31.06-.65.51-.88l8.03-4.43c-.56-.42-.17-1.3.34-1.61l23.42-13.85,1.54.54,6.2-3.56c.64-.37,1.23-.62,2.1-.08l7.19,4.1.11-.02,3-1.68,8.5,4.92,1.98,4.58,56.22,32.35Z"/>
  <line class="cls-10" x1="181.18" y1="263.56" x2="173.5" y2="267.99"/>
  <line class="cls-10" x1="212.03" y1="245.02" x2="205.09" y2="249.25"/>
  <path class="cls-5" d="M106.75,191.3c.85.52,97.48,56.14,97.48,56.14.47.3.84,1.04.86,1.81"/>
  <path class="cls-10" d="M81.95,206.32c.87.52,99.22,57.27,99.22,57.27"/>
  <path class="cls-10" d="M82.17,204.74c.85.51,99.21,57.27,99.21,57.27"/>
  <line class="cls-10" x1="181.76" y1="262.06" x2="204.01" y2="248.87"/>
  <path class="cls-2" d="M113.01,205.69c.04,1.15-1.37,2.07-3.14,2.1-1.78.03-3.25-.85-3.29-2"/>
  <path class="cls-10" d="M106.58,205.79c-.04-1.13,1.37-2.08,3.15-2.11,1.77-.02,3.24.87,3.28,2"/>
  <path class="cls-10" d="M106.69,206.27c.34-.88,1.58-1.56,3.07-1.58,1.48-.03,2.76.61,3.15,1.46"/>
  <path class="cls-2" d="M111.36,206.72c.03.54-.65,1.01-1.5,1.01-.86.02-1.57-.42-1.59-.97"/>
  <path class="cls-10" d="M108.27,206.77c-.02-.54.66-1.01,1.52-1.01.86-.03,1.57.42,1.58.96"/>
  <path class="cls-2" d="M182.52,245.99c.03,1.22-1.49,2.24-3.42,2.26-1.93.03-3.5-.94-3.54-2.16"/>
  <path class="cls-10" d="M175.56,246.1c-.03-1.23,1.48-2.24,3.39-2.28,1.93-.01,3.52.95,3.56,2.18"/>
  <path class="cls-10" d="M175.67,246.61c.36-.96,1.71-1.69,3.33-1.7,1.61-.04,2.98.64,3.42,1.57"/>
  <path class="cls-2" d="M180.74,247.08c.02.6-.71,1.09-1.64,1.12-.93,0-1.68-.46-1.71-1.05"/>
  <path class="cls-10" d="M177.39,247.15c-.01-.59.71-1.09,1.64-1.1.94,0,1.69.46,1.71,1.04"/>
  <path class="cls-2" d="M145.71,225.93c0,.6-.73,1.11-1.68,1.13-.94,0-1.71-.47-1.74-1.07"/>
  <path class="cls-10" d="M142.3,225.98c-.02-.59.73-1.09,1.67-1.09.94-.02,1.73.45,1.73,1.04"/>
  <line class="cls-10" x1="114.11" y1="234.66" x2="74.62" y2="211.89"/>
  <line class="cls-10" x1="172.61" y1="268.34" x2="127.35" y2="242.27"/>
  <polyline class="cls-10" points="117.58 194.5 126.47 199.66 128.34 203.79"/>
  <polyline class="cls-10" points="187.19 234.98 195.96 240.12 196.76 243.05"/>
  <polygon class="cls-10" points="152.63 229.79 150.76 230.87 153.54 232.49 152.79 232.91 156.22 232.87 156.16 230.96 155.4 231.39 152.63 229.79"/>
  <line class="cls-10" x1="130.47" y1="194.59" x2="125.9" y2="197.37"/>
  <path class="cls-12" d="M124.75,196.47v-.67l-.99-.58c-.23-.12-.32-.31-.28-.48v-1.15s.28-.38.28-.38l3.13-1.92c.39-.24,1.05-.24,1.44,0l2.15,1.25v2.05"/>
  <path class="cls-2" d="M124.75,196.47v-.67l-.99-.58c-.23-.12-.32-.31-.28-.48v-1.15s.28-.38.28-.38l3.13-1.92c.39-.24,1.05-.24,1.44,0l2.15,1.25v2.05"/>
  <path class="cls-10" d="M123.46,193.59c-.02.15.08.33.3.47l2.14,1.24v2.07"/>
  <line class="cls-10" x1="125.9" y1="195.3" x2="130.47" y2="192.54"/>
  <path class="cls-10" d="M123.4,195.02l-.05.02-.29.38c-.02.16.08.34.29.46l2.55,1.48"/>
  <line class="cls-10" x1="199.09" y1="234.13" x2="194.53" y2="236.89"/>
  <path class="cls-12" d="M193.38,235.99v-.68l-.99-.56c-.22-.12-.32-.32-.3-.49v-1.15l.29-.36,3.12-1.94c.4-.23,1.05-.23,1.44.02l2.15,1.23v2.07"/>
  <path class="cls-2" d="M193.38,235.99v-.68l-.99-.56c-.22-.12-.32-.32-.3-.49v-1.15l.29-.36,3.12-1.94c.4-.23,1.05-.23,1.44.02l2.15,1.23v2.07"/>
  <path class="cls-10" d="M192.09,233.12c-.03.16.09.34.3.47l2.15,1.26v2.05"/>
  <line class="cls-10" x1="194.53" y1="234.84" x2="199.09" y2="232.07"/>
  <path class="cls-10" d="M192.02,234.54l-.05.03-.28.38c-.03.15.07.33.3.45l2.55,1.48"/>
  <polygon class="cls-10" points="150.85 221.37 147.93 219.67 151.63 219.01 150.85 221.37"/>
  <polygon class="cls-10" points="154.38 223.46 151.46 221.78 155.16 221.1 154.38 223.46"/>
  <polygon class="cls-10" points="135.12 229.26 138.05 230.96 134.34 231.63 135.12 229.26"/>
  <polygon class="cls-10" points="134.99 222.42 137.92 220.71 134.22 220.04 134.99 222.42"/>
  <polygon class="cls-10" points="146.21 219.19 146.16 219.37 154.33 224.06 157.81 222.14 157.81 222.04 149.65 217.28 146.21 219.19"/>
  <polygon class="cls-10" points="131.66 230.44 136.3 233.07 139.62 231.15 134.97 228.48 131.66 230.44"/>
  <path class="cls-10" d="M131.63,221.05l3.42,1.89,4.3-2.5-3.43-1.92s-3.31,1.93-4.29,2.53Z"/>
  <line class="cls-10" x1="126.47" y1="199.66" x2="133.85" y2="194.97"/>
  <line class="cls-10" x1="196.09" y1="240.13" x2="203.47" y2="235.45"/>
  <line class="cls-10" x1="128.25" y1="203.8" x2="135.62" y2="199.12"/>
  <line class="cls-10" x1="197.93" y1="243.44" x2="204.57" y2="239.21"/>
  <polyline class="cls-2" points="185.22 236.44 187.19 234.98 192.04 231.91"/>
  <polyline class="cls-2" points="115.74 196.5 117.58 194.5 122.35 191.74"/>
  <line class="cls-10" x1="127.23" y1="242.19" x2="135.02" y2="237.08"/>
  <line class="cls-10" x1="181.47" y1="262.44" x2="181.47" y2="263.32"/>
  <path class="cls-2" d="M126.07,209.44l-3.22,1.91c-.23.16-.64.17-.88.04l-3.69-2.18"/>
  <path class="cls-2" d="M172.82,234.28l3.23,1.96c.41.27.41.67-.02.91l-5.12,3.06-3.99-2.42,5.9-3.51Z"/>
  <path class="cls-12" d="M165.52,238.11v-3.07c0-.17.13-.36.38-.5l4.13-2.54c.52-.3,1.37-.3,1.9.01l2.82,1.63v1.13l-5.1,3.09v.22l.69.4v1.36l-.84.51-3.98-2.26Z"/>
  <path class="cls-2" d="M165.52,238.11v-3.07c0-.17.13-.36.38-.5l4.13-2.54c.52-.3,1.37-.3,1.9.01l2.82,1.63v1.13l-5.1,3.09v.22l.69.4v1.36l-.84.51-3.98-2.26"/>
  <line class="cls-2" x1="175.49" y1="237.48" x2="173.12" y2="236.05"/>
  <path class="cls-1" d="M165.59,234.97c-.04.22.03.51.32.68l2.92,1.73v1.26l.66.42v1.32"/>
  <line class="cls-1" x1="168.73" y1="237.28" x2="174.76" y2="233.64"/>
  <line class="cls-2" x1="121.1" y1="209.24" x2="119.98" y2="209.93"/>
  <path class="cls-12" d="M119.01,209.63v-1.65l2.49,1.46,3.69-2.15v.6s.67.42.67.42l-.02.88.99-.66.02-.69-.7-.43v-1.73s-2.94-1.68-2.94-1.68c-.52-.31-1.38-.32-1.91,0l-2.69,1.61c-.24.14-.37.33-.39.51v3.07s.78.46.78.46Z"/>
  <path class="cls-2" d="M119.01,209.63v-1.65l2.49,1.46,3.69-2.15v.6s.67.42.67.42l-.02.88.99-.66.02-.69-.7-.43v-1.73s-2.94-1.68-2.94-1.68c-.52-.31-1.38-.32-1.91,0l-2.69,1.61c-.24.14-.37.33-.39.51v3.07s.78.46.78.46Z"/>
  <line class="cls-1" x1="121.45" y1="208.36" x2="126.05" y2="205.64"/>
  <path class="cls-1" d="M121.45,208.36l-2.83-1.65c-.29-.17-.42-.39-.39-.61"/>
  <line class="cls-2" x1="124.88" y1="209.95" x2="123" y2="208.75"/>
  <line class="cls-2" x1="121.45" y1="209.44" x2="121.45" y2="208.36"/>
  <path class="cls-11" d="M159.4,255.64l.76.44-1.36.67-.26-.15.28-.16c-.25,0-.62.03-.96-.16-.43-.25-.39-.7.49-1.14.71-.33,1.62-.48,2.22-.13.57.33.28.7-.04.88l-.39-.22c.09-.04.28-.27.02-.42-.27-.16-.78-.17-1.42.13-.69.34-.61.59-.35.73.08.05.41.19.99,0l-.42-.24.43-.21Z"/>
  <polygon class="cls-11" points="162.56 256.73 161.61 256.16 161.07 256.42 161.97 256.94 161.51 257.14 160.63 256.64 159.97 256.95 160.98 257.53 160.54 257.75 159.16 256.95 161.68 255.72 163.02 256.51 162.56 256.73"/>
  <polygon class="cls-11" points="162.63 257.68 161.93 257.27 161.47 257.49 162.18 257.91 162.63 257.68"/>
  <path class="cls-11" d="M165.06,257.63c.24.14.73.58-.47,1.16-1.18.57-1.94.26-2.19.13-.25-.13-.73-.58.46-1.16,1.19-.57,1.97-.28,2.2-.13M162.84,258.69c.22.13.69.22,1.39-.12.71-.36.61-.6.4-.73-.2-.11-.67-.2-1.39.15-.7.34-.58.6-.4.7"/>
  <polygon class="cls-11" points="167.29 258.98 167.63 259.2 165.11 260.43 164.73 260.2 165.79 258.9 165.78 258.89 163.98 259.77 163.63 259.56 166.16 258.33 166.57 258.57 165.52 259.84 165.52 259.84 167.29 258.98"/>
  <path class="cls-11" d="M167.81,261.05c-.66.33-1.24.3-1.7.04-.16-.1-.35-.29-.26-.49.06-.13.23-.26.48-.39l1.68-.81.38.23-1.65.8c-.34.17-.35.33-.16.42.26.16.53.14.84,0l1.66-.8.39.22-1.65.8Z"/>
  <polygon class="cls-11" points="169.08 261.31 169.24 262.51 168.88 262.6 168.67 261.06 171.52 261.32 171.34 261.5 169.08 261.31"/>
  <path class="cls-11" d="M170.98,262.48c.71-.33,1.18-.26,1.37-.14.21.12.31.38-.39.74-.7.33-1.16.25-1.37.13-.2-.11-.32-.37.4-.72M170.58,262.27c-1.17.56-.69,1-.44,1.14.23.14,1,.44,2.19-.14,1.19-.56.71-1,.47-1.14-.23-.15-1.02-.45-2.22.14"/>
  <polygon class="cls-11" points="173.99 264.16 173.82 262.95 174.18 262.87 174.4 264.41 171.55 264.16 171.73 263.96 173.99 264.16"/>
  <polyline class="cls-12" points="135.17 237.12 133.43 232.77 123.63 227.06 115.75 231.72 114.26 234.7"/>
  <polyline class="cls-4" points="135.17 237.12 133.43 232.77 123.63 227.06 115.75 231.72 114.26 234.7"/>
  <polyline class="cls-10" points="114.26 234.7 115.75 231.72 125.71 237.5 127.36 242.22"/>
  <line class="cls-10" x1="125.71" y1="237.5" x2="133.43" y2="232.77"/>
  <line class="cls-10" x1="128.68" y1="232.19" x2="124.12" y2="234.95"/>
  <path class="cls-14" d="M121.67,232.53v-1.34l.29-.38,3.13-1.93c.4-.23,1.04-.23,1.44,0l2.15,1.25v2.06"/>
  <path class="cls-2" d="M121.67,232.53v-1.34l.29-.38,3.13-1.93c.4-.23,1.04-.23,1.44,0l2.15,1.25v2.06"/>
  <path class="cls-10" d="M121.67,231.2c-.02.16.08.32.3.44l2.15,1.26v2.06"/>
  <line class="cls-10" x1="124.12" y1="232.9" x2="128.68" y2="230.14"/>
  <polyline class="cls-10" points="124.12 234.95 120.62 232.85 120.62 232.19 121.72 231.58"/>
  <line class="cls-12" x1="121.66" y1="232.68" x2="120.74" y2="232.14"/>
  <line class="cls-9" x1="121.66" y1="232.68" x2="120.74" y2="232.14"/>
  <path class="cls-12" d="M205.51,72.81c.76.31,1.43.96,1.43,2.07v171.39c0,.69-.54,1.21-1.16,1.56l-16.2,9.29c-.31.17-.53.22-.83.22h-15.14c-.42,0-.74-.16-1.16-.39l-90.23-52.03c-.45-.27-.62-.76-.62-1.07V31.54c0-.83.31-1.36.96-1.78l23.58-13.5c.22-.14.48-.18.97.01l98.4,56.54Z"/>
  <path class="cls-3" d="M205.47,73.38c.75.3,1.42.96,1.42,2.07v171.38c0,.7-.53,1.21-1.16,1.56l-16.19,9.3c-.32.17-.54.23-.83.23h-15.15c-.42,0-.74-.17-1.16-.4l-90.23-52.02c-.46-.28-.62-.76-.62-1.06V32.12c0-.83.31-1.35.96-1.78l23.57-13.51c.22-.14.49-.16.98.01l98.39,56.54Z"/>
  <line class="cls-1" x1="189.85" y1="85.75" x2="189.85" y2="257.49"/>
  <path class="cls-9" d="M205.37,77.24l-.3.03-13.37,7.74c-.24.14-.43.47-.43.75l-.15,168.95c0,.29.37.49.63.32l13.24-7.73c.28-.16.52-.57.52-.9V77.58l-.15-.34Z"/>
  <path class="cls-9" d="M195.93,252.18l4.36-2.5c.12-.09.32.13.62,0"/>
  <path class="cls-2" d="M195.88,252.56v-.7c0-.4.34-.9.75-1.14l3.52-2.03.51-.09"/>
  <polyline class="cls-1" points="200.67 248.6 200.86 248.92 200.86 249.72"/>
  <line class="cls-1" x1="200.33" y1="248.82" x2="200.33" y2="249.62"/>
  <polyline class="cls-9" points="93.49 29.12 93.63 28.93 100.13 25.18 100.81 25.18 102.22 25.99 102.37 26.19"/>
  <polyline class="cls-2" points="102.37 26.19 102.22 26.37 95.7 30.13 95.04 30.13 93.63 29.3 93.49 29.12"/>
  <line class="cls-9" x1="100.43" y1="25.68" x2="100.43" y2="27.39"/>
  <polyline class="cls-9" points="96.42 30.85 96.57 30.65 103.08 26.91 103.74 26.91 105.15 27.73 105.3 27.92"/>
  <polyline class="cls-2" points="105.3 27.92 105.16 28.11 98.65 31.86 97.96 31.86 96.56 31.04 96.42 30.85"/>
  <line class="cls-9" x1="103.36" y1="27.41" x2="103.36" y2="29.12"/>
  <polyline class="cls-9" points="99.36 32.5 99.49 32.31 106.01 28.56 106.69 28.56 108.09 29.37 108.23 29.56"/>
  <polyline class="cls-2" points="108.23 29.56 108.08 29.76 101.57 33.5 100.9 33.5 99.49 32.69 99.36 32.5"/>
  <line class="cls-9" x1="106.31" y1="29.06" x2="106.31" y2="30.77"/>
  <polyline class="cls-9" points="102.28 34.15 102.42 33.96 108.94 30.19 109.6 30.19 111.03 31.02 111.16 31.21"/>
  <polyline class="cls-2" points="111.16 31.21 111.03 31.4 104.51 35.17 103.84 35.17 102.42 34.34 102.28 34.15"/>
  <line class="cls-9" x1="109.23" y1="30.71" x2="109.23" y2="32.42"/>
  <polyline class="cls-9" points="105.22 35.89 105.36 35.68 111.88 31.93 112.54 31.93 113.96 32.74 114.1 32.94"/>
  <polyline class="cls-2" points="114.1 32.94 113.96 33.14 107.44 36.89 106.77 36.89 105.35 36.06 105.22 35.89"/>
  <line class="cls-9" x1="112.16" y1="32.43" x2="112.16" y2="34.15"/>
  <polyline class="cls-9" points="108.15 37.62 108.29 37.41 114.8 33.65 115.48 33.65 116.88 34.48 117.02 34.67"/>
  <polyline class="cls-2" points="117.02 34.67 116.88 34.86 110.36 38.62 109.7 38.62 108.29 37.79 108.15 37.63"/>
  <line class="cls-9" x1="115.09" y1="34.16" x2="115.09" y2="35.87"/>
  <polyline class="cls-9" points="111.08 39.26 111.23 39.06 117.74 35.31 118.4 35.31 119.82 36.12 119.96 36.32"/>
  <polyline class="cls-2" points="119.96 36.32 119.82 36.51 113.3 40.26 112.63 40.26 111.23 39.44 111.08 39.26"/>
  <line class="cls-9" x1="118.03" y1="35.82" x2="118.03" y2="37.53"/>
  <polyline class="cls-9" points="114.01 40.94 114.14 40.76 120.67 37 121.34 37 122.75 37.82 122.89 38.01"/>
  <polyline class="cls-2" points="122.89 38 122.75 38.2 116.23 41.96 115.56 41.96 114.14 41.12 114.01 40.94"/>
  <line class="cls-9" x1="120.97" y1="37.51" x2="120.97" y2="39.21"/>
  <polyline class="cls-9" points="116.94 42.68 117.08 42.48 123.59 38.73 124.27 38.73 125.67 39.55 125.82 39.73"/>
  <polyline class="cls-2" points="125.82 39.73 125.67 39.93 119.16 43.68 118.5 43.68 117.08 42.87 116.94 42.68"/>
  <line class="cls-9" x1="123.89" y1="39.22" x2="123.89" y2="40.94"/>
  <polyline class="cls-9" points="119.87 44.33 120.01 44.13 126.53 40.37 127.2 40.37 128.61 41.2 128.75 41.4"/>
  <polyline class="cls-2" points="128.75 41.4 128.61 41.58 122.09 45.33 121.43 45.33 120.01 44.51 119.87 44.33"/>
  <line class="cls-9" x1="126.84" y1="40.87" x2="126.84" y2="42.59"/>
  <polyline class="cls-9" points="122.81 45.98 122.95 45.77 129.46 42.03 130.13 42.03 131.56 42.84 131.68 43.03"/>
  <polyline class="cls-2" points="131.68 43.04 131.55 43.23 125.02 46.98 124.35 46.98 122.95 46.16 122.82 45.98"/>
  <line class="cls-9" x1="129.76" y1="42.53" x2="129.76" y2="44.24"/>
  <polyline class="cls-9" points="125.74 47.7 125.87 47.51 132.39 43.76 133.06 43.76 134.49 44.56 134.61 44.76"/>
  <polyline class="cls-2" points="134.61 44.76 134.49 44.97 127.96 48.71 127.29 48.71 125.88 47.89 125.74 47.7"/>
  <line class="cls-9" x1="132.69" y1="44.27" x2="132.69" y2="45.97"/>
  <polyline class="cls-9" points="128.68 49.44 128.82 49.24 135.32 45.48 136 45.48 137.41 46.29 137.56 46.49"/>
  <polyline class="cls-2" points="137.56 46.49 137.41 46.68 130.89 50.44 130.22 50.44 128.82 49.63 128.68 49.43"/>
  <line class="cls-9" x1="135.62" y1="46" x2="135.62" y2="47.7"/>
  <polyline class="cls-9" points="131.6 51.04 131.74 50.83 138.26 47.1 138.93 47.1 140.35 47.91 140.48 48.11"/>
  <polyline class="cls-2" points="140.48 48.11 140.34 48.29 133.82 52.05 133.16 52.05 131.74 51.23 131.6 51.04"/>
  <line class="cls-9" x1="138.55" y1="47.59" x2="138.55" y2="49.31"/>
  <polyline class="cls-9" points="134.53 52.82 134.68 52.61 141.19 48.85 141.86 48.85 143.28 49.67 143.41 49.87"/>
  <polyline class="cls-2" points="143.41 49.87 143.28 50.06 136.76 53.8 136.09 53.8 134.68 52.99 134.53 52.82"/>
  <line class="cls-9" x1="141.48" y1="49.37" x2="141.48" y2="51.07"/>
  <polyline class="cls-9" points="137.48 54.47 137.61 54.25 144.12 50.51 144.79 50.51 146.21 51.31 146.33 51.52"/>
  <polyline class="cls-2" points="146.33 51.52 146.21 51.71 139.69 55.46 139.02 55.46 137.61 54.65 137.48 54.47"/>
  <line class="cls-9" x1="144.41" y1="51.01" x2="144.41" y2="52.74"/>
  <polyline class="cls-9" points="140.4 56.15 140.54 55.96 147.06 52.21 147.73 52.21 149.15 53.01 149.28 53.21"/>
  <polyline class="cls-2" points="149.28 53.21 149.15 53.41 142.62 57.15 141.95 57.15 140.54 56.33 140.4 56.15"/>
  <line class="cls-9" x1="147.34" y1="52.71" x2="147.34" y2="54.41"/>
  <polyline class="cls-9" points="143.33 57.81 143.48 57.6 149.99 53.84 150.66 53.84 152.07 54.66 152.21 54.85"/>
  <polyline class="cls-2" points="152.21 54.85 152.07 55.05 145.56 58.8 144.88 58.8 143.48 57.98 143.33 57.81"/>
  <line class="cls-9" x1="150.28" y1="54.35" x2="150.28" y2="56.07"/>
  <polyline class="cls-9" points="146.27 59.53 146.41 59.33 152.92 55.58 153.59 55.58 155 56.39 155.14 56.59"/>
  <polyline class="cls-2" points="155.14 56.58 155 56.77 148.5 60.54 147.81 60.54 146.41 59.71 146.27 59.53"/>
  <line class="cls-9" x1="153.22" y1="56.08" x2="153.22" y2="57.78"/>
  <polyline class="cls-9" points="149.19 61.22 149.33 61.03 155.85 57.28 156.52 57.28 157.93 58.1 158.07 58.28"/>
  <polyline class="cls-2" points="158.07 58.28 157.93 58.46 151.42 62.21 150.76 62.21 149.33 61.41 149.19 61.22"/>
  <line class="cls-9" x1="156.14" y1="57.75" x2="156.14" y2="59.48"/>
  <polyline class="cls-9" points="152.13 62.87 152.27 62.67 158.78 58.9 159.46 58.9 160.86 59.73 161 59.94"/>
  <polyline class="cls-2" points="161 59.94 160.86 60.12 154.35 63.86 153.67 63.86 152.27 63.04 152.13 62.86"/>
  <line class="cls-9" x1="159.08" y1="59.42" x2="159.08" y2="61.13"/>
  <polyline class="cls-9" points="155.06 64.64 155.2 64.44 161.71 60.69 162.38 60.69 163.79 61.5 163.93 61.69"/>
  <polyline class="cls-2" points="163.93 61.69 163.79 61.89 157.28 65.63 156.6 65.63 155.2 64.83 155.06 64.64"/>
  <line class="cls-9" x1="162.01" y1="61.19" x2="162.01" y2="62.9"/>
  <polyline class="cls-9" points="157.99 66.28 158.13 66.08 164.65 62.34 165.32 62.34 166.73 63.15 166.87 63.36"/>
  <polyline class="cls-2" points="166.87 63.34 166.73 63.54 160.2 67.3 159.53 67.3 158.13 66.47 157.99 66.28"/>
  <line class="cls-9" x1="164.94" y1="62.84" x2="164.94" y2="64.54"/>
  <polyline class="cls-9" points="160.92 68.01 161.07 67.81 167.57 64.07 168.25 64.07 169.66 64.88 169.8 65.06"/>
  <polyline class="cls-2" points="169.8 65.07 169.66 65.26 163.14 69.02 162.47 69.02 161.06 68.19 160.92 68.01"/>
  <line class="cls-9" x1="167.88" y1="64.57" x2="167.88" y2="66.28"/>
  <polyline class="cls-9" points="163.85 69.62 164 69.42 170.51 65.67 171.19 65.67 172.59 66.49 172.73 66.67"/>
  <polyline class="cls-2" points="172.73 66.67 172.59 66.88 166.07 70.62 165.41 70.62 164 69.79 163.86 69.62"/>
  <line class="cls-9" x1="170.81" y1="66.17" x2="170.81" y2="67.89"/>
  <polyline class="cls-9" points="166.78 71.36 166.92 71.15 173.44 67.4 174.11 67.4 175.53 68.22 175.65 68.41"/>
  <polyline class="cls-2" points="175.65 68.41 175.53 68.6 169 72.34 168.34 72.34 166.92 71.54 166.79 71.36"/>
  <line class="cls-9" x1="173.73" y1="67.9" x2="173.73" y2="69.62"/>
  <polyline class="cls-9" points="169.71 73.05 169.85 72.83 176.38 69.09 177.04 69.09 178.45 69.9 178.59 70.1"/>
  <polyline class="cls-2" points="178.59 70.1 178.46 70.29 171.93 74.04 171.27 74.04 169.85 73.23 169.71 73.05"/>
  <line class="cls-9" x1="176.66" y1="69.6" x2="176.66" y2="71.32"/>
  <polyline class="cls-9" points="172.64 74.72 172.8 74.52 179.3 70.78 179.97 70.78 181.38 71.59 181.53 71.78"/>
  <polyline class="cls-2" points="181.53 71.78 181.38 71.98 174.88 75.73 174.2 75.73 172.79 74.91 172.64 74.72"/>
  <line class="cls-9" x1="179.6" y1="71.28" x2="179.6" y2="72.99"/>
  <polyline class="cls-9" points="175.57 76.46 175.72 76.25 182.23 72.49 182.91 72.49 184.32 73.32 184.46 73.51"/>
  <polyline class="cls-2" points="184.46 73.51 184.32 73.7 177.79 77.46 177.13 77.46 175.72 76.63 175.57 76.46"/>
  <line class="cls-9" x1="182.53" y1="73.01" x2="182.53" y2="74.72"/>
  <polyline class="cls-9" points="178.52 78.11 178.65 77.9 185.17 74.15 185.84 74.15 187.25 74.97 187.4 75.16"/>
  <polyline class="cls-2" points="187.4 75.16 187.25 75.35 180.74 79.12 180.07 79.12 178.65 78.28 178.52 78.11"/>
  <line class="cls-9" x1="185.46" y1="74.65" x2="185.46" y2="76.38"/>
  <polyline class="cls-9" points="181.44 79.79 181.59 79.6 188.11 75.86 188.77 75.86 190.19 76.66 190.32 76.85"/>
  <polyline class="cls-2" points="190.32 76.85 190.19 77.05 183.67 80.79 183 80.79 181.59 79.97 181.44 79.79"/>
  <line class="cls-9" x1="188.4" y1="76.34" x2="188.4" y2="78.06"/>
  <path class="cls-9" d="M82.39,32.24s89.87,51.81,90.33,52.07c.47.28.89.46,1.41.46h15.02c.5,0,.84-.15,1.34-.38.51-.25,13.67-8.26,15.65-9.4"/>
  <line class="cls-9" x1="173.66" y1="85.77" x2="173.66" y2="257.58"/>
  <path class="cls-2" d="M198.97,138.92l.47.1c.67.36.76,1.48.22,2.55-.54,1.04-1.53,1.62-2.2,1.27l-.36-.35"/>
  <path class="cls-12" d="M198.31,139.34l1.39.77c.41.23.48.92.14,1.56-.33.66-.95,1.02-1.37.79l-1.39-.77"/>
  <path class="cls-2" d="M198.31,139.34l1.39.77c.41.23.48.92.14,1.56-.33.66-.95,1.02-1.37.79l-1.39-.77"/>
  <path class="cls-2" d="M197.81,144.43c-1.05-.55-1.21-2.32-.35-3.96.85-1.64,2.38-2.51,3.43-1.97"/>
  <path class="cls-1" d="M200.88,138.49c1.05.54,1.21,2.32.35,3.94-.84,1.65-2.38,2.53-3.42,2"/>
  <path class="cls-1" d="M198.46,142.46c-.4-.2-.48-.91-.13-1.57.34-.65.95-1.02,1.37-.78"/>
  <path class="cls-2" d="M198.77,150.33c-.31-.17-.36-.7-.11-1.19.26-.49.71-.76,1.04-.59"/>
  <path class="cls-1" d="M199.71,148.54c.31.16.35.69.09,1.19-.25.48-.72.76-1.03.59"/>
  <polyline class="cls-6" points="195.96 136.69 195.24 137.08 195.24 143.63 196.03 143.22"/>
  <polyline class="cls-6" points="195.96 150.81 195.24 151.22 195.24 157.75 196.03 157.35"/>
  <path class="cls-14" d="M199.24,87.27c-.28.16-.53.36-.72.55-.17.02-.44.09-.71.23-1.16.64-2.2,2.54-2.2,4.34,0,1.96,1.35,2.75,2.91,1.88,1.58-.87,2.93-3.12,2.93-5.09,0-1.81-1.06-2.55-2.21-1.91M198.52,88.75c.23.02.53.32.53.84,0,.39-.22.81-.53.97-.31.17-.52-.02-.52-.4,0-.51.3-1.14.52-1.41M198.52,93.43c-1.19.66-2.2.04-2.2-1.44,0-1.36.82-2.75,1.48-3.07-.32.53-.49,1.17-.49,1.68,0,.89.57,1.19,1.22.84.66-.36,1.24-1.3,1.24-2.19,0-.51-.18-.92-.5-1.13.66-.39,1.47.08,1.47,1.44,0,1.49-.98,3.19-2.2,3.88"/>
  <polygon class="cls-14" points="197.05 95.78 197.05 96.18 197.24 96.07 197.24 96.8 196.73 95.96 196.17 96.27 196.17 96.67 196.37 96.56 196.37 97.77 196.17 97.87 196.17 98.27 196.94 97.84 196.94 97.45 196.73 97.55 196.73 96.83 197.24 97.67 197.63 97.45 197.63 95.85 197.81 95.76 197.81 95.37 197.05 95.78"/>
  <polygon class="cls-14" points="199.38 95.26 199.38 94.5 197.92 95.3 197.92 96.07 198.26 95.88 198.26 95.52 198.43 95.41 198.43 96.62 198.19 96.76 198.19 97.15 199.11 96.65 199.11 96.24 198.88 96.37 198.88 95.17 199.05 95.08 199.05 95.45 199.38 95.26"/>
  <polygon class="cls-14" points="200.94 94.41 200.94 93.62 199.5 94.43 199.5 95.21 199.83 95.01 199.83 94.64 199.99 94.56 199.99 95.76 199.75 95.89 199.75 96.28 200.69 95.78 200.69 95.38 200.43 95.52 200.43 94.31 200.61 94.2 200.61 94.57 200.94 94.41"/>
  <path class="cls-14" d="M196.35,135.35l.98-.55v.23l-.8.45v1.12l-.22.11v.27l.22-.1v.72l.25-.14v-.74l1.33-.76v.39l-.05.09-.37.23.04.26.35-.21c.16-.09.28-.17.28-.41v-.48l.21-.12v-.28l-.21.13v-1.14l-.8.46v-.25l1-.57v-.26l-2.21,1.27v.26ZM197.34,135.28v.3l-.56.32v-.3l.56-.32ZM197.34,135.84v.31l-.56.32v-.32l.56-.31ZM198.11,134.84v.3l-.55.31v-.29l.55-.31ZM198.11,135.4v.31l-.55.32v-.32l.55-.31Z"/>
  <path class="cls-14" d="M198.83,134.95c0,.38-.02.76-.16,1.17l.16.2c.05-.13.11-.34.17-.7.16.2.34.33.84.05l1.09-.62.05-.33-1.14.68c-.21.1-.36.15-.45.13v-.46l.31-.17v-.29l-.31.19v-.35l.37-.19v-.29l-.37.2v-.3l.31-.19v-.27l-.31.17v-.29l-.22.13v.3l-.39.22v.29l.39-.23v.31l-.45.26v.28l.45-.27v.84h0s-.11-.19-.11-.19v-.4l-.22.12ZM199.79,133.15v.27l.84-.49v.46l-.8.45v1.07c0,.21.11.19.22.14l.65-.38c.2-.11.25-.27.25-.74l-.24.07c0,.36,0,.38-.11.44l-.45.26-.09-.03v-.68l.8-.45v-1l-1.07.61Z"/>
  <path class="cls-14" d="M202.43,134.28c.07-.16.28-.57.33-1.05.05-.25.09-.79.09-1.05h0s.18-.11.18-.11c0,.22-.02,1.34-.06,1.52l-.1.12-.21.13.05.27.22-.13c.11-.06.2-.12.26-.37.08-.28.08-1.64.08-1.99l-.42.25v-.59l-.24.16v.57l-.18.12v.3l.18-.11c0,.15-.02.58-.08.97-.06.31-.15.53-.18.63-.04.02-.25.17-.51.35v-.17l.51-.3v-.24l-.51.31v-.15l.47-.27v-1.03l-.47.27v-.13l.53-.31v-.23l-.53.29v-.14c.27-.16.38-.26.47-.35l-.06-.19c-.33.28-.53.39-1.13.76l.02.19c.11-.04.26-.14.49-.26v.12l-.55.32v.22l.55-.29v.12l-.47.26v1.02l.47-.27v.14l-.49.28v.23l.49-.26v.19c-.26.16-.4.22-.55.32l.03.25c.3-.17.69-.42,1.12-.74l.2.06ZM201.63,133.01v.2l-.27.14v-.19l.27-.15ZM201.63,133.41v.2l-.27.16v-.23l.27-.14ZM202.11,132.76v.17l-.27.16v-.21l.27-.13ZM202.11,133.15v.19l-.27.15v-.2l.27-.15Z"/>
  <path class="cls-14" d="M197.28,156.82l-.32-.17.25-.59v-.2l-.24.12v-.34l-.2.12v.34l-.27.17v.22l.51-.3c-.09.28-.34.74-.54,1l.09.19.21-.34v.91l.2-.13v-.86h0l.2.13.11-.26ZM197.26,155.58v.23l.31-.2c0,.79-.06,1.26-.48,1.93l.15.1c.5-.81.53-1.31.54-2.14l.31-.18c0,.33,0,1.27-.05,1.47l-.19.26-.22.12.05.22.22-.1c.14-.11.25-.17.31-.46.06-.27.06-1.53.06-1.85l-1.01.61ZM197.26,156.26c-.08.22-.14.33-.17.39l.14.04.17-.38-.14-.04Z"/>
  <path class="cls-14" d="M198.68,156.21l-.27.56.15.1c.1-.19.22-.42.3-.67h-.17ZM198.58,154.89l-.12.07v.23l.12-.06v.89l-.15.1v.2l1-.57v-.22l-.11.07v-.91l.11-.07v-.22l-.11.07v-.22l-.2.12v.21l-.36.21v-.21l-.19.11v.2ZM199.12,154.79v.16l-.36.22v-.15l.36-.22ZM199.12,155.15v.17l-.36.21v-.17l.36-.22ZM199.12,155.51v.2l-.36.22v-.2l.36-.22ZM198.98,156.16l.19.2.15-.23-.2-.18-.14.21ZM199.51,154.96c0,.75-.11,1.04-.26,1.34l.19.06c.12-.27.2-.56.23-.82l.35-.2v.38l-.06.12-.2.1.04.22.26-.15.16-.28v-1.92l-.69.41v.74ZM200.02,154.74v.37l-.33.19v-.37s.33-.19.33-.19ZM200.02,154.15v.38l-.32.19v-.39l.32-.18Z"/>
  <path class="cls-14" d="M200.63,155.67l.19-.13v-1.59c.12-.32.15-.51.18-.64l-.21.09c-.08.4-.19.75-.44,1.18l.11.22.16-.31h.01v1.17ZM201.23,153.15v1.92c0,.21.14.13.2.1l.56-.32c.17-.11.24-.21.25-.75l-.22.06-.02.38-.07.09-.41.23-.09-.05v-.72c.22-.22.55-.6.77-.89l-.15-.14c-.26.39-.53.69-.62.78v-.82l-.2.13Z"/>
  <polyline class="cls-2" points="200.67 248.6 200.86 248.92 200.86 249.59"/>
  <path class="cls-9" d="M171.92,188.57c.29.16,1.88.69,2.28.69h14.45c.23,0,2.03-.42,2.52-.7"/>
  <path class="cls-9" d="M183.17,128.04c0,.22-.19.39-.4.39h-2.99c-.22,0-.4-.17-.4-.39v-.66c0-.22.18-.4.4-.4h2.99c.21,0,.4.18.4.4v.66Z"/>
  <path class="cls-14" d="M177.24,124.62l.11.09h1.26l.14.03.05.11-.16.36-.28.26-.04.05.1.13.2-.15.25-.32.11-.34-.09-.23-.23-.08h-1.31l-.11.1ZM177.98,125.21l-.05.45c-.07.25-.2.45-.38.61l-.02.05.1.09.2-.16.24-.48c.06-.17.09-.36.09-.57l-.09-.12-.08.12"/>
  <path class="cls-14" d="M179.64,124.44h1.12l.1.09-.1.09h-1.12l-.1-.09.1-.09ZM179.47,124.89h1.27l.23.08.07.19c0,.15-.06.33-.2.55-.25.45-.66.68-1.23.7l-.1-.13.06-.06c.28,0,.5-.06.66-.14l.45-.45.16-.46-.11-.08h-1.27l-.1-.1.1-.08"/>
  <polygon class="cls-14" points="181.51 125.38 181.6 125.46 183 125.46 183.09 125.38 183 125.29 181.6 125.29 181.51 125.38"/>
  <path class="cls-14" d="M184.25,124.56l-.61,1.2-.1.27.18.14s.15-.02.47-.06c.3-.06.56-.13.77-.16l.13.28.07.04.09-.08-.02-.08c-.1-.21-.2-.44-.34-.69l-.07-.06-.1.09.02.08.13.23c-.19.06-.4.09-.65.14-.22.05-.34.05-.38.07l-.06-.07.03-.08.58-1.17.04-.08-.08-.1-.08.09Z"/>
  <path class="cls-9" d="M183.17,133.58c0,.21-.19.4-.4.4h-2.99c-.22,0-.4-.19-.4-.4v-.65c0-.22.18-.42.4-.42h2.99c.21,0,.4.2.4.42v.65Z"/>
  <path class="cls-14" d="M179.32,130.06l-.11.12v1.5l.11.11.09-.11v-.64h.6l.35-.15.13-.37-.12-.32-.31-.13h-.74ZM179.41,130.32l.06-.07h.57l.17.08.08.18-.1.22-.22.12h-.56v-.54Z"/>
  <path class="cls-14" d="M181.49,130.06l.31.13.12.32-.14.36-.34.16h-.61v.64l-.08.12-.1-.12v-1.5l.1-.11h.75ZM180.82,130.85h.56l.23-.11.09-.23-.07-.18-.18-.08h-.57l-.06.07v.54Z"/>
  <path class="cls-14" d="M182.16,130.06l-.1.12v1.5l.1.11.09-.11v-.64h.6l.34-.15.13-.37-.11-.32-.32-.13h-.74ZM182.25,130.32l.05-.07h.57l.18.08.08.18-.09.22-.23.12h-.56v-.54Z"/>
  <path class="cls-9" d="M183.17,139.11c0,.23-.19.41-.4.41h-2.99c-.22,0-.4-.17-.4-.41v-.64c0-.25.18-.41.4-.41h2.99c.21,0,.4.16.4.41v.64Z"/>
  <path class="cls-14" d="M177.72,135.58l.09.12-.03.06-.35.46-.09.46.11.43.32.16.33-.16.15-.43-.07-.44-.13-.44v-.05s.09-.12.09-.12l.04.05c.08.14.23.35.44.63l.03.05-.08.09h-.06s-.22-.37-.22-.37l.09.55c0,.26-.05.44-.16.6l-.44.22-.43-.24c-.09-.13-.14-.31-.14-.54,0-.29.11-.59.32-.86l-.32.1-.09-.08.05-.08.52-.16.04-.02Z"/>
  <path class="cls-14" d="M178.81,136.02l.09.09h.3l-.12.54c-.1.3-.17.53-.25.66v.05s.06.12.06.12l.05-.06c.1-.2.18-.42.25-.65.05-.18.09-.4.15-.66h.34l.14.09.06.26-.04.51-.05.21-.13.1-.3-.15h-.02s-.09.11-.09.11l.02.04.4.19.18-.12.11-.28c.05-.17.06-.39.06-.63l-.07-.38-.26-.15h-.33l.06-.24v-.13s-.09-.09-.09-.09l-.03.04-.06.42h-.36l-.09.1ZM179.76,135.7l.02.05.4.5.05.04.08-.1-.03-.07-.42-.5-.02-.04-.09.13"/>
  <path class="cls-14" d="M180.77,135.53l.1.11v.06s-.05.52-.05.52c0,.22.01.31.05.31l.05-.04.1-.27.04-.03.07.13v.05l-.11.25-.14.11-.17-.24-.02-.36.05-.54.04-.07ZM181.65,135.49l.05.06.1.41.03.43c0,.27-.03.47-.13.64l-.32.37-.36.11-.08-.14.04-.05.41-.11.23-.33.06-.48c0-.27-.03-.51-.09-.75l-.02-.05.09-.11"/>
  <path class="cls-14" d="M182.47,135.92l-.06.1.06.07h.26l.06-.07-.06-.1h-.26ZM182.38,135.41l-.06.1.06.08h.49v.1h-.57l-.13.18v.21l.06.09.07-.09v-.17l.04-.05h.53v.46l.06.08.06-.08v-.46h.57l.02.05v.06s-.02.08-.02.08v.02s.04.09.04.09l.09-.07v-.16s-.17-.25-.17-.25h-.53v-.1h.51l.06-.08-.06-.1h-1.14ZM182.47,136.18l-.06.09.06.08h.26l.06-.08-.06-.09h-.26ZM183.16,135.92l-.06.1.06.07h.28l.06-.07-.06-.1h-.28ZM183.16,136.18l-.06.09.06.08h.28l.06-.08-.06-.09h-.28ZM182.3,136.61v.43l.12.17h.45v.06l.18.25h.37l.22-.04.09-.15.03-.19-.08-.13-.06.1-.06.21-.16.04h-.36l-.05-.12v-.04h.44l.12-.17v-.43l-.12-.17h-1.02l-.12.17M183,137.03v-.12h.43v.07l-.05.06h-.38ZM182.48,137.03l-.05-.06v-.07h.45v.12h-.39ZM182.43,136.67l.05-.06h.39v.13h-.45v-.07ZM183.38,136.61l.05.06v.07h-.43v-.13h.38Z"/>
  <path class="cls-14" d="M183.93,135.73l-.07.1.07.08h.5l.06-.08-.06-.1h-.5ZM183.99,135.45l-.05.1.05.08h.37l.05-.08-.05-.1h-.37ZM183.99,136.04l-.05.08.05.09h.37l.05-.09-.05-.08h-.37ZM183.99,136.34l-.05.08.05.09h.38l.06-.09-.06-.08h-.38ZM183.87,136.81v.53l.12.17h.38l.12-.17v-.53l-.12-.16h-.38l-.12.16M184.03,137.32l-.04-.04v-.39l.04-.05h.3l.03.05v.39l-.03.04h-.3ZM185.27,135.4l-.28.06-.33.03-.06.07.06.11.27-.03v.31h-.34l-.06.1.06.08h.34v.31h-.21l-.12.18v.72l.12.17h.53l.13-.17v-.72l-.13-.18h-.19v-.31h.29l.05-.08-.05-.1h-.29v-.33l.23-.06.06-.07-.06-.09h-.02ZM184.77,137.32l-.05-.04v-.59l.05-.06h.44l.04.06v.59l-.04.04h-.44Z"/>
  <path class="cls-9" d="M183.17,144.65c0,.22-.19.4-.4.4h-2.99c-.22,0-.4-.18-.4-.4v-.66c0-.21.18-.4.4-.4h2.99c.21,0,.4.19.4.4v.66Z"/>
  <path class="cls-14" d="M179.63,141.17l-.74,1.52-.02.09.07.09.11-.06.23-.46h.86l.2.46.12.06.08-.09-.02-.09-.71-1.52-.09-.06-.09.06ZM179.73,141.41l.34.75h-.69l.36-.75Z"/>
  <path class="cls-14" d="M181.44,141.1l.45.14.08.09.11.21-.13.11-.06-.04-.15-.23-.3-.1-.27.06-.23.24-.09.44c0,.26.07.43.23.54l.3.11.29-.1.22-.26.07-.05.11.11-.13.22-.21.18-.36.09-.37-.11-.27-.26-.09-.47c0-.36.11-.62.36-.8l.43-.11Z"/>
  <polygon class="cls-14" points="182.27 141.14 182.17 141.24 182.27 141.33 182.81 141.33 182.81 142.75 182.9 142.86 183 142.75 183 141.33 183.52 141.33 183.63 141.24 183.52 141.14 182.27 141.14"/>
  <path class="cls-9" d="M183.17,150.2c0,.22-.19.4-.4.4h-2.99c-.22,0-.4-.19-.4-.4v-.66c0-.23.18-.4.4-.4h2.99c.21,0,.4.17.4.4v.66Z"/>
  <path class="cls-14" d="M179.79,148.03h.61l-.09.36h-.42l-.1-.36ZM179.3,146.6l.09.07h.42l-.02.07-.17.25-.17-.13-.19-.13-.09-.02-.08.07.03.09.18.11.16.13-.41.19-.05.11.09.05h.03l.5-.26.09.08h.82l.08-.08.4.24h.05s.08-.07.08-.07l-.06-.09-.33-.21.26-.21.03-.08-.08-.08-.11.02-.26.22h0s-.1-.08-.1-.08h0l.25-.2.03-.09-.08-.08-.1.04-.24.2-.09-.17-.1-.02-.08.09.02.05.37.45h-.77l.23-.33.03-.13-.13-.14h-.48l-.09.09M179.27,147.59v.28l.18.16h.15l.1.36h-.6l-.08.09.08.09h1.97l.08-.09-.08-.09h-.57l.08-.36h.17l.15-.16v-.28l-.15-.16h-1.29l-.18.16M179.5,147.87l-.06-.06v-.15l.06-.04h1.17l.05.04v.15l-.05.06h-1.17Z"/>
  <path class="cls-14" d="M181.7,146.54l-.35.36-.03.09.09.1.02-.02.33-.4h.03s.03,0,.03,0l.26.29h.03l.1-.07-.04-.11-.29-.26-.09-.05-.11.07ZM181.55,147.02l-.09.1.09.08h.15v.21h-.25l-.09.09.09.07h.25v.76l-.24.03-.1.09.11.09c.21-.01.42-.06.61-.09l.1-.11-.12-.09-.17.05v-.73h.2l.08-.07-.08-.09h-.2v-.21h.15l.08-.08-.08-.1h-.48ZM181.38,147.79v.03l.06.19.05.2.09.09.08-.09v-.13s-.1-.31-.1-.31l-.08-.06-.09.08M182.09,147.77l-.07.18-.06.13v.07s.06.08.06.08l.08-.07.09-.16.06-.18v-.03l-.09-.08-.07.06M182.29,146.59l.08.08h.69l.05.05v.16h-.71l-.07.08.07.09h.71v.16h-.85l-.08.08.08.1h.53v.99l-.06.08-.15-.08h-.02l-.07.12.05.07.21.07.23-.23v-.48l.04.07.35.48.1.03.09-.09-.02-.08-.34-.37h.03l.26-.36.03-.07-.07-.07h-.08s-.26.37-.26.37l-.12-.27v-.16h.47l.08-.1-.08-.08h-.11v-.53l-.2-.18h-.75l-.08.09M182.29,147.51l.02.07.09.08.06.1h.07s.09-.06.09-.06v-.07s-.09-.1-.09-.1l-.08-.08-.08-.02-.08.07M182.58,147.92l-.11.18-.18.16-.04.09.09.1.08-.05.2-.19.13-.25v-.02l-.07-.11-.1.08"/>
  <path class="cls-9" d="M183.17,155.73c0,.23-.19.41-.4.41h-2.99c-.22,0-.4-.18-.4-.41v-.66c0-.21.18-.39.4-.39h2.99c.21,0,.4.18.4.39v.66Z"/>
  <path class="cls-14" d="M177.39,152.03l.08.07v.25h.14l.14.11-.03.14-.2.4-.02.02v.04l.05.02h.01l.23-.27h.08s.06.06.06.06l-.03.09-.22.24.06.03.16.19.02.08-.09.08-.07-.02-.16-.17-.1-.1v.81l-.09.08-.08-.08v-.83l-.17.21h-.06s-.09-.06-.09-.06l.04-.08.26-.28.23-.39.05-.12h-.48l-.08-.09.08-.09h.2v-.25l.09-.07ZM177.9,152.11h.84l.19.22v1.15c-.01.26-.04.43-.09.53l-.26.15-.38-.1-.06-.09.08-.09h.05s.31.1.31.1l.14-.12.04-.34v-1.11s-.07-.08-.07-.08h-.38v.3c0,.25-.02.46-.04.63-.05.24-.1.43-.19.58l-.22.3-.08.04-.1-.1.04-.09.19-.24.18-.49c.03-.21.05-.41.05-.63v-.29h0s-.24,0-.24,0l-.08-.08.08-.11"/>
  <path class="cls-14" d="M180.14,152.21v-.07l-.09-.1-.08.1v.07h-.45v-.07l-.07-.1-.09.1v.07h-.07l-.08.08.08.09h.07v1h-.12l-.08.09.08.09h.97l.08-.09-.08-.09h-.07v-1h.05l.07-.09-.07-.08h-.05ZM179.52,153.16h.45v.22h-.45v-.22ZM179.52,152.76h.45v.23h-.45v-.23ZM179.52,152.38h.45v.21h-.45v-.21ZM179.45,153.66l-.26.33-.02.05.08.08.07-.03.17-.19.1-.16.03-.03-.1-.11-.07.06M179.85,153.66l.02.08.07.08.07.08.07.02.08-.08v-.07s-.07-.08-.07-.08l-.08-.09h-.08s-.08.06-.08.06M180.53,152.05l-.16.18v.54c0,.25-.02.45-.04.65l-.17.57-.04.06.1.11.06-.03c.11-.22.19-.42.2-.66v-.07h.5v.44l-.11.11-.12-.05h-.01l-.07.09.07.1.21.03.18-.17v-1.73l-.15-.17h-.48ZM180.54,152.82h.45v.4h-.46v-.4M180.54,152.29l.04-.06h.35l.06.06v.35h-.45v-.35Z"/>
  <path class="cls-14" d="M181.35,152.38l.03.1.15.15.12.16.08.03.1-.08-.02-.07-.13-.18-.15-.18h-.09s-.09.08-.09.08ZM181.86,152.08v.98l-.05.06-.2.29-.25.25-.03.08.08.1.09-.03.23-.25.14-.19v.69l.09.09.07-.09v-1.99l-.07-.09-.09.09M182.75,152.6v-.52l-.09-.09-.09.09v.52h-.42l-.07.1.07.09h.42l-.05.41-.18.44-.25.33-.03.06.09.1.09-.04.31-.44c.08-.17.12-.35.12-.58.06.25.13.47.21.59l.29.42.09.04.08-.08-.02-.08-.37-.59c-.1-.23-.16-.42-.17-.59h.47l.08-.09-.08-.1h-.48ZM182.85,152.16l.02.09.13.13.09.12.08.02.09-.08-.02-.07-.11-.14-.12-.12-.07-.02-.08.08"/>
  <path class="cls-14" d="M183.6,152.67v.73l.08.08.09-.08v-.17h.55v.05l-.06.04-.13-.03h-.01l-.08.09.06.08.23.03.15-.17v-.65l-.15-.17h-.57l-.15.17ZM183.89,152.08l-.17.2-.02.02-.11.03-.08.09.08.08.73-.08h.01l.02.04.07.03.09-.09v-.07s-.07-.1-.07-.1l-.06-.1-.08-.02-.09.1.02.04-.29.03.08-.17h.01s-.06-.08-.06-.08l-.1.05M183.76,152.95h.53v.11h-.53v-.11ZM183.76,152.73l.05-.06h.44l.06.06v.06h-.55v-.06ZM184.61,152.13v.4l.19.22h.25l.28-.05.11-.1.02-.14-.08-.11-.08.08-.06.13-.2.03h-.18l-.08-.1v-.06l.31-.04.21-.09.05-.08-.1-.11-.08.02-.17.09-.22.03v-.12l-.07-.07-.09.07M184.61,152.91v.38l.19.2h.25l.28-.03.11-.11.02-.13-.08-.11-.08.09-.06.11-.2.02h-.18l-.08-.1v-.03l.31-.06.21-.07.05-.08-.1-.11-.08.03-.17.08-.22.03v-.11l-.07-.09-.09.09M183.72,153.71l-.18.26-.03.06.08.1.08-.03.2-.34v-.02l-.06-.09-.1.07M184.01,153.69v.22l.2.2h.42l.28-.02.12-.13.02-.15-.07-.1-.08.08-.07.13-.2.03h-.42l-.04-.1v-.16l-.08-.09-.08.09M184.37,153.63l.02.08.19.17.06.04.1-.07v-.08l-.19-.19-.07-.05-.1.09M185.08,153.66l.03.08.24.36.07.03.09-.07v-.06l-.28-.39-.08-.04-.08.09"/>
  <path class="cls-9" d="M182.97,214.88c0,.23-.17.43-.41.43h-2.99c-.21,0-.42-.19-.42-.43v-.87c0-.22.2-.4.42-.4h2.99c.24,0,.41.19.41.4v.87Z"/>
  <path class="cls-14" d="M178.52,211.89v-.82l.09-.14.09.14v.82h.88l.14.08-.14.08h-.61v.78l.16.13h.25c.12,0,.16-.03.17-.24l.08-.16.1.11c0,.43-.2.46-.37.46h-.27c-.26,0-.28-.17-.28-.26v-.82h-.39c0,.19-.02.67-.5.96l-.34.16-.08-.09.15-.12c.57-.24.59-.67.59-.91h-.57l-.14-.08.14-.08h.85ZM178.18,211.82l-.15-.22-.25-.41-.03-.1.08-.06.2.24.25.46-.1.09M178.99,211.8l-.07-.08.09-.12.34-.51.09-.08.08.08-.52.72"/>
  <path class="cls-14" d="M181.86,211.04l.18.14v1.75l-.18.16h-1.64l-.19-.16v-1.75l.19-.14h1.64ZM180.29,211.19l-.1.1v1.55l.1.1h1.51l.09-.1v-1.55l-.09-.1h-1.51ZM181.44,211.48l.18.18v.81l-.18.19h-.78l-.17-.19v-.81l.17-.18h.78ZM180.74,211.62l-.13.13v.64l.13.13h.61l.11-.13v-.64l-.11-.13h-.61Z"/>
  <path class="cls-14" d="M182.75,212.12c-.37,0-.4,0-.4-.08l.08-.06h.13l.2-.25-.29-.29-.13-.15.07-.08.17.13.2-.3.1-.12.07.07-.25.45.16.17.21-.38.07-.05.08.07c0,.08-.27.53-.44.74l.32-.02-.09-.28.09-.06.1.17.09.4-.08.06-.08-.15h-.21v.92l-.08.12-.08-.12v-.91ZM182.42,213l-.08-.06.1-.33.05-.32.08-.07.08.1-.24.68M183.13,212.87l-.09-.12-.05-.46.06-.09.07.1.06.36.02.15-.08.06M183.57,212.22l.15.14c0,.05-.04.28-.34.53l-.21.12-.07-.06.16-.16.27-.33v-.05s-.03-.03-.03-.03h-.15l-.13-.1.13-.07h.22ZM183.94,212.2l.12.22.31-.26.06-.04.08.07c0,.06-.15.22-.37.35l.38.31.08.09-.08.08c-.06,0-.38-.19-.59-.51v.46l-.16.16-.28-.06-.04-.07.06-.07.22.04.04-.07v-.87h-.31l-.2-.19v-.53l.2-.18h.25l.05-.13.08-.1.08.07v.07s-.04.08-.04.08h.35l.21.18v.53l-.21.19h-.31v.16ZM183.44,211.5h.86v-.12l-.09-.1h-.69l-.08.1v.12ZM184.3,211.66h-.86v.14l.08.09h.69l.09-.09v-.14Z"/>
  <path class="cls-9" d="M182.97,207.98c0,.23-.17.42-.41.42h-2.99c-.21,0-.42-.19-.42-.42v-.87c0-.22.2-.42.42-.42h2.99c.24,0,.41.2.41.42v.87Z"/>
  <path class="cls-14" d="M180.32,204.25l.09-.1.08.1v1.23c0,.42-.3.67-.68.67-.53,0-.7-.41-.7-.67v-1.23l.1-.1.09.1v1.23c0,.26.19.5.49.5.42,0,.51-.35.51-.5v-1.23Z"/>
  <polygon class="cls-14" points="182.08 205.86 182.12 205.89 182.15 205.85 182.15 204.25 182.23 204.15 182.32 204.25 182.32 205.95 182.15 206.15 181.99 206.06 181.21 204.45 181.17 204.43 181.14 204.45 181.14 206.06 181.05 206.15 180.96 206.08 180.96 204.36 181.14 204.15 181.32 204.25 182.08 205.86"/>
  <polygon class="cls-14" points="182.79 204.25 182.87 204.16 182.96 204.25 182.96 206.06 182.88 206.15 182.79 206.06 182.79 204.25"/>
  <path class="cls-9" d="M182.97,201.18c0,.24-.17.41-.41.41h-2.99c-.21,0-.42-.17-.42-.41v-.87c0-.21.2-.41.42-.41h2.99c.24,0,.41.2.41.41v.87Z"/>
  <path class="cls-14" d="M179.5,197.62l.12.07-.12.07h-.67l-.12-.07.12-.07h.67ZM179.4,198.29l.12.07-.12.06h-.5l-.11-.06.11-.07h.49ZM179.41,197.31l.12.06-.12.08h-.48l-.12-.08.12-.06h.48ZM179.4,197.96l.12.07-.12.08h-.47l-.12-.08.12-.07h.47ZM179.32,198.61l.2.18v.43l-.2.18h-.32l-.2-.18v-.43l.2-.18h.32ZM179.04,198.77l-.09.08v.31l.09.07h.25l.08-.07v-.31l-.08-.08h-.25ZM179.73,199.2l-.1.1-.07-.05.08-.24.11-.37.06-.07.08.09-.16.53M179.79,197.46l-.12-.09.12-.06h.93l.16.29-.03.56-.24.16-.29-.05-.03-.07.08-.07h.05l.16.03c.16,0,.16-.19.16-.62l-.07-.08h-.39l-.03.31.23.15.03.06-.08.08-.08-.03-.17-.11c-.13.25-.42.44-.5.44l-.08-.07.11-.13.32-.32-.23-.1-.04-.07.08-.08.23.1.04-.24h-.32ZM180.15,199.17l.1.09h.17l.09-.17.09-.14.09.09-.07.26-.14.11h-.23l-.24-.19v-.51l.08-.12.08.12v.48ZM180.53,198.73l-.06.06-.13-.11-.24-.3-.03-.04.09-.09.37.48M180.88,199.32l-.11-.2-.09-.32-.07-.19.08-.07.11.12.16.58-.08.08"/>
  <path class="cls-14" d="M181.95,197.62l.13.07-.13.07h-.7l-.13-.06.13-.08h.7ZM181.86,197.3l.13.07-.13.08h-.51l-.14-.08.14-.07h.51ZM181.85,197.96l.14.07-.14.08h-.5l-.14-.08.14-.07h.5ZM181.8,198.61l.16.16v.46l-.16.15h-.42l-.16-.15v-.46l.16-.16h.42ZM181.86,198.29l.13.07-.13.08h-.51l-.12-.08.12-.07h.51ZM181.44,198.77l-.06.06v.33l.06.05h.3l.07-.05v-.33l-.07-.06h-.3ZM183.23,199.22l.12.08-.12.08h-1.11l-.12-.08.12-.08h.11v-1.16l.06-.12.08.12v1.16h.28v-1.74h-.45l-.12-.06.12-.09h.98l.13.09-.13.06h-.36v.68h.34l.14.09-.14.07h-.34v.9h.4Z"/>
  <path class="cls-9" d="M183.17,122.51c0,.23-.19.41-.4.41h-2.99c-.22,0-.4-.18-.4-.41v-.65c0-.23.18-.41.4-.41h2.99c.21,0,.4.18.4.41v.65Z"/>
  <path class="cls-14" d="M176.67,120.59l-.21.22-.06-.1.04-.08c.35-.35.35-.92.35-1.37v-.22s.07-.13.07-.13l.08.11c0,.67,0,1.16-.27,1.55M177.38,120.44l.04.09c.08,0,.43-.21.54-.79l.04-.22.07-.03.07.09s-.04.5-.33.87l-.44.28-.15-.2v-1.51l.07-.15.08.15v1.42Z"/>
  <polygon class="cls-14" points="180.05 119.74 180.13 119.84 180.05 119.94 178.42 119.94 178.32 119.84 178.42 119.74 180.05 119.74"/>
  <path class="cls-14" d="M180.88,119.34c-.22.44-.51.62-.56.62l-.08-.1.07-.1c.06-.04.44-.26.55-.88l.09-.13.07.1-.06.32h.68l.17.18c0,.08-.05.45-.33.85l.16.26-.08.08-.06-.03-.12-.19c-.36.41-.8.56-.84.56l-.08-.12.08-.09c.39-.13.62-.34.73-.47l-.35-.36-.04-.09.07-.08.43.39c.25-.37.27-.7.27-.7l-.08-.05h-.69Z"/>
  <path class="cls-14" d="M183.09,119.06h.67l.13.05.05.11v.26l-.06.14-.07-.14v-.2l-.08-.07h-.64v.39l-.05.13-.07-.13v-.39h-.65l-.08.07v.2l-.05.14-.06-.14v-.26l.17-.16h.67v-.11h-.62l-.11-.08.11-.06h1.4l.11.06-.11.08h-.66v.11ZM183.06,120.65l.11.11h.52l.15-.14.09-.17.05.08s-.01.39-.27.39h-.58l-.22-.25v-.08h-.47l-.21-.15v-.47l.21-.15h1.12l.19.15v.47l-.19.15h-.51v.05ZM182.45,119.46l-.09-.06.09-.06h.32l.08.06-.08.06h-.32ZM182.45,119.69l-.09-.07.09-.07h.32l.08.07-.08.07h-.32ZM182.91,119.96h-.44l-.09.08v.11h.53v-.18ZM182.91,120.27h-.53v.11l.09.08h.44v-.19ZM183.06,120.14h.56v-.11l-.08-.08h-.48v.18ZM183.06,120.46h.48l.08-.08v-.11h-.56v.19ZM183.61,119.34l.09.06-.09.06h-.31l-.09-.06.09-.06h.31ZM183.3,119.69l-.09-.07.09-.07h.31l.09.07-.09.07h-.31Z"/>
  <path class="cls-14" d="M184.49,119.59l.12.19-.06.08-.08-.07-.32-.34-.03-.07.06-.09.31.31ZM184.11,120.8l.04-.09c.12-.16.27-.45.34-.7l.07-.05.06.07s-.06.3-.27.66l-.17.19-.04-.02-.03-.04M184.56,119.02l.11.16-.06.08-.05-.02-.34-.34-.04-.07.07-.08.31.28M185.34,119.17l.05-.23h-.42l-.12.11v.68c0,.35-.05.71-.16,1.04l-.1.16-.07-.07.08-.28c.07-.26.12-.55.12-.81v-.75c0-.22.08-.23.22-.23h.93l.12.07-.12.08h-.33l-.07.23h.28l.16.16v.66l-.16.18h-.22v.51c0,.23-.15.24-.17.24l-.22-.06-.08-.09.06-.07.2.06.07-.12v-.47h-.25l-.17-.18v-.66l.17-.16h.2ZM184.99,120.5l.09-.24.06-.03.06.07s-.02.16-.17.42l-.15.18-.06-.08.16-.32M185.09,119.57h.67v-.18l-.08-.08h-.49l-.11.08v.18ZM185.76,119.72h-.67v.19l.11.11h.49l.08-.11v-.19ZM185.96,120.89l-.32-.59.07-.07.1.17.13.25.09.12-.07.12"/>
  <path class="cls-9" d="M182.97,221.67c0,.23-.17.42-.41.42h-2.99c-.21,0-.42-.19-.42-.42v-.86c0-.24.2-.42.42-.42h2.99c.24,0,.41.18.41.42v.86Z"/>
  <path class="cls-14" d="M179.92,218.09h.78l.16.03.06.13v.27l-.09.12-.07-.12v-.22l-.08-.08h-.76v.4l-.08.12-.08-.12v-.4h-.77l-.09.08v.22l-.07.12-.08-.12v-.27l.22-.16h.79v-.11h-.76l-.11-.09.11-.05h1.68l.11.05-.11.09h-.77v.11ZM179.85,219.68l.13.12h.62l.18-.14.09-.19.09.08c0,.06-.03.39-.32.39h-.69l-.27-.24v-.08h-.56c-.22,0-.24-.13-.24-.16v-.46s.02-.16.24-.16h1.34c.22,0,.22.12.22.16v.46s0,.16-.22.16h-.62v.05ZM179.14,218.48l-.1-.07.1-.06h.38l.09.06-.09.07h-.38ZM179.14,218.7l-.1-.06.1-.06h.38l.09.06-.09.06h-.38ZM179.69,218.98h-.54l-.08.08v.12h.62v-.19ZM179.69,219.32h-.62v.08l.08.09h.54v-.17ZM179.85,219.18h.67v-.12l-.09-.08h-.59v.19ZM179.85,219.49h.59l.09-.09v-.08h-.67v.17ZM180.51,218.34l.12.06-.12.07h-.37l-.1-.07.1-.06h.37ZM180.14,218.7l-.1-.06.1-.06h.37l.12.06-.12.06h-.37Z"/>
  <path class="cls-14" d="M181.57,218.61l.13.19-.08.08-.08-.07-.38-.35-.03-.06.09-.09.36.3ZM181.12,219.84l.05-.09c.13-.17.3-.45.4-.72l.08-.05.05.06c0,.05-.07.29-.32.65l-.19.2-.06-.03v-.03M181.65,218.04l.13.16-.08.07h-.05s-.41-.37-.41-.37l-.05-.06.08-.08.38.27M182.56,218.18l.07-.22h-.5l-.13.12v.68c0,.36-.07.71-.19,1.05l-.13.16-.09-.07.09-.27c.1-.28.14-.56.14-.83v-.76c0-.22.09-.23.27-.23h1.1l.13.08-.13.08h-.4l-.07.22h.31l.2.16v.66l-.2.19h-.26v.52c0,.21-.17.22-.2.22l-.25-.05-.1-.08.07-.09.24.06.09-.12v-.47h-.31l-.2-.19v-.66l.2-.16h.24ZM182.15,219.53l.11-.23.06-.06.08.08s-.03.16-.21.44l-.17.17-.07-.08.19-.33M182.29,218.61h.79v-.18l-.11-.09h-.58l-.09.09v.18ZM183.07,218.74h-.79v.2l.09.09h.58l.11-.09v-.2ZM183.32,219.91l-.39-.58.08-.08.14.19.15.25.09.14-.07.08"/>
  <polygon class="cls-9" points="189.21 69.8 168.45 57.86 164.53 60 185.29 71.95 189.21 69.8"/>
  <polygon class="cls-9" points="159.58 57.01 158.44 56.34 157.31 57 158.46 57.66 159.58 57.01"/>
  <polygon class="cls-9" points="188.74 73.87 187.59 73.2 186.47 73.85 187.61 74.52 188.74 73.87"/>
  <polyline class="cls-9" points="188.47 70.02 168.45 58.49 165.24 60.24"/>
  <path class="cls-9" d="M183.17,161.27c0,.22-.19.4-.4.4h-2.99c-.22,0-.4-.19-.4-.4v-.65c0-.22.18-.41.4-.41h2.99c.21,0,.4.19.4.41v.65Z"/>
  <path class="cls-14" d="M178.08,157.64l.06.11v.25h.29l.09.1-.09.1h-.29v1.39l-.06.11-.07-.11v-1.01c-.11.26-.26.47-.46.67l-.31.23-.1-.12.04-.05.36-.27.26-.39.2-.45h-.71l-.08-.1.08-.1h.73v-.25l.07-.11Z"/>
  <path class="cls-14" d="M180.17,157.76l-.03-.07.02-.06.04-.03.06.03.03.06-.09.11-.03-.05ZM178.9,157.83l.08.1h.88l.08.09-.08.45-.22.46-.31.35-.4.16-.03.07.08.11.24-.07.31-.23c.23-.21.39-.49.48-.85l.08-.43-.21-.29h-.92l-.08.1M180.09,157.53l-.05.16.05.16.1.08.12-.05.06-.19-.06-.16-.13-.06-.11.06"/>
  <path class="cls-14" d="M180.66,157.83l.53.16.07.07-.09.11-.51-.14-.08-.08.08-.11ZM180.66,158.44l.53.14.07.09-.09.12-.51-.17-.08-.07.08-.1M181.86,158.02l.07.09-.07.46-.15.45-.28.34-.34.18-.37.09-.08-.12.04-.07.44-.1.38-.3.19-.42.1-.5.06-.11"/>
  <polygon class="cls-14" points="182.43 158.19 182.52 158.3 183.28 158.3 183.35 158.4 183.35 158.79 182.57 158.79 182.49 158.87 182.57 158.97 183.35 158.97 183.35 159.37 183.34 159.43 183.28 159.47 182.52 159.47 182.43 159.58 182.52 159.67 183.28 159.67 183.38 159.64 183.5 159.37 183.5 158.4 183.28 158.1 182.52 158.1 182.43 158.19"/>
  <path class="cls-14" d="M184.05,157.96l.06.03.28.16.26.19.05.05-.08.13-.07-.05s-.2-.12-.54-.35l-.02-.04.06-.12ZM185.29,157.96l.08.12-.05.41-.17.48c-.16.3-.38.48-.67.58l-.32.06-.08-.13.03-.04.49-.14.34-.3.21-.44.09-.47.06-.13"/>
  <polygon class="cls-11" points="203.44 241.83 193.39 247.56 193.39 243.5 203.44 237.79 203.44 241.83"/>
  <polyline class="cls-7" points="136.9 236.97 136.9 236.97 136.88 208.73 81.61 176.84"/>
  <polygon class="cls-7" points="112.01 198.8 106.44 195.54 109.25 198.99 112.01 198.8"/>
  <polyline class="cls-7" points="112.01 196.25 112.01 196.82 106.44 193.55"/>
  <polyline class="cls-7" points="112.01 195.04 112.01 195.58 106.44 192.32"/>
  <polyline class="cls-7" points="112.01 197.48 112.01 198.03 106.44 194.78"/>
  <polyline class="cls-7" points="84.65 48.65 171.92 99.01 171.92 100.99"/>
  <polyline class="cls-7" points="171.92 101.01 84.65 50.66 84.65 48.65"/>
  <polyline class="cls-7" points="84.65 52.02 171.92 102.38 171.92 104.38"/>
  <polyline class="cls-7" points="171.92 104.38 84.65 54.01 84.65 52.02"/>
  <polyline class="cls-7" points="84.65 55.4 171.92 105.74 171.92 107.73"/>
  <polyline class="cls-7" points="171.92 107.73 84.65 57.39 84.65 55.4"/>
  <polyline class="cls-7" points="84.65 58.75 171.92 109.12 171.92 111.1"/>
  <polyline class="cls-7" points="171.92 111.1 84.65 60.76 84.65 58.76"/>
  <polyline class="cls-7" points="84.65 62.12 171.92 112.48 171.92 114.48"/>
  <polyline class="cls-7" points="171.92 114.48 84.65 64.11 84.65 62.12"/>
  <polyline class="cls-7" points="84.65 65.49 171.92 115.83 171.92 117.85"/>
  <polyline class="cls-7" points="171.92 117.85 84.65 67.49 84.65 65.49"/>
  <polyline class="cls-7" points="84.65 68.86 171.92 119.21 171.92 121.2"/>
  <polyline class="cls-7" points="171.92 121.21 84.65 70.87 84.65 68.86"/>
  <polyline class="cls-7" points="84.65 72.22 171.92 122.57 171.92 124.58"/>
  <polyline class="cls-7" points="171.92 124.58 84.65 74.24 84.65 72.23"/>
  <polyline class="cls-7" points="84.65 75.6 171.92 125.96 171.92 127.95"/>
  <polyline class="cls-7" points="171.92 127.95 84.65 77.59 84.65 75.6"/>
  <polyline class="cls-7" points="84.65 78.97 171.92 129.32 171.92 131.31"/>
  <polyline class="cls-7" points="171.92 131.31 84.65 80.97 84.65 78.97"/>
  <polyline class="cls-7" points="84.65 82.33 171.92 132.68 171.92 134.68"/>
  <polyline class="cls-7" points="171.92 134.68 84.65 84.34 84.65 82.33"/>
  <polyline class="cls-7" points="84.65 85.71 171.92 136.05 171.92 138.05"/>
  <polyline class="cls-7" points="171.92 138.05 84.65 87.7 84.65 85.71"/>
  <polyline class="cls-7" points="84.65 89.07 171.92 139.42 171.92 141.42"/>
  <polyline class="cls-7" points="171.92 141.42 84.65 91.07 84.65 89.07"/>
  <polyline class="cls-7" points="84.65 92.44 171.92 142.78 171.92 144.79"/>
  <polyline class="cls-7" points="171.92 144.79 84.65 94.43 84.65 92.44"/>
  <polyline class="cls-7" points="84.65 95.8 171.92 146.15 171.92 148.15"/>
  <polyline class="cls-7" points="171.92 148.16 84.65 97.8 84.65 95.8"/>
  <polyline class="cls-7" points="84.65 99.16 171.92 149.53 171.92 151.52"/>
  <polyline class="cls-7" points="171.92 151.52 84.65 101.16 84.65 99.16"/>
  <polyline class="cls-7" points="84.65 102.53 171.92 152.89 171.92 154.89"/>
  <polyline class="cls-7" points="171.92 154.89 84.65 104.53 84.65 102.53"/>
  <polyline class="cls-7" points="84.65 105.91 171.92 156.26 171.92 158.26"/>
  <polyline class="cls-7" points="171.92 158.26 84.65 107.91 84.65 105.91"/>
  <polyline class="cls-7" points="84.65 109.28 171.92 159.62 171.92 161.63"/>
  <polyline class="cls-7" points="171.92 161.63 84.65 111.27 84.65 109.28"/>
  <polyline class="cls-7" points="84.65 112.65 171.92 162.99 171.92 165"/>
  <polyline class="cls-7" points="171.92 165 84.65 114.65 84.65 112.65"/>
  <polyline class="cls-7" points="84.65 116.01 171.92 166.37 171.92 168.37"/>
  <polyline class="cls-7" points="171.92 168.36 84.65 118.01 84.65 116.01"/>
  <polyline class="cls-7" points="84.65 119.39 171.92 169.74 171.92 171.73"/>
  <polyline class="cls-7" points="171.92 171.72 84.65 121.38 84.65 119.39"/>
  <polyline class="cls-7" points="84.65 122.75 171.92 173.1 171.92 175.09"/>
  <polyline class="cls-7" points="171.92 175.09 84.65 124.74 84.65 122.75"/>
  <polyline class="cls-7" points="84.65 126.12 171.92 176.47 171.92 178.46"/>
  <polyline class="cls-7" points="171.92 178.46 84.65 128.12 84.65 126.12"/>
  <polyline class="cls-7" points="84.65 129.47 171.92 179.83 171.92 181.83"/>
  <polyline class="cls-7" points="171.92 181.83 84.65 131.48 84.65 129.47"/>
  <polyline class="cls-7" points="84.65 132.85 171.92 183.2 171.92 185.2"/>
  <polyline class="cls-7" points="171.92 185.2 84.65 134.85 84.65 132.85"/>
  <polyline class="cls-7" points="84.65 136.22 171.92 186.57 171.92 188.57"/>
  <polyline class="cls-7" points="171.92 188.57 84.65 138.21 84.65 136.22"/>
  <polyline class="cls-7" points="84.65 139.59 171.92 189.94 171.92 191.94"/>
  <polyline class="cls-7" points="171.92 191.94 84.65 141.58 84.65 139.59"/>
  <polyline class="cls-7" points="84.65 142.95 171.92 193.3 171.92 195.3"/>
  <polyline class="cls-7" points="171.92 195.3 84.65 144.96 84.65 142.95"/>
  <polyline class="cls-7" points="84.65 146.31 171.92 196.68 171.92 198.66"/>
  <polyline class="cls-7" points="171.92 198.66 84.65 148.32 84.65 146.31"/>
  <polyline class="cls-7" points="100.89 159.02 171.92 200.04 171.92 202.04"/>
  <polyline class="cls-7" points="84.65 149.69 95.28 155.84 95.26 157.81 84.65 151.7 84.65 149.69"/>
  <line class="cls-7" x1="171.92" y1="202.04" x2="100.84" y2="160.97"/>
  <polyline class="cls-7" points="84.65 153.06 171.92 203.41 171.92 205.42"/>
  <polyline class="cls-7" points="171.92 205.42 84.65 155.05 84.65 153.06"/>
  <polyline class="cls-7" points="84.65 156.43 171.92 206.78 171.92 208.78"/>
  <polyline class="cls-7" points="171.92 208.78 84.65 158.42 84.65 156.43"/>
  <polyline class="cls-7" points="84.65 159.79 171.92 210.15 171.92 212.16"/>
  <polyline class="cls-7" points="171.92 212.15 84.65 161.79 84.65 159.81"/>
  <polyline class="cls-7" points="84.65 163.16 171.92 213.52 171.92 215.51"/>
  <polyline class="cls-7" points="171.92 215.51 84.65 165.17 84.65 163.16"/>
  <polyline class="cls-7" points="84.65 166.53 171.92 216.88 171.92 218.88"/>
  <polyline class="cls-7" points="171.92 218.88 84.65 168.53 84.65 166.53"/>
  <polyline class="cls-7" points="84.65 169.89 171.92 220.25 171.92 222.25"/>
  <polyline class="cls-7" points="171.92 222.25 84.65 171.9 84.65 169.9"/>
  <polyline class="cls-7" points="84.65 173.26 171.92 223.62 171.92 225.62"/>
  <polyline class="cls-7" points="171.92 225.62 84.65 175.26 84.65 173.26"/>
  <polyline class="cls-7" points="84.65 176.62 171.92 226.98 171.92 228.98"/>
  <polyline class="cls-7" points="171.92 228.98 84.65 178.63 84.65 176.62"/>
  <polyline class="cls-7" points="102.41 146.5 100.84 147.56 100.84 148.93"/>
  <polyline class="cls-7" points="102.41 149.85 100.84 150.91 100.84 152.29"/>
  <polyline class="cls-7" points="102.41 153.2 100.84 154.28 100.84 155.63"/>
  <polyline class="cls-7" points="102.41 156.57 100.84 157.63 100.84 160.97"/>
  <polyline class="cls-7" points="102.41 159.94 100.84 160.97 100.84 162.36"/>
  <polyline class="cls-7" points="102.41 163.29 100.84 164.34 100.84 165.71"/>
  <polyline class="cls-7" points="102.41 166.64 100.84 167.69 100.84 169.07"/>
  <polyline class="cls-7" points="102.41 169.99 100.84 171.05 100.84 172.43"/>
  <polyline class="cls-7" points="99.64 157.4 99.17 157.14 99.17 160.75"/>
  <polyline class="cls-7" points="100.63 157.96 100.16 157.69 100.16 161.31"/>
  <polyline class="cls-7" points="98.65 156.82 98.18 156.55 98.18 160.17"/>
  <polygon class="cls-7" points="97.51 156.2 97.51 159.85 95.95 157.19 97.51 156.2"/>
  <path class="cls-9" d="M104.17,18.39l95.93,55.45-13.45,7.62,3.01,1.74c.78.3,1.43.95,1.43,2.05"/>
  <path class="cls-12" d="M190.36,180.36c0,.41-.28.9-.61,1.12l-3.19,1.24-.43.04-2.93-1.58c-.43-.27-.55-.66-.55-1.06v-10.41c0-.56.62-1.18,1.49-1.18l4.93-.29c.78-.04,1.29-.35,1.29-.35"/>
  <path class="cls-9" d="M190.36,180.36c0,.41-.28.9-.61,1.12l-3.19,1.24-.43.04-2.93-1.58c-.43-.27-.55-.66-.55-1.06v-10.41c0-.56.62-1.18,1.49-1.18l4.93-.29c.78-.04,1.29-.35,1.29-.35"/>
  <path class="cls-9" d="M186.12,182.76l-.19-.4v-10.89c0-.39.28-.88.62-1.06l3.8-2.54"/>
  <path class="cls-14" d="M195,239.58c.14.03.22.18.25.44l-.19.1c-.02-.14-.06-.23-.14-.26-.06-.04-.15-.02-.25.04-.13.07-.23.2-.31.39-.09.2-.12.44-.12.74,0,.26.04.44.11.56.07.13.19.14.34.06.11-.08.22-.2.29-.34.08-.16.12-.37.12-.61l-.42.23v-.23l.59-.34v1.14l-.11.06-.06-.25c-.06.13-.11.25-.15.31-.08.12-.18.21-.31.29-.16.08-.29.08-.4-.02-.12-.14-.19-.39-.19-.76s.06-.67.19-.95c.11-.26.26-.47.44-.57.12-.05.23-.08.32-.05"/>
  <polygon class="cls-14" points="195.59 239.17 196.57 238.62 196.57 238.89 195.76 239.34 195.76 239.99 196.51 239.58 196.51 239.82 195.76 240.24 195.76 240.96 196.59 240.5 196.59 240.75 195.59 241.32 195.59 239.17"/>
  <polygon class="cls-14" points="196.76 239.7 197.23 239.43 197.23 239.7 196.76 239.96 196.76 239.7"/>
  <path class="cls-14" d="M198.57,237.8c.09.14.14.36.14.66,0,.32-.05.61-.15.88-.12.32-.29.53-.51.66-.21.12-.38.1-.49-.05-.12-.16-.17-.38-.17-.71,0-.28.05-.56.14-.82.13-.33.29-.55.52-.69.23-.13.42-.11.53.07M198.41,239.26c.07-.22.11-.46.11-.7s-.04-.43-.12-.54c-.09-.1-.21-.11-.34-.02-.14.07-.25.22-.35.41-.08.21-.13.45-.13.75,0,.24.03.42.11.54.07.12.2.13.37.03.16-.08.28-.24.35-.47"/>
  <polygon class="cls-14" points="198.93 237.29 199.14 237.18 199.82 238.53 199.82 236.79 199.99 236.69 199.99 238.84 199.79 238.96 199.1 237.62 199.1 239.35 198.93 239.45 198.93 237.29"/>
  <path class="cls-14" d="M200.48,236.43v1.31c0,.16.02.28.05.36.06.13.15.15.28.08.16-.08.27-.23.33-.44.02-.11.04-.23.04-.39v-1.33l.18-.1v1.2c0,.27-.02.48-.07.65-.08.31-.24.52-.46.64-.23.14-.39.1-.47-.11-.05-.13-.07-.31-.07-.57v-1.21l.18-.09Z"/>
  <path class="cls-14" d="M193.81,244.24l.6-.34c.12-.07.22-.08.29,0,.07.06.11.19.11.39,0,.16-.04.34-.1.49-.06.15-.16.28-.3.36l-.42.23v.89l-.18.11v-2.14ZM194.52,244.12s-.1.02-.17.05l-.36.21v.75l.36-.21c.09-.05.15-.11.2-.19.05-.08.07-.2.07-.34,0-.16-.04-.24-.1-.26"/>
  <path class="cls-14" d="M195.07,243.52l.61-.35c.11-.05.19-.07.25-.06.12.02.19.15.19.4,0,.13-.02.24-.05.35-.02.09-.07.19-.14.26.05.02.1.03.12.08.03.04.04.11.05.23v.3c0,.08.01.13.02.17.01.06.02.1.05.1v.05l-.22.13s-.02-.03-.02-.07c0-.02,0-.08,0-.16v-.35c-.01-.14-.04-.22-.1-.22-.03-.01-.08,0-.16.04l-.4.23v.92l-.19.1v-2.14ZM195.66,244.17c.08-.05.16-.1.2-.19.05-.08.06-.18.06-.33s-.02-.24-.1-.26c-.03,0-.09,0-.14.04l-.43.23v.74l.4-.24Z"/>
  <polygon class="cls-14" points="196.35 243.97 196.81 243.72 196.81 243.99 196.35 244.24 196.35 243.97"/>
  <path class="cls-14" d="M197.13,243.97c.01.14.06.23.13.24.04.02.08,0,.14-.05.1-.05.17-.14.22-.26.05-.11.07-.24.07-.36,0-.16-.03-.25-.08-.29-.05-.06-.13-.06-.2-.01-.06.03-.11.08-.14.13-.05.06-.08.12-.11.2l-.14.08.09-1.19.69-.39v.25l-.56.33-.06.6s.06-.09.09-.13c.05-.06.11-.11.17-.14.12-.08.22-.08.3,0,.09.07.14.21.14.4,0,.2-.05.4-.12.58-.08.19-.2.34-.37.44-.1.06-.2.06-.28.01-.09-.05-.13-.16-.14-.36l.17-.1Z"/>
  <path class="cls-14" d="M198.83,241.8c.06.13.08.36.08.65s-.02.54-.08.75c-.07.31-.2.51-.38.61-.16.09-.28.05-.35-.12-.07-.15-.09-.37-.09-.68,0-.23.01-.46.05-.65.08-.35.21-.59.39-.69.17-.11.29-.06.37.12M198.66,243.28c.05-.15.07-.39.07-.71,0-.24-.01-.43-.05-.55-.04-.14-.11-.18-.22-.12-.1.06-.17.17-.21.34-.04.16-.06.39-.06.67,0,.22.01.38.05.49.04.18.12.24.22.17.08-.06.15-.15.21-.3"/>
  <path class="cls-14" d="M199.87,241.21c.06.14.09.35.09.65s-.03.53-.08.75c-.08.3-.2.52-.38.61-.16.1-.27.06-.35-.12-.07-.15-.1-.38-.1-.68,0-.23.02-.45.06-.65.08-.35.21-.59.39-.69.17-.09.29-.05.37.13M199.71,242.69c.05-.14.08-.38.08-.71,0-.25-.02-.42-.06-.56-.03-.12-.1-.17-.21-.11-.1.07-.17.18-.21.34-.05.17-.06.41-.06.68,0,.22.01.39.04.49.05.18.12.24.23.18.08-.05.15-.15.2-.31"/>
  <polygon class="cls-14" points="200.19 240.65 200.37 240.54 200.37 241.58 201.05 240.14 201.3 240.02 200.72 241.21 201.31 242.16 201.07 242.29 200.59 241.49 200.37 241.93 200.37 242.69 200.19 242.79 200.19 240.65"/>
  <polygon class="cls-14" points="201.49 239.92 201.67 239.8 201.67 241.94 201.49 242.05 201.49 239.92"/>
  <path class="cls-12" d="M187,181.43l-.1-.23v-9.48c0-.2.15-.47.34-.59l8.88-5.12.23-.02.1.22v9.47c0,.21-.15.49-.34.6l-8.88,5.13-.24.03Z"/>
  <path class="cls-9" d="M187,181.43l-.1-.23v-9.48c0-.2.15-.47.34-.59l8.88-5.12.23-.02.1.22v9.47c0,.21-.15.49-.34.6l-8.88,5.13-.24.03Z"/>
  <line class="cls-9" x1="183.47" y1="169.57" x2="185.68" y2="170.41"/>
  <polygon class="cls-9" points="190.7 178.47 187.69 180.18 187.69 171.79 190.7 170.07 190.7 178.47"/>
  <polygon class="cls-9" points="189.01 178.88 188.36 179.23 188.36 171.98 189.01 171.61 189.01 178.88"/>
  <line class="cls-9" x1="189.01" y1="171.61" x2="188.6" y2="171.47"/>
  <line class="cls-9" x1="188.36" y1="179.23" x2="187.96" y2="179.1"/>
  <polygon class="cls-9" points="195.79 175.53 192.78 177.25 192.78 168.86 195.79 167.13 195.79 175.53"/>
  <polygon class="cls-9" points="194.1 175.93 193.44 176.3 193.44 169.03 194.1 168.69 194.1 175.93"/>
  <line class="cls-9" x1="194.1" y1="168.69" x2="193.69" y2="168.53"/>
  <line class="cls-9" x1="193.44" y1="176.3" x2="193.04" y2="176.16"/>
  <path class="cls-14" d="M199.12,166.28l-.5,1.16.32-.19v3.22l-.11-.05c-.21-.09-.41-.16-.41-.49v-.59l.16-.42-.33-.18-.33.55.17.23v.6c0,.51.3.62.54.7l.31.19v.51c-.17.2-.29.45-.29.67,0,.3.22.43.48.26.25-.13.47-.5.47-.79,0-.23-.13-.36-.3-.34v-1.39c.05-.17.2-.38.34-.59.25-.39.56-.86.56-1.38v-.21l.16-.09v-.74l-.64.39v.72l.16-.09v.21c0,.34-.22.66-.44,1.01l-.13.2v-2.31l.32-.17-.5-.59Z"/>
  <line class="cls-10" x1="127.36" y1="242.35" x2="135.25" y2="237.18"/>
  <polyline class="cls-12" points="135.4 237.2 133.65 232.79 123.72 227.01 115.76 231.72 114.24 234.75"/>
  <polyline class="cls-4" points="135.4 237.2 133.65 232.79 123.72 227.01 115.76 231.72 114.24 234.75"/>
  <polyline class="cls-10" points="114.24 234.75 115.75 231.73 125.84 237.58 127.51 242.36"/>
  <line class="cls-10" x1="125.84" y1="237.58" x2="133.65" y2="232.79"/>
  <line class="cls-8" x1="128.94" y1="232.14" x2="124.3" y2="234.95"/>
  <path class="cls-2" d="M121.81,232.49v-1.38l.28-.38,3.19-1.96c.42-.24,1.07-.24,1.49,0l2.18,1.27v2.11"/>
  <path class="cls-10" d="M121.8,231.11c-.02.16.08.34.3.46l2.19,1.28v2.1"/>
  <line class="cls-10" x1="124.29" y1="232.85" x2="128.94" y2="230.03"/>
  <polyline class="cls-10" points="124.29 234.95 120.72 232.8 120.72 232.14 121.85 231.51"/>
  <line class="cls-13" x1="121.8" y1="232.62" x2="120.85" y2="232.07"/>
  <line class="cls-9" x1="121.8" y1="232.62" x2="120.85" y2="232.07"/>
</svg>