<?xml version="1.0" encoding="UTF-8"?>
<svg id="_レイヤー_1" data-name="レイヤー 1" xmlns="http://www.w3.org/2000/svg" version="1.1" viewBox="0 0 141.73 141.73">
  <defs>
    <style>
      .cls-1 {
        fill: #b5b5b6;
        stroke-width: 0px;
      }
    </style>
  </defs>
  <rect class="cls-1" x="64.53" y="3.09" width="12.67" height="35.47" rx="6.33" ry="6.33"/>
  <rect class="cls-1" x="39.51" y="9.79" width="12.67" height="35.47" rx="6.33" ry="6.33" transform="translate(-7.62 26.61) rotate(-30)"/>
  <rect class="cls-1" x="21.2" y="28.11" width="12.67" height="35.47" rx="6.33" ry="6.33" transform="translate(-25.94 46.76) rotate(-60)"/>
  <rect class="cls-1" x="3.09" y="64.53" width="35.47" height="12.67" rx="6.33" ry="6.33"/>
  <rect class="cls-1" x="9.79" y="89.55" width="35.47" height="12.67" rx="6.33" ry="6.33" transform="translate(-44.26 26.61) rotate(-30)"/>
  <rect class="cls-1" x="28.11" y="107.87" width="35.47" height="12.67" rx="6.33" ry="6.33" transform="translate(-75.98 96.8) rotate(-60)"/>
  <rect class="cls-1" x="64.53" y="103.17" width="12.67" height="35.47" rx="6.33" ry="6.33"/>
  <rect class="cls-1" x="89.55" y="96.47" width="12.67" height="35.47" rx="6.33" ry="6.33" transform="translate(-44.26 63.24) rotate(-30)"/>
  <rect class="cls-1" x="107.87" y="78.15" width="12.67" height="35.47" rx="6.33" ry="6.33" transform="translate(-25.94 146.85) rotate(-60)"/>
  <rect class="cls-1" x="103.17" y="64.53" width="35.47" height="12.67" rx="6.33" ry="6.33"/>
  <rect class="cls-1" x="96.47" y="39.51" width="35.47" height="12.67" rx="6.33" ry="6.33" transform="translate(-7.62 63.24) rotate(-30)"/>
  <rect class="cls-1" x="78.15" y="21.2" width="35.47" height="12.67" rx="6.33" ry="6.33" transform="translate(24.1 96.8) rotate(-60)"/>
</svg>