<?xml version="1.0" encoding="UTF-8"?>
<svg id="_レイヤー_1" data-name="レイヤー 1" xmlns="http://www.w3.org/2000/svg" xmlns:xlink="http://www.w3.org/1999/xlink" version="1.1" viewBox="0 0 283.46 283.46">
  <defs>
    <style>
      .cls-1 {
        fill: #d6d6d6;
      }

      .cls-1, .cls-2, .cls-3, .cls-4, .cls-5, .cls-6 {
        stroke-width: 0px;
      }

      .cls-1, .cls-2, .cls-4, .cls-5 {
        fill-rule: evenodd;
      }

      .cls-2 {
        fill: #f3f2f0;
      }

      .cls-7 {
        clip-path: url(#clippath);
      }

      .cls-3, .cls-8, .cls-9, .cls-10, .cls-11, .cls-12, .cls-13 {
        fill: none;
      }

      .cls-8, .cls-9, .cls-10 {
        stroke: #707577;
      }

      .cls-8, .cls-9, .cls-10, .cls-11, .cls-12, .cls-13 {
        stroke-linejoin: round;
      }

      .cls-8, .cls-13 {
        stroke-width: 1.03px;
      }

      .cls-14 {
        clip-path: url(#clippath-1);
      }

      .cls-15 {
        clip-path: url(#clippath-4);
      }

      .cls-16 {
        clip-path: url(#clippath-3);
      }

      .cls-17 {
        clip-path: url(#clippath-2);
      }

      .cls-18 {
        clip-path: url(#clippath-5);
      }

      .cls-9 {
        stroke-width: 1.37px;
      }

      .cls-10 {
        stroke-width: 2.73px;
      }

      .cls-11 {
        stroke: #9fa0a0;
        stroke-width: 1.71px;
      }

      .cls-19 {
        opacity: .51;
      }

      .cls-4 {
        fill: #9fa0a0;
      }

      .cls-12 {
        stroke: #fff;
        stroke-linecap: round;
        stroke-width: 23.99px;
      }

      .cls-5, .cls-6 {
        fill: #fff;
      }

      .cls-13 {
        stroke: #040000;
      }
    </style>
    <clipPath id="clippath">
      <rect class="cls-3" y="90.92" width="88.32" height="83.49"/>
    </clipPath>
    <clipPath id="clippath-1">
      <rect class="cls-3" x="12" y="102.93" width="64.33" height="59.48"/>
    </clipPath>
    <clipPath id="clippath-2">
      <rect class="cls-3" x="12" y="102.93" width="64.33" height="59.48"/>
    </clipPath>
    <clipPath id="clippath-3">
      <rect class="cls-3" x="12" y="102.93" width="64.33" height="59.48"/>
    </clipPath>
    <clipPath id="clippath-4">
      <rect class="cls-3" x="12" y="102.91" width="64.33" height="59.49"/>
    </clipPath>
    <clipPath id="clippath-5">
      <rect class="cls-3" x="12" y="102.93" width="64.33" height="59.48"/>
    </clipPath>
  </defs>
  <g class="cls-19">
    <g class="cls-7">
      <rect class="cls-6" x="12" y="102.93" width="64.33" height="59.48"/>
      <g class="cls-14">
        <rect class="cls-6" x="12" y="102.93" width="64.33" height="59.48"/>
      </g>
      <g class="cls-17">
        <path class="cls-5" d="M12.01,126.02l3.95-23.11,57.33.75,3.03,27.07-2.24,31.32-26.1.35-35.61-.97c-.14-11.8-.24-23.61-.36-35.41"/>
        <path class="cls-12" d="M12.01,126.02l3.95-23.11,57.33.75,3.03,27.07-2.24,31.32-26.1.35-35.61-.97c-.14-11.8-.24-23.61-.36-35.41"/>
      </g>
      <g class="cls-16">
        <rect class="cls-12" x="12" y="102.93" width="64.33" height="59.48"/>
      </g>
      <rect class="cls-12" x="12" y="102.93" width="64.33" height="59.48"/>
    </g>
  </g>
  <path class="cls-6" d="M12.01,126.02l3.95-23.11,57.33.75,3.03,27.07-2.24,31.32-26.1.35-35.61-.97c-.14-11.8-.24-23.61-.36-35.41"/>
  <path class="cls-12" d="M12.01,126.02l3.95-23.11,57.33.75,3.03,27.07-2.24,31.32-26.1.35-35.61-.97c-.14-11.8-.24-23.61-.36-35.41Z"/>
  <path class="cls-5" d="M76.42,126.94l-2.85-23.18,48.37-.51,2.01,3.38,28.21-.22,4.31,21.43-5.05,30.7-30.5,1.11-4.68,3.78-41.72-.98c-.13-11.84,2.03-23.68,1.89-35.52"/>
  <path class="cls-12" d="M76.42,126.94l-2.85-23.18,48.37-.51,2.01,3.38,28.21-.22,4.31,21.43-5.05,30.7-30.5,1.11-4.68,3.78-41.72-.98c-.13-11.84,2.03-23.68,1.89-35.52"/>
  <path class="cls-6" d="M76.42,126.94l-2.85-23.18,48.37-.51,2.01,3.38,28.21-.22,4.31,21.43-5.05,30.7-30.5,1.11-4.68,3.78-41.72-.98c-.13-11.84,2.03-23.68,1.89-35.52"/>
  <path class="cls-12" d="M76.42,126.94l-2.85-23.18,48.37-.51,2.01,3.38,28.21-.22,4.31,21.43-5.05,30.7-30.5,1.11-4.68,3.78-41.72-.98c-.13-11.84,2.03-23.68,1.89-35.52Z"/>
  <line class="cls-6" x1="12.01" y1="125.95" x2="76.32" y2="126.98"/>
  <line class="cls-12" x1="12.01" y1="125.95" x2="76.32" y2="126.98"/>
  <path class="cls-6" d="M78.39,133.68h0c0-1.61,1.3-2.91,2.93-2.91s2.9,1.3,2.9,2.91-1.3,2.93-2.9,2.93-2.93-1.3-2.93-2.93"/>
  <path class="cls-12" d="M78.39,133.68h0c0-1.61,1.3-2.91,2.93-2.91s2.9,1.3,2.9,2.91-1.3,2.93-2.9,2.93-2.93-1.3-2.93-2.93Z"/>
  <path class="cls-6" d="M75.63,158.27h0c0-1.52,1.23-2.75,2.76-2.75s2.74,1.24,2.74,2.75-1.23,2.74-2.74,2.74-2.76-1.23-2.76-2.74"/>
  <path class="cls-12" d="M75.63,158.27h0c0-1.52,1.23-2.75,2.76-2.75s2.74,1.24,2.74,2.75-1.23,2.74-2.74,2.74-2.76-1.23-2.76-2.74Z"/>
  <path class="cls-6" d="M76.32,126.39l42.23,1c7.96.15,4.23.6,5.47-.12.34-.94,1.46,1.05,1.05-2.88-.4-3.96-2.33-13.87-3.52-20.79"/>
  <path class="cls-12" d="M76.32,126.39l42.23,1c7.96.15,4.23.6,5.47-.12.34-.94,1.46,1.05,1.05-2.88-.4-3.96-2.33-13.87-3.52-20.79"/>
  <line class="cls-6" x1="124.14" y1="127.33" x2="120.7" y2="159.65"/>
  <line class="cls-12" x1="124.14" y1="127.33" x2="120.7" y2="159.65"/>
  <line class="cls-6" x1="126.55" y1="112.88" x2="141.01" y2="112.88"/>
  <line class="cls-12" x1="126.55" y1="112.88" x2="141.01" y2="112.88"/>
  <line class="cls-6" x1="127.87" y1="118.04" x2="141.36" y2="118.04"/>
  <line class="cls-12" x1="127.87" y1="118.04" x2="141.36" y2="118.04"/>
  <line class="cls-6" x1="128.26" y1="123.2" x2="142.67" y2="123.2"/>
  <line class="cls-12" x1="128.26" y1="123.2" x2="142.67" y2="123.2"/>
  <line class="cls-6" x1="128.26" y1="133.17" x2="141.34" y2="133.16"/>
  <line class="cls-12" x1="128.26" y1="133.17" x2="141.34" y2="133.16"/>
  <line class="cls-6" x1="127.57" y1="138.33" x2="140.68" y2="138.32"/>
  <line class="cls-12" x1="127.57" y1="138.33" x2="140.68" y2="138.32"/>
  <line class="cls-6" x1="127.21" y1="143.49" x2="139.97" y2="143.49"/>
  <line class="cls-12" x1="127.21" y1="143.49" x2="139.97" y2="143.49"/>
  <line class="cls-6" x1="126.57" y1="148.66" x2="138.59" y2="148.62"/>
  <line class="cls-12" x1="126.57" y1="148.66" x2="138.59" y2="148.62"/>
  <line class="cls-6" x1="125.91" y1="153.46" x2="137.59" y2="153.42"/>
  <line class="cls-12" x1="125.91" y1="153.46" x2="137.59" y2="153.42"/>
  <polygon class="cls-5" points="157.17 127.45 152.55 106.82 248.59 106.7 259.99 113.16 263.78 127.11 262.66 159.65 256.64 158.86 151.32 158.86 157.17 127.45"/>
  <polygon class="cls-12" points="157.17 127.45 152.55 106.82 248.59 106.7 259.99 113.16 263.78 127.11 262.66 159.65 256.64 158.86 151.32 158.86 157.17 127.45"/>
  <polygon class="cls-6" points="157.17 127.45 152.55 106.8 248.59 106.7 259.99 113.16 263.78 127.11 262.66 159.65 256.64 158.86 151.32 158.86 157.17 127.45"/>
  <polygon class="cls-12" points="157.17 127.45 152.55 106.8 248.59 106.7 259.99 113.16 263.78 127.11 262.66 159.65 256.64 158.86 151.32 158.86 157.17 127.45"/>
  <line class="cls-6" x1="157.17" y1="127.67" x2="263.78" y2="127.33"/>
  <line class="cls-12" x1="157.17" y1="127.67" x2="263.78" y2="127.33"/>
  <line class="cls-6" x1="156.82" y1="115.63" x2="245.89" y2="115.65"/>
  <line class="cls-12" x1="156.82" y1="115.63" x2="245.89" y2="115.65"/>
  <line class="cls-6" x1="124.14" y1="127.33" x2="156.46" y2="128.02"/>
  <line class="cls-12" x1="124.14" y1="127.33" x2="156.46" y2="128.02"/>
  <path class="cls-5" d="M159.11,133.48c0-1.51,1.97-2.74,3.45-2.74l88.41-1.01c1.48,1.22,1.48.13,1.46,3.06-.64,6.47-.51,13.34-1.14,19.81-1.94,1.84-2.28,1.87-3.66,1.58l-87.33,1.35c-1.5,0-3.86-.09-3.86-1.59,0-3.65,1.89-16.8,2.65-20.46"/>
  <path class="cls-12" d="M159.11,133.48c0-1.51,1.97-2.74,3.45-2.74l88.41-1.01c1.48,1.22,1.48.13,1.46,3.06-.64,6.47-.51,13.34-1.14,19.81-1.94,1.84-2.28,1.87-3.66,1.58l-87.33,1.35c-1.5,0-3.86-.09-3.86-1.59,0-3.65,1.89-16.8,2.65-20.46"/>
  <path class="cls-6" d="M159.11,133.48c0-1.51,1.97-2.74,3.45-2.74l88.41-1.01c1.48,1.22,1.48.13,1.46,3.06-.64,6.47-.51,13.34-1.14,19.81-1.94,1.84-2.28,1.87-3.66,1.58l-87.33,1.35c-1.5,0-3.86-.09-3.86-1.59,0-3.65,1.89-16.8,2.65-20.46"/>
  <path class="cls-12" d="M159.11,133.48c0-1.51,1.97-2.74,3.45-2.74l88.41-1.01c1.48,1.22,1.48.13,1.46,3.06-.64,6.47-.51,13.34-1.14,19.81-1.94,1.84-2.28,1.87-3.66,1.58l-87.33,1.35c-1.5,0-3.86-.09-3.86-1.59,0-3.65,1.89-16.8,2.65-20.46Z"/>
  <path class="cls-6" d="M35.49,159.82c0-3.33.19-7.98.19-11.31l9.05-.39c1.47-.7,1.21-3.33-.38-3.81l-8.47-.2-.08-7.59-11.23.37-.18-8.18-12.38-.36c-.1,8.42.57,25.22.51,33.63l11.61.06c-.05-.9-.08-1.81-.13-2.73l11.49.5Z"/>
  <path class="cls-12" d="M35.49,159.82c0-3.33.19-7.98.19-11.31l9.05-.39c1.47-.7,1.21-3.33-.38-3.81l-8.47-.2-.08-7.59-11.23.37-.18-8.18-12.38-.36c-.1,8.42.57,25.22.51,33.63l11.61.06c-.05-.9-.08-1.81-.13-2.73l11.49.5Z"/>
  <line class="cls-6" x1="257.26" y1="127.33" x2="256.55" y2="158.96"/>
  <line class="cls-12" x1="257.26" y1="127.33" x2="256.55" y2="158.96"/>
  <g class="cls-19">
    <g class="cls-15">
      <g class="cls-18">
        <path class="cls-4" d="M12.01,126.02l3.95-23.11,57.33.75,3.03,27.07-2.24,31.32-26.1.35-35.61-.97c-.14-11.8-.24-23.61-.36-35.41"/>
      </g>
    </g>
  </g>
  <path class="cls-10" d="M12.01,126.02l3.95-23.11,57.33.75,3.03,27.07-2.24,31.32-26.1.35-35.61-.97c-.14-11.8-.24-23.61-.36-35.41Z"/>
  <path class="cls-2" d="M76.42,126.94l-2.85-23.18,48.37-.51,2.01,3.38,28.21-.22,4.31,21.43-5.05,30.7-30.5,1.11-4.68,3.78-41.72-.98c-.13-11.84,2.03-23.68,1.89-35.52"/>
  <path class="cls-10" d="M76.42,126.94l-2.85-23.18,48.37-.51,2.01,3.38,28.21-.22,4.31,21.43-5.05,30.7-30.5,1.11-4.68,3.78-41.72-.98c-.13-11.84,2.03-23.68,1.89-35.52Z"/>
  <line class="cls-8" x1="12.01" y1="125.95" x2="76.32" y2="126.98"/>
  <path class="cls-11" d="M78.39,133.68h0c0-1.61,1.3-2.91,2.93-2.91s2.9,1.3,2.9,2.91-1.3,2.93-2.9,2.93-2.93-1.3-2.93-2.93Z"/>
  <path class="cls-11" d="M75.63,158.27h0c0-1.52,1.23-2.75,2.76-2.75s2.74,1.24,2.74,2.75-1.23,2.74-2.74,2.74-2.76-1.23-2.76-2.74Z"/>
  <path class="cls-9" d="M76.32,126.39l42.23,1c7.96.15,4.23.6,5.47-.12.34-.94,1.46,1.05,1.05-2.88-.4-3.96-2.33-13.87-3.52-20.79"/>
  <line class="cls-8" x1="124.14" y1="127.33" x2="120.7" y2="159.65"/>
  <line class="cls-13" x1="126.55" y1="112.88" x2="141.01" y2="112.88"/>
  <line class="cls-13" x1="127.87" y1="118.04" x2="141.36" y2="118.04"/>
  <line class="cls-13" x1="128.26" y1="123.2" x2="142.67" y2="123.2"/>
  <line class="cls-13" x1="128.26" y1="133.17" x2="141.34" y2="133.16"/>
  <line class="cls-13" x1="127.57" y1="138.33" x2="140.68" y2="138.32"/>
  <line class="cls-13" x1="127.21" y1="143.49" x2="139.97" y2="143.49"/>
  <line class="cls-13" x1="126.57" y1="148.66" x2="138.59" y2="148.62"/>
  <line class="cls-13" x1="125.91" y1="153.46" x2="137.59" y2="153.42"/>
  <polygon class="cls-1" points="157.17 127.45 152.55 106.82 248.59 106.7 259.99 113.16 263.78 127.11 262.66 159.65 256.64 158.86 151.32 158.86 157.17 127.45"/>
  <polygon class="cls-10" points="157.17 127.45 152.55 106.8 248.59 106.7 259.99 113.16 263.78 127.11 262.66 159.65 256.64 158.86 151.32 158.86 157.17 127.45"/>
  <line class="cls-8" x1="157.17" y1="127.67" x2="263.78" y2="127.33"/>
  <line class="cls-13" x1="156.82" y1="115.63" x2="245.89" y2="115.65"/>
  <line class="cls-8" x1="124.14" y1="127.33" x2="156.46" y2="128.02"/>
  <path class="cls-2" d="M159.11,133.48c0-1.51,1.97-2.74,3.45-2.74l88.41-1.01c1.48,1.22,1.48.13,1.46,3.06-.64,6.47-.51,13.34-1.14,19.81-1.94,1.84-2.28,1.87-3.66,1.58l-87.33,1.35c-1.5,0-3.86-.09-3.86-1.59,0-3.65,1.89-16.8,2.65-20.46"/>
  <path class="cls-8" d="M159.11,133.48c0-1.51,1.97-2.74,3.45-2.74l88.41-1.01c1.48,1.22,1.48.13,1.46,3.06-.64,6.47-.51,13.34-1.14,19.81-1.94,1.84-2.28,1.87-3.66,1.58l-87.33,1.35c-1.5,0-3.86-.09-3.86-1.59,0-3.65,1.89-16.8,2.65-20.46Z"/>
  <path class="cls-8" d="M35.49,159.82c0-3.33.19-7.98.19-11.31l9.05-.39c1.47-.7,1.21-3.33-.38-3.81l-8.47-.2-.08-7.59-11.23.37-.18-8.18-12.38-.36c-.1,8.42.57,25.22.51,33.63l11.61.06c-.05-.9-.08-1.81-.13-2.73l11.49.5Z"/>
  <line class="cls-8" x1="257.26" y1="127.33" x2="256.55" y2="158.96"/>
</svg>