<?xml version="1.0" encoding="UTF-8"?>
<svg id="_レイヤー_1" data-name="レイヤー 1" xmlns="http://www.w3.org/2000/svg" xmlns:xlink="http://www.w3.org/1999/xlink" version="1.1" viewBox="0 0 283.46 283.46">
  <defs>
    <style>
      .cls-1 {
        stroke-width: 1.8px;
      }

      .cls-1, .cls-2, .cls-3, .cls-4, .cls-5 {
        fill: none;
      }

      .cls-1, .cls-3, .cls-4, .cls-5 {
        stroke: #231815;
        stroke-linecap: round;
      }

      .cls-6 {
        clip-path: url(#clippath);
      }

      .cls-2, .cls-7, .cls-8, .cls-9 {
        stroke-width: 0px;
      }

      .cls-7 {
        fill: #231815;
      }

      .cls-3 {
        stroke-linejoin: round;
        stroke-width: 2.4px;
      }

      .cls-8 {
        fill: #666464;
      }

      .cls-9 {
        fill: #fff;
      }

      .cls-4 {
        stroke-width: .6px;
      }

      .cls-5 {
        stroke-width: 1.2px;
      }
    </style>
    <clipPath id="clippath">
      <rect class="cls-2" x="27.59" y="1.69" width="236.2" height="279.63"/>
    </clipPath>
  </defs>
  <g class="cls-6">
    <path class="cls-9" d="M141.12,67.34l2.72,3.64-.06,2.56,9.99,12.94,1.14-.74,4.98,6.65v2.65s85.8,114.08,85.8,114.08l1.27-.56,15.12,20.18c.36.48.52,1.04.51,1.58v6.01c.03.84-.39,1.68-1.19,2.17l-66.28,41.2c-1.26.79-3.02.46-3.91-.73L69.87,117.05l-39.55-52.76c-.9-1.21-1.4-2.56-1.51-3.91v-14.02c-.16-2.59,1.08-5.15,3.53-6.68L89.45,4.16c3.78-2.35,9.06-1.36,11.73,2.2l36.14,48.22,3.8,12.75Z"/>
    <path class="cls-3" d="M141.12,67.34l2.72,3.64-.06,2.56,9.99,12.94,1.14-.74,4.98,6.65v2.65s85.8,114.08,85.8,114.08l1.27-.56,15.12,20.18c.36.48.52,1.04.51,1.58v6.01c.03.84-.39,1.68-1.19,2.17l-66.28,41.2c-1.26.79-3.02.46-3.91-.73L69.87,117.05l-39.55-52.76c-.9-1.21-1.4-2.56-1.51-3.91v-14.02c-.16-2.59,1.08-5.15,3.53-6.68L89.45,4.16c3.78-2.35,9.06-1.36,11.73,2.2l36.14,48.22,3.8,12.75Z"/>
    <path class="cls-5" d="M262.59,230.31c-.02.79-.44,1.54-1.19,2.01l-66.28,41.21c-1.26.78-3.02.45-3.91-.74l-15.24-20.34.05,1.3-86.22-115.05-.8-2.28-5.1-6.81.08,1.34-9.94-13.27-.82-2.3-3.36-4.49"/>
    <path class="cls-4" d="M67.47,99.99L30.32,50.42c-.94-1.26-1.44-2.67-1.52-4.07"/>
    <line class="cls-1" x1="140.46" y1="66.99" x2="69.87" y2="110.87"/>
    <path class="cls-5" d="M50.57,91.2v-13.77l1.16-1.55c.66-.88.69-2.26.08-3.08l-1.28-1.7c-.61-.82-1.65-.77-2.31.11l-1.16,1.55v13.01M42.53,81.06v-13.76l1.16-1.55c.66-.88.69-2.26.08-3.08l-1.28-1.7c-.62-.82-1.66-.77-2.31.11l-1.16,1.55v13.01M35.58,71.2v-13.77l1.16-1.54c.66-.88.69-2.27.08-3.08l-1.28-1.7c-.62-.82-1.65-.77-2.31.11l-1.16,1.55v13"/>
    <path class="cls-4" d="M92.66,3.1c-16.44,10.22-10.51,12.86-27.48,23.41-17.52,10.89-16.3,4.06-33.95,15.03M132.87,48.64l-65.82,41.3M30.32,41.99l36.19,48.29s1.79,4.76,1.16,8.13l2.2,12.46"/>
    <path class="cls-5" d="M186.66,253.49l-89.82-119.86,57.06-35.47,89.83,119.85-57.07,35.48ZM246.8,208.35l-5.48,3.41,9.99,13.33-60.26,37.46-9.97-13.3-5.05,3.14M197.52,277.48v-5.64l-2.68-.29-104.26-139.12c-.89-1.18-.59-2.8.67-3.58l60.08-37.35c1.26-.78,3.02-.45,3.91.74l104.27,139.12-.55,2.3v6.93M77.01,106.43l1.59,2.12,1.48-.92,14.36,19.17M133.72,71.17l1.59,2.12-1.48.92,14.36,19.17M83.76,129.4l5.7-3.54c.63-.39.78-1.2.34-1.79l-9.04-12.06c-.44-.59-1.32-.76-1.96-.36l-5.7,3.54M154.39,85.49l-5.7,3.54c-.63.39-1.51.23-1.96-.37l-9.03-12.06c-.45-.59-.3-1.4.34-1.79l5.7-3.54"/>
    <path class="cls-4" d="M191.85,245.39c-2.36,1.47-5.71.77-7.45-1.55l-78.92-105.3c-1.74-2.32-1.23-5.41,1.13-6.88l41.92-26.06c2.36-1.47,5.71-.77,7.45,1.55l78.91,105.29c1.74,2.32,1.23,5.41-1.12,6.88l-41.92,26.06ZM191.46,247.69c-2.52,1.57-6.04.91-7.82-1.47l-80.86-107.89c-1.78-2.37-1.18-5.6,1.34-7.17l44.79-27.85c2.52-1.57,6.04-.9,7.82,1.47l80.86,107.89c1.78,2.38,1.18,5.6-1.35,7.17l-44.79,27.85Z"/>
    <path class="cls-5" d="M92.16,134.69l-3.03,1.88M159.99,92.52l-3.03,1.88"/>
    <polygon class="cls-9" points="71.3 31.88 68.29 27.86 70.36 26.57 73.38 30.59 71.3 31.88"/>
    <polygon class="cls-5" points="71.3 31.88 68.29 27.86 70.36 26.57 73.38 30.59 71.3 31.88"/>
    <polygon class="cls-9" points="65.03 35.78 62.02 31.76 64.09 30.47 67.11 34.49 65.03 35.78"/>
    <polygon class="cls-5" points="65.03 35.78 62.02 31.76 64.09 30.47 67.11 34.49 65.03 35.78"/>
    <line class="cls-4" x1="124.7" y1="120.56" x2="209.58" y2="233.63"/>
    <path class="cls-8" d="M200.97,273.9c-.3.02-.53-.32-.53-.75s.23-.82.53-.84c.29-.02.53.32.53.76s-.24.82-.53.84"/>
    <path class="cls-8" d="M203.3,272.43c-.29.02-.53-.32-.53-.75s.24-.82.53-.84.53.32.53.76-.24.81-.53.84"/>
    <path class="cls-8" d="M205.63,270.97c-.29.02-.53-.32-.53-.75s.24-.82.53-.84c.3-.02.53.32.53.76s-.24.82-.53.84"/>
    <path class="cls-8" d="M207.97,269.5c-.3.02-.53-.32-.53-.75s.24-.82.53-.84c.29-.02.53.32.53.76s-.24.81-.53.84"/>
    <path class="cls-8" d="M210.31,268.04c-.29.02-.53-.32-.53-.75s.24-.81.53-.84c.3-.02.53.31.53.75s-.23.82-.53.84"/>
    <path class="cls-8" d="M212.64,266.58c-.29.02-.53-.32-.53-.76s.24-.81.53-.84c.29-.02.53.31.53.76s-.24.81-.53.84"/>
    <path class="cls-8" d="M214.98,265.11c-.29.02-.53-.32-.53-.75s.24-.82.53-.84c.29-.02.53.31.53.76s-.24.81-.53.83"/>
    <path class="cls-8" d="M217.31,263.65c-.29.02-.53-.32-.53-.76s.24-.81.53-.84c.3-.02.53.32.53.76s-.24.81-.53.84"/>
    <path class="cls-8" d="M219.65,262.18c-.3.02-.53-.31-.53-.75s.24-.82.53-.84c.29-.02.53.32.53.76s-.24.82-.53.84"/>
    <path class="cls-8" d="M221.98,260.72c-.29.02-.53-.32-.53-.75s.24-.82.53-.84c.3-.02.53.32.53.76s-.23.81-.53.84"/>
    <path class="cls-8" d="M224.32,259.26c-.29.02-.53-.32-.53-.76s.24-.82.53-.84c.29-.02.53.32.53.75s-.24.82-.53.84"/>
    <path class="cls-8" d="M226.66,257.79c-.29.02-.53-.31-.53-.75s.24-.81.53-.84c.29-.02.53.31.53.75s-.24.82-.53.84"/>
    <path class="cls-8" d="M228.99,256.33c-.29.02-.53-.32-.53-.75s.24-.82.53-.84c.3-.02.53.32.53.75s-.24.82-.53.84"/>
    <path class="cls-8" d="M231.33,254.86c-.3.02-.53-.32-.53-.76s.23-.82.53-.84c.29-.02.53.31.53.76s-.24.81-.53.84"/>
    <path class="cls-8" d="M233.66,253.4c-.29.02-.53-.32-.53-.75s.24-.82.53-.84c.3-.02.53.32.53.76s-.23.82-.53.84"/>
    <path class="cls-8" d="M236,251.94c-.29.02-.53-.32-.53-.76s.24-.81.53-.84c.29-.02.53.31.53.75s-.24.82-.53.84"/>
    <path class="cls-8" d="M238.34,250.47c-.29.02-.53-.32-.53-.76s.24-.82.53-.84c.29-.02.53.31.53.76s-.24.81-.53.84"/>
    <path class="cls-8" d="M240.67,249.01c-.29.02-.53-.32-.53-.75s.24-.82.53-.84c.3-.02.53.31.53.76s-.24.81-.53.84"/>
    <path class="cls-8" d="M243.01,247.54c-.3.02-.53-.32-.53-.76s.23-.81.53-.83c.29-.02.53.31.53.75s-.24.82-.53.84"/>
    <path class="cls-8" d="M245.34,246.08c-.29.02-.53-.32-.53-.76s.24-.82.53-.84c.3-.02.53.32.53.76s-.23.82-.53.84"/>
    <path class="cls-8" d="M247.68,244.61c-.3.02-.53-.32-.53-.75s.23-.81.53-.84c.29-.02.53.31.53.75s-.24.81-.53.84"/>
    <path class="cls-8" d="M250.01,243.15c-.29.02-.53-.32-.53-.76s.24-.81.53-.84c.29-.02.53.32.53.75s-.24.82-.53.84"/>
    <path class="cls-8" d="M252.35,241.68c-.29.02-.53-.31-.53-.75s.24-.82.53-.84c.3-.02.53.32.53.76s-.24.82-.53.84"/>
    <path class="cls-8" d="M254.69,240.22c-.3.02-.53-.31-.53-.76s.23-.81.53-.84c.29-.02.53.31.53.75s-.24.82-.53.84"/>
    <path class="cls-7" d="M69.31,36.17l.76,1.02c.18.18.42.72-.23,1.22-.73.55-1.36.3-1.54.03l-.6-.8-1.36.84-.23-.31,3.21-2ZM68.06,37.41l.6.8c.05.06.41.26.84-.04.42-.3.31-.62.21-.75l-.53-.7-1.12.69Z"/>
    <polygon class="cls-7" points="72.81 40.85 73.07 41.19 69.4 42.57 69.14 42.22 71.34 40.04 68.31 41.12 68.06 40.78 70.8 38.17 71.06 38.51 68.82 40.57 71.81 39.51 72.06 39.85 69.89 41.99 72.81 40.85"/>
    <path class="cls-7" d="M73.34,41.56l.81,1.09c.28.38.47.8-.24,1.28-.41.28-.63.28-1.04.18-.02.38-.08.46-.61.79-.4.26-.54.36-.56.54l-.1.07-.28-.38c.12-.14.24-.23.35-.32.36-.26,1.06-.49.68-1l-.6-.8-1.38.86-.24-.31,3.21-2ZM73.21,42.1l-1.1.68.59.78c.16.21.38.37.82.14.58-.3.42-.64.28-.83l-.59-.78Z"/>
    <path class="cls-7" d="M74.49,35.29l-.74.81.26.35,2.51-2.83-.27-.37-3.83,1.07.25.33,1.1-.32.72.96ZM74.23,34.2l1.68-.48h0s-1.13,1.22-1.13,1.22l-.55-.74Z"/>
    <path class="cls-7" d="M77.62,36.94c.49-.44.33-.84.16-1.08-.32-.43-1.01-.52-1.84,0-.74.46-1.16,1.02-.72,1.61.16.21.56.49,1.38.14l.24.31c-1.3.61-1.9-.09-2.03-.27-.4-.54-.34-1.36.88-2.12.97-.61,1.96-.61,2.48.08.46.62.19,1.25-.3,1.62l-.23-.31Z"/>
    <polygon class="cls-7" points="78.96 36.87 80.41 38.8 80.03 39.04 79.43 38.23 76.65 39.96 76.41 39.64 79.19 37.91 78.58 37.1 78.96 36.87"/>
    <polygon class="cls-7" points="226.19 217.35 221.49 214.34 224.81 212.27 226.19 217.35"/>
    <polygon class="cls-7" points="213.85 197.9 214.15 198.3 211.18 200.15 210.87 199.75 213.85 197.9"/>
    <polygon class="cls-7" points="214.68 199.02 215.09 199.56 213.62 202.28 213.63 202.3 216.03 200.81 216.33 201.21 213.35 203.06 212.97 202.54 214.46 199.75 214.46 199.75 212.01 201.26 211.71 200.86 214.68 199.02"/>
    <path class="cls-7" d="M217.36,203.47c-.06-.26-.11-.39-.27-.6-.17-.22-.45-.44-.76-.24-.57.36.46,1.48-.52,2.09-.63.4-1.23.09-1.65-.47-.15-.2-.24-.43-.31-.65l.43-.21c.04.18.14.47.29.67.17.23.55.47.9.25.66-.41-.42-1.5.5-2.08.53-.33,1.11-.11,1.48.4.14.19.27.43.34.67l-.44.19Z"/>
    <polygon class="cls-7" points="218.38 203.95 219.56 205.52 219.18 205.75 218.3 204.58 217.43 205.12 218.23 206.18 217.86 206.42 217.06 205.35 216.08 205.97 216.96 207.13 216.58 207.37 215.41 205.79 218.38 203.95"/>
    <path class="cls-7" d="M219.94,206.77l.29.39c.28.37.25.67-.02.84-.28.18-.64.06-.92-.32l-.25-.34.9-.56ZM217.05,207.98l.3.4,1.32-.82.18.24c.16.21.26.35.06.65l-.71,1.07.34.46.78-1.27c.12-.2.14-.3.1-.46h.01c.3.28.74.38,1.11.15.71-.44.4-1.03-.01-1.59l-.51-.68-2.98,1.85Z"/>
    <polygon class="cls-7" points="221.87 209.33 221.22 208.46 221.59 208.23 223.2 210.37 222.82 210.61 222.17 209.73 219.57 211.35 219.27 210.95 221.87 209.33"/>
    <polygon class="cls-7" points="161.5 129.14 162.5 128.52 160.86 126.34 159.86 126.96 160.27 127.51 158.42 128.66 160.16 125.41 158.91 123.74 157.91 124.36 158.32 124.91 155.2 126.85 154.79 126.3 153.79 126.92 155.5 129.19 156.5 128.58 156.05 127.98 157.95 126.79 156.17 130.1 157 131.2 161.12 128.64 161.5 129.14"/>
    <polygon class="cls-7" points="160.74 134.24 161.27 134.95 160.27 135.57 158.24 132.86 159.25 132.24 159.78 132.95 162.9 131.01 162.49 130.46 161.58 131.03 160.83 130.04 162.74 128.85 165.99 133.19 164.08 134.37 163.34 133.39 164.25 132.82 163.86 132.3 160.74 134.24"/>
    <polygon class="cls-7" points="164.21 138.86 164.73 139.56 163.74 140.19 161.71 137.49 162.71 136.86 163.24 137.57 166.36 135.63 165.95 135.08 165.04 135.65 164.29 134.65 166.2 133.47 169.46 137.81 167.55 138.99 166.81 138 167.72 137.44 167.33 136.92 164.21 138.86"/>
    <path class="cls-7" d="M154.78,122.78c1.53-1.04,2.6-2.68,2.44-4.55-.1-1.25-.84-2.5-2-3.19-.4-1.24-1.08-2.09-2.38-2.74-1.29-.64-2.74-.71-4.1-.34-1.5.4-2.77,1.26-3.63,2.45-.66.92-.99,1.95-.99,3.12,0,1.35.43,2.57,1.24,3.64.95,1.26,2.35,2.21,3.98,2.59,1.92.45,3.91.07,5.43-.98M153.84,115.89c.11.49-.14.94-.38,1.35-.24.4-.61.7-1.09.85-.48.16-1.04-.06-1.35-.44-.35-.41-.3-.97.05-1.33.68-.69,1.84-.77,2.76-.44M150.36,122.45c-1.51-.18-2.84-.96-3.71-2.08-1.42-1.84-1.22-4.5.59-5.98.86-.7,1.9-1.12,3.1-1.16.4-.02,2,.04,2.82,1.14-1.06-.18-2.18.08-2.99.68-.32.24-.57.53-.75.89-.23.46-.28.95-.18,1.45.08.38.24.75.48,1.06.31.42.73.75,1.26.96.76.3,1.54.29,2.24-.02,1.03-.45,1.75-1.37,1.93-2.42,1.13,1.51.12,3.6-1.32,4.58-.98.68-2.19,1.04-3.48.89"/>
    <polygon class="cls-7" points="116.11 133.99 116.5 134.52 112.79 136.83 112.4 136.3 116.11 133.99"/>
    <polygon class="cls-7" points="114.77 139.46 113.34 137.55 117.05 135.25 118.42 137.08 117.95 137.37 116.97 136.07 115.9 136.74 116.82 137.96 116.35 138.25 115.44 137.03 114.21 137.79 115.24 139.17 114.77 139.46"/>
    <polygon class="cls-7" points="116.6 141.9 115.17 140 118.88 137.7 120.25 139.52 119.78 139.81 118.81 138.52 117.73 139.18 118.65 140.4 118.19 140.7 117.27 139.47 116.04 140.24 117.07 141.61 116.6 141.9"/>
    <polygon class="cls-7" points="118.43 144.35 117 142.45 120.72 140.14 122.08 141.97 121.61 142.26 120.64 140.96 119.57 141.63 120.49 142.85 120.02 143.14 119.1 141.92 117.87 142.68 118.9 144.06 118.43 144.35"/>
    <path class="cls-7" d="M121.09,144.14c-.07-.46.11-.82.43-1.02.58-.36,1.3-.16,1.74.42.49.66.26,1.25-.18,1.52-.31.19-.76.24-1.24,0h-.02c.1.49-.01.96-.46,1.24-.63.4-1.42.19-1.9-.46-.52-.7-.35-1.38.16-1.7.46-.29,1-.24,1.46.02h.02ZM120.91,145.79c.41-.25.44-.65.3-1.1-.37-.26-.79-.27-1.12-.06-.36.22-.48.62-.22.98.27.36.7.4,1.04.19M121.93,143.6c-.34.21-.36.56-.24.95.28.18.66.22.95.04.29-.18.46-.49.2-.83-.25-.34-.64-.33-.92-.16"/>
    <path class="cls-7" d="M122.43,146.13c1.19-.74,2.21-.75,2.74-.04.54.73.07,1.56-1.04,2.24-1.24.77-2.22.77-2.76.06-.54-.72-.07-1.57,1.05-2.27M123.72,147.81c.87-.54,1.3-1.06,1-1.46-.26-.35-.95-.26-1.86.3-.91.56-1.28,1.1-1.01,1.47.34.45,1.12.16,1.88-.31"/>
    <path class="cls-7" d="M124.14,151.96l-1.57-2.09.34-.22.67.12c1.34.23,2.14.32,2.69-.02.36-.22.54-.57.22-1-.2-.27-.52-.41-.78-.49l.28-.41c.34.1.75.34,1.04.72.53.7.25,1.33-.3,1.68-.67.42-1.55.33-2.64.13l-.52-.1h-.01s1.04,1.4,1.04,1.4l-.46.28Z"/>
    <path class="cls-7" d="M124.87,152.29c.22-.14.5-.09.64.1.15.2.09.44-.14.58-.22.14-.48.11-.64-.1-.16-.21-.08-.44.13-.58"/>
    <polygon class="cls-7" points="126.04 154.51 129.18 152.56 129.18 152.55 128.4 152.18 128.72 151.81 129.75 152.31 130.08 152.75 126.43 155.03 126.04 154.51"/>
    <polygon class="cls-7" points="127.97 157.08 131.11 155.13 131.1 155.12 130.33 154.75 130.65 154.37 131.67 154.87 132.01 155.33 128.36 157.59 127.97 157.08"/>
    <path class="cls-7" d="M131.98,157.94c.38-.02.74.14,1,.49.43.58.19,1.31-.62,1.82-.98.6-1.83.36-2.22-.16-.24-.33-.29-.67-.1-1.03v-.02s-.43.23-.43.23l-.34-.46c.18-.1.48-.27.73-.42l3.18-1.97.4.53-1.59.99h0ZM130.73,158.7c-.34.21-.49.64-.23.99.3.4.86.39,1.43.03.5-.31.77-.78.46-1.2-.25-.33-.78-.36-1.13-.14l-.52.32Z"/>
    <polygon class="cls-7" points="131.2 161.82 130.91 161.43 135.88 160.26 136.17 160.65 131.2 161.82"/>
    <path class="cls-7" d="M136.89,163.75c-.2.1-.43.23-.79.45l-1.52.95c-.53.33-1.55.9-2.44-.29-.22-.29-.38-.64-.4-.91l.53-.15c.02.21.11.51.32.8.31.41.77.55,1.38.18l.26-.16h0c-.32,0-.67-.14-.92-.46-.44-.59-.19-1.34.55-1.81.91-.56,1.8-.36,2.21.19.28.37.23.71.1.94h0s.38-.19.38-.19l.35.47ZM135.44,163.84c.36-.22.48-.62.24-.95-.27-.36-.83-.39-1.4-.03-.52.32-.73.78-.44,1.17.2.28.63.41,1.08.13l.52-.32Z"/>
    <polygon class="cls-7" points="134.53 166.26 134.24 165.88 139.21 164.71 139.5 165.1 134.53 166.26"/>
    <path class="cls-7" d="M137.53,169.83l-.4-.53,1.56-.97c.38-.24.61-.56.34-.92-.19-.26-.63-.39-1.03-.14l-1.64,1.02-.4-.53,2.6-1.65.4.53-.3.22h0c.4,0,.76.19.96.46.28.38.34.99-.5,1.51l-1.62,1Z"/>
    <polygon class="cls-7" points="98.25 27.23 97.87 26.76 96.69 27.45 97.08 27.92 97.37 27.75 98.09 28.61 96.19 27.74 95.29 28.27 95.67 28.74 95.97 28.56 97.17 30.02 96.88 30.19 97.26 30.66 98.49 29.95 98.11 29.48 97.79 29.67 97.05 28.78 98.98 29.66 99.57 29.32 97.98 27.39 98.25 27.23"/>
    <polygon class="cls-7" points="101.16 27.7 101.54 27.47 101.93 27.94 100.47 28.79 100.09 28.32 100.47 28.1 99.26 26.65 98.96 26.82 99.31 27.24 98.78 27.55 98.04 26.66 100.38 25.3 101.12 26.19 100.58 26.5 100.23 26.08 99.95 26.24 101.16 27.7"/>
    <polygon class="cls-7" points="103.65 26.24 104.03 26.02 104.42 26.49 102.96 27.34 102.57 26.87 102.95 26.65 101.75 25.19 101.45 25.36 101.81 25.79 101.27 26.1 100.53 25.21 102.87 23.84 103.61 24.74 103.08 25.05 102.73 24.62 102.45 24.78 103.65 26.24"/>
    <path class="cls-7" d="M99.34,18.23c-1.07-1.2-2.68-2.07-4.43-2.03-1.18.03-2.31.54-2.89,1.38-1.15.25-1.91.73-2.45,1.68-.53.94-.51,2.04-.08,3.08.47,1.15,1.35,2.14,2.52,2.83.91.54,1.89.83,3,.88,1.27.05,2.39-.22,3.36-.79,1.14-.66,1.94-1.68,2.21-2.9.31-1.43-.17-2.94-1.24-4.13M92.91,18.65c.46-.06.89.15,1.29.35.4.2.69.48.87.85.18.36,0,.78-.34,1-.37.24-.9.19-1.26-.09-.7-.54-.84-1.42-.57-2.11M99.29,21.54c-.08,1.14-.73,2.1-1.74,2.71-1.65.99-4.18.74-5.67-.69-.71-.68-1.16-1.48-1.27-2.38-.04-.3-.08-1.5.91-2.08-.1.8.2,1.65.82,2.28.24.25.53.45.88.6.45.2.92.25,1.38.2.36-.04.69-.16.97-.32.38-.22.66-.52.83-.92.24-.55.19-1.15-.14-1.69-.49-.79-1.39-1.38-2.39-1.55,1.36-.79,3.38.06,4.39,1.18.7.77,1.1,1.7,1.04,2.66"/>
    <path class="cls-7" d="M159.7,201.1l2.36-.27-3.23-4.29h.1s.66-.07.66-.07l9.21,3.87.82,1.08-5.6.64.47.62-.1.02-.8.09h-.05s-.04-.03-.04-.03l-.44-.58-2.36.27-1.02-1.34ZM163.02,200.72l4.26-.49-6.79-2.86,2.53,3.35Z"/>
    <path class="cls-7" d="M172.91,205.83c1.04,1.38.82,2.56-.7,3.18-.43.16-.96.28-1.58.36-2.9.33-5.21-.42-6.51-2.14h0c-1.04-1.39-1-2.85.7-3.52.37-.14.82-.26,1.36-.31,3.02-.36,5.49.79,6.73,2.44M164.49,206.82c1.41,1.87,4.2,1.39,5.23,1.27.61-.07,1.53-.16,2.19-.42.72-.3,1.13-.76.4-1.75-1.4-1.86-4.17-1.41-5.24-1.28-.72.08-1.58.19-2.17.43-.75.3-1.14.77-.41,1.75"/>
    <polygon class="cls-7" points="156.68 191 155.84 191.09 158.73 194.93 159.58 194.84 156.68 191"/>
    <path class="cls-7" d="M178.48,215.95l-3.34.35c.79-.93,2.1-2.45,2.28-2.66.42-.47.26-1.25-.2-1.72-.71-.77-1.89-1.46-2.82-1.37l-6.82.72,1.18,1.57s6.37-.68,7-.75c1.03-.1,1.64.87,1.19,1.42-.13.16-1.87,2.15-2.49,2.85l-2.82.3,1.18,1.56s6.37-.68,7-.75l1.54-.13c-.72-.78-1.96-1.51-2.89-1.41"/>
    <path class="cls-7" d="M142.61,178.87l.52-.46c1.72,1.95,3.27,2.99,4.79,2.93.7-.03,1.11-.65,1.23-1.96.08-1.01.89-1.63,1.51-1.68,2.08-.14,4.85,2.1,6.72,4.62l-.78.08c-.37-.48-.88-1-1.36-1.43-.93-.82-2.01-1.52-2.9-1.42-.84.09-1.04,1.03-1.14,1.8-.15,1.22-.89,1.86-1.6,1.96-2.23.32-4.98-1.74-7.02-4.43"/>
    <path class="cls-7" d="M151.06,189.64c-1.36-1.81-3.28-5.05,1.63-5.57,4.91-.52,7.71,2.62,9.08,4.43.64.85.94,1.38.94,1.38l-.85.08s-.45-.74-.92-1.38c-.84-1.1-2.96-2.99-6.79-2.58-4.13.44-3.17,2.48-1.91,4.14.22.3.41.53.63.79l-.69.07s-.47-.52-1.12-1.36"/>
    <path class="cls-7" d="M183.56,221.09c.28.22.53.49.8.84l2.5,3.32.56-.06-2.85-3.77c-.55-.74-1-1.33-1.64-1.84-.58-.46-.88-.45-1.2-.42l-3.73.39-.58-.76-.57.06.58.76-3.29.36,4.83,6.41.56-.06-3.59-4.76,2.73-.3,2.9,3.84.56-.06-2.9-3.84,3.68-.39c.17-.01.35.04.62.27"/>
    <polygon class="cls-7" points="189.56 228.9 190.15 228.82 188.61 226.77 183.2 227.33 183.65 227.9 188.46 227.43 189.56 228.9"/>
    <polygon class="cls-7" points="194.45 238.95 189.06 239.51 189.05 239.49 187.5 237.44 188.09 237.38 189.21 238.84 194.02 238.36 194.45 238.95"/>
    <path class="cls-7" d="M183.39,231.09l3.62,4.79.45-.1-2.84-3.76s.7-.05,1.78.38c1.08.42,2.35,1.2,3.29,1.7.94.5,2.14.98,2.72.75.57-.22.7-1.02-.16-2.35-.86-1.32-1.98-2.34-1.98-2.34l-.44.1s.87.88,1.31,1.44c.44.57.97,1.38.46,1.67-.51.29-.97,0-2.02-.48-1.05-.49-1.7-1.04-3.34-1.67-1.64-.64-2.84-.12-2.84-.12"/>
    <path class="cls-7" d="M87.71,66.64l-.39-1.14-2.8,1.76-.02-.05-.1-.32,2-4.67.7-.44.93,2.71.4-.26.02.05.13.39v.02s-.01.01-.01.01l-.38.24.4,1.14-.88.55ZM87.16,65.04l-.71-2.06-1.48,3.44,2.19-1.38Z"/>
    <path class="cls-7" d="M89.99,59.98c.9-.56,1.77-.51,2.34.21.15.2.29.46.39.76.48,1.41.14,2.57-.99,3.28,0,0,0,0,0,0-.91.57-1.95.61-2.58-.19-.14-.18-.26-.4-.34-.66-.5-1.46.11-2.72,1.19-3.4M91.41,64.06c1.22-.77.64-2.12.47-2.62-.1-.3-.24-.74-.48-1.05-.28-.34-.64-.52-1.29-.12-1.22.76-.66,2.11-.48,2.62.12.34.26.76.48,1.04.28.35.65.52,1.29.12"/>
    <polygon class="cls-7" points="80.73 68.55 80.87 68.96 83.38 67.38 83.24 66.97 80.73 68.55"/>
    <path class="cls-7" d="M96.78,56.82l.54,1.62c-.73-.35-1.93-.92-2.1-1-.37-.18-.92-.08-1.21.16-.5.38-.9.99-.75,1.44l1.1,3.31,1.02-.64s-1.03-3.09-1.13-3.4c-.16-.5.48-.84.92-.64.13.06,1.7.82,2.26,1.1l.45,1.37,1.02-.64s-1.02-3.09-1.12-3.39l-.22-.75c-.49.38-.92,1.02-.77,1.48"/>
    <path class="cls-7" d="M73.21,75.96l-.37-.24c1.25-.92,1.87-1.73,1.7-2.47-.08-.34-.56-.52-1.5-.52-.73,0-1.25-.36-1.33-.67-.28-1.02,1.09-2.46,2.75-3.49l.12.38c-.32.2-.65.47-.91.72-.52.49-.92,1.05-.78,1.48.14.41.83.47,1.39.48.88.02,1.4.36,1.54.7.42,1.08-.82,2.51-2.59,3.62"/>
    <path class="cls-7" d="M80.22,71.36c-1.18.74-3.34,1.82-4.12-.56-.79-2.38,1.23-3.89,2.4-4.63.56-.35.92-.52.92-.52l.12.4s-.49.25-.9.51c-.72.46-1.9,1.58-1.28,3.44.66,2,2.04,1.44,3.14.76.19-.12.34-.22.51-.34l.11.34s-.33.26-.89.61"/>
    <path class="cls-7" d="M100.04,54.12c.13-.14.31-.28.54-.42l2.18-1.37-.09-.27-2.47,1.56c-.48.3-.87.54-1.18.88-.28.3-.25.45-.2.61l.6,1.81-.5.31.09.28.5-.31.53,1.6,4.2-2.64-.1-.27-3.11,1.96-.44-1.33,2.52-1.58-.1-.27-2.51,1.58-.59-1.78c-.03-.08,0-.18.14-.32"/>
    <polygon class="cls-7" points="105.13 50.85 105.02 50.56 103.68 51.41 104.54 54.03 104.91 53.78 104.17 51.45 105.13 50.85"/>
    <polygon class="cls-7" points="111.92 48.02 112.78 50.64 112.77 50.65 111.43 51.49 111.34 51.2 112.29 50.59 111.54 48.26 111.92 48.02"/>
    <path class="cls-7" d="M107.22,53.77l3.13-1.98-.11-.22-2.46,1.55s-.1-.34.12-.89c.22-.54.66-1.2.94-1.68.28-.48.52-1.09.31-1.36-.21-.27-.79-.3-1.67.18-.88.48-1.51,1.07-1.51,1.07l.11.21s.56-.46.93-.7c.37-.24.9-.54,1.15-.3.25.24.09.48-.18,1.01-.26.54-.6.88-.92,1.71-.32.83.15,1.4.15,1.4"/>
    <polygon class="cls-4" points="66.66 85.55 64.95 83.35 124.05 46.13 125.76 48.33 66.66 85.55"/>
  </g>
</svg>