<?xml version="1.0" encoding="UTF-8"?>
<svg xmlns="http://www.w3.org/2000/svg" version="1.1" viewBox="0 0 283.46 283.46">
  <defs>
    <style>
      .cls-1 {
        stroke-width: 3.37px;
      }

      .cls-1, .cls-2, .cls-3, .cls-4, .cls-5, .cls-6, .cls-7, .cls-8, .cls-9, .cls-10, .cls-11, .cls-12, .cls-13, .cls-14, .cls-15, .cls-16, .cls-17, .cls-18, .cls-19, .cls-20, .cls-21, .cls-22, .cls-23, .cls-24, .cls-25, .cls-26, .cls-27, .cls-28, .cls-29, .cls-30, .cls-31, .cls-32 {
        fill: none;
        stroke: #231815;
      }

      .cls-1, .cls-2, .cls-4, .cls-11, .cls-13, .cls-14, .cls-15, .cls-18, .cls-20, .cls-22, .cls-23, .cls-27, .cls-28, .cls-29 {
        stroke-linecap: round;
      }

      .cls-2 {
        stroke-width: 1.4px;
      }

      .cls-3, .cls-13 {
        stroke-width: 2.36px;
      }

      .cls-33 {
        fill: #231815;
      }

      .cls-33, .cls-34 {
        stroke-width: 0px;
      }

      .cls-4, .cls-12 {
        stroke-width: 1.41px;
      }

      .cls-5, .cls-11 {
        stroke-width: 1.87px;
      }

      .cls-6 {
        stroke-width: 1.01px;
      }

      .cls-7 {
        stroke-width: 5.02px;
      }

      .cls-8 {
        stroke-width: 5.05px;
      }

      .cls-9 {
        stroke-width: 6.07px;
      }

      .cls-10 {
        stroke-width: 3.08px;
      }

      .cls-14 {
        stroke-width: .94px;
      }

      .cls-15 {
        stroke-width: 2.02px;
      }

      .cls-16 {
        stroke-width: .68px;
      }

      .cls-17 {
        stroke-width: 4.68px;
      }

      .cls-18 {
        stroke-width: 2.81px;
      }

      .cls-19 {
        stroke-width: 3.71px;
      }

      .cls-20, .cls-30 {
        stroke-width: 1.96px;
      }

      .cls-21 {
        stroke-width: .56px;
      }

      .cls-22 {
        stroke-width: 2.81px;
      }

      .cls-23, .cls-31 {
        stroke-width: 1.95px;
      }

      .cls-24 {
        stroke-width: 3.89px;
      }

      .cls-25 {
        stroke-width: .84px;
      }

      .cls-26 {
        stroke-width: .84px;
      }

      .cls-27, .cls-32 {
        stroke-width: 1.34px;
      }

      .cls-34 {
        fill: #fff;
      }

      .cls-35 {
        display: none;
      }

      .cls-28 {
        stroke-width: 1.69px;
      }

      .cls-29 {
        stroke-width: 2.34px;
      }
    </style>
  </defs>
  <g id="_レイヤー_2" data-name="レイヤー 2">
    <g>
      <path class="cls-33" d="M125,139.8c.82-1.94,2.09-3.05,4.14-4.51,12.99-9.47,24.73-17.3,32.62-21.27,6.43-3.29,13.3-3.89,19.28-2.1,19.47,5.84,66.51,24.83,85.04,35.56,12.26,7.48,6.18,20.51,4.48,25.05-4.01,10.73-82.47,86.39-105.22,100.79-11.06,7.49-25.41,5.39-34.08,1.54-22.42-10.48-68.45-42.48-80.42-56.84-4.48-6.57-2.84-12.68,1.66-18.07,6.19-6.91,17.35-17.07,30.77-28.41.91-.88,2.1-.96,3.52-.19,0-.99,1.42-2.22,3.36-2.79,0-.99,1.41-2.21,3.39-2.75,0-1,1.39-2.21,3.33-2.78,0-.97,1.41-2.18,3.36-2.75,0-.97,1.41-2.18,3.35-2.76,0-.99,1.42-2.21,3.41-2.78,0-.96,1.39-2.18,3.32-2.75,0-.95,1.33-2.06,3.24-2.63,0-.99,1.36-2.02,3.31-2.59,0-.92,1.29-1.92,3.12-2.49,0-1,1.58-2.38,3.67-2.87.16-.42.59-1.11,1.31-1.61"/>
      <path class="cls-34" d="M52.39,218.6c.37-2.14-2.1-4.2-5.4-4.39-3.31-.22-6.16,1.54-6.57,3.67-.4,2.14,2.08,4.55,5.39,4.74,3.3.19,6.11-1.3,6.58-4.02"/>
      <path class="cls-8" d="M52.39,218.6c.37-2.14-2.1-4.2-5.4-4.39-3.31-.22-6.16,1.54-6.57,3.67-.4,2.14,2.08,4.55,5.39,4.74,3.3.19,6.11-1.3,6.58-4.02Z"/>
      <path class="cls-34" d="M53.82,215.05c1.94-.99,2.11-4.2.29-6.99-1.82-2.74-4.93-3.97-6.89-3.01-1.95.96-2.38,4.4-.56,7.15,1.82,2.75,4.7,4.12,7.16,2.86"/>
      <path class="cls-8" d="M53.82,215.05c1.94-.99,2.11-4.2.29-6.99-1.82-2.74-4.93-3.97-6.89-3.01-1.95.96-2.38,4.4-.56,7.15,1.82,2.75,4.7,4.12,7.16,2.86Z"/>
      <path class="cls-34" d="M53.75,215.54c1.47-1.61.54-4.7-2.13-6.65-2.66-1.94-6.01-2.02-7.51-.46-1.5,1.56-.73,4.93,1.94,6.91,2.67,1.95,5.84,2.22,7.71.19"/>
      <path class="cls-8" d="M53.75,215.54c1.47-1.61.54-4.7-2.13-6.65-2.66-1.94-6.01-2.02-7.51-.46-1.5,1.56-.73,4.93,1.94,6.91,2.67,1.95,5.84,2.22,7.71.19Z"/>
      <path class="cls-34" d="M53.41,216.42c.82-2.03-1.13-4.55-4.32-5.46-3.18-.92-6.36.19-7.2,2.18-.86,1.98,1.04,4.89,4.22,5.8,3.18.89,6.25.04,7.3-2.52"/>
      <path class="cls-8" d="M53.41,216.42c.82-2.03-1.13-4.55-4.32-5.46-3.18-.92-6.36.19-7.2,2.18-.86,1.98,1.04,4.89,4.22,5.8,3.18.89,6.25.04,7.3-2.52Z"/>
      <path class="cls-34" d="M53.82,215.05c1.94-.99,2.11-4.2.29-6.99-1.82-2.74-4.93-3.97-6.89-3.01-1.95.96-2.38,4.4-.56,7.15,1.82,2.75,4.7,4.12,7.16,2.86"/>
      <path class="cls-12" d="M53.82,215.05c1.94-.99,2.11-4.2.29-6.99-1.82-2.74-4.93-3.97-6.89-3.01-1.95.96-2.38,4.4-.56,7.15,1.82,2.75,4.7,4.12,7.16,2.86Z"/>
      <path class="cls-34" d="M53.75,215.54c1.47-1.61.54-4.7-2.13-6.65-2.66-1.94-6.01-2.02-7.51-.46-1.5,1.56-.73,4.93,1.94,6.91,2.67,1.95,5.84,2.22,7.71.19"/>
      <path class="cls-12" d="M53.75,215.54c1.47-1.61.54-4.7-2.13-6.65-2.66-1.94-6.01-2.02-7.51-.46-1.5,1.56-.73,4.93,1.94,6.91,2.67,1.95,5.84,2.22,7.71.19Z"/>
      <path class="cls-34" d="M53.41,216.42c.82-2.03-1.13-4.55-4.32-5.46-3.18-.92-6.36.19-7.2,2.18-.86,1.98,1.04,4.89,4.22,5.8,3.18.89,6.25.04,7.3-2.52"/>
      <path class="cls-12" d="M53.41,216.42c.82-2.03-1.13-4.55-4.32-5.46-3.18-.92-6.36.19-7.2,2.18-.86,1.98,1.04,4.89,4.22,5.8,3.18.89,6.25.04,7.3-2.52Z"/>
      <path class="cls-34" d="M130.51,69.42c-.54,5.77-12.99,15.74-16.33,16.88-2.25,1.33-5.77-.11-6.81-.76l-3.47-1.76c-19.81,17.3-40.38,55.57-38.42,70.96,1.88,13.52-11.18,26.39-16.45,29.36-4.76,2.68-8.81,2.91-13.16,2.18-3.05-.42-9.15-2.59-16.94-5.04-7.79-2.41-11.13-11.92-8.54-20.28,11.01-35.49,50.32-93.49,83.42-110.03,7.48-3.67,17.05-6.14,29.92-2.37,8.43,3.44,7.78,11.38,7.42,15.82l-.63,5.04"/>
      <path class="cls-24" d="M130.51,69.42c-.54,5.77-12.99,15.74-16.33,16.88-2.25,1.33-5.77-.11-6.81-.76l-3.47-1.76c-19.81,17.3-40.38,55.57-38.42,70.96,1.88,13.52-11.18,26.39-16.45,29.36-4.76,2.68-8.81,2.91-13.16,2.18-3.05-.42-9.15-2.59-16.94-5.04-7.79-2.41-11.13-11.92-8.54-20.28,11.01-35.49,50.32-93.49,83.42-110.03,7.48-3.67,17.05-6.14,29.92-2.37,8.43,3.44,7.78,11.38,7.42,15.82l-.63,5.04Z"/>
      <path class="cls-34" d="M103.89,83.78c2.59-2.14,6.8-2.8,8.21,1.95"/>
      <path class="cls-31" d="M103.89,83.78c2.59-2.14,6.8-2.8,8.21,1.95"/>
      <path class="cls-12" d="M16.88,176.32l-.48.35,1.07,3.51.8.73,7.81,2.33M26.08,180.52c5.58,1.95,16.13-2.82,19.77-11.19,18.32-42.24,53.24-93.87,80.24-113.51M9.52,168.45c.46,2.37,2.16,6.84,7.18,8.93"/>
      <polyline class="cls-23" points="26.08 183.23 26.55 182.88 25.48 179.38 24.68 178.65 16.87 176.32"/>
      <polyline class="cls-12" points="19.09 177.04 18.15 179.83 18.37 180.9"/>
      <path class="cls-7" d="M23.94,181.78c-3.03,1.41-5.6,3.47-6.5,6.57,1.37-1.23,8.08,1.14,8.98,3.85,2.06,9.55-12.12,4.81-12.13-1.37.27-5.01,3.67-9.63,7.74-11.81"/>
      <path class="cls-34" d="M51.53,225.58c1.45-2.22-.41-5.23-3.39-6.72-2.96-1.45-6.27-.95-7.48.84-1.2,1.84.1,5.39,3.07,6.87,2.96,1.45,6,1.8,7.8-.99"/>
      <path class="cls-8" d="M51.53,225.58c1.45-2.22-.41-5.23-3.39-6.72-2.96-1.45-6.27-.95-7.48.84-1.2,1.84.1,5.39,3.07,6.87,2.96,1.45,6,1.8,7.8-.99Z"/>
      <path class="cls-34" d="M48.53,231.09c1.83-1.95.7-5.73-1.95-7.72-2.65-1.99-6.1-1.87-7.61-.34-1.52,1.57-.88,5.65,1.78,7.64,2.65,1.99,5.53,2.83,7.79.42"/>
      <path class="cls-8" d="M48.53,231.09c1.83-1.95.7-5.73-1.95-7.72-2.65-1.99-6.1-1.87-7.61-.34-1.52,1.57-.88,5.65,1.78,7.64,2.65,1.99,5.53,2.83,7.79.42Z"/>
      <path class="cls-34" d="M44.63,234.33c2.21-1.49,2.42-5.55.26-8.06-2.16-2.52-5.76-3.47-7.87-1.86-1.74,1.29-2.06,5.31.09,7.83,2.15,2.52,4.79,3.93,7.51,2.1"/>
      <path class="cls-8" d="M44.63,234.33c2.21-1.49,2.42-5.55.26-8.06-2.16-2.52-5.76-3.47-7.87-1.86-1.74,1.29-2.06,5.31.09,7.83,2.15,2.52,4.79,3.93,7.51,2.1Z"/>
      <path class="cls-34" d="M39.14,236.82c2.61-1,3.78-5.08,2.16-8.14-1.61-3.09-5.19-5.15-7.73-4.01-2.09.91-3.25,5.19-1.64,8.25,1.62,3.09,3.97,5.17,7.2,3.9"/>
      <path class="cls-8" d="M39.14,236.82c2.61-1,3.78-5.08,2.16-8.14-1.61-3.09-5.19-5.15-7.73-4.01-2.09.91-3.25,5.19-1.64,8.25,1.62,3.09,3.97,5.17,7.2,3.9Z"/>
      <path class="cls-34" d="M32.85,237.42c2.77-.39,5.52-4.24,4.65-7.6-.86-3.36-4.37-6.22-7.1-5.69-2.25.42-4.36,4.28-3.49,7.64.87,3.39,2.52,6.11,5.95,5.65"/>
      <path class="cls-8" d="M32.85,237.42c2.77-.39,5.52-4.24,4.65-7.6-.86-3.36-4.37-6.22-7.1-5.69-2.25.42-4.36,4.28-3.49,7.64.87,3.39,2.52,6.11,5.95,5.65Z"/>
      <path class="cls-34" d="M26.65,236.24c2.79.15,6.2-3.09,5.97-6.57-.23-3.47-3.15-6.91-5.92-6.91-2.28,0-5.09,3.39-4.85,6.87.22,3.47,1.35,6.45,4.81,6.61"/>
      <path class="cls-8" d="M26.65,236.24c2.79.15,6.2-3.09,5.97-6.57-.23-3.47-3.15-6.91-5.92-6.91-2.28,0-5.09,3.39-4.85,6.87.22,3.47,1.35,6.45,4.81,6.61Z"/>
      <path class="cls-34" d="M18.85,233.19c2.36,1.48,5.89-.77,7.39-3.9,1.49-3.13.96-6.91-1.05-8.14-1.94-1.18-6.08.5-7.59,3.63-1.48,3.13-1.68,6.56,1.25,8.4"/>
      <path class="cls-8" d="M18.85,233.19c2.36,1.48,5.89-.77,7.39-3.9,1.49-3.13.96-6.91-1.05-8.14-1.94-1.18-6.08.5-7.59,3.63-1.48,3.13-1.68,6.56,1.25,8.4Z"/>
      <path class="cls-34" d="M12.14,227.15c1.69,2.22,5.39.99,7.91-1.42,2.5-2.41,4-5.92,2.62-7.82-1.52-2.07-4.5-1.3-7.01,1.1-2.51,2.37-5.59,5.39-3.52,8.14"/>
      <path class="cls-8" d="M12.14,227.15c1.69,2.22,5.39.99,7.91-1.42,2.5-2.41,4-5.92,2.62-7.82-1.52-2.07-4.5-1.3-7.01,1.1-2.51,2.37-5.59,5.39-3.52,8.14Z"/>
      <path class="cls-34" d="M8.75,220.24c1.2,2.56,5.29,1.87,8.23,0,2.95-1.83,5.36-5,4.61-7.22-.96-2.86-3.43-2.56-7.07-.27-2.96,1.84-7.26,4.39-5.77,7.49"/>
      <path class="cls-8" d="M8.75,220.24c1.2,2.56,5.29,1.87,8.23,0,2.95-1.83,5.36-5,4.61-7.22-.96-2.86-3.43-2.56-7.07-.27-2.96,1.84-7.26,4.39-5.77,7.49Z"/>
      <path class="cls-34" d="M7.46,212.71c.59,2.75,4.94,2.64,8.14,1.27,3.19-1.38,6.08-4.17,5.65-6.5-.57-3.13-1.66-2.1-5.94.65-4.61,2.91-8.9-.31-7.85,4.59"/>
      <path class="cls-8" d="M7.46,212.71c.59,2.75,4.94,2.64,8.14,1.27,3.19-1.38,6.08-4.17,5.65-6.5-.57-3.13-1.66-2.1-5.94.65-4.61,2.91-8.9-.31-7.85,4.59Z"/>
      <path class="cls-34" d="M7.23,204.58c-.25,2.75,3.82,3.55,7.27,3.17,3.45-.33,7.39-1.71,7.67-4.05.38-3.16-1.08-3.02-5.99-1.68-5.27,1.41-8.52-2.44-8.96,2.56"/>
      <path class="cls-8" d="M7.23,204.58c-.25,2.75,3.82,3.55,7.27,3.17,3.45-.33,7.39-1.71,7.67-4.05.38-3.16-1.08-3.02-5.99-1.68-5.27,1.41-8.52-2.44-8.96,2.56Z"/>
      <path class="cls-34" d="M10.02,196.64c-.98,3.13,2.33,4.39,5.79,4.81,3.73.47,6.52,1.87,8.96-2.25,1.65-2.78-1.08-1.64-6.15-2.13-4.99-.47-7.03-5.47-8.6-.42"/>
      <path class="cls-8" d="M10.02,196.64c-.98,3.13,2.33,4.39,5.79,4.81,3.73.47,6.52,1.87,8.96-2.25,1.65-2.78-1.08-1.64-6.15-2.13-4.99-.47-7.03-5.47-8.6-.42Z"/>
      <path class="cls-34" d="M52.39,218.6c.37-2.14-2.1-4.2-5.4-4.39-3.31-.22-6.16,1.54-6.57,3.67-.4,2.14,2.08,4.55,5.39,4.74,3.3.19,6.11-1.3,6.58-4.02"/>
      <path class="cls-12" d="M52.39,218.6c.37-2.14-2.1-4.2-5.4-4.39-3.31-.22-6.16,1.54-6.57,3.67-.4,2.14,2.08,4.55,5.39,4.74,3.3.19,6.11-1.3,6.58-4.02Z"/>
      <path class="cls-34" d="M51.53,225.58c1.45-2.22-.41-5.23-3.39-6.72-2.96-1.45-6.27-.95-7.48.84-1.2,1.84.1,5.39,3.07,6.87,2.96,1.45,6,1.8,7.8-.99"/>
      <path class="cls-12" d="M51.53,225.58c1.45-2.22-.41-5.23-3.39-6.72-2.96-1.45-6.27-.95-7.48.84-1.2,1.84.1,5.39,3.07,6.87,2.96,1.45,6,1.8,7.8-.99Z"/>
      <path class="cls-34" d="M48.53,231.09c1.83-1.95.7-5.73-1.95-7.72-2.65-1.99-6.1-1.87-7.61-.34-1.52,1.57-.88,5.65,1.78,7.64,2.65,1.99,5.53,2.83,7.79.42"/>
      <path class="cls-12" d="M48.53,231.09c1.83-1.95.7-5.73-1.95-7.72-2.65-1.99-6.1-1.87-7.61-.34-1.52,1.57-.88,5.65,1.78,7.64,2.65,1.99,5.53,2.83,7.79.42Z"/>
      <path class="cls-34" d="M44.63,234.33c2.21-1.49,2.42-5.55.26-8.06-2.16-2.52-5.76-3.47-7.87-1.86-1.74,1.29-2.06,5.31.09,7.83,2.15,2.52,4.79,3.93,7.51,2.1"/>
      <path class="cls-12" d="M44.63,234.33c2.21-1.49,2.42-5.55.26-8.06-2.16-2.52-5.76-3.47-7.87-1.86-1.74,1.29-2.06,5.31.09,7.83,2.15,2.52,4.79,3.93,7.51,2.1Z"/>
      <path class="cls-34" d="M39.14,236.82c2.61-1,3.78-5.08,2.16-8.14-1.61-3.09-5.19-5.15-7.73-4.01-2.09.91-3.25,5.19-1.64,8.25,1.62,3.09,3.97,5.17,7.2,3.9"/>
      <path class="cls-12" d="M39.14,236.82c2.61-1,3.78-5.08,2.16-8.14-1.61-3.09-5.19-5.15-7.73-4.01-2.09.91-3.25,5.19-1.64,8.25,1.62,3.09,3.97,5.17,7.2,3.9Z"/>
      <path class="cls-34" d="M32.85,237.42c2.77-.39,5.52-4.24,4.65-7.6-.86-3.36-4.37-6.22-7.1-5.69-2.25.42-4.36,4.28-3.49,7.64.87,3.39,2.52,6.11,5.95,5.65"/>
      <path class="cls-12" d="M32.85,237.42c2.77-.39,5.52-4.24,4.65-7.6-.86-3.36-4.37-6.22-7.1-5.69-2.25.42-4.36,4.28-3.49,7.64.87,3.39,2.52,6.11,5.95,5.65Z"/>
      <path class="cls-34" d="M26.65,236.24c2.79.15,6.2-3.09,5.97-6.57-.23-3.47-3.15-6.91-5.92-6.91-2.28,0-5.09,3.39-4.85,6.87.22,3.47,1.35,6.45,4.81,6.61"/>
      <path class="cls-12" d="M26.65,236.24c2.79.15,6.2-3.09,5.97-6.57-.23-3.47-3.15-6.91-5.92-6.91-2.28,0-5.09,3.39-4.85,6.87.22,3.47,1.35,6.45,4.81,6.61Z"/>
      <path class="cls-34" d="M18.85,233.19c2.36,1.48,5.89-.77,7.39-3.9,1.49-3.13.96-6.91-1.05-8.14-1.94-1.18-6.08.5-7.59,3.63-1.48,3.13-1.68,6.56,1.25,8.4"/>
      <path class="cls-12" d="M18.85,233.19c2.36,1.48,5.89-.77,7.39-3.9,1.49-3.13.96-6.91-1.05-8.14-1.94-1.18-6.08.5-7.59,3.63-1.48,3.13-1.68,6.56,1.25,8.4Z"/>
      <path class="cls-34" d="M12.14,227.15c1.69,2.22,5.39.99,7.91-1.42,2.5-2.41,4-5.92,2.62-7.82-1.52-2.07-4.5-1.3-7.01,1.1-2.51,2.37-5.59,5.39-3.52,8.14"/>
      <path class="cls-12" d="M12.14,227.15c1.69,2.22,5.39.99,7.91-1.42,2.5-2.41,4-5.92,2.62-7.82-1.52-2.07-4.5-1.3-7.01,1.1-2.51,2.37-5.59,5.39-3.52,8.14Z"/>
      <path class="cls-34" d="M8.75,220.24c1.2,2.56,5.29,1.87,8.23,0,2.95-1.83,5.36-5,4.61-7.22-.96-2.86-3.43-2.56-7.07-.27-2.96,1.84-7.26,4.39-5.77,7.49"/>
      <path class="cls-12" d="M8.75,220.24c1.2,2.56,5.29,1.87,8.23,0,2.95-1.83,5.36-5,4.61-7.22-.96-2.86-3.43-2.56-7.07-.27-2.96,1.84-7.26,4.39-5.77,7.49Z"/>
      <path class="cls-34" d="M7.46,212.71c.59,2.75,4.94,2.64,8.14,1.27,3.19-1.38,6.08-4.17,5.65-6.5-.57-3.13-1.66-2.1-5.94.65-4.61,2.91-8.9-.31-7.85,4.59"/>
      <path class="cls-12" d="M7.46,212.71c.59,2.75,4.94,2.64,8.14,1.27,3.19-1.38,6.08-4.17,5.65-6.5-.57-3.13-1.66-2.1-5.94.65-4.61,2.91-8.9-.31-7.85,4.59Z"/>
      <path class="cls-34" d="M7.23,204.58c-.25,2.75,3.82,3.55,7.27,3.17,3.45-.33,7.39-1.71,7.67-4.05.38-3.16-1.08-3.02-5.99-1.68-5.27,1.41-8.52-2.44-8.96,2.56"/>
      <path class="cls-12" d="M7.23,204.58c-.25,2.75,3.82,3.55,7.27,3.17,3.45-.33,7.39-1.71,7.67-4.05.38-3.16-1.08-3.02-5.99-1.68-5.27,1.41-8.52-2.44-8.96,2.56Z"/>
      <path class="cls-34" d="M10.02,196.64c-.98,3.13,2.33,4.39,5.79,4.81,3.73.47,6.52,1.87,8.96-2.25,1.65-2.78-1.08-1.64-6.15-2.13-4.99-.47-7.03-5.47-8.6-.42"/>
      <path class="cls-12" d="M46.36,231.24c1.45-2.02-.92-6.41-3.95-6.83M50.02,219.85c.54-1.91-3.5-3.13-4.92-2.1M49.02,226.69c1.67-2.26-2.64-6.07-5.78-4.85M41.52,234.64c2.46-1.45,2.51-4.36.35-6.87-.87-.99-2.54-2.18-3.36-2.37M35.87,235.82c2.32-.61,3.59-4.08,1.98-7.14-.71-1.33-1.85-2.98-2.98-3.28M31.05,235.32c1.45-.38,2.51-3.36,2.15-5.73-.26-1.68-.86-3.02-1.57-3.28M22.76,233.37c2,2.44,4.82-1.33,5.25-4.77.25-2.07-.14-4.05-1.04-4.62M16.7,229.64c.46,1.83,4.23-.27,5.44-2.79.81-1.72,1.63-5.08.36-5.05M12.19,223.87c1.51.38,3.58-.54,5.1-1.99,1.17-1.15,2.06-2.56,2.4-3.82M9.29,216.99c1.64.58,4.16-.19,6.07-1.53,1.13-.76,2.18-1.79,2.92-2.87M10.02,196.64c-.98,3.13,2.33,4.39,5.79,4.81,3.73.47,6.52,1.87,8.96-2.25,1.65-2.78-1.08-1.64-6.15-2.13-4.99-.47-7.03-5.47-8.6-.42Z"/>
      <path class="cls-34" d="M24.25,181.59c-3.02,1.41-5.91,3.67-6.81,6.77,1.37-1.23,8.08,1.14,8.98,3.85,2.06,9.55-12.12,4.81-12.13-1.37.27-5.01,3.67-9.63,7.74-11.81"/>
      <path class="cls-12" d="M24.25,181.59c-3.02,1.41-5.91,3.67-6.81,6.77,1.37-1.23,8.08,1.14,8.98,3.85,2.06,9.55-12.12,4.81-12.13-1.37.27-5.01,3.67-9.63,7.74-11.81"/>
      <path class="cls-4" d="M17.14,190.03c-.31.72,1.22,2.1,3.43,3.05,2.2.92,4.25,1.12,4.57.39"/>
      <path class="cls-34" d="M123.34,134.84c.82-1.95,2.09-3.05,4.15-4.51,12.99-9.47,24.72-17.3,32.62-21.27,6.42-3.29,13.3-3.9,19.28-2.1,19.47,5.84,66.51,24.83,85.05,35.55,12.25,7.49,6.17,20.51,4.48,25.06-4,10.73-82.47,86.39-105.22,100.79-11.06,7.49-25.4,5.39-34.07,1.53-22.42-10.47-68.46-42.47-80.41-56.83-4.49-6.57-2.84-12.67,1.64-18.06,6.19-6.91,17.35-17.07,30.78-28.41.9-.88,2.1-.96,3.52-.23,0-.95,1.42-2.18,3.37-2.75,0-.95,1.4-2.21,3.39-2.79,0-.96,1.4-2.18,3.33-2.75,0-.96,1.41-2.18,3.36-2.75,0-.96,1.41-2.18,3.35-2.75,0-.99,1.42-2.21,3.42-2.79,0-.95,1.39-2.18,3.32-2.75,0-.96,1.35-2.06,3.25-2.63,0-.99,1.36-2.02,3.3-2.6,0-.92,1.29-1.91,3.13-2.44,0-1.03,1.57-2.41,3.67-2.91.15-.42.59-1.11,1.31-1.6"/>
      <path class="cls-10" d="M123.34,134.84c.82-1.95,2.09-3.05,4.15-4.51,12.99-9.47,24.72-17.3,32.62-21.27,6.42-3.29,13.3-3.9,19.28-2.1,19.47,5.84,66.51,24.83,85.05,35.55,12.25,7.49,6.17,20.51,4.48,25.06-4,10.73-82.47,86.39-105.22,100.79-11.06,7.49-25.4,5.39-34.07,1.53-22.42-10.47-68.46-42.47-80.41-56.83-4.49-6.57-2.84-12.67,1.64-18.06,6.19-6.91,17.35-17.07,30.78-28.41.9-.88,2.1-.96,3.52-.23,0-.95,1.42-2.18,3.37-2.75,0-.95,1.4-2.21,3.39-2.79,0-.96,1.4-2.18,3.33-2.75,0-.96,1.41-2.18,3.36-2.75,0-.96,1.41-2.18,3.35-2.75,0-.99,1.42-2.21,3.42-2.79,0-.95,1.39-2.18,3.32-2.75,0-.96,1.35-2.06,3.25-2.63,0-.99,1.36-2.02,3.3-2.6,0-.92,1.29-1.91,3.13-2.44,0-1.03,1.57-2.41,3.67-2.91.15-.42.59-1.11,1.31-1.6Z"/>
      <path class="cls-12" d="M69.54,224.44c13.15,11.65,43.94,31.7,66.06,38.84,15.54,3.89,23.61-2.99,29.59-9.55,20.62-23.03,73.54-80.13,88.48-88.8"/>
      <path class="cls-22" d="M113.09,186.82c.18,1.22-.52,2.45-2.23,3.9-2.44,2.07-21.82,19.63-24.89,23.41-3.08,3.82-7.33,3.36-9.97,2.94-.69-.12-1.45-.31-2.25-.53"/>
      <path class="cls-12" d="M143.32,125.44c-.19-.76.32-1.72,1.11-2.52,4.49-3.29,18.23-13.06,23.3-14.7,2.83-1.04,6.28-.77,8.07-.16,1.8.61,15.39,4.28,18.68,6.54,1.65,1.18,2.24,2.94,2.15,4.69M107.2,189.16c-2.39-2.37-14.03-8.56-17.46-9.75-2.55-.92-4.94-1.37-7.92.72-2.99,2.11-16.76,13.83-19.9,17.68-2.39,3.02-3.59,6.88-.45,9.75,2.79,2.52,9.49,7.41,12.93,9.39M73.5,217.11c-5.72-1.65-13.96-5.81-19.06-10.93-2.99-4.01-1.94-7.91.89-10.89,2.36-2.86,21.24-18.75,24.23-20.85,2.98-2.06,6.28-3.86,10.61-2.21,4.33,1.64,19.09,9.08,21.63,11.64,1.07,1.07,1.15,2.02,1.28,2.94"/>
      <path class="cls-23" d="M196.63,119.3c-.09,1.71-1.4,3.32-3.52,4.36-4.53,1.91-14.94,8.32-18.6,11.83-3.07,2.94-6.88,2.22-9.23,1.34-6.73-2.07-18.31-8.06-20.8-9.97-.68-.54-.89-1.26-.72-2.02"/>
      <path class="cls-12" d="M148.65,126.52c5.42-3.06,14.48-6.8,16.38-7.45"/>
      <path class="cls-25" d="M231.73,165.93c0,1.19-1.79,2.15-4,2.15s-3.99-.96-4-2.1"/>
      <path class="cls-20" d="M223.73,165.97l.03-1.34c0-1.19,1.79-2.14,3.99-2.14s4,.95,4.01,2.1l-.03,1.33"/>
      <path class="cls-29" d="M149.21,193.27v-1.53c0-2.56-3.22-4.66-7.19-4.66s-7.2,2.1-7.2,4.66v1.53"/>
      <path class="cls-12" d="M134.81,193.27c0,2.56,3.23,4.66,7.2,4.66s7.19-2.1,7.19-4.66"/>
      <path class="cls-29" d="M161.36,181.02v-1.48c0-2.61-3.23-4.7-7.2-4.7s-7.19,2.09-7.19,4.7v1.48"/>
      <path class="cls-12" d="M146.96,181.02c0,2.59,3.22,4.69,7.19,4.69s7.21-2.1,7.21-4.69"/>
      <path class="cls-29" d="M136.78,205.87v-1.52c0-2.56-3.23-4.67-7.2-4.67s-7.2,2.1-7.2,4.67v1.52"/>
      <path class="cls-12" d="M122.39,205.87c0,2.6,3.22,4.66,7.19,4.66s7.2-2.06,7.2-4.66"/>
      <path class="cls-29" d="M123.67,219.82v-1.53c0-2.63-3.29-4.77-7.35-4.77s-7.34,2.14-7.34,4.77v1.53"/>
      <path class="cls-12" d="M108.98,219.82c0,2.63,3.29,4.77,7.34,4.77s7.34-2.14,7.34-4.77"/>
      <path class="cls-29" d="M164.7,201.68v-1.57c0-2.71-3.35-4.89-7.49-4.89s-7.49,2.18-7.49,4.89v1.57"/>
      <path class="cls-12" d="M149.72,201.68c0,2.67,3.36,4.84,7.49,4.84s7.49-2.17,7.49-4.84"/>
      <path class="cls-29" d="M176.56,189.3v-1.53c0-2.6-3.25-4.7-7.27-4.7s-7.27,2.1-7.27,4.7v1.53"/>
      <path class="cls-12" d="M162.02,189.3c0,2.59,3.25,4.74,7.27,4.74s7.28-2.14,7.28-4.74"/>
      <path class="cls-29" d="M152.31,214.36v-1.61c0-2.71-3.39-4.88-7.56-4.88s-7.56,2.17-7.56,4.88v1.61"/>
      <path class="cls-12" d="M137.18,214.36c0,2.71,3.38,4.89,7.56,4.89s7.57-2.18,7.57-4.89"/>
      <path class="cls-29" d="M139.23,228.15v-1.64c0-2.75-3.46-4.96-7.72-4.96s-7.72,2.21-7.72,4.96v1.64"/>
      <path class="cls-12" d="M123.79,228.15c0,2.75,3.45,5,7.72,5s7.72-2.25,7.72-5"/>
      <path class="cls-29" d="M192.92,198.01v-1.65c0-2.78-3.52-5.08-7.85-5.08s-7.86,2.3-7.86,5.08v1.65"/>
      <path class="cls-12" d="M177.22,198.01c0,2.83,3.52,5.12,7.86,5.12s7.84-2.29,7.84-5.12"/>
      <path class="cls-29" d="M180.59,210.46v-1.64c0-2.83-3.51-5.12-7.85-5.12s-7.85,2.29-7.85,5.12v1.64"/>
      <path class="cls-12" d="M164.89,210.46c0,2.79,3.52,5.08,7.85,5.08s7.85-2.29,7.85-5.08"/>
      <path class="cls-29" d="M168.08,223.14v-1.65c0-2.82-3.52-5.08-7.85-5.08s-7.85,2.26-7.85,5.08v1.65"/>
      <path class="cls-12" d="M152.38,223.14c0,2.83,3.51,5.11,7.85,5.11s7.86-2.28,7.86-5.11"/>
      <path class="cls-29" d="M155.13,236.89v-1.72c0-2.94-3.66-5.31-8.16-5.31s-8.17,2.36-8.17,5.31v1.72"/>
      <path class="cls-12" d="M138.8,236.89c0,2.9,3.66,5.27,8.16,5.27s8.17-2.37,8.17-5.27"/>
      <path class="cls-25" d="M227.82,149.81l11.68,5.05c.73.31,1.81.11,2.42-.5M213.79,143.78l12.01,5.15M201.05,138.32l11.1,4.78M192.09,134.38l.24.19,5.22,2.21"/>
      <path class="cls-33" d="M182.86,195.61c-.14.16-.87.69.16,1.3,1.03.61,1.9.49,2.34.08.57-.49.08-.96-.91-1.41l.46-.39c.91.5,1.53.77,2.15.27.55-.49.03-.88-.49-1.18-1.22-.5-1.68,0-1.93.15l-.69-.38c.89-.65,2-.73,3.19-.08,1,.54,1.47,1.3.61,1.95-.49.39-1.13.31-1.56.27.48.57.31.89-.15,1.26-.45.38-1.33.62-2.37.31l-.91-.34-.51-.31c-.93-.73-.64-1.38-.09-1.87l.71.38"/>
      <path class="cls-33" d="M169.96,188c.8.15,2.21.15,2.64-.53.41-.46.29-1.15-.69-1.72-.28-.15-.78-.49-1.69-.54-.98-.1-1.54.32-1.87.54l.71.39c.61-.42,1.3-.58,2.23-.11.49.26.99.88.32,1.29-.43.3-1.12.26-1.59.19l-1.25-.23c-1.98-.31-2.5.04-3.35.53l3.92,2.18.51-.38-3.15-1.76,1.93-.08,1.33.23"/>
      <path class="cls-33" d="M151.81,180.4l3.03-2.33-1.34-.77.41-.31c1.32.56,1.46.54,2.4.19l.49.27-4.29,3.32-.7-.39"/>
      <path class="cls-14" d="M113.09,215.66l5.13,2.82M112.75,217.6l5.8-1.07M115.98,215.12l-.66,3.9"/>
      <path class="cls-33" d="M131.03,227.76c.32-.03,1.01-.39,1.55-.81.52-.41.95-.91.99-1.14l-.5-.83c-.34-.19-.85-.31-1.38-.19-.32.07-1.01.42-1.55.84-.52.42-.95.92-.99,1.11l.5.88c.33.15.84.26,1.37.15M128.29,226.66c.07-.46.67-1.07,1.16-1.45.48-.38,1.29-.85,2.02-.96.78-.15,1.55,0,2.13.31.57.34.95.81.86,1.34-.08.49-.67,1.06-1.16,1.45-.49.39-1.29.84-2.02.99-.77.12-1.55-.03-2.13-.34-.57-.34-.96-.8-.87-1.33"/>
      <path class="cls-14" d="M147.9,232.12l-5.4,2.9M150.3,233.45l-5.4,2.94M143.09,233.65l4.38,2.44M145.65,232.23l4.38,2.48"/>
      <path class="cls-33" d="M173.08,209.7l.42-.65-.64-.76-1.21-.26c-.76,0-1.25.5-1.27.91l.59.8c.37.19.86.35,1.37.26l.74-.3M174.91,208.13l-.19-.91c-.4-.27-1.06-.47-1.83-.27l-1.35.65c.73.04,1.16,0,1.89.38,1,.57,1.13,1.26.76,1.76l-.31.3-.38.24-.93.26c-.77.04-1.26-.04-2.08-.45-.6-.31-.96-.77-.91-1.19-.02-.69.57-1.18,1.28-1.68l1.16-.65c1.23-.46,2.36-.19,3.07.19.47.27.71.57.8.89l-.25.91-.72-.42Z"/>
      <path class="cls-33" d="M155.87,199.35c.53-.04.98.04,1.49.3.66.39.98.99.06,1.57-.56.35-1.27.31-1.93,0-1.11-.54-.71-1.1-.61-1.26l-.75-.38c-.08.07-.79.65.16,1.52l.74.53,1.04.31c.76.16,1.61.08,2.33-.42.83-.57.69-1.22.21-1.72l-.67-.49c-.31-.15-.7-.34-1.29-.39l1.41-.76,2.46,1.33.54-.39-3.05-1.68-2.8,1.53.67.38"/>
      <path class="cls-33" d="M143.19,190.64l-3.79.42,1.87,1.03,1.92-1.45ZM138.23,191.09l.57-.46,5.4-.61.55.3-2.78,2.14.86.49-.5.38-.86-.5-1.02.81-.69-.38,1-.8-2.54-1.38Z"/>
      <path class="cls-33" d="M159.31,220.47l.64.73,1.21.26c.76,0,1.25-.45,1.27-.91l-.58-.76c-.36-.23-.85-.34-1.36-.27-.5.08-1.1.38-1.18.96M157.89,221.35l.24.91c.4.32,1.07.47,1.77.32l1.37-.69-1.03-.04-.57-.19-.61-.34c-.75-.56-.77-1.1-.44-1.52l.3-.3.4-.27.92-.23c.78-.04,1.27,0,2.09.42.59.3.95.72.91,1.22-.03.38-.29.8-.74,1.21l-.36.31-.42.3-.94.47c-.54.23-1.14.3-1.72.23-.46-.08-.85-.19-1.2-.34-.59-.31-.91-.61-1.01-.96l.31-.88.73.39Z"/>
      <path class="cls-33" d="M146.39,211.42l-.93-.31c-.56,0-.89.28-.99.47l.46.8,1.21.31c.67-.03.93-.46.79-.8l-.54-.46M144.52,212.76l-1.28-.31-.75.34-.25.53.58.69c.43.19.65.26.96.31.56.08.94-.05,1.16-.24l.3-.53-.73-.8M146.79,210.99l1.01.91c.32.61-.4,1.23-1.08,1.26l-.86-.03.23.64-.46.81c-.36.22-.91.38-1.68.3-.52-.03-1.12-.23-1.61-.49-.49-.31-.87-.65-.98-1.03l.32-.96,1.04-.42c.27-.08.63-.05,1.08.04l-.17-.69c.16-.42.82-.84,1.84-.77.43.05.91.19,1.33.42"/>
      <path class="cls-33" d="M128.7,201.84l3.16,1.76c-.98.19-2,.3-2.96.52-1.38.27-1.87.47-3.23,1.05l.79.41c1.05-.53,2.34-.96,3.19-1.11.56-.16,1.09-.27,1.71-.35l1.34-.15.45-.34-3.94-2.18-.52.39"/>
      <path class="cls-29" d="M218.62,181.02v-1.19c0-1.03-.71-2.1-1.73-2.75-2.81-2.14-16.67-9.16-21.57-10.57-.68-.19-1.89-.39-2.68-.39-3.12,0-5.65,1.65-5.65,3.67v1.18"/>
      <path class="cls-2" d="M205.25,171.01c-3.39-.65-9.24.99-11.72,4.12M208.53,172.42c-3.13,0-9.01,1.45-11.49,4.59"/>
      <path class="cls-25" d="M216.31,158.71c0,1.14-1.78,2.1-4,2.1-2.2.04-4-.92-4-2.1"/>
      <path class="cls-20" d="M208.32,158.71l.03-1.34c0-1.15,1.78-2.1,3.99-2.1s4,.91,4,2.1l-.03,1.34"/>
      <path class="cls-25" d="M200.9,151.69c0,1.18-1.78,2.14-3.99,2.14s-4-.92-4-2.11"/>
      <path class="cls-20" d="M192.91,151.72l.02-1.34c0-1.18,1.78-2.14,4-2.14s3.99.96,4,2.1l-.03,1.34"/>
      <path class="cls-25" d="M185.48,144.69c0,1.15-1.78,2.1-3.99,2.14-2.21,0-4-.96-4-2.14"/>
      <path class="cls-20" d="M227.71,149.58c-.63-1.19-.31-2.22.24-2.75.61-.57,1.61-.84,2.34-.53l11.52,4.93c.96.62.85,1.99.12,2.56M225.81,148.93c-.6-.99-.27-2.36.27-2.9.61-.57,1.58-.88,2.32-.53l-11.85-5.04c-.73-.35-1.77-.05-2.37.56-.55.5-.87,1.3-.38,2.75M212.16,143.09c-.38-.88-.16-2.26.38-2.79.61-.57,1.68-.88,2.41-.53l-11.35-4.93c-.73-.34-1.65-.04-2.26.57-.56.54-1.11,2.02-.27,2.91M197.56,136.78c-.37-1.1-.29-2.25.27-2.78.61-.57,1.6-.92,2.32-.57l-5.5-2.49c-.73-.3-1.82-.11-2.42.5-.55.53-.74,1.83-.12,2.4M177.49,144.69l.03-1.29c0-1.19,1.78-2.14,3.99-2.14s4,.91,4,2.1l-.03,1.34"/>
      <line class="cls-30" x1="199.58" y1="133.23" x2="230.28" y2="146.3"/>
      <path class="cls-4" d="M138.93,154.2c1.18-.11,1.18,1.91-.53,2.45-2.43.8-20.99,7.6-20.99,7.6M138.98,158.52c1.17-.16,1.17,1.91-.53,2.44-2.45.8-26.84,9.66-26.84,9.66M135.71,163.71c1.18-.11,1.18,1.91-.52,2.48-2.44.8-28.24,10.17-28.24,10.17"/>
      <path class="cls-21" d="M186.99,170.97c0,1.3.74,2.33,2.33,2.98,4.22,1.18,17.44,8.32,20.71,10.2.86.34,1.86.53,2.94.53,3.13,0,5.65-1.64,5.65-3.66"/>
      <path class="cls-12" d="M156.82,268.98c4.18-1.49,11.95-7.18,16.44-11.35,8.97-8.37,80.71-76.54,88.19-87.3"/>
      <path class="cls-12" d="M190.68,235.1c1.37-2.71,1.44-5.04.06-3.74"/>
      <path class="cls-20" d="M190.7,231.62l-.22.23c-5.8,6.23-11.22,12.11-15.91,17.27-1.43,1.34-2.13,5.54-.5,3.44"/>
      <path class="cls-12" d="M226.41,198.09c1.37-2.75,1.45-5.04.06-3.75M186.52,240.82c1.13-2.25-.13-2.75-.13-2.75M187.79,235.02c1.34,4.51-1.36,7.87-7.5,7.98"/>
      <path class="cls-20" d="M226.43,194.61l-.22.23c-5.8,6.22-2.35,2.29-7.04,7.45-1.44,1.33-2.14,5.54-.5,3.43"/>
      <path class="cls-12" d="M224.86,200.72c1.12-2.25-.14-2.75-.14-2.75M226.12,194.92c1.36,4.51-1.36,7.87-7.5,7.98"/>
      <path class="cls-12" d="M182.5,125.02s-13.65-5.5-13.94-6.22M179.6,129.38s-13.66-5.5-13.94-6.23c-.29-.69,1.37-5.45,1.37-5.45,0,0,1.88-2.26,2.91-2.06,3.73.61,20.11,7.33,20.11,7.33"/>
    </g>
  </g>
  <g id="_レイヤー_1" data-name=" レイヤー 1" class="cls-35">
    <g>
      <path class="cls-33" d="M124.99,139.81c.81-1.94,2.09-3.07,4.13-4.48,12.98-9.48,24.74-17.3,32.63-21.31,6.42-3.29,13.31-3.87,19.27-2.08,19.47,5.83,66.51,24.8,85.06,35.57,12.25,7.48,6.18,20.5,4.48,25.04-4,10.72-82.48,86.42-105.22,100.84-11.06,7.47-25.42,5.37-34.09,1.49-22.41-10.47-68.48-42.45-80.41-56.82-4.5-6.58-2.85-12.7,1.64-18.07,6.2-6.91,17.35-17.07,30.78-28.42.89-.89,2.1-.96,3.52-.21,0-.97,1.41-2.19,3.36-2.77,0-.98,1.4-2.22,3.4-2.77,0-.99,1.38-2.2,3.32-2.77,0-.96,1.41-2.18,3.36-2.76,0-.97,1.41-2.19,3.35-2.78,0-.96,1.41-2.22,3.41-2.78,0-.97,1.39-2.18,3.32-2.77,0-.95,1.33-2.05,3.24-2.62,0-.98,1.36-2.03,3.3-2.58,0-.94,1.27-1.92,3.13-2.49,0-1.01,1.58-2.38,3.67-2.88.18-.4.58-1.12,1.32-1.61"/>
      <path class="cls-34" d="M123.33,134.84c.82-1.94,2.08-3.06,4.14-4.48,12.98-9.49,24.73-17.3,32.63-21.3,6.41-3.29,13.29-3.88,19.29-2.1,19.47,5.85,66.5,24.82,85.04,35.6,12.26,7.46,6.18,20.51,4.48,25.03-4,10.74-82.48,86.43-105.22,100.85-11.08,7.46-25.42,5.37-34.09,1.49-22.42-10.46-68.47-42.47-80.41-56.81-4.5-6.58-2.84-12.7,1.63-18.09,6.2-6.9,17.35-17.07,30.78-28.42.9-.87,2.1-.95,3.52-.21,0-.97,1.41-2.21,3.36-2.77,0-.99,1.4-2.22,3.4-2.78,0-.97,1.38-2.19,3.32-2.76,0-.96,1.41-2.19,3.36-2.77,0-.96,1.42-2.19,3.36-2.77,0-.98,1.41-2.21,3.39-2.78,0-.96,1.38-2.19,3.33-2.77,0-.95,1.33-2.05,3.24-2.63,0-.98,1.36-2.03,3.29-2.58,0-.94,1.29-1.92,3.13-2.48,0-1.02,1.58-2.38,3.67-2.87.17-.42.59-1.12,1.32-1.63"/>
      <path class="cls-19" d="M123.33,134.84c.82-1.94,2.08-3.06,4.14-4.48,12.98-9.49,24.73-17.3,32.63-21.3,6.41-3.29,13.29-3.88,19.29-2.1,19.47,5.85,66.5,24.82,85.04,35.6,12.26,7.46,6.18,20.51,4.48,25.03-4,10.74-82.48,86.43-105.22,100.85-11.08,7.46-25.42,5.37-34.09,1.49-22.42-10.46-68.47-42.47-80.41-56.81-4.5-6.58-2.84-12.7,1.63-18.09,6.2-6.9,17.35-17.07,30.78-28.42.9-.87,2.1-.95,3.52-.21,0-.97,1.41-2.21,3.36-2.77,0-.99,1.4-2.22,3.4-2.78,0-.97,1.38-2.19,3.32-2.76,0-.96,1.41-2.19,3.36-2.77,0-.96,1.42-2.19,3.36-2.77,0-.98,1.41-2.21,3.39-2.78,0-.96,1.38-2.19,3.33-2.77,0-.95,1.33-2.05,3.24-2.63,0-.98,1.36-2.03,3.29-2.58,0-.94,1.29-1.92,3.13-2.48,0-1.02,1.58-2.38,3.67-2.87.17-.42.59-1.12,1.32-1.63v.02Z"/>
      <path class="cls-5" d="M69.5,224.46c13.17,11.66,43.96,31.7,66.07,38.86,15.56,3.91,23.62-2.98,29.61-9.56,20.63-23.01,73.53-80.13,88.49-88.79"/>
      <path class="cls-1" d="M113.07,186.85c.2,1.25-.52,2.43-2.22,3.87-2.44,2.09-21.84,19.63-24.9,23.44-3.08,3.82-7.32,3.37-9.96,2.94-.71-.14-1.46-.31-2.26-.54"/>
      <path class="cls-32" d="M73.47,217.13c-5.72-1.64-13.96-5.8-19.06-10.89-2.98-4.04-1.94-7.94.91-10.92,2.36-2.86,22.56-19.74,25.55-21.83,2.99-2.09,6.3-3.88,10.62-2.25,4.32,1.65,17.76,10.11,20.31,12.65,1.07,1.08,1.7,2.01,1.83,2.92"/>
      <path class="cls-32" d="M107.19,189.18c-2.4-2.38-12.71-9.56-16.14-10.77-2.56-.88-4.94-1.34-7.93.76-2.99,2.09-18.09,14.8-21.23,18.68-2.39,2.99-3.59,6.87-.46,9.71,2.8,2.53,9.51,7.43,12.94,9.43"/>
      <path class="cls-26" d="M74.37,216.99c.44.24.81.45,1.13.62"/>
      <path class="cls-32" d="M143.31,125.45c-.2-.77.31-1.71,1.1-2.52,4.5-3.28,19.73-13.72,24.82-15.38,2.81-1.04,6.27-.75,8.04-.15,1.81.6,13.91,4.94,17.2,7.18,1.64,1.21,2.78,2.8,2.7,4.57"/>
      <path class="cls-1" d="M196.63,119.31c-.12,1.71-1.41,3.3-3.53,4.34-4.54,1.89-14.94,8.35-18.6,11.86-3.08,2.93-6.89,2.2-9.23,1.32-6.74-2.05-18.32-8.07-20.8-9.96-.68-.53-.9-1.26-.73-2.04"/>
      <path class="cls-32" d="M146.2,128.04c4.5-3.14,16.6-8.21,18.84-8.98,2.24-.72,2.69-1.92,2.53-3.72"/>
      <path class="cls-32" d="M186.4,124.46c-2.24-.76-12.29-4.4-13.75-4.93-2.84-1.05.14-2.25,0-4.93"/>
      <path class="cls-32" d="M174.74,113.84c-.14,1.19-.45,2.69-1.48,4.33"/>
      <path class="cls-6" d="M231.73,165.95c0,1.18-1.79,2.12-3.99,2.14-2.22,0-4-.93-4.01-2.12"/>
      <path class="cls-13" d="M223.73,165.97l.04-1.32c0-1.15,1.77-2.12,3.98-2.13,2.22,0,4.02.95,4.02,2.11l-.04,1.32"/>
      <path class="cls-18" d="M149.21,193.3v-1.53c0-2.58-3.23-4.68-7.22-4.68s-7.19,2.1-7.19,4.68v1.53"/>
      <path class="cls-32" d="M134.8,193.3c0,2.57,3.22,4.66,7.21,4.66s7.2-2.09,7.2-4.66"/>
      <path class="cls-18" d="M161.36,181.05v-1.51c0-2.58-3.23-4.68-7.22-4.68s-7.2,2.1-7.2,4.68v1.51"/>
      <path class="cls-32" d="M146.94,181.05c0,2.6,3.22,4.68,7.21,4.68s7.2-2.08,7.2-4.68"/>
      <path class="cls-18" d="M136.77,205.91v-1.53c0-2.57-3.22-4.66-7.21-4.66s-7.2,2.1-7.2,4.66v1.53"/>
      <path class="cls-32" d="M122.37,205.91c0,2.58,3.22,4.68,7.21,4.68s7.2-2.1,7.2-4.68"/>
      <path class="cls-18" d="M123.64,219.84v-1.54c0-2.63-3.28-4.76-7.34-4.76s-7.33,2.12-7.33,4.76v1.54"/>
      <path class="cls-32" d="M108.96,219.84c0,2.64,3.29,4.77,7.33,4.77s7.34-2.13,7.34-4.77"/>
      <path class="cls-18" d="M164.68,201.69v-1.58c0-2.67-3.35-4.85-7.48-4.85s-7.5,2.19-7.5,4.85v1.58"/>
      <path class="cls-32" d="M149.71,201.69c0,2.69,3.35,4.87,7.51,4.87s7.46-2.19,7.46-4.87"/>
      <path class="cls-18" d="M176.55,189.34v-1.53c0-2.62-3.25-4.72-7.27-4.72s-7.29,2.11-7.29,4.72v1.53"/>
      <path class="cls-32" d="M162,189.34c0,2.6,3.26,4.71,7.27,4.71s7.29-2.11,7.29-4.71"/>
      <path class="cls-18" d="M152.29,214.37v-1.6c0-2.7-3.39-4.9-7.55-4.9s-7.58,2.21-7.58,4.9v1.6"/>
      <path class="cls-32" d="M137.15,214.37c0,2.71,3.37,4.91,7.57,4.91s7.57-2.21,7.57-4.91"/>
      <path class="cls-18" d="M139.21,228.17v-1.63c0-2.75-3.46-4.98-7.73-4.98s-7.72,2.24-7.72,4.98v1.63"/>
      <path class="cls-32" d="M123.79,228.17c0,2.78,3.45,5.02,7.71,5.02s7.73-2.25,7.73-5.02"/>
      <path class="cls-18" d="M192.92,198.07v-1.67c0-2.8-3.52-5.09-7.84-5.09s-7.86,2.28-7.86,5.09v1.67"/>
      <path class="cls-32" d="M177.2,198.07c0,2.8,3.52,5.08,7.85,5.08s7.86-2.28,7.86-5.08"/>
      <path class="cls-18" d="M180.59,210.49v-1.67c0-2.81-3.51-5.09-7.86-5.09s-7.84,2.28-7.84,5.09v1.67"/>
      <path class="cls-32" d="M164.89,210.49c0,2.8,3.51,5.08,7.84,5.08s7.86-2.28,7.86-5.08"/>
      <path class="cls-18" d="M168.07,223.19v-1.66c0-2.8-3.52-5.08-7.86-5.08s-7.84,2.28-7.84,5.08v1.66"/>
      <path class="cls-32" d="M152.37,223.19c0,2.8,3.52,5.09,7.84,5.09s7.86-2.28,7.86-5.09"/>
      <path class="cls-18" d="M155.13,236.92v-1.71c0-2.94-3.67-5.31-8.18-5.31s-8.17,2.36-8.17,5.31v1.71"/>
      <path class="cls-32" d="M138.78,236.92c0,2.92,3.66,5.3,8.17,5.3s8.17-2.37,8.17-5.3"/>
      <path class="cls-6" d="M192.1,134.4c.06.06.14.13.23.16l5.23,2.25"/>
      <line class="cls-6" x1="201.07" y1="138.32" x2="212.16" y2="143.09"/>
      <line class="cls-6" x1="213.8" y1="143.8" x2="225.81" y2="148.97"/>
      <path class="cls-6" d="M227.83,149.83l11.66,5.02c.74.33,1.82.13,2.43-.48"/>
      <path class="cls-33" d="M182.84,195.64c-.13.15-.86.66.18,1.27,1.03.62,1.9.5,2.35.1.57-.52.08-.96-.91-1.44l.44-.34c.93.5,1.53.74,2.16.24.57-.51.04-.87-.46-1.17-1.23-.51-1.7,0-1.94.16l-.69-.4c.89-.65,1.99-.71,3.19-.07.99.55,1.46,1.28.61,1.94-.5.39-1.13.31-1.57.26.5.57.3.9-.14,1.28-.45.37-1.33.59-2.39.28-.33-.11-.65-.23-.9-.35-.25-.11-.41-.24-.51-.31-.93-.71-.65-1.33-.09-1.84"/>
      <path class="cls-33" d="M168.63,187.79c-.18-.03-1.54-.21-1.94.12l3.16,1.72-.51.39-3.92-2.16c.85-.52,1.36-.85,3.34-.54l1.25.21c.48.07,1.17.11,1.58-.18.69-.42.2-1.05-.31-1.29-.93-.49-1.61-.31-2.22.11l-.72-.39c.35-.22.9-.65,1.89-.55.9.08,1.41.39,1.69.55.97.57,1.1,1.25.71,1.73-.46.67-1.86.7-2.66.54"/>
      <path class="cls-33" d="M151.79,180.41l3.02-2.32-1.34-.75.4-.31c1.34.55,1.46.54,2.41.2l.5.27-4.3,3.29"/>
      <path class="cls-33" d="M115.71,215.1l-.68,3.88c-.03.16.08.27.22.31.15.03.3-.08.31-.23l.67-3.89c.02-.15-.06-.28-.23-.3-.14-.02-.27.08-.28.23"/>
      <path class="cls-33" d="M118.49,216.29l-5.8,1.07c-.15,0-.24.16-.22.3.03.14.17.25.3.23l5.8-1.08c.15-.02.24-.15.22-.3-.03-.14-.16-.24-.3-.21"/>
      <path class="cls-33" d="M112.84,215.55c-.09.13-.03.28.1.36l5.14,2.84c.13.05.27,0,.37-.12.08-.14.02-.29-.12-.37l-5.14-2.83c-.14-.06-.27-.02-.35.11"/>
      <path class="cls-33" d="M128.27,226.69c.08-.48.67-1.07,1.17-1.46.48-.36,1.28-.84,2.02-.97.76-.16,1.55.02,2.12.34.56.3.95.78.86,1.29-.07.51-.67,1.1-1.15,1.46-.5.37-1.29.85-2.04.99-.76.14-1.54-.02-2.12-.35-.57-.31-.94-.79-.86-1.3M131.03,227.82c.32-.08,1.01-.42,1.54-.83.54-.4.95-.9,1-1.13.08-.35-.18-.66-.51-.84-.33-.19-.84-.3-1.39-.19-.3.06-1,.41-1.54.81-.52.42-.95.9-1,1.13-.08.37.18.67.51.86.33.19.84.28,1.39.19"/>
      <path class="cls-33" d="M145.39,232.14c-.08.14-.03.29.12.37l4.38,2.46c.13.08.28.02.35-.12.09-.13.04-.28-.1-.35l-4.38-2.46c-.13-.07-.28-.03-.37.1"/>
      <path class="cls-33" d="M142.84,233.54c-.07.14-.03.29.11.36l4.37,2.48c.14.08.28.03.37-.11.08-.13.02-.29-.1-.37l-4.38-2.47c-.13-.07-.29-.02-.37.11"/>
      <path class="cls-33" d="M150.16,233.26l-5.4,2.92c-.13.07-.19.25-.11.37s.23.18.35.11l5.4-2.93c.14-.07.18-.24.11-.35-.07-.13-.23-.19-.37-.12"/>
      <path class="cls-33" d="M147.75,231.91l-5.38,2.92c-.14.08-.19.24-.11.37.07.13.24.17.37.1l5.38-2.92c.13-.08.18-.23.11-.34-.07-.14-.23-.2-.37-.13"/>
      <path class="cls-33" d="M174.91,208.18c.33-.24.21-.64-.19-.91-.4-.28-1.07-.49-1.84-.27-.39.09-1.21.43-1.34.65.73.03,1.16-.03,1.89.39.99.54,1.14,1.25.76,1.77-.07.09-.18.19-.31.28-.09.08-.25.16-.37.23-.28.14-.62.23-.93.24-.77.04-1.26,0-2.09-.44-.6-.31-.94-.78-.9-1.18-.03-.69.57-1.17,1.27-1.7.33-.25.83-.49,1.15-.63,1.23-.45,2.38-.19,3.07.21.47.25.71.57.81.86.08.3.08.55-.26.91M173.07,209.71c.23-.15.37-.39.42-.66.03-.28-.26-.55-.65-.75-.36-.19-.85-.28-1.2-.26-.77,0-1.26.47-1.27.91,0,.3.24.58.59.78.36.22.86.35,1.35.27.27-.05.54-.14.76-.3"/>
      <path class="cls-33" d="M155.21,198.99l2.78-1.55,3.05,1.68-.53.4-2.47-1.34-1.43.78c.6,0,1,.21,1.28.38.14.07.49.23.68.5.49.5.64,1.14-.19,1.71-.72.49-1.57.58-2.33.42-.37-.06-.72-.19-1.05-.32-.28-.16-.56-.32-.75-.5-.94-.89-.23-1.46-.15-1.56l.76.41c-.11.17-.49.72.6,1.25.67.3,1.38.33,1.93,0,.92-.59.62-1.2-.07-1.56-.48-.27-.95-.33-1.48-.3"/>
      <path class="cls-33" d="M138.21,191.09l.57-.42,5.41-.59.54.28-2.78,2.14.85.46-.49.37-.85-.46-1.02.76-.71-.37,1.02-.77M143.18,190.64l-3.81.44,1.89,1.03,1.92-1.47Z"/>
      <path class="cls-33" d="M157.88,221.38c-.29.24-.16.64.25.91.39.27,1.05.47,1.77.29.41-.11,1.23-.43,1.36-.68-.3.02-.65.02-1.04-.04-.17-.04-.37-.1-.55-.19-.21-.09-.4-.2-.62-.35-.76-.55-.76-1.11-.44-1.54.09-.12.2-.21.3-.3.13-.08.27-.16.4-.25.3-.13.62-.21.91-.24.78-.04,1.27,0,2.1.42.59.33.94.74.91,1.22-.03.37-.3.81-.74,1.24-.12.1-.24.21-.37.3-.14.11-.27.21-.41.28-.3.19-.61.35-.95.49-.54.22-1.13.28-1.73.22-.46-.08-.85-.21-1.21-.35-.59-.31-.93-.6-1-.91-.09-.35.04-.65.3-.9M159.31,220.49c-.03.28.24.57.64.75.37.18.86.29,1.21.26.76,0,1.27-.49,1.28-.91,0-.27-.23-.59-.6-.79-.35-.21-.84-.32-1.36-.27-.49.08-1.1.4-1.17.96"/>
      <path class="cls-33" d="M146.78,211.01c.39.24.8.54,1.01.9.31.62-.41,1.25-1.08,1.26-.23.02-.57.02-.85,0,.17.18.23.41.21.61.06.27-.1.59-.45.84-.34.22-.91.37-1.67.3-.53-.05-1.12-.25-1.62-.54-.48-.27-.87-.64-.99-1.02-.1-.35.04-.7.32-.95.28-.24.69-.4,1.05-.42.25-.07.61-.03,1.06.06-.14-.3-.24-.5-.17-.69.15-.42.81-.85,1.83-.76.44.04.92.16,1.34.39M144.5,212.77c-.38-.21-.86-.31-1.26-.28-.28.02-.56.16-.76.3-.19.18-.3.37-.24.58,0,.16.25.4.57.66.42.19.64.28.96.32.56.06.94-.04,1.17-.23.24-.19.33-.4.3-.57-.03-.3-.34-.6-.74-.79M146.37,211.42c-.25-.16-.6-.26-.92-.28-.56-.03-.9.25-1,.46-.12.28.13.59.47.79.37.22.83.36,1.21.31.67-.06.93-.47.79-.8-.07-.14-.26-.33-.55-.48"/>
      <path class="cls-33" d="M129.2,201.49l3.95,2.17-.45.33-1.35.16c-.62.08-1.14.18-1.7.31-.86.18-2.15.6-3.21,1.16l-.77-.44c1.36-.58,1.84-.76,3.22-1.05.97-.21,1.99-.34,2.98-.52l-3.17-1.75"/>
      <path class="cls-34" d="M36.03,206.17c1.73-1.55,4.76-.45,6.74,2.45,2,2.91,2.21,6.52.49,8.06-1.73,1.54-4.75.42-6.74-2.47-2-2.91-2.22-6.5-.49-8.04"/>
      <path class="cls-9" d="M36.03,206.17c1.73-1.55,4.76-.45,6.74,2.45,2,2.91,2.21,6.52.49,8.06-1.73,1.54-4.75.42-6.74-2.47-2-2.91-2.22-6.5-.49-8.04Z"/>
      <path class="cls-34" d="M47.86,196.15c1.51-1.76,4.65-1.07,7,1.56,2.36,2.61,3.05,6.16,1.55,7.91-1.51,1.76-4.65,1.06-7-1.56s-3.06-6.16-1.55-7.91"/>
      <path class="cls-9" d="M47.86,196.15c1.51-1.76,4.65-1.07,7,1.56,2.36,2.61,3.05,6.16,1.55,7.91-1.51,1.76-4.65,1.06-7-1.56s-3.06-6.16-1.55-7.91Z"/>
      <path class="cls-34" d="M45,198.97c1.59-1.68,4.69-.83,6.91,1.87,2.25,2.72,2.77,6.3,1.19,7.99-1.59,1.68-4.69.84-6.92-1.89-2.25-2.72-2.78-6.29-1.18-7.98"/>
      <path class="cls-9" d="M45,198.97c1.59-1.68,4.69-.83,6.91,1.87,2.25,2.72,2.77,6.3,1.19,7.99-1.59,1.68-4.69.84-6.92-1.89-2.25-2.72-2.78-6.29-1.18-7.98h0Z"/>
      <path class="cls-34" d="M42.66,201.05c1.73-1.54,4.75-.43,6.73,2.47,1.99,2.89,2.21,6.51.47,8.04-1.72,1.55-4.71.44-6.73-2.45-1.99-2.91-2.21-6.51-.48-8.06"/>
      <path class="cls-9" d="M42.66,201.05c1.73-1.54,4.75-.43,6.73,2.47,1.99,2.89,2.21,6.51.47,8.04-1.72,1.55-4.71.44-6.73-2.45-1.99-2.91-2.21-6.51-.48-8.06h0Z"/>
      <path class="cls-34" d="M39.14,203.57c1.73-1.53,4.75-.44,6.73,2.47,2.01,2.91,2.24,6.52.49,8.06-1.73,1.54-4.75.42-6.73-2.47-2-2.9-2.22-6.51-.49-8.06"/>
      <path class="cls-9" d="M39.14,203.57c1.73-1.53,4.75-.44,6.73,2.47,2.01,2.91,2.24,6.52.49,8.06-1.73,1.54-4.75.42-6.73-2.47-2-2.9-2.22-6.51-.49-8.06Z"/>
      <path class="cls-34" d="M47.86,196.15c1.51-1.76,4.65-1.07,7,1.56,2.36,2.61,3.05,6.16,1.55,7.91-1.51,1.76-4.65,1.06-7-1.56s-3.06-6.16-1.55-7.91"/>
      <path class="cls-32" d="M47.86,196.15c1.51-1.76,4.65-1.07,7,1.56,2.36,2.61,3.05,6.16,1.55,7.91-1.51,1.76-4.65,1.06-7-1.56s-3.06-6.16-1.55-7.91Z"/>
      <path class="cls-34" d="M45,198.97c1.59-1.68,4.69-.83,6.91,1.87,2.25,2.72,2.77,6.3,1.19,7.99-1.59,1.68-4.69.84-6.92-1.89-2.25-2.72-2.78-6.29-1.18-7.98"/>
      <path class="cls-32" d="M45,198.97c1.59-1.68,4.69-.83,6.91,1.87,2.25,2.72,2.77,6.3,1.19,7.99-1.59,1.68-4.69.84-6.92-1.89-2.25-2.72-2.78-6.29-1.18-7.98h0Z"/>
      <path class="cls-34" d="M42.66,201.05c1.73-1.54,4.75-.43,6.73,2.47,1.99,2.89,2.21,6.51.47,8.04-1.72,1.55-4.71.44-6.73-2.45-1.99-2.91-2.21-6.51-.48-8.06"/>
      <path class="cls-32" d="M42.66,201.05c1.73-1.54,4.75-.43,6.73,2.47,1.99,2.89,2.21,6.51.47,8.04-1.72,1.55-4.71.44-6.73-2.45-1.99-2.91-2.21-6.51-.48-8.06h0Z"/>
      <path class="cls-34" d="M39.14,203.57c1.73-1.53,4.75-.44,6.73,2.47,2.01,2.91,2.24,6.52.49,8.06-1.73,1.54-4.75.42-6.73-2.47-2-2.9-2.22-6.51-.49-8.06"/>
      <path class="cls-32" d="M39.14,203.57c1.73-1.53,4.75-.44,6.73,2.47,2.01,2.91,2.24,6.52.49,8.06-1.73,1.54-4.75.42-6.73-2.47-2-2.9-2.22-6.51-.49-8.06Z"/>
      <path class="cls-34" d="M32.62,209.42c1.73-1.54,4.75-.43,6.74,2.46,2,2.9,2.21,6.51.47,8.06-1.72,1.54-4.72.44-6.72-2.46-2-2.91-2.22-6.52-.49-8.06"/>
      <path class="cls-9" d="M32.62,209.42c1.73-1.54,4.75-.43,6.74,2.46,2,2.9,2.21,6.51.47,8.06-1.72,1.54-4.72.44-6.72-2.46-2-2.91-2.22-6.52-.49-8.06Z"/>
      <path class="cls-34" d="M29.36,212.43c1.75-1.54,4.75-.43,6.74,2.47s2.22,6.52.49,8.06-4.73.42-6.73-2.47c-1.99-2.91-2.22-6.52-.5-8.06"/>
      <path class="cls-9" d="M29.36,212.43c1.75-1.54,4.75-.43,6.74,2.47s2.22,6.52.49,8.06-4.73.42-6.73-2.47c-1.99-2.91-2.22-6.52-.5-8.06Z"/>
      <path class="cls-34" d="M26.51,215.42c1.74-1.54,4.75-.44,6.74,2.47,1.99,2.89,2.22,6.52.48,8.06-1.72,1.54-4.74.43-6.73-2.47-1.99-2.91-2.21-6.51-.49-8.06"/>
      <path class="cls-9" d="M26.51,215.42c1.74-1.54,4.75-.44,6.74,2.47,1.99,2.89,2.22,6.52.48,8.06-1.72,1.54-4.74.43-6.73-2.47-1.99-2.91-2.21-6.51-.49-8.06Z"/>
      <path class="cls-34" d="M23.16,218.11c1.73-1.54,4.76-.43,6.76,2.48,1.98,2.89,2.2,6.49.47,8.03-1.72,1.56-4.73.44-6.73-2.45-1.99-2.91-2.21-6.52-.49-8.06"/>
      <path class="cls-9" d="M23.16,218.11c1.73-1.54,4.76-.43,6.76,2.48,1.98,2.89,2.2,6.49.47,8.03-1.72,1.56-4.73.44-6.73-2.45-1.99-2.91-2.21-6.52-.49-8.06h0Z"/>
      <path class="cls-34" d="M19.25,221.34c1.55-1.68,4.6-.88,6.8,1.77,2.24,2.63,2.78,6.13,1.25,7.8s-4.58.88-6.81-1.77c-2.22-2.65-2.78-6.14-1.24-7.81"/>
      <path class="cls-9" d="M19.25,221.34c1.55-1.68,4.6-.88,6.8,1.77,2.24,2.63,2.78,6.13,1.25,7.8s-4.58.88-6.81-1.77c-2.22-2.65-2.78-6.14-1.24-7.81h0Z"/>
      <path class="cls-34" d="M15.25,224.65c1.39-1.78,4.75-1.26,7.19,1.18,2.43,2.44,3.04,5.88,1.65,7.68-1.38,1.79-4.73,1.43-7.15-1.02-2.44-2.43-3.06-6.04-1.68-7.84"/>
      <path class="cls-9" d="M15.25,224.65c1.39-1.78,4.75-1.26,7.19,1.18,2.43,2.44,3.04,5.88,1.65,7.68-1.38,1.79-4.73,1.43-7.15-1.02-2.44-2.43-3.06-6.04-1.68-7.84h0Z"/>
      <path class="cls-34" d="M11.87,228.07c1.31-1.84,4.65-1.55,7.22.76,2.58,2.28,3.38,5.7,2.1,7.57-1.26,1.87-4.88,1.79-7.46-.5-2.58-2.29-3.54-5.47-1.85-7.83"/>
      <path class="cls-9" d="M11.87,228.07c1.31-1.84,4.65-1.55,7.22.76,2.58,2.28,3.38,5.7,2.1,7.57-1.26,1.87-4.88,1.79-7.46-.5-2.58-2.29-3.54-5.47-1.85-7.83h0Z"/>
      <path class="cls-34" d="M7.47,234.49c.39-2.75,3.92-3.83,7.26-2.98,3.34.87,5.62,3.53,5.33,5.78-.28,2.25-3.76,4.17-7.09,3.3-3.35-.86-5.96-2.68-5.5-6.1"/>
      <path class="cls-9" d="M7.47,234.49c.39-2.75,3.92-3.83,7.26-2.98,3.34.87,5.62,3.53,5.33,5.78-.28,2.25-3.76,4.17-7.09,3.3-3.35-.86-5.96-2.68-5.5-6.1Z"/>
      <path class="cls-34" d="M6.1,240.88c-.13-2.78,3.37-5,6.83-4.75,3.44.25,6.08,2.7,6.22,4.94.11,2.27-3.18,5.06-6.63,4.8-3.45-.25-6.27-1.58-6.41-5"/>
      <path class="cls-9" d="M6.1,240.88c-.13-2.78,3.37-5,6.83-4.75,3.44.25,6.08,2.7,6.22,4.94.11,2.27-3.18,5.06-6.63,4.8-3.45-.25-6.27-1.58-6.41-5h0Z"/>
      <path class="cls-34" d="M6.96,246.1c-.73-2.69,1.88-6.02,5.29-6.52,3.41-.49,6.9,1.21,7.48,3.91.47,2.22-2.02,5.6-5.42,6.12-3.41.49-6.45-.19-7.35-3.51"/>
      <path class="cls-9" d="M6.96,246.1c-.73-2.69,1.88-6.02,5.29-6.52,3.41-.49,6.9,1.21,7.48,3.91.47,2.22-2.02,5.6-5.42,6.12-3.41.49-6.45-.19-7.35-3.51h0Z"/>
      <path class="cls-34" d="M9.56,251.82c-1.36-2.57.5-6.58,3.88-7.91,3.37-1.32,7.62-.49,8.82,2.14,1.01,2.16-.97,6.3-4.34,7.63-3.38,1.32-6.67,1.34-8.35-1.85"/>
      <path class="cls-9" d="M9.56,251.82c-1.36-2.57.5-6.58,3.88-7.91,3.37-1.32,7.62-.49,8.82,2.14,1.01,2.16-.97,6.3-4.34,7.63-3.38,1.32-6.67,1.34-8.35-1.85Z"/>
      <path class="cls-34" d="M14.13,256.59c-1.92-2.19-1.46-7.09,1.51-9.14,2.97-2.07,7.72-1.92,9.49.34,1.47,1.87.5,6.36-2.47,8.42-2.98,2.06-6.17,3.08-8.54.37"/>
      <path class="cls-9" d="M14.13,256.59c-1.92-2.19-1.46-7.09,1.51-9.14,2.97-2.07,7.72-1.92,9.49.34,1.47,1.87.5,6.36-2.47,8.42-2.98,2.06-6.17,3.08-8.54.37h0Z"/>
      <path class="cls-34" d="M19.79,259.91c-2.3-1.79-2.76-6.69-.21-9.28,2.54-2.57,7.22-3.3,9.41-1.39,1.78,1.58,1.67,6.17-.88,8.73-2.55,2.58-5.47,4.17-8.32,1.94"/>
      <path class="cls-9" d="M19.79,259.91c-2.3-1.79-2.76-6.69-.21-9.28,2.54-2.57,7.22-3.3,9.41-1.39,1.78,1.58,1.67,6.17-.88,8.73-2.55,2.58-5.47,4.17-8.32,1.94h0Z"/>
      <path class="cls-34" d="M28.03,262.83c-2.89-.45-4.12-4.64-3.16-8.13.98-3.49,3.97-6.1,6.37-5.7,2.36.4,4.47,4.56,3.51,8.06-.98,3.49-3.16,6.32-6.73,5.77"/>
      <path class="cls-9" d="M28.03,262.83c-2.89-.45-4.12-4.64-3.16-8.13.98-3.49,3.97-6.1,6.37-5.7,2.36.4,4.47,4.56,3.51,8.06-.98,3.49-3.16,6.32-6.73,5.77h0Z"/>
      <path class="cls-34" d="M35.38,263.08c-2.91-.15-4.58-4.17-3.99-7.76.6-3.57,3.61-6.73,6.05-6.59,2.38.13,4.41,3.98,3.84,7.56-.6,3.58-2.29,6.94-5.9,6.79"/>
      <path class="cls-9" d="M35.38,263.08c-2.91-.15-4.58-4.17-3.99-7.76.6-3.57,3.61-6.73,6.05-6.59,2.38.13,4.41,3.98,3.84,7.56-.6,3.58-2.29,6.94-5.9,6.79Z"/>
      <path class="cls-34" d="M43.87,262.35c-2.86.6-4.92-2.91-5.27-6.52-.33-3.61.9-7.39,3.28-7.96,2.63-.61,4.43,2.05,4.78,5.65.33,3.61.74,8.08-2.78,8.84"/>
      <path class="cls-9" d="M43.87,262.35c-2.86.6-4.92-2.91-5.27-6.52-.33-3.61.9-7.39,3.28-7.96,2.63-.61,4.43,2.05,4.78,5.65.33,3.61.74,8.08-2.78,8.84Z"/>
      <path class="cls-34" d="M51.24,259.24c-2.67,1.18-5.42-2.17-6.47-5.63-1.07-3.47-.79-7.62,1.31-8.86,2.72-1.59,4.44.35,5.77,4.64,1.07,3.46,2.71,8.42-.6,9.86"/>
      <path class="cls-9" d="M51.24,259.24c-2.67,1.18-5.42-2.17-6.47-5.63-1.07-3.47-.79-7.62,1.31-8.86,2.72-1.59,4.44.35,5.77,4.64,1.07,3.46,2.71,8.42-.6,9.86h0Z"/>
      <path class="cls-34" d="M57.42,254.19c-2.34,1.75-5.69-1.32-7.27-4.58-1.58-3.27-1.93-7.43-.02-8.96,2.58-2.09,2.73-.52,4.25,4.54,1.64,5.47,7.21,5.85,3.04,9"/>
      <path class="cls-9" d="M57.42,254.19c-2.34,1.75-5.69-1.32-7.27-4.58-1.58-3.27-1.93-7.43-.02-8.96,2.58-2.09,2.73-.52,4.25,4.54,1.64,5.47,7.21,5.85,3.04,9Z"/>
      <path class="cls-34" d="M62.27,248.58c-1.99,2.13-5.41-.48-7.53-3.43-2.12-2.93-3.79-6.95-2.17-8.79,2.19-2.51,3.1-1.25,5.47,3.48,2.55,5.07,7.81,4.93,4.23,8.74"/>
      <path class="cls-9" d="M62.27,248.58c-1.99,2.13-5.41-.48-7.53-3.43-2.12-2.93-3.79-6.95-2.17-8.79,2.19-2.51,3.1-1.25,5.47,3.48,2.55,5.07,7.81,4.93,4.23,8.74Z"/>
      <path class="cls-34" d="M66.05,241.92c-1.32,2.92-5.33.72-7.89-1.84-2.78-2.78-5.47-4.63-3.64-8.67,1.37-3.03,2.84-1.73,5.95,2.56,3.33,4.61,8.21,2.17,5.58,7.96"/>
      <path class="cls-9" d="M66.05,241.92c-1.32,2.92-5.33.72-7.89-1.84-2.78-2.78-5.47-4.63-3.64-8.67,1.37-3.03,2.84-1.73,5.95,2.56,3.33,4.61,8.21,2.17,5.58,7.96h0Z"/>
      <path class="cls-34" d="M68.75,235.77c-.98,3.06-4.81,1.27-7.64-.98-3.06-2.45-6.46-3.98-5.07-8.2,1.03-3.17,2.16-1.72,6.19,1.73,3.96,3.36,8.35,1.79,6.52,7.44"/>
      <path class="cls-9" d="M68.75,235.77c-.98,3.06-4.81,1.27-7.64-.98-3.06-2.45-6.46-3.98-5.07-8.2,1.03-3.17,2.16-1.72,6.19,1.73,3.96,3.36,8.35,1.79,6.52,7.44h0Z"/>
      <path class="cls-34" d="M70.86,228.97c-.91,3.08-4.38,2.03-7.53.26-3.42-1.9-6.56-2.49-6.34-7.24.14-3.2,1.81-.63,6.36,2.07,4.48,2.68,8.95-.03,7.51,4.9"/>
      <path class="cls-9" d="M70.86,228.97c-.91,3.08-4.38,2.03-7.53.26-3.42-1.9-6.56-2.49-6.34-7.24.14-3.2,1.81-.63,6.36,2.07,4.48,2.68,8.95-.03,7.51,4.9Z"/>
      <path class="cls-34" d="M62.96,208.2c-2.21,2.7-3.72,5.77-3.2,9.1.76-1.77,8.14-2.54,10.2-.4,6.25,8.07-9.25,9.99-12.02,4.18-2.28-5.56-.49-12.4,3.3-16.11"/>
      <path class="cls-9" d="M62.96,208.2c-2.21,2.7-3.72,5.77-3.2,9.1.76-1.77,8.14-2.54,10.2-.4,6.25,8.07-9.25,9.99-12.02,4.18-2.28-5.56-.49-12.4,3.3-16.11"/>
      <path class="cls-34" d="M172.82,136.84c3.33-2.77,17.12-12.04,21.81-14.51,1.49-4.17,4.2-11.75-3.11-17.24-11.47-6.96-21.38-6.99-29.55-5.35-36.24,7.5-89.1,53.55-108.8,85.07-4.64,7.41-3.84,17.45,3.06,21.79,6.92,4.33,14.66,8.62,17.51,9.83,4.01,1.83,7.96,1.99,11.77-1.94,4.2-4.36,18.21-17.83,22.51-21.62,2.02-15.38,31.71-47.17,55.29-58.77,3.08-1.45,6.24-.33,6.32,1.72.07,1.57,2.13,1.9,3.18,1.03"/>
      <path class="cls-19" d="M172.82,136.84c3.33-2.77,17.12-12.04,21.81-14.51,1.49-4.17,4.2-11.75-3.11-17.24-11.47-6.96-21.38-6.99-29.55-5.35-36.24,7.5-89.1,53.55-108.8,85.07-4.64,7.41-3.84,17.45,3.06,21.79,6.92,4.33,14.66,8.62,17.51,9.83,4.01,1.83,7.96,1.99,11.77-1.94,4.2-4.36,18.21-17.83,22.51-21.62,2.02-15.38,31.71-47.17,55.29-58.77,3.08-1.45,6.24-.33,6.32,1.72.07,1.57,2.13,1.9,3.18,1.03h0Z"/>
      <path class="cls-34" d="M36.03,206.17c1.73-1.55,4.76-.45,6.74,2.45,2,2.91,2.21,6.52.49,8.06-1.73,1.54-4.75.42-6.74-2.47-2-2.91-2.22-6.5-.49-8.04"/>
      <path class="cls-32" d="M36.03,206.17c1.73-1.55,4.76-.45,6.74,2.45,2,2.91,2.21,6.52.49,8.06-1.73,1.54-4.75.42-6.74-2.47-2-2.91-2.22-6.5-.49-8.04Z"/>
      <path class="cls-34" d="M32.62,209.42c1.73-1.54,4.75-.43,6.74,2.46,2,2.9,2.21,6.51.47,8.06-1.72,1.54-4.72.44-6.72-2.46-2-2.91-2.22-6.52-.49-8.06"/>
      <path class="cls-32" d="M32.62,209.42c1.73-1.54,4.75-.43,6.74,2.46,2,2.9,2.21,6.51.47,8.06-1.72,1.54-4.72.44-6.72-2.46-2-2.91-2.22-6.52-.49-8.06Z"/>
      <path class="cls-34" d="M29.36,212.43c1.75-1.54,4.75-.43,6.74,2.47s2.22,6.52.49,8.06-4.73.42-6.73-2.47c-1.99-2.91-2.22-6.52-.5-8.06"/>
      <path class="cls-32" d="M29.36,212.43c1.75-1.54,4.75-.43,6.74,2.47s2.22,6.52.49,8.06-4.73.42-6.73-2.47c-1.99-2.91-2.22-6.52-.5-8.06Z"/>
      <path class="cls-34" d="M26.51,215.42c1.74-1.54,4.75-.44,6.74,2.47,1.99,2.89,2.22,6.52.48,8.06-1.72,1.54-4.74.43-6.73-2.47-1.99-2.91-2.21-6.51-.49-8.06"/>
      <path class="cls-32" d="M26.51,215.42c1.74-1.54,4.75-.44,6.74,2.47,1.99,2.89,2.22,6.52.48,8.06-1.72,1.54-4.74.43-6.73-2.47-1.99-2.91-2.21-6.51-.49-8.06Z"/>
      <path class="cls-34" d="M23.16,218.11c1.73-1.54,4.76-.43,6.76,2.48,1.98,2.89,2.2,6.49.47,8.03-1.72,1.56-4.73.44-6.73-2.45-1.99-2.91-2.21-6.52-.49-8.06"/>
      <path class="cls-32" d="M23.16,218.11c1.73-1.54,4.76-.43,6.76,2.48,1.98,2.89,2.2,6.49.47,8.03-1.72,1.56-4.73.44-6.73-2.45-1.99-2.91-2.21-6.52-.49-8.06h0Z"/>
      <path class="cls-34" d="M19.25,221.34c1.55-1.68,4.6-.88,6.8,1.77,2.24,2.63,2.78,6.13,1.25,7.8s-4.58.88-6.81-1.77c-2.22-2.65-2.78-6.14-1.24-7.81"/>
      <path class="cls-32" d="M19.25,221.34c1.55-1.68,4.6-.88,6.8,1.77,2.24,2.63,2.78,6.13,1.25,7.8s-4.58.88-6.81-1.77c-2.22-2.65-2.78-6.14-1.24-7.81h0Z"/>
      <path class="cls-34" d="M15.25,224.65c1.39-1.78,4.75-1.26,7.19,1.18,2.43,2.44,3.04,5.88,1.65,7.68-1.38,1.79-4.73,1.43-7.15-1.02-2.44-2.43-3.06-6.04-1.68-7.84"/>
      <path class="cls-32" d="M15.25,224.65c1.39-1.78,4.75-1.26,7.19,1.18,2.43,2.44,3.04,5.88,1.65,7.68-1.38,1.79-4.73,1.43-7.15-1.02-2.44-2.43-3.06-6.04-1.68-7.84h0Z"/>
      <path class="cls-34" d="M11.87,228.07c1.31-1.84,4.65-1.55,7.22.76,2.58,2.28,3.38,5.7,2.1,7.57-1.26,1.87-4.88,1.79-7.46-.5-2.58-2.29-3.54-5.47-1.85-7.83"/>
      <path class="cls-32" d="M11.87,228.07c1.31-1.84,4.65-1.55,7.22.76,2.58,2.28,3.38,5.7,2.1,7.57-1.26,1.87-4.88,1.79-7.46-.5-2.58-2.29-3.54-5.47-1.85-7.83h0Z"/>
      <path class="cls-34" d="M7.47,234.49c.39-2.75,3.92-3.83,7.26-2.98,3.34.87,5.62,3.53,5.33,5.78-.28,2.25-3.76,4.17-7.09,3.3-3.35-.86-5.96-2.68-5.5-6.1"/>
      <path class="cls-32" d="M7.47,234.49c.39-2.75,3.92-3.83,7.26-2.98,3.34.87,5.62,3.53,5.33,5.78-.28,2.25-3.76,4.17-7.09,3.3-3.35-.86-5.96-2.68-5.5-6.1Z"/>
      <path class="cls-34" d="M6.1,240.88c-.13-2.78,3.37-5,6.83-4.75,3.44.25,6.08,2.7,6.22,4.94.11,2.27-3.18,5.06-6.63,4.8-3.45-.25-6.27-1.58-6.41-5"/>
      <path class="cls-32" d="M6.1,240.88c-.13-2.78,3.37-5,6.83-4.75,3.44.25,6.08,2.7,6.22,4.94.11,2.27-3.18,5.06-6.63,4.8-3.45-.25-6.27-1.58-6.41-5h0Z"/>
      <path class="cls-34" d="M6.96,246.1c-.73-2.69,1.88-6.02,5.29-6.52,3.41-.49,6.9,1.21,7.48,3.91.47,2.22-2.02,5.6-5.42,6.12-3.41.49-6.45-.19-7.35-3.51"/>
      <path class="cls-32" d="M6.96,246.1c-.73-2.69,1.88-6.02,5.29-6.52,3.41-.49,6.9,1.21,7.48,3.91.47,2.22-2.02,5.6-5.42,6.12-3.41.49-6.45-.19-7.35-3.51h0Z"/>
      <path class="cls-34" d="M9.56,251.82c-1.36-2.57.5-6.58,3.88-7.91,3.37-1.32,7.62-.49,8.82,2.14,1.01,2.16-.97,6.3-4.34,7.63-3.38,1.32-6.67,1.34-8.35-1.85"/>
      <path class="cls-32" d="M9.56,251.82c-1.36-2.57.5-6.58,3.88-7.91,3.37-1.32,7.62-.49,8.82,2.14,1.01,2.16-.97,6.3-4.34,7.63-3.38,1.32-6.67,1.34-8.35-1.85Z"/>
      <path class="cls-34" d="M14.13,256.59c-1.92-2.19-1.46-7.09,1.51-9.14,2.97-2.07,7.72-1.92,9.49.34,1.47,1.87.5,6.36-2.47,8.42-2.98,2.06-6.17,3.08-8.54.37"/>
      <path class="cls-32" d="M14.13,256.59c-1.92-2.19-1.46-7.09,1.51-9.14,2.97-2.07,7.72-1.92,9.49.34,1.47,1.87.5,6.36-2.47,8.42-2.98,2.06-6.17,3.08-8.54.37h0Z"/>
      <path class="cls-34" d="M19.79,259.91c-2.3-1.79-2.76-6.69-.21-9.28,2.54-2.57,7.22-3.3,9.41-1.39,1.78,1.58,1.67,6.17-.88,8.73-2.55,2.58-5.47,4.17-8.32,1.94"/>
      <path class="cls-32" d="M19.79,259.91c-2.3-1.79-2.76-6.69-.21-9.28,2.54-2.57,7.22-3.3,9.41-1.39,1.78,1.58,1.67,6.17-.88,8.73-2.55,2.58-5.47,4.17-8.32,1.94h0Z"/>
      <path class="cls-34" d="M28.03,262.83c-2.89-.45-4.12-4.64-3.16-8.13.98-3.49,3.97-6.1,6.37-5.7,2.36.4,4.47,4.56,3.51,8.06-.98,3.49-3.16,6.32-6.73,5.77"/>
      <path class="cls-32" d="M28.03,262.83c-2.89-.45-4.12-4.64-3.16-8.13.98-3.49,3.97-6.1,6.37-5.7,2.36.4,4.47,4.56,3.51,8.06-.98,3.49-3.16,6.32-6.73,5.77h0Z"/>
      <path class="cls-34" d="M35.38,263.08c-2.91-.15-4.58-4.17-3.99-7.76.6-3.57,3.61-6.73,6.05-6.59,2.38.13,4.41,3.98,3.84,7.56-.6,3.58-2.29,6.94-5.9,6.79"/>
      <path class="cls-32" d="M35.38,263.08c-2.91-.15-4.58-4.17-3.99-7.76.6-3.57,3.61-6.73,6.05-6.59,2.38.13,4.41,3.98,3.84,7.56-.6,3.58-2.29,6.94-5.9,6.79Z"/>
      <path class="cls-34" d="M43.87,262.35c-2.86.6-4.92-2.91-5.27-6.52-.33-3.61.9-7.39,3.28-7.96,2.63-.61,4.43,2.05,4.78,5.65.33,3.61.74,8.08-2.78,8.84"/>
      <path class="cls-32" d="M43.87,262.35c-2.86.6-4.92-2.91-5.27-6.52-.33-3.61.9-7.39,3.28-7.96,2.63-.61,4.43,2.05,4.78,5.65.33,3.61.74,8.08-2.78,8.84Z"/>
      <path class="cls-34" d="M51.24,259.24c-2.67,1.18-5.42-2.17-6.47-5.63-1.07-3.47-.79-7.62,1.31-8.86,2.72-1.59,4.44.35,5.77,4.64,1.07,3.46,2.71,8.42-.6,9.86"/>
      <path class="cls-32" d="M51.24,259.24c-2.67,1.18-5.42-2.17-6.47-5.63-1.07-3.47-.79-7.62,1.31-8.86,2.72-1.59,4.44.35,5.77,4.64,1.07,3.46,2.71,8.42-.6,9.86h0Z"/>
      <path class="cls-34" d="M57.42,254.19c-2.34,1.75-5.69-1.32-7.27-4.58-1.58-3.27-1.93-7.43-.02-8.96,2.58-2.09,2.73-.52,4.25,4.54,1.64,5.47,7.21,5.85,3.04,9"/>
      <path class="cls-32" d="M57.42,254.19c-2.34,1.75-5.69-1.32-7.27-4.58-1.58-3.27-1.93-7.43-.02-8.96,2.58-2.09,2.73-.52,4.25,4.54,1.64,5.47,7.21,5.85,3.04,9Z"/>
      <path class="cls-34" d="M62.27,248.58c-1.99,2.13-5.41-.48-7.53-3.43-2.12-2.93-3.79-6.95-2.17-8.79,2.19-2.51,3.1-1.25,5.47,3.48,2.55,5.07,7.81,4.93,4.23,8.74"/>
      <path class="cls-32" d="M62.27,248.58c-1.99,2.13-5.41-.48-7.53-3.43-2.12-2.93-3.79-6.95-2.17-8.79,2.19-2.51,3.1-1.25,5.47,3.48,2.55,5.07,7.81,4.93,4.23,8.74Z"/>
      <path class="cls-34" d="M66.05,241.92c-1.32,2.92-5.33.72-7.89-1.84-2.78-2.78-5.47-4.63-3.64-8.67,1.37-3.03,2.84-1.73,5.95,2.56,3.33,4.61,8.21,2.17,5.58,7.96"/>
      <path class="cls-32" d="M66.05,241.92c-1.32,2.92-5.33.72-7.89-1.84-2.78-2.78-5.47-4.63-3.64-8.67,1.37-3.03,2.84-1.73,5.95,2.56,3.33,4.61,8.21,2.17,5.58,7.96h0Z"/>
      <path class="cls-34" d="M68.75,235.77c-.98,3.06-4.81,1.27-7.64-.98-3.06-2.45-6.46-3.98-5.07-8.2,1.03-3.17,2.16-1.72,6.19,1.73,3.96,3.36,8.35,1.79,6.52,7.44"/>
      <path class="cls-32" d="M68.75,235.77c-.98,3.06-4.81,1.27-7.64-.98-3.06-2.45-6.46-3.98-5.07-8.2,1.03-3.17,2.16-1.72,6.19,1.73,3.96,3.36,8.35,1.79,6.52,7.44h0Z"/>
      <path class="cls-34" d="M70.86,228.97c-.91,3.08-4.38,2.03-7.53.26-3.42-1.9-6.56-2.49-6.34-7.24.14-3.2,1.81-.63,6.36,2.07,4.48,2.68,8.95-.03,7.51,4.9"/>
      <path class="cls-32" d="M70.86,228.97c-.91,3.08-4.38,2.03-7.53.26-3.42-1.9-6.56-2.49-6.34-7.24.14-3.2,1.81-.63,6.36,2.07,4.48,2.68,8.95-.03,7.51,4.9Z"/>
      <path class="cls-32" d="M50.43,191.8c-.16,2.4.31,7.19,4.65,10.46"/>
      <path class="cls-5" d="M63.36,207.7c4.87,3.32,16.33,1.38,21.96-5.76,28.54-36.16,75.5-77.15,106.62-89.22"/>
      <path class="cls-34" d="M55.51,201.3c-.3-.19-.55-.1-.55.21l.14,3.64c.02.31.27.72.6.91l6.95,4.25"/>
      <path class="cls-32" d="M55.51,201.3c-.3-.19-.55-.1-.55.21l.14,3.64c.02.31.27.72.6.91l6.95,4.25"/>
      <path class="cls-34" d="M62.65,210.31c.32.19.56.09.54-.22l-.13-3.64c0-.3-.28-.72-.59-.91l-6.97-4.25"/>
      <path class="cls-15" d="M62.65,210.31c.32.19.56.09.54-.22l-.13-3.64c0-.3-.28-.72-.59-.91l-6.97-4.25"/>
      <path class="cls-32" d="M53.07,256.28c-1.71-.64-3.18-2.98-3.76-5.33-.36-1.39-.48-2.91-.34-4.28"/>
      <path class="cls-32" d="M46.08,259.74c-1.45-.75-2.45-2.88-2.66-5.06-.15-1.69.11-3.41.72-4.66"/>
      <path class="cls-32" d="M39.61,260.36c-2.5,1.85-3.84-2.53-3.37-5.44.54-3.23,1.96-4.69,2.47-3.72"/>
      <path class="cls-32" d="M32.14,261.51c-1.61,1.13-3.13-3.11-2.35-5.95.53-1.87,2.17-5.07,3.15-4.19"/>
      <path class="cls-32" d="M24.83,260.29c-3.23.55-2.88-4.34-.86-7.35,1.2-1.77,2.87-3.09,3.96-2.93"/>
      <path class="cls-32" d="M16.99,256.17c-.9-1.27.3-4.36,2.22-6,1.34-1.14,2.72-1.77,3.47-1.52"/>
      <path class="cls-32" d="M12.82,253.27c-1.41-2.06-.04-5.68,3.34-6.99,1.46-.57,3.49-1.08,4.58-.53"/>
      <path class="cls-32" d="M9.18,248.48c-.95-2.84,1.01-5.16,4.42-5.68,1.36-.19,3.49.03,4.27.45"/>
      <path class="cls-32" d="M8.57,237.09c.2-2.89,6.22-2.98,7.85.13"/>
      <path class="cls-32" d="M12.28,231.19c.73-2.34,5-.14,5.3,1.77"/>
      <path class="cls-32" d="M7.7,242.48c.23-2.58,5.08-4.41,7.77-2.68"/>
      <path class="cls-34" d="M62.96,208.2c-2.21,2.7-3.72,5.77-3.2,9.1.76-1.77,8.14-2.54,10.2-.4,6.25,8.07-9.25,9.99-12.02,4.18-2.28-5.56-.49-12.4,3.3-16.11"/>
      <path class="cls-27" d="M62.96,208.2c-2.21,2.7-3.72,5.77-3.2,9.1.76-1.77,8.14-2.54,10.2-.4,6.25,8.07-9.25,9.99-12.02,4.18-2.28-5.56-.49-12.4,3.3-16.11"/>
      <path class="cls-27" d="M60.28,219.02c.03.83,2.07,1.41,4.59,1.32,2.5-.09,4.51-.85,4.46-1.7"/>
      <path class="cls-32" d="M57.48,202.56l-1.64,2.46c-.16.25-.19.75-.06,1.08"/>
      <path class="cls-18" d="M218.62,181.02v-1.18c0-1.01-.72-2.11-1.74-2.77-2.8-2.11-16.69-9.15-21.58-10.56-.67-.18-1.88-.38-2.66-.38-3.14,0-5.66,1.64-5.66,3.67v1.19"/>
      <path class="cls-28" d="M208.52,172.44c-3.13,0-9,1.43-11.49,4.6"/>
      <path class="cls-28" d="M205.25,171.04c-3.39-.67-9.23.96-11.73,4.14"/>
      <path class="cls-6" d="M216.31,158.71c0,1.17-1.77,2.13-4,2.14-2.19,0-3.97-.93-3.98-2.12"/>
      <path class="cls-13" d="M208.32,158.73l.04-1.31c-.02-1.18,1.77-2.14,4-2.14s3.99.93,3.99,2.11l-.04,1.32"/>
      <path class="cls-6" d="M200.89,151.7c0,1.17-1.79,2.13-3.99,2.14-2.21,0-4-.95-4-2.12"/>
      <path class="cls-13" d="M192.9,151.72l.03-1.32c0-1.17,1.78-2.13,3.98-2.13s4,.94,4.02,2.11l-.03,1.32"/>
      <path class="cls-6" d="M185.49,144.68c0,1.17-1.79,2.14-4,2.15-2.21.02-4-.93-4-2.12"/>
      <path class="cls-13" d="M177.48,144.72l.04-1.32c0-1.17,1.77-2.13,4-2.14,2.2,0,4,.95,4,2.11l-.03,1.32"/>
      <path class="cls-13" d="M197.55,136.81c-.37-1.11-.27-2.27.27-2.78.61-.6,1.61-.93,2.33-.6l-5.51-2.45c-.74-.32-1.82-.11-2.41.47-.57.53-.76,1.84-.13,2.4"/>
      <path class="cls-13" d="M212.15,143.09c-.38-.87-.16-2.25.39-2.78.6-.59,1.66-.87,2.4-.54l-11.36-4.93c-.74-.32-1.66-.02-2.27.57-.55.54-1.13,2.02-.25,2.92"/>
      <path class="cls-13" d="M225.81,148.97c-.6-1.01-.27-2.39.27-2.93.61-.59,1.58-.86,2.3-.53l-11.85-5.04c-.72-.33-1.76-.04-2.37.55-.55.54-.86,1.32-.38,2.78"/>
      <path class="cls-13" d="M227.7,149.61c-.64-1.19-.31-2.22.24-2.74.61-.6,1.6-.86,2.35-.54l11.51,4.92c.95.59.86,1.96.13,2.57"/>
      <line class="cls-3" x1="199.58" y1="133.23" x2="230.28" y2="146.33"/>
      <path class="cls-11" d="M135.69,163.75c1.18-.13,1.17,1.91-.52,2.45-2.43.8-15.96,5.85-15.96,5.85"/>
      <path class="cls-11" d="M138.97,158.51c1.17-.12,1.17,1.92-.52,2.47-2.45.79-14.56,5.37-14.56,5.37"/>
      <path class="cls-11" d="M138.91,154.22c1.18-.13,1.18,1.9-.52,2.45-2.43.8-8.74,3.28-8.74,3.28"/>
      <path class="cls-16" d="M186.99,170.98c0,1.32.76,2.33,2.31,2.99,4.22,1.21,17.46,8.31,20.73,10.19.85.33,1.85.53,2.93.53,3.13,0,5.67-1.63,5.67-3.66"/>
      <path class="cls-5" d="M156.81,269.02c4.19-1.5,11.95-7.18,16.44-11.37,8.97-8.36,80.71-76.54,88.2-87.3"/>
      <path class="cls-32" d="M190.69,235.14c1.37-2.75,1.43-5.05.06-3.79"/>
      <path class="cls-13" d="M190.7,231.66c-.08.07-.16.14-.23.23-5.8,6.23-11.23,12.12-15.9,17.28-1.44,1.34-2.16,5.54-.51,3.44"/>
      <path class="cls-32" d="M187.79,235.02c1.35,4.53-1.36,7.89-7.5,8.03"/>
      <path class="cls-32" d="M186.53,240.87c1.11-2.25-.15-2.74-.15-2.74"/>
      <path class="cls-32" d="M226.41,198.11c1.37-2.73,1.43-5.06.07-3.77"/>
      <path class="cls-13" d="M226.43,194.62c-.08.07-.14.15-.23.24-5.79,6.22-2.35,2.31-7.02,7.45-1.44,1.34-2.15,5.55-.51,3.44"/>
      <path class="cls-32" d="M226.13,194.93c1.34,4.51-1.37,7.86-7.51,8.03"/>
      <path class="cls-32" d="M224.86,200.74c1.13-2.24-.14-2.75-.14-2.75"/>
      <path class="cls-17" d="M108.8,192.47c1.99-15.07,31.09-46.22,54.2-57.59,3-1.42,6.11-.33,6.18,1.68.1.98.76.98,1.43.85"/>
    </g>
  </g>
</svg>