<?xml version="1.0" encoding="UTF-8"?>
<svg id="_レイヤー_1" data-name="レイヤー 1" xmlns="http://www.w3.org/2000/svg" version="1.1" viewBox="0 0 283.46 283.46">
  <defs>
    <style>
      .cls-1 {
        fill: #8aba29;
      }

      .cls-1, .cls-2, .cls-3, .cls-4, .cls-5, .cls-6 {
        stroke-width: 0px;
      }

      .cls-7 {
        stroke-linecap: round;
        stroke-linejoin: round;
        stroke-width: 4.48px;
      }

      .cls-7, .cls-8 {
        fill: none;
        stroke: #221714;
      }

      .cls-2 {
        fill: #727171;
      }

      .cls-8 {
        stroke-miterlimit: 10;
        stroke-width: .18px;
      }

      .cls-3 {
        fill: #deebf3;
      }

      .cls-4 {
        fill: #221714;
      }

      .cls-5 {
        fill: #c9caca;
      }

      .cls-6 {
        fill: #e5eef5;
      }
    </style>
  </defs>
  <path class="cls-4" d="M179.45,4.39l-38.44-.05c-2.85-.33-3.32,1.28-3.32,1.28l-41.68,52.17c-1.56,1.96-2.85,7.45-2.94,12.43h-.02v196.65c0,5.14,4.21,9.34,9.34,9.34h20.62l-.04.06s10.11.58,13.68-4.67l41.66-52.13c1.62-2.04,2.96-7.9,2.96-13.04V10.72c0-3.85-.75-6.24-1.81-6.33"/>
  <path class="cls-7" d="M179.45,4.39l-38.44-.05c-2.85-.33-3.32,1.28-3.32,1.28l-41.68,52.17c-1.56,1.96-2.85,7.45-2.94,12.43h-.02v196.65c0,5.14,4.21,9.34,9.34,9.34h20.62l-.04.06s10.11.58,13.68-4.67l41.66-52.13c1.62-2.04,2.96-7.9,2.96-13.04V10.72c0-3.85-.75-6.24-1.81-6.33Z"/>
  <path class="cls-6" d="M141.08,206.43c0,5.14-1.33,11-2.96,13.04l-40.15,51.34c-1.62,2.04-4.93.86-4.93-4.26V70.83c0-5.13,1.35-11,2.97-13.03L138.12,5.09c.41-.51.8-.73,1.16-.71,1.05.09,1.8,2.48,1.8,6.34v195.7Z"/>
  <path class="cls-8" d="M141.08,206.43c0,5.14-1.33,11-2.96,13.04l-40.15,51.34c-1.62,2.04-4.93.86-4.93-4.26V70.83c0-5.13,1.35-11,2.97-13.03L138.12,5.09c.41-.51.8-.73,1.16-.71,1.05.09,1.8,2.48,1.8,6.34v195.7Z"/>
  <path class="cls-3" d="M179.45,4.39l-38.44-.05c-2.85-.33-3.32,1.28-3.32,1.28l-41.68,52.17c-1.56,1.96-2.85,7.46-2.95,12.43h-.02v196.65c0,5.14,4.21,9.34,9.34,9.34h20.62l-.03.06s8.76.47,12.83-3.74c.13-.1.26-.19.39-.36l42.11-52.7c1.62-2.04,2.96-7.9,2.96-13.04V10.72c0-3.85-.75-6.24-1.81-6.33"/>
  <path class="cls-6" d="M122.18,276.22V70.83c0-5.13,1.33-11,2.96-13.04L167.25,5.09c.41-.51.8-.73,1.15-.7h-18.23c-.65,0-1.15.7-1.15.7l-42.11,52.7c-1.56,1.96-2.86,7.45-2.95,12.43h0v205.99h18.23Z"/>
  <path class="cls-8" d="M122.18,276.22V70.83c0-5.13,1.33-11,2.96-13.04L167.25,5.09c.41-.51.8-.73,1.15-.7h-18.23c-.65,0-1.15.7-1.15.7l-42.11,52.7c-1.56,1.96-2.86,7.45-2.95,12.43h0v205.99h18.23Z"/>
  <path class="cls-4" d="M109.32,121.49c-.07.06-.19.16-.35,0-.13-.13-.13-.23,0-.36l1.2-1.2c.22-.22.38-.19.55-.02l.34.35c.21.22.25.35.26.4.04.19,0,.45-.23.68-.21.22-.48.29-.68.26-.2-.04-.39-.23-.43-.27l-.25-.25-.42.42ZM110.06,120.74l.23.24c.17.18.32.11.43,0,.13-.14.15-.27-.01-.42l-.18-.19s-.08-.03-.11.01l-.36.35Z"/>
  <path class="cls-4" d="M112.47,123.29c-.66.66-1.26.44-1.58.13-.4-.4-.45-1.02.11-1.57.71-.7,1.3-.43,1.6-.13.36.38.5.97-.13,1.58M111.37,122.19c-.09.09-.52.52-.15.9.37.37.81-.06.9-.15.09-.09.52-.52.14-.89-.36-.38-.8.05-.89.15"/>
  <path class="cls-4" d="M114.75,124.14c.15-.11.27.02.29.04.09.09.12.24.02.33-.01.02-.04.05-.08.07l-1.49,1.04c-.18.13-.35.06-.45-.03-.13-.15-.07-.34-.02-.4l.93-1.31s0-.02,0-.03c0,0-.02,0-.02,0l-1.31.93c-.14.09-.31.06-.41-.05-.1-.1-.13-.29,0-.43l1.04-1.49s.04-.05.07-.07c.11-.11.25-.09.35.03.13.12.03.27.02.28l-.84,1.11s-.03.03-.02.05c.02,0,.04,0,.06-.02l1.09-.79c.09-.06.25-.07.38.05.09.1.13.23.03.37l-.79,1.1s-.02.03,0,.04c.02.01.03,0,.05,0l1.12-.84Z"/>
  <path class="cls-4" d="M115.65,126.15c.07.07.14.17,0,.31-.09.08-.18.14-.32,0l-.55-.55-.29.28s-.03.07,0,.1l.6.61c.05.05.14.16-.01.31-.15.15-.25.08-.32.02l-.74-.75c-.19-.19-.19-.34.02-.54l1.06-1.06c.22-.21.39-.18.55-.02l.7.7c.05.05.16.17,0,.32-.12.12-.22.11-.33,0l-.55-.56s-.07-.03-.11,0l-.25.25.55.55Z"/>
  <path class="cls-4" d="M115.63,127.85c-.07.06-.19.16-.35,0-.13-.14-.12-.25,0-.36l1.21-1.2c.22-.22.38-.19.55-.02l.43.43c.17.17.26.3.27.48.02.16-.02.36-.21.52-.04.03-.28.28-.58.18.06.23-.07.38-.34.66-.03.03-.14.17-.16.19-.05.05-.15.13-.32-.03-.14-.15-.13-.27.18-.57.15-.15.18-.18.18-.27,0-.02.01-.08-.1-.19l-.3-.3-.46.47ZM116.43,127.05l.33.33c.12.13.28.13.39.02.18-.19.02-.35-.01-.38l-.29-.29s-.07-.03-.1,0l-.32.32Z"/>
  <path class="cls-4" d="M111.09,137.94s-.04.08,0,.1l.53.54c.05.07.14.18,0,.33-.16.14-.26.07-.33,0l-.67-.68c-.18-.19-.18-.35.03-.55l1.21-1.2c.06-.07.18-.17.35,0,.13.13.12.23,0,.36l-1.11,1.09Z"/>
  <path class="cls-4" d="M112.17,139.53c-.07.07-.19.17-.35,0-.13-.12-.11-.24,0-.35l1.37-1.36c.06-.07.17-.15.34,0,.13.13.13.25,0,.36l-1.36,1.35Z"/>
  <path class="cls-4" d="M113.83,140.31l.92-.91c.11-.11.21-.13.35,0,.15.15.06.28,0,.34l-1.37,1.36c-.13.14-.28.07-.42-.07-.13-.13-.13-.27-.1-.39l.63-1.44-.09.09-.92.92c-.12.11-.22.13-.35,0-.17-.17-.07-.28,0-.35l1.36-1.35c.13-.13.26-.09.42.06.14.15.14.29.09.39l-.63,1.45.09-.09Z"/>
  <path class="cls-4" d="M115.81,141.49c.07.06.13.17,0,.3-.08.07-.18.14-.31,0l-.55-.55-.29.29s-.05.07,0,.1l.6.61c.06.05.15.16,0,.31-.14.15-.25.08-.32,0l-.74-.74c-.19-.19-.19-.35.02-.56l1.05-1.04c.22-.23.38-.19.55-.02l.7.7s.15.17,0,.33c-.13.12-.23.1-.33,0l-.55-.57s-.08-.02-.11,0l-.25.26.55.56Z"/>
  <path class="cls-4" d="M108.3,150.09s-.05.07,0,.1l.53.54c.05.05.15.17,0,.32-.15.15-.26.07-.33,0l-.67-.67c-.19-.19-.19-.35.02-.55l1.21-1.21c.07-.06.19-.16.35.01.13.13.12.23,0,.35l-1.11,1.1Z"/>
  <path class="cls-4" d="M109.38,151.68c-.07.07-.19.16-.35,0-.14-.13-.12-.24,0-.35l1.36-1.36c.06-.07.18-.15.34,0,.13.14.13.23,0,.35l-1.36,1.36Z"/>
  <path class="cls-4" d="M111.03,152.46l.93-.92c.11-.11.22-.13.35,0,.16.17.07.29,0,.35l-1.36,1.35c-.14.14-.27.09-.42-.07-.13-.13-.14-.27-.09-.37l.62-1.45-.08.08-.92.92c-.12.12-.23.13-.35,0-.17-.15-.06-.28,0-.34l1.36-1.35c.13-.14.26-.1.42.06.14.14.14.29.09.38l-.62,1.45.07-.09Z"/>
  <path class="cls-4" d="M113.68,153.07c.06,0,.13,0,.19.06.09.09.08.3,0,.38-.06.06-.12.08-.2.08h-.86l-.17,1.13s-.02.1-.07.15c-.1.1-.29.1-.38,0-.06-.05-.07-.11-.07-.18l.17-1.12h-.32l-.36.36c-.07.07-.19.17-.35,0-.14-.13-.12-.25,0-.36l1.36-1.34c.07-.07.19-.17.35,0,.12.13.12.24.01.35l-.48.48h1.18Z"/>
  <path class="cls-4" d="M112.74,155.29s-.11.01-.15-.04c-.03-.03-.08-.12.01-.22.02-.02.03-.03.05-.04l2.1-.87s.12,0,.17.03c.03.04.07.14-.02.22-.02.02-.04.03-.06.03l-2.1.88Z"/>
  <path class="cls-4" d="M113.85,156.28c-.09.05-.18.07-.25,0-.08-.08-.15-.28-.05-.38,0-.01.03-.04.1-.07l1.62-.8c.21-.11.38-.11.55.06.11.12.21.27.06.55l-.81,1.61s-.03.06-.07.1c-.13.13-.34,0-.39-.06-.07-.06-.04-.16,0-.25l.15-.3-.61-.6-.3.14ZM114.58,155.92l.39.4.31-.62c.04-.07.03-.09.02-.1-.02-.02-.05-.02-.11.01l-.6.31Z"/>
  <path class="cls-4" d="M117.55,157.81c-.1.1-.22.1-.34-.02-.11-.13-.08-.2-.03-.28.03-.05.14-.26-.1-.51-.27-.26-.59-.13-.88.17-.32.31-.41.63-.16.88.25.25.43.14.5.1.12-.07.19-.11.32.02.11.11.1.24,0,.32-.18.19-.7.35-1.16-.11-.47-.47-.36-1.1.13-1.58.5-.5,1.13-.59,1.58-.12.46.46.28.99.15,1.12"/>
  <path class="cls-4" d="M117.98,158c-.05-.06-.15-.17,0-.32.15-.15.26-.07.32-.01l.94.94s.15.16,0,.31c-.14.13-.23.12-.33.01l-.3-.3-1.16,1.16c-.07.06-.19.17-.35,0-.11-.11-.15-.22,0-.36l1.17-1.16-.29-.29Z"/>
  <path class="cls-4" d="M112.65,167.62c.06.06.13.18,0,.3-.08.09-.18.15-.32.01l-.49-.5-.5.51c-.07.05-.19.16-.36,0-.1-.11-.14-.22,0-.36l1.22-1.2c.21-.23.37-.2.54-.02l.67.68s.15.16,0,.32c-.13.12-.23.11-.33,0l-.54-.54s-.07-.03-.1,0l-.3.3.5.5Z"/>
  <path class="cls-4" d="M112.48,169.19c-.09.05-.18.07-.25-.01-.08-.07-.16-.26-.06-.38.01,0,.05-.05.11-.07l1.61-.8c.22-.1.39-.11.56.06.11.12.21.27.06.55l-.82,1.62s-.03.06-.07.1c-.12.11-.32,0-.39-.05-.07-.07-.05-.18,0-.26l.15-.3-.6-.61-.31.15ZM113.22,168.83l.39.4.31-.61c.03-.09.02-.11.01-.11-.02-.01-.05-.02-.1.02l-.61.31Z"/>
  <path class="cls-4" d="M114.19,170.8c-.07.07-.19.17-.35,0-.13-.13-.11-.23,0-.35l1.36-1.36c.07-.07.19-.16.34,0,.14.14.12.24,0,.35l-1.36,1.35Z"/>
  <path class="cls-4" d="M115.12,171.24s-.04.07,0,.1l.53.54c.05.05.15.16,0,.31-.16.15-.27.08-.33,0l-.67-.67c-.18-.19-.18-.35.03-.55l1.21-1.21c.07-.07.18-.15.34,0,.14.14.14.25.01.36l-1.11,1.1Z"/>
  <path class="cls-4" d="M108.63,262.01c.02.1.06.13.1.13s.06-.03.09-.13l.78-2.66c.03-.07.1-.22.28-.22.17,0,.33.14.33.3,0,.02-.01.11-.02.16l-.91,3.07c-.09.32-.31.41-.52.41-.11,0-.46,0-.58-.41l-.9-3.07s-.02-.1-.02-.15c0-.15.15-.3.34-.3.19,0,.26.19.27.22l.78,2.66Z"/>
  <path class="cls-4" d="M112.2,259.23c1.07,0,1.45.88,1.45,1.88,0,.52-.13,1.86-1.45,1.86h-.9c-.41,0-.59-.15-.59-.64v-2.46c0-.47.18-.64.59-.64h.9ZM111.51,259.81c-.12,0-.17.08-.17.19v2.19c0,.12.05.19.17.19h.62c.71,0,.9-.76.9-1.28,0-.72-.3-1.29-.9-1.29h-.62Z"/>
  <path class="cls-4" d="M116.82,260.17c0,.19-.17.26-.3.26-.23,0-.28-.14-.31-.23-.07-.23-.15-.47-.68-.47-.09,0-.67,0-.67.43,0,.31.16.36,1.01.68.75.28,1.04.52,1.04,1.07,0,.6-.47,1.16-1.33,1.16-1.24,0-1.43-.9-1.43-1.1,0-.22.19-.28.32-.28.26,0,.3.14.34.31.08.35.44.47.74.47.35,0,.72-.13.72-.52,0-.26-.2-.36-.78-.58-.78-.26-1.27-.44-1.27-1.14,0-.46.3-1.09,1.31-1.09s1.29.7,1.29,1.04"/>
  <path class="cls-4" d="M118.18,262.2c0,.12.06.19.18.19h1.31c.1,0,.27.04.27.3,0,.22-.13.29-.27.29h-1.51c-.4,0-.59-.15-.59-.64v-2.88c0-.16.06-.31.3-.31.22,0,.31.11.31.31v2.75Z"/>
  <path class="cls-1" d="M141.35,118.32l-6.22,6.97c-2.22,2.22-5.02,2.15-5.02,2.15l-4.95.05v-5.89l4.95-.05s2.8.07,5.02-2.15l6.22-6.97v5.89Z"/>
  <path class="cls-1" d="M141.35,133.09l-6.22,6.96c-2.22,2.22-5.02,2.16-5.02,2.16l-4.95.06v-5.89l4.95-.05s2.8.08,5.02-2.14l6.22-6.97v5.88Z"/>
  <path class="cls-1" d="M141.35,148.02l-6.22,6.96c-2.22,2.22-5.02,2.16-5.02,2.16l-4.95.05v-5.88l4.95-.05s2.8.07,5.02-2.14l6.22-6.97v5.88Z"/>
  <path class="cls-2" d="M141.35,162.94l-6.22,6.97c-2.22,2.22-5.02,2.14-5.02,2.14l-4.95.05v-5.88l4.95-.06s2.8.07,5.02-2.15l6.22-6.97v5.88Z"/>
  <path class="cls-5" d="M169.48,33.71c0,.76-.2,1.62-.44,1.93l-23.59,29.52c-.25.3-.44-.07-.44-.83s.19-1.63.44-1.94l23.59-29.5c.25-.31.44.06.44.82"/>
  <path class="cls-8" d="M169.48,33.71c0,.76-.2,1.62-.44,1.93l-23.59,29.52c-.25.3-.44-.07-.44-.83s.19-1.63.44-1.94l23.59-29.5c.25-.31.44.06.44.82Z"/>
  <path class="cls-5" d="M169.48,48.3c0,.76-.2,1.62-.44,1.93l-23.59,29.53c-.25.3-.44-.08-.44-.83s.19-1.62.44-1.93l23.59-29.52c.25-.3.44.07.44.83"/>
  <path class="cls-8" d="M169.48,48.3c0,.76-.2,1.62-.44,1.93l-23.59,29.53c-.25.3-.44-.08-.44-.83s.19-1.62.44-1.93l23.59-29.52c.25-.3.44.07.44.83Z"/>
  <path class="cls-5" d="M169.48,64.05c0,.76-.2,1.63-.44,1.93l-23.59,29.53c-.25.3-.44-.07-.44-.83s.19-1.62.44-1.94l23.59-29.52c.25-.31.44.06.44.82"/>
  <path class="cls-8" d="M169.48,64.05c0,.76-.2,1.63-.44,1.93l-23.59,29.53c-.25.3-.44-.07-.44-.83s.19-1.62.44-1.94l23.59-29.52c.25-.31.44.06.44.82Z"/>
  <path class="cls-5" d="M169.48,80.78c0,.76-.2,1.63-.44,1.94l-23.59,29.52c-.25.3-.44-.07-.44-.82s.19-1.63.44-1.93l23.59-29.53c.25-.3.44.07.44.83"/>
  <path class="cls-8" d="M169.48,80.78c0,.76-.2,1.63-.44,1.94l-23.59,29.52c-.25.3-.44-.07-.44-.82s.19-1.63.44-1.93l23.59-29.53c.25-.3.44.07.44.83Z"/>
  <path class="cls-5" d="M169.48,165.97c0,.76-.2,1.62-.44,1.94l-23.59,29.52c-.25.3-.44-.06-.44-.82s.19-1.62.44-1.94l23.59-29.52c.25-.3.44.07.44.82"/>
  <path class="cls-8" d="M169.48,165.97c0,.76-.2,1.62-.44,1.94l-23.59,29.52c-.25.3-.44-.06-.44-.82s.19-1.62.44-1.94l23.59-29.52c.25-.3.44.07.44.82Z"/>
  <path class="cls-5" d="M169.48,180.56c0,.76-.2,1.62-.44,1.94l-23.59,29.52c-.25.3-.44-.06-.44-.83s.19-1.62.44-1.93l23.59-29.52c.25-.31.44.07.44.82"/>
  <path class="cls-8" d="M169.48,180.56c0,.76-.2,1.62-.44,1.94l-23.59,29.52c-.25.3-.44-.06-.44-.83s.19-1.62.44-1.93l23.59-29.52c.25-.31.44.07.44.82Z"/>
  <path class="cls-5" d="M169.48,196.31c0,.76-.2,1.62-.44,1.93l-23.59,29.53c-.25.3-.44-.07-.44-.82s.19-1.64.44-1.95l23.59-29.52c.25-.3.44.06.44.83"/>
  <path class="cls-8" d="M169.48,196.31c0,.76-.2,1.62-.44,1.93l-23.59,29.53c-.25.3-.44-.07-.44-.82s.19-1.64.44-1.95l23.59-29.52c.25-.3.44.06.44.83Z"/>
  <path class="cls-5" d="M169.48,213.04c0,.76-.2,1.62-.44,1.93l-23.59,29.52c-.25.3-.44-.06-.44-.82s.19-1.63.44-1.94l23.59-29.52c.25-.3.44.06.44.82"/>
  <path class="cls-8" d="M169.48,213.04c0,.76-.2,1.62-.44,1.93l-23.59,29.52c-.25.3-.44-.06-.44-.82s.19-1.63.44-1.94l23.59-29.52c.25-.3.44.06.44.82Z"/>
  <path class="cls-4" d="M153.9,114.41c-.21.25-.42.65-.56,1.03-.15,0-.35.1-.56.35-.91,1.16-1.73,4.92-1.73,8.67,0,4.1,1.05,5.93,2.3,4.38,1.24-1.56,2.3-6.05,2.3-10.14,0-3.75-.82-5.45-1.73-4.29M153.34,117.34c.17.11.41.78.41,1.86,0,.8-.17,1.62-.41,1.93-.25.32-.41-.11-.41-.9,0-1.09.23-2.34.41-2.88M153.34,127.06c-.95,1.19-1.73-.25-1.73-3.34,0-2.82.64-5.55,1.15-6.11-.25,1.04-.39,2.34-.39,3.4,0,1.84.46,2.55.97,1.9.51-.63.97-2.5.97-4.32,0-1.08-.15-1.99-.39-2.45.51-.7,1.16.41,1.16,3.24,0,3.09-.79,6.48-1.74,7.67"/>
  <polygon class="cls-4" points="158.12 112.38 158.12 113.81 158.37 113.49 158.37 116.11 157.7 112.91 156.91 113.9 156.91 115.32 157.17 115.01 157.17 119.37 156.91 119.68 156.91 121.11 157.95 119.82 157.95 118.39 157.7 118.7 157.7 116.08 158.37 119.28 158.9 118.62 158.9 112.83 159.16 112.51 159.16 111.08 158.12 112.38"/>
  <polygon class="cls-4" points="161.31 111.16 161.31 108.39 159.31 110.88 159.31 113.65 159.77 113.09 159.77 111.74 160.01 111.44 160.01 115.8 159.68 116.22 159.68 117.65 160.94 116.06 160.94 114.63 160.61 115.05 160.61 110.68 160.86 110.38 160.86 111.73 161.31 111.16"/>
  <polygon class="cls-4" points="163.46 108.48 163.46 105.7 161.46 108.2 161.46 110.97 161.91 110.4 161.91 109.06 162.16 108.75 162.16 113.11 161.83 113.53 161.83 114.96 163.09 113.38 163.09 111.95 162.77 112.36 162.77 108 163 107.69 163 109.05 163.46 108.48"/>
</svg>