<?xml version="1.0" encoding="UTF-8"?>
<svg id="_レイヤー_1" data-name="レイヤー 1" xmlns="http://www.w3.org/2000/svg" version="1.1" viewBox="0 0 283.46 283.46">
  <defs>
    <style>
      .cls-1 {
        stroke-width: 3.56px;
      }

      .cls-1, .cls-2, .cls-3 {
        fill: none;
        stroke: #231815;
      }

      .cls-1, .cls-3 {
        stroke-linecap: round;
        stroke-linejoin: round;
      }

      .cls-2 {
        stroke-miterlimit: 10;
      }

      .cls-2, .cls-3 {
        stroke-width: .59px;
      }

      .cls-4 {
        fill: #fff;
        stroke-width: 0px;
      }
    </style>
  </defs>
  <path class="cls-1" d="M233.56,224.23h0v-3.38s-.01,0-.01,0c0,.76-.65,1.54-2.04,2.28l-81.13,42.77c-4.82,2.55-15.08,3.74-22.9,2.47l-65-10.53c-4.79-.78-7.37-2.26-7.38-3.87h0v3.56s0,0,0,0c.03,1.6,2.61,3.08,7.38,3.85l65,10.53c7.83,1.27,18.05.39,22.87-2.16l81.19-43.01c1.51-.8,2.14-1.67,2.01-2.51Z"/>
  <path class="cls-1" d="M231.56,226.74l-81.2,43.01c-4.82,2.55-15.04,3.43-22.87,2.16l-65-10.53c-2.56-.42-4.46-1.04-5.71-1.77.65,1.28,3.06,2.4,7.15,3l63.32,10.33c7.57,1.36,18.06.5,22.84-2.03l79.93-42.4c1.22-.65,1.88-1.36,2.04-2.06-.15.09-.31.19-.49.28Z"/>
  <path class="cls-1" d="M231.56,226.74l-81.2,43.01c-4.82,2.55-15.04,3.43-22.87,2.16l-65-10.53c-2.56-.42-4.46-1.04-5.71-1.77.65,1.28,3.06,2.4,7.15,3l63.32,10.33c7.57,1.36,18.06.5,22.84-2.03l79.93-42.4c1.22-.65,1.88-1.36,2.04-2.06-.15.09-.31.19-.49.28Z"/>
  <path class="cls-1" d="M151.27,219.65h0s0,0,0,0Z"/>
  <path class="cls-1" d="M225.72,217.05l-61.85-9.19c-7.24-1.08-16.73-.2-21.19,1.97l-84.83,41.3c-5.04,2.46-2.98,5.49,4.62,6.72l65,10.53c7.83,1.27,18.08.08,22.9-2.47l81.13-42.77c4.26-2.26,1.64-4.98-5.79-6.09ZM209.53,220.97c1.72.26,2.31.89,1.31,1.41l-73.26,38.03c-1.11.58-3.48.81-5.27.53l-9.11-1.46c-1.78-.29-2.32-.99-1.2-1.56l3.27-1.67s2.5-1.23,2.5-3.37v-3.07s-27.59-4.39-27.59-4.39v2.83c0,2.35-2.44,3.55-2.44,3.55l-3.44,1.72c-1.12.56-3.44.79-5.17.51l-9.04-1.45c-1.72-.28-2.21-.96-1.08-1.51l74.17-36.6c1.02-.5,3.21-.71,4.87-.46l3.82.57,2.14-1.06,26.79,4.03v2.48s.19,2.58,2.59,1.35l2.4-1.23c1.01-.52,3.24-.73,4.95-.47l8.79,1.31Z"/>
  <path class="cls-1" d="M225.72,217.05l-61.85-9.19c-7.24-1.08-16.73-.2-21.19,1.97l-84.83,41.3c-5.04,2.46-2.98,5.49,4.62,6.72l65,10.53c7.83,1.27,18.08.08,22.9-2.47l81.13-42.77c4.26-2.26,1.64-4.98-5.79-6.09ZM209.53,220.97c1.72.26,2.31.89,1.31,1.41l-73.26,38.03c-1.11.58-3.48.81-5.27.53l-9.11-1.46c-1.78-.29-2.32-.99-1.2-1.56l3.27-1.67s2.5-1.23,2.5-3.37v-3.07s-27.59-4.39-27.59-4.39v2.83c0,2.35-2.44,3.55-2.44,3.55l-3.44,1.72c-1.12.56-3.44.79-5.17.51l-9.04-1.45c-1.72-.28-2.21-.96-1.08-1.51l74.17-36.6c1.02-.5,3.21-.71,4.87-.46l3.82.57,2.14-1.06,26.79,4.03v2.48s.19,2.58,2.59,1.35l2.4-1.23c1.01-.52,3.24-.73,4.95-.47l8.79,1.31Z"/>
  <path class="cls-1" d="M143.1,209.7l-83.71,40.78c-5,2.44-3.15,5.54,4.6,6.66l63.25,10.24c7.57,1.36,17.92.08,22.7-2.45l80.14-42.21c4.23-2.24,1.81-5.03-5.73-6.05l-60.23-8.94c-7.02-1.16-16.6-.2-21.03,1.96Z"/>
  <path class="cls-1" d="M143.1,209.7l-83.71,40.78c-5,2.44-3.15,5.54,4.6,6.66l63.25,10.24c7.57,1.36,17.92.08,22.7-2.45l80.14-42.21c4.23-2.24,1.81-5.03-5.73-6.05l-60.23-8.94c-7.02-1.16-16.6-.2-21.03,1.96Z"/>
  <line class="cls-1" x1="180.72" y1="222.98" x2="180.72" y2="230.56"/>
  <path class="cls-1" d="M136.64,244.83h-.01c0,.27-.23.55-.74.81l-8.11,4.15v3.07c0,2.15-2.51,3.37-2.51,3.37l-3.27,1.67c-1.12.58-.58,1.28,1.2,1.56l2.94.47,1.64-.85v1.11s.54.09.54.09l7.04-3.63s.02,0,.05-.03l.18-.09s-.04.02-.05.03c.06-.03.13-.07.23-.12.94-.49.89-1.44.89-1.44v-10.19Z"/>
  <path class="cls-1" d="M136.64,244.83h-.01c0,.27-.23.55-.74.81l-8.11,4.15v3.07c0,2.15-2.51,3.37-2.51,3.37l-3.27,1.67c-1.12.58-.58,1.28,1.2,1.56l2.94.47,1.64-.85v1.11s.54.09.54.09l7.04-3.63s.02,0,.05-.03l.18-.09s-.04.02-.05.03c.06-.03.13-.07.23-.12.94-.49.89-1.44.89-1.44v-10.19Z"/>
  <polygon class="cls-1" points="127.77 260.21 126.13 259.95 127.77 259.1 127.77 260.21"/>
  <path class="cls-1" d="M225.72,217.05l-61.85-9.19c-7.24-1.08-16.73-.2-21.19,1.97l-84.83,41.3c-5.04,2.46-2.98,5.49,4.62,6.72l65,10.53c7.83,1.27,18.08.08,22.9-2.47l81.13-42.77c4.26-2.26,1.64-4.98-5.79-6.09ZM209.53,220.97c1.72.26,2.31.89,1.31,1.41l-73.26,38.03c-1.11.58-3.48.81-5.27.53l-9.11-1.46c-1.78-.29-2.32-.99-1.2-1.56l3.27-1.67s2.5-1.23,2.5-3.37v-3.07s-27.59-4.39-27.59-4.39v2.83c0,2.35-2.44,3.55-2.44,3.55l-3.44,1.72c-1.12.56-3.44.79-5.17.51l-9.04-1.45c-1.72-.28-2.21-.96-1.08-1.51l74.17-36.6c1.02-.5,3.21-.71,4.87-.46l3.82.57,2.14-1.06,26.79,4.03v2.48s.19,2.58,2.59,1.35l2.4-1.23c1.01-.52,3.24-.73,4.95-.47l8.79,1.31Z"/>
  <path class="cls-1" d="M225.72,217.05l-61.85-9.19c-7.24-1.08-16.73-.2-21.19,1.97l-84.83,41.3c-5.04,2.46-2.98,5.49,4.62,6.72l65,10.53c7.83,1.27,18.08.08,22.9-2.47l81.13-42.77c4.26-2.26,1.64-4.98-5.79-6.09ZM209.53,220.97c1.72.26,2.31.89,1.31,1.41l-73.26,38.03c-1.11.58-3.48.81-5.27.53l-9.11-1.46c-1.78-.29-2.32-.99-1.2-1.56l3.27-1.67s2.5-1.23,2.5-3.37v-3.07s-27.59-4.39-27.59-4.39v2.83c0,2.35-2.44,3.55-2.44,3.55l-3.44,1.72c-1.12.56-3.44.79-5.17.51l-9.04-1.45c-1.72-.28-2.21-.96-1.08-1.51l74.17-36.6c1.02-.5,3.21-.71,4.87-.46l3.82.57,2.14-1.06,26.79,4.03v2.48s.19,2.58,2.59,1.35l2.4-1.23c1.01-.52,3.24-.73,4.95-.47l8.79,1.31Z"/>
  <path class="cls-1" d="M108.4,241.29l-8.22,4.11,27.59,4.4,8.11-4.16c1.46-.75.74-1.66-1.61-2.03l-18.96-2.99c-2.33-.36-5.43-.06-6.91.68Z"/>
  <polygon class="cls-1" points="190.8 228.07 188.68 227.75 190.8 226.66 190.8 228.07"/>
  <path class="cls-1" d="M209.53,220.97l-8.79-1.31c-1.71-.26-3.94-.04-4.95.47l-2.4,1.23c-2.4,1.23-2.59-1.35-2.59-1.35v-2.48s-7.65,3.92-7.65,3.92c-.15.08-.34.15-.53.22-.19.07-.39.12-.61.18-1.54.4-3.75.52-5.55.24l-18.59-2.82c-1.43-.22-2.24-.63-2.31-1.08h0v9.17s0,.67,1.02.83c1.02.15,21.7,3.3,21.7,3.3,2.35.36,4.78-.84,4.78-.84l7.74-3.98v1.41s2.59-1.36,2.59-1.36l2.4-1.23c1.01-.52,3.24-.44,4.95-.18l3.49.52,6.61-3.43c1-.52.41-1.16-1.31-1.41Z"/>
  <path class="cls-1" d="M209.53,220.97l-8.79-1.31c-1.71-.26-3.94-.04-4.95.47l-2.4,1.23c-2.4,1.23-2.59-1.35-2.59-1.35v-2.48s-7.65,3.92-7.65,3.92c-.15.08-.34.15-.53.22-.19.07-.39.12-.61.18-1.54.4-3.75.52-5.55.24l-18.59-2.82c-1.43-.22-2.24-.63-2.31-1.08h0v9.17s0,.67,1.02.83c1.02.15,21.7,3.3,21.7,3.3,2.35.36,4.78-.84,4.78-.84l7.74-3.98v1.41s2.59-1.36,2.59-1.36l2.4-1.23c1.01-.52,3.24-.44,4.95-.18l3.49.52,6.61-3.43c1-.52.41-1.16-1.31-1.41Z"/>
  <path class="cls-1" d="M156.26,217.37c-1.39.7-.67,1.55,1.61,1.9l18.59,2.82c2.3.35,5.31.06,6.68-.65l7.65-3.92-26.79-4.03-7.75,3.87Z"/>
  <path class="cls-1" d="M233.56,224.23h0v-3.38s-.01,0-.01,0c0,.76-.65,1.54-2.04,2.28l-81.13,42.77c-4.82,2.55-15.08,3.74-22.9,2.47l-65-10.53c-4.79-.78-7.37-2.26-7.38-3.87h0v3.56s0,0,0,0c.03,1.6,2.61,3.08,7.38,3.85l65,10.53c7.83,1.27,18.05.39,22.87-2.16l81.19-43.01c1.51-.8,2.14-1.67,2.01-2.51Z"/>
  <path class="cls-1" d="M231.56,226.74l-81.2,43.01c-4.82,2.55-15.04,3.43-22.87,2.16l-65-10.53c-2.56-.42-4.46-1.04-5.71-1.77.65,1.28,3.06,2.4,7.15,3l63.32,10.33c7.57,1.36,18.06.5,22.84-2.03l79.93-42.4c1.22-.65,1.88-1.36,2.04-2.06-.15.09-.31.19-.49.28Z"/>
  <path class="cls-1" d="M231.56,226.74l-81.2,43.01c-4.82,2.55-15.04,3.43-22.87,2.16l-65-10.53c-2.56-.42-4.46-1.04-5.71-1.77.65,1.28,3.06,2.4,7.15,3l63.32,10.33c7.57,1.36,18.06.5,22.84-2.03l79.93-42.4c1.22-.65,1.88-1.36,2.04-2.06-.15.09-.31.19-.49.28Z"/>
  <path class="cls-1" d="M151.27,219.65h0s0,0,0,0Z"/>
  <path class="cls-1" d="M225.72,217.05l-61.85-9.19c-7.24-1.08-16.73-.2-21.19,1.97l-84.83,41.3c-5.04,2.46-2.98,5.49,4.62,6.72l65,10.53c7.83,1.27,18.08.08,22.9-2.47l81.13-42.77c4.26-2.26,1.64-4.98-5.79-6.09ZM209.53,220.97c1.72.26,2.31.89,1.31,1.41l-73.26,38.03c-1.11.58-3.48.81-5.27.53l-9.11-1.46c-1.78-.29-2.32-.99-1.2-1.56l3.27-1.67s2.5-1.23,2.5-3.37v-3.07s-27.59-4.39-27.59-4.39v2.83c0,2.35-2.44,3.55-2.44,3.55l-3.44,1.72c-1.12.56-3.44.79-5.17.51l-9.04-1.45c-1.72-.28-2.21-.96-1.08-1.51l74.17-36.6c1.02-.5,3.21-.71,4.87-.46l3.82.57,2.14-1.06,26.79,4.03v2.48s.19,2.58,2.59,1.35l2.4-1.23c1.01-.52,3.24-.73,4.95-.47l8.79,1.31Z"/>
  <path class="cls-1" d="M225.72,217.05l-61.85-9.19c-7.24-1.08-16.73-.2-21.19,1.97l-84.83,41.3c-5.04,2.46-2.98,5.49,4.62,6.72l65,10.53c7.83,1.27,18.08.08,22.9-2.47l81.13-42.77c4.26-2.26,1.64-4.98-5.79-6.09ZM209.53,220.97c1.72.26,2.31.89,1.31,1.41l-73.26,38.03c-1.11.58-3.48.81-5.27.53l-9.11-1.46c-1.78-.29-2.32-.99-1.2-1.56l3.27-1.67s2.5-1.23,2.5-3.37v-3.07s-27.59-4.39-27.59-4.39v2.83c0,2.35-2.44,3.55-2.44,3.55l-3.44,1.72c-1.12.56-3.44.79-5.17.51l-9.04-1.45c-1.72-.28-2.21-.96-1.08-1.51l74.17-36.6c1.02-.5,3.21-.71,4.87-.46l3.82.57,2.14-1.06,26.79,4.03v2.48s.19,2.58,2.59,1.35l2.4-1.23c1.01-.52,3.24-.73,4.95-.47l8.79,1.31Z"/>
  <path class="cls-1" d="M143.1,209.7l-83.71,40.78c-5,2.44-3.15,5.54,4.6,6.66l63.25,10.24c7.57,1.36,17.92.08,22.7-2.45l80.14-42.21c4.23-2.24,1.81-5.03-5.73-6.05l-60.23-8.94c-7.02-1.16-16.6-.2-21.03,1.96Z"/>
  <path class="cls-1" d="M143.1,209.7l-83.71,40.78c-5,2.44-3.15,5.54,4.6,6.66l63.25,10.24c7.57,1.36,17.92.08,22.7-2.45l80.14-42.21c4.23-2.24,1.81-5.03-5.73-6.05l-60.23-8.94c-7.02-1.16-16.6-.2-21.03,1.96Z"/>
  <line class="cls-1" x1="180.72" y1="222.98" x2="180.72" y2="230.56"/>
  <path class="cls-1" d="M136.64,244.83h-.01c0,.27-.23.55-.74.81l-8.11,4.15v3.07c0,2.15-2.51,3.37-2.51,3.37l-3.27,1.67c-1.12.58-.58,1.28,1.2,1.56l2.94.47,1.64-.85v1.11s.54.09.54.09l7.04-3.63s.02,0,.05-.03l.18-.09s-.04.02-.05.03c.06-.03.13-.07.23-.12.94-.49.89-1.44.89-1.44v-10.19Z"/>
  <path class="cls-1" d="M136.64,244.83h-.01c0,.27-.23.55-.74.81l-8.11,4.15v3.07c0,2.15-2.51,3.37-2.51,3.37l-3.27,1.67c-1.12.58-.58,1.28,1.2,1.56l2.94.47,1.64-.85v1.11s.54.09.54.09l7.04-3.63s.02,0,.05-.03l.18-.09s-.04.02-.05.03c.06-.03.13-.07.23-.12.94-.49.89-1.44.89-1.44v-10.19Z"/>
  <polygon class="cls-1" points="127.77 260.21 126.13 259.95 127.77 259.1 127.77 260.21"/>
  <path class="cls-1" d="M225.72,217.05l-61.85-9.19c-7.24-1.08-16.73-.2-21.19,1.97l-84.83,41.3c-5.04,2.46-2.98,5.49,4.62,6.72l65,10.53c7.83,1.27,18.08.08,22.9-2.47l81.13-42.77c4.26-2.26,1.64-4.98-5.79-6.09ZM209.53,220.97c1.72.26,2.31.89,1.31,1.41l-73.26,38.03c-1.11.58-3.48.81-5.27.53l-9.11-1.46c-1.78-.29-2.32-.99-1.2-1.56l3.27-1.67s2.5-1.23,2.5-3.37v-3.07s-27.59-4.39-27.59-4.39v2.83c0,2.35-2.44,3.55-2.44,3.55l-3.44,1.72c-1.12.56-3.44.79-5.17.51l-9.04-1.45c-1.72-.28-2.21-.96-1.08-1.51l74.17-36.6c1.02-.5,3.21-.71,4.87-.46l3.82.57,2.14-1.06,26.79,4.03v2.48s.19,2.58,2.59,1.35l2.4-1.23c1.01-.52,3.24-.73,4.95-.47l8.79,1.31Z"/>
  <path class="cls-1" d="M225.72,217.05l-61.85-9.19c-7.24-1.08-16.73-.2-21.19,1.97l-84.83,41.3c-5.04,2.46-2.98,5.49,4.62,6.72l65,10.53c7.83,1.27,18.08.08,22.9-2.47l81.13-42.77c4.26-2.26,1.64-4.98-5.79-6.09ZM209.53,220.97c1.72.26,2.31.89,1.31,1.41l-73.26,38.03c-1.11.58-3.48.81-5.27.53l-9.11-1.46c-1.78-.29-2.32-.99-1.2-1.56l3.27-1.67s2.5-1.23,2.5-3.37v-3.07s-27.59-4.39-27.59-4.39v2.83c0,2.35-2.44,3.55-2.44,3.55l-3.44,1.72c-1.12.56-3.44.79-5.17.51l-9.04-1.45c-1.72-.28-2.21-.96-1.08-1.51l74.17-36.6c1.02-.5,3.21-.71,4.87-.46l3.82.57,2.14-1.06,26.79,4.03v2.48s.19,2.58,2.59,1.35l2.4-1.23c1.01-.52,3.24-.73,4.95-.47l8.79,1.31Z"/>
  <path class="cls-1" d="M108.4,241.29l-8.22,4.11,27.59,4.4,8.11-4.16c1.46-.75.74-1.66-1.61-2.03l-18.96-2.99c-2.33-.36-5.43-.06-6.91.68Z"/>
  <polygon class="cls-1" points="190.8 228.07 188.68 227.75 190.8 226.66 190.8 228.07"/>
  <path class="cls-1" d="M209.53,220.97l-8.79-1.31c-1.71-.26-3.94-.04-4.95.47l-2.4,1.23c-2.4,1.23-2.59-1.35-2.59-1.35v-2.48s-7.65,3.92-7.65,3.92c-.15.08-.34.15-.53.22-.19.07-.39.12-.61.18-1.54.4-3.75.52-5.55.24l-18.59-2.82c-1.43-.22-2.24-.63-2.31-1.08h0v9.17s0,.67,1.02.83c1.02.15,21.7,3.3,21.7,3.3,2.35.36,4.78-.84,4.78-.84l7.74-3.98v1.41s2.59-1.36,2.59-1.36l2.4-1.23c1.01-.52,3.24-.44,4.95-.18l3.49.52,6.61-3.43c1-.52.41-1.16-1.31-1.41Z"/>
  <path class="cls-1" d="M209.53,220.97l-8.79-1.31c-1.71-.26-3.94-.04-4.95.47l-2.4,1.23c-2.4,1.23-2.59-1.35-2.59-1.35v-2.48s-7.65,3.92-7.65,3.92c-.15.08-.34.15-.53.22-.19.07-.39.12-.61.18-1.54.4-3.75.52-5.55.24l-18.59-2.82c-1.43-.22-2.24-.63-2.31-1.08h0v9.17s0,.67,1.02.83c1.02.15,21.7,3.3,21.7,3.3,2.35.36,4.78-.84,4.78-.84l7.74-3.98v1.41s2.59-1.36,2.59-1.36l2.4-1.23c1.01-.52,3.24-.44,4.95-.18l3.49.52,6.61-3.43c1-.52.41-1.16-1.31-1.41Z"/>
  <path class="cls-1" d="M156.26,217.37c-1.39.7-.67,1.55,1.61,1.9l18.59,2.82c2.3.35,5.31.06,6.68-.65l7.65-3.92-26.79-4.03-7.75,3.87Z"/>
  <path class="cls-1" d="M233.56,224.23h0v-3.38s-.01,0-.01,0c0,.76-.65,1.54-2.04,2.28l-81.13,42.77c-4.82,2.55-15.08,3.74-22.9,2.47l-65-10.53c-4.79-.78-7.37-2.26-7.38-3.87h0v3.56s0,0,0,0c.03,1.6,2.61,3.08,7.38,3.85l65,10.53c7.83,1.27,18.05.39,22.87-2.16l81.19-43.01c1.51-.8,2.14-1.67,2.01-2.51Z"/>
  <path class="cls-1" d="M231.56,226.74l-81.2,43.01c-4.82,2.55-15.04,3.43-22.87,2.16l-65-10.53c-2.56-.42-4.46-1.04-5.71-1.77.65,1.28,3.06,2.4,7.15,3l63.32,10.33c7.57,1.36,18.06.5,22.84-2.03l79.93-42.4c1.22-.65,1.88-1.36,2.04-2.06-.15.09-.31.19-.49.28Z"/>
  <path class="cls-1" d="M231.56,226.74l-81.2,43.01c-4.82,2.55-15.04,3.43-22.87,2.16l-65-10.53c-2.56-.42-4.46-1.04-5.71-1.77.65,1.28,3.06,2.4,7.15,3l63.32,10.33c7.57,1.36,18.06.5,22.84-2.03l79.93-42.4c1.22-.65,1.88-1.36,2.04-2.06-.15.09-.31.19-.49.28Z"/>
  <path class="cls-1" d="M151.27,219.65h0s0,0,0,0Z"/>
  <path class="cls-1" d="M225.72,217.05l-61.85-9.19c-7.24-1.08-16.73-.2-21.19,1.97l-84.83,41.3c-5.04,2.46-2.98,5.49,4.62,6.72l65,10.53c7.83,1.27,18.08.08,22.9-2.47l81.13-42.77c4.26-2.26,1.64-4.98-5.79-6.09ZM209.53,220.97c1.72.26,2.31.89,1.31,1.41l-73.26,38.03c-1.11.58-3.48.81-5.27.53l-9.11-1.46c-1.78-.29-2.32-.99-1.2-1.56l3.27-1.67s2.5-1.23,2.5-3.37v-3.07s-27.59-4.39-27.59-4.39v2.83c0,2.35-2.44,3.55-2.44,3.55l-3.44,1.72c-1.12.56-3.44.79-5.17.51l-9.04-1.45c-1.72-.28-2.21-.96-1.08-1.51l74.17-36.6c1.02-.5,3.21-.71,4.87-.46l3.82.57,2.14-1.06,26.79,4.03v2.48s.19,2.58,2.59,1.35l2.4-1.23c1.01-.52,3.24-.73,4.95-.47l8.79,1.31Z"/>
  <path class="cls-1" d="M225.72,217.05l-61.85-9.19c-7.24-1.08-16.73-.2-21.19,1.97l-84.83,41.3c-5.04,2.46-2.98,5.49,4.62,6.72l65,10.53c7.83,1.27,18.08.08,22.9-2.47l81.13-42.77c4.26-2.26,1.64-4.98-5.79-6.09ZM209.53,220.97c1.72.26,2.31.89,1.31,1.41l-73.26,38.03c-1.11.58-3.48.81-5.27.53l-9.11-1.46c-1.78-.29-2.32-.99-1.2-1.56l3.27-1.67s2.5-1.23,2.5-3.37v-3.07s-27.59-4.39-27.59-4.39v2.83c0,2.35-2.44,3.55-2.44,3.55l-3.44,1.72c-1.12.56-3.44.79-5.17.51l-9.04-1.45c-1.72-.28-2.21-.96-1.08-1.51l74.17-36.6c1.02-.5,3.21-.71,4.87-.46l3.82.57,2.14-1.06,26.79,4.03v2.48s.19,2.58,2.59,1.35l2.4-1.23c1.01-.52,3.24-.73,4.95-.47l8.79,1.31Z"/>
  <path class="cls-1" d="M143.1,209.7l-83.71,40.78c-5,2.44-3.15,5.54,4.6,6.66l63.25,10.24c7.57,1.36,17.92.08,22.7-2.45l80.14-42.21c4.23-2.24,1.81-5.03-5.73-6.05l-60.23-8.94c-7.02-1.16-16.6-.2-21.03,1.96Z"/>
  <path class="cls-1" d="M143.1,209.7l-83.71,40.78c-5,2.44-3.15,5.54,4.6,6.66l63.25,10.24c7.57,1.36,17.92.08,22.7-2.45l80.14-42.21c4.23-2.24,1.81-5.03-5.73-6.05l-60.23-8.94c-7.02-1.16-16.6-.2-21.03,1.96Z"/>
  <line class="cls-1" x1="180.72" y1="222.98" x2="180.72" y2="230.56"/>
  <path class="cls-1" d="M136.64,244.83h-.01c0,.27-.23.55-.74.81l-8.11,4.15v3.07c0,2.15-2.51,3.37-2.51,3.37l-3.27,1.67c-1.12.58-.58,1.28,1.2,1.56l2.94.47,1.64-.85v1.11s.54.09.54.09l7.04-3.63s.02,0,.05-.03l.18-.09s-.04.02-.05.03c.06-.03.13-.07.23-.12.94-.49.89-1.44.89-1.44v-10.19Z"/>
  <path class="cls-1" d="M136.64,244.83h-.01c0,.27-.23.55-.74.81l-8.11,4.15v3.07c0,2.15-2.51,3.37-2.51,3.37l-3.27,1.67c-1.12.58-.58,1.28,1.2,1.56l2.94.47,1.64-.85v1.11s.54.09.54.09l7.04-3.63s.02,0,.05-.03l.18-.09s-.04.02-.05.03c.06-.03.13-.07.23-.12.94-.49.89-1.44.89-1.44v-10.19Z"/>
  <polygon class="cls-1" points="127.77 260.21 126.13 259.95 127.77 259.1 127.77 260.21"/>
  <path class="cls-1" d="M225.72,217.05l-61.85-9.19c-7.24-1.08-16.73-.2-21.19,1.97l-84.83,41.3c-5.04,2.46-2.98,5.49,4.62,6.72l65,10.53c7.83,1.27,18.08.08,22.9-2.47l81.13-42.77c4.26-2.26,1.64-4.98-5.79-6.09ZM209.53,220.97c1.72.26,2.31.89,1.31,1.41l-73.26,38.03c-1.11.58-3.48.81-5.27.53l-9.11-1.46c-1.78-.29-2.32-.99-1.2-1.56l3.27-1.67s2.5-1.23,2.5-3.37v-3.07s-27.59-4.39-27.59-4.39v2.83c0,2.35-2.44,3.55-2.44,3.55l-3.44,1.72c-1.12.56-3.44.79-5.17.51l-9.04-1.45c-1.72-.28-2.21-.96-1.08-1.51l74.17-36.6c1.02-.5,3.21-.71,4.87-.46l3.82.57,2.14-1.06,26.79,4.03v2.48s.19,2.58,2.59,1.35l2.4-1.23c1.01-.52,3.24-.73,4.95-.47l8.79,1.31Z"/>
  <path class="cls-1" d="M225.72,217.05l-61.85-9.19c-7.24-1.08-16.73-.2-21.19,1.97l-84.83,41.3c-5.04,2.46-2.98,5.49,4.62,6.72l65,10.53c7.83,1.27,18.08.08,22.9-2.47l81.13-42.77c4.26-2.26,1.64-4.98-5.79-6.09ZM209.53,220.97c1.72.26,2.31.89,1.31,1.41l-73.26,38.03c-1.11.58-3.48.81-5.27.53l-9.11-1.46c-1.78-.29-2.32-.99-1.2-1.56l3.27-1.67s2.5-1.23,2.5-3.37v-3.07s-27.59-4.39-27.59-4.39v2.83c0,2.35-2.44,3.55-2.44,3.55l-3.44,1.72c-1.12.56-3.44.79-5.17.51l-9.04-1.45c-1.72-.28-2.21-.96-1.08-1.51l74.17-36.6c1.02-.5,3.21-.71,4.87-.46l3.82.57,2.14-1.06,26.79,4.03v2.48s.19,2.58,2.59,1.35l2.4-1.23c1.01-.52,3.24-.73,4.95-.47l8.79,1.31Z"/>
  <path class="cls-1" d="M108.4,241.29l-8.22,4.11,27.59,4.4,8.11-4.16c1.46-.75.74-1.66-1.61-2.03l-18.96-2.99c-2.33-.36-5.43-.06-6.91.68Z"/>
  <polygon class="cls-1" points="190.8 228.07 188.68 227.75 190.8 226.66 190.8 228.07"/>
  <path class="cls-1" d="M209.53,220.97l-8.79-1.31c-1.71-.26-3.94-.04-4.95.47l-2.4,1.23c-2.4,1.23-2.59-1.35-2.59-1.35v-2.48s-7.65,3.92-7.65,3.92c-.15.08-.34.15-.53.22-.19.07-.39.12-.61.18-1.54.4-3.75.52-5.55.24l-18.59-2.82c-1.43-.22-2.24-.63-2.31-1.08h0v9.17s0,.67,1.02.83c1.02.15,21.7,3.3,21.7,3.3,2.35.36,4.78-.84,4.78-.84l7.74-3.98v1.41s2.59-1.36,2.59-1.36l2.4-1.23c1.01-.52,3.24-.44,4.95-.18l3.49.52,6.61-3.43c1-.52.41-1.16-1.31-1.41Z"/>
  <path class="cls-1" d="M209.53,220.97l-8.79-1.31c-1.71-.26-3.94-.04-4.95.47l-2.4,1.23c-2.4,1.23-2.59-1.35-2.59-1.35v-2.48s-7.65,3.92-7.65,3.92c-.15.08-.34.15-.53.22-.19.07-.39.12-.61.18-1.54.4-3.75.52-5.55.24l-18.59-2.82c-1.43-.22-2.24-.63-2.31-1.08h0v9.17s0,.67,1.02.83c1.02.15,21.7,3.3,21.7,3.3,2.35.36,4.78-.84,4.78-.84l7.74-3.98v1.41s2.59-1.36,2.59-1.36l2.4-1.23c1.01-.52,3.24-.44,4.95-.18l3.49.52,6.61-3.43c1-.52.41-1.16-1.31-1.41Z"/>
  <path class="cls-1" d="M156.26,217.37c-1.39.7-.67,1.55,1.61,1.9l18.59,2.82c2.3.35,5.31.06,6.68-.65l7.65-3.92-26.79-4.03-7.75,3.87Z"/>
  <path class="cls-1" d="M101.22,251.76V70.22c0-12.73,5.62-25.21,12.43-27.71L204.56,9.08c.86-.31,1.69-.4,2.48-.32v-.02s-23.26-2.48-23.26-2.48c-1.08-.17-2.33,0-3.76.54l-91.14,32.81c-6.78,2.49-12.37,14.91-12.37,27.57v180.63c0,10.04,3.52,16.79,8.35,17.43v.02l24.8,4.08.02-.06c-4.9-.58-8.47-7.39-8.47-17.53Z"/>
  <path class="cls-1" d="M215.38,194.56c0,11.78-4.85,23.92-10.82,27l-90.91,46.93c-6.81,3.52-12.43-4-12.43-16.73V70.22c0-12.73,5.62-25.21,12.43-27.71L204.56,9.09c5.97-2.2,10.82,5.66,10.82,17.44v168.03Z"/>
  <path class="cls-1" d="M195.32,168.76c0,7.32-3.03,14.72-6.78,16.54l-51.51,24.94c-4.04,1.96-7.34-2.65-7.34-10.31v-100.68c0-7.66,3.3-15.18,7.34-16.79l51.51-20.56c3.75-1.5,6.78,3.23,6.78,10.55v96.3Z"/>
  <path class="cls-1" d="M189.73,71.77c0-4.19-1-7.52-2.55-9.33l-50.15,20.02c-4.05,1.61-7.34,9.14-7.34,16.79v100.68c0,4.09.94,7.29,2.44,9.11l50.84-24.62c3.75-1.81,6.77-9.2,6.77-16.51v-96.14Z"/>
  <path class="cls-1" d="M193.31,166.63c0,6.86-2.84,13.8-6.36,15.49l-48.21,23.21c-3.77,1.82-6.85-2.5-6.85-9.65v-94.11c0-7.16,3.08-14.19,6.85-15.71l48.21-19.37c3.52-1.41,6.36,3.01,6.36,9.87v90.27Z"/>
  <path class="cls-1" d="M184.83,65.83c-.51-.05-1.05,0-1.61.23l-48.17,19.35c-.98.39-1.91,1.16-2.75,2.2-1.6,3.18-2.61,7.39-2.61,11.64v100.69c0,.98.05,1.91.16,2.79.81,1.4,1.88,2.26,3.09,2.43v.02s3.67.55,3.67.55c-2.74-.38-4.73-4.29-4.73-10.03v-94.11c0-7.16,3.07-14.19,6.85-15.71l48.21-19.37c.54-.22,1.06-.28,1.56-.24h0s-3.68-.44-3.68-.44h0Z"/>
  <path class="cls-1" d="M101.22,251.76V70.22c0-12.73,5.62-25.21,12.43-27.71L204.56,9.08c.86-.31,1.69-.4,2.48-.32v-.02s-23.26-2.48-23.26-2.48c-1.08-.17-2.33,0-3.76.54l-91.14,32.81c-6.78,2.49-12.37,14.91-12.37,27.57v180.63c0,10.04,3.52,16.79,8.35,17.43v.02l24.8,4.08.02-.06c-4.9-.58-8.47-7.39-8.47-17.53Z"/>
  <path class="cls-1" d="M215.38,194.56c0,11.78-4.85,23.92-10.82,27l-90.91,46.93c-6.81,3.52-12.43-4-12.43-16.73V70.22c0-12.73,5.62-25.21,12.43-27.71L204.56,9.09c5.97-2.2,10.82,5.66,10.82,17.44v168.03Z"/>
  <path class="cls-1" d="M195.32,168.76c0,7.32-3.03,14.72-6.78,16.54l-51.51,24.94c-4.04,1.96-7.34-2.65-7.34-10.31v-100.68c0-7.66,3.3-15.18,7.34-16.79l51.51-20.56c3.75-1.5,6.78,3.23,6.78,10.55v96.3Z"/>
  <path class="cls-1" d="M189.73,71.77c0-4.19-1-7.52-2.55-9.33l-50.15,20.02c-4.05,1.61-7.34,9.14-7.34,16.79v100.68c0,4.09.94,7.29,2.44,9.11l50.84-24.62c3.75-1.81,6.77-9.2,6.77-16.51v-96.14Z"/>
  <path class="cls-1" d="M193.31,166.63c0,6.86-2.84,13.8-6.36,15.49l-48.21,23.21c-3.77,1.82-6.85-2.5-6.85-9.65v-94.11c0-7.16,3.08-14.19,6.85-15.71l48.21-19.37c3.52-1.41,6.36,3.01,6.36,9.87v90.27Z"/>
  <path class="cls-1" d="M184.83,65.83c-.51-.05-1.05,0-1.61.23l-48.17,19.35c-.98.39-1.91,1.16-2.75,2.2-1.6,3.18-2.61,7.39-2.61,11.64v100.69c0,.98.05,1.91.16,2.79.81,1.4,1.88,2.26,3.09,2.43v.02s3.67.55,3.67.55c-2.74-.38-4.73-4.29-4.73-10.03v-94.11c0-7.16,3.07-14.19,6.85-15.71l48.21-19.37c.54-.22,1.06-.28,1.56-.24h0s-3.68-.44-3.68-.44h0Z"/>
  <path class="cls-1" d="M101.22,251.76V70.22c0-12.73,5.62-25.21,12.43-27.71L204.56,9.08c.86-.31,1.69-.4,2.48-.32v-.02s-23.26-2.48-23.26-2.48c-1.08-.17-2.33,0-3.76.54l-91.14,32.81c-6.78,2.49-12.37,14.91-12.37,27.57v180.63c0,10.04,3.52,16.79,8.35,17.43v.02l24.8,4.08.02-.06c-4.9-.58-8.47-7.39-8.47-17.53Z"/>
  <path class="cls-1" d="M215.38,194.56c0,11.78-4.85,23.92-10.82,27l-90.91,46.93c-6.81,3.52-12.43-4-12.43-16.73V70.22c0-12.73,5.62-25.21,12.43-27.71L204.56,9.09c5.97-2.2,10.82,5.66,10.82,17.44v168.03Z"/>
  <path class="cls-1" d="M195.32,168.76c0,7.32-3.03,14.72-6.78,16.54l-51.51,24.94c-4.04,1.96-7.34-2.65-7.34-10.31v-100.68c0-7.66,3.3-15.18,7.34-16.79l51.51-20.56c3.75-1.5,6.78,3.23,6.78,10.55v96.3Z"/>
  <path class="cls-1" d="M189.73,71.77c0-4.19-1-7.52-2.55-9.33l-50.15,20.02c-4.05,1.61-7.34,9.14-7.34,16.79v100.68c0,4.09.94,7.29,2.44,9.11l50.84-24.62c3.75-1.81,6.77-9.2,6.77-16.51v-96.14Z"/>
  <path class="cls-1" d="M193.31,166.63c0,6.86-2.84,13.8-6.36,15.49l-48.21,23.21c-3.77,1.82-6.85-2.5-6.85-9.65v-94.11c0-7.16,3.08-14.19,6.85-15.71l48.21-19.37c3.52-1.41,6.36,3.01,6.36,9.87v90.27Z"/>
  <path class="cls-1" d="M184.83,65.83c-.51-.05-1.05,0-1.61.23l-48.17,19.35c-.98.39-1.91,1.16-2.75,2.2-1.6,3.18-2.61,7.39-2.61,11.64v100.69c0,.98.05,1.91.16,2.79.81,1.4,1.88,2.26,3.09,2.43v.02s3.67.55,3.67.55c-2.74-.38-4.73-4.29-4.73-10.03v-94.11c0-7.16,3.07-14.19,6.85-15.71l48.21-19.37c.54-.22,1.06-.28,1.56-.24h0s-3.68-.44-3.68-.44h0Z"/>
  <path class="cls-4" d="M233.56,224.23h0v-3.38s-.01,0-.01,0c0,.76-.65,1.54-2.03,2.28l-81.13,42.77c-4.82,2.55-15.08,3.74-22.9,2.47l-65-10.53c-4.79-.78-7.37-2.26-7.38-3.87h0v3.56s0,0,0,0c.03,1.6,2.62,3.08,7.38,3.85l65,10.53c7.83,1.27,18.05.39,22.87-2.16l81.19-43.01c1.51-.8,2.14-1.67,2.01-2.51"/>
  <path class="cls-3" d="M233.56,224.23h0v-3.38s-.01,0-.01,0c0,.76-.65,1.54-2.04,2.28l-81.13,42.77c-4.82,2.55-15.08,3.74-22.9,2.47l-65-10.53c-4.79-.78-7.37-2.26-7.38-3.87h0v3.56s0,0,0,0c.03,1.6,2.61,3.08,7.38,3.85l65,10.53c7.83,1.27,18.05.39,22.87-2.16l81.19-43.01c1.51-.8,2.14-1.67,2.01-2.51Z"/>
  <path class="cls-4" d="M231.56,226.74l-81.2,43.01c-4.82,2.55-15.04,3.43-22.87,2.16l-65-10.53c-2.56-.42-4.46-1.04-5.71-1.77.65,1.28,3.06,2.4,7.15,3l63.32,10.33c7.57,1.36,18.06.5,22.84-2.03l79.93-42.4c1.22-.65,1.88-1.36,2.04-2.06-.15.09-.31.19-.49.28"/>
  <path class="cls-3" d="M231.56,226.74l-81.2,43.01c-4.82,2.55-15.04,3.43-22.87,2.16l-65-10.53c-2.56-.42-4.46-1.04-5.71-1.77.65,1.28,3.06,2.4,7.15,3l63.32,10.33c7.57,1.36,18.06.5,22.84-2.03l79.93-42.4c1.22-.65,1.88-1.36,2.04-2.06-.15.09-.31.19-.49.28Z"/>
  <path class="cls-2" d="M151.27,219.65h0s0,0,0,0Z"/>
  <path class="cls-4" d="M225.72,217.05l-61.85-9.19c-7.24-1.08-16.73-.2-21.19,1.97l-84.83,41.3c-5.04,2.46-2.98,5.49,4.62,6.72l65,10.53c7.83,1.27,18.08.08,22.9-2.47l81.13-42.77c4.26-2.26,1.64-4.98-5.79-6.09M209.53,220.97c1.72.26,2.31.89,1.31,1.41l-73.26,38.03c-1.11.58-3.48.81-5.27.53l-9.11-1.46c-1.78-.29-2.32-.99-1.2-1.56l3.27-1.67s2.5-1.22,2.5-3.37v-3.07s-27.59-4.39-27.59-4.39v2.83c0,2.35-2.44,3.55-2.44,3.55l-3.43,1.72c-1.12.56-3.44.79-5.17.51l-9.04-1.45c-1.72-.28-2.21-.96-1.08-1.51l74.17-36.6c1.02-.5,3.21-.71,4.87-.46l3.82.57,2.14-1.07,26.79,4.03v2.48s.19,2.58,2.59,1.35l2.4-1.23c1.01-.52,3.24-.73,4.95-.47l8.79,1.31Z"/>
  <path class="cls-3" d="M225.72,217.05l-61.85-9.19c-7.24-1.08-16.73-.2-21.19,1.97l-84.83,41.3c-5.04,2.46-2.98,5.49,4.62,6.72l65,10.53c7.83,1.27,18.08.08,22.9-2.47l81.13-42.77c4.26-2.26,1.64-4.98-5.79-6.09ZM209.53,220.97c1.72.26,2.31.89,1.31,1.41l-73.26,38.03c-1.11.58-3.48.81-5.27.53l-9.11-1.46c-1.78-.29-2.32-.99-1.2-1.56l3.27-1.67s2.5-1.23,2.5-3.37v-3.07s-27.59-4.39-27.59-4.39v2.83c0,2.35-2.44,3.55-2.44,3.55l-3.44,1.72c-1.12.56-3.44.79-5.17.51l-9.04-1.45c-1.72-.28-2.21-.96-1.08-1.51l74.17-36.6c1.02-.5,3.21-.71,4.87-.46l3.82.57,2.14-1.06,26.79,4.03v2.48s.19,2.58,2.59,1.35l2.4-1.23c1.01-.52,3.24-.73,4.95-.47l8.79,1.31Z"/>
  <path class="cls-3" d="M143.1,209.7l-83.71,40.78c-5,2.44-3.15,5.54,4.6,6.66l63.25,10.24c7.57,1.36,17.92.08,22.7-2.45l80.14-42.21c4.23-2.24,1.81-5.03-5.73-6.05l-60.23-8.94c-7.02-1.16-16.6-.2-21.03,1.96Z"/>
  <line class="cls-3" x1="180.72" y1="222.98" x2="180.72" y2="230.56"/>
  <path class="cls-4" d="M136.64,244.83h-.01c0,.27-.23.55-.74.81l-8.11,4.15v3.07c0,2.15-2.51,3.37-2.51,3.37l-3.27,1.67c-1.12.58-.58,1.28,1.2,1.56l2.94.47,1.64-.85v1.11s.54.09.54.09l7.04-3.63s.02,0,.05-.03l.18-.09s-.04.02-.05.03c.06-.03.13-.07.23-.12.94-.48.89-1.44.89-1.44v-10.19Z"/>
  <path class="cls-3" d="M136.64,244.83h-.01c0,.27-.23.55-.74.81l-8.11,4.15v3.07c0,2.15-2.51,3.37-2.51,3.37l-3.27,1.67c-1.12.58-.58,1.28,1.2,1.56l2.94.47,1.64-.85v1.11s.54.09.54.09l7.04-3.63s.02,0,.05-.03l.18-.09s-.04.02-.05.03c.06-.03.13-.07.23-.12.94-.49.89-1.44.89-1.44v-10.19Z"/>
  <polygon class="cls-4" points="127.77 260.21 126.13 259.95 127.77 259.1 127.77 260.21"/>
  <polygon class="cls-3" points="127.77 260.21 126.13 259.95 127.77 259.1 127.77 260.21"/>
  <path class="cls-4" d="M225.72,217.05l-61.85-9.19c-7.24-1.08-16.73-.2-21.19,1.97l-84.83,41.3c-5.04,2.46-2.98,5.49,4.62,6.72l65,10.53c7.83,1.27,18.08.08,22.9-2.47l81.13-42.77c4.26-2.26,1.64-4.98-5.79-6.09M209.53,220.97c1.72.26,2.31.89,1.31,1.41l-73.26,38.03c-1.11.58-3.48.81-5.27.53l-9.11-1.46c-1.78-.29-2.32-.99-1.2-1.56l3.27-1.67s2.5-1.22,2.5-3.37v-3.07s-27.59-4.39-27.59-4.39v2.83c0,2.35-2.44,3.55-2.44,3.55l-3.43,1.72c-1.12.56-3.44.79-5.17.51l-9.04-1.45c-1.72-.28-2.21-.96-1.08-1.51l74.17-36.6c1.02-.5,3.21-.71,4.87-.46l3.82.57,2.14-1.07,26.79,4.03v2.48s.19,2.58,2.59,1.35l2.4-1.23c1.01-.52,3.24-.73,4.95-.47l8.79,1.31Z"/>
  <path class="cls-3" d="M225.72,217.05l-61.85-9.19c-7.24-1.08-16.73-.2-21.19,1.97l-84.83,41.3c-5.04,2.46-2.98,5.49,4.62,6.72l65,10.53c7.83,1.27,18.08.08,22.9-2.47l81.13-42.77c4.26-2.26,1.64-4.98-5.79-6.09ZM209.53,220.97c1.72.26,2.31.89,1.31,1.41l-73.26,38.03c-1.11.58-3.48.81-5.27.53l-9.11-1.46c-1.78-.29-2.32-.99-1.2-1.56l3.27-1.67s2.5-1.23,2.5-3.37v-3.07s-27.59-4.39-27.59-4.39v2.83c0,2.35-2.44,3.55-2.44,3.55l-3.44,1.72c-1.12.56-3.44.79-5.17.51l-9.04-1.45c-1.72-.28-2.21-.96-1.08-1.51l74.17-36.6c1.02-.5,3.21-.71,4.87-.46l3.82.57,2.14-1.06,26.79,4.03v2.48s.19,2.58,2.59,1.35l2.4-1.23c1.01-.52,3.24-.73,4.95-.47l8.79,1.31Z"/>
  <path class="cls-4" d="M108.4,241.29l-8.22,4.11,27.59,4.4,8.11-4.16c1.46-.75.74-1.66-1.61-2.03l-18.96-2.99c-2.33-.36-5.43-.06-6.91.68"/>
  <path class="cls-3" d="M108.4,241.29l-8.22,4.11,27.59,4.4,8.11-4.16c1.46-.75.74-1.66-1.61-2.03l-18.96-2.99c-2.33-.36-5.43-.06-6.91.68Z"/>
  <polygon class="cls-4" points="190.8 228.07 188.68 227.75 190.8 226.66 190.8 228.07"/>
  <polygon class="cls-3" points="190.8 228.07 188.68 227.75 190.8 226.66 190.8 228.07"/>
  <path class="cls-4" d="M209.53,220.97l-8.79-1.31c-1.71-.26-3.94-.04-4.95.47l-2.4,1.23c-2.4,1.23-2.59-1.35-2.59-1.35v-2.48s-7.65,3.92-7.65,3.92c-.15.08-.34.15-.52.22-.19.07-.39.12-.61.18-1.54.4-3.75.52-5.55.24l-18.59-2.82c-1.43-.21-2.24-.63-2.31-1.08h0v9.17s0,.67,1.02.83c1.02.15,21.7,3.3,21.7,3.3,2.35.36,4.78-.83,4.78-.83l7.74-3.98v1.41s2.59-1.36,2.59-1.36l2.4-1.23c1.01-.52,3.24-.44,4.95-.18l3.49.52,6.61-3.43c1-.52.41-1.16-1.31-1.41"/>
  <path class="cls-3" d="M209.53,220.97l-8.79-1.31c-1.71-.26-3.94-.04-4.95.47l-2.4,1.23c-2.4,1.23-2.59-1.35-2.59-1.35v-2.48s-7.65,3.92-7.65,3.92c-.15.08-.34.15-.53.22-.19.07-.39.12-.61.18-1.54.4-3.75.52-5.55.24l-18.59-2.82c-1.43-.22-2.24-.63-2.31-1.08h0v9.17s0,.67,1.02.83c1.02.15,21.7,3.3,21.7,3.3,2.35.36,4.78-.84,4.78-.84l7.74-3.98v1.41s2.59-1.36,2.59-1.36l2.4-1.23c1.01-.52,3.24-.44,4.95-.18l3.49.52,6.61-3.43c1-.52.41-1.16-1.31-1.41Z"/>
  <path class="cls-4" d="M156.26,217.37c-1.39.7-.67,1.55,1.61,1.9l18.59,2.82c2.3.35,5.31.06,6.69-.65l7.65-3.92-26.79-4.03-7.75,3.87Z"/>
  <path class="cls-3" d="M156.26,217.37c-1.39.7-.67,1.55,1.61,1.9l18.59,2.82c2.3.35,5.31.06,6.68-.65l7.65-3.92-26.79-4.03-7.75,3.87Z"/>
  <path class="cls-4" d="M101.22,251.76V70.22c0-12.73,5.62-25.21,12.43-27.71L204.56,9.08c.86-.31,1.68-.4,2.48-.32v-.02s-23.26-2.48-23.26-2.48c-1.08-.17-2.33,0-3.76.54l-91.14,32.81c-6.78,2.49-12.37,14.91-12.37,27.57v180.63c0,10.04,3.52,16.79,8.35,17.43v.02l24.8,4.08.02-.06c-4.9-.58-8.47-7.39-8.47-17.53"/>
  <path class="cls-3" d="M101.22,251.76V70.22c0-12.73,5.62-25.21,12.43-27.71L204.56,9.08c.86-.31,1.69-.4,2.48-.32v-.02s-23.26-2.48-23.26-2.48c-1.08-.17-2.33,0-3.76.54l-91.14,32.81c-6.78,2.49-12.37,14.91-12.37,27.57v180.63c0,10.04,3.52,16.79,8.35,17.43v.02l24.8,4.08.02-.06c-4.9-.58-8.47-7.39-8.47-17.53Z"/>
  <path class="cls-4" d="M215.38,194.56c0,11.78-4.85,23.92-10.82,27l-90.91,46.93c-6.81,3.52-12.43-4-12.43-16.73V70.22c0-12.73,5.62-25.21,12.43-27.71L204.56,9.09c5.97-2.2,10.82,5.66,10.82,17.44v168.03Z"/>
  <path class="cls-3" d="M215.38,194.56c0,11.78-4.85,23.92-10.82,27l-90.91,46.93c-6.81,3.52-12.43-4-12.43-16.73V70.22c0-12.73,5.62-25.21,12.43-27.71L204.56,9.09c5.97-2.2,10.82,5.66,10.82,17.44v168.03Z"/>
  <path class="cls-4" d="M195.32,168.76c0,7.32-3.03,14.72-6.78,16.54l-51.51,24.94c-4.04,1.96-7.34-2.65-7.34-10.31v-100.68c0-7.66,3.3-15.18,7.34-16.79l51.51-20.56c3.75-1.5,6.78,3.23,6.78,10.55v96.3Z"/>
  <path class="cls-3" d="M195.32,168.76c0,7.32-3.03,14.72-6.78,16.54l-51.51,24.94c-4.04,1.96-7.34-2.65-7.34-10.31v-100.68c0-7.66,3.3-15.18,7.34-16.79l51.51-20.56c3.75-1.5,6.78,3.23,6.78,10.55v96.3Z"/>
  <path class="cls-4" d="M189.73,71.77c0-4.19-1-7.52-2.55-9.33l-50.15,20.02c-4.05,1.61-7.34,9.14-7.34,16.79v100.68c0,4.09.94,7.29,2.44,9.11l50.84-24.62c3.75-1.81,6.77-9.2,6.77-16.51v-96.14Z"/>
  <path class="cls-3" d="M189.73,71.77c0-4.19-1-7.52-2.55-9.33l-50.15,20.02c-4.05,1.61-7.34,9.14-7.34,16.79v100.68c0,4.09.94,7.29,2.44,9.11l50.84-24.62c3.75-1.81,6.77-9.2,6.77-16.51v-96.14Z"/>
  <path class="cls-4" d="M193.31,166.63c0,6.86-2.84,13.8-6.36,15.49l-48.21,23.21c-3.77,1.82-6.85-2.5-6.85-9.65v-94.11c0-7.16,3.08-14.19,6.85-15.71l48.21-19.37c3.52-1.42,6.36,3.01,6.36,9.87v90.27Z"/>
  <path class="cls-3" d="M193.31,166.63c0,6.86-2.84,13.8-6.36,15.49l-48.21,23.21c-3.77,1.82-6.85-2.5-6.85-9.65v-94.11c0-7.16,3.08-14.19,6.85-15.71l48.21-19.37c3.52-1.41,6.36,3.01,6.36,9.87v90.27Z"/>
  <path class="cls-4" d="M184.83,65.83c-.51-.05-1.05,0-1.61.23l-48.17,19.36c-.98.39-1.91,1.16-2.75,2.2-1.6,3.18-2.62,7.39-2.62,11.64v100.69c0,.98.05,1.91.16,2.79.81,1.4,1.88,2.26,3.09,2.43v.02s3.67.55,3.67.55c-2.74-.38-4.73-4.29-4.73-10.03v-94.11c0-7.15,3.07-14.19,6.85-15.71l48.21-19.37c.54-.22,1.07-.28,1.56-.24h0s-3.68-.44-3.68-.44v.02Z"/>
  <path class="cls-3" d="M184.83,65.83c-.51-.05-1.05,0-1.61.23l-48.17,19.35c-.98.39-1.91,1.16-2.75,2.2-1.6,3.18-2.61,7.39-2.61,11.64v100.69c0,.98.05,1.91.16,2.79.81,1.4,1.88,2.26,3.09,2.43v.02s3.67.55,3.67.55c-2.74-.38-4.73-4.29-4.73-10.03v-94.11c0-7.16,3.07-14.19,6.85-15.71l48.21-19.37c.54-.22,1.06-.28,1.56-.24h0s-3.68-.44-3.68-.44h0Z"/>
</svg>