<?xml version="1.0" encoding="UTF-8"?>
<svg id="_レイヤー_1" data-name="レイヤー 1" xmlns="http://www.w3.org/2000/svg" version="1.1" viewBox="0 0 283.46 283.46">
  <defs>
    <style>
      .cls-1 {
        font-family: HelveticaNeueLTPro-Roman, 'HelveticaNeueLTPro Roman';
        font-size: 3.58px;
      }

      .cls-1, .cls-2 {
        fill: #fff;
      }

      .cls-3, .cls-4, .cls-5 {
        fill: none;
        stroke: #231815;
      }

      .cls-3, .cls-5 {
        stroke-width: 1.43px;
      }

      .cls-6 {
        fill: #666464;
      }

      .cls-6, .cls-2 {
        stroke-width: 0px;
      }

      .cls-4 {
        stroke-width: .71px;
      }

      .cls-4, .cls-5 {
        stroke-linecap: round;
        stroke-linejoin: round;
      }
    </style>
  </defs>
  <g>
    <path class="cls-6" d="M56.03,201.39l40.39-16.32s5.36-1.27,8.5.68c1.95-.93,5.7-2.55,5.7-2.55l13.77,8.59.93,6.46,64.53,39.87,5.36-2.38,14.11,8.42.76,6.55,7.05,4.34s1.45,1.36,1.79,2.81c.34,1.44.34,2.46.34,2.46,0,0-.17,2.46-2.3,3.32-2.13.85-40.04,16.41-40.04,16.41,0,0-6.72,1.7-11.22-.85-4.51-2.55-111.37-68.69-111.37-68.69,0,0-1.53-1.28-1.53-2.89v-2.64s-.09-2.29,3.23-3.57"/>
    <path class="cls-5" d="M56.03,201.39l40.39-16.32s5.36-1.27,8.5.68c1.95-.93,5.7-2.55,5.7-2.55l13.77,8.59.93,6.46,64.53,39.87,5.36-2.38,14.11,8.42.76,6.55,7.05,4.34s1.45,1.36,1.79,2.81c.34,1.44.34,2.46.34,2.46,0,0-.17,2.46-2.3,3.32-2.13.85-40.04,16.41-40.04,16.41,0,0-6.72,1.7-11.22-.85-4.51-2.55-111.37-68.69-111.37-68.69,0,0-1.53-1.28-1.53-2.89v-2.64s-.09-2.29,3.23-3.57Z"/>
    <path class="cls-6" d="M107.35,228.47c-24.75-15.28-47.36-29.24-47.36-29.24,0,0-.77-.55-.77-2.48s-.02-178.09-.02-178.09c0,0,0-1.77,1.79-2.51l24.26-9.64s.76-.46,1.46-.01c.7.45,120.71,74.56,120.71,74.56,0,0,1.42.68,1.42,2.59v178.82s-.15,1.4-1.45,1.91c-1.3.51-15.88,6.36-15.88,6.36,0,0-.79.34-2,.17-1.21-.17-17.62-2.76-17.62-2.76,0,0-.36-.09-1.47-.75-.47-.28-20.34-12.54-43.1-26.59"/>
    <path class="cls-5" d="M107.35,228.47c-24.75-15.28-47.36-29.24-47.36-29.24,0,0-.77-.55-.77-2.48s-.02-178.09-.02-178.09c0,0,0-1.77,1.79-2.51l24.26-9.64s.76-.46,1.46-.01c.7.45,120.71,74.56,120.71,74.56,0,0,1.42.68,1.42,2.59v178.82s-.15,1.4-1.45,1.91c-1.3.51-15.88,6.36-15.88,6.36,0,0-.79.34-2,.17-1.21-.17-17.62-2.76-17.62-2.76,0,0-.36-.09-1.47-.75-.47-.28-20.34-12.54-43.1-26.59"/>
    <polyline class="cls-5" points="59.35 18.92 170.95 87.84 190.67 90.85 208.84 83.65"/>
    <polyline class="cls-4" points="63.26 25.81 63.26 24.17 66.57 26.04"/>
    <polyline class="cls-4" points="63.26 28.76 63.26 27.11 66.57 28.98"/>
    <polyline class="cls-4" points="63.26 31.51 63.26 29.86 66.57 31.73"/>
    <polyline class="cls-4" points="63.26 34.37 63.26 32.73 66.57 34.6"/>
    <polyline class="cls-4" points="63.26 25.81 63.26 24.17 66.57 26.04"/>
    <polyline class="cls-4" points="63.26 28.76 63.26 27.11 66.57 28.98"/>
    <polyline class="cls-4" points="63.26 31.51 63.26 29.86 66.57 31.73"/>
    <polyline class="cls-4" points="63.26 34.37 63.26 32.73 66.57 34.6"/>
    <polyline class="cls-4" points="67.31 28.32 67.31 26.67 70.62 28.54"/>
    <polyline class="cls-4" points="67.31 31.26 67.31 29.62 70.62 31.49"/>
    <polyline class="cls-4" points="67.31 34.01 67.31 32.37 70.62 34.24"/>
    <polyline class="cls-4" points="67.31 36.87 67.31 35.23 70.62 37.1"/>
    <polyline class="cls-4" points="71.36 30.82 71.36 29.18 74.67 31.05"/>
    <polyline class="cls-4" points="71.36 33.77 71.36 32.12 74.67 34"/>
    <polyline class="cls-4" points="71.36 36.52 71.36 34.88 74.67 36.75"/>
    <polyline class="cls-4" points="71.36 39.38 71.36 37.74 74.67 39.61"/>
    <polyline class="cls-4" points="75.4 33.33 75.4 31.68 78.72 33.55"/>
    <polyline class="cls-4" points="75.4 36.28 75.4 34.63 78.72 36.5"/>
    <polyline class="cls-4" points="75.4 39.03 75.4 37.38 78.72 39.25"/>
    <polyline class="cls-4" points="75.4 41.89 75.4 40.24 78.72 42.11"/>
    <polyline class="cls-4" points="79.45 35.84 79.45 34.19 82.77 36.06"/>
    <polyline class="cls-4" points="79.45 38.78 79.45 37.14 82.77 39.01"/>
    <polyline class="cls-4" points="79.45 41.53 79.45 39.89 82.77 41.76"/>
    <polyline class="cls-4" points="79.45 44.39 79.45 42.75 82.77 44.62"/>
    <polyline class="cls-4" points="83.5 38.34 83.5 36.7 86.82 38.57"/>
    <polyline class="cls-4" points="83.5 41.29 83.5 39.64 86.82 41.52"/>
    <polyline class="cls-4" points="83.5 44.04 83.5 42.39 86.82 44.26"/>
    <polyline class="cls-4" points="83.5 46.9 83.5 45.26 86.82 47.13"/>
    <polyline class="cls-4" points="87.55 40.85 87.55 39.2 90.87 41.08"/>
    <polyline class="cls-4" points="87.55 43.8 87.55 42.15 90.87 44.02"/>
    <polyline class="cls-4" points="87.55 46.54 87.55 44.9 90.87 46.77"/>
    <polyline class="cls-4" points="87.55 49.4 87.55 47.77 90.87 49.63"/>
    <polyline class="cls-4" points="91.6 43.36 91.6 41.71 94.92 43.58"/>
    <polyline class="cls-4" points="91.6 46.3 91.6 44.66 94.92 46.53"/>
    <polyline class="cls-4" points="91.6 49.05 91.6 47.41 94.92 49.28"/>
    <polyline class="cls-4" points="91.6 51.91 91.6 50.27 94.92 52.14"/>
    <polyline class="cls-4" points="95.65 45.86 95.65 44.22 98.96 46.09"/>
    <polyline class="cls-4" points="95.65 48.81 95.65 47.17 98.96 49.04"/>
    <polyline class="cls-4" points="95.65 51.56 95.65 49.91 98.96 51.78"/>
    <polyline class="cls-4" points="95.65 54.42 95.65 52.77 98.96 54.65"/>
    <polyline class="cls-4" points="99.7 48.37 99.7 46.73 103.01 48.6"/>
    <polyline class="cls-4" points="99.7 51.32 99.7 49.67 103.01 51.54"/>
    <polyline class="cls-4" points="99.7 54.06 99.7 52.42 103.01 54.29"/>
    <polyline class="cls-4" points="99.7 56.92 99.7 55.28 103.01 57.15"/>
    <polyline class="cls-4" points="103.75 50.87 103.75 49.23 107.06 51.1"/>
    <polyline class="cls-4" points="103.75 53.82 103.75 52.18 107.06 54.05"/>
    <polyline class="cls-4" points="103.75 56.57 103.75 54.93 107.06 56.8"/>
    <polyline class="cls-4" points="103.75 59.43 103.75 57.79 107.06 59.66"/>
    <polyline class="cls-4" points="107.79 53.38 107.79 51.74 111.11 53.61"/>
    <polyline class="cls-4" points="107.79 56.33 107.79 54.69 111.11 56.56"/>
    <polyline class="cls-4" points="107.79 59.08 107.79 57.43 111.11 59.3"/>
    <polyline class="cls-4" points="107.79 61.94 107.79 60.29 111.11 62.16"/>
    <polyline class="cls-4" points="111.84 55.89 111.84 54.24 115.16 56.11"/>
    <polyline class="cls-4" points="111.84 58.83 111.84 57.19 115.16 59.06"/>
    <polyline class="cls-4" points="111.84 61.58 111.84 59.94 115.16 61.81"/>
    <polyline class="cls-4" points="111.84 64.44 111.84 62.8 115.16 64.67"/>
    <polyline class="cls-4" points="115.89 58.39 115.89 56.75 119.21 58.62"/>
    <polyline class="cls-4" points="115.89 61.34 115.89 59.7 119.21 61.57"/>
    <polyline class="cls-4" points="115.89 64.09 115.89 62.45 119.21 64.32"/>
    <polyline class="cls-4" points="115.89 66.95 115.89 65.31 119.21 67.18"/>
    <polyline class="cls-4" points="119.94 60.9 119.94 59.26 123.26 61.13"/>
    <polyline class="cls-4" points="119.94 63.85 119.94 62.2 123.26 64.08"/>
    <polyline class="cls-4" points="119.94 66.6 119.94 64.95 123.26 66.82"/>
    <polyline class="cls-4" points="119.94 69.46 119.94 67.81 123.26 69.68"/>
    <polyline class="cls-4" points="123.99 63.41 123.99 61.76 127.3 63.63"/>
    <polyline class="cls-4" points="123.99 66.35 123.99 64.71 127.3 66.58"/>
    <polyline class="cls-4" points="123.99 69.1 123.99 67.46 127.3 69.33"/>
    <polyline class="cls-4" points="123.99 71.96 123.99 70.32 127.3 72.19"/>
    <polyline class="cls-4" points="128.04 65.91 128.04 64.27 131.35 66.14"/>
    <polyline class="cls-4" points="128.04 68.86 128.04 67.22 131.35 69.08"/>
    <polyline class="cls-4" points="128.04 71.61 128.04 69.97 131.35 71.83"/>
    <polyline class="cls-4" points="128.04 74.47 128.04 72.83 131.35 74.7"/>
    <polyline class="cls-4" points="132.09 68.42 132.09 66.78 135.4 68.64"/>
    <polyline class="cls-4" points="132.09 71.37 132.09 69.72 135.4 71.59"/>
    <polyline class="cls-4" points="132.09 74.12 132.09 72.47 135.4 74.34"/>
    <polyline class="cls-4" points="132.09 76.98 132.09 75.33 135.4 77.2"/>
    <polyline class="cls-4" points="136.14 70.93 136.14 69.28 139.45 71.15"/>
    <polyline class="cls-4" points="136.14 73.87 136.14 72.23 139.45 74.1"/>
    <polyline class="cls-4" points="136.14 76.62 136.14 74.98 139.45 76.85"/>
    <polyline class="cls-4" points="136.14 79.48 136.14 77.84 139.45 79.71"/>
    <polyline class="cls-4" points="140.18 73.43 140.18 71.79 143.5 73.66"/>
    <polyline class="cls-4" points="140.18 76.38 140.18 74.73 143.5 76.6"/>
    <polyline class="cls-4" points="140.18 79.13 140.18 77.49 143.5 79.35"/>
    <polyline class="cls-4" points="140.18 81.99 140.18 80.35 143.5 82.22"/>
    <polyline class="cls-4" points="144.23 75.94 144.23 74.3 147.55 76.16"/>
    <polyline class="cls-4" points="144.23 78.89 144.23 77.24 147.55 79.11"/>
    <polyline class="cls-4" points="144.23 81.63 144.23 79.99 147.55 81.86"/>
    <polyline class="cls-4" points="144.23 84.5 144.23 82.85 147.55 84.72"/>
    <polyline class="cls-4" points="148.28 78.45 148.28 76.8 151.6 78.67"/>
    <polyline class="cls-4" points="148.28 81.39 148.28 79.75 151.6 81.62"/>
    <polyline class="cls-4" points="148.28 84.14 148.28 82.5 151.6 84.37"/>
    <polyline class="cls-4" points="148.28 87 148.28 85.36 151.6 87.23"/>
    <polyline class="cls-4" points="152.33 80.95 152.33 79.31 155.65 81.18"/>
    <polyline class="cls-4" points="152.33 83.9 152.33 82.26 155.65 84.12"/>
    <polyline class="cls-4" points="152.33 86.65 152.33 85.01 155.65 86.87"/>
    <polyline class="cls-4" points="152.33 89.51 152.33 87.87 155.65 89.74"/>
    <polyline class="cls-4" points="156.38 83.46 156.38 81.82 159.7 83.68"/>
    <polyline class="cls-4" points="156.38 86.41 156.38 84.76 159.7 86.63"/>
    <polyline class="cls-4" points="156.38 89.15 156.38 87.51 159.7 89.38"/>
    <polyline class="cls-4" points="156.38 92.01 156.38 90.37 159.7 92.24"/>
    <polyline class="cls-4" points="160.43 85.96 160.43 84.32 163.74 86.19"/>
    <polyline class="cls-4" points="160.43 88.91 160.43 87.27 163.74 89.14"/>
    <polyline class="cls-4" points="160.43 91.66 160.43 90.02 163.74 91.89"/>
    <polyline class="cls-4" points="160.43 94.52 160.43 92.88 163.74 94.75"/>
    <polyline class="cls-4" points="164.48 88.47 164.48 86.83 167.79 88.7"/>
    <polyline class="cls-4" points="164.48 91.41 164.48 89.78 167.79 91.64"/>
    <polyline class="cls-4" points="164.48 94.17 164.48 92.52 167.79 94.39"/>
    <polyline class="cls-4" points="164.48 97.03 164.48 95.39 167.79 97.25"/>
    <path class="cls-4" d="M65.24,18.53l4.45-1.84s.48-.23.97.06c.48.28,109.42,67.67,109.42,67.67l-.77.48-8.9-1.42L65.24,18.53Z"/>
    <path class="cls-4" d="M71.82,15.66l4.11-1.59s.51-.28,1.19.23c.68.51,112.76,69.74,112.76,69.74l-3.85,1.79s-.77.34-2.18-.48c-1.42-.82-112.26-69.32-112.26-69.32,0,0-.11-.23.23-.37Z"/>
    <polyline class="cls-4" points="68.76 17.85 71.9 20 73.29 19.49"/>
    <polyline class="cls-4" points="72.89 20.48 76.04 22.64 77.43 22.12"/>
    <polyline class="cls-4" points="77.17 23 80.32 25.16 81.71 24.65"/>
    <polyline class="cls-4" points="81.42 25.67 84.57 27.82 85.96 27.31"/>
    <polyline class="cls-4" points="85.62 28.16 88.76 30.32 90.15 29.8"/>
    <polyline class="cls-4" points="89.9 30.74 93.05 32.89 94.43 32.38"/>
    <polyline class="cls-4" points="93.81 33.32 96.96 35.47 98.34 34.96"/>
    <polyline class="cls-4" points="98.06 35.93 101.21 38.08 102.59 37.57"/>
    <polyline class="cls-4" points="102.45 38.42 105.6 40.57 106.99 40.06"/>
    <polyline class="cls-4" points="106.62 41.08 109.76 43.24 111.15 42.73"/>
    <polyline class="cls-4" points="110.73 43.66 113.87 45.82 115.26 45.31"/>
    <polyline class="cls-4" points="114.81 46.3 117.96 48.45 119.34 47.94"/>
    <polyline class="cls-4" points="119.09 48.79 122.23 50.95 123.62 50.44"/>
    <polyline class="cls-4" points="123.25 51.46 126.4 53.61 127.79 53.1"/>
    <polyline class="cls-4" points="127.42 54.09 130.57 56.24 131.95 55.74"/>
    <polyline class="cls-4" points="131.64 56.59 134.79 58.74 136.17 58.23"/>
    <polyline class="cls-4" points="135.78 59.14 138.93 61.29 140.31 60.78"/>
    <polyline class="cls-4" points="139.97 61.69 143.12 63.84 144.51 63.33"/>
    <polyline class="cls-4" points="144.2 64.3 147.34 66.45 148.73 65.94"/>
    <polyline class="cls-4" points="148.36 66.93 151.51 69.09 152.9 68.57"/>
    <polyline class="cls-4" points="152.58 69.51 155.73 71.66 157.12 71.15"/>
    <polyline class="cls-4" points="156.72 72.09 159.87 74.25 161.26 73.73"/>
    <polyline class="cls-4" points="160.86 74.67 164.01 76.82 165.39 76.31"/>
    <polyline class="cls-4" points="165.2 77.3 168.34 79.46 169.73 78.95"/>
    <polyline class="cls-4" points="169.22 79.85 172.37 82.01 173.75 81.5"/>
    <polyline class="cls-4" points="74.96 15.32 78.11 17.48 79.5 16.97"/>
    <polyline class="cls-4" points="79.1 17.96 82.25 20.11 83.63 19.6"/>
    <polyline class="cls-4" points="83.38 20.48 86.53 22.63 87.91 22.13"/>
    <polyline class="cls-4" points="87.63 23.15 90.77 25.3 92.17 24.79"/>
    <polyline class="cls-4" points="91.82 25.64 94.97 27.79 96.36 27.28"/>
    <polyline class="cls-4" points="96.1 28.22 99.25 30.37 100.64 29.86"/>
    <polyline class="cls-4" points="100.02 30.8 103.16 32.95 104.55 32.44"/>
    <polyline class="cls-4" points="104.26 33.4 107.41 35.56 108.8 35.05"/>
    <polyline class="cls-4" points="108.66 35.9 111.8 38.05 113.19 37.54"/>
    <polyline class="cls-4" points="112.82 38.56 115.97 40.72 117.36 40.21"/>
    <polyline class="cls-4" points="116.93 41.14 120.08 43.29 121.47 42.79"/>
    <polyline class="cls-4" points="121.01 43.78 124.16 45.93 125.55 45.42"/>
    <polyline class="cls-4" points="125.29 46.27 128.44 48.43 129.83 47.91"/>
    <polyline class="cls-4" points="129.46 48.94 132.61 51.09 133.99 50.58"/>
    <polyline class="cls-4" points="133.62 51.57 136.77 53.72 138.16 53.21"/>
    <polyline class="cls-4" points="137.85 54.06 140.99 56.22 142.38 55.71"/>
    <polyline class="cls-4" points="141.99 56.61 145.13 58.77 146.52 58.26"/>
    <polyline class="cls-4" points="146.18 59.17 149.32 61.32 150.71 60.81"/>
    <polyline class="cls-4" points="150.4 61.77 153.55 63.93 154.94 63.42"/>
    <polyline class="cls-4" points="154.57 64.41 157.72 66.56 159.1 66.05"/>
    <polyline class="cls-4" points="158.79 66.99 161.94 69.14 163.33 68.63"/>
    <polyline class="cls-4" points="162.93 69.56 166.07 71.72 167.46 71.21"/>
    <polyline class="cls-4" points="167.07 72.14 170.21 74.3 171.6 73.79"/>
    <polyline class="cls-4" points="171.4 74.78 174.55 76.93 175.93 76.43"/>
    <polyline class="cls-4" points="175.43 77.33 178.57 79.49 179.96 78.97"/>
    <polyline class="cls-4" points="179.73 79.8 182.88 81.95 184.27 81.44"/>
    <polyline class="cls-4" points="183.76 82.35 186.91 84.5 188.29 83.99"/>
    <path class="cls-4" d="M78.31,12.92l4.11-1.59s.51-.28,1.19.23c.68.51,112.76,69.74,112.76,69.74l-3.86,1.79s-.76.34-2.18-.48c-1.42-.82-112.26-69.32-112.26-69.32,0,0-.11-.23.23-.37Z"/>
    <polyline class="cls-4" points="81.45 12.58 84.6 14.73 85.99 14.22"/>
    <polyline class="cls-4" points="85.59 15.21 88.74 17.36 90.12 16.85"/>
    <polyline class="cls-4" points="89.87 17.73 93.01 19.89 94.4 19.37"/>
    <polyline class="cls-4" points="94.12 20.4 97.27 22.55 98.65 22.04"/>
    <polyline class="cls-4" points="98.31 22.89 101.46 25.04 102.85 24.53"/>
    <polyline class="cls-4" points="102.59 25.47 105.74 27.62 107.13 27.11"/>
    <polyline class="cls-4" points="106.5 28.05 109.65 30.2 111.04 29.69"/>
    <polyline class="cls-4" points="110.76 30.66 113.9 32.81 115.29 32.3"/>
    <polyline class="cls-4" points="115.15 33.15 118.29 35.3 119.68 34.79"/>
    <polyline class="cls-4" points="119.31 35.81 122.46 37.97 123.85 37.46"/>
    <polyline class="cls-4" points="123.42 38.39 126.57 40.55 127.96 40.04"/>
    <polyline class="cls-4" points="127.5 41.03 130.65 43.18 132.04 42.67"/>
    <polyline class="cls-4" points="131.78 43.52 134.93 45.68 136.32 45.16"/>
    <polyline class="cls-4" points="135.95 46.19 139.09 48.34 140.48 47.83"/>
    <polyline class="cls-4" points="140.12 48.82 143.26 50.98 144.65 50.46"/>
    <polyline class="cls-4" points="144.34 51.32 147.48 53.47 148.87 52.96"/>
    <polyline class="cls-4" points="148.47 53.87 151.62 56.02 153.01 55.51"/>
    <polyline class="cls-4" points="152.67 56.42 155.82 58.57 157.2 58.06"/>
    <polyline class="cls-4" points="156.89 59.02 160.04 61.18 161.42 60.67"/>
    <polyline class="cls-4" points="161.06 61.66 164.2 63.81 165.59 63.3"/>
    <polyline class="cls-4" points="165.28 64.24 168.43 66.39 169.81 65.88"/>
    <polyline class="cls-4" points="169.42 66.82 172.57 68.97 173.95 68.46"/>
    <polyline class="cls-4" points="173.55 69.4 176.7 71.55 178.09 71.04"/>
    <polyline class="cls-4" points="177.89 72.03 181.04 74.19 182.43 73.68"/>
    <polyline class="cls-4" points="181.92 74.59 185.06 76.74 186.45 76.22"/>
    <polyline class="cls-4" points="186.22 77.05 189.37 79.2 190.76 78.69"/>
    <polyline class="cls-4" points="190.25 79.6 193.39 81.75 194.78 81.24"/>
    <path class="cls-4" d="M84.99,10.53l4.11-1.59s.51-.29,1.19.23c.68.51,112.76,69.75,112.76,69.75l-3.85,1.79s-.76.34-2.18-.48c-1.42-.82-112.26-69.32-112.26-69.32,0,0-.11-.23.23-.37Z"/>
    <polyline class="cls-4" points="88.14 10.19 91.29 12.35 92.68 11.84"/>
    <polyline class="cls-4" points="92.28 12.83 95.42 14.98 96.81 14.48"/>
    <polyline class="cls-4" points="96.56 15.35 99.7 17.51 101.09 17"/>
    <polyline class="cls-4" points="100.81 18.02 103.96 20.17 105.34 19.66"/>
    <polyline class="cls-4" points="105 20.51 108.15 22.66 109.54 22.16"/>
    <polyline class="cls-4" points="109.28 23.09 112.43 25.24 113.82 24.73"/>
    <polyline class="cls-4" points="113.19 25.67 116.34 27.82 117.73 27.31"/>
    <polyline class="cls-4" points="117.44 28.28 120.59 30.43 121.98 29.92"/>
    <polyline class="cls-4" points="121.84 30.77 124.98 32.92 126.37 32.41"/>
    <polyline class="cls-4" points="126 33.43 129.15 35.59 130.53 35.08"/>
    <polyline class="cls-4" points="130.11 36.01 133.26 38.17 134.65 37.65"/>
    <polyline class="cls-4" points="134.19 38.65 137.34 40.8 138.73 40.29"/>
    <polyline class="cls-4" points="138.47 41.14 141.62 43.3 143 42.79"/>
    <polyline class="cls-4" points="142.64 43.81 145.78 45.96 147.17 45.45"/>
    <polyline class="cls-4" points="146.8 46.44 149.95 48.6 151.34 48.08"/>
    <polyline class="cls-4" points="151.03 48.94 154.17 51.09 155.56 50.58"/>
    <polyline class="cls-4" points="155.16 51.49 158.31 53.64 159.7 53.13"/>
    <polyline class="cls-4" points="159.36 54.03 162.5 56.19 163.89 55.68"/>
    <polyline class="cls-4" points="163.58 56.65 166.73 58.8 168.12 58.29"/>
    <polyline class="cls-4" points="167.75 59.28 170.89 61.43 172.28 60.92"/>
    <polyline class="cls-4" points="171.97 61.86 175.12 64.01 176.5 63.5"/>
    <polyline class="cls-4" points="176.11 64.44 179.25 66.59 180.64 66.08"/>
    <polyline class="cls-4" points="180.24 67.02 183.39 69.17 184.78 68.66"/>
    <polyline class="cls-4" points="184.58 69.65 187.73 71.8 189.11 71.29"/>
    <polyline class="cls-4" points="188.61 72.2 191.75 74.36 193.14 73.85"/>
    <polyline class="cls-4" points="192.91 74.67 196.06 76.82 197.45 76.31"/>
    <polyline class="cls-4" points="196.94 77.22 200.08 79.37 201.47 78.86"/>
    <line class="cls-5" x1="190.9" y1="90.7" x2="190.9" y2="270.71"/>
    <line class="cls-5" x1="170.95" y1="88.21" x2="170.95" y2="267.58"/>
    <polyline class="cls-5" points="63.35 161 66.69 163.04 66.69 164.74"/>
    <polyline class="cls-5" points="63.35 163.89 66.69 165.93 66.69 167.63"/>
    <polyline class="cls-5" points="63.35 166.72 66.69 168.76 66.69 170.46"/>
    <polyline class="cls-5" points="63.35 169.61 66.69 171.65 66.69 173.34"/>
    <polyline class="cls-5" points="63.35 172.39 66.69 174.43 66.69 176.13"/>
    <polyline class="cls-5" points="63.35 175.22 66.69 177.26 66.69 178.96"/>
    <polyline class="cls-5" points="63.35 178.11 66.69 180.15 66.69 181.85"/>
    <polyline class="cls-5" points="63.35 180.93 66.69 182.98 66.69 184.68"/>
    <polyline class="cls-5" points="63.35 183.83 66.69 185.87 66.69 187.57"/>
    <polyline class="cls-5" points="63.35 186.73 66.69 188.78 66.69 190.48"/>
    <polyline class="cls-5" points="63.35 189.5 66.69 191.54 66.69 193.24"/>
    <polyline class="cls-5" points="63.35 192.26 66.69 194.3 66.69 196"/>
    <polyline class="cls-5" points="63.35 195.15 66.69 197.19 66.69 198.9"/>
    <polyline class="cls-5" points="63.35 161 66.69 163.04 66.69 164.74"/>
    <polyline class="cls-5" points="63.35 163.89 66.69 165.93 66.69 167.63"/>
    <polyline class="cls-5" points="63.35 166.72 66.69 168.76 66.69 170.46"/>
    <polyline class="cls-5" points="63.35 169.61 66.69 171.65 66.69 173.34"/>
    <polyline class="cls-5" points="63.35 172.39 66.69 174.43 66.69 176.13"/>
    <polyline class="cls-5" points="63.35 175.22 66.69 177.26 66.69 178.96"/>
    <polyline class="cls-5" points="63.35 178.11 66.69 180.15 66.69 181.85"/>
    <polyline class="cls-5" points="63.35 180.93 66.69 182.98 66.69 184.68"/>
    <polyline class="cls-5" points="63.35 183.83 66.69 185.87 66.69 187.57"/>
    <polyline class="cls-5" points="63.35 186.73 66.69 188.78 66.69 190.48"/>
    <polyline class="cls-5" points="63.35 189.5 66.69 191.54 66.69 193.24"/>
    <polyline class="cls-5" points="63.35 192.26 66.69 194.3 66.69 196"/>
    <polyline class="cls-5" points="63.35 195.15 66.69 197.19 66.69 198.9"/>
    <polyline class="cls-5" points="67.4 163.5 70.74 165.55 70.74 167.25"/>
    <polyline class="cls-5" points="67.4 166.39 70.74 168.44 70.74 170.14"/>
    <polyline class="cls-5" points="67.4 169.22 70.74 171.26 70.74 172.97"/>
    <polyline class="cls-5" points="67.4 172.11 70.74 174.15 70.74 175.85"/>
    <polyline class="cls-5" points="67.4 174.9 70.74 176.94 70.74 178.64"/>
    <polyline class="cls-5" points="67.4 177.72 70.74 179.76 70.74 181.46"/>
    <polyline class="cls-5" points="67.4 180.61 70.74 182.65 70.74 184.36"/>
    <polyline class="cls-5" points="67.4 183.44 70.74 185.48 70.74 187.18"/>
    <polyline class="cls-5" points="67.4 186.33 70.74 188.37 70.74 190.07"/>
    <polyline class="cls-5" points="67.4 189.24 70.74 191.28 70.74 192.98"/>
    <polyline class="cls-5" points="67.4 192.01 70.74 194.04 70.74 195.75"/>
    <polyline class="cls-5" points="67.4 194.77 70.74 196.81 70.74 198.51"/>
    <polyline class="cls-5" points="67.4 197.66 70.74 199.7 70.74 201.4"/>
    <polyline class="cls-5" points="71.45 166.01 74.78 168.05 74.78 169.75"/>
    <polyline class="cls-5" points="71.45 168.9 74.78 170.94 74.78 172.64"/>
    <polyline class="cls-5" points="71.45 171.73 74.78 173.77 74.78 175.47"/>
    <polyline class="cls-5" points="71.45 174.62 74.78 176.66 74.78 178.36"/>
    <polyline class="cls-5" points="71.45 177.4 74.78 179.44 74.78 181.15"/>
    <polyline class="cls-5" points="71.45 180.23 74.78 182.27 74.78 183.97"/>
    <polyline class="cls-5" points="71.45 183.12 74.78 185.16 74.78 186.86"/>
    <polyline class="cls-5" points="71.45 185.95 74.78 187.98 74.78 189.69"/>
    <polyline class="cls-5" points="71.45 188.84 74.78 190.88 74.78 192.58"/>
    <polyline class="cls-5" points="71.45 191.75 74.78 193.79 74.78 195.49"/>
    <polyline class="cls-5" points="71.45 194.51 74.78 196.55 74.78 198.25"/>
    <polyline class="cls-5" points="71.45 197.27 74.78 199.32 74.78 201.02"/>
    <polyline class="cls-5" points="71.45 200.17 74.78 202.21 74.78 203.91"/>
    <polyline class="cls-5" points="75.5 168.52 78.83 170.56 78.83 172.26"/>
    <polyline class="cls-5" points="75.5 171.41 78.83 173.45 78.83 175.15"/>
    <polyline class="cls-5" points="75.5 174.24 78.83 176.28 78.83 177.97"/>
    <polyline class="cls-5" points="75.5 177.13 78.83 179.16 78.83 180.86"/>
    <polyline class="cls-5" points="75.5 179.91 78.83 181.95 78.83 183.65"/>
    <polyline class="cls-5" points="75.5 182.73 78.83 184.77 78.83 186.48"/>
    <polyline class="cls-5" points="75.5 185.62 78.83 187.67 78.83 189.37"/>
    <polyline class="cls-5" points="75.5 188.45 78.83 190.49 78.83 192.19"/>
    <polyline class="cls-5" points="75.5 191.34 78.83 193.38 78.83 195.09"/>
    <polyline class="cls-5" points="75.5 194.26 78.83 196.3 78.83 198"/>
    <polyline class="cls-5" points="75.5 197.02 78.83 199.06 78.83 200.76"/>
    <polyline class="cls-5" points="75.5 199.78 78.83 201.82 78.83 203.52"/>
    <polyline class="cls-5" points="75.5 202.67 78.83 204.71 78.83 206.42"/>
    <polyline class="cls-5" points="79.54 171.02 82.88 173.07 82.88 174.77"/>
    <polyline class="cls-5" points="79.54 173.91 82.88 175.95 82.88 177.66"/>
    <polyline class="cls-5" points="79.54 176.74 82.88 178.78 82.88 180.48"/>
    <polyline class="cls-5" points="79.54 179.63 82.88 181.67 82.88 183.37"/>
    <polyline class="cls-5" points="79.54 182.41 82.88 184.46 82.88 186.16"/>
    <polyline class="cls-5" points="79.54 185.24 82.88 187.28 82.88 188.98"/>
    <polyline class="cls-5" points="79.54 188.13 82.88 190.17 82.88 191.87"/>
    <polyline class="cls-5" points="79.54 190.96 82.88 193 82.88 194.7"/>
    <polyline class="cls-5" points="79.54 193.85 82.88 195.89 82.88 197.59"/>
    <polyline class="cls-5" points="79.54 196.76 82.88 198.8 82.88 200.5"/>
    <polyline class="cls-5" points="79.54 199.52 82.88 201.56 82.88 203.27"/>
    <polyline class="cls-5" points="79.54 202.29 82.88 204.33 82.88 206.03"/>
    <polyline class="cls-5" points="79.54 205.18 82.88 207.22 82.88 208.92"/>
    <polyline class="cls-5" points="83.59 173.53 86.93 175.57 86.93 177.27"/>
    <polyline class="cls-5" points="83.59 176.42 86.93 178.46 86.93 180.16"/>
    <polyline class="cls-5" points="83.59 179.25 86.93 181.29 86.93 182.99"/>
    <polyline class="cls-5" points="83.59 182.14 86.93 184.18 86.93 185.88"/>
    <polyline class="cls-5" points="83.59 184.92 86.93 186.96 86.93 188.66"/>
    <polyline class="cls-5" points="83.59 187.75 86.93 189.79 86.93 191.49"/>
    <polyline class="cls-5" points="83.59 190.64 86.93 192.68 86.93 194.38"/>
    <polyline class="cls-5" points="83.59 193.46 86.93 195.51 86.93 197.21"/>
    <polyline class="cls-5" points="83.59 196.35 86.93 198.4 86.93 200.1"/>
    <polyline class="cls-5" points="83.59 199.27 86.93 201.31 86.93 203.01"/>
    <polyline class="cls-5" points="83.59 202.03 86.93 204.07 86.93 205.77"/>
    <polyline class="cls-5" points="83.59 204.79 86.93 206.83 86.93 208.54"/>
    <polyline class="cls-5" points="83.59 207.68 86.93 209.73 86.93 211.43"/>
    <polyline class="cls-5" points="87.64 176.04 90.98 178.08 90.98 179.78"/>
    <polyline class="cls-5" points="87.64 178.93 90.98 180.97 90.98 182.67"/>
    <polyline class="cls-5" points="87.64 181.76 90.98 183.79 90.98 185.49"/>
    <polyline class="cls-5" points="87.64 184.64 90.98 186.68 90.98 188.39"/>
    <polyline class="cls-5" points="87.64 187.43 90.98 189.47 90.98 191.17"/>
    <polyline class="cls-5" points="87.64 190.25 90.98 192.29 90.98 194"/>
    <polyline class="cls-5" points="87.64 193.14 90.98 195.19 90.98 196.89"/>
    <polyline class="cls-5" points="87.64 195.97 90.98 198.01 90.98 199.71"/>
    <polyline class="cls-5" points="87.64 198.86 90.98 200.9 90.98 202.6"/>
    <polyline class="cls-5" points="87.64 201.77 90.98 203.81 90.98 205.51"/>
    <polyline class="cls-5" points="87.64 204.53 90.98 206.58 90.98 208.28"/>
    <polyline class="cls-5" points="87.64 207.3 90.98 209.34 90.98 211.04"/>
    <polyline class="cls-5" points="87.64 210.19 90.98 212.23 90.98 213.93"/>
    <polyline class="cls-5" points="91.69 178.54 95.03 180.58 95.03 182.28"/>
    <polyline class="cls-5" points="91.69 181.43 95.03 183.47 95.03 185.18"/>
    <polyline class="cls-5" points="91.69 184.26 95.03 186.3 95.03 188"/>
    <polyline class="cls-5" points="91.69 187.15 95.03 189.19 95.03 190.89"/>
    <polyline class="cls-5" points="91.69 189.93 95.03 191.98 95.03 193.68"/>
    <polyline class="cls-5" points="91.69 192.76 95.03 194.8 95.03 196.5"/>
    <polyline class="cls-5" points="91.69 195.65 95.03 197.69 95.03 199.39"/>
    <polyline class="cls-5" points="91.69 198.48 95.03 200.52 95.03 202.22"/>
    <polyline class="cls-5" points="91.69 201.37 95.03 203.41 95.03 205.11"/>
    <polyline class="cls-5" points="91.69 204.28 95.03 206.32 95.03 208.02"/>
    <polyline class="cls-5" points="91.69 207.04 95.03 209.08 95.03 210.78"/>
    <polyline class="cls-5" points="91.69 209.81 95.03 211.85 95.03 213.55"/>
    <polyline class="cls-5" points="91.69 212.7 95.03 214.74 95.03 216.44"/>
    <polyline class="cls-5" points="95.74 181.05 99.08 183.09 99.08 184.79"/>
    <polyline class="cls-5" points="95.74 183.94 99.08 185.98 99.08 187.68"/>
    <polyline class="cls-5" points="95.74 186.77 99.08 188.8 99.08 190.51"/>
    <polyline class="cls-5" points="95.74 189.65 99.08 191.7 99.08 193.4"/>
    <polyline class="cls-5" points="95.74 192.44 99.08 194.48 99.08 196.18"/>
    <polyline class="cls-5" points="95.74 195.27 99.08 197.31 99.08 199.01"/>
    <polyline class="cls-5" points="95.74 198.16 99.08 200.2 99.08 201.9"/>
    <polyline class="cls-5" points="95.74 200.98 99.08 203.02 99.08 204.72"/>
    <polyline class="cls-5" points="95.74 203.87 99.08 205.92 99.08 207.62"/>
    <polyline class="cls-5" points="95.74 206.79 99.08 208.82 99.08 210.53"/>
    <polyline class="cls-5" points="95.74 209.55 99.08 211.59 99.08 213.29"/>
    <polyline class="cls-5" points="95.74 212.31 99.08 214.35 99.08 216.06"/>
    <polyline class="cls-5" points="95.74 215.2 99.08 217.24 99.08 218.94"/>
    <polyline class="cls-5" points="99.79 183.55 103.12 185.59 103.12 187.3"/>
    <polyline class="cls-5" points="99.79 186.44 103.12 188.48 103.12 190.19"/>
    <polyline class="cls-5" points="99.79 189.27 103.12 191.31 103.12 193.01"/>
    <polyline class="cls-5" points="99.79 192.16 103.12 194.2 103.12 195.9"/>
    <polyline class="cls-5" points="99.79 194.94 103.12 196.98 103.12 198.69"/>
    <polyline class="cls-5" points="99.79 197.77 103.12 199.81 103.12 201.51"/>
    <polyline class="cls-5" points="99.79 200.66 103.12 202.7 103.12 204.4"/>
    <polyline class="cls-5" points="99.79 203.49 103.12 205.53 103.12 207.23"/>
    <polyline class="cls-5" points="99.79 206.38 103.12 208.42 103.12 210.12"/>
    <polyline class="cls-5" points="99.79 209.29 103.12 211.33 103.12 213.03"/>
    <polyline class="cls-5" points="99.79 212.05 103.12 214.1 103.12 215.8"/>
    <polyline class="cls-5" points="99.79 214.82 103.12 216.86 103.12 218.56"/>
    <polyline class="cls-5" points="99.79 217.71 103.12 219.75 103.12 221.45"/>
    <polyline class="cls-5" points="103.84 186.06 107.17 188.1 107.17 189.8"/>
    <polyline class="cls-5" points="103.84 188.95 107.17 190.99 107.17 192.69"/>
    <polyline class="cls-5" points="103.84 191.78 107.17 193.82 107.17 195.52"/>
    <polyline class="cls-5" points="103.84 194.67 107.17 196.71 107.17 198.41"/>
    <polyline class="cls-5" points="103.84 197.45 107.17 199.49 107.17 201.19"/>
    <polyline class="cls-5" points="103.84 200.28 107.17 202.32 107.17 204.02"/>
    <polyline class="cls-5" points="103.84 203.17 107.17 205.21 107.17 206.91"/>
    <polyline class="cls-5" points="103.84 205.99 107.17 208.04 107.17 209.73"/>
    <polyline class="cls-5" points="103.84 208.88 107.17 210.93 107.17 212.63"/>
    <polyline class="cls-5" points="103.84 211.8 107.17 213.84 107.17 215.54"/>
    <polyline class="cls-5" points="103.84 214.56 107.17 216.6 107.17 218.3"/>
    <polyline class="cls-5" points="103.84 217.32 107.17 219.37 107.17 221.07"/>
    <polyline class="cls-5" points="103.84 220.22 107.17 222.25 107.17 223.96"/>
    <polyline class="cls-5" points="107.89 188.57 111.22 190.61 111.22 192.31"/>
    <polyline class="cls-5" points="107.89 191.46 111.22 193.5 111.22 195.2"/>
    <polyline class="cls-5" points="107.89 194.28 111.22 196.32 111.22 198.03"/>
    <polyline class="cls-5" points="107.89 197.17 111.22 199.21 111.22 200.92"/>
    <polyline class="cls-5" points="107.89 199.95 111.22 202 111.22 203.7"/>
    <polyline class="cls-5" points="107.89 202.78 111.22 204.83 111.22 206.52"/>
    <polyline class="cls-5" points="107.89 205.67 111.22 207.71 111.22 209.41"/>
    <polyline class="cls-5" points="107.89 208.5 111.22 210.54 111.22 212.24"/>
    <polyline class="cls-5" points="107.89 211.39 111.22 213.43 111.22 215.13"/>
    <polyline class="cls-5" points="107.89 214.31 111.22 216.34 111.22 218.05"/>
    <polyline class="cls-5" points="107.89 217.07 111.22 219.11 111.22 220.81"/>
    <polyline class="cls-5" points="107.89 219.83 111.22 221.87 111.22 223.57"/>
    <polyline class="cls-5" points="107.89 222.72 111.22 224.76 111.22 226.46"/>
    <polyline class="cls-5" points="111.93 191.07 115.27 193.11 115.27 194.82"/>
    <polyline class="cls-5" points="111.93 193.96 115.27 196 115.27 197.71"/>
    <polyline class="cls-5" points="111.93 196.79 115.27 198.83 115.27 200.53"/>
    <polyline class="cls-5" points="111.93 199.68 115.27 201.72 115.27 203.42"/>
    <polyline class="cls-5" points="111.93 202.47 115.27 204.5 115.27 206.2"/>
    <polyline class="cls-5" points="111.93 205.29 115.27 207.33 115.27 209.03"/>
    <polyline class="cls-5" points="111.93 208.18 115.27 210.22 115.27 211.92"/>
    <polyline class="cls-5" points="111.93 211.01 115.27 213.05 115.27 214.75"/>
    <polyline class="cls-5" points="111.93 213.9 115.27 215.94 115.27 217.64"/>
    <polyline class="cls-5" points="111.93 216.81 115.27 218.85 115.27 220.55"/>
    <polyline class="cls-5" points="111.93 219.57 115.27 221.61 115.27 223.31"/>
    <polyline class="cls-5" points="111.93 222.34 115.27 224.38 115.27 226.08"/>
    <polyline class="cls-5" points="115.98 193.58 119.32 195.62 119.32 197.32"/>
    <polyline class="cls-5" points="115.98 196.47 119.32 198.51 119.32 200.21"/>
    <polyline class="cls-5" points="115.98 199.3 119.32 201.34 119.32 203.04"/>
    <polyline class="cls-5" points="115.98 202.19 119.32 204.23 119.32 205.93"/>
    <polyline class="cls-5" points="115.98 204.97 119.32 207.01 119.32 208.71"/>
    <polyline class="cls-5" points="115.98 207.8 119.32 209.84 119.32 211.54"/>
    <polyline class="cls-5" points="115.98 210.69 119.32 212.73 119.32 214.43"/>
    <polyline class="cls-5" points="115.98 213.51 119.32 215.56 119.32 217.25"/>
    <polyline class="cls-5" points="115.98 216.41 119.32 218.44 119.32 220.15"/>
    <polyline class="cls-5" points="115.98 219.32 119.32 221.36 119.32 223.06"/>
    <polyline class="cls-5" points="115.98 222.08 119.32 224.12 119.32 225.82"/>
    <polyline class="cls-5" points="115.98 224.84 119.32 226.88 119.32 228.58"/>
    <polyline class="cls-5" points="120.03 196.09 123.37 198.13 123.37 199.83"/>
    <polyline class="cls-5" points="120.03 198.98 123.37 201.02 123.37 202.72"/>
    <polyline class="cls-5" points="120.03 201.8 123.37 203.84 123.37 205.54"/>
    <polyline class="cls-5" points="120.03 204.69 123.37 206.73 123.37 208.43"/>
    <polyline class="cls-5" points="120.03 207.48 123.37 209.52 123.37 211.22"/>
    <polyline class="cls-5" points="120.03 210.3 123.37 212.34 123.37 214.04"/>
    <polyline class="cls-5" points="120.03 213.19 123.37 215.23 123.37 216.94"/>
    <polyline class="cls-5" points="120.03 216.02 123.37 218.06 123.37 219.76"/>
    <polyline class="cls-5" points="120.03 218.91 123.37 220.95 123.37 222.65"/>
    <polyline class="cls-5" points="120.03 221.82 123.37 223.86 123.37 225.56"/>
    <polyline class="cls-5" points="120.03 224.58 123.37 226.63 123.37 228.32"/>
    <polyline class="cls-5" points="120.03 227.35 123.37 229.39 123.37 231.09"/>
    <polyline class="cls-5" points="124.08 198.59 127.42 200.63 127.42 202.33"/>
    <polyline class="cls-5" points="124.08 201.48 127.42 203.52 127.42 205.22"/>
    <polyline class="cls-5" points="124.08 204.31 127.42 206.35 127.42 208.05"/>
    <polyline class="cls-5" points="124.08 207.2 127.42 209.24 127.42 210.94"/>
    <polyline class="cls-5" points="124.08 209.98 127.42 212.02 127.42 213.72"/>
    <polyline class="cls-5" points="124.08 212.81 127.42 214.85 127.42 216.55"/>
    <polyline class="cls-5" points="124.08 215.7 127.42 217.74 127.42 219.44"/>
    <polyline class="cls-5" points="124.08 218.53 127.42 220.57 127.42 222.27"/>
    <polyline class="cls-5" points="124.08 221.42 127.42 223.46 127.42 225.16"/>
    <polyline class="cls-5" points="124.08 224.33 127.42 226.37 127.42 228.07"/>
    <polyline class="cls-5" points="124.08 227.09 127.42 229.13 127.42 230.83"/>
    <polyline class="cls-5" points="124.08 229.85 127.42 231.89 127.42 233.6"/>
    <polyline class="cls-5" points="128.13 201.1 131.47 203.14 131.47 204.84"/>
    <polyline class="cls-5" points="128.13 203.99 131.47 206.03 131.47 207.73"/>
    <polyline class="cls-5" points="128.13 206.81 131.47 208.85 131.47 210.55"/>
    <polyline class="cls-5" points="128.13 209.7 131.47 211.74 131.47 213.44"/>
    <polyline class="cls-5" points="128.13 212.49 131.47 214.53 131.47 216.23"/>
    <polyline class="cls-5" points="128.13 215.32 131.47 217.35 131.47 219.05"/>
    <polyline class="cls-5" points="128.13 218.2 131.47 220.24 131.47 221.95"/>
    <polyline class="cls-5" points="128.13 221.03 131.47 223.07 131.47 224.77"/>
    <polyline class="cls-5" points="128.13 223.92 131.47 225.96 131.47 227.66"/>
    <polyline class="cls-5" points="128.13 226.83 131.47 228.87 131.47 230.58"/>
    <polyline class="cls-5" points="128.13 229.6 131.47 231.64 131.47 233.34"/>
    <polyline class="cls-5" points="128.13 232.36 131.47 234.4 131.47 236.1"/>
    <polyline class="cls-5" points="128.13 235.25 131.47 237.29 131.47 238.99"/>
    <polyline class="cls-5" points="132.18 203.6 135.51 205.64 135.51 207.34"/>
    <polyline class="cls-5" points="132.18 206.49 135.51 208.53 135.51 210.23"/>
    <polyline class="cls-5" points="132.18 209.32 135.51 211.36 135.51 213.06"/>
    <polyline class="cls-5" points="132.18 212.21 135.51 214.25 135.51 215.95"/>
    <polyline class="cls-5" points="132.18 214.99 135.51 217.03 135.51 218.74"/>
    <polyline class="cls-5" points="132.18 217.82 135.51 219.86 135.51 221.56"/>
    <polyline class="cls-5" points="132.18 220.71 135.51 222.75 135.51 224.45"/>
    <polyline class="cls-5" points="132.18 223.54 135.51 225.58 135.51 227.28"/>
    <polyline class="cls-5" points="132.18 226.43 135.51 228.47 135.51 230.17"/>
    <polyline class="cls-5" points="132.18 229.34 135.51 231.38 135.51 233.08"/>
    <polyline class="cls-5" points="132.18 232.1 135.51 234.14 135.51 235.84"/>
    <polyline class="cls-5" points="132.18 234.87 135.51 236.91 135.51 238.61"/>
    <polyline class="cls-5" points="132.18 237.76 135.51 239.8 135.51 241.5"/>
    <polyline class="cls-5" points="136.23 206.11 139.56 208.15 139.56 209.85"/>
    <polyline class="cls-5" points="136.23 209 139.56 211.04 139.56 212.74"/>
    <polyline class="cls-5" points="136.23 211.83 139.56 213.86 139.56 215.57"/>
    <polyline class="cls-5" points="136.23 214.72 139.56 216.76 139.56 218.46"/>
    <polyline class="cls-5" points="136.23 217.5 139.56 219.54 139.56 221.24"/>
    <polyline class="cls-5" points="136.23 220.33 139.56 222.37 139.56 224.07"/>
    <polyline class="cls-5" points="136.23 223.22 139.56 225.26 139.56 226.96"/>
    <polyline class="cls-5" points="136.23 226.04 139.56 228.08 139.56 229.78"/>
    <polyline class="cls-5" points="136.23 228.93 139.56 230.97 139.56 232.68"/>
    <polyline class="cls-5" points="136.23 231.85 139.56 233.89 139.56 235.59"/>
    <polyline class="cls-5" points="136.23 234.61 139.56 236.65 139.56 238.35"/>
    <polyline class="cls-5" points="136.23 237.37 139.56 239.41 139.56 241.11"/>
    <polyline class="cls-5" points="136.23 240.26 139.56 242.31 139.56 244.01"/>
    <polyline class="cls-5" points="140.28 208.62 143.61 210.65 143.61 212.36"/>
    <polyline class="cls-5" points="140.28 211.5 143.61 213.55 143.61 215.25"/>
    <polyline class="cls-5" points="140.28 214.33 143.61 216.37 143.61 218.07"/>
    <polyline class="cls-5" points="140.28 217.22 143.61 219.26 143.61 220.96"/>
    <polyline class="cls-5" points="140.28 220.01 143.61 222.05 143.61 223.75"/>
    <polyline class="cls-5" points="140.28 222.83 143.61 224.87 143.61 226.58"/>
    <polyline class="cls-5" points="140.28 225.72 143.61 227.76 143.61 229.47"/>
    <polyline class="cls-5" points="140.28 228.55 143.61 230.59 143.61 232.29"/>
    <polyline class="cls-5" points="140.28 231.44 143.61 233.48 143.61 235.18"/>
    <polyline class="cls-5" points="140.28 234.35 143.61 236.4 143.61 238.1"/>
    <polyline class="cls-5" points="140.28 237.12 143.61 239.16 143.61 240.86"/>
    <polyline class="cls-5" points="140.28 239.88 143.61 241.92 143.61 243.62"/>
    <polyline class="cls-5" points="140.28 242.77 143.61 244.81 143.61 246.51"/>
    <polyline class="cls-5" points="144.33 211.12 147.66 213.16 147.66 214.86"/>
    <polyline class="cls-5" points="144.33 214.01 147.66 216.05 147.66 217.75"/>
    <polyline class="cls-5" points="144.33 216.84 147.66 218.88 147.66 220.58"/>
    <polyline class="cls-5" points="144.33 219.73 147.66 221.77 147.66 223.47"/>
    <polyline class="cls-5" points="144.33 222.51 147.66 224.55 147.66 226.26"/>
    <polyline class="cls-5" points="144.33 225.34 147.66 227.38 147.66 229.08"/>
    <polyline class="cls-5" points="144.33 228.23 147.66 230.27 147.66 231.97"/>
    <polyline class="cls-5" points="144.33 231.06 147.66 233.1 147.66 234.8"/>
    <polyline class="cls-5" points="144.33 233.95 147.66 235.99 147.66 237.69"/>
    <polyline class="cls-5" points="144.33 236.86 147.66 238.9 147.66 240.6"/>
    <polyline class="cls-5" points="144.33 239.62 147.66 241.66 147.66 243.36"/>
    <polyline class="cls-5" points="144.33 242.38 147.66 244.43 147.66 246.12"/>
    <polyline class="cls-5" points="144.33 245.27 147.66 247.32 147.66 249.02"/>
    <polyline class="cls-5" points="148.37 213.63 151.71 215.67 151.71 217.37"/>
    <polyline class="cls-5" points="148.37 216.52 151.71 218.56 151.71 220.26"/>
    <polyline class="cls-5" points="148.37 219.35 151.71 221.38 151.71 223.09"/>
    <polyline class="cls-5" points="148.37 222.23 151.71 224.28 151.71 225.98"/>
    <polyline class="cls-5" points="148.37 225.02 151.71 227.06 151.71 228.76"/>
    <polyline class="cls-5" points="148.37 227.85 151.71 229.89 151.71 231.59"/>
    <polyline class="cls-5" points="148.37 230.74 151.71 232.78 151.71 234.48"/>
    <polyline class="cls-5" points="148.37 233.56 151.71 235.6 151.71 237.31"/>
    <polyline class="cls-5" points="148.37 236.45 151.71 238.49 151.71 240.2"/>
    <polyline class="cls-5" points="148.37 239.36 151.71 241.41 151.71 243.11"/>
    <polyline class="cls-5" points="148.37 242.13 151.71 244.17 151.71 245.87"/>
    <polyline class="cls-5" points="148.37 244.89 151.71 246.93 151.71 248.63"/>
    <polyline class="cls-5" points="148.37 247.78 151.71 249.82 151.71 251.52"/>
    <polyline class="cls-5" points="152.42 216.13 155.76 218.17 155.76 219.88"/>
    <polyline class="cls-5" points="152.42 219.02 155.76 221.07 155.76 222.76"/>
    <polyline class="cls-5" points="152.42 221.85 155.76 223.89 155.76 225.59"/>
    <polyline class="cls-5" points="152.42 224.74 155.76 226.78 155.76 228.48"/>
    <polyline class="cls-5" points="152.42 227.53 155.76 229.56 155.76 231.27"/>
    <polyline class="cls-5" points="152.42 230.35 155.76 232.39 155.76 234.09"/>
    <polyline class="cls-5" points="152.42 233.24 155.76 235.28 155.76 236.98"/>
    <polyline class="cls-5" points="152.42 236.07 155.76 238.11 155.76 239.81"/>
    <polyline class="cls-5" points="152.42 238.96 155.76 241 155.76 242.7"/>
    <polyline class="cls-5" points="152.42 241.87 155.76 243.91 155.76 245.61"/>
    <polyline class="cls-5" points="152.42 244.63 155.76 246.67 155.76 248.38"/>
    <polyline class="cls-5" points="152.42 247.4 155.76 249.44 155.76 251.14"/>
    <polyline class="cls-5" points="152.42 250.29 155.76 252.33 155.76 254.03"/>
    <polyline class="cls-5" points="156.47 218.64 159.81 220.68 159.81 222.38"/>
    <polyline class="cls-5" points="156.47 221.53 159.81 223.57 159.81 225.27"/>
    <polyline class="cls-5" points="156.47 224.35 159.81 226.4 159.81 228.1"/>
    <polyline class="cls-5" points="156.47 227.25 159.81 229.29 159.81 230.99"/>
    <polyline class="cls-5" points="156.47 230.03 159.81 232.07 159.81 233.77"/>
    <polyline class="cls-5" points="156.47 232.86 159.81 234.9 159.81 236.6"/>
    <polyline class="cls-5" points="156.47 235.75 159.81 237.79 159.81 239.49"/>
    <polyline class="cls-5" points="156.47 238.57 159.81 240.62 159.81 242.32"/>
    <polyline class="cls-5" points="156.47 241.47 159.81 243.51 159.81 245.21"/>
    <polyline class="cls-5" points="156.47 244.38 159.81 246.42 159.81 248.12"/>
    <polyline class="cls-5" points="156.47 247.14 159.81 249.18 159.81 250.88"/>
    <polyline class="cls-5" points="156.47 249.9 159.81 251.95 159.81 253.64"/>
    <polyline class="cls-5" points="156.47 252.79 159.81 254.83 159.81 256.53"/>
    <polyline class="cls-5" points="160.52 221.14 163.86 223.19 163.86 224.89"/>
    <polyline class="cls-5" points="160.52 224.04 163.86 226.08 163.86 227.78"/>
    <polyline class="cls-5" points="160.52 226.86 163.86 228.9 163.86 230.6"/>
    <polyline class="cls-5" points="160.52 229.75 163.86 231.79 163.86 233.49"/>
    <polyline class="cls-5" points="160.52 232.54 163.86 234.58 163.86 236.28"/>
    <polyline class="cls-5" points="160.52 235.36 163.86 237.4 163.86 239.1"/>
    <polyline class="cls-5" points="160.52 238.25 163.86 240.29 163.86 241.99"/>
    <polyline class="cls-5" points="160.52 241.08 163.86 243.12 163.86 244.82"/>
    <polyline class="cls-5" points="160.52 243.97 163.86 246.01 163.86 247.71"/>
    <polyline class="cls-5" points="160.52 246.88 163.86 248.92 163.86 250.62"/>
    <polyline class="cls-5" points="160.52 249.65 163.86 251.69 163.86 253.39"/>
    <polyline class="cls-5" points="160.52 252.41 163.86 254.45 163.86 256.15"/>
    <polyline class="cls-5" points="160.52 255.3 163.86 257.34 163.86 259.04"/>
    <polyline class="cls-5" points="164.57 223.65 167.91 225.69 167.91 227.39"/>
    <polyline class="cls-5" points="164.57 226.54 167.91 228.58 167.91 230.28"/>
    <polyline class="cls-5" points="164.57 229.37 167.91 231.41 167.91 233.11"/>
    <polyline class="cls-5" points="164.57 232.26 167.91 234.3 167.91 236"/>
    <polyline class="cls-5" points="164.57 235.04 167.91 237.08 167.91 238.78"/>
    <polyline class="cls-5" points="164.57 237.87 167.91 239.91 167.91 241.61"/>
    <polyline class="cls-5" points="164.57 240.76 167.91 242.8 167.91 244.5"/>
    <polyline class="cls-5" points="164.57 243.59 167.91 245.63 167.91 247.33"/>
    <polyline class="cls-5" points="164.57 246.48 167.91 248.52 167.91 250.22"/>
    <polyline class="cls-5" points="164.57 249.39 167.91 251.43 167.91 253.13"/>
    <polyline class="cls-5" points="164.57 252.15 167.91 254.19 167.91 255.9"/>
    <polyline class="cls-5" points="164.57 254.92 167.91 256.96 167.91 258.66"/>
    <polyline class="cls-5" points="164.57 257.8 167.91 259.85 167.91 261.55"/>
    <path class="cls-2" d="M201.14,94.88c-.34.19-.67.46-.91.71-.24.01-.57.11-.91.3-1.49.83-2.84,3.26-2.84,5.58,0,2.53,1.73,3.53,3.75,2.41,2.02-1.12,3.75-4.02,3.75-6.55,0-2.32-1.35-3.27-2.84-2.45M200.23,96.76c.29.05.66.43.66,1.1,0,.49-.27,1.03-.66,1.25-.4.22-.67-.02-.67-.51,0-.67.38-1.47.67-1.83M200.23,102.78c-1.55.86-2.83.07-2.83-1.85,0-1.75,1.05-3.52,1.88-3.93-.39.69-.63,1.5-.63,2.16,0,1.14.75,1.52,1.59,1.06.83-.46,1.58-1.66,1.58-2.8,0-.66-.25-1.2-.64-1.46.84-.5,1.88.11,1.88,1.86,0,1.91-1.27,4.1-2.82,4.96"/>
    <polygon class="cls-2" points="198.33 105.81 198.33 106.32 198.57 106.19 198.57 107.12 197.93 106.03 197.2 106.44 197.2 106.94 197.44 106.81 197.44 108.37 197.2 108.49 197.2 109.01 198.17 108.47 198.17 107.97 197.93 108.09 197.93 107.16 198.57 108.25 199.07 107.98 199.07 105.92 199.31 105.78 199.31 105.28 198.33 105.81"/>
    <polygon class="cls-2" points="201.32 105.15 201.32 104.17 199.45 105.2 199.45 106.18 199.88 105.95 199.88 105.47 200.11 105.34 200.11 106.9 199.79 107.07 199.79 107.57 200.98 106.92 200.98 106.41 200.67 106.59 200.67 105.03 200.9 104.91 200.9 105.39 201.32 105.15"/>
    <polygon class="cls-2" points="203.34 104.04 203.34 103.05 201.47 104.08 201.47 105.07 201.89 104.84 201.89 104.36 202.12 104.23 202.12 105.79 201.81 105.96 201.81 106.46 202.99 105.82 202.99 105.3 202.68 105.48 202.68 103.92 202.91 103.79 202.91 104.27 203.34 104.04"/>
    <path class="cls-2" d="M194.84,219.14l1.29-.57-.03.29-1.05.46-.14,1.4-.27.11-.03.34.27-.12-.09.91.32-.14.09-.91,1.74-.78-.05.46s-.01.1-.08.13l-.48.21v.34s.48-.21.48-.21c.22-.09.36-.17.39-.48l.06-.59.27-.13.03-.34-.27.13.14-1.4-1.04.46.03-.29,1.3-.58.03-.33-2.88,1.28-.04.33ZM196.07,219.18l-.04.37-.73.33.04-.37.73-.32ZM196,219.86l-.04.4-.73.32.04-.39.73-.33ZM197.08,218.74l-.03.36-.72.32.03-.37.72-.32ZM197.02,219.41l-.04.4-.73.32.04-.39.72-.32Z"/>
    <path class="cls-2" d="M197.96,218.96c-.05.46-.13.94-.34,1.43l.16.26c.07-.15.2-.41.31-.85.17.26.37.46,1.03.17l1.42-.63.09-.38-1.5.67c-.27.12-.45.14-.56.12l.06-.58.41-.17.03-.35-.4.18.04-.41.47-.21.03-.35-.47.21.04-.38.41-.19.03-.34-.4.18.03-.36-.29.12-.03.37-.52.23-.03.35.52-.23-.04.39-.6.26-.03.35.59-.26-.1,1.02h0s-.13-.23-.13-.25c.01-.13.05-.35.06-.49l-.27.13ZM199.36,216.83l-.03.35,1.1-.49-.05.55-1.05.46-.13,1.32c-.02.26.12.25.25.19l.85-.38c.27-.11.34-.31.4-.87l-.29.05c-.04.44-.05.46-.19.53l-.59.26c-.08.03-.11.05-.1-.05l.08-.85,1.04-.46.12-1.25-1.4.62Z"/>
    <path class="cls-2" d="M202.46,218.56c.13-.21.42-.67.55-1.26.08-.3.2-.95.24-1.28h0s.23-.11.23-.11c-.03.27-.19,1.64-.26,1.87-.02.04-.04.11-.15.16l-.26.12.02.34.29-.13c.14-.05.25-.11.36-.4.13-.35.3-2.03.35-2.46l-.55.24.07-.72-.31.14-.07.71-.25.12-.04.37.25-.11h0c-.02.19-.09.71-.22,1.2-.09.36-.24.64-.29.74-.05.02-.33.18-.67.36l.02-.2.67-.3.03-.29-.67.3.02-.17.62-.27.13-1.27-.63.28.02-.16.69-.31.03-.29-.69.31.02-.17c.35-.18.5-.29.63-.37l-.08-.24c-.44.29-.69.42-1.48.78v.27c.15-.07.34-.15.64-.3l-.02.16-.7.31-.03.29.7-.31v.16s-.63.28-.63.28l-.13,1.27.61-.27v.17s-.65.28-.65.28l-.03.29.63-.28-.02.22c-.33.16-.52.25-.7.33v.32c.39-.19.9-.44,1.47-.76l.22.08ZM201.63,216.91l-.02.24-.34.15.03-.23.34-.15ZM201.59,217.39l-.02.25-.35.15.03-.25.34-.15ZM202.27,216.63l-.02.24-.35.16.02-.24.35-.16ZM202.23,217.11l-.03.25-.35.16.02-.25.35-.15Z"/>
    <path class="cls-2" d="M174.32,147.01c.01.11.07.17.18.18l2.09.29c.11.02.19.05.24.09.07.04.1.11.11.19.02.18-.05.37-.18.58-.13.19-.25.32-.4.4-.05.02-.07.05-.06.08.01.14.09.22.21.24.06,0,.15-.07.29-.2.14-.13.25-.3.34-.5.1-.2.13-.38.12-.55-.03-.18-.09-.32-.2-.44-.1-.1-.23-.17-.4-.19l-2.2-.31c-.11-.02-.16.03-.14.15M175.65,148.2c.03.35.03.6.01.77-.06.41-.23.72-.51.95-.02.02-.03.05-.03.08.01.11.07.18.19.21.06,0,.15-.09.29-.27.14-.19.24-.43.31-.71.06-.29.07-.62.02-.98-.02-.14-.08-.21-.17-.23-.09-.01-.12.05-.12.18"/>
    <path class="cls-2" d="M178.25,147.26l1.87.27c.1.01.17.08.19.19,0,.11-.05.15-.15.14l-1.86-.27c-.11-.01-.17-.07-.18-.19-.02-.11.03-.16.14-.15M178.08,148l2.11.3c.18.02.31.09.4.19.09.11.15.22.17.36.03.25-.03.55-.2.91-.35.73-.97,1.03-1.9.91-.11-.02-.17-.1-.19-.25,0-.06.03-.09.1-.09.47.05.82.02,1.05-.1.29-.14.5-.36.65-.67.14-.29.2-.54.17-.75-.01-.1-.08-.16-.21-.18l-2.1-.3c-.11-.02-.17-.08-.19-.19-.02-.1.04-.15.15-.13"/>
    <path class="cls-2" d="M181.56,149.32c.01.1.07.16.18.17l2.32.32c.09.02.14-.03.15-.12-.03-.11-.09-.17-.19-.18l-2.32-.33c-.11-.02-.16.03-.14.13"/>
    <path class="cls-2" d="M185.95,148.54l-.76,1.96c-.08.22-.12.37-.11.43.02.17.13.26.34.29-.01,0,.24,0,.75-.02.49-.01.9-.05,1.25-.09.13.25.22.41.27.51.03.07.06.1.12.11.11,0,.16-.04.15-.13,0,0-.02-.05-.06-.13-.21-.38-.44-.81-.71-1.27-.05-.08-.09-.13-.12-.13-.11-.02-.16.03-.15.14,0,.03.03.08.06.15l.25.43c-.3.04-.65.06-1.07.07-.34.02-.54.03-.62.03-.07-.01-.11-.04-.12-.12,0-.04,0-.09.04-.16l.72-1.88c.03-.06.03-.11.03-.13-.01-.12-.06-.17-.14-.19-.05,0-.1.03-.13.11"/>
    <path class="cls-2" d="M178.14,167.94c-.08-.01-.12.05-.11.14.02.09.07.15.15.17l.58.08c.07,0,.1-.04.09-.13s-.05-.16-.13-.17l-.58-.08ZM177.85,167.04c-.08,0-.12.05-.11.14.01.09.06.15.15.16l1.08.15.02.16-1.24-.18c-.19-.02-.27.07-.25.28l.05.35c.01.09.06.17.16.18.1.01.13-.04.13-.14l-.03-.27c0-.06.02-.09.06-.09l1.17.17.1.78c.01.09.06.14.15.16.09,0,.13-.04.11-.12l-.1-.78,1.22.17s.04.03.05.1c0,.02,0,.07,0,.11,0,.05-.01.09-.02.12-.01.01,0,.02,0,.03.02.08.07.15.14.18.09.01.14-.03.17-.08.02-.1,0-.19,0-.27-.04-.3-.18-.46-.43-.5l-1.16-.16-.02-.16,1.11.16c.08,0,.12-.03.11-.13,0-.1-.06-.15-.14-.18l-2.46-.35ZM178.19,168.39c-.09-.01-.12.03-.11.13.02.09.07.14.15.16l.57.08c.08,0,.11-.04.1-.13-.01-.11-.05-.16-.13-.17l-.58-.08ZM179.64,168.16c-.08-.01-.12.04-.11.13.01.09.07.15.15.17l.59.09c.08,0,.11-.04.11-.13-.02-.1-.06-.16-.15-.17l-.59-.08ZM179.7,168.6c-.08-.01-.13.03-.11.13.01.09.07.15.15.16l.59.09c.08,0,.11-.04.11-.13-.03-.11-.07-.16-.15-.17l-.59-.08ZM177.95,169.09l.09.74c.02.2.13.3.3.33l.96.13v.1c.05.29.2.46.46.5l.79.11c.19.03.35.02.47-.02.11-.04.16-.12.16-.23.01-.11.01-.22,0-.31-.02-.13-.07-.21-.17-.23-.09,0-.13.05-.12.14.01.21-.01.32-.08.35-.07.03-.19.04-.33.02l-.79-.11c-.06-.01-.11-.08-.12-.23v-.05s.92.13.92.13c.18.03.25-.05.23-.25l-.09-.73c-.02-.21-.12-.31-.31-.34l-2.16-.31c-.18-.03-.25.06-.23.26M179.54,170.04l-.03-.21.92.13v.11c.02.07,0,.1-.07.09l-.82-.11ZM178.4,169.88c-.06,0-.09-.05-.09-.11v-.11s.93.13.93.13l.03.21-.86-.12ZM178.24,169.23c0-.06.01-.09.07-.09l.86.12.03.23-.94-.13-.02-.13ZM180.27,169.42c.06.01.1.05.11.11l.02.13-.92-.13-.03-.23.82.11Z"/>
    <path class="cls-2" d="M181.25,168.06c-.08,0-.12.04-.11.14.01.09.06.15.15.17l1.1.15c.09,0,.12-.04.11-.13-.01-.1-.06-.16-.15-.18l-1.11-.16ZM181.35,167.59c-.08,0-.12.04-.11.15.01.09.07.14.14.16l.78.11c.08,0,.13-.03.11-.12-.01-.1-.07-.17-.15-.18l-.78-.11ZM181.47,168.61c-.08,0-.12.04-.11.14,0,.08.06.14.14.15l.78.11c.08,0,.13-.03.11-.12-.01-.1-.07-.16-.15-.18l-.78-.11ZM181.53,169.14c-.08-.01-.12.03-.11.13,0,.09.06.15.14.16l.81.11c.08,0,.12-.03.11-.12-.02-.1-.07-.16-.15-.17l-.81-.11ZM181.37,169.92l.11.9c.02.19.12.3.29.32l.83.12c.17.02.25-.05.23-.24l-.11-.9c-.02-.19-.13-.3-.3-.32l-.83-.11c-.17-.03-.24.05-.22.25M181.83,170.86c-.05,0-.09-.05-.09-.1l-.08-.69c0-.06.02-.09.07-.09l.63.09c.05,0,.08.04.09.11l.09.68c0,.05-.02.09-.07.08l-.63-.09ZM184.08,167.89c-.22.02-.42.03-.61.02-.17,0-.41-.02-.68-.05-.08,0-.13.05-.12.12.01.1.07.16.15.17.22.02.42.05.57.06l.06.55-.73-.11c-.09,0-.11.03-.11.14.02.09.06.14.15.16l.74.1.07.56-.45-.07c-.18-.03-.25.06-.23.25l.16,1.23c.02.19.12.3.29.33l1.17.16c.17.03.25-.06.23-.25l-.15-1.24c-.03-.19-.12-.3-.29-.32l-.42-.06-.07-.55.64.09c.08,0,.13-.04.12-.12-.01-.11-.07-.16-.15-.18l-.64-.09-.07-.59c.16,0,.32,0,.51-.02.07-.02.11-.05.1-.13-.03-.11-.07-.17-.17-.18t-.03,0M183.39,171.08c-.06,0-.09-.05-.1-.1l-.13-1.02c0-.06.03-.08.08-.07l.97.14c.06,0,.09.04.1.1l.13,1.02c0,.05-.02.08-.07.08l-.97-.14Z"/>
    <path class="cls-2" d="M178.21,177.95l-.92,2.42s-.02.1-.01.17c.01.08.06.14.15.16.07,0,.12-.03.17-.09l.27-.74,1.44.2.45.84c.05.07.11.12.19.13.08,0,.12-.04.12-.12l-.07-.18-1.5-2.76c-.06-.1-.11-.14-.15-.15-.07-.01-.11.02-.13.11M178.41,178.38l.71,1.35-1.13-.16.42-1.18Z"/>
    <path class="cls-2" d="M181.2,178.25c.3.04.56.16.77.35.07.06.12.12.17.19.11.15.17.27.19.37,0,.13-.05.19-.17.17-.07,0-.1-.05-.11-.1-.06-.15-.16-.3-.31-.43-.14-.13-.31-.2-.51-.23-.18-.03-.32-.01-.44.03-.14.07-.25.2-.32.37-.07.19-.09.43-.06.73.05.43.21.75.49.98.18.14.35.23.53.25.17.03.34,0,.48-.1.15-.09.25-.22.3-.4.01-.06.04-.08.1-.07.12.02.19.09.22.22,0,.11-.05.23-.17.35-.1.13-.21.21-.31.25-.17.08-.37.1-.57.07s-.43-.13-.65-.29c-.21-.15-.38-.33-.51-.53-.12-.2-.21-.46-.25-.79-.07-.62.08-1.05.43-1.29.18-.12.41-.16.69-.11"/>
    <path class="cls-2" d="M182.6,178.51c-.13-.02-.18.02-.17.14.01.11.08.17.21.19l.87.13.3,2.44c.02.13.08.21.19.23.1.01.14-.06.13-.19l-.3-2.44.87.12c.11.02.17-.03.16-.14-.02-.11-.09-.18-.21-.19l-2.07-.29Z"/>
    <path class="cls-2" d="M178.77,190l1,.14-.07.59-.69-.1-.24-.63ZM177.66,187.39c.01.08.07.14.17.16l.71.1s0,.04-.03.1c-.04.14-.12.27-.24.38-.11-.1-.22-.19-.31-.27-.1-.08-.21-.16-.35-.25-.05-.04-.1-.05-.15-.06-.07,0-.11.04-.12.11,0,.04.03.09.06.15.14.1.25.19.33.26.1.07.19.15.29.24-.16.09-.37.17-.62.23-.05.03-.08.08-.07.17.03.08.09.12.17.15.01,0,.03,0,.06-.01.31-.09.58-.21.76-.36.02.09.07.15.16.16l1.38.19c.09,0,.13-.03.12-.12.22.19.45.36.71.5.04.03.07.04.08.04.09,0,.13-.03.14-.11-.01-.09-.07-.17-.13-.19-.24-.15-.45-.3-.61-.44.15-.08.27-.19.39-.31.03-.04.05-.08.04-.13-.03-.09-.08-.15-.15-.17-.06,0-.11,0-.15.03-.12.13-.26.23-.42.32h0c-.05-.05-.12-.11-.17-.17,0,0,.01,0,.01,0,.15-.08.27-.18.37-.29.03-.04.05-.09.04-.14-.02-.09-.07-.14-.15-.16-.06,0-.11,0-.15.03-.1.11-.22.2-.36.28-.07-.1-.14-.19-.21-.3-.05-.03-.11-.05-.15-.06-.08-.01-.11.03-.11.12,0,.02.02.06.05.1.23.36.47.65.71.87l-1.27-.18c.13-.13.23-.31.3-.52.03-.11.04-.18.04-.23-.02-.13-.1-.22-.23-.24l-.81-.11c-.1-.01-.15.03-.13.13M177.83,189.12l.06.46c.02.19.13.31.31.33l.27.03.24.64-1.01-.14c-.09,0-.13.04-.12.14.01.09.07.15.15.17l3.29.46c.09,0,.13-.04.12-.13-.01-.1-.07-.16-.16-.18l-.97-.14.08-.59.25.04c.18.03.26-.06.24-.25l-.06-.47c-.02-.19-.13-.3-.3-.32l-2.15-.3c-.19-.03-.27.06-.24.25M178.26,189.62c-.06,0-.09-.05-.1-.11l-.03-.24c0-.07.02-.09.08-.08l1.94.27c.07,0,.09.04.1.1l.03.25c0,.06-.01.09-.08.08l-1.94-.27Z"/>
    <path class="cls-2" d="M181.63,187.84c-.13.23-.29.41-.5.55-.03.03-.05.07-.03.13.02.1.1.17.19.2.01,0,.02,0,.05-.01.19-.17.33-.37.45-.59.01-.02.03-.04.06-.03.02,0,.03.02.07.05.13.19.3.37.48.54.02.01.03.01.05.01.1,0,.15-.04.15-.11-.02-.09-.05-.15-.1-.19-.19-.15-.37-.32-.52-.51-.05-.07-.11-.1-.17-.11-.08,0-.13,0-.17.07M181.49,188.65c-.09-.01-.13.03-.13.14.02.09.07.14.16.16l.27.03.04.37-.43-.06c-.08-.01-.12.03-.12.13.02.1.07.14.15.16l.43.06.16,1.3c-.13,0-.27,0-.41,0-.1,0-.15.05-.15.14.03.1.1.16.2.19.36.03.69,0,.97-.03.1,0,.15-.05.15-.15-.03-.11-.09-.17-.21-.19-.09,0-.18.02-.28.03l-.16-1.25.34.05c.09,0,.13-.03.12-.12-.02-.1-.07-.16-.16-.17l-.33-.05-.05-.37.25.04c.08,0,.13-.03.11-.12-.01-.11-.07-.17-.15-.18l-.81-.11ZM181.39,189.94v.07c.07.11.12.22.15.3.03.1.07.23.11.38.02.1.07.16.16.17.1.01.14-.04.13-.13,0-.03-.02-.11-.05-.23-.05-.19-.13-.38-.23-.58-.03-.06-.08-.1-.15-.11-.09,0-.13.04-.12.12M182.54,190.07c-.02.13-.04.23-.06.31-.01.07-.04.14-.07.2-.01.04-.02.07-.02.09.02.09.06.14.14.16.05,0,.1-.03.12-.08.06-.1.09-.2.11-.29.03-.09.04-.19.06-.3,0-.01,0-.02,0-.03-.02-.09-.08-.14-.18-.17-.06,0-.1.03-.1.1M182.63,188.07c.01.1.06.15.15.17l1.16.16c.06,0,.1.04.11.1l.03.26-1.2-.17c-.09,0-.12.03-.11.13.01.1.06.16.15.18l1.2.17.03.27-1.43-.2c-.09,0-.12.04-.11.14.01.09.06.15.15.16l.86.12.21,1.73c0,.08-.02.11-.09.1-.07-.02-.16-.07-.26-.15,0,0-.01,0-.02,0-.09,0-.12.06-.11.19.01.03.05.06.09.12.15.1.27.15.36.16.26.04.36-.07.33-.33l-.1-.84s.04.09.07.12c.14.27.37.57.71.93.05.04.11.07.16.07.07-.01.1-.07.12-.15,0-.05-.03-.1-.07-.15-.23-.22-.45-.46-.63-.71.01,0,.02,0,.05,0,.14-.16.26-.33.35-.53.04-.03.05-.08.05-.13-.02-.08-.07-.13-.13-.15-.06,0-.1,0-.14.01-.1.21-.21.39-.35.54-.09-.15-.17-.32-.26-.49l-.03-.29.77.11c.07,0,.12-.03.11-.13-.01-.09-.07-.15-.15-.17l-.2-.03-.11-.91c-.03-.21-.14-.33-.35-.36l-1.25-.18c-.09-.01-.13.04-.12.14M182.84,189.67s.02.08.05.13c.07.06.11.11.16.16.04.05.08.11.13.17.03.03.07.04.13.05.07,0,.11-.03.12-.11,0-.03-.02-.07-.03-.11-.05-.07-.1-.13-.14-.18-.04-.05-.09-.1-.17-.16-.03-.02-.09-.05-.13-.05-.07,0-.1.05-.11.11M183.4,190.44c-.04.11-.08.21-.15.3-.08.09-.17.17-.27.23-.03.05-.05.09-.04.14.02.08.08.14.16.18.05,0,.1-.02.14-.05.11-.09.2-.19.27-.29.09-.13.15-.26.18-.39,0-.02,0-.03,0-.03-.02-.12-.08-.18-.15-.2-.08-.01-.12.03-.14.1"/>
    <path class="cls-2" d="M174.49,196.64c.09.01.14.07.15.18l.06.43.25.04c.15.02.22.09.24.22,0,.03,0,.1-.03.22-.05.21-.14.42-.25.64,0,0-.01.02-.01.05v.06s.06.03.09.04c.01,0,.01.01.01.01.13-.11.24-.26.33-.41.03-.02.07-.02.13-.01.07.03.11.07.13.14,0,.05-.02.1-.03.14-.1.14-.19.26-.32.37.05.04.07.06.1.09.09.1.2.22.32.36,0,.05.01.09.02.13,0,.08-.03.13-.12.12-.05,0-.09-.03-.12-.06-.1-.13-.2-.25-.29-.35-.06-.06-.13-.12-.2-.19l.17,1.38c0,.1-.03.15-.13.14-.09-.01-.14-.07-.16-.18l-.17-1.41c-.07.1-.15.2-.24.31-.03.03-.07.03-.1.03-.09-.03-.15-.08-.16-.17,0-.02,0-.07.03-.14.14-.12.25-.27.37-.43.14-.21.24-.42.31-.62.04-.11.06-.18.05-.19l-.79-.11c-.09-.02-.14-.08-.16-.18,0-.09.03-.13.12-.12l.33.05-.05-.44c-.01-.11.03-.15.12-.14M175.37,196.95l1.4.2c.21.03.33.17.35.39l.23,2c.05.43.03.71-.03.86-.07.17-.2.23-.37.21-.17-.02-.39-.11-.67-.27-.07-.04-.1-.1-.12-.17,0-.1.04-.14.13-.14.02,0,.04,0,.07.03.25.13.43.21.53.23.1.01.17-.05.2-.19.01-.12.01-.32-.01-.57l-.23-1.94c-.01-.08-.05-.13-.13-.14l-.63-.09s0,.01,0,.02l.06.51c.05.41.07.77.07,1.08-.01.39-.08.71-.19.96-.08.17-.18.33-.3.47-.04.03-.07.04-.12.03-.09-.03-.15-.1-.18-.2,0-.05.01-.1.05-.13.11-.13.19-.26.25-.39.1-.2.17-.46.2-.78,0-.36-.01-.72-.05-1.08l-.06-.51s0-.01,0-.02l-.41-.06c-.1-.02-.14-.07-.16-.16-.01-.09.02-.15.12-.14"/>
    <path class="cls-2" d="M179.1,197.61v-.13c-.04-.1-.08-.16-.17-.18-.09,0-.13.04-.13.14l.02.13-.74-.11v-.13c-.03-.1-.08-.15-.18-.18-.09,0-.13.04-.11.15v.13s-.09-.01-.09-.01c-.07,0-.11.04-.1.14.01.09.06.14.14.16l.1.02.22,1.73-.19-.03c-.07,0-.11.04-.1.14.02.1.06.14.14.17l1.62.23c.07,0,.11-.03.1-.13-.01-.1-.06-.16-.14-.17l-.12-.02-.21-1.73h.09c.07.02.11-.02.1-.11-.02-.1-.07-.16-.14-.17h-.09ZM178.28,199.13l.74.1.05.37-.74-.1-.05-.36ZM178.2,198.43l.74.11.05.39-.74-.11-.05-.39ZM178.12,197.76l.74.11.05.36-.74-.11-.04-.36ZM178.27,199.97c-.07.16-.19.33-.35.49-.02.01-.04.05-.03.11.02.07.08.13.16.16.03,0,.07,0,.11-.03.09-.09.17-.19.24-.29.05-.07.11-.15.15-.26.02-.03.03-.04.03-.06-.02-.1-.08-.17-.19-.19-.06,0-.09.02-.12.08M178.95,200.06s.03.09.06.15c.05.06.09.11.13.15.03.03.07.09.11.15.03.03.07.05.12.06.08,0,.13-.03.13-.12,0-.04-.01-.08-.03-.12-.04-.07-.09-.13-.13-.17-.03-.05-.09-.1-.15-.15-.04-.02-.09-.04-.13-.05-.06,0-.1.04-.11.1M179.72,197.44c-.18-.02-.24.06-.22.27l.12.95c.05.41.07.78.07,1.1,0,.29-.06.6-.16.92-.03.04-.04.07-.04.13.03.08.09.14.17.18.05,0,.08,0,.1-.03.14-.35.21-.71.21-1.08,0-.05,0-.09,0-.14l.81.11.09.77c.01.12-.03.17-.13.16-.05,0-.13-.04-.21-.09-.01,0-.03-.01-.03-.01-.07,0-.11.06-.1.16.01.07.06.12.13.16.15.07.28.1.37.11.21.03.3-.05.27-.25l-.37-3c-.02-.19-.12-.29-.29-.32l-.38-.05-.42-.06ZM179.9,198.76l.75.1.08.7-.77-.11c0-.23-.03-.45-.06-.7M179.8,197.84c0-.06.01-.09.07-.08l.57.08c.05,0,.09.04.1.1l.07.62-.75-.1-.08-.62Z"/>
    <path class="cls-2" d="M181.18,198.21s.03.09.07.16c.1.12.19.22.27.31.07.09.15.19.23.31.04.04.09.06.15.07.08,0,.12-.04.12-.13,0-.05-.02-.08-.03-.13-.09-.13-.17-.25-.25-.34-.07-.08-.17-.19-.29-.31-.04-.02-.1-.04-.15-.05-.06,0-.11.05-.12.12M181.95,197.79l.21,1.71s-.06.04-.07.09c-.09.22-.19.38-.27.48-.1.14-.22.26-.37.37-.02.05-.03.09-.02.14.02.09.08.15.16.18.05,0,.09,0,.12-.03.12-.1.23-.22.34-.37.07-.09.13-.19.19-.31l.15,1.19c.01.1.07.16.16.18.09,0,.13-.04.13-.14l-.42-3.44c-.02-.1-.08-.16-.16-.18-.09,0-.13.04-.13.13M183.55,198.93l-.11-.9c-.02-.1-.08-.16-.16-.18-.09,0-.13.04-.12.14l.11.9-.7-.09c-.08,0-.11.04-.11.15.02.09.06.14.15.16l.7.1c.03.25.02.48,0,.71-.04.27-.11.51-.2.71-.09.17-.21.35-.36.51-.03.04-.04.07-.04.1.03.1.08.16.17.19.07.01.11-.01.13-.06.2-.19.34-.43.44-.7.08-.25.11-.57.07-.96.14.46.29.82.46,1.09.16.26.34.52.58.8.04.06.09.09.15.1.08,0,.12-.05.12-.14,0-.03-.02-.07-.05-.13-.31-.36-.56-.73-.75-1.11-.22-.41-.35-.77-.41-1.07l.8.11c.07,0,.11-.03.1-.13-.02-.1-.07-.16-.14-.18l-.81-.11ZM183.63,198.19s.03.09.07.15c.09.09.15.16.21.23.05.07.12.14.19.24.03.03.07.05.12.06.08,0,.12-.03.12-.12,0-.04-.02-.09-.03-.13-.07-.1-.15-.19-.21-.26-.06-.06-.15-.14-.23-.23-.05-.03-.09-.04-.14-.05-.06.01-.1.05-.11.11"/>
    <path class="cls-2" d="M184.97,199.22l.15,1.27c.01.1.06.15.15.16.1.01.14-.02.13-.12l-.04-.3.91.13v.06c.01.07-.02.09-.07.08-.06,0-.13-.03-.22-.07h-.02c-.09-.01-.12.04-.12.14.02.07.05.13.11.15.15.05.27.08.39.1.17.03.24-.06.22-.25l-.14-1.14c-.02-.2-.11-.3-.28-.33l-.94-.13c-.17-.02-.25.06-.22.25M185.33,198.26c-.06.12-.14.22-.24.31,0,.02-.01.03-.01.05h-.19c-.08-.01-.12.03-.11.14.01.09.07.15.15.16l1.22.03s0,0,0,0c.01.02.02.04.04.07.03.03.06.05.12.06.08,0,.12-.04.12-.11,0-.05-.02-.09-.03-.13-.05-.07-.08-.13-.12-.17-.03-.06-.07-.1-.12-.17-.05-.03-.09-.04-.14-.05-.06,0-.11.04-.12.11,0,.03.02.05.03.08h-.47c.05-.08.09-.17.13-.26,0-.02,0-.02,0-.02-.01-.11-.05-.16-.12-.17-.07-.01-.13.02-.15.08M185.3,199.79l.91.12.02.14-.91-.13-.02-.13ZM185.25,199.37c0-.06.02-.09.08-.08l.74.1c.05,0,.09.05.1.11v.12s-.89-.13-.89-.13l-.02-.12ZM186.53,198.55l.08.66c.03.25.15.38.37.42l.42.06c.19.03.33.03.45,0,.1-.02.15-.08.16-.17,0-.09.01-.17,0-.23-.02-.11-.07-.18-.16-.19-.09,0-.14.03-.13.12,0,.13-.02.19-.08.21-.08.01-.19.01-.32,0l-.31-.04c-.08-.01-.14-.07-.15-.18v-.1s0,0,0,0c.19.02.36.01.49,0,.15-.02.27-.05.36-.09.02-.05.04-.1.03-.14-.02-.11-.07-.18-.17-.21-.05,0-.09,0-.13.04-.09.06-.18.09-.27.1-.09.01-.21.01-.37,0l-.02-.19c-.02-.09-.06-.15-.15-.16-.09-.01-.13.03-.12.12M186.69,199.87l.08.67c.03.24.15.38.36.41l.43.06c.18.03.34.03.45,0,.1-.02.15-.07.16-.17,0-.08,0-.15,0-.23-.02-.11-.08-.18-.16-.19-.09-.01-.13.03-.12.13,0,.11-.02.18-.08.18-.08.01-.19.01-.32,0l-.31-.04c-.09-.01-.14-.07-.16-.18v-.09s0,0,0,0c.19.01.36.01.5,0,.15-.01.27-.04.36-.09.02-.06.03-.1.03-.14-.02-.12-.08-.18-.17-.22-.05,0-.09.01-.13.05-.09.05-.18.09-.27.09-.09.02-.22.02-.37.01l-.02-.2c-.02-.09-.06-.15-.15-.16-.09-.01-.13.03-.12.12M185.4,201.05c-.06.17-.14.31-.23.43-.01.04-.03.07-.03.09.01.1.07.15.15.18.04.01.08,0,.12-.03.11-.14.21-.31.27-.54,0-.02,0-.03,0-.03-.01-.1-.05-.16-.11-.18-.09,0-.14.01-.16.09M185.86,201.08l.05.38c.03.24.15.38.36.41l.73.1c.2.03.35.03.46,0,.11-.02.15-.08.17-.17.01-.09.02-.17,0-.25-.02-.13-.07-.2-.14-.21-.09-.01-.13.03-.12.12.01.15-.02.21-.08.22-.07.02-.19.03-.33,0l-.69-.1c-.06,0-.1-.07-.11-.19l-.04-.29c-.01-.09-.06-.14-.14-.16-.08,0-.13.03-.12.12M186.47,201.07s.02.08.04.13c.11.09.22.2.34.34.03.06.07.09.12.09.09,0,.14-.03.14-.1l-.02-.13c-.15-.18-.27-.31-.36-.38-.05-.05-.09-.09-.13-.09-.09,0-.13.04-.13.14M187.65,201.28s.02.07.05.14c.14.15.31.38.49.67.03.06.08.09.12.09.1,0,.15-.03.14-.11l-.02-.13c-.21-.33-.39-.57-.53-.71-.05-.06-.09-.09-.13-.1-.08,0-.12.05-.12.14"/>
    <path class="cls-2" d="M179.18,137.49l1.2.17c.11.02.17.03.25.1.06.06.12.15.13.23l.06.45c.01.1.03.23-.1.21-.11-.02-.12-.14-.14-.24l-.04-.36c-.01-.12-.1-.13-.15-.14l-1.17-.17.08.67c.01.09.03.21-.08.2-.13-.02-.14-.13-.15-.23l-.08-.67-1.17-.17c-.06,0-.14-.02-.12.1l.04.36c.01.1.03.23-.08.21-.13-.02-.15-.14-.16-.24l-.05-.46c-.04-.27.23-.23.31-.22l1.21.17-.03-.19-1.13-.16c-.08-.01-.17-.02-.19-.15-.01-.12.07-.11.16-.1l2.56.36c.09.01.17.03.19.15.01.12-.07.11-.16.1l-1.19-.17.02.19ZM179.44,140.22c.02.15.14.22.22.23l.95.13c.15.02.23-.06.24-.21.01-.25.01-.29.11-.28.08.01.12.08.13.16.01.08.06.67-.39.6l-1.05-.15c-.28-.04-.43-.19-.46-.48l-.02-.13-.85-.12c-.35-.04-.39-.27-.39-.33l-.1-.8s-.02-.28.33-.23l2.03.29c.34.05.38.27.38.33l.1.8s.03.28-.32.23l-.92-.13v.09ZM178.08,137.99c-.07-.01-.16-.02-.17-.14-.01-.09.07-.08.15-.07l.57.08c.07.01.15.03.17.12.02.11-.07.1-.14.09l-.58-.08ZM178.13,138.38c-.08-.01-.16-.02-.18-.13,0-.1.07-.09.15-.08l.57.08c.07,0,.17.02.18.13.01.11-.07.09-.15.08l-.57-.08ZM179.04,138.97l-.82-.11s-.14-.02-.12.12l.02.19.96.13-.04-.33ZM179.11,139.52l-.97-.13.02.19c.02.13.12.15.16.15l.82.12-.03-.32ZM179.33,139.34l1.03.15-.03-.19c-.01-.15-.11-.16-.16-.16l-.88-.12.04.33ZM179.4,139.88l.88.13s.14.02.13-.11l-.02-.19-1.02-.15.03.32ZM180.17,138.07c.07.01.16.03.17.12.01.11-.08.1-.15.09l-.58-.08c-.07-.01-.16-.03-.17-.14-.01-.1.07-.09.15-.07l.57.08ZM179.67,138.6c-.07-.01-.16-.03-.18-.13-.01-.11.08-.09.15-.08l.57.08c.07,0,.16.02.17.13.02.11-.08.09-.15.08l-.57-.08Z"/>
    <path class="cls-2" d="M181.83,138.74c.09.1.24.27.25.35,0,.07-.03.13-.1.12-.06-.01-.09-.05-.16-.14-.25-.31-.52-.56-.65-.69-.05-.05-.06-.09-.07-.12-.01-.06.01-.14.11-.12.09.02.47.43.63.6M181.39,140.73s0-.06.05-.14c.18-.25.39-.71.48-1.12.01-.06.03-.09.1-.08.07,0,.13.07.13.13.01.09-.06.49-.37,1.06-.09.16-.17.31-.26.29-.03,0-.06-.03-.09-.06-.02-.02-.03-.06-.04-.1M181.83,137.76c.11.12.23.25.24.33,0,.07-.03.13-.11.12-.03,0-.05,0-.1-.06-.17-.2-.46-.46-.69-.67-.06-.05-.08-.08-.09-.13,0-.08.05-.13.1-.12.1.01.51.41.65.54M183.25,138.22l.05-.36-.76-.11c-.17-.02-.21-.02-.19.17l.15,1.17c.07.61.05,1.21-.07,1.76-.04.22-.08.26-.15.25-.08-.01-.14-.1-.15-.14,0-.04.08-.38.09-.46.07-.44.1-.9.04-1.39l-.16-1.31c-.04-.36.11-.36.37-.33l1.69.24c.09.01.21.03.22.16.02.14-.1.12-.19.11l-.63-.09-.06.36.49.07c.09.01.31.07.34.33l.14,1.16c.04.3-.23.26-.27.25l-.39-.05.11.91c.05.38-.21.36-.27.35-.12-.02-.36-.14-.4-.16-.08-.04-.15-.08-.16-.17,0-.08.03-.12.08-.12.07,0,.33.15.38.16.15.02.13-.11.12-.2l-.1-.81-.46-.07c-.1-.02-.31-.07-.35-.34l-.14-1.15c-.03-.29.22-.25.28-.25l.35.05ZM182.9,140.45c.03-.05.1-.32.12-.4.02-.03.06-.05.1-.04.06,0,.11.07.13.14.01.07,0,.27-.21.71-.05.1-.13.28-.23.27-.08-.01-.13-.09-.14-.16,0-.05.13-.29.23-.52M182.92,138.87l1.21.17-.03-.28c-.02-.16-.13-.18-.19-.19l-.88-.12c-.07,0-.17-.02-.16.14l.04.29ZM184.17,139.3l-1.22-.17.04.32c.02.17.13.18.19.19l.89.13c.05,0,.16.02.14-.14l-.04-.33ZM184.77,141.36c-.17-.03-.69-.95-.71-1.09-.01-.07.04-.12.1-.11.08.01.1.05.25.33.06.13.19.35.29.46.15.21.17.23.18.26.02.07,0,.16-.11.15"/>
    <path class="cls-2" d="M175.91,207.16c.07,0,.12.07.14.21l.05.42.48.07c.09.01.13.07.16.19,0,.11-.03.15-.12.14l-.48-.07.3,2.39c.01.13-.02.19-.1.18-.08-.02-.12-.09-.14-.22l-.21-1.72c-.13.42-.33.76-.61,1.04-.24.22-.4.33-.48.33-.11-.01-.16-.1-.19-.24,0-.04.02-.05.06-.06.22-.13.39-.25.53-.4.14-.15.27-.35.37-.59.08-.18.15-.43.21-.76l-1.18-.16c-.09-.01-.14-.07-.15-.19-.01-.11.03-.15.11-.14l1.2.17-.05-.41c-.02-.13.01-.19.09-.18"/>
    <path class="cls-2" d="M179.43,207.85s-.05-.09-.06-.13c0-.04,0-.07.01-.11.02-.04.04-.06.08-.05.04,0,.07.03.1.06.03.04.05.09.05.13.01.12-.02.18-.11.16-.03,0-.07-.03-.09-.07M177.31,207.67c.01.11.07.17.16.18l1.46.21c.08.01.13.07.15.18.03.16.01.41-.05.75-.05.3-.14.55-.25.75-.14.24-.29.41-.44.52-.17.11-.37.17-.62.18-.04,0-.06.03-.05.11.02.13.08.2.18.21.09,0,.21-.01.38-.07.15-.06.31-.16.47-.31.32-.3.52-.77.6-1.39.04-.35.05-.58.04-.71-.04-.33-.17-.51-.38-.53l-1.52-.21c-.09-.01-.13.03-.12.14M179.25,207.43c-.04.06-.05.15-.04.27.01.1.05.2.12.29.06.1.13.14.2.15.08,0,.14-.01.18-.06.06-.07.07-.17.06-.31-.01-.11-.06-.21-.13-.29-.06-.09-.14-.13-.21-.14-.07-.01-.14.01-.18.08"/>
    <path class="cls-2" d="M180.26,208.08l.93.39c.06.02.1.07.12.14,0,.14-.03.19-.13.18l-.89-.38c-.09-.04-.14-.09-.15-.15-.01-.13.02-.19.12-.18M180.38,209.11l.93.4c.07.03.1.07.12.14,0,.14-.03.2-.12.19l-.9-.41c-.09-.04-.14-.09-.15-.14-.01-.13.02-.19.11-.18M182.3,208.69c.08.01.12.07.13.19.03.27.03.53,0,.81-.02.29-.08.53-.16.72-.09.21-.23.39-.4.52-.14.11-.32.19-.53.24-.2.06-.41.07-.59.06-.09-.03-.15-.1-.17-.23-.01-.07.02-.1.08-.09.29,0,.52-.03.7-.08.23-.08.42-.22.56-.42.12-.18.21-.41.24-.68.04-.22.05-.5.03-.85-.01-.12.03-.19.09-.18"/>
    <path class="cls-2" d="M183.29,209.14c.01.11.07.17.17.19l1.25.18c.08.01.14.08.17.19l.08.67-1.32-.19c-.09-.01-.12.03-.11.14.01.11.06.17.15.19l1.32.19.08.68c0,.07-.02.1-.03.11-.03.03-.05.05-.1.05l-1.25-.18c-.1-.01-.14.03-.13.15,0,.11.07.17.17.19l1.26.18c.05,0,.11,0,.15-.02.13-.06.19-.21.16-.43l-.21-1.68c-.04-.33-.19-.52-.44-.55l-1.25-.18c-.1-.01-.14.03-.13.14"/>
    <path class="cls-2" d="M185.94,209.11s.06.02.11.06c.16.12.33.23.49.35.21.15.36.27.48.39.03.03.06.07.07.11.02.13-.02.19-.09.18,0,0-.06-.03-.14-.1-.02-.02-.34-.25-.95-.72-.03-.02-.05-.05-.06-.09-.02-.13.02-.19.09-.17M188.01,209.41c.09,0,.13.08.15.21.02.14.02.37,0,.69-.03.33-.09.6-.19.81-.2.46-.53.74-1.01.83-.21.05-.39.06-.51.04-.09-.01-.16-.1-.17-.25,0-.04.01-.06.07-.06.32-.01.59-.06.78-.13.2-.08.36-.23.49-.43.14-.23.24-.47.28-.73.03-.27.05-.53.04-.79,0-.13.02-.2.08-.19"/>
  </g>
  <text class="cls-1" transform="translate(193.71 261.34) rotate(-25.43) scale(.87 1.22) skewX(-38.37)"><tspan x="0" y="0">XG-100NE</tspan></text>
  <g>
    <path class="cls-2" d="M195.91,241.84c-.2-.06-.41-.2-.48-.26.14-.27.33-.62.41-.89l.02-.34-.36.19.03-.53-.31.16-.03.53-.42.22-.02.33.78-.39c-.13.4-.56,1.07-.89,1.45l.11.3c.09-.11.2-.25.37-.49l-.09,1.37.32-.16.08-1.32h.01s.15.14.29.22l.2-.38ZM196,239.95l-.02.35.47-.25c-.07,1.2-.21,1.89-.91,2.88l.22.18c.84-1.19.91-1.96,1.01-3.23l.49-.25c-.02.51-.13,1.92-.21,2.24-.06.21-.14.27-.3.35l-.33.16.06.35.31-.16c.23-.11.41-.21.53-.63.13-.42.24-2.36.27-2.82l-1.61.81ZM195.91,240.98c-.14.33-.23.49-.28.57l.22.08c.14-.24.27-.52.29-.58l-.23-.07Z"/>
    <path class="cls-2" d="M198.11,241.05c-.1.23-.28.57-.46.83l.19.17c.19-.27.4-.64.53-1.01h-.26ZM198.06,239.04l-.18.09-.02.34.18-.09-.08,1.38-.23.12-.02.32,1.58-.8.02-.33-.18.1.08-1.38.18-.1.02-.33-.18.09.02-.32-.29.15-.02.31-.59.3v-.32s-.27.15-.27.15l-.02.32ZM198.92,238.93v.25s-.6.3-.6.3v-.25s.6-.3.6-.3ZM198.89,239.47l-.02.26-.59.29.02-.26.59-.29ZM198.86,240.02l-.02.29-.59.3.02-.29.59-.3ZM198.56,241c.09.07.24.25.27.33l.24-.34c-.09-.17-.24-.25-.28-.29l-.23.3ZM199.48,239.23c-.06,1.13-.26,1.55-.5,2.01l.25.1c.22-.41.37-.85.43-1.23l.55-.28-.04.58c0,.07-.03.12-.1.16l-.31.15.03.33.39-.21c.09-.04.26-.13.28-.41l.17-2.91-1.1.55-.07,1.15ZM200.27,238.93l-.03.57-.52.26.05-.58.5-.25ZM200.33,238.02l-.03.59-.5.25.03-.59.5-.25Z"/>
    <path class="cls-2" d="M201.12,240.4l.33-.16.15-2.45c.18-.47.26-.77.31-.95l-.33.13c-.15.6-.37,1.11-.77,1.76l.15.33c.07-.12.13-.21.27-.47h0l-.11,1.81ZM202.26,236.61l-.17,2.92c-.01.33.21.21.3.17l.88-.45c.26-.13.38-.29.43-1.09l-.32.07c0,.07-.03.5-.06.57-.01.04-.03.08-.11.13l-.66.33c-.12.06-.12.03-.11-.07l.06-1.12c.33-.3.89-.85,1.24-1.29l-.2-.23c-.43.56-.87,1-1.01,1.14l.07-1.25-.34.17Z"/>
    <path class="cls-2" d="M172.71,158.1c-.1-.01-.22-.03-.24-.18-.02-.15.1-.13.21-.12l2.33.33c.1.02.23.03.25.18.02.15-.11.13-.21.11l-.96-.13c.06.62-.02.96-.2,1.19-.27.36-.65.4-.7.4-.05,0-.13-.05-.15-.17-.01-.11.05-.12.15-.15.17-.03.55-.21.63-.67.02-.15.03-.32,0-.63l-1.12-.16ZM174.52,157.13c.1.01.23.03.24.18.02.15-.11.13-.21.12l-1.72-.24c-.1-.01-.22-.03-.24-.18-.02-.15.1-.13.2-.12l1.72.25ZM174.72,156.9s.01-.07.06-.06c.07,0,.42.55.43.67.01.07-.04.1-.08.09-.07-.01-.08-.05-.14-.19-.06-.13-.17-.34-.21-.4,0-.02-.06-.1-.06-.11M174.96,156.81s.01-.07.06-.07c.08,0,.43.54.44.67,0,.06-.03.1-.07.09-.05,0-.08-.05-.1-.09-.11-.24-.21-.42-.26-.49,0-.02-.06-.1-.06-.11"/>
    <path class="cls-2" d="M178.66,158.97c.09.01.15.09.16.18.01.09-.03.15-.12.14l-2.72-.38c-.1-.02-.16-.1-.17-.19,0-.06.02-.15.13-.13l2.72.38Z"/>
    <path class="cls-2" d="M180.22,158.57c-.27.65-.72.87-.79.85-.07-.01-.14-.07-.15-.17-.01-.09.03-.11.09-.14.08-.04.67-.32.73-1.27,0-.08.02-.19.13-.18.08.01.14.09.15.16,0,.03,0,.25-.07.49l1.14.16c.19.03.3.15.32.33.02.13,0,.68-.39,1.29.15.17.3.34.31.45,0,.07-.02.14-.12.13-.04,0-.07-.03-.1-.06-.07-.09-.18-.23-.25-.31-.5.57-1.21.67-1.27.66-.07,0-.14-.08-.15-.17-.01-.1.05-.12.11-.13.64-.12.95-.4,1.12-.59-.19-.21-.32-.35-.65-.65-.07-.06-.09-.1-.09-.15-.01-.09.05-.12.11-.11.11.02.76.69.79.72.34-.53.33-1.03.32-1.05,0-.08-.05-.08-.15-.09l-1.16-.16Z"/>
    <path class="cls-2" d="M183.13,159.92c0-.09-.04-.14-.13-.16l-.23-.03c-.08-.01-.18-.02-.19-.14-.02-.12.09-.11.16-.1l.37.05c.08.01.21.09.23.3l.1.83c0,.08.06.32.3.48.17.12.38.16.45.17l1.46.2c.07.01.17.03.18.14.01.11-.08.1-.16.09l-1.58-.22c-.27-.03-.55-.21-.73-.48-.09.09-.36.37-.46.36-.04,0-.11-.05-.12-.14,0-.06,0-.08.15-.19.05-.04.17-.14.31-.29,0-.02-.01-.03-.01-.06l-.1-.81ZM183.19,158.77c0,.05-.03.11-.09.1-.05,0-.07-.03-.22-.24-.09-.12-.23-.29-.33-.4-.03-.04-.06-.07-.07-.12-.01-.09.06-.13.11-.1.09.04.59.64.61.76M184.45,160.46l-.62-.09.06.52c.01.1.03.21-.09.2-.11-.02-.12-.13-.13-.23l-.21-1.71c-.02-.16.08-.25.21-.23l.4.06c-.29-.31-.29-.32-.29-.37-.01-.08.04-.11.09-.11.08.01.4.39.5.52.27-.18.42-.33.41-.39,0-.03-.01-.03-.09-.04l-1.23-.17c-.07-.01-.17-.02-.19-.14-.01-.12.08-.11.16-.09l1.44.21c.06,0,.19.06.21.21.02.15-.21.35-.36.46l.43.06c.14.02.23.16.25.23l.21,1.74c.01.11-.03.26-.26.22-.03,0-.19-.04-.31-.09-.04-.02-.09-.06-.09-.13,0-.05.02-.11.09-.1.03,0,.21.07.25.07.11.01.1-.1.09-.15l-.05-.36-.67-.1.07.56c.01.1.03.21-.09.2-.11-.02-.12-.13-.13-.22l-.07-.57ZM184.3,159.25l-.5-.07c-.09-.01-.1.08-.09.15l.02.19.62.09-.04-.36ZM184.37,159.84l-.62-.09.05.38.62.09-.05-.38ZM184.57,159.64l.67.1-.02-.21c-.02-.11-.06-.15-.15-.16l-.55-.08.05.36ZM184.64,160.25l.68.09-.05-.38-.68-.1.05.39Z"/>
    <path class="cls-2" d="M186.84,161.79c.02.1.03.22-.08.2-.11-.01-.13-.14-.14-.23l-.24-1.96c-.07.17-.24.51-.35.49-.07-.01-.13-.07-.14-.15,0-.05.03-.09.06-.14.36-.48.45-1.03.5-1.35.02-.13.03-.19.11-.17.05,0,.11.05.12.14.01.08-.03.37-.14.73l.3,2.46ZM188.72,159.45c.08.01.17.03.19.14.01.11-.08.1-.16.09l-1.84-.26c-.07,0-.17-.02-.18-.13-.01-.11.08-.1.15-.09l1.83.26ZM187.44,162.01c-.06,0-.22-.05-.25-.3l-.09-.67c-.03-.25.13-.25.19-.24l1.46.21c.06,0,.22.05.25.3l.08.68c.03.25-.14.24-.19.24l-1.46-.21ZM188.69,160.46c.07,0,.17.02.18.14.01.12-.08.1-.16.1l-1.47-.21c-.07-.01-.17-.02-.19-.14-.01-.11.08-.1.16-.09l1.48.21ZM188.62,159.94c.07.01.17.03.19.14,0,.12-.09.11-.16.09l-1.45-.2c-.08-.01-.18-.02-.19-.14-.02-.12.08-.11.16-.09l1.45.2ZM188.49,158.91c.07.01.17.02.19.14.01.11-.08.11-.16.09l-1.45-.21c-.07-.01-.17-.02-.18-.14-.01-.11.07-.1.15-.09l1.45.2ZM188.75,161.96c.11.02.11-.01.11-.1l-.06-.52c-.01-.09-.03-.12-.13-.13l-1.21-.17c-.1-.02-.11.01-.1.1l.06.51c.01.09.03.12.13.13l1.21.17Z"/>
    <path class="cls-3" d="M183.66,143.84c0,.27-.22.45-.48.42l-4.34-.63c-.26-.04-.48-.29-.48-.55v-1.37c0-.27.21-.45.48-.41l4.34.64c.26.03.48.29.48.55v1.37Z"/>
    <path class="cls-3" d="M183.66,154c0,.27-.22.45-.48.41l-4.34-.63c-.26-.04-.48-.29-.48-.55v-1.37c0-.27.21-.45.48-.41l4.34.63c.26.04.48.29.48.55v1.37Z"/>
    <path class="cls-3" d="M183.66,163.92c0,.27-.22.45-.48.41l-4.34-.63c-.26-.04-.48-.29-.48-.55v-1.38c0-.27.21-.45.48-.41l4.34.63c.26.04.48.29.48.55v1.37Z"/>
    <path class="cls-3" d="M183.66,173.91c0,.26-.22.45-.48.41l-4.34-.63c-.26-.04-.48-.29-.48-.55v-1.38c0-.27.21-.45.48-.41l4.34.63c.26.04.48.29.48.55v1.37Z"/>
    <path class="cls-3" d="M183.66,183.99c0,.27-.22.45-.48.41l-4.34-.63c-.26-.04-.48-.29-.48-.55v-1.37c0-.26.21-.45.48-.41l4.34.63c.26.04.48.29.48.56v1.37Z"/>
    <path class="cls-3" d="M183.66,194.06c0,.27-.22.45-.48.41l-4.34-.63c-.26-.04-.48-.29-.48-.55v-1.37c0-.26.21-.45.48-.41l4.34.63c.26.04.48.29.48.55v1.37Z"/>
    <path class="cls-3" d="M183.66,203.97c0,.27-.22.45-.48.41l-4.34-.63c-.26-.04-.48-.29-.48-.55v-1.37c0-.27.21-.45.48-.41l4.34.63c.26.04.48.29.48.55v1.37Z"/>
    <path class="cls-3" d="M183.66,214.13c0,.26-.22.45-.48.41l-4.34-.63c-.26-.04-.48-.29-.48-.55v-1.37c0-.27.21-.45.48-.41l4.34.63c.26.04.48.29.48.55v1.37Z"/>
    <polyline class="cls-3" points="190.96 223.74 198.87 221.38 198.89 222.4"/>
    <polyline class="cls-3" points="190.93 235.35 198.98 231.44 199.01 230.14 197.79 227.85"/>
    <path class="cls-3" d="M202.32,226.51c-.53,2.22-2.57,4.01-4.56,4.01s-3.17-1.79-2.64-4.01c.54-2.21,2.58-4.01,4.57-4.01s3.17,1.79,2.63,4.01Z"/>
    <path class="cls-3" d="M199.82,225.55c-.29,1.19-1.39,2.16-2.46,2.16s-1.71-.97-1.43-2.16c.29-1.2,1.39-2.17,2.46-2.17s1.71.97,1.43,2.17Z"/>
    <path class="cls-3" d="M199.36,225.96c-.19.78-.91,1.42-1.61,1.42s-1.13-.64-.94-1.42c.19-.78.92-1.42,1.62-1.42s1.12.64.93,1.42Z"/>
    <line class="cls-3" x1="195.94" y1="226.32" x2="196.96" y2="227.05"/>
    <line class="cls-3" x1="197.45" y1="223.62" x2="198.75" y2="224.64"/>
    <path class="cls-3" d="M200.02,236.33c-.14.59-.69,1.07-1.22,1.07s-.85-.48-.71-1.07c.14-.59.69-1.07,1.22-1.07s.85.48.7,1.07Z"/>
    <line class="cls-5" x1="117.08" y1="244.15" x2="117.08" y2="237.95"/>
    <polyline class="cls-5" points="105.51 230.89 117.42 237.95 126.43 234.38"/>
    <path class="cls-5" d="M115.21,227.15l-4.51,1.87s-1.19.85-1.19,2.04-.17,1.87-.17,1.87"/>
    <path class="cls-5" d="M118.35,229.28l-3.49,1.7s-1.87.6-1.87,1.79-.09,2.21-.09,2.21"/>
    <path class="cls-5" d="M120.43,230.47l-3.49,1.7s-1.87.59-1.87,1.79-.09,2.21-.09,2.21"/>
    <polyline class="cls-5" points="109.72 232.89 110.74 232.68 110.7 230.89 112.19 230.3 112.27 229.36 113.59 228.85 115.67 228.81 116.14 228.55 116.1 227.41"/>
    <line class="cls-5" x1="110.74" y1="232.68" x2="112.7" y2="233.69"/>
    <line class="cls-5" x1="110.83" y1="231.06" x2="112.78" y2="232.08"/>
    <line class="cls-5" x1="112.15" y1="230.34" x2="114.1" y2="231.36"/>
    <line class="cls-5" x1="113.68" y1="229.06" x2="115.63" y2="230.08"/>
    <line class="cls-5" x1="115.72" y1="228.68" x2="117.67" y2="229.7"/>
    <path class="cls-5" d="M55.35,206.15l48.72,30.77,1.11-6.46,1.62-.68s.09-1.7,2.21-2.38c2.13-.68,4.51-1.95,4.51-1.95l13.52,8.42,1.27,6.46-11.9,5.02,49.06,29.84s3.57,3.91,12.33.68c8.76-3.23,39.11-15.73,39.11-15.73"/>
    <polygon class="cls-5" points="160.24 266.71 163.41 265.52 174.35 272.27 171.18 273.97 160.24 266.71"/>
  </g>
</svg>