<?xml version="1.0" encoding="UTF-8"?>
<svg id="_レイヤー_1" data-name=" レイヤー 1" xmlns="http://www.w3.org/2000/svg" version="1.1" viewBox="0 0 283.46 283.46">
  <defs>
    <style>
      .cls-1 {
        font-size: 5.46px;
      }

      .cls-1, .cls-2, .cls-3, .cls-4 {
        isolation: isolate;
      }

      .cls-1, .cls-2, .cls-4 {
        font-weight: 500;
      }

      .cls-1, .cls-2, .cls-4, .cls-5 {
        fill: #fff;
      }

      .cls-1, .cls-4 {
        font-family: ShinGoPro-Medium-83pv-RKSJ-H, 'A-OTF Shin Go Pro';
      }

      .cls-6 {
        fill: #666464;
      }

      .cls-6, .cls-5 {
        stroke-width: 0px;
      }

      .cls-7, .cls-8, .cls-9 {
        stroke-miterlimit: 10;
      }

      .cls-7, .cls-8, .cls-9, .cls-10 {
        fill: none;
        stroke: #231815;
      }

      .cls-7, .cls-10 {
        stroke-width: .7px;
      }

      .cls-8 {
        stroke-width: .35px;
      }

      .cls-9 {
        stroke-width: .17px;
      }

      .cls-2 {
        font-family: KozGoPr6N-Medium-83pv-RKSJ-H, 'Kozuka Gothic Pr6N';
        font-size: 5.17px;
      }

      .cls-4 {
        font-size: 5.17px;
      }
    </style>
  </defs>
  <g>
    <path class="cls-6" d="M167.42,256.34h-9.3s-1.81.16-2.02,1.54-1.33,13.17-1.33,13.17h-44.78l-1.01-9.4-4.57-.05-.69-4.46s-.27-.85-1.12-.85-8.34.16-8.34.16c0,0-1.54.16-1.75,1.6-.21,1.43-1.7,18.43-1.7,18.43,0,0,0,.74.8.74h81.37s.69,0,.64-1.01-1.12-14.71-1.12-14.71h-4.04l-.48-4.25s.05-.9-.58-.9"/>
    <path class="cls-10" d="M167.42,256.34h-9.3s-1.81.16-2.02,1.54-1.33,13.17-1.33,13.17h-44.78l-1.01-9.4-4.57-.05-.69-4.46s-.27-.85-1.12-.85-8.34.16-8.34.16c0,0-1.54.16-1.75,1.6-.21,1.43-1.7,18.43-1.7,18.43,0,0,0,.74.8.74h81.37s.69,0,.64-1.01-1.12-14.71-1.12-14.71h-4.04l-.48-4.25s.05-.9-.58-.9h.02Z"/>
    <line class="cls-10" x1="173.16" y1="271.05" x2="154.78" y2="271.05"/>
    <line class="cls-10" x1="168.48" y1="261.49" x2="155.68" y2="261.49"/>
    <line class="cls-10" x1="165.99" y1="256.49" x2="166.57" y2="261.11"/>
    <polyline class="cls-10" points="159.67 261.33 160.04 258.62 163.81 258.62 165.99 257.34"/>
    <line class="cls-10" x1="102.41" y1="256.39" x2="103.1" y2="261.8"/>
    <line class="cls-10" x1="92.32" y1="261.86" x2="104.43" y2="261.86"/>
    <polyline class="cls-10" points="95.82 261.7 96.09 258.62 100.65 258.46 102.57 257.45"/>
    <line class="cls-10" x1="110" y1="271.05" x2="91.31" y2="271.05"/>
    <path class="cls-6" d="M112.29,6.96h39.73s2.76-.11,2.76,2.87v257.93s0,2.87-2.55,2.87h-39.52s-2.27,0-2.27-3.43V9.79s-.28-2.83,1.84-2.83"/>
    <path class="cls-7" d="M112.29,6.96h39.73s2.76-.11,2.76,2.87v257.93s0,2.87-2.55,2.87h-39.52s-2.27,0-2.27-3.43V9.79s-.28-2.83,1.84-2.83h.01Z"/>
    <polyline class="cls-7" points="110.45 9.79 126.84 9.79 126.84 267.33 110.45 267.33"/>
    <polyline class="cls-7" points="127.02 201.5 137.71 202.67 137.71 206.74"/>
    <polyline class="cls-7" points="126.84 218.07 137.78 217.12 137.78 212.97"/>
    <circle class="cls-8" cx="137.74" cy="209.92" r="5.7"/>
    <path class="cls-8" d="M141.05,209.92c0,1.83-1.48,3.31-3.31,3.31s-3.31-1.48-3.31-3.31,1.48-3.31,3.31-3.31,3.31,1.48,3.31,3.31Z"/>
    <path class="cls-8" d="M140.15,209.92c0,1.33-1.08,2.41-2.41,2.41s-2.41-1.08-2.41-2.41,1.08-2.41,2.41-2.41,2.41,1.08,2.41,2.41Z"/>
    <path class="cls-8" d="M139.36,224.29c0,.91-.74,1.65-1.65,1.65s-1.65-.74-1.65-1.65.74-1.65,1.65-1.65,1.65.74,1.65,1.65Z"/>
    <path class="cls-9" d="M138.92,224.29c0,.67-.54,1.2-1.21,1.2s-1.2-.54-1.2-1.2.54-1.2,1.2-1.2,1.21.54,1.21,1.2Z"/>
    <path class="cls-9" d="M125.43,6.98s-1.51.48-1.51,2.71v257.72s-.16,2.58,1.22,3.24"/>
    <path class="cls-8" d="M116.38,85.64h2.53c.33,0,.6.27.6.6v.95c0,.33-.27.6-.6.6h-2.53c-.33,0-.6-.27-.6-.6v-.96c0-.33.27-.6.6-.6h0Z"/>
    <rect class="cls-8" x="115.78" y="99.96" width="3.74" height="2.16" rx=".6" ry=".6"/>
    <path class="cls-8" d="M116.38,114.57h2.53c.33,0,.6.27.6.6v.95c0,.33-.27.6-.6.6h-2.53c-.33,0-.6-.27-.6-.6v-.96c0-.33.27-.6.6-.6h0Z"/>
    <path class="cls-8" d="M116.38,128.96h2.53c.33,0,.6.27.6.6v.95c0,.33-.27.6-.6.6h-2.53c-.33,0-.6-.27-.6-.6v-.96c0-.33.27-.6.6-.6h0Z"/>
    <path class="cls-8" d="M116.38,143.52h2.53c.33,0,.6.27.6.6v.95c0,.33-.27.6-.6.6h-2.53c-.33,0-.6-.27-.6-.6v-.96c0-.33.27-.6.6-.6h0Z"/>
    <path class="cls-8" d="M116.38,157.84h2.53c.33,0,.6.27.6.6v.95c0,.33-.27.6-.6.6h-2.53c-.33,0-.6-.27-.6-.6v-.96c0-.33.27-.6.6-.6h0Z"/>
    <path class="cls-8" d="M116.38,172.32h2.53c.33,0,.6.27.6.6v.96c0,.33-.27.6-.6.6h-2.53c-.33,0-.6-.27-.6-.6v-.96c0-.33.27-.6.6-.6Z"/>
    <path class="cls-8" d="M116.38,186.86h2.53c.33,0,.6.27.6.6v.95c0,.33-.27.6-.6.6h-2.53c-.33,0-.6-.27-.6-.6v-.96c0-.33.27-.6.6-.6h0Z"/>
    <path class="cls-5" d="M141.27,21.59c-.57,0-1.13.13-1.51.28-.39-.16-.95-.28-1.52-.28-2.49,0-4.73,2.36-4.73,5.59,0,3.52,2.88,6.25,6.25,6.25s6.24-2.73,6.24-6.25c0-3.23-2.25-5.59-4.73-5.59M139.76,23.51c.48.28,1.11,1.11,1.11,2.05,0,.68-.45,1.22-1.11,1.22s-1.11-.54-1.11-1.22c0-.93.63-1.76,1.11-2.05M139.76,31.89c-2.58,0-4.71-2.08-4.71-4.74,0-2.43,1.75-4.09,3.13-4.03-.65.65-1.05,1.6-1.05,2.52,0,1.58,1.25,2.69,2.63,2.69s2.63-1.11,2.63-2.69c0-.91-.4-1.86-1.05-2.52,1.38-.06,3.13,1.6,3.13,4.03,0,2.66-2.13,4.74-4.71,4.74"/>
    <polygon class="cls-5" points="136.6 34.66 136.6 35.37 136.99 35.37 136.99 36.67 135.93 34.66 134.71 34.66 134.71 35.37 135.1 35.37 135.1 37.54 134.71 37.54 134.71 38.24 136.33 38.24 136.33 37.54 135.93 37.54 135.93 36.24 136.99 38.24 137.82 38.24 137.82 35.37 138.22 35.37 138.22 34.66 136.6 34.66"/>
    <polygon class="cls-5" points="141.58 36.04 141.58 34.66 138.47 34.66 138.47 36.04 139.17 36.04 139.17 35.37 139.56 35.37 139.56 37.54 139.04 37.54 139.04 38.24 141.01 38.24 141.01 37.54 140.49 37.54 140.49 35.37 140.87 35.37 140.87 36.04 141.58 36.04"/>
    <polygon class="cls-5" points="144.93 36.04 144.93 34.66 141.82 34.66 141.82 36.04 142.53 36.04 142.53 35.37 142.91 35.37 142.91 37.54 142.39 37.54 142.39 38.24 144.36 38.24 144.36 37.54 143.84 37.54 143.84 35.37 144.23 35.37 144.23 36.04 144.93 36.04"/>
  </g>
  <g class="cls-3">
    <text class="cls-1" transform="translate(130.7 200.56) scale(.88 1)"><tspan x="0" y="0">再起動</tspan></text>
  </g>
  <g class="cls-3">
    <text class="cls-4" transform="translate(130.76 231.9) scale(.9 1)"><tspan x="0" y="0">初期化</tspan></text>
  </g>
  <g class="cls-3">
    <text class="cls-2" transform="translate(128.9 256.17) scale(.86 1)"><tspan x="0" y="0">XG-100NE</tspan></text>
  </g>
  <g>
    <path class="cls-5" d="M116.23,80.28h1.07c.09,0,.15,0,.22.07.05.05.09.16.09.25v.55c0,.12,0,.28-.11.28s-.1-.15-.1-.28v-.44c0-.14-.07-.14-.12-.14h-1.04v.81c0,.11,0,.26-.1.26s-.1-.14-.1-.26v-.81h-1.04c-.05,0-.12,0-.12.14v.44c0,.12,0,.28-.1.28s-.1-.15-.1-.28v-.55c0-.33.23-.33.31-.33h1.06v-.23h-1.01c-.07,0-.16,0-.16-.15s.09-.14.16-.14h2.27c.08,0,.16,0,.16.14s-.08.15-.16.15h-1.06v.23h-.02ZM116.17,83.59c0,.19.1.24.17.24h.85c.13,0,.21-.12.23-.3.04-.31.05-.36.14-.36.07,0,.1.08.1.17,0,.1-.02.81-.43.81h-.92c-.25,0-.37-.16-.37-.51v-.16h-.76c-.3,0-.32-.27-.32-.34v-.96c0-.06.01-.34.32-.34h1.8c.3,0,.31.27.31.34v.96c0,.06,0,.34-.31.34h-.82v.11h.01ZM115.19,81.07c-.06,0-.14,0-.14-.13s.08-.12.14-.12h.51c.06,0,.14,0,.14.12s-.08.13-.14.13h-.51ZM115.2,81.56c-.07,0-.15,0-.15-.13s.08-.13.15-.13h.51c.06,0,.14,0,.14.13s-.08.13-.14.13h-.51ZM115.95,82.13h-.72s-.13,0-.13.17v.22h.85v-.39ZM115.95,82.79h-.85v.23c0,.16.09.16.13.16h.72v-.39ZM116.17,82.51h.9v-.22c0-.17-.08-.17-.12-.17h-.78v.39ZM116.17,83.18h.78s.12,0,.12-.16v-.23h-.9v.39ZM117.07,80.82c.06,0,.14,0,.14.12s-.08.13-.14.13h-.51c-.06,0-.14,0-.14-.13s.08-.12.14-.12h.51ZM116.56,81.56c-.06,0-.14,0-.14-.13s.08-.13.14-.13h.5c.06,0,.14,0,.14.13s-.08.13-.14.13h-.5Z"/>
    <path class="cls-5" d="M118.48,81.35c.07.12.19.3.19.39s-.05.16-.11.16c-.05,0-.08-.05-.13-.14-.19-.34-.4-.6-.51-.74-.04-.05-.05-.09-.05-.14,0-.07.03-.17.12-.17s.38.45.5.63M117.87,83.88s.02-.08.07-.17c.19-.34.43-.94.55-1.47.02-.07.04-.11.09-.11.07,0,.11.07.11.15,0,.11-.11.62-.45,1.36-.09.22-.18.41-.26.41-.03,0-.06-.02-.08-.05-.02-.02-.03-.07-.03-.12M118.59,80.16c.09.13.19.26.19.35,0,.08-.05.16-.11.16-.02,0-.04,0-.08-.06-.14-.21-.36-.48-.55-.71-.04-.04-.06-.07-.06-.15,0-.1.06-.16.1-.16.09,0,.42.41.52.56M119.83,80.47l.09-.45h-.68c-.15,0-.19.02-.19.24v1.42c0,.74-.09,1.47-.27,2.18-.06.28-.1.33-.16.33-.07,0-.11-.1-.11-.15s.11-.48.13-.59c.12-.55.19-1.13.19-1.71v-1.58c0-.43.14-.47.37-.47h1.5c.08,0,.18,0,.18.16s-.1.16-.18.16h-.56l-.09.45h.42c.09,0,.27.03.27.36v1.39c0,.36-.23.36-.27.36h-.35v1.09c0,.45-.23.48-.28.48-.1,0-.31-.1-.34-.13-.07-.03-.13-.07-.13-.18,0-.09.04-.16.09-.16s.27.13.32.13c.13,0,.13-.16.13-.26v-.98h-.4c-.1,0-.28-.04-.28-.36v-1.39c0-.36.23-.36.28-.36h.31v.02ZM119.27,83.28c.02-.08.13-.42.15-.51.01-.05.05-.08.09-.08.06,0,.1.07.1.15s-.04.34-.28.9c-.06.13-.15.37-.23.37-.07,0-.11-.08-.11-.16,0-.06.16-.38.27-.67M119.46,81.33h1.08v-.34c0-.2-.09-.2-.15-.2h-.78c-.05,0-.15,0-.15.2v.34ZM120.53,81.64h-1.08v.39c0,.2.09.2.15.2h.78c.05,0,.15,0,.15-.2v-.39ZM120.85,84.06c-.15,0-.51-1.04-.51-1.21,0-.09.05-.16.1-.16.07,0,.09.04.19.37.04.15.14.39.21.52.11.23.12.25.13.29.02.07-.02.2-.11.2"/>
    <path class="cls-5" d="M115.12,152.35c0,.1.03.16.11.16h.53s-.02.05-.03.13c-.05.17-.12.33-.22.48-.07-.1-.14-.19-.21-.26-.06-.06-.14-.14-.24-.23-.04-.03-.07-.04-.1-.04-.05.02-.09.07-.1.14,0,.05,0,.1.03.16.09.09.17.17.23.23.06.07.12.15.19.24-.13.13-.29.25-.49.37-.04.03-.06.1-.07.2.01.08.05.13.12.14,0,0,.02,0,.04-.02.25-.16.46-.34.62-.53,0,.1.04.15.1.16h1.02c.06,0,.1-.06.1-.15.14.17.3.33.48.47.03.02.05.03.06.03.06,0,.1-.06.11-.15,0-.11-.03-.17-.08-.2-.16-.14-.3-.28-.42-.4.12-.13.23-.26.32-.42.03-.04.04-.1.04-.16,0-.1-.04-.15-.1-.16-.04,0-.08,0-.11.05-.1.16-.22.31-.34.43h0c-.04-.05-.08-.11-.11-.17h0c.12-.12.22-.25.31-.4.03-.04.05-.1.05-.16-.02-.09-.04-.15-.1-.16-.05,0-.08.02-.11.05-.09.15-.19.27-.3.38-.05-.09-.09-.2-.12-.3-.04-.04-.07-.06-.1-.06-.06,0-.09.07-.09.16,0,.03,0,.07.03.11.14.37.29.66.46.88h-.94c.11-.18.2-.39.27-.64.03-.13.05-.22.06-.27,0-.16-.06-.24-.16-.25h-.6c-.08,0-.11.07-.11.18M115.08,154.33v.52c0,.21.07.32.2.32h.2l.13.7h-.75c-.07,0-.1.07-.1.17s.04.16.1.16h2.43c.06,0,.1-.06.1-.16,0-.11-.04-.17-.1-.17h-.72l.1-.7h.2c.13,0,.2-.11.2-.32v-.52c0-.22-.07-.33-.2-.33h-1.59c-.13,0-.2.11-.2.33M115.71,155.17h.74l-.1.7h-.51l-.13-.7ZM115.36,154.82s-.07-.04-.07-.1v-.27c0-.07.02-.1.07-.1h1.44s.07.03.07.1v.27c0,.07-.02.1-.07.1h-1.44Z"/>
    <path class="cls-5" d="M118.8,152.33c0,.11.03.16.1.16h.86s.07.03.07.1v.28h-.88c-.07,0-.1.06-.1.16,0,.12.04.17.1.18h.88v.3h-1.06c-.06,0-.1.06-.1.18,0,.1.03.15.1.16h.64v1.95c0,.09-.02.13-.08.13-.05,0-.11-.05-.17-.12h-.02c-.06,0-.1.08-.1.23,0,.03.03.06.06.12.1.09.19.13.26.13.19,0,.28-.14.28-.43v-.95s.03.08.04.12c.08.28.23.59.45.95.04.04.07.06.11.06.06-.02.09-.08.1-.18,0-.07-.01-.12-.03-.16-.16-.22-.3-.46-.41-.71,0,0,.02,0,.04-.02.12-.19.22-.41.31-.66.03-.05.05-.1.05-.16,0-.08-.04-.13-.09-.14-.04,0-.07,0-.1.03-.09.26-.2.48-.32.67-.05-.16-.1-.33-.15-.52v-.33h.57c.07,0,.1-.05.1-.16,0-.12-.04-.17-.1-.18h-.15v-1.02c0-.24-.08-.36-.23-.36h-.93c-.07,0-.1.06-.1.18M118.06,152.23c-.12.28-.26.52-.42.71-.03.04-.04.1-.04.16.01.11.06.18.12.2,0,0,.01,0,.04-.02.15-.22.29-.47.4-.75,0-.03.02-.05.04-.05s.02.02.04.05c.09.19.19.37.31.54.02,0,.04,0,.04,0,.07-.02.11-.08.12-.16,0-.1-.02-.16-.06-.2-.13-.14-.24-.31-.35-.5-.03-.07-.07-.1-.12-.1-.06,0-.1.04-.14.12M117.88,153.18c-.07,0-.1.06-.1.18,0,.1.04.15.1.16h.2v.41h-.32c-.06,0-.1.06-.1.17,0,.1.04.16.1.16h.32v1.47c-.1.03-.2.04-.31.05-.08.02-.12.09-.12.2,0,.1.05.17.13.18.27-.03.52-.1.74-.2.07,0,.12-.08.12-.2s-.05-.18-.13-.18c-.07.03-.14.06-.22.08v-1.41h.25c.07,0,.1-.06.1-.16,0-.11-.03-.17-.1-.17h-.25v-.41h.18c.06,0,.1-.06.1-.16,0-.12-.04-.17-.1-.18h-.6.01ZM117.69,154.68v.07c.03.12.06.23.07.33.02.1.03.25.05.42,0,.11.04.17.1.18.07,0,.11-.06.12-.18,0-.05,0-.13-.02-.25-.02-.22-.07-.42-.12-.63-.02-.07-.06-.11-.1-.11-.06,0-.1.07-.1.16M118.55,154.65c-.03.15-.05.27-.07.36-.02.1-.04.18-.07.26-.02.04-.02.08-.02.1,0,.1.03.15.09.17.03,0,.07-.04.1-.11.04-.12.08-.23.11-.35.02-.1.05-.21.07-.35v-.03c-.01-.1-.05-.15-.11-.16-.05,0-.08.05-.09.13M118.81,154.14s0,.09.02.14c.04.06.08.11.1.16.03.04.05.1.09.16.01.02.05.04.09.04.06,0,.09-.06.1-.14,0-.05,0-.08-.01-.13-.03-.07-.06-.13-.09-.18-.03-.05-.07-.1-.11-.16-.03-.02-.07-.04-.1-.04-.05.02-.08.07-.09.14M119.16,154.93c-.04.13-.08.25-.14.37-.06.11-.14.22-.22.31-.03.06-.05.11-.05.16.01.1.05.15.1.18.04,0,.09-.03.12-.07.1-.13.17-.26.23-.39.08-.16.13-.31.16-.47,0-.02.01-.03.02-.04-.01-.12-.05-.19-.1-.19-.06,0-.1.04-.11.14"/>
    <path class="cls-5" d="M115.28,123.26c-.06,0-.09.06-.1.18,0,.11.04.16.1.16h.8v.18h-.93c-.14,0-.22.12-.22.36v.39c0,.12.04.18.11.18s.11-.06.11-.18v-.3c0-.07.02-.11.06-.11h.86v.87c0,.11.04.16.11.17.06,0,.1-.06.1-.17v-.87h.91s.03.04.03.11v.13c-.01.05-.02.1-.02.14v.03c0,.1.03.16.09.18.06,0,.11-.04.14-.12.02-.12.02-.22.02-.31,0-.33-.09-.5-.28-.5h-.88v-.18h.84c.06,0,.09-.06.1-.16,0-.11-.04-.17-.1-.18h-1.85ZM115.4,124.24c-.05,0-.09.06-.09.18,0,.11.04.16.09.17h.44c.06,0,.09-.06.09-.17s-.03-.17-.09-.18h-.44ZM115.4,124.75c-.05,0-.09.06-.09.18,0,.1.04.15.09.16h.44c.06,0,.09-.06.09-.16,0-.12-.03-.18-.09-.18h-.44ZM116.54,124.24c-.06,0-.09.06-.09.18s.03.16.09.17h.44c.06,0,.09-.06.09-.17s-.04-.17-.09-.18h-.44ZM116.54,124.75c-.06,0-.09.06-.09.18,0,.1.03.15.09.16h.44c.06,0,.09-.06.09-.16,0-.12-.04-.18-.09-.18h-.44ZM115.15,125.6v.83c0,.23.07.34.2.34h.72v.11c0,.34.1.5.3.5h.59c.15,0,.28-.04.38-.1.08-.06.13-.16.15-.29.01-.13.03-.25.03-.36,0-.15-.04-.23-.11-.23-.06,0-.11.07-.11.18,0,.24-.03.38-.08.41-.07.05-.15.08-.26.08h-.59c-.05,0-.08-.08-.08-.23v-.06h.7c.14,0,.21-.11.21-.34v-.83c0-.22-.07-.34-.21-.34h-1.63c-.13,0-.2.12-.2.34M116.29,126.43v-.23h.69v.13c0,.07-.02.11-.07.11h-.62ZM115.43,126.43s-.07-.04-.07-.11v-.13h.71v.23h-.64ZM115.37,125.71c0-.07.02-.11.07-.11h.64v.25h-.71v-.14ZM116.91,125.6s.07.04.07.11v.14h-.69v-.25h.62Z"/>
    <path class="cls-5" d="M117.89,123.33c-.07,0-.1.06-.1.18,0,.1.03.16.1.16h.59c.06,0,.09-.06.09-.16,0-.12-.03-.17-.09-.18h-.59ZM117.78,123.88c-.07,0-.1.07-.11.18,0,.1.04.15.11.16h.83c.06,0,.09-.06.1-.16,0-.12-.04-.17-.1-.18h-.83ZM117.89,124.48c-.07,0-.1.07-.1.18,0,.1.03.16.1.16h.59c.06,0,.09-.06.09-.16,0-.11-.03-.17-.09-.18h-.59ZM117.89,125.06c-.07,0-.1.07-.1.18s.03.16.1.16h.61c.06,0,.1-.06.1-.16s-.03-.17-.1-.18h-.61ZM117.69,126v1.02c0,.22.07.32.19.32h.62c.13,0,.19-.1.19-.32v-1.02c0-.21-.07-.32-.19-.32h-.62c-.13,0-.19.11-.19.32M117.96,127s-.07-.04-.07-.11v-.77c0-.07.02-.11.07-.11h.47s.07.04.07.11v.77c0,.07-.03.11-.07.11h-.47ZM119.97,123.22c-.17.06-.33.1-.47.12-.14.03-.31.05-.51.06-.07,0-.1.06-.1.16,0,.12.03.17.09.18.17,0,.32-.02.43-.04v.62h-.56c-.06,0-.09.06-.1.18,0,.1.04.16.1.16h.56v.62h-.34c-.13,0-.19.11-.19.33v1.4c0,.22.07.32.19.32h.88c.13,0,.19-.1.19-.32v-1.4c0-.21-.06-.33-.19-.33h-.32v-.62h.48c.06,0,.09-.06.09-.16,0-.12-.04-.17-.09-.18h-.48v-.66c.11-.03.25-.06.39-.11.06-.02.08-.08.09-.16,0-.12-.04-.18-.11-.18h-.03,0ZM119.14,127s-.07-.04-.07-.11v-1.15c0-.07.03-.1.07-.1h.72c.05,0,.07.03.07.1v1.15c0,.07-.02.11-.07.11h-.72Z"/>
    <path class="cls-5" d="M112.58,166.54c.07,0,.11.06.11.18v.5h.18c.12,0,.17.07.17.21,0,.03-.02.11-.05.24-.06.26-.14.53-.25.78,0,.02,0,.04-.02.05v.08s.05,0,.07.03v.02c.11-.15.21-.33.3-.54.03-.02.06-.03.1-.03.05,0,.07.06.08.14,0,.06,0,.11-.04.16-.08.17-.17.33-.27.48.03.03.05.06.07.09.07.1.13.22.21.36.01.05.01.1.01.15-.01.1-.04.15-.1.16-.04,0-.07-.02-.09-.05-.07-.14-.13-.25-.2-.35-.04-.06-.08-.12-.14-.19v1.56c0,.12-.04.17-.11.18-.06,0-.1-.06-.1-.18v-1.6c-.07.13-.14.26-.21.4-.03.04-.05.06-.09.06-.07-.02-.1-.08-.1-.17,0-.02.01-.07.04-.16.12-.17.22-.35.32-.56.13-.26.23-.51.3-.75.04-.14.06-.21.06-.23h-.6c-.06,0-.1-.07-.1-.18,0-.1.04-.15.1-.16h.25v-.5c0-.12.03-.18.11-.18M113.22,166.77h1.07c.15,0,.23.13.23.4v2.26c0,.48-.05.81-.11.99-.07.2-.17.29-.31.29-.13,0-.29-.07-.49-.2-.05-.04-.07-.1-.08-.18.01-.11.05-.17.12-.18.02,0,.03,0,.05,0,.19.12.32.18.39.18.09,0,.14-.08.17-.25.03-.15.05-.36.05-.65v-2.19c0-.1-.02-.14-.07-.14h-.48v.59c0,.47-.02.88-.05,1.23-.05.45-.13.83-.24,1.13-.08.22-.17.41-.28.59-.03.04-.06.06-.1.06-.07-.03-.1-.09-.11-.2,0-.06,0-.12.04-.16.1-.17.18-.34.24-.48.1-.26.17-.56.22-.93.05-.42.06-.82.06-1.23v-.6h-.31c-.07,0-.1-.07-.1-.17,0-.11.03-.17.1-.18"/>
    <path class="cls-5" d="M115.26,168.8h.57v.41h-.57v-.41ZM116.04,166.91v-.15c0-.11-.03-.17-.1-.18-.07,0-.1.07-.1.18v.15h-.57v-.15c0-.11-.04-.17-.1-.18-.07,0-.11.07-.11.18v.15h-.08c-.06,0-.1.07-.1.18,0,.1.04.16.1.16h.08v1.96h-.14c-.07,0-.1.06-.1.18,0,.1.03.15.1.16h1.22c.06,0,.09-.06.09-.16,0-.12-.03-.17-.09-.18h-.1v-1.96h.06c.06,0,.09-.06.09-.16,0-.11-.04-.17-.09-.18h-.06ZM115.26,168h.57v.45h-.57v-.45ZM115.26,167.25h.57v.41h-.57v-.41ZM115.18,169.76c-.07.2-.18.41-.32.62-.02.03-.03.07-.03.13.01.08.05.13.11.16.03,0,.06-.02.1-.05.08-.13.15-.25.2-.37.05-.09.1-.2.15-.33.02-.03.02-.05.02-.08,0-.11-.05-.18-.12-.19-.05,0-.08.04-.1.11M115.69,169.76c0,.05.01.1.03.16.03.06.06.11.09.15.02.04.04.1.07.16.02.04.04.05.08.05.06,0,.1-.07.11-.16,0-.05,0-.1-.02-.14-.03-.07-.05-.13-.08-.17-.03-.05-.06-.1-.1-.15-.04-.02-.06-.03-.1-.03-.05,0-.08.06-.1.14M116.53,166.62c-.13,0-.2.11-.2.34v1.08c0,.47-.02.89-.05,1.26-.03.33-.1.7-.21,1.08-.03.05-.05.1-.05.17.02.08.05.15.12.18.03,0,.06-.02.08-.06.14-.42.22-.85.27-1.27,0-.05,0-.1.01-.16h.61v.88c0,.13-.04.2-.12.2-.04,0-.09-.03-.15-.07h-.02c-.06,0-.09.07-.1.19.01.08.04.13.09.16.11.05.21.07.27.07.16,0,.23-.11.23-.34v-3.39c0-.22-.06-.32-.19-.32h-.61.02ZM116.55,168.11h.56v.79h-.58c0-.25.02-.51.02-.79M116.55,167.08c0-.08.02-.11.06-.11h.44s.06.03.06.11v.69h-.56v-.69Z"/>
    <path class="cls-5" d="M117.6,167.27s0,.11.03.18c.07.1.13.21.17.3.05.09.1.2.16.33.02.04.05.06.1.06.07-.02.1-.08.1-.18v-.14c-.06-.14-.11-.26-.17-.35-.05-.1-.11-.2-.19-.31-.02-.02-.06-.03-.1-.03-.06,0-.09.07-.1.16M118.23,166.68v1.93s-.05.06-.07.12c-.09.28-.18.48-.26.6-.09.17-.19.33-.32.48-.02.06-.03.11-.03.16,0,.1.05.16.11.18.04,0,.07-.02.1-.06.1-.12.2-.28.3-.48.06-.11.11-.24.17-.39v1.35c0,.11.04.17.11.18.07,0,.1-.07.11-.18v-3.9c0-.11-.04-.17-.11-.18-.07,0-.11.06-.11.18M119.35,167.72v-1.02c0-.12-.04-.18-.11-.18s-.1.06-.1.18v1.02h-.54c-.06,0-.09.07-.1.18,0,.1.03.16.1.16h.53c0,.28-.03.55-.07.81-.05.33-.13.61-.22.86-.09.22-.19.44-.33.64-.02.05-.04.09-.04.13,0,.11.05.18.12.2.04,0,.08-.03.1-.09.17-.27.3-.56.4-.88.09-.3.14-.68.15-1.13.06.51.14.91.25,1.19.09.27.22.54.37.82.03.06.07.08.1.09.07,0,.1-.07.11-.18,0-.03-.01-.08-.04-.15-.2-.36-.36-.75-.47-1.15-.13-.43-.2-.82-.21-1.16h.61c.06,0,.09-.06.09-.16,0-.12-.03-.18-.09-.18h-.61ZM119.49,166.86s0,.1.03.16c.06.08.1.15.14.22s.08.15.13.24c.02.03.04.06.08.06.06-.02.1-.07.1-.16v-.14c-.06-.1-.1-.18-.13-.26-.05-.06-.1-.14-.15-.22-.03-.02-.07-.03-.1-.03-.05.02-.08.07-.09.14"/>
    <path class="cls-5" d="M120.62,168.42h.69v.16h-.69v-.16ZM120.79,166.66c-.07.15-.14.28-.21.4,0,.03-.01.05-.02.06l-.14.02c-.06,0-.09.07-.09.18,0,.1.03.16.09.16l.94-.16h0s.02.05.03.07c.02.04.05.06.09.06.06,0,.1-.07.11-.16,0-.04,0-.1-.02-.15-.02-.07-.04-.13-.07-.18-.02-.05-.05-.1-.09-.16-.03-.03-.06-.04-.09-.04-.06.02-.09.07-.1.15,0,.03,0,.06.01.09l-.37.06c.04-.1.08-.2.12-.31,0-.03.01-.04.01-.04,0-.12-.03-.18-.07-.18-.07,0-.11.04-.13.12M120.41,167.83v1.43c0,.11.04.17.1.17.07,0,.11-.06.11-.17v-.34h.69v.07c0,.07-.02.11-.07.11-.04,0-.09-.02-.16-.05h-.02c-.07,0-.11.07-.11.18,0,.08.04.13.08.16.1.04.2.06.29.06.13,0,.19-.11.19-.33v-1.29c0-.21-.06-.32-.19-.32h-.72c-.13,0-.2.11-.2.32M120.62,167.95c0-.06.02-.11.07-.11h.56s.07.04.07.11v.13h-.69v-.13h0ZM121.68,166.8v.75c0,.28.08.41.25.41h.32c.15,0,.26-.02.35-.07.08-.05.12-.12.14-.23.02-.1.03-.18.03-.27,0-.13-.04-.19-.11-.2-.07,0-.11.06-.11.16,0,.15-.03.22-.08.25-.06.03-.14.05-.25.05h-.22c-.07,0-.11-.06-.11-.18v-.11h.01c.14,0,.27-.04.38-.08.11-.04.2-.09.28-.16.02-.07.04-.12.04-.17,0-.12-.04-.19-.12-.21-.03,0-.06.03-.09.07-.07.08-.14.12-.22.16-.07.03-.16.05-.28.06v-.22c0-.11-.03-.16-.1-.16s-.11.05-.11.16M121.68,168.29v.76c0,.27.08.41.25.41h.32c.15,0,.26-.03.35-.08.08-.04.12-.12.14-.22s.03-.18.03-.26c0-.12-.04-.19-.11-.19s-.11.05-.11.16c0,.13-.03.21-.08.23-.06.02-.14.04-.25.04h-.22c-.07,0-.11-.06-.11-.18v-.1h.01c.14-.02.27-.05.38-.09s.2-.1.28-.17c.02-.07.04-.12.04-.15,0-.13-.04-.2-.12-.22-.03,0-.06.03-.09.07-.07.08-.14.13-.22.15-.07.04-.16.06-.28.07v-.22c0-.1-.03-.15-.1-.16-.07,0-.11.06-.11.16M120.58,169.85c-.07.21-.14.39-.22.54-.02.06-.03.09-.03.11,0,.11.04.16.09.18.04,0,.07-.02.1-.06.1-.18.18-.4.26-.67v-.05c0-.11-.03-.17-.08-.18-.06,0-.1.04-.12.12M120.93,169.82v.43c0,.27.08.41.25.41h.55c.14,0,.26-.02.35-.08.07-.04.13-.12.14-.23.02-.1.02-.2.02-.28,0-.14-.03-.21-.09-.22-.07,0-.11.06-.11.17,0,.16-.03.25-.08.27-.06.04-.15.05-.26.05h-.52s-.07-.07-.07-.2v-.32c0-.11-.03-.16-.1-.16s-.1.06-.1.16M121.4,169.71s0,.08.02.13c.07.08.15.2.22.35.03.06.05.09.09.09.07,0,.11-.06.12-.14v-.14c-.1-.18-.18-.3-.25-.37-.03-.06-.07-.09-.1-.09-.06,0-.1.07-.1.18M122.29,169.76s0,.08.02.14c.11.16.21.39.32.7.02.06.05.09.08.09.07,0,.11-.05.12-.14v-.13c-.13-.36-.25-.6-.34-.74-.03-.06-.06-.08-.09-.08-.06,0-.1.07-.11.17"/>
    <path class="cls-5" d="M114.02,96.01c0,.39-.02.68-.05.88-.07.48-.21.87-.41,1.19-.01.02-.02.05-.02.09,0,.13.04.2.11.21.04-.02.11-.13.21-.36.11-.25.2-.54.26-.88.06-.35.1-.73.09-1.13,0-.15-.03-.23-.09-.23s-.09.08-.1.23M113.24,94.84c0,.13.04.19.1.19h1.35c.07,0,.13.01.16.05.04.05.05.11.06.2-.01.2-.07.44-.17.7-.1.24-.2.41-.29.52-.03.04-.05.07-.05.11,0,.16.05.23.12.23.04,0,.11-.1.21-.27s.18-.38.26-.63c.08-.24.12-.47.12-.66,0-.2-.04-.35-.1-.47-.05-.11-.14-.16-.25-.16h-1.42c-.07,0-.1.06-.1.19"/>
    <path class="cls-5" d="M115.82,94.5h1.2c.07,0,.11.06.11.19,0,.12-.04.18-.11.18h-1.2c-.08,0-.11-.06-.11-.18s.03-.19.11-.19M115.64,95.37h1.37c.11,0,.19.05.24.16.05.1.08.23.08.39,0,.28-.07.64-.2,1.07-.28.89-.72,1.34-1.32,1.35-.07,0-.11-.08-.11-.25,0-.07.03-.11.08-.11.31-.02.54-.11.7-.29.2-.21.36-.5.48-.88.12-.35.18-.65.18-.89,0-.12-.04-.18-.12-.18h-1.37c-.08,0-.11-.06-.11-.18,0-.13.04-.19.11-.19"/>
    <path class="cls-5" d="M117.93,96.16h1.5c.06,0,.1.06.1.18,0,.11-.04.16-.1.16h-1.5c-.07,0-.1-.05-.1-.16,0-.12.03-.18.1-.18"/>
    <path class="cls-5" d="M120.87,94.57c.05,0,.08.07.08.19,0,.03,0,.08-.03.16l-.63,2.28c-.03.08-.04.14-.04.19,0,.08.02.12.06.11.05-.02.19-.07.41-.14.28-.09.51-.17.71-.26l-.13-.45c-.02-.07-.03-.12-.03-.16,0-.12.04-.19.11-.19.02,0,.04.05.07.14.13.49.26.93.36,1.35.02.09.04.14.04.14,0,.1-.04.16-.12.17-.03,0-.06-.03-.07-.11-.03-.11-.07-.29-.14-.55-.23.1-.51.21-.83.3-.33.1-.5.15-.49.15-.14,0-.2-.1-.2-.29,0-.08.04-.24.11-.51l.65-2.37c.03-.11.06-.16.1-.16"/>
    <path class="cls-5" d="M115.59,138.69l.43,1.6h-.89l.45-1.6h.01ZM115.48,138.18l-.96,3.25c-.02.07-.02.14-.02.23,0,.11.03.16.1.17.05,0,.1-.06.14-.14l.28-.99h1.12l.27.99c.04.08.08.13.14.14.07,0,.1-.07.1-.17l-.03-.23-.92-3.25c-.03-.1-.08-.16-.11-.16-.04,0-.08.05-.11.16"/>
    <path class="cls-5" d="M117.25,138.31c-.31.37-.46.94-.46,1.73,0,.42.03.74.11.96.08.23.19.42.34.58.17.17.33.25.49.25s.31-.07.46-.19c.09-.08.17-.2.27-.37.11-.19.16-.36.17-.49,0-.16-.06-.24-.15-.24-.04,0-.07.03-.08.11-.06.23-.15.42-.27.56-.13.14-.25.21-.39.21s-.27-.08-.39-.23c-.19-.24-.29-.62-.29-1.15,0-.38.04-.7.11-.95.07-.22.17-.4.29-.52.1-.08.22-.12.35-.12.16,0,.29.07.38.19.11.14.18.3.2.49,0,.07.03.12.07.12.1,0,.15-.09.15-.24,0-.13-.04-.28-.12-.45-.03-.08-.07-.14-.11-.2-.16-.21-.35-.32-.58-.32s-.4.09-.56.27"/>
    <path class="cls-5" d="M120.49,138.11c.09,0,.14.07.15.21,0,.13-.06.2-.15.2h-.68v3.06c0,.16-.04.25-.12.25s-.12-.09-.12-.25v-3.06h-.68c-.1,0-.14-.07-.14-.2,0-.14.04-.21.14-.21h1.6Z"/>
    <path class="cls-5" d="M112.38,184.33c.3-.28.65-.67,1.05-1.73h-.96v-.45h1.02v-.69h.24v.69h.54v.45h-.54v1.98c0,.51-.19.51-.37.51-.11,0-.17,0-.24-.02l-.03-.46c.09,0,.21.02.31.02.03,0,.1,0,.1-.17v-1.32c-.36.93-.79,1.39-.96,1.56l-.15-.39v.02Z"/>
    <path class="cls-5" d="M114.91,185.07c1.04-.43,1.27-1.51,1.37-2.93.15,0,.23-.24.23-.44,0-.24-.1-.44-.22-.44s-.23.19-.23.43v.1h-1.44v.45h1.4c-.1,1.58-.47,2.13-1.22,2.37l.12.47h-.01ZM116.38,181.7c0,.12-.04.2-.1.2-.05,0-.1-.09-.1-.2s.05-.2.1-.2c.06,0,.1.09.1.2"/>
    <path class="cls-5" d="M117.28,183.43c-.28-.27-.29-.29-.61-.48l.11-.43c.13.05.39.21.61.46l-.11.44h0ZM116.79,184.48c.81-.09,1.19-.62,1.47-2.29l.24.2c-.26,1.43-.62,2.43-1.65,2.6l-.06-.51h0ZM117.47,182.49c-.24-.26-.5-.41-.63-.48l.11-.42c.12.05.37.19.63.46l-.11.44h0Z"/>
    <polygon class="cls-5" points="120.26 182.45 120.26 184.96 119.04 184.96 119.04 184.54 120.02 184.54 120.02 183.88 119.08 183.88 119.08 183.46 120.02 183.46 120.02 182.86 119.06 182.86 119.06 182.45 120.26 182.45"/>
    <path class="cls-5" d="M121.7,182.3c-.29-.35-.48-.48-.67-.58l-.12.42c.22.13.49.39.65.62l.13-.45h.01ZM121.02,185.03c.94-.23,1.42-.98,1.74-2.83l-.24-.22c-.32,1.9-.83,2.41-1.58,2.51l.08.53h0Z"/>
    <path class="cls-5" d="M111.93,110.73c-.07,0-.15,0-.15-.19s.08-.19.15-.19h1.61c.07,0,.16,0,.16.19s-.09.19-.16.19h-.66c0,.78-.1,1.23-.24,1.55-.22.5-.49.63-.52.63s-.09-.04-.09-.19c0-.13.04-.16.12-.21.12-.07.4-.37.5-.97.03-.2.05-.41.06-.81h-.78ZM113.28,109.16c.07,0,.15,0,.15.19s-.09.19-.15.19h-1.18c-.07,0-.15,0-.15-.19s.08-.19.15-.19h1.18ZM113.44,108.84s.02-.09.05-.09c.05,0,.25.63.25.77,0,.08-.03.14-.07.14-.05,0-.05-.04-.08-.21-.03-.15-.09-.4-.11-.48,0-.02-.03-.11-.03-.13M113.61,108.68s.02-.1.05-.1c.06,0,.25.61.25.77,0,.08-.03.13-.06.13-.04,0-.05-.05-.06-.1-.05-.28-.11-.49-.14-.58,0-.02-.04-.11-.04-.13"/>
    <path class="cls-5" d="M116.02,110.76c.06,0,.1.09.1.2s-.04.2-.1.2h-1.87c-.07,0-.1-.1-.1-.2,0-.08.03-.2.1-.2h1.87Z"/>
    <path class="cls-5" d="M117.15,109.97c-.25.88-.58,1.23-.63,1.23s-.09-.07-.09-.18.03-.15.08-.2c.06-.07.5-.53.63-1.76,0-.11.03-.25.1-.25.05,0,.09.09.09.18,0,.04-.02.31-.09.63h.78c.14,0,.2.13.2.36,0,.15-.06.87-.38,1.71.09.19.18.39.18.51,0,.08-.03.18-.09.18-.03,0-.05-.03-.06-.06-.04-.1-.1-.26-.15-.36-.4.81-.91,1.07-.95,1.07-.05,0-.09-.08-.09-.19,0-.13.04-.16.09-.18.46-.26.7-.68.83-.94-.12-.24-.2-.39-.4-.72-.04-.07-.05-.11-.05-.16,0-.11.05-.16.09-.16.08,0,.47.75.49.78.29-.74.32-1.38.32-1.39,0-.1-.03-.1-.09-.1h-.81Z"/>
    <path class="cls-5" d="M119.06,111.18c0-.12-.02-.17-.08-.17h-.16c-.05,0-.12,0-.12-.15s.07-.15.12-.15h.25c.06,0,.14.09.14.34v1.05c0,.09.02.39.17.55.11.12.25.13.3.13h1.01c.05,0,.12,0,.12.14s-.06.14-.12.14h-1.09c-.18,0-.36-.17-.47-.48-.07.13-.28.53-.35.53-.03,0-.07-.05-.07-.16,0-.08.01-.1.12-.27.04-.06.13-.21.24-.42v-1.09h-.01ZM119.2,109.7c0,.06-.03.15-.08.15-.03,0-.04-.03-.13-.27-.05-.14-.14-.32-.2-.45-.02-.04-.04-.08-.04-.14,0-.11.05-.17.09-.15.06.03.36.7.36.86M119.94,111.63h-.43v.66c0,.12,0,.26-.07.26s-.08-.14-.08-.26v-2.13c0-.2.08-.33.17-.33h.28c-.17-.35-.17-.36-.17-.41,0-.1.04-.15.07-.15.05,0,.25.43.31.57.2-.27.32-.5.32-.57t-.06-.03h-.84c-.05,0-.12,0-.12-.15s.07-.14.12-.14h.99s.13.05.13.24-.17.48-.29.66h.29c.1,0,.15.16.15.26v2.17c0,.13-.04.33-.2.33-.03,0-.13-.02-.21-.06-.03-.02-.06-.06-.06-.15,0-.06.02-.14.07-.14.02,0,.14.05.17.05.08,0,.08-.14.08-.21v-.45h-.47v.7c0,.12,0,.26-.08.26s-.07-.15-.07-.26v-.72ZM119.94,110.11h-.35c-.07,0-.08.12-.08.21v.24h.43v-.45ZM119.94,110.85h-.43v.48h.43v-.48ZM120.09,110.56h.47v-.27c0-.13-.03-.18-.08-.18h-.38v.45h-.01ZM120.09,111.33h.47v-.48h-.47v.48Z"/>
    <path class="cls-5" d="M121.5,112.9c0,.12,0,.27-.08.27s-.08-.15-.08-.27v-2.46c-.07.22-.21.68-.29.68-.04,0-.08-.07-.08-.16,0-.07.03-.13.05-.2.29-.67.4-1.39.46-1.81.03-.16.04-.24.1-.24.03,0,.08.05.08.15s-.06.48-.17.96v3.08h.01ZM123.02,109.58c.05,0,.12,0,.12.14s-.06.15-.12.15h-1.27c-.05,0-.11,0-.11-.14s.06-.14.11-.14h1.27ZM121.9,113.06s-.15-.03-.15-.34v-.85c0-.32.11-.34.15-.34h1s.15.03.15.34v.85c0,.32-.12.34-.15.34h-1ZM122.91,110.88c.05,0,.12,0,.12.14s-.07.14-.12.14h-1.02c-.05,0-.12,0-.12-.14s.06-.14.12-.14h1.02ZM122.9,110.22c.05,0,.12,0,.12.14s-.07.15-.12.15h-1c-.05,0-.12,0-.12-.14s.06-.15.12-.15h1ZM122.91,108.93c.05,0,.12,0,.12.14s-.06.14-.12.14h-.99c-.05,0-.12,0-.12-.14s.06-.14.12-.14h.99ZM122.82,112.77c.07,0,.08-.04.08-.15v-.64c0-.11,0-.15-.08-.15h-.83c-.07,0-.08.03-.08.15v.64c0,.11,0,.15.08.15h.83Z"/>
  </g>
</svg>