<?xml version="1.0" encoding="UTF-8"?>
<svg xmlns="http://www.w3.org/2000/svg" version="1.1" viewBox="0 0 173.7 283.5">
  <defs>
    <style>
      .cls-1 {
        stroke-width: .5px;
      }

      .cls-1, .cls-2 {
        fill: none;
        stroke: #231815;
        stroke-linecap: round;
        stroke-linejoin: round;
      }

      .cls-3 {
        fill: #231815;
      }

      .cls-4 {
        fill: #fff;
      }
    </style>
  </defs>
  <!-- Generator: Adobe Illustrator 28.7.1, SVG Export Plug-In . SVG Version: 1.2.0 Build 142)  -->
  <g>
    <g id="_レイヤー_1" data-name="レイヤー_1">
      <g>
        <path class="cls-4" d="M4.6,220.8c.2-1,.3-2.8.5-3.6.1-.8.9-1.8,2.4-2.7,1.5-.9,60.2-33.6,61.2-34.3,1-.6,2.9-.8,4.7.2,1.8,1,91.4,53.3,92.6,54.1,1.2.8,2,1.8,2.1,2.9.1,1.1.3,1.9.3,3,0,1.2-.6,2.8-1.8,3.4-1.3.6-54.8,31.8-57.1,33-2.3,1.2-7.6,1.9-10.9,0-3.3-1.9-90.4-52-92.1-53-1.7-1-2.1-2-1.9-3"/>
        <path class="cls-2" d="M4.6,220.8c.2-1,.3-2.8.5-3.6.1-.8.9-1.8,2.4-2.7,1.5-.9,60.2-33.6,61.2-34.3,1-.6,2.9-.8,4.7.2,1.8,1,91.4,53.3,92.6,54.1,1.2.8,2,1.8,2.1,2.9.1,1.1.3,1.9.3,3,0,1.2-.6,2.8-1.8,3.4-1.3.6-54.8,31.8-57.1,33-2.3,1.2-7.6,1.9-10.9,0-3.3-1.9-90.4-52-92.1-53-1.7-1-2.1-2-1.9-3Z"/>
        <path class="cls-1" d="M166,234.6c2.4,1.4,1.3,4.7,0,5.3-1.3.6-54.3,31.9-56.6,33.1-2.3,1.2-7.6,1.9-10.9,0-3.3-1.9-90.4-52-92.1-53-1.7-1-1-4.2,1-5.4"/>
        <path class="cls-4" d="M20.6,26.7v165.3c0,7.3,2,13.6,6.7,16.2,4.8,2.6,86.4,50,89.2,51.5,2.8,1.5,5.6,2.3,7.7,1,2.1-1.3,24.5-14.2,25.6-14.8,1.1-.6,2-3.6,2-5.7V70.1c0-4.9-1.4-9.1-7.1-12.5-5.7-3.3-85.8-50.1-88.6-51.5-2.7-1.4-5.3-1.4-7.4-.3-2.1,1-21.4,12.4-23.9,13.8-2.5,1.4-4.4,4-4.4,7.1"/>
        <path class="cls-2" d="M20.6,26.7v165.3c0,7.3,2,13.6,6.7,16.2,4.8,2.6,86.4,50,89.2,51.5,2.8,1.5,5.6,2.3,7.7,1,2.1-1.3,24.5-14.2,25.6-14.8,1.1-.6,2-3.6,2-5.7V70.1c0-4.9-1.4-9.1-7.1-12.5-5.7-3.3-85.8-50.1-88.6-51.5-2.7-1.4-5.3-1.4-7.4-.3-2.1,1-21.4,12.4-23.9,13.8-2.5,1.4-4.4,4-4.4,7.1Z"/>
        <path class="cls-1" d="M124.3,260.7c1.1-.6,1.7-2.9,1.7-5V85.6c0-4.9-1.4-9.1-7.1-12.5-5.7-3.3-87.2-50.8-89.9-52.2-2.7-1.4-4.9-.8-6.1.3"/>
        <path class="cls-1" d="M136.8,253.3c1.1-.6,1.7-2.9,1.7-5.1v-67.4l9.9-5.7c1.3-.7,2.4-2.6,2.4-4.1v-97.6c0-1.5-1.1-2.1-2.4-1.4l-9.9,5.7c0-4.9-1.6-8.7-7.3-12-5.7-3.3-87.2-50.8-89.9-52.2-2.7-1.4-4.9-.8-6.1.3"/>
        <path class="cls-3" d="M130.2,243.2c0-.4,0-.9,0-1.2h0c0,.4-.2.8-.3,1.3l-.4,1.7h-.2c0,.1-.4-1-.4-1-.1-.3-.2-.7-.3-1h0c0,.4,0,.9,0,1.3v1.3c0,0-.4.2-.4.2l.2-3,.4-.2.4,1.2c.1.3.2.6.3.8h0c0-.3.2-.7.3-1.1l.5-1.7.4-.2.2,2.8-.3.2"/>
        <path class="cls-3" d="M131.4,240.9v1.7c0,.6.3.8.6.6.4-.2.6-.6.6-1.3v-1.7l.3-.2v1.7c0,.9-.4,1.5-1,1.8-.5.3-.9.2-.9-.7v-1.7"/>
        <polyline class="cls-3" points="133.5 239.7 133.8 239.5 133.8 242.1 134.9 241.5 134.9 241.8 133.5 242.6"/>
        <polyline class="cls-3" points="135.7 238.7 134.9 239.1 134.9 238.8 136.8 237.7 136.8 238.1 136 238.5 136 241.1 135.7 241.3"/>
        <polyline class="cls-3" points="137.4 237.4 137.4 240.3 137.1 240.5 137.1 237.6"/>
        <polyline class="cls-3" points="131.8 194.3 131.8 194.3 131.4 194.8 131.3 194.5 131.9 193.9 132.2 193.7 132.2 196.5 131.8 196.7"/>
        <path class="cls-3" d="M129.2,194c.3-.2.5-.5.6-.9l1.4-.8.8.4c.1,0,.4.2.6,0h.2c0,0,0,.2,0,.2l.8-.5v-1l-.8.5v.3h-.2c-.2.2-.3.1-.4,0,0,0-.3-.2-.6-.3l2.6-1.5v.4l1-1.1h-1s0,.4,0,.4l-3.5,2,.5-1c.1-.2.2-.3.4-.5l.6-.4c0,.2.3.3.5.1.3-.2.5-.6.5-.9s-.2-.5-.5-.3c-.2.1-.4.4-.5.7l-.6.4c-.4.2-.5.5-.6.7,0,0-.5,1-.6,1.3l-.6.3c0-.2-.3-.3-.6-.2-.3.2-.6.7-.6,1s.3.5.6.3"/>
        <path class="cls-1" d="M148,186.7c0,1.2-.8,2.7-1.9,3.3l-18.1,10.4c-1,.6-1.9.1-1.9-1.1v-5.5c0-1.2.9-2.7,1.9-3.3l18.1-10.4c1-.6,1.9-.1,1.9,1.1v5.5Z"/>
        <path class="cls-1" d="M148,212.6c0,1.2-.8,2.7-1.9,3.3l-18.1,10.4c-1,.6-1.9.1-1.9-1.1v-5.5c0-1.2.9-2.7,1.9-3.3l18.1-10.4c1-.6,1.9-.1,1.9,1.1v5.5Z"/>
        <path class="cls-1" d="M138.5,240.7l-10.5,6.1c-.6.4-1.1,0-1.1-.7v-3.3c0-.7.5-1.6,1.1-2l10.5-6.1"/>
        <path class="cls-3" d="M131.1,223v-.2l.3-.4c.6-1,.9-1.6.9-2s-.1-.5-.5-.3c-.2.1-.4.4-.5.5v-.2c0-.3.3-.5.6-.7.5-.3.7,0,.7.4s-.3,1.1-.8,2l-.2.3h0s1.1-.6,1.1-.6v.3"/>
        <path class="cls-3" d="M129.2,219.9c.3-.2.5-.5.6-.9l1.4-.8.8.4c.1,0,.4.2.6,0h.2c0,0,0,.2,0,.2l.8-.5v-1l-.8.5v.3h-.2c-.2.2-.3.1-.4,0,0,0-.3-.2-.6-.3l2.6-1.5v.4l1-1.1h-1s0,.4,0,.4l-3.5,2,.5-1c.1-.2.2-.3.4-.5l.6-.4c0,.2.3.3.5.1.3-.2.5-.6.5-.9s-.2-.5-.5-.3c-.2.1-.4.4-.5.7l-.6.4c-.4.2-.5.5-.6.7,0,0-.5,1-.6,1.3l-.6.3c0-.2-.3-.3-.6-.2-.3.2-.6.7-.6,1s.3.5.6.3"/>
        <polyline class="cls-3" points="136.7 92.1 136.9 92 136.9 92.8 136.3 91.9 135.6 92.3 135.6 92.7 135.8 92.6 135.8 94 135.6 94.1 135.6 94.5 136.5 94 136.5 93.6 136.3 93.7 136.3 92.9 136.9 93.8 137.3 93.5 137.3 91.7 137.5 91.6 137.5 91.2 136.7 91.7"/>
        <polyline class="cls-3" points="137.7 92 138.1 91.7 138.1 91.3 138.3 91.2 138.3 92.5 138 92.7 138 93.1 139.1 92.5 139.1 92.1 138.8 92.2 138.8 90.9 139 90.8 139 91.2 139.4 91 139.4 90.1 137.7 91.1"/>
        <polyline class="cls-3" points="140.9 89.7 140.9 90.1 141.3 89.9 141.3 89 139.6 90 139.6 90.9 139.9 90.7 139.9 90.2 140.1 90.1 140.1 91.5 139.9 91.6 139.9 92.1 141 91.4 141 91 140.7 91.2 140.7 89.8"/>
        <path class="cls-3" d="M137.2,90.3c.6,0,1.4-.5,2.1-1.1,1.5-1.3,2.5-3.3,2.7-5.1,0-.6,0-1.2-.2-1.7-.3-.8-.8-1.3-1.7-1.2-.5,0-1.2.4-1.7,1h0c-.3,0-.6.2-.9.4-.9.5-1.7,1.6-2.1,2.7-.5,1.3-.7,2.7-.4,3.6.3,1,1.2,1.5,2.2,1.4M137.8,84.8c0-.5.2-.9.5-1.3h.1c0-.1.1,0,.1,0,.3.2.5.5.5,1.1,0,.3-.2.6-.4.9-.2.2-.5.3-.7.3-.2,0-.3-.4-.2-.8M135.8,86.9c0-.2,0-.5.1-.7.1-.5.3-1,.6-1.5.3-.4.6-.8.9-1h0s0,0,0,0c-.4.8-.6,1.6-.5,2.3,0,.6.6.9,1.1.7.7-.2,1.3-.9,1.6-1.7.2-.5.3-.9.2-1.3,0-.5-.3-.9-.6-1.1h0c.5-.3.9-.2,1.2,0,.4.3.6.9.6,1.6,0,1.2-.6,2.7-1.5,3.7-.5.6-1.1,1-1.7,1.2h-.4c0,.1,0,0,0,0-1,.2-1.7-.5-1.8-1.8,0-.2,0-.3,0-.5"/>
        <path class="cls-3" d="M133.9,99.3c.1-.1.3-.2.5-.3.3-.2.5-.2.6-.1.1,0,.2.2.2.4s0,.4-.2.6c-.1.3-.4.5-.6.6h-.2v1.1l-.3.2M134.1,100.3h.2c.3-.3.5-.6.5-.9s-.2-.4-.5-.2l-.3.2v1Z"/>
        <path class="cls-3" d="M137.4,98.5c0,.8-.4,1.5-1,1.9-.6.3-1,0-1-.7s.4-1.5,1-1.9c.6-.3,1,0,1,.7M135.7,99.4c0,.5.2.9.7.6.4-.3.7-.9.7-1.4s-.2-.9-.7-.6c-.5.3-.7.9-.7,1.4"/>
        <path class="cls-3" d="M138.1,99.3l-.5-2.1.3-.2.3,1.1c0,.3.1.5.2.8h0c0-.3.1-.6.2-1l.3-1.4.3-.2.3,1.1c0,.3.1.5.1.8h0c0-.3.1-.6.2-1l.3-1.4.3-.2-.6,2.8-.3.2-.3-1.1c0-.3-.1-.5-.1-.7h0c0,.3,0,.5-.2.9l-.3,1.5"/>
        <polyline class="cls-3" points="141.5 96.2 140.7 96.7 140.7 97.5 141.6 97 141.6 97.3 140.4 98 140.4 95.5 141.5 94.8 141.5 95.1 140.7 95.6 140.7 96.4 141.5 95.9"/>
        <path class="cls-3" d="M141.9,94.6c.1-.1.3-.2.5-.4.3-.2.5-.2.6-.2.1,0,.2.2.2.4,0,.3-.2.6-.4.8h0c.2,0,.3.1.3.3,0,.3.1.5.2.6l-.3.2c0,0,0-.2-.1-.5,0-.3-.2-.4-.4-.2l-.3.2v1.1l-.3.2M142.2,95.6l.3-.2c.3-.2.5-.5.5-.7s-.2-.3-.5-.2l-.3.2v.9Z"/>
        <polyline class="cls-3" points="136.5 107.5 136.5 110 136.2 110.1 136.2 107.7"/>
        <path class="cls-3" d="M136.9,109.7v-2.5l.3-.2.7.8c.2.2.3.4.4.6h0c0-.3,0-.6,0-1v-1h.3c0-.1,0,2.3,0,2.3l-.3.2-.7-.9c-.2-.2-.3-.4-.4-.6h0c0,.3,0,.6,0,1v1"/>
        <polyline class="cls-3" points="139.3 105.9 139.3 108.3 139 108.5 139 106"/>
        <polyline class="cls-3" points="140.2 105.6 139.5 106 139.5 105.7 141.1 104.8 141.1 105.1 140.4 105.5 140.4 107.6 140.2 107.8"/>
        <path class="cls-3" d="M134.3,120.2l-.2.9-.3.2.7-2.9.3-.2.7,2-.3.2-.2-.6M135,119.6l-.2-.6v-.4c-.1,0-.1,0-.1,0,0,.2,0,.3-.1.5l-.2.8.6-.4Z"/>
        <polyline class="cls-3" points="135.9 117.6 136.2 117.5 136.2 119.6 137.1 119.1 137.1 119.4 135.9 120.1"/>
        <path class="cls-3" d="M137.7,118.2l-.2.9-.3.2.7-2.9.3-.2.7,2-.3.2-.2-.6M138.4,117.6l-.2-.6v-.4c-.1,0-.1,0-.1,0,0,.2,0,.3-.1.5l-.2.8.6-.4Z"/>
        <path class="cls-3" d="M139.3,115.7c.1-.1.3-.2.5-.4.3-.2.5-.2.6-.2.1,0,.2.2.2.4,0,.3-.2.6-.4.9h0c.2,0,.3.1.3.3,0,.3.1.5.2.6l-.3.2c0,0,0-.2-.1-.5,0-.3-.2-.4-.4-.2h-.3v1.2l-.3.2M139.6,116.6l.3-.2c.3-.2.5-.5.5-.7s-.2-.3-.5-.2l-.3.2v.9Z"/>
        <path class="cls-3" d="M142.8,115c0-.3,0-.7,0-1h0c0,.3-.2.7-.3,1.1l-.4,1.4h-.2c0,.1-.3-.8-.3-.8-.1-.3-.2-.6-.2-.8h0c0,.3,0,.7,0,1.1v1.1c0,0-.3.2-.3.2v-2.5c.1,0,.5-.2.5-.2l.4,1c0,.3.2.5.2.7h0c0-.3.1-.6.2-1l.4-1.4.3-.2v2.4c.1,0-.1.2-.1.2"/>
        <path class="cls-3" d="M135,130.4c0,.1-.3.3-.6.4-.6.3-1,.2-1-.6s.5-1.5,1.1-1.9c.3-.2.4-.2.5-.2v.3c-.2,0-.3,0-.5.1-.5.3-.8.8-.8,1.5s.3.8.8.5c.2,0,.3-.2.5-.4"/>
        <path class="cls-3" d="M137.2,127.9c0,.8-.4,1.5-1,1.9-.6.3-1,0-1-.7s.4-1.5,1-1.9c.6-.3,1,0,1,.7M135.5,128.9c0,.5.2.9.7.6.4-.3.7-.9.7-1.4s-.2-.9-.7-.6c-.5.3-.7.9-.7,1.4"/>
        <path class="cls-3" d="M137.6,129v-2.5l.3-.2.7.8c.2.2.3.4.4.6h0c0-.3,0-.6,0-1v-1h.3c0-.1,0,2.3,0,2.3l-.3.2-.7-.9c-.1-.2-.3-.4-.4-.6h0c0,.3,0,.6,0,1v1"/>
        <polyline class="cls-3" points="139.6 125.3 140.8 124.7 140.8 125 139.9 125.5 139.9 126.3 140.7 125.8 140.7 126.1 139.9 126.5 139.9 127.6 139.6 127.8"/>
        <polyline class="cls-3" points="141.4 124.3 141.4 126.8 141.2 126.9 141.2 124.5"/>
        <path class="cls-3" d="M143.5,125.4c-.1.1-.4.3-.7.5-.3.2-.6.2-.8.1-.2,0-.3-.4-.3-.7,0-.7.4-1.5,1.2-1.9.2-.1.4-.2.5-.2v.3c-.2,0-.3,0-.5.2-.5.3-.9.9-.9,1.5s.3.8.8.5c.2-.1.3-.2.4-.3v-.7l-.4.2v-.3l.7-.4"/>
        <path class="cls-3" d="M136.2,137.2c.1-.1.3-.2.5-.3.3-.2.5-.2.6-.1.1,0,.2.2.2.4s0,.4-.2.6c-.1.3-.4.5-.6.6h-.2v1.1l-.3.2M136.5,138.3h.2c.3-.3.5-.6.5-.9s-.2-.4-.5-.2l-.3.2v1Z"/>
        <path class="cls-3" d="M137.9,136.3c.1-.1.3-.2.5-.3.3-.2.5-.2.6-.1.1,0,.2.2.2.4s0,.4-.2.6c-.1.3-.4.5-.6.6h-.2v1.1l-.3.2M138.2,137.3h.2c.3-.3.5-.6.5-.9s-.2-.4-.5-.2l-.3.2v1Z"/>
        <path class="cls-3" d="M139.6,135.3c.1-.1.3-.2.5-.3.3-.2.5-.2.6-.1.1,0,.2.2.2.4s0,.4-.2.6c-.1.3-.4.5-.6.6h-.2v1.1l-.3.2M139.9,136.3h.2c.3-.3.5-.6.5-.9s-.2-.4-.5-.2l-.3.2v1Z"/>
        <path class="cls-3" d="M136.3,149.4l-.7-2.1.3-.2.3,1c0,.3.2.5.2.8h0c0-.3.1-.7.2-1.1l.4-1.4.3-.2-.8,2.9"/>
        <path class="cls-3" d="M138.9,147c0,.7-.4,1.2-.8,1.4-.4.2-.7,0-.7-.5s.3-1.1.8-1.4c.4-.3.7,0,.7.5M137.7,147.7c0,.4.2.6.5.4.3-.2.5-.6.5-1s-.1-.6-.5-.4c-.3.2-.5.6-.5,1"/>
        <polyline class="cls-3" points="139.6 145.1 139.6 147.5 139.3 147.7 139.3 145.2"/>
        <path class="cls-3" d="M140,144.8c.1-.1.3-.2.5-.4.3-.2.5-.2.6-.1.1,0,.2.2.2.4s0,.4-.2.6c-.1.3-.4.5-.6.6h-.2v1.1l-.3.2M140.3,145.8h.2c.3-.3.5-.6.5-.9s-.2-.4-.5-.2l-.3.2v1Z"/>
        <path class="cls-3" d="M135.8,159.3l-.5-2.1.3-.2.3,1.1c0,.3.1.5.2.8h0c0-.3.1-.6.2-1l.3-1.4.3-.2.3,1.1c0,.3.1.5.1.8h0c0-.3.1-.6.2-1l.3-1.4.3-.2-.6,2.8-.3.2-.3-1.1c0-.3-.1-.5-.1-.7h0c0,.3,0,.5-.2.9l-.3,1.4"/>
        <path class="cls-3" d="M138.4,157l-.2.9-.3.2.7-2.9.3-.2.7,2-.3.2-.2-.6M139.1,156.4l-.2-.6v-.4c-.1,0-.1,0-.1,0,0,.2,0,.3-.1.5l-.2.8.6-.4Z"/>
        <path class="cls-3" d="M140,156.9v-2.5l.3-.2.7.8c.2.2.3.4.4.6h0c0-.3,0-.6,0-1v-1l.3-.2v2.5l-.3.2-.7-.9c-.1-.2-.3-.4-.4-.6h0c0,.3,0,.6,0,1v1"/>
        <path class="cls-3" d="M134.4,176.2c0,.8-.4,1.5-1,1.9-.6.3-1,0-1-.7s.4-1.5,1-1.9c.6-.3,1,0,1,.7M132.7,177.1c0,.5.2.9.7.6.4-.2.7-.9.7-1.4s-.2-.9-.7-.6c-.5.3-.7.9-.7,1.4"/>
        <path class="cls-3" d="M136.4,176.2c-.1.1-.4.3-.7.5-.3.2-.6.2-.8.1-.2,0-.3-.4-.3-.7,0-.7.4-1.5,1.2-1.9.2-.1.4-.2.5-.2v.3c-.2,0-.3,0-.5.2-.5.3-.9.9-.9,1.5s.3.8.8.5c.2-.1.3-.2.4-.3v-.7l-.4.2v-.3l.7-.4"/>
        <path class="cls-3" d="M137.1,174.6c-.2,0-.3-.1-.3-.3,0-.4.3-.8.6-1,.4-.2.6,0,.6.2s0,.5-.3.8h0c.3,0,.4,0,.4.4,0,.4-.3.9-.7,1.1-.4.2-.7.1-.7-.2s.2-.6.4-.9M137.8,174.8c0-.3-.2-.3-.5-.3-.2.2-.4.5-.4.7,0,.2.1.4.4.2.2-.1.4-.4.4-.7M137,174.1c0,.2.2.3.4.2.2-.2.3-.4.3-.6s0-.3-.3-.2c-.2.1-.4.4-.4.6"/>
        <polyline class="cls-3" points="138.9 172.7 138.9 172.7 138.5 173.2 138.5 172.9 138.9 172.4 139.2 172.3 139.2 174.6 138.9 174.8"/>
        <path class="cls-3" d="M141.3,172.2c0,.8-.3,1.4-.7,1.7-.4.2-.7,0-.7-.8,0-.8.3-1.4.7-1.6.4-.2.7,0,.7.8M140.2,172.9c0,.6.2.9.4.7.3-.2.4-.6.4-1.2s-.1-.9-.4-.7c-.2.1-.4.6-.4,1.2"/>
        <path class="cls-3" d="M142.8,172.6l-.3-.4-.2-.3h0c0,.2-.1.3-.2.6l-.3.7-.3.2.7-1.6-.6-.8.3-.2.3.4.2.3h0c0-.2.1-.3.2-.5l.3-.7.3-.2-.6,1.6.7.9"/>
        <path class="cls-3" d="M144.5,171.1c0,.2,0,.3,0,.4h-.2c0,.1,0,0,0,0h0c0,.2-.3.4-.5.5-.3.2-.5,0-.5-.2,0-.4.3-.8.9-1.2h0c0-.2,0-.4-.3-.2l-.4.4v-.2c0-.2.2-.3.4-.4.5-.3.6,0,.6.4M144.2,170.8c-.3.2-.6.4-.6.8s.1.2.3.2c.2-.1.3-.3.4-.5h0v-.4Z"/>
        <path class="cls-1" d="M150,170.7c0,1.5-1.1,3.3-2.4,4.1l-18.3,10.6c-1.3.7-2.4.1-2.4-1.3v-96.1c0-1.5,1.1-3.3,2.4-4.1l18.3-10.6c1.3-.7,2.4-.1,2.4,1.4v96.1Z"/>
        <path class="cls-4" d="M146.5,186c0,1.2-.8,2.7-1.9,3.3l-7.1,4.1c-1,.6-1.9.1-1.9-1.1v-2.3c0-1.2.8-2.7,1.9-3.3l7.1-4.1c1-.6,1.9-.1,1.9,1.1"/>
        <path class="cls-1" d="M146.5,186c0,1.2-.8,2.7-1.9,3.3l-7.1,4.1c-1,.6-1.9.1-1.9-1.1v-2.3c0-1.2.8-2.7,1.9-3.3l7.1-4.1c1-.6,1.9-.1,1.9,1.1v2.3Z"/>
        <path class="cls-1" d="M143.4,231.6v-1.7c0-.7-.5-1-1.1-.7l-3.8,2.2"/>
        <path class="cls-4" d="M140.6,236.5c0-1.8,1.3-4,2.8-4.9,1.6-.9,2.8-.2,2.8,1.6s-1.3,4-2.8,4.9c-1.6.9-2.8.2-2.8-1.6"/>
        <path class="cls-1" d="M140.6,236.5c0-1.8,1.3-4,2.8-4.9,1.6-.9,2.8-.2,2.8,1.6s-1.3,4-2.8,4.9c-1.6.9-2.8.2-2.8-1.6Z"/>
        <path class="cls-1" d="M141,235.7c0-1.2.8-2.6,1.8-3.1,1-.6,1.8-.1,1.8,1s-.8,2.6-1.8,3.1c-1,.6-1.8.1-1.8-1Z"/>
        <path class="cls-1" d="M141.5,235.3c-.1-.1-.2-.3-.2-.5,0-.6.4-1.3.9-1.6.3-.1.5-.2.6,0l1.2.7c.2,0,.3.3.3.6,0,.6-.4,1.3-.9,1.6-.3.2-.5.2-.7,0l-1.2-.7Z"/>
        <path class="cls-1" d="M142.7,236c-.1-.1-.2-.3-.2-.5,0-.6.4-1.3.9-1.6.3-.1.5-.2.6,0"/>
        <polygon class="cls-1" points="145.4 187.6 136.8 192.6 136.8 188.3 145.4 183.3 145.4 187.6"/>
        <polygon class="cls-1" points="144.4 186.9 136.8 191.3 136.8 188.3 143 184.7 144.4 185.5 144.4 186.9"/>
        <path class="cls-4" d="M146.5,211.9c0,1.2-.8,2.7-1.9,3.3l-7.1,4.1c-1,.6-1.9.1-1.9-1.1v-2.3c0-1.2.8-2.7,1.9-3.3l7.1-4.1c1-.6,1.9-.1,1.9,1.1"/>
        <path class="cls-1" d="M146.5,211.9c0,1.2-.8,2.7-1.9,3.3l-7.1,4.1c-1,.6-1.9.1-1.9-1.1v-2.3c0-1.2.8-2.7,1.9-3.3l7.1-4.1c1-.6,1.9-.1,1.9,1.1v2.3Z"/>
        <polygon class="cls-1" points="145.4 213.6 136.8 218.5 136.8 214.2 145.4 209.3 145.4 213.6"/>
        <path class="cls-1" d="M150.7,182.5c0,.7-.5,1.6-1.1,1.9-.6.4-1.1,0-1.1-.6s.5-1.6,1.1-1.9c.6-.4,1.1,0,1.1.6Z"/>
        <polygon class="cls-1" points="141.7 158.2 135.1 162 135.1 160.6 141.7 156.8 141.7 158.2"/>
        <polygon class="cls-1" points="141.7 148.3 135.1 152.1 135.1 150.8 141.7 147 141.7 148.3"/>
        <polygon class="cls-1" points="141.7 138.5 135.1 142.3 135.1 140.9 141.7 137.1 141.7 138.5"/>
        <polygon class="cls-1" points="141.7 128.6 135.1 132.4 135.1 131.1 141.7 127.3 141.7 128.6"/>
        <polygon class="cls-1" points="141.7 118.8 135.1 122.6 135.1 121.3 141.7 117.5 141.7 118.8"/>
        <polygon class="cls-1" points="141.7 109 135.1 112.8 135.1 111.4 141.7 107.6 141.7 109"/>
        <polygon class="cls-1" points="141.7 99.1 135.1 102.9 135.1 101.6 141.7 97.8 141.7 99.1"/>
        <polygon class="cls-1" points="54.1 10.7 52.2 9.5 54.1 8.3 56 9.5 54.1 10.7"/>
        <polygon class="cls-1" points="58.4 13.1 56.4 11.9 58.4 10.8 60.3 11.9 58.4 13.1"/>
        <polygon class="cls-1" points="62.6 15.5 60.7 14.4 62.6 13.2 64.5 14.4 62.6 15.5"/>
        <polygon class="cls-1" points="66.9 18 64.9 16.8 66.9 15.7 68.8 16.8 66.9 18"/>
        <polygon class="cls-1" points="71.1 20.4 69.2 19.2 71.1 18.1 73 19.2 71.1 20.4"/>
        <polygon class="cls-1" points="75.3 22.8 73.4 21.7 75.3 20.5 77.3 21.7 75.3 22.8"/>
        <polygon class="cls-1" points="79.6 25.3 77.7 24.1 79.6 23 81.5 24.1 79.6 25.3"/>
        <polygon class="cls-1" points="83.8 27.7 81.9 26.5 83.8 25.4 85.7 26.5 83.8 27.7"/>
        <polygon class="cls-1" points="88.1 30.1 86.2 29 88.1 27.8 90 29 88.1 30.1"/>
        <polygon class="cls-1" points="92.3 32.6 90.4 31.4 92.3 30.3 94.2 31.4 92.3 32.6"/>
        <polygon class="cls-1" points="96.6 35 94.6 33.9 96.6 32.7 98.5 33.9 96.6 35"/>
        <polygon class="cls-1" points="100.8 37.4 98.9 36.3 100.8 35.1 102.7 36.3 100.8 37.4"/>
        <polygon class="cls-1" points="105 39.9 103.1 38.7 105 37.6 107 38.7 105 39.9"/>
        <polygon class="cls-1" points="109.3 42.3 107.4 41.2 109.3 40 111.2 41.2 109.3 42.3"/>
        <polygon class="cls-1" points="113.5 44.7 111.6 43.6 113.5 42.4 115.5 43.6 113.5 44.7"/>
        <polygon class="cls-1" points="117.8 47.2 115.9 46 117.8 44.9 119.7 46 117.8 47.2"/>
        <polygon class="cls-1" points="122 49.6 120.1 48.5 122 47.3 123.9 48.5 122 49.6"/>
        <polygon class="cls-1" points="126.3 52.1 124.4 50.9 126.3 49.7 128.2 50.9 126.3 52.1"/>
        <polygon class="cls-1" points="130.5 54.5 128.6 53.3 130.5 52.2 132.4 53.3 130.5 54.5"/>
        <polygon class="cls-1" points="134.8 56.9 132.8 55.8 134.8 54.6 136.7 55.8 134.8 56.9"/>
        <polygon class="cls-1" points="139 59.4 137.1 58.2 139 57.1 140.9 58.2 139 59.4"/>
        <polygon class="cls-1" points="50.3 13 48.4 11.8 50.3 10.7 52.2 11.8 50.3 13"/>
        <polygon class="cls-1" points="54.5 15.4 52.6 14.2 54.5 13.1 56.4 14.2 54.5 15.4"/>
        <polygon class="cls-1" points="58.8 17.8 56.9 16.7 58.8 15.5 60.7 16.7 58.8 17.8"/>
        <polygon class="cls-1" points="63 20.3 61.1 19.1 63 18 64.9 19.1 63 20.3"/>
        <polygon class="cls-1" points="67.3 22.7 65.3 21.5 67.3 20.4 69.2 21.5 67.3 22.7"/>
        <polygon class="cls-1" points="71.5 25.1 69.6 24 71.5 22.8 73.4 24 71.5 25.1"/>
        <polygon class="cls-1" points="75.8 27.6 73.8 26.4 75.8 25.3 77.7 26.4 75.8 27.6"/>
        <polygon class="cls-1" points="80 30 78.1 28.9 80 27.7 81.9 28.9 80 30"/>
        <polygon class="cls-1" points="84.2 32.4 82.3 31.3 84.2 30.1 86.2 31.3 84.2 32.4"/>
        <polygon class="cls-1" points="88.5 34.9 86.6 33.7 88.5 32.6 90.4 33.7 88.5 34.9"/>
        <polygon class="cls-1" points="92.7 37.3 90.8 36.2 92.7 35 94.6 36.2 92.7 37.3"/>
        <polygon class="cls-1" points="97 39.7 95.1 38.6 97 37.4 98.9 38.6 97 39.7"/>
        <polygon class="cls-1" points="101.2 42.2 99.3 41 101.2 39.9 103.1 41 101.2 42.2"/>
        <polygon class="cls-1" points="105.5 44.6 103.5 43.5 105.5 42.3 107.4 43.5 105.5 44.6"/>
        <polygon class="cls-1" points="109.7 47.1 107.8 45.9 109.7 44.7 111.6 45.9 109.7 47.1"/>
        <polygon class="cls-1" points="114 49.5 112 48.3 114 47.2 115.9 48.3 114 49.5"/>
        <polygon class="cls-1" points="118.2 51.9 116.3 50.8 118.2 49.6 120.1 50.8 118.2 51.9"/>
        <polygon class="cls-1" points="122.4 54.4 120.5 53.2 122.4 52.1 124.4 53.2 122.4 54.4"/>
        <polygon class="cls-1" points="126.7 56.8 124.8 55.6 126.7 54.5 128.6 55.6 126.7 56.8"/>
        <polygon class="cls-1" points="130.9 59.2 129 58.1 130.9 56.9 132.8 58.1 130.9 59.2"/>
        <polygon class="cls-1" points="135.2 61.7 133.3 60.5 135.2 59.4 137.1 60.5 135.2 61.7"/>
        <polygon class="cls-1" points="38.3 19.5 36.4 18.4 38.3 17.2 40.3 18.4 38.3 19.5"/>
        <polygon class="cls-1" points="42.6 22 40.7 20.8 42.6 19.7 44.5 20.8 42.6 22"/>
        <polygon class="cls-1" points="46.8 24.4 44.9 23.3 46.8 22.1 48.7 23.3 46.8 24.4"/>
        <polygon class="cls-1" points="51.1 26.8 49.2 25.7 51.1 24.5 53 25.7 51.1 26.8"/>
        <polygon class="cls-1" points="55.3 29.3 53.4 28.1 55.3 27 57.2 28.1 55.3 29.3"/>
        <polygon class="cls-1" points="59.6 31.7 57.6 30.6 59.6 29.4 61.5 30.6 59.6 31.7"/>
        <polygon class="cls-1" points="63.8 34.2 61.9 33 63.8 31.8 65.7 33 63.8 34.2"/>
        <polygon class="cls-1" points="68 36.6 66.1 35.4 68 34.3 70 35.4 68 36.6"/>
        <polygon class="cls-1" points="72.3 39 70.4 37.9 72.3 36.7 74.2 37.9 72.3 39"/>
        <polygon class="cls-1" points="76.5 41.5 74.6 40.3 76.5 39.2 78.5 40.3 76.5 41.5"/>
        <polygon class="cls-1" points="80.8 43.9 78.9 42.7 80.8 41.6 82.7 42.7 80.8 43.9"/>
        <polygon class="cls-1" points="85 46.3 83.1 45.2 85 44 86.9 45.2 85 46.3"/>
        <polygon class="cls-1" points="89.3 48.8 87.4 47.6 89.3 46.5 91.2 47.6 89.3 48.8"/>
        <polygon class="cls-1" points="93.5 51.2 91.6 50 93.5 48.9 95.4 50 93.5 51.2"/>
        <polygon class="cls-1" points="97.8 53.6 95.8 52.5 97.8 51.3 99.7 52.5 97.8 53.6"/>
        <polygon class="cls-1" points="102 56.1 100.1 54.9 102 53.8 103.9 54.9 102 56.1"/>
        <polygon class="cls-1" points="106.2 58.5 104.3 57.3 106.2 56.2 108.2 57.3 106.2 58.5"/>
        <polygon class="cls-1" points="110.5 60.9 108.6 59.8 110.5 58.6 112.4 59.8 110.5 60.9"/>
        <polygon class="cls-1" points="114.7 63.4 112.8 62.2 114.7 61.1 116.6 62.2 114.7 63.4"/>
        <polygon class="cls-1" points="119 65.8 117.1 64.7 119 63.5 120.9 64.7 119 65.8"/>
        <polygon class="cls-1" points="123.2 68.2 121.3 67.1 123.2 65.9 125.1 67.1 123.2 68.2"/>
        <polygon class="cls-1" points="34.5 21.8 32.6 20.7 34.5 19.5 36.4 20.7 34.5 21.8"/>
        <polygon class="cls-1" points="38.8 24.3 36.8 23.1 38.8 22 40.7 23.1 38.8 24.3"/>
        <polygon class="cls-1" points="43 26.7 41.1 25.6 43 24.4 44.9 25.6 43 26.7"/>
        <polygon class="cls-1" points="47.2 29.2 45.3 28 47.2 26.8 49.2 28 47.2 29.2"/>
        <polygon class="cls-1" points="51.5 31.6 49.6 30.4 51.5 29.3 53.4 30.4 51.5 31.6"/>
        <polygon class="cls-1" points="55.7 34 53.8 32.9 55.7 31.7 57.6 32.9 55.7 34"/>
        <polygon class="cls-1" points="60 36.5 58.1 35.3 60 34.2 61.9 35.3 60 36.5"/>
        <polygon class="cls-1" points="64.2 38.9 62.3 37.7 64.2 36.6 66.1 37.7 64.2 38.9"/>
        <polygon class="cls-1" points="68.5 41.3 66.5 40.2 68.5 39 70.4 40.2 68.5 41.3"/>
        <polygon class="cls-1" points="72.7 43.8 70.8 42.6 72.7 41.5 74.6 42.6 72.7 43.8"/>
        <polygon class="cls-1" points="77 46.2 75 45 77 43.9 78.9 45 77 46.2"/>
        <polygon class="cls-1" points="81.2 48.6 79.3 47.5 81.2 46.3 83.1 47.5 81.2 48.6"/>
        <polygon class="cls-1" points="85.4 51.1 83.5 49.9 85.4 48.8 87.4 49.9 85.4 51.1"/>
        <polygon class="cls-1" points="89.7 53.5 87.8 52.4 89.7 51.2 91.6 52.4 89.7 53.5"/>
        <polygon class="cls-1" points="93.9 55.9 92 54.8 93.9 53.6 95.8 54.8 93.9 55.9"/>
        <polygon class="cls-1" points="98.2 58.4 96.3 57.2 98.2 56.1 100.1 57.2 98.2 58.4"/>
        <polygon class="cls-1" points="102.4 60.8 100.5 59.7 102.4 58.5 104.3 59.7 102.4 60.8"/>
        <polygon class="cls-1" points="106.7 63.2 104.7 62.1 106.7 60.9 108.6 62.1 106.7 63.2"/>
        <polygon class="cls-1" points="110.9 65.7 109 64.5 110.9 63.4 112.8 64.5 110.9 65.7"/>
        <polygon class="cls-1" points="115.1 68.1 113.2 67 115.1 65.8 117.1 67 115.1 68.1"/>
        <polygon class="cls-1" points="119.4 70.6 117.5 69.4 119.4 68.2 121.3 69.4 119.4 70.6"/>
        <path class="cls-1" d="M108.9,99.3c-1.2-.6-15.3-7.4-41.2-22.5-25.9-15.1-33.7-20.1-36.7-22.8-.5-.4-.9-1-1.1-1.7-.4-1.4,0-2.7.8-3,.3,0,.7,0,1,.2,3.2,2.2,10.7,6.6,36.7,21.8,25.9,15.2,39.4,22.3,40.6,22.9.7.4,1.5,1,1.8,2.2.4,1.5,0,2.9-.8,3.1-.3,0-.6,0-1-.1Z"/>
        <path class="cls-1" d="M110,105.6c.3.5.6,1.1.7,1.8.1,1-.3,1.9-.9,2.1-.3,0-.6,0-1-.1-.9-.5-8.6-3.4-22.7-11.2-5.1-2.8-11.1-6.2-17.9-10.2-.3-.2-.7-.4-1-.6-7.7-4.5-13.8-8.1-18.7-11-11.2-6.7-15.6-10.5-17.7-12.3-.5-.4-.9-1-1.1-1.7-.4-1.4,0-2.7.8-3,.3,0,.7,0,1,.2,2.3,1.8,7,5.2,17.9,11.6,4.7,2.7,10.5,6.2,18,10.6.7.4,1.4.8,2.1,1.2,7.3,4.3,13.7,7.8,18.9,10.8,11.3,6.4,17.8,9.5,19.4,10.2,1,.4,1.7,1,2.1,1.7Z"/>
        <path class="cls-1" d="M109.4,114.9c.4.5,1.1,1,1.3,2,.3,1.2,0,2.4-.9,2.6-.3,0-.6,0-1-.1-.9-.5-8.7-2.7-23-10.6-5.1-2.8-11.1-6.2-17.9-10.2-.3-.2-.7-.4-1-.6-7.8-4.5-13.9-8.1-18.7-11-11-6.6-15.3-11.1-17.4-12.9-.5-.4-.9-1-1.1-1.7-.4-1.4,0-2.7.8-3,.3,0,.7,0,1,.2,2.2,2,7.3,6.1,17.3,12,4.6,2.7,10.3,6.2,17.7,10.6.7.4,1.4.8,2.1,1.2,7.2,4.2,13.6,7.7,18.8,10.6,10.4,5.9,16.9,8.7,19.5,9.6,1.3.5,2,.9,2.4,1.3Z"/>
        <path class="cls-1" d="M30.6,49.3c-.3,1.3-.6,3.6,2.6,5.5,0,0,1.1.8,2.3,0v-2.4"/>
        <path class="cls-1" d="M30.6,59.3c-.3,1.3-.6,3.6,2.6,5.5,0,0,1.1.8,2.3,0v-2"/>
        <path class="cls-1" d="M30.6,69.3c-.3,1.3-.6,3.6,2.6,5.5,0,0,1.1.8,2.3,0v-1.7"/>
        <polyline class="cls-1" points="35.5 54.7 53.9 65.9 101.9 93.5 106.7 95.8"/>
        <path class="cls-1" d="M35.5,64.7s14.1,9.2,17.1,11c3.2,2,39.7,22.9,44.6,25.6,2,1.1,7.3,3.4,9.4,4.5"/>
        <path class="cls-1" d="M35.5,74.7s9.9,7.2,15.8,10.9c6.3,3.9,31.3,18.2,41.3,23.7,4,2.2,9.7,4.4,13.9,6.6"/>
        <path class="cls-1" d="M35.5,84.7s5.6,5.2,14.5,10.7c9.5,5.9,23,13.5,38,21.7,6,3.3,12.2,5.5,18.5,8.7"/>
        <path class="cls-1" d="M35.5,94.5s5.6,5.2,14.5,10.7c9.5,5.9,23,13.5,38,21.7,6,3.3,12.2,5.5,18.5,8.7"/>
        <path class="cls-1" d="M35.5,104.3s5.6,5.2,14.5,10.7c9.5,5.9,23,13.5,38,21.7,6,3.3,12.2,5.5,18.5,8.7"/>
        <path class="cls-1" d="M35.5,114.1s5.6,5.2,14.5,10.7c9.5,5.9,23,13.5,38,21.7,6,3.3,12.2,5.5,18.5,8.7"/>
        <path class="cls-1" d="M35.5,123.9s5.6,5.2,14.5,10.7c9.5,5.9,23,13.5,38,21.7,6,3.3,12.2,5.5,18.5,8.7"/>
        <path class="cls-1" d="M35.5,133.7s5.6,5.2,14.5,10.7c9.5,5.9,23,13.5,38,21.7,6,3.3,12.2,5.5,18.5,8.7"/>
        <path class="cls-1" d="M35.5,143.5s5.6,5.2,14.5,10.7c9.5,5.9,23,13.5,38,21.7,6,3.3,12.2,5.5,18.5,8.7"/>
        <path class="cls-1" d="M35.5,153.3s5.6,5.2,14.5,10.7c9.5,5.9,23,13.5,38,21.7,6,3.3,12.2,5.5,18.5,8.7"/>
        <polyline class="cls-1" points="35.5 192.2 53.9 203.3 101.9 230.9 106.7 233.3"/>
        <path class="cls-1" d="M35.5,182.5s14.1,9.2,17.1,11c3.2,2,39.7,22.9,44.6,25.6,2,1.1,7.3,3.4,9.4,4.5"/>
        <path class="cls-1" d="M35.5,172.8s9.9,7.2,15.8,10.9c6.3,3.9,31.3,18.2,41.3,23.7,4,2.2,9.7,4.4,13.9,6.6"/>
        <path class="cls-1" d="M35.5,163.1s5.6,5.2,14.5,10.7c9.5,5.9,23,13.5,38,21.7,6,3.3,12.2,5.5,18.5,8.7"/>
        <path class="cls-1" d="M106.7,93.2v3.2c0,.7.5,1.3.5,1.3,0,0,1.9.8,2.4,1,.5.2,1,0,1,0"/>
        <path class="cls-1" d="M106.7,103.3v3.1c0,.7.5,1.3.5,1.3,0,0,1.9.8,2.4,1,.5.2,1,0,1,0"/>
        <path class="cls-1" d="M106.7,113.4v3c0,.7.5,1.3.5,1.3,0,0,1.9.8,2.4,1s1,0,1,0"/>
        <path class="cls-1" d="M108.9,236.8c-1.2-.6-15.3-7.4-41.2-22.5-25.9-15.2-33.7-20.1-36.7-22.8-.5-.4-.9-1-1.1-1.7-.4-1.4,0-2.7.8-3,.3,0,.7,0,1,.2,3.2,2.2,10.7,6.6,36.7,21.8,25.9,15.1,39.4,22.3,40.6,22.9.7.4,1.5,1,1.8,2.2.4,1.5,0,2.9-.8,3.1-.3,0-.6,0-1-.1Z"/>
        <path class="cls-1" d="M68.2,199.8c7.2,4.2,13.5,7.7,18.8,10.7,13.8,7.8,21.1,10.9,21.9,11.4.7.4,1.5,1,1.8,2.2.4,1.5,0,2.9-.8,3.1-.3,0-.6,0-1-.1-.9-.5-8.6-3.4-22.7-11.2-5.1-2.8-11.1-6.2-17.9-10.2-.3-.2-.7-.4-1-.6-7.7-4.5-13.8-8.1-18.7-11-11.2-6.7-15.6-10.5-17.7-12.3-.5-.4-.9-1-1.1-1.7-.4-1.4,0-2.7.8-3,.3,0,.7,0,1,.2,2.2,1.7,6.9,5.1,17.3,11.2,4.9,2.9,11.2,6.6,19.3,11.4Z"/>
        <path class="cls-1" d="M68.1,190.9c7.1,4.2,13.5,7.6,18.7,10.6,13.9,7.9,21.2,10.2,22,10.7.7.4,1.5,1,1.8,2.2.4,1.5,0,2.9-.8,3.1-.3,0-.6,0-1-.1-.9-.5-8.7-2.7-23-10.6-5.1-2.8-11.1-6.2-17.9-10.2-.3-.2-.7-.4-1-.6-7.8-4.5-13.9-8.1-18.7-11-11-6.6-15.3-11.1-17.4-12.9-.5-.4-.9-1-1.1-1.7-.4-1.4,0-2.7.8-3,.3,0,.7,0,1,.2,2.2,2,7.2,6,17,11.8,4.9,2.9,11.2,6.8,19.5,11.6Z"/>
        <path class="cls-1" d="M108.9,129.3c-.9-.5-8.8-1.9-23.3-10-5.2-2.9-11.2-6.3-18-10.2-8.3-4.8-14.7-8.6-19.7-11.6-10.7-6.5-15-11.6-17-13.4-.5-.4-.9-1-1.1-1.7-.4-1.4,0-2.7.8-3,.3,0,.7-.1,1,.2,2.2,2.2,7.5,7,16.8,12.4,4.9,2.9,11.2,6.9,19.6,11.8,7.1,4.1,13.4,7.5,18.7,10.5,14,7.9,21.3,9.5,22.2,10,.7.4,1.5,1,1.8,2.2.4,1.5,0,2.9-.8,3.1-.3,0-.6,0-1-.1Z"/>
        <path class="cls-1" d="M31,93.8c-.5-.4-.9-1-1.1-1.7-.4-1.4,0-2.7.8-3,.3,0,.7-.1,1,.2,2.2,2.2,7.5,7,16.8,12.4,4.9,2.9,11.2,6.9,19.6,11.8,7.1,4.1,13.4,7.5,18.7,10.5,14,7.9,21.3,9.5,22.2,10,.7.4,1.5,1,1.8,2.2.4,1.5,0,2.9-.8,3.1-.3,0-.6,0-1-.1-.9-.5-8.8-1.9-23.3-10-5.2-2.9-11.2-6.3-18-10.2-8.3-4.8-14.7-8.6-19.7-11.6-10.7-6.4-15-11.6-17-13.4Z"/>
        <path class="cls-1" d="M31,103.6c-.5-.4-.9-1-1.1-1.7-.4-1.4,0-2.7.8-3,.3,0,.7-.1,1,.2,2.2,2.2,7.5,7,16.8,12.4,4.9,2.9,11.2,6.9,19.6,11.8,7.1,4.1,13.4,7.5,18.7,10.5,14,7.9,21.3,9.5,22.2,10,.7.4,1.5,1,1.8,2.2.4,1.5,0,2.9-.8,3.1-.3,0-.6,0-1-.1-.9-.5-8.8-1.9-23.3-10-5.2-2.9-11.2-6.3-18-10.2-8.3-4.8-14.7-8.6-19.7-11.6-10.7-6.5-15-11.6-17-13.4Z"/>
        <path class="cls-1" d="M31,113.4c-.5-.4-.9-1-1.1-1.7-.4-1.4,0-2.7.8-3,.3,0,.7-.1,1,.2,2.2,2.2,7.5,7,16.8,12.4,4.9,2.9,11.2,6.9,19.6,11.8,7.1,4.1,13.4,7.5,18.7,10.5,14,7.9,21.3,9.5,22.2,10,.7.4,1.5,1,1.8,2.2.4,1.5,0,2.9-.8,3.1-.3,0-.6,0-1-.1-.9-.5-8.8-1.9-23.3-10-5.2-2.9-11.2-6.3-18-10.2-8.3-4.8-14.7-8.6-19.7-11.6-10.7-6.4-15-11.6-17-13.4Z"/>
        <path class="cls-1" d="M31,123.2c-.5-.4-.9-1-1.1-1.7-.4-1.4,0-2.7.8-3,.3,0,.7-.1,1,.2,2.2,2.2,7.5,7,16.8,12.4,4.9,2.9,11.2,6.9,19.6,11.8,7.1,4.1,13.4,7.5,18.7,10.5,14,7.9,21.3,9.5,22.2,10,.7.4,1.5,1,1.8,2.2.4,1.5,0,2.9-.8,3.1-.3,0-.6,0-1-.1-.9-.5-8.8-1.9-23.3-10-5.2-2.9-11.2-6.3-18-10.2-8.3-4.8-14.7-8.6-19.7-11.6-10.7-6.4-15-11.6-17-13.4Z"/>
        <path class="cls-1" d="M31,133c-.5-.4-.9-1-1.1-1.7-.4-1.4,0-2.7.8-3,.3,0,.7-.1,1,.2,2.2,2.2,7.5,7,16.8,12.4,4.9,2.9,11.2,6.9,19.6,11.8,7.1,4.1,13.4,7.5,18.7,10.5,14,7.9,21.3,9.5,22.2,10,.7.4,1.5,1,1.8,2.2.4,1.5,0,2.9-.8,3.1-.3,0-.6,0-1-.1-.9-.5-8.8-1.9-23.3-10-5.2-2.9-11.2-6.3-18-10.2-8.3-4.8-14.7-8.6-19.7-11.6-10.7-6.5-15-11.6-17-13.4Z"/>
        <path class="cls-1" d="M31,142.8c-.5-.4-.9-1-1.1-1.7-.4-1.4,0-2.7.8-3,.3,0,.7-.1,1,.2,2.2,2.2,7.5,7,16.8,12.4,4.9,2.9,11.2,6.9,19.6,11.8,7.1,4.1,13.4,7.5,18.7,10.5,14,7.9,21.3,9.5,22.2,10,.7.4,1.5,1,1.8,2.2.4,1.5,0,2.9-.8,3.1-.3,0-.6,0-1-.1-.9-.5-8.8-1.9-23.3-10-5.2-2.9-11.2-6.3-18-10.2-8.3-4.8-14.7-8.6-19.7-11.6-10.7-6.4-15-11.6-17-13.4Z"/>
        <path class="cls-1" d="M31,152.6c-.5-.4-.9-1-1.1-1.7-.4-1.4,0-2.7.8-3,.3,0,.7-.1,1,.2,2.2,2.2,7.5,7,16.8,12.4,4.9,2.9,11.2,6.9,19.6,11.8,7.1,4.1,13.4,7.5,18.7,10.5,14,7.9,21.3,9.5,22.2,10,.7.4,1.5,1,1.8,2.2.4,1.5,0,2.9-.8,3.1-.3,0-.6,0-1-.1-.9-.5-8.8-1.9-23.3-10-5.2-2.9-11.2-6.3-18-10.2-8.3-4.8-14.7-8.6-19.7-11.6-10.7-6.4-15-11.6-17-13.4Z"/>
        <path class="cls-1" d="M108.9,207.7c-.9-.5-8.8-1.9-23.3-10-5.2-2.9-11.2-6.3-18-10.2-8.3-4.8-14.7-8.6-19.7-11.6-10.7-6.4-15-11.6-17-13.4-.5-.4-.9-1-1.1-1.7-.4-1.4,0-2.7.8-3,.3,0,.7-.1,1,.2,2.2,2.2,7.5,7,16.8,12.4,4.9,2.9,11.2,6.9,19.6,11.8,7.1,4.1,13.4,7.5,18.7,10.5,14,7.9,21.3,9.5,22.2,10,.7.4,1.5,1,1.8,2.2.4,1.5,0,2.9-.8,3.1-.3,0-.6,0-1-.1Z"/>
        <path class="cls-1" d="M30.6,186.8c-.3,1.3-.6,3.6,2.6,5.5,0,0,1.1.8,2.3,0v-2.4"/>
        <path class="cls-1" d="M30.6,177.1c-.3,1.3-.6,3.6,2.6,5.5,0,0,1.1.8,2.3,0v-2"/>
        <path class="cls-1" d="M30.6,167.4c-.3,1.3-.6,3.6,2.6,5.5,0,0,1.1.8,2.3,0v-1.7"/>
        <path class="cls-1" d="M30.6,79.3c-.3,1.3-.6,3.6,2.6,5.5,0,0,1.1.8,2.3,0v-1.3"/>
        <path class="cls-1" d="M30.6,89.1c-.3,1.3-.6,3.6,2.6,5.5,0,0,1.1.8,2.3,0v-1.3"/>
        <path class="cls-1" d="M30.6,98.9c-.3,1.3-.6,3.6,2.6,5.5,0,0,1.1.8,2.3,0v-1.3"/>
        <path class="cls-1" d="M30.6,108.7c-.3,1.3-.6,3.6,2.6,5.5,0,0,1.1.8,2.3,0v-1.3"/>
        <path class="cls-1" d="M30.6,118.5c-.3,1.3-.6,3.6,2.6,5.5,0,0,1.1.8,2.3,0v-1.3"/>
        <path class="cls-1" d="M30.6,128.3c-.3,1.3-.6,3.6,2.6,5.5,0,0,1.1.8,2.3,0v-1.3"/>
        <path class="cls-1" d="M30.6,138.1c-.3,1.3-.6,3.6,2.6,5.5,0,0,1.1.8,2.3,0v-1.3"/>
        <path class="cls-1" d="M30.6,147.9c-.3,1.3-.6,3.6,2.6,5.5,0,0,1.1.8,2.3,0v-1.3"/>
        <path class="cls-1" d="M30.6,157.7c-.3,1.3-.6,3.6,2.6,5.5,0,0,1.1.8,2.3,0v-1.3"/>
        <path class="cls-1" d="M106.7,230.6v3.2c0,.7.5,1.3.5,1.3,0,0,1.9.8,2.4,1,.5.2,1,0,1,0"/>
        <path class="cls-1" d="M106.7,221.1v3.1c0,.7.5,1.3.5,1.3,0,0,1.9.8,2.4,1,.5.2,1,0,1,0"/>
        <path class="cls-1" d="M106.7,211.5v3c0,.7.5,1.3.5,1.3,0,0,1.9.8,2.4,1,.5.2,1,0,1,0"/>
        <path class="cls-1" d="M106.7,123.6v2.8c0,.7.5,1.3.5,1.3,0,0,1.9.8,2.4,1s1,0,1,0"/>
        <path class="cls-1" d="M106.7,133.4v2.8c0,.7.5,1.3.5,1.3,0,0,1.9.8,2.4,1,.5.2,1,0,1,0"/>
        <path class="cls-1" d="M106.7,143.2v2.8c0,.7.5,1.3.5,1.3,0,0,1.9.8,2.4,1,.5.2,1,0,1,0"/>
        <path class="cls-1" d="M106.7,153v2.8c0,.7.5,1.3.5,1.3,0,0,1.9.8,2.4,1,.5.2,1,0,1,0"/>
        <path class="cls-1" d="M106.7,162.8v2.8c0,.7.5,1.3.5,1.3,0,0,1.9.8,2.4,1,.5.2,1,0,1,0"/>
        <path class="cls-1" d="M106.7,172.5v2.8c0,.7.5,1.3.5,1.3,0,0,1.9.8,2.4,1,.5.2,1,0,1,0"/>
        <path class="cls-1" d="M106.7,182.3v2.8c0,.7.5,1.3.5,1.3,0,0,1.9.8,2.4,1,.5.2,1,0,1,0"/>
        <path class="cls-1" d="M106.7,192.1v2.8c0,.7.5,1.3.5,1.3,0,0,1.9.8,2.4,1,.5.2,1,0,1,0"/>
        <path class="cls-1" d="M106.7,201.9v2.8c0,.7.5,1.3.5,1.3,0,0,1.9.8,2.4,1,.5.2,1,0,1,0"/>
        <line class="cls-1" x1="144.4" y1="185.5" x2="136.8" y2="189.9"/>
        <polygon class="cls-1" points="144.4 212.8 136.8 217.2 136.8 214.2 143 210.6 144.4 211.4 144.4 212.8"/>
        <line class="cls-1" x1="144.4" y1="211.4" x2="136.8" y2="215.8"/>
        <path class="cls-1" d="M138.4,244.2l3.8-2.2c.6-.4,1.1-1.3,1.1-2v-1.9l-.8-1.3"/>
      </g>
    </g>
  </g>
</svg>