<?xml version="1.0" encoding="UTF-8"?>
<svg id="_レイヤー_1" data-name="レイヤー 1" xmlns="http://www.w3.org/2000/svg" version="1.1" viewBox="0 0 243.3 42.73">
  <defs>
    <style>
      .cls-1 {
        fill: #f6ab00;
      }

      .cls-1, .cls-2, .cls-3 {
        stroke-width: 0px;
      }

      .cls-4 {
        fill: #fff;
        stroke: #fff;
        stroke-linecap: round;
        stroke-linejoin: round;
        stroke-width: .35px;
      }

      .cls-2 {
        fill: #636a6c;
      }

      .cls-3 {
        fill: #1d2088;
      }
    </style>
  </defs>
  <g>
    <path class="cls-2" d="M42.2,26.31v6.37c0,.17-.06.35-.2.52-.15.18-.35.27-.58.27h-.11l-.25-1.51h.05c.11,0,.19-.04.23-.09.05-.06.07-.14.07-.21v-5.34h.8ZM44.39,25.76v8.51h-1.87v-8.51h-1.35v-1.51h1.35v-.86h1.87v.86h1.29v1.51h-1.29ZM45.5,26.31v6.93h-.8v-6.93h.8ZM48.06,26.03h-.83c-.03.62-.23.94-.59.94h-.61l-.24-1.42h.16c.13-.02.2-.09.21-.23l.2-1.48h1.2l-.11.68h.63v-1.08h1.86v1.08h1.93v1.51h-1.93v1.43h2.11v1.51h-2.11v5.29h-1.86v-5.29h-2.2v-1.51h2.2v-1.43ZM47.78,29.57l-.28,3.69c-.03.68-.23,1.01-.62,1.01h-.86l-.25-1.52h.36c.14,0,.22-.07.22-.23l.18-2.95h1.24ZM51.5,29.57l.11,2.9c.01.19.08.28.19.28h.23v1.52h-.88c-.38-.02-.58-.26-.62-.76l-.28-3.94h1.25Z"/>
    <path class="cls-2" d="M52.65,26.17v-1.52h6.15l-.18-1.21h1.95l.18,1.21h.78l-.19-.9h1.51l.19.9h.44v1.52h-2.49l.94,6.23c.07.24.23.37.48.37h1.07v1.51h-2.15c-.6,0-.98-.29-1.14-.87l-1.15-7.23h-6.39ZM58.91,29.03h-2.15v3.73h2.42v1.51h-6.49v-1.51h2.2v-3.73h-2.11v-1.51h6.12v1.51Z"/>
    <path class="cls-2" d="M74,24.92c.04.1.13.15.28.15h.67v1.51h-1.69c-.46,0-.79-.27-1-.78l-.25-.75h-5.04l-.24.71c-.23.55-.56.82-1.01.82h-1.65v-1.51h.63c.17,0,.29-.08.34-.25l.51-1.27h7.9l.54,1.37ZM74.95,30.78h-5.84l-2.01,1.99h5.01c.12,0,.23-.03.3-.05.06-.03.02-.09-.1-.16l-.8-.78h2.23l.81.85c.3.35.36.71.18,1.08-.18.39-.57.58-1.15.58h-9.41v-1.17l2.62-2.33h-2.73v-1.51h10.87v1.51ZM74.5,27.03v1.42h-9.98v-1.42h9.98Z"/>
    <path class="cls-2" d="M78.83,28.68v5.59h-1.86v-4.7h-1.19l-.24-1.51h1.41c.13,0,.23-.09.27-.29l1.07-2.02h-2.62v-1.51h1.58v-.86h1.87v.86h1.34v1.37l-1.58,2.93s-.02.07-.03.13ZM80.18,27.96l.05,2.65c.02.16.08.24.19.24h.3v1.5h-.57c-.51,0-.78-.29-.81-.82l-.04-3.57h.88ZM80.94,25.99v-1.51h1.71v-1.09h1.86v1.09h1.84v1.51h-1.84v6.76h1.88v1.52h-5.59v-1.52h1.84v-6.76h-1.71Z"/>
    <path class="cls-2" d="M93.23,28.49c1.05-.28,1.75-.74,2.08-1.42.36-.72.54-1.78.54-3.15h1.94c0,.62-.05,1.17-.12,1.68h5.04c0,2.5-.32,4.41-.97,5.71-.51,1.03-1.32,1.79-2.42,2.31-1.34.6-2.92.9-4.74.9v-1.55c1.32,0,2.5-.25,3.58-.75.77-.35,1.35-.85,1.76-1.49.49-.79.74-1.99.74-3.55h-3.37c-.18.47-.41.87-.71,1.21-.85.96-1.95,1.53-3.33,1.67v-1.58ZM101.28,23.27c.4.59.68,1.16.83,1.75h-1.5c-.15-.6-.43-1.18-.83-1.75h1.5ZM103.21,23.27c.4.59.67,1.16.82,1.75h-1.51c-.16-.6-.43-1.18-.82-1.75h1.51Z"/>
    <path class="cls-2" d="M106.77,26.5c.41,1.18.64,2.18.69,3.03h-1.6c-.22-1.09-.46-2.1-.72-3.03h1.62ZM113.23,26.44c-.45,3.16-1.2,5.17-2.24,6.05-1.19.97-2.89,1.53-5.11,1.67v-1.4c1.41-.05,2.62-.42,3.64-1.15.99-.69,1.66-2.42,2-5.18h1.71ZM109.28,26.5c.29.84.47,1.83.58,3h-1.63c-.09-.95-.27-1.95-.54-3h1.6Z"/>
    <path class="cls-2" d="M116.88,23.98v2.73l3.91,2.67c.56.37,1.21.55,1.97.55h.8v1.55h-1.75c-.63,0-1.13-.13-1.48-.37l-3.45-2.33v5.71h-1.96v-10.51h1.96ZM122.14,23.27c.4.59.68,1.16.83,1.75h-1.51c-.15-.6-.43-1.18-.83-1.75h1.51ZM124.07,23.27c.39.59.67,1.16.82,1.75h-1.51c-.15-.6-.43-1.18-.81-1.75h1.5Z"/>
    <path class="cls-2" d="M134.34,25.29v5.83c0,.7-.28,1.29-.83,1.74-.5.41-1.12.63-1.88.63h-5.83v-1.65h5.53c.35,0,.61-.08.76-.25.22-.19.32-.54.32-1.02v-3.68h-6.62v-1.6h8.55Z"/>
    <path class="cls-2" d="M145.01,32.85v1.65c-2.77-.87-5.76-1.32-8.97-1.41v-1.58c3.1.06,6.08.5,8.97,1.34ZM144.44,25.17v1.63c-2.35-.56-5.08-.89-8.19-.97v-1.63c2.89.11,5.62.43,8.19.96ZM144.21,28.64v1.63c-2.5-.67-5.05-1.02-7.65-1.06v-1.57c2.59.05,5.14.38,7.65,1Z"/>
    <path class="cls-2" d="M153.54,30.48c0,.66-.13,1.21-.4,1.67h2.35v1.4h-9.07v-1.4h4.97c.34-.57.52-1.13.52-1.67v-1.89h-4.22v-1.37h5.85v3.26Z"/>
    <path class="cls-2" d="M167.1,31.03v1.65h-10.23v-1.65h10.23ZM166.11,25.53v1.65h-8.29v-1.65h8.29Z"/>
    <path class="cls-2" d="M178.8,27.69l-2.27.08-.6,3.69c-.16,1.07-.51,1.78-1.06,2.17-.55.4-1.33.61-2.33.61h-1.18v-1.64c.88,0,1.53-.14,1.94-.38.4-.24.64-.7.74-1.36l.44-3.02-2.34.07c-.24.7-.56,1.2-.99,1.49-.64.42-1.34.63-2.12.63h-.45v-1.53c.4,0,.79-.15,1.12-.41.37-.3.62-.73.77-1.32l.7-2.84h1.99l-.61,2.39,6.24-.21v1.59Z"/>
    <path class="cls-2" d="M190.35,28.44v1.43h-8.59c-.13,0-.25.05-.37.13-.15.09-.28.13-.38.13-.19,0-.3-.56-.32-1.69h9.66Z"/>
    <path class="cls-2" d="M196.66,24.87v1.56c-1.25-.26-2.67-.39-4.26-.39v-1.53c1.67,0,3.1.12,4.26.35ZM196.69,27.69v1.58c-1.57-.28-2.99-.4-4.28-.4v-1.55c1.45,0,2.88.14,4.28.38ZM201.64,26.42c-.22,2.83-.96,4.75-2.24,5.79-1.33,1.09-3.58,1.63-6.7,1.63v-1.89c2.56,0,4.41-.41,5.54-1.22,1.09-.78,1.69-2.21,1.8-4.3h1.6Z"/>
    <path class="cls-2" d="M211.15,31.89c0,.66-.17,1.13-.48,1.43-.39.36-1.04.53-1.95.53h-5.61v-1.37h5.4c.45,0,.73-.07.84-.18.09-.09.14-.22.14-.41v-1.15h-6.15v-1.36h6.15v-1.42h-6.35v-1.35h8.02v5.28Z"/>
    <path class="cls-2" d="M222.16,26.1c0,1.95-.34,3.48-.98,4.56-.53.88-1.43,1.59-2.71,2.11-1.54.63-3.38.94-5.55.94v-1.85c2.04,0,3.62-.22,4.74-.65.96-.37,1.69-.99,2.2-1.91.5-.87.74-1.94.74-3.2h1.56ZM217.21,25.2v1.62c-1.4-.28-2.82-.44-4.25-.5v-1.62c1.71.06,3.13.22,4.25.5Z"/>
    <path class="cls-2" d="M230.84,25.31h.91c-.17,1.67-.65,3.13-1.45,4.38,1.53,1.31,2.78,2.74,3.77,4.29h-2.35c-.89-1.2-1.74-2.17-2.53-2.93-1.47,1.53-3.37,2.56-5.7,3.09v-1.66c1.72-.48,3.14-1.31,4.25-2.45,1.05-1.07,1.66-2.31,1.84-3.69h-5.63v-1.59h6.71c.07.18.12.37.17.55ZM231.76,23.27c.41.59.69,1.16.84,1.75h-1.51c-.15-.6-.43-1.18-.84-1.75h1.51ZM233.59,23.27c.41.59.68,1.16.84,1.75h-1.5c-.15-.6-.43-1.18-.84-1.75h1.5Z"/>
  </g>
  <path class="cls-1" d="M33.58,24.84l-8.36,1.28,2.7-7.46c-.91-.3-1.89-.48-2.91-.48-4.82,0-8.73,3.66-8.73,8.16s3.91,8.16,8.73,8.16,8.73-3.65,8.73-8.16c0-.52-.06-1.02-.16-1.52Z"/>
  <g>
    <g>
      <path class="cls-4" d="M22.14,25.45c-.02-.11-.04-.19-.06-.24-.03-.05-.06-.1-.11-.14-.06-.04-.12-.07-.2-.1-.08-.02-.18-.02-.28,0-.13.02-.23.06-.3.12-.07.07-.12.14-.14.23-.02.08,0,.2.01.34l.07.4c.02.13.04.23.07.29.03.07.07.12.12.15.05.04.11.07.19.08.07.02.17,0,.27,0,.09-.02.18-.05.24-.09.07-.04.12-.09.16-.15.04-.07.06-.13.06-.2,0-.07,0-.17-.03-.31l-.07-.38ZM21.78,26.27s-.02.04-.05.04c-.03,0-.05,0-.06-.03-.01-.02-.03-.07-.04-.14l-.11-.7c-.02-.08-.02-.13-.01-.15,0-.02.02-.04.06-.04.02,0,.04,0,.05.02.01.02.03.07.04.15l.12.72c.01.07.01.11,0,.13Z"/>
      <path class="cls-4" d="M23.9,24.77c-.02-.06-.07-.1-.12-.13-.06-.03-.13-.04-.21-.03-.06.01-.11.04-.16.07-.05.04-.08.09-.11.16-.09-.1-.21-.15-.33-.12-.06,0-.12.03-.17.07-.04.04-.08.09-.11.15v-.15s-.48.08-.48.08l.26,1.56.46-.08-.18-1.08c-.01-.07-.02-.12-.02-.15,0-.03,0-.04.01-.06s.03-.03.05-.03c.03,0,.06,0,.07.04.01.03.03.12.06.27l.17.99.46-.08-.17-1.02c-.02-.13-.03-.22-.03-.25,0-.03.02-.05.06-.06.03,0,.06,0,.07.04.01.03.03.11.05.25l.17,1.01.46-.07-.18-1.11c-.02-.13-.05-.22-.07-.28Z"/>
      <path class="cls-4" d="M25.63,24.33c-.06-.03-.13-.04-.21-.02-.07.01-.12.04-.16.07-.04.03-.08.09-.11.15-.1-.1-.2-.15-.33-.12-.07.01-.12.04-.17.07-.05.04-.08.09-.11.15l-.02-.15-.47.08.26,1.56.46-.08-.18-1.08c-.01-.07-.02-.13-.02-.15,0-.02,0-.04.02-.07,0-.01.03-.03.05-.03.04,0,.06,0,.07.04.01.03.03.12.06.27l.16.99.34-.06.12-.02-.03-.22-.13-.8c-.02-.13-.03-.22-.02-.25,0-.03.02-.05.05-.06.04,0,.06.01.07.04.01.03.03.11.06.25l.09.52.08.49.46-.08-.18-1.11c-.01-.08-.03-.14-.04-.19-.01-.04-.02-.06-.03-.08-.02-.06-.07-.1-.12-.13Z"/>
      <path class="cls-4" d="M26.68,25.48s-.05,0-.07-.03c-.01-.02-.03-.1-.05-.21l-.18-1.06-.48.08.18,1.05c.02.13.04.22.06.26.01.04.03.09.07.13.03.04.06.06.12.08.05.01.11.02.18,0,.06,0,.12-.03.16-.06.04-.04.08-.08.1-.14v.13s.5-.08.5-.08l-.26-1.56-.47.08.18,1.05c.02.13.03.2.02.23,0,.02-.02.04-.05.05Z"/>
      <path class="cls-4" d="M27.67,24.11l-.02-.15-.48.08.26,1.56.48-.08-.18-1.05c-.02-.12-.03-.19-.02-.22,0-.03.02-.04.06-.05.03,0,.05,0,.07.02,0,.02.03.09.04.2l.18,1.08.48-.08-.18-1.09c-.02-.14-.04-.23-.07-.28-.02-.06-.07-.1-.12-.13-.06-.04-.13-.04-.21-.03-.07.01-.12.03-.17.07-.04.04-.08.09-.1.15Z"/>
      <polygon class="cls-4" points="28.69 25.4 29.18 25.31 28.92 23.76 28.43 23.84 28.69 25.4"/>
      <polygon class="cls-4" points="28.9 23.66 28.86 23.41 28.38 23.49 28.41 23.74 28.9 23.66"/>
      <path class="cls-4" d="M29.24,24.71c.03.15.06.26.11.34.04.07.11.13.2.16.08.03.2.04.33.01.11-.02.19-.05.25-.1.07-.04.12-.11.15-.18.03-.07.05-.14.04-.2,0-.06-.01-.16-.03-.28l-.42.07.03.19c.01.08.02.13.01.17,0,.03-.03.04-.06.05-.03,0-.05,0-.07-.03-.02-.03-.03-.07-.04-.12l-.12-.74c-.01-.07-.01-.11,0-.13,0-.02.03-.03.05-.04.02,0,.05,0,.06.03.01.01.03.06.04.12l.03.18.45-.07c-.03-.15-.06-.26-.1-.34-.04-.08-.11-.13-.21-.17-.1-.04-.2-.05-.33-.02-.12.01-.23.06-.31.13-.07.06-.12.13-.14.21-.01.07-.01.18,0,.31l.08.44Z"/>
      <path class="cls-4" d="M30.36,24.13l.45-.07-.03-.16c-.01-.09-.01-.14-.01-.16,0-.02.02-.04.05-.04.03,0,.05,0,.07.02.01.02.03.08.04.16.01.07.01.11,0,.14,0,.02-.08.07-.23.16-.13.08-.22.15-.25.19-.03.05-.04.13-.01.25l.02.13c.03.16.08.26.16.29.07.03.15.04.24.03.07,0,.12-.04.16-.07.04-.03.07-.08.1-.15l.02.14.46-.08-.13-.78c-.04-.26-.08-.43-.11-.51-.03-.08-.09-.14-.18-.18-.09-.05-.22-.05-.38-.03-.14.02-.24.06-.31.13-.07.07-.12.13-.14.2-.01.07-.01.16,0,.28l.02.1ZM31.05,24.57c.01.07.01.12,0,.14,0,.02-.03.04-.06.04-.02,0-.05,0-.06-.02-.01-.02-.03-.07-.04-.15-.01-.07-.02-.13,0-.17,0-.04.04-.1.11-.16l.06.32Z"/>
      <path class="cls-4" d="M31.46,23.62l.1-.02.13.79c.03.15.04.25.07.29.01.04.04.07.09.1.04.03.08.04.13.04.04,0,.12,0,.23-.03l.2-.03-.04-.25c-.08,0-.12.01-.13,0-.01,0-.03-.07-.05-.17l-.14-.83.13-.02-.04-.25-.13.02-.04-.24-.48.08.04.25-.11.02.04.25Z"/>
      <polygon class="cls-4" points="32.49 24.76 32.97 24.68 32.71 23.12 32.23 23.2 32.49 24.76"/>
      <polygon class="cls-4" points="32.7 23.03 32.65 22.78 32.16 22.86 32.21 23.1 32.7 23.03"/>
      <path class="cls-4" d="M34.05,23.46c-.02-.11-.04-.19-.07-.24-.02-.05-.06-.1-.11-.14-.05-.04-.12-.07-.2-.1-.08-.01-.18-.01-.28,0-.13.02-.23.06-.3.13-.07.06-.12.14-.14.22-.02.09-.01.2,0,.35l.07.4c.03.13.05.23.08.29.03.06.07.11.12.16.05.04.11.06.18.07.08.01.17,0,.27,0,.1-.02.18-.05.25-.09.07-.04.12-.09.15-.15.04-.06.06-.13.06-.2,0-.07,0-.17-.04-.31l-.06-.39ZM33.68,24.27s-.02.04-.05.04c-.03,0-.05,0-.06-.03-.01-.02-.03-.07-.04-.14l-.12-.7c-.01-.08-.02-.13-.01-.15,0-.02.02-.03.05-.04.03,0,.05,0,.06.02.01.02.03.07.04.14l.12.72c0,.07.02.11,0,.13Z"/>
      <path class="cls-4" d="M35.21,22.88c-.02-.06-.07-.1-.12-.13-.06-.03-.13-.04-.2-.02-.07.01-.12.04-.17.07-.04.04-.08.09-.11.15l-.02-.15-.48.08.26,1.56.48-.08-.18-1.05c-.02-.12-.03-.19-.03-.21,0-.03.03-.05.06-.05.03,0,.05,0,.06.02,0,.03.03.09.04.2l.18,1.08.48-.08-.18-1.09c-.02-.14-.05-.23-.07-.29Z"/>
      <path class="cls-4" d="M36.56,23.6c-.02-.11-.05-.2-.11-.25-.05-.06-.15-.1-.31-.15-.11-.03-.18-.06-.22-.08-.04-.02-.06-.04-.08-.06,0-.02-.01-.05-.02-.1,0-.04,0-.06,0-.08.01-.02.03-.04.05-.04.04,0,.06,0,.07.02,0,.02.02.06.03.13v.08s.43-.07.43-.07v-.09c-.03-.08-.04-.13-.06-.17-.01-.04-.05-.07-.09-.11-.04-.04-.11-.06-.18-.08-.08-.01-.17,0-.27,0-.1.01-.2.05-.27.1-.07.04-.12.1-.15.17-.02.06-.02.15,0,.28.01.09.04.16.09.22.04.06.13.11.29.17.18.07.28.1.3.12.02.02.04.06.05.14,0,.05,0,.09,0,.11,0,.01-.03.03-.07.04-.03,0-.05,0-.07-.02-.01-.03-.03-.08-.04-.17l-.02-.1-.42.07v.07c.04.13.07.23.11.29.04.05.11.09.2.12.09.02.2.02.31,0,.11-.01.2-.05.27-.1.07-.05.12-.11.14-.18.02-.07.02-.17,0-.29Z"/>
    </g>
    <g>
      <path class="cls-3" d="M22.14,25.45c-.02-.11-.04-.19-.06-.24-.03-.05-.06-.1-.11-.14-.06-.04-.12-.07-.2-.1-.08-.02-.18-.02-.28,0-.13.02-.23.06-.3.12-.07.07-.12.14-.14.23-.02.08,0,.2.01.34l.07.4c.02.13.04.23.07.29.03.07.07.12.12.15.05.04.11.07.19.08.07.02.17,0,.27,0,.09-.02.18-.05.24-.09.07-.04.12-.09.16-.15.04-.07.06-.13.06-.2,0-.07,0-.17-.03-.31l-.07-.38ZM21.78,26.27s-.02.04-.05.04c-.03,0-.05,0-.06-.03-.01-.02-.03-.07-.04-.14l-.11-.7c-.02-.08-.02-.13-.01-.15,0-.02.02-.04.06-.04.02,0,.04,0,.05.02.01.02.03.07.04.15l.12.72c.01.07.01.11,0,.13Z"/>
      <path class="cls-3" d="M23.9,24.77c-.02-.06-.07-.1-.12-.13-.06-.03-.13-.04-.21-.03-.06.01-.11.04-.16.07-.05.04-.08.09-.11.16-.09-.1-.21-.15-.33-.12-.06,0-.12.03-.17.07-.04.04-.08.09-.11.15v-.15s-.48.08-.48.08l.26,1.56.46-.08-.18-1.08c-.01-.07-.02-.12-.02-.15,0-.03,0-.04.01-.06s.03-.03.05-.03c.03,0,.06,0,.07.04.01.03.03.12.06.27l.17.99.46-.08-.17-1.02c-.02-.13-.03-.22-.03-.25,0-.03.02-.05.06-.06.03,0,.06,0,.07.04.01.03.03.11.05.25l.17,1.01.46-.07-.18-1.11c-.02-.13-.05-.22-.07-.28Z"/>
      <path class="cls-3" d="M25.63,24.33c-.06-.03-.13-.04-.21-.02-.07.01-.12.04-.16.07-.04.03-.08.09-.11.15-.1-.1-.2-.15-.33-.12-.07.01-.12.04-.17.07-.05.04-.08.09-.11.15l-.02-.15-.47.08.26,1.56.46-.08-.18-1.08c-.01-.07-.02-.13-.02-.15,0-.02,0-.04.02-.07,0-.01.03-.03.05-.03.04,0,.06,0,.07.04.01.03.03.12.06.27l.16.99.34-.06.12-.02-.03-.22-.13-.8c-.02-.13-.03-.22-.02-.25,0-.03.02-.05.05-.06.04,0,.06.01.07.04.01.03.03.11.06.25l.09.52.08.49.46-.08-.18-1.11c-.01-.08-.03-.14-.04-.19-.01-.04-.02-.06-.03-.08-.02-.06-.07-.1-.12-.13Z"/>
      <path class="cls-3" d="M26.68,25.48s-.05,0-.07-.03c-.01-.02-.03-.1-.05-.21l-.18-1.06-.48.08.18,1.05c.02.13.04.22.06.26.01.04.03.09.07.13.03.04.06.06.12.08.05.01.11.02.18,0,.06,0,.12-.03.16-.06.04-.04.08-.08.1-.14v.13s.5-.08.5-.08l-.26-1.56-.47.08.18,1.05c.02.13.03.2.02.23,0,.02-.02.04-.05.05Z"/>
      <path class="cls-3" d="M27.67,24.11l-.02-.15-.48.08.26,1.56.48-.08-.18-1.05c-.02-.12-.03-.19-.02-.22,0-.03.02-.04.06-.05.03,0,.05,0,.07.02,0,.02.03.09.04.2l.18,1.08.48-.08-.18-1.09c-.02-.14-.04-.23-.07-.28-.02-.06-.07-.1-.12-.13-.06-.04-.13-.04-.21-.03-.07.01-.12.03-.17.07-.04.04-.08.09-.1.15Z"/>
      <polygon class="cls-3" points="28.69 25.4 29.18 25.31 28.92 23.76 28.43 23.84 28.69 25.4"/>
      <polygon class="cls-3" points="28.9 23.66 28.86 23.41 28.38 23.49 28.41 23.74 28.9 23.66"/>
      <path class="cls-3" d="M29.24,24.71c.03.15.06.26.11.34.04.07.11.13.2.16.08.03.2.04.33.01.11-.02.19-.05.25-.1.07-.04.12-.11.15-.18.03-.07.05-.14.04-.2,0-.06-.01-.16-.03-.28l-.42.07.03.19c.01.08.02.13.01.17,0,.03-.03.04-.06.05-.03,0-.05,0-.07-.03-.02-.03-.03-.07-.04-.12l-.12-.74c-.01-.07-.01-.11,0-.13,0-.02.03-.03.05-.04.02,0,.05,0,.06.03.01.01.03.06.04.12l.03.18.45-.07c-.03-.15-.06-.26-.1-.34-.04-.08-.11-.13-.21-.17-.1-.04-.2-.05-.33-.02-.12.01-.23.06-.31.13-.07.06-.12.13-.14.21-.01.07-.01.18,0,.31l.08.44Z"/>
      <path class="cls-3" d="M30.36,24.13l.45-.07-.03-.16c-.01-.09-.01-.14-.01-.16,0-.02.02-.04.05-.04.03,0,.05,0,.07.02.01.02.03.08.04.16.01.07.01.11,0,.14,0,.02-.08.07-.23.16-.13.08-.22.15-.25.19-.03.05-.04.13-.01.25l.02.13c.03.16.08.26.16.29.07.03.15.04.24.03.07,0,.12-.04.16-.07.04-.03.07-.08.1-.15l.02.14.46-.08-.13-.78c-.04-.26-.08-.43-.11-.51-.03-.08-.09-.14-.18-.18-.09-.05-.22-.05-.38-.03-.14.02-.24.06-.31.13-.07.07-.12.13-.14.2-.01.07-.01.16,0,.28l.02.1ZM31.05,24.57c.01.07.01.12,0,.14,0,.02-.03.04-.06.04-.02,0-.05,0-.06-.02-.01-.02-.03-.07-.04-.15-.01-.07-.02-.13,0-.17,0-.04.04-.1.11-.16l.06.32Z"/>
      <path class="cls-3" d="M31.46,23.62l.1-.02.13.79c.03.15.04.25.07.29.01.04.04.07.09.1.04.03.08.04.13.04.04,0,.12,0,.23-.03l.2-.03-.04-.25c-.08,0-.12.01-.13,0-.01,0-.03-.07-.05-.17l-.14-.83.13-.02-.04-.25-.13.02-.04-.24-.48.08.04.25-.11.02.04.25Z"/>
      <polygon class="cls-3" points="32.49 24.76 32.97 24.68 32.71 23.12 32.23 23.2 32.49 24.76"/>
      <polygon class="cls-3" points="32.7 23.03 32.65 22.78 32.16 22.86 32.21 23.1 32.7 23.03"/>
      <path class="cls-3" d="M34.05,23.46c-.02-.11-.04-.19-.07-.24-.02-.05-.06-.1-.11-.14-.05-.04-.12-.07-.2-.1-.08-.01-.18-.01-.28,0-.13.02-.23.06-.3.13-.07.06-.12.14-.14.22-.02.09-.01.2,0,.35l.07.4c.03.13.05.23.08.29.03.06.07.11.12.16.05.04.11.06.18.07.08.01.17,0,.27,0,.1-.02.18-.05.25-.09.07-.04.12-.09.15-.15.04-.06.06-.13.06-.2,0-.07,0-.17-.04-.31l-.06-.39ZM33.68,24.27s-.02.04-.05.04c-.03,0-.05,0-.06-.03-.01-.02-.03-.07-.04-.14l-.12-.7c-.01-.08-.02-.13-.01-.15,0-.02.02-.03.05-.04.03,0,.05,0,.06.02.01.02.03.07.04.14l.12.72c0,.07.02.11,0,.13Z"/>
      <path class="cls-3" d="M35.21,22.88c-.02-.06-.07-.1-.12-.13-.06-.03-.13-.04-.2-.02-.07.01-.12.04-.17.07-.04.04-.08.09-.11.15l-.02-.15-.48.08.26,1.56.48-.08-.18-1.05c-.02-.12-.03-.19-.03-.21,0-.03.03-.05.06-.05.03,0,.05,0,.06.02,0,.03.03.09.04.2l.18,1.08.48-.08-.18-1.09c-.02-.14-.05-.23-.07-.29Z"/>
      <path class="cls-3" d="M36.56,23.6c-.02-.11-.05-.2-.11-.25-.05-.06-.15-.1-.31-.15-.11-.03-.18-.06-.22-.08-.04-.02-.06-.04-.08-.06,0-.02-.01-.05-.02-.1,0-.04,0-.06,0-.08.01-.02.03-.04.05-.04.04,0,.06,0,.07.02,0,.02.02.06.03.13v.08s.43-.07.43-.07v-.09c-.03-.08-.04-.13-.06-.17-.01-.04-.05-.07-.09-.11-.04-.04-.11-.06-.18-.08-.08-.01-.17,0-.27,0-.1.01-.2.05-.27.1-.07.04-.12.1-.15.17-.02.06-.02.15,0,.28.01.09.04.16.09.22.04.06.13.11.29.17.18.07.28.1.3.12.02.02.04.06.05.14,0,.05,0,.09,0,.11,0,.01-.03.03-.07.04-.03,0-.05,0-.07-.02-.01-.03-.03-.08-.04-.17l-.02-.1-.42.07v.07c.04.13.07.23.11.29.04.05.11.09.2.12.09.02.2.02.31,0,.11-.01.2-.05.27-.1.07-.05.12-.11.14-.18.02-.07.02-.17,0-.29Z"/>
    </g>
  </g>
  <g>
    <path class="cls-4" d="M20.97,9.91l-4.49,3.58,2.12,2.5-3.26.6,2.38-8.19h0c-.71-.17-1.45-.26-2.22-.26-4.79,0-8.67,3.57-8.67,7.98s3.88,7.98,8.67,7.98,8.67-3.57,8.67-7.98c0-2.5-1.25-4.73-3.21-6.2Z"/>
    <path class="cls-3" d="M20.97,9.91l-4.49,3.58,2.12,2.5-3.26.6,2.38-8.19h0c-.71-.17-1.45-.26-2.22-.26-4.79,0-8.67,3.57-8.67,7.98s3.88,7.98,8.67,7.98,8.67-3.57,8.67-7.98c0-2.5-1.25-4.73-3.21-6.2Z"/>
  </g>
  <g>
    <path class="cls-1" d="M18.73,10.82c.05.07.09.12.1.15.01.03,0,.06-.03.08-.03.03-.06.03-.09.02-.03-.02-.08-.07-.14-.15l-.59-.74c-.07-.09-.11-.14-.11-.18,0-.03,0-.05.03-.08.03-.03.06-.03.08-.01.03.01.08.07.15.15l.61.76ZM18.49,9.55c-.06-.04-.13-.08-.22-.1-.09-.01-.18-.01-.29.02-.11.03-.22.09-.33.18-.14.11-.22.22-.27.34-.04.12-.05.23-.01.35.03.11.12.25.24.39l.33.42c.11.14.2.24.28.3.07.06.15.09.23.1.08.02.17,0,.27-.03.1-.04.2-.1.31-.19.1-.08.17-.16.23-.25.05-.09.08-.18.08-.28,0-.1-.02-.19-.06-.28-.04-.08-.12-.19-.24-.34l-.32-.4c-.09-.11-.17-.2-.23-.23Z"/>
    <path class="cls-1" d="M20.03,9.78c.06.08.09.12.1.16,0,.03,0,.06-.03.07-.03.03-.05.03-.09.02-.02-.02-.07-.06-.13-.14l-.59-.75c-.07-.08-.1-.14-.12-.17,0-.03,0-.06.03-.08.04-.02.07-.02.09-.01.02.02.07.07.14.15l.61.75ZM19.79,8.51c-.06-.04-.13-.07-.22-.1-.09-.01-.18-.01-.29.02-.1.03-.22.09-.33.18-.13.11-.22.22-.27.34-.04.12-.05.24-.01.35.04.12.12.25.24.4l.34.42c.11.14.2.24.28.29.07.06.15.09.23.1.08.01.17,0,.27-.03.1-.04.2-.1.31-.19.1-.08.18-.16.23-.25.05-.09.08-.19.08-.29,0-.1-.02-.19-.06-.27-.04-.08-.12-.19-.24-.34l-.32-.4c-.09-.11-.17-.2-.23-.24Z"/>
    <path class="cls-1" d="M21.3,8.7c.07.09.12.15.13.18,0,.03,0,.07-.04.09-.02.02-.05.02-.08.01-.03-.01-.07-.05-.12-.12l-.64-.8c-.05-.07-.07-.11-.08-.14,0-.02,0-.05.04-.07.03-.03.06-.03.09-.02.02.01.06.05.11.11l.61.76ZM20.08,7.17l.37.47c-.07-.01-.15,0-.22.01-.07.02-.14.05-.2.1-.08.07-.13.14-.16.23-.02.08-.02.16,0,.23.03.07.09.16.19.29l.61.77c.1.12.18.2.23.24.06.04.13.06.22.05.09,0,.18-.04.25-.1.06-.04.1-.1.13-.17.04-.07.06-.15.07-.23l.1.12.5-.4-1.6-2.01-.5.4Z"/>
  </g>
</svg>