<?xml version="1.0" encoding="UTF-8"?>
<svg id="_レイヤー_1" data-name=" レイヤー 1" xmlns="http://www.w3.org/2000/svg" version="1.1" viewBox="0 0 256.6 72.7">
  <defs>
    <style>
      .cls-1 {
        fill: none;
      }

      .cls-1, .cls-2, .cls-3 {
        stroke-width: 0px;
      }

      .cls-2 {
        fill: #f39800;
      }

      .cls-3 {
        fill: #0081cc;
      }
    </style>
  </defs>
  <path class="cls-1" d="M137.9,32.9c.1-.5,0-.9-.2-1.2-.2-.3-.6-.5-1-.5-.9,0-1.9.8-2.1,1.7,0,.4,0,.8.2,1.2s.6.5,1.1.5c.9,0,1.9-.8,2.1-1.7Z"/>
  <path class="cls-3" d="M5.2,51.9c5.4.2,12,.7,18.5,1.3h0c.2,0,.3-.1.3-.3l1.8-7.7c0,0,0-.2,0-.3,0,0-.2-.1-.2-.1-5.3-.5-12.3-1.1-18.5-1.3h0c-.2,0-.3.1-.3.3l-1.8,7.7c0,0,0,.2,0,.3s.2.1.3.1Z"/>
  <path class="cls-3" d="M7.8,39.6c5.3.2,13.5.8,19.2,1.4h0c.2,0,.3-.1.3-.3l1.8-7.8c0,0,0-.2,0-.3,0,0-.2-.1-.2-.1-5.7-.6-13.3-1.1-19.3-1.3h0c-.2,0-.3.1-.3.3l-1.8,7.7c0,0,0,.2,0,.3s.2.1.3.1h0Z"/>
  <path class="cls-3" d="M46.9,37.7c0,0-.2-.2-.3-.2h-9.3c-.2,0-.3,0-.3.3-5.2,16.9-14.4,23.3-33.8,23.6-.2,0-.3.1-.4.3l-2,8.7c0,.1,0,.2,0,.3s.2.1.3.1h0c11.8,0,21.2-2.4,28.4-7.2,8.2-5.4,13.9-13.7,17.3-25.6,0-.1,0-.2,0-.3h0Z"/>
  <path class="cls-3" d="M92.8,37.5h-12.3l1.5-6.7c0-.1,0-.2,0-.3s-.2-.1-.3-.1h-9.3c-.2,0-.3.1-.3.3l-1.6,6.8h-18.5c-.2,0-.3.1-.3.3l-1.9,8.3c0,.1,0,.2,0,.3s.2.1.3.1h18.2c-3,9.3-9.5,14.7-19.4,16.2-.2,0-.3.1-.3.3l-1.8,8c0,.1,0,.2,0,.3,0,0,.2.1.3.1h0c15.8-1.5,26.7-10.1,31.2-24.9h12.6c.2,0,.3-.1.3-.3l1.9-8.3c0-.1,0-.2,0-.3s-.2-.1-.3-.1h0Z"/>
  <path class="cls-3" d="M141,32.9c.3-1.3,0-2.6-.7-3.5-.7-.9-1.8-1.4-3-1.4-2.2,0-4.5,1.5-5.6,3.7h-32.5c-.2,0-.3.1-.3.3l-1.9,8.3c0,.1,0,.2,0,.3s.2.1.3.1h27.2c-4.5,12.4-14.1,19.8-27.7,21.5-.2,0-.3.1-.3.3l-1.8,8c0,.1,0,.2,0,.3,0,0,.2.1.3.1h0c9.3-.6,17.5-3.4,24.2-8.3,7.7-5.7,13.3-14.1,16.6-24.9,2.4-.4,4.6-2.4,5.2-4.8h0ZM134.8,34.1c-.2-.3-.4-.7-.2-1.2.2-.9,1.2-1.7,2.1-1.7s.8.2,1,.5c.3.3.4.8.2,1.2-.2.9-1.2,1.7-2.1,1.7s-.8-.2-1.1-.5Z"/>
  <path class="cls-3" d="M177.8,31.8h-31.9c-.2,0-.3.1-.4.3l-1.9,8.2c0,.1,0,.2,0,.3s.2.1.3.1h20.6c-5.5,11.5-18.1,19-28.3,21.3-.1,0-.2.1-.3.3l-1.9,8.3c0,.1,0,.2,0,.3,0,0,.2.1.3.1h0c8.7-1.3,18.2-5.5,25.9-11.7,2.3,6,7.1,10.4,13.3,12.1,0,0,0,0,0,0,0,0,.1,0,.2,0,0,0,.1-.1.2-.2l2.2-9.4c0-.2,0-.3-.2-.4-1.9-1-6.5-4-7.4-10.3,4.6-5.7,7.7-12,9.4-19,0-.1,0-.2,0-.3s-.2-.1-.3-.1h0Z"/>
  <path class="cls-2" d="M196.4,29.2h10.8c.1,0,.2-.1.2-.2l-4.3-19.3h0c0-1.6,1.4-3,2.9-3h-14.7c-.1,0-.2.1-.2.2l5,22.1c0,0,0,.1.2.1h0Z"/>
  <path class="cls-2" d="M250.2,56.8h-10c-.1,0-.2,0-.3.2l-1.8,5.4c0,.1-.1.2-.3.2h-9.7c-.2,0-.3-.2-.3-.3l2.6-21.5c0-.2.1-.3.3-.3h14.4c.1,0,.2,0,.3-.2l1-3v.6c.7-3.6,2.5-6.3,4.8-6.3h-29c-.2,0-.3-.2-.3-.3l3.8-25.3c.4-1.9,2.3-4.5,5.7-5.2h-16.4c-.1,0-.3.1-.3.2l-4.6,30.4c0,.1-.1.2-.3.2h-22.4c-.1,0-.2,0-.3.2l-2.6,8.3c0,.2,0,.4.3.4h13.6c.2,0,.4.3.2.5l-19,30c-.1.2,0,.4.2.4h15.1c.1,0,.2,0,.3-.2l17.4-30.6c0,0,.1-.2.3-.2h3.9c.2,0,.3.2.3.3l-3.9,30.2c0,.2.1.3.3.3h4.4s0,0,0,0h27.7l1.5-4.6,2.5-7.6s0,0,0,0c.8-1.4,2.4-2.4,4.1-2.4h-3.4,0Z"/>
  <path class="cls-2" d="M255.5,6.8h-16.6c0,0-.1,0-.2,0l-12.9,22.1c0,.1,0,.3.2.3h11.3c0,0,.1,0,.1,0l11.8-19.3v-.2c.2,0,.3-.2.4-.3,1-.7,4.5-2.4,5.9-2.6h0Z"/>
</svg>