<?xml version="1.0" encoding="UTF-8"?>
<svg id="_レイヤー_1" data-name=" レイヤー 1" xmlns="http://www.w3.org/2000/svg" version="1.1" viewBox="0 0 306.52 90.58">
  <defs>
    <style>
      .cls-1 {
        fill: none;
      }

      .cls-1, .cls-2, .cls-3 {
        stroke-width: 0px;
      }

      .cls-2 {
        fill: #f39800;
      }

      .cls-3 {
        fill: #0081cc;
      }
    </style>
  </defs>
  <path class="cls-1" d="M107.85,39.77c.07-.29,0-.59-.16-.8-.16-.2-.4-.31-.66-.31-.58,0-1.2.52-1.34,1.11-.06.26,0,.53.16.73s.41.32.68.32c.57,0,1.2-.5,1.32-1.05Z"/>
  <path class="cls-3" d="M23.26,51.85c3.44.12,7.64.43,11.77.85h.02c.1,0,.19-.07.21-.17l1.14-4.93c0-.06,0-.13-.04-.18s-.09-.08-.16-.09c-3.35-.33-7.84-.7-11.81-.82h0c-.1,0-.19.07-.21.17l-1.13,4.9c-.01.06,0,.13.04.18s.1.08.17.09Z"/>
  <path class="cls-3" d="M24.9,44.01c3.41.12,8.57.51,12.27.91h.02c.1,0,.19-.07.21-.17l1.15-4.98c0-.06,0-.13-.04-.18s-.09-.08-.16-.09c-3.62-.37-8.46-.7-12.32-.82h0c-.1,0-.19.07-.21.17l-1.13,4.9c-.01.06,0,.13.04.18s.1.08.17.09h0Z"/>
  <path class="cls-3" d="M49.86,42.81c-.04-.06-.11-.09-.19-.09h-5.94c-.1,0-.19.07-.22.16-3.32,10.78-9.16,14.86-21.53,15.05-.11,0-.2.08-.22.18l-1.27,5.51c-.02.07,0,.14.04.2.04.05.11.09.18.09h0c7.56-.04,13.49-1.53,18.13-4.56,5.23-3.42,8.85-8.76,11.06-16.33.02-.07,0-.15-.04-.2h0Z"/>
  <path class="cls-3" d="M79.08,42.69h-7.84l.98-4.26c.02-.07,0-.14-.04-.2s-.11-.09-.18-.09h-5.95c-.11,0-.2.07-.23.18l-1.01,4.36h-11.79c-.11,0-.2.07-.23.18l-1.22,5.27c-.02.07,0,.14.04.2s.11.09.18.09h11.59c-1.92,5.9-6.08,9.37-12.37,10.3-.09,0-.17.08-.19.18l-1.18,5.12c-.02.07,0,.15.05.2.04.05.11.08.17.08h.02c10.1-.95,16.99-6.44,19.92-15.87h8.04c.11,0,.2-.07.23-.18l1.22-5.27c.02-.07,0-.14-.04-.2s-.11-.09-.18-.09h0Z"/>
  <path class="cls-3" d="M109.83,39.77c.19-.85.04-1.63-.42-2.22-.45-.56-1.13-.87-1.92-.87-1.41,0-2.9.98-3.54,2.34h-20.74c-.11,0-.2.07-.23.18l-1.22,5.27c-.02.07,0,.14.04.2s.11.09.18.09h17.36c-2.86,7.91-8.96,12.64-17.65,13.7-.1,0-.18.08-.2.18l-1.18,5.12c-.02.07,0,.15.05.2.04.05.11.08.18.08h.01c5.96-.37,11.15-2.15,15.42-5.3,4.92-3.62,8.47-8.97,10.57-15.9,1.53-.24,2.94-1.56,3.29-3.06h0ZM105.85,40.51c-.16-.2-.22-.47-.16-.73.14-.59.76-1.11,1.34-1.11.26,0,.51.11.66.31.17.21.23.5.16.8-.13.55-.76,1.05-1.32,1.05-.27,0-.52-.12-.68-.32Z"/>
  <path class="cls-3" d="M133.27,39.02h-20.32c-.11,0-.2.07-.23.18l-1.21,5.24c-.02.07,0,.14.04.2s.11.09.18.09h13.16c-3.49,7.32-11.56,12.1-18.01,13.59-.09.02-.15.09-.17.17l-1.23,5.32c-.02.07,0,.15.06.21.04.05.11.07.17.07h.03c5.57-.82,11.58-3.53,16.49-7.43,1.45,3.85,4.54,6.66,8.48,7.71h.06s.08-.01.12-.03c.05-.03.09-.09.11-.15l1.38-5.98c.02-.1-.03-.21-.12-.26-1.23-.63-4.14-2.53-4.73-6.55,2.9-3.6,4.91-7.67,5.98-12.11.02-.07,0-.14-.04-.2s-.11-.09-.18-.09l-.02.02Z"/>
  <path class="cls-2" d="M210.96,39.41c.02-.07,0-.14-.04-.2s-.11-.09-.18-.09h-24.66c-.11,0-.2.07-.23.18l-1.22,5.02c-.02.07,0,.14.04.2s.11.09.18.09h18.02c-1.28,2.69-3.22,4.53-5.76,5.46.24-.76.43-1.49.62-2.28l.24-1.04c.02-.07,0-.14-.04-.2s-.11-.09-.18-.09h-5.41c-.11,0-.2.07-.23.18l-.19.84c-1.33,5.75-4.57,9.5-9.63,11.13-.08.03-.14.09-.16.17l-1.21,5.24c-.02.08,0,.15.06.21.04.05.11.07.17.07h.04c5.16-.85,9.68-3.64,12.74-7.87,4.11-.71,13.97-3.71,16.89-16.33l.15-.7h0Z"/>
  <path class="cls-2" d="M238.26,39.12h-20.35c-.1,0-.18.06-.22.15-1.44,3.66-3.92,6.53-7.16,8.3-.06.03-.1.09-.11.15l-1.27,5.52c-.02.08,0,.16.07.22.04.04.1.06.16.06h.06c4.73-1.34,8.99-4.53,11.69-8.75h9.54c-3.05,8.54-9.12,13.08-18.56,13.88-.1,0-.18.08-.21.18l-1.17,5.06c-.02.07,0,.14.05.2.04.05.11.08.18.08h0c7.01-.23,12.85-2.24,17.37-5.96,4.76-3.93,8.06-9.78,9.82-17.41l.32-1.4c.02-.07,0-.14-.04-.2s-.11-.09-.18-.09h.01Z"/>
  <path class="cls-2" d="M261.83,58.82h-13.61c-.87,0-1.41-.16-1.68-.51-.25-.32-.3-.81-.13-1.53l2-8.64h9.21c-1.47,2.13-4.2,3.08-5,3.32-.08.02-.14.09-.16.17l-1.18,5.09c-.02.07,0,.15.05.21.04.05.11.08.17.08h.03c7.23-1.03,12.9-6.5,14.8-14.29.02-.07,0-.14-.04-.2s-.11-.09-.18-.09h-16.39l.69-3.04c.02-.07,0-.14-.04-.2s-.11-.09-.18-.09h-5.71c-.11,0-.2.07-.23.18l-.72,3.14h-3.24c-.11,0-.2.07-.23.18l-1.21,5.24c-.02.07,0,.14.04.2s.11.09.18.09h3.13l-2.27,9.81c-.53,2.31-.41,3.86.4,4.87.91,1.14,2.72,1.67,5.72,1.67h14.55c.11,0,.2-.07.23-.18l1.2-5.21c.02-.07,0-.14-.04-.2s-.11-.09-.18-.09l.02.02Z"/>
  <path class="cls-2" d="M292.01,39.21c-.04-.06-.11-.09-.18-.09h-20.32c-.11,0-.2.07-.23.18l-1.21,5.24c-.02.07,0,.14.04.2s.11.09.18.09h13.16c-3.49,7.32-11.56,12.47-18.01,13.97-.09.02-.15.09-.17.17l-1.23,5.32c-.02.07,0,.15.06.21.04.05.11.07.17.07h.03c5.57-.82,11.58-3.53,16.49-7.43,1.45,3.85,4.54,6.29,8.48,7.34h.06s.08-.01.12-.03c.05-.03.09-.09.11-.15l1.38-5.98c.02-.1-.03-.21-.12-.26-1.23-.63-4.14-2.53-4.73-6.55,2.9-3.6,4.91-7.67,5.98-12.11.02-.07,0-.14-.04-.2h-.02Z"/>
  <path class="cls-2" d="M145.12,37.39h6.91c.07,0,.13-.07.11-.14l-2.74-12.28v-.03c.03-1.02.86-1.85,1.88-1.85h-9.35c-.07,0-.13.07-.11.14l3.19,14.07s.06.09.11.09Z"/>
  <path class="cls-2" d="M179.44,54.97h-6.36c-.08,0-.15.05-.18.13l-1.12,3.45c-.03.08-.1.13-.18.13h-6.16c-.11,0-.2-.1-.19-.21l1.64-13.69c0-.09.09-.17.19-.17h9.2c.08,0,.15-.05.18-.13l.61-1.88-.05.39c.46-2.3,1.67-4.04,3.09-4.04h-18.5c-.12,0-.2-.1-.19-.22l2.44-16.16c.24-1.22,1.49-2.89,3.6-3.34h-10.46c-.09,0-.17.07-.19.16l-2.93,19.39c0,.09-.09.16-.19.16h-14.31c-.08,0-.15.05-.18.13l-1.69,5.28c-.04.12.05.25.18.25h8.67c.15,0,.24.16.16.29l-12.09,19.11c-.08.13,0,.29.16.29h9.62c.07,0,.13-.04.16-.1l11.07-19.5c.03-.06.1-.1.16-.1h2.52c.11,0,.2.1.19.21l-2.51,19.26c0,.11.07.21.19.21h20.43l.94-2.92,1.57-4.83s0-.03.02-.04c.52-.92,1.5-1.54,2.63-1.54h-2.13v.03Z"/>
  <path class="cls-2" d="M182.79,23.08h-10.61s-.08.02-.1.06l-8.24,14.07c-.05.08,0,.17.1.17h7.21s.08-.02.1-.06l7.54-12.32.08-.13c.05-.06.1-.11.15-.17.64-.43,2.87-1.54,3.77-1.63h0Z"/>
</svg>