<?xml version="1.0" encoding="UTF-8"?>
<svg id="_レイヤー_1" data-name="レイヤー 1" xmlns="http://www.w3.org/2000/svg" xmlns:xlink="http://www.w3.org/1999/xlink" version="1.1" viewBox="0 0 283.46 283.46">
  <defs>
    <style>
      .cls-1 {
        fill: #e0e2e1;
      }

      .cls-1, .cls-2, .cls-3, .cls-4, .cls-5, .cls-6, .cls-7, .cls-8, .cls-9, .cls-10, .cls-11, .cls-12, .cls-13, .cls-14, .cls-15 {
        stroke-width: 0px;
      }

      .cls-16 {
        stroke: #898a89;
      }

      .cls-16, .cls-17, .cls-18 {
        stroke-miterlimit: 10;
        stroke-width: .63px;
      }

      .cls-16, .cls-6 {
        fill: #141413;
      }

      .cls-2 {
        fill: #3d3f3f;
      }

      .cls-19 {
        fill: #fff;
        font-family: Roboto-Regular, 'Roboto Regular';
        font-size: 5.28px;
      }

      .cls-17 {
        stroke: #8d8e8e;
      }

      .cls-17, .cls-10 {
        fill: #bcbcbc;
      }

      .cls-3 {
        fill: #6e6e6d;
      }

      .cls-4 {
        fill: url(#linear-gradient);
      }

      .cls-5 {
        fill: url(#radial-gradient);
      }

      .cls-7 {
        fill: #494949;
      }

      .cls-8 {
        fill: #acadad;
      }

      .cls-18 {
        fill: #f1f3f4;
        stroke: #b4b3b3;
      }

      .cls-9 {
        fill: #f4f8f9;
      }

      .cls-11 {
        fill: #d3d3d3;
      }

      .cls-12 {
        fill: #8a8a8a;
      }

      .cls-13 {
        fill: #b4b3b3;
      }

      .cls-14 {
        fill: url(#linear-gradient-2);
      }

      .cls-15 {
        fill: #5d5e5d;
        opacity: .1;
      }
    </style>
    <radialGradient id="radial-gradient" cx="133.81" cy="100.19" fx="133.81" fy="100.19" r="148.79" gradientTransform="translate(323.97 6.58) rotate(122.27) scale(1 .83) skewX(19.48)" gradientUnits="userSpaceOnUse">
      <stop offset="0" stop-color="#8bbae4"/>
      <stop offset=".13" stop-color="#a1aed9"/>
      <stop offset=".49" stop-color="#d792be"/>
      <stop offset=".66" stop-color="#ed87b4"/>
      <stop offset=".8" stop-color="#dc78ad"/>
      <stop offset="1" stop-color="#c160a1"/>
    </radialGradient>
    <linearGradient id="linear-gradient" x1="116.03" y1="109.9" x2="131.69" y2="210.18" gradientUnits="userSpaceOnUse">
      <stop offset="0" stop-color="#fff" stop-opacity=".2"/>
      <stop offset="1" stop-color="#fff" stop-opacity="0"/>
    </linearGradient>
    <linearGradient id="linear-gradient-2" x1="161.48" y1="42.65" x2="163.49" y2="39.94" gradientTransform="translate(115.82 -21.61) rotate(21.35) skewX(-23.18)" gradientUnits="userSpaceOnUse">
      <stop offset="0" stop-color="#bda3cd"/>
      <stop offset=".09" stop-color="#b3a2cb"/>
      <stop offset=".23" stop-color="#9aa1c7"/>
      <stop offset=".41" stop-color="#70a0c1"/>
      <stop offset=".62" stop-color="#379eb9"/>
      <stop offset=".75" stop-color="#119db4"/>
      <stop offset=".99" stop-color="#1fb290"/>
    </linearGradient>
  </defs>
  <g>
    <g>
      <g>
        <path class="cls-13" d="M146.65,70.6c-.25.26-.71.38-1.02.26l-2.78-1.09c-.31-.12-.35-.43-.09-.69l5.51-5.68c.25-.26.71-.38,1.02-.26l2.78,1.09c.31.12.35.43.1.69l-5.51,5.68Z"/>
        <path class="cls-13" d="M128.24,89.57c-.49.5-1,.87-1.3.75l-2.78-1.09c-.31-.12-.3-.68.19-1.18l10.63-10.96c.49-.5,1.27-.76,1.58-.64l2.78,1.09c.31.12.02.57-.47,1.08l-10.63,10.96Z"/>
        <path class="cls-13" d="M112.17,106.15c-.49.5-1,.87-1.3.75l-2.78-1.09c-.31-.12-.3-.68.19-1.18l10.63-10.96c.49-.5,1.27-.76,1.58-.64l2.78,1.09c.31.12.02.57-.47,1.08l-10.63,10.96Z"/>
        <path class="cls-13" d="M219.78,139.71c-.75.77-1.68,1.27-2.15,1.09l-4.24-1.66c-.47-.18-.47-1.04.28-1.81l16.24-16.74c.75-.77,1.84-1.04,2.31-.86l4.24,1.66c.47.18.3.82-.44,1.59l-16.24,16.74Z"/>
      </g>
      <g>
        <path class="cls-17" d="M266.8,98.43c6.05-6.23,7.75-16.52-.44-21.41l-76.34-25.8c-7.31-2.86-19.53-1.65-25.58,4.59L6.27,211.04c-3.6,3.71-6.05,15.98,7.38,22.03l75.72,29.6c7.31,2.86,18.41-.75,24.46-6.99l152.98-157.25Z"/>
        <path class="cls-18" d="M265.9,90.98c6.05-6.23,4.75-12.73-2.56-15.59l-75.72-29.6c-7.31-2.86-19.53-1.65-25.58,4.59L6.64,210.61c-3.6,3.71-2.71,14.18,4.6,17.04l75.72,29.6c7.31,2.86,18.41-.75,24.46-6.99l154.48-159.28Z"/>
        <g>
          <g>
            <path class="cls-5" d="M257.78,77.03c-5.72-2.21-8.92-4.2-11.2-2.25-1.84,1.57-5.31,2.76-7.57,1.88l-42.77-16.72c-2.54-.99-1.17-2.96-.28-4.87.51-1.08,1.45-2.2.21-2.81-.9-.44-6.71-2.6-8.35-3.24-8.51-3.33-17.76-.21-23.6,5.81L12.68,211.1c-3.47,3.58-2.75,10.48,4.04,13.14l72.54,28.36c6.79,2.65,15.04.67,20.88-5.35l150.17-154.84c5.84-6.02,7.67-11.43-2.53-15.38Z"/>
            <g>
              <text class="cls-19" transform="translate(177.53 52.62) rotate(21.35) scale(.9 .92) skewX(-23.18)"><tspan x="0" y="0">11:50</tspan></text>
              <g>
                <g>
                  <path class="cls-9" d="M252.54,79.42c.51.2.88.51,1.1.9l.74-.19c-.08-.58-.49-1.08-1.2-1.36-.72-.28-1.6-.29-2.46-.07l.07.5c.64-.05,1.24.02,1.75.22Z"/>
                  <path class="cls-9" d="M252.41,80.62l.71-.18c-.19-.3-.5-.54-.9-.7-.41-.16-.88-.23-1.39-.2l.07.48c.3.04.59.1.85.21.26.1.48.23.67.39Z"/>
                  <path class="cls-9" d="M251.43,80.56c-.15-.06-.31-.1-.47-.14l.08.54.8-.2c-.12-.08-.26-.15-.4-.21Z"/>
                </g>
                <g>
                  <polygon class="cls-9" points="242.89 78.17 243.45 78.39 243.91 77.92 243.35 77.7 242.89 78.17"/>
                  <polygon class="cls-9" points="243.87 78.55 244.42 78.77 245.8 77.35 245.24 77.13 243.87 78.55"/>
                  <polygon class="cls-9" points="244.98 78.99 245.53 79.21 247.37 77.31 246.81 77.09 244.98 78.99"/>
                  <polygon class="cls-9" points="246.09 79.42 246.64 79.64 248.94 77.27 248.38 77.05 246.09 79.42"/>
                  <polygon class="cls-9" points="249.95 77.01 247.2 79.86 247.75 80.07 250.51 77.23 249.95 77.01"/>
                </g>
                <g>
                  <path class="cls-9" d="M261.16,82.05l.46-.47-5.55-2.17-2.76,2.84,5.55,2.17.46-.47.56.22,1.84-1.89-.55-.22ZM258.77,83.72l-4.44-1.74,1.84-1.89,4.44,1.74-1.84,1.89Z"/>
                  <polygon class="cls-9" points="258.67 83.03 255.34 81.73 256.26 80.78 259.59 82.09 258.67 83.03"/>
                </g>
              </g>
            </g>
          </g>
          <path class="cls-4" d="M139.31,124.76l-9.33,2.36c-18.37,4.88-36.36,11.08-53.75,18.45L12.68,211.1c-3.47,3.58-2.75,10.48,4.04,13.14l72.54,28.36c6.79,2.65,15.04.67,20.88-5.35L238.85,114.53c-33.38-1.24-66.98,2.42-99.53,10.23Z"/>
        </g>
      </g>
    </g>
    <g>
      <g>
        <path class="cls-10" d="M229.02,67.8c.36-.37.58-.7.14-.87l-11.21-4.38c-.43-.17-1.35-.12-1.71.25l-.08.08c-.07.07.03.19-.01.26.36-.23.99-.27,1.34-.13l11.21,4.38c.35.14.31.4.15.71.08-.05.02-.17.09-.23l.08-.08Z"/>
        <path class="cls-1" d="M228.71,67.4l-11.21-4.38c-.35-.14-.84-.05-1.21.18-.17.31-.06.63.29.77l11.2,4.38c.35.14.84.05,1.21-.18.17-.31.07-.63-.29-.77Z"/>
      </g>
      <g>
        <path class="cls-15" d="M234.68,70.39c-.51.52-1.42.75-2.03.51-.61-.24-.7-.86-.19-1.38.51-.52,1.42-.75,2.03-.51.61.24.7.86.19,1.38Z"/>
        <path class="cls-14" d="M235.14,69.92c-.51.52-1.41.75-2.03.51-.61-.24-.7-.86-.19-1.38.51-.52,1.42-.75,2.03-.51.61.24.7.86.19,1.38Z"/>
      </g>
    </g>
  </g>
  <path class="cls-12" d="M236.84,128.55c1.02-1.04,1.2-2.52.4-3.31l-.29-.29c-.8-.79-2.28-.59-3.3.45l-16.99,17.29c-1.02,1.04-1.2,2.52-.4,3.31l.29.29c.8.79,2.28.59,3.3-.45l16.99-17.29Z"/>
  <g>
    <path class="cls-11" d="M217.26,142.7l16.99-17.29c.96-.98,2.32-1.2,3.14-.57-.05-.07-.1-.14-.16-.2l-.29-.29c-.8-.79-2.28-.59-3.3.45l-16.99,17.29c-1.02,1.04-1.2,2.52-.4,3.31l.29.29s.1.08.15.12c-.6-.82-.39-2.15.55-3.11Z"/>
    <path class="cls-8" d="M219.85,145.24l16.99-17.29c.94-.96,1.15-2.29.55-3.11-.83-.63-2.19-.41-3.14.57l-16.99,17.29c-.94.96-1.15,2.29-.55,3.11.83.63,2.18.41,3.14-.57Z"/>
  </g>
  <path class="cls-6" d="M177.53,186.91c0,.53-.29.95-.64.95s-.65-.43-.65-.95.29-.95.65-.95.64.43.64.95Z"/>
  <g>
    <path class="cls-6" d="M25.41,235.04c-.06.54-.47.93-.93.89-.46-.05-.78-.52-.73-1.06.06-.54.47-.93.93-.89.46.05.78.52.73,1.06Z"/>
    <g>
      <path class="cls-6" d="M16.07,231.73c-.06.54-.47.93-.93.89-.46-.05-.78-.52-.72-1.06.06-.54.47-.93.93-.89.46.05.78.52.73,1.06Z"/>
      <path class="cls-6" d="M18.4,232.56c-.06.54-.47.93-.93.89-.46-.05-.78-.52-.73-1.06.06-.54.47-.93.93-.89.46.05.78.52.73,1.06Z"/>
      <path class="cls-6" d="M20.74,233.39c-.06.54-.47.93-.93.89-.46-.05-.78-.52-.73-1.06.06-.54.47-.93.93-.89.46.05.78.52.73,1.06Z"/>
      <path class="cls-6" d="M23.07,234.21c-.06.54-.47.93-.93.89-.46-.05-.78-.52-.73-1.06.06-.54.47-.93.93-.89.46.05.78.52.73,1.06Z"/>
      <path class="cls-6" d="M27.74,235.87c-.06.54-.47.93-.93.89-.46-.05-.78-.52-.73-1.06.06-.54.47-.93.93-.89.46.05.78.52.73,1.06Z"/>
    </g>
  </g>
  <g>
    <path class="cls-6" d="M81.42,256.72c-.06.54-.47.93-.93.89-.46-.05-.78-.52-.73-1.06.06-.54.47-.93.93-.89.46.05.78.52.73,1.06Z"/>
    <g>
      <path class="cls-6" d="M72.08,253.42c-.06.54-.47.93-.93.89-.46-.05-.78-.52-.73-1.06.06-.54.47-.93.93-.89.46.05.78.52.73,1.06Z"/>
      <path class="cls-7" d="M56.96,247.39c-.05.5-.44.86-.86.82-.42-.04-.72-.48-.67-.98.05-.5.44-.86.86-.82.42.04.72.48.67.98Z"/>
      <path class="cls-3" d="M56.75,247.36c-.04.36-.32.63-.62.6-.31-.03-.52-.35-.49-.71.04-.36.32-.63.62-.6s.52.35.49.71Z"/>
      <path class="cls-7" d="M43.1,241.97c-.05.5-.44.86-.86.82-.42-.04-.72-.48-.67-.98.05-.5.44-.86.86-.82.42.04.72.48.67.98Z"/>
      <path class="cls-3" d="M42.9,241.94c-.04.36-.32.63-.62.59-.31-.03-.52-.35-.49-.71.04-.36.32-.63.62-.6.31.03.52.35.49.71Z"/>
      <path class="cls-6" d="M74.41,254.24c-.06.54-.47.93-.93.89-.46-.05-.78-.52-.73-1.06.06-.54.47-.93.93-.89.46.05.78.52.73,1.06Z"/>
      <path class="cls-6" d="M76.75,255.07c-.06.54-.47.93-.93.89-.46-.05-.78-.52-.73-1.06.06-.54.47-.93.93-.89.46.05.78.52.73,1.06Z"/>
      <path class="cls-6" d="M79.08,255.9c-.06.54-.47.94-.93.89-.46-.05-.78-.52-.73-1.06.06-.54.47-.93.93-.89.46.05.78.52.73,1.06Z"/>
      <path class="cls-6" d="M83.75,257.55c-.06.54-.47.94-.93.89-.46-.05-.78-.52-.73-1.06.06-.54.47-.93.93-.89.46.05.78.52.73,1.06Z"/>
    </g>
  </g>
  <g>
    <path class="cls-16" d="M49.36,238.76h.2c.61,0,1.1.49,1.1,1.1v9.24c0,.61-.49,1.1-1.1,1.1h-.21c-.61,0-1.1-.49-1.1-1.1v-9.24c0-.61.49-1.1,1.1-1.1Z" transform="translate(-196.29 201.78) rotate(-68.71)"/>
    <path class="cls-6" d="M44.16,242.91c.22-.57.86-.85,1.43-.63l8.61,3.35c.33.13.56.4.65.72.15-.54-.12-1.12-.65-1.33l-8.61-3.35c-.57-.22-1.21.06-1.43.63l-.07.19c-.09.23-.09.48-.03.7,0-.03.01-.07.03-.1l.07-.19Z"/>
    <path class="cls-2" d="M44.71,243.92l8.61,3.36c.57.22,1.21-.06,1.43-.63l.07-.19s.02-.07.03-.1c-.09-.32-.32-.59-.65-.72l-8.61-3.35c-.57-.22-1.21.06-1.43.63l-.07.19s-.02.07-.03.1c.09.32.32.59.65.72Z"/>
  </g>
</svg>