<?xml version="1.0" encoding="UTF-8"?>
<svg xmlns="http://www.w3.org/2000/svg" version="1.1" viewBox="0 0 283.5 283.5">
  <defs>
    <style>
      .cls-1 {
        stroke-linecap: round;
        stroke-linejoin: round;
      }

      .cls-1, .cls-2 {
        stroke-width: .2px;
      }

      .cls-1, .cls-2, .cls-3 {
        fill: none;
        stroke: #231815;
      }

      .cls-4 {
        fill: #231815;
      }

      .cls-5 {
        fill: #fff;
      }

      .cls-3 {
        stroke-width: .7px;
      }
    </style>
  </defs>
  <!-- Generator: Adobe Illustrator 28.7.1, SVG Export Plug-In . SVG Version: 1.2.0 Build 142)  -->
  <g>
    <g id="_レイヤー_1" data-name="レイヤー_1">
      <path class="cls-5" d="M234.3,233.5c-.5.5-1.6.8-2.3.8l-215.8-17.7c-.7,0-1.3-.7-1.3-1.4V32.1c0-.7.6-1.5,1.3-1.7l33.9-9.8c.7-.2,1.9-.3,2.6-.3l215.8,15.2c.7,0,1.3.7,1.3,1.4v164.6c0,.7-.4,1.7-1,2.2l-34.4,29.8"/>
      <line class="cls-2" x1="250.8" y1="41.8" x2="268.2" y2="36.6"/>
      <line class="cls-2" x1="259" y1="39.5" x2="259" y2="211.9"/>
      <polygon class="cls-1" points="253.3 47.7 250.7 48.7 250.7 44.5 253.3 43.5 253.3 47.7"/>
      <polygon class="cls-1" points="255.8 46.8 253.3 47.7 253.3 43.5 255.8 42.6 255.8 46.8"/>
      <polygon class="cls-1" points="258.3 45.8 255.8 46.8 255.8 42.6 258.3 41.7 258.3 45.8"/>
      <polygon class="cls-1" points="253.3 51.9 250.7 52.9 250.7 48.7 253.3 47.7 253.3 51.9"/>
      <polygon class="cls-1" points="255.8 50.9 253.3 51.9 253.3 47.7 255.8 46.8 255.8 50.9"/>
      <polygon class="cls-1" points="258.3 49.9 255.8 50.9 255.8 46.8 258.3 45.8 258.3 49.9"/>
      <polygon class="cls-1" points="253.3 56 250.7 57.1 250.7 52.9 253.3 51.9 253.3 56"/>
      <polygon class="cls-1" points="255.8 55 253.3 56 253.3 51.9 255.8 50.9 255.8 55"/>
      <polygon class="cls-1" points="258.3 54 255.8 55 255.8 50.9 258.3 49.9 258.3 54"/>
      <polygon class="cls-1" points="253.3 60.2 250.7 61.3 250.7 57.1 253.3 56 253.3 60.2"/>
      <polygon class="cls-1" points="255.8 59.2 253.3 60.2 253.3 56 255.8 55 255.8 59.2"/>
      <polygon class="cls-1" points="258.3 58.1 255.8 59.2 255.8 55 258.3 54 258.3 58.1"/>
      <polygon class="cls-1" points="253.3 64.4 250.7 65.5 250.7 61.3 253.3 60.2 253.3 64.4"/>
      <polygon class="cls-1" points="255.8 63.3 253.3 64.4 253.3 60.2 255.8 59.2 255.8 63.3"/>
      <polygon class="cls-1" points="258.3 62.2 255.8 63.3 255.8 59.2 258.3 58.1 258.3 62.2"/>
      <polygon class="cls-1" points="253.3 68.5 250.7 69.7 250.7 65.5 253.3 64.4 253.3 68.5"/>
      <polygon class="cls-1" points="255.8 67.4 253.3 68.5 253.3 64.4 255.8 63.3 255.8 67.4"/>
      <polygon class="cls-1" points="258.3 66.4 255.8 67.4 255.8 63.3 258.3 62.2 258.3 66.4"/>
      <polygon class="cls-1" points="253.3 72.7 250.7 73.8 250.7 69.7 253.3 68.5 253.3 72.7"/>
      <polygon class="cls-1" points="255.8 71.6 253.3 72.7 253.3 68.5 255.8 67.4 255.8 71.6"/>
      <polygon class="cls-1" points="258.3 70.5 255.8 71.6 255.8 67.4 258.3 66.4 258.3 70.5"/>
      <polygon class="cls-1" points="253.3 76.9 250.7 78 250.7 73.8 253.3 72.7 253.3 76.9"/>
      <polygon class="cls-1" points="255.8 75.7 253.3 76.9 253.3 72.7 255.8 71.6 255.8 75.7"/>
      <polygon class="cls-1" points="258.3 74.6 255.8 75.7 255.8 71.6 258.3 70.5 258.3 74.6"/>
      <polygon class="cls-1" points="253.3 81 250.7 82.2 250.7 78 253.3 76.9 253.3 81"/>
      <polygon class="cls-1" points="255.8 79.8 253.3 81 253.3 76.9 255.8 75.7 255.8 79.8"/>
      <polygon class="cls-1" points="258.3 78.7 255.8 79.8 255.8 75.7 258.3 74.6 258.3 78.7"/>
      <polygon class="cls-1" points="253.3 85.2 250.7 86.4 250.7 82.2 253.3 81 253.3 85.2"/>
      <polygon class="cls-1" points="255.8 84 253.3 85.2 253.3 81 255.8 79.8 255.8 84"/>
      <polygon class="cls-1" points="258.3 82.8 255.8 84 255.8 79.8 258.3 78.7 258.3 82.8"/>
      <polygon class="cls-1" points="253.3 89.4 250.7 90.6 250.7 86.4 253.3 85.2 253.3 89.4"/>
      <polygon class="cls-1" points="255.8 88.1 253.3 89.4 253.3 85.2 255.8 84 255.8 88.1"/>
      <polygon class="cls-1" points="258.3 86.9 255.8 88.1 255.8 84 258.3 82.8 258.3 86.9"/>
      <polygon class="cls-1" points="253.3 93.5 250.7 94.8 250.7 90.6 253.3 89.4 253.3 93.5"/>
      <polygon class="cls-1" points="255.8 92.2 253.3 93.5 253.3 89.4 255.8 88.1 255.8 92.2"/>
      <polygon class="cls-1" points="258.3 91 255.8 92.2 255.8 88.1 258.3 86.9 258.3 91"/>
      <polygon class="cls-1" points="253.3 97.7 250.7 99 250.7 94.8 253.3 93.5 253.3 97.7"/>
      <polygon class="cls-1" points="255.8 96.4 253.3 97.7 253.3 93.5 255.8 92.2 255.8 96.4"/>
      <polygon class="cls-1" points="258.3 95.1 255.8 96.4 255.8 92.2 258.3 91 258.3 95.1"/>
      <polygon class="cls-1" points="253.3 101.9 250.7 103.2 250.7 99 253.3 97.7 253.3 101.9"/>
      <polygon class="cls-1" points="255.8 100.5 253.3 101.9 253.3 97.7 255.8 96.4 255.8 100.5"/>
      <polygon class="cls-1" points="258.3 99.2 255.8 100.5 255.8 96.4 258.3 95.1 258.3 99.2"/>
      <polygon class="cls-1" points="253.3 106 250.7 107.4 250.7 103.2 253.3 101.9 253.3 106"/>
      <polygon class="cls-1" points="255.8 104.7 253.3 106 253.3 101.9 255.8 100.5 255.8 104.7"/>
      <polygon class="cls-1" points="258.3 103.3 255.8 104.7 255.8 100.5 258.3 99.2 258.3 103.3"/>
      <polygon class="cls-1" points="253.3 110.2 250.7 111.6 250.7 107.4 253.3 106 253.3 110.2"/>
      <polygon class="cls-1" points="255.8 108.8 253.3 110.2 253.3 106 255.8 104.7 255.8 108.8"/>
      <polygon class="cls-1" points="258.3 107.4 255.8 108.8 255.8 104.7 258.3 103.3 258.3 107.4"/>
      <polygon class="cls-1" points="253.3 114.3 250.7 115.8 250.7 111.6 253.3 110.2 253.3 114.3"/>
      <polygon class="cls-1" points="255.8 112.9 253.3 114.3 253.3 110.2 255.8 108.8 255.8 112.9"/>
      <polygon class="cls-1" points="258.3 111.5 255.8 112.9 255.8 108.8 258.3 107.4 258.3 111.5"/>
      <polygon class="cls-1" points="253.3 118.5 250.7 120 250.7 115.8 253.3 114.3 253.3 118.5"/>
      <polygon class="cls-1" points="255.8 117.1 253.3 118.5 253.3 114.3 255.8 112.9 255.8 117.1"/>
      <polygon class="cls-1" points="258.3 115.6 255.8 117.1 255.8 112.9 258.3 111.5 258.3 115.6"/>
      <polygon class="cls-1" points="253.3 122.7 250.7 124.2 250.7 120 253.3 118.5 253.3 122.7"/>
      <polygon class="cls-1" points="255.8 121.2 253.3 122.7 253.3 118.5 255.8 117.1 255.8 121.2"/>
      <polygon class="cls-1" points="258.3 119.7 255.8 121.2 255.8 117.1 258.3 115.6 258.3 119.7"/>
      <polygon class="cls-1" points="253.3 126.8 250.7 128.4 250.7 124.2 253.3 122.7 253.3 126.8"/>
      <polygon class="cls-1" points="255.8 125.3 253.3 126.8 253.3 122.7 255.8 121.2 255.8 125.3"/>
      <polygon class="cls-1" points="258.3 123.8 255.8 125.3 255.8 121.2 258.3 119.7 258.3 123.8"/>
      <polygon class="cls-1" points="253.3 131 250.7 132.6 250.7 128.4 253.3 126.8 253.3 131"/>
      <polygon class="cls-1" points="255.8 129.5 253.3 131 253.3 126.8 255.8 125.3 255.8 129.5"/>
      <polygon class="cls-1" points="258.3 127.9 255.8 129.5 255.8 125.3 258.3 123.9 258.3 127.9"/>
      <polygon class="cls-1" points="253.3 135.2 250.7 136.8 250.7 132.6 253.3 131 253.3 135.2"/>
      <polygon class="cls-1" points="255.8 133.6 253.3 135.2 253.3 131 255.8 129.5 255.8 133.6"/>
      <polygon class="cls-1" points="258.3 132.1 255.8 133.6 255.8 129.5 258.3 127.9 258.3 132.1"/>
      <polygon class="cls-1" points="253.3 139.3 250.7 140.9 250.7 136.8 253.3 135.2 253.3 139.3"/>
      <polygon class="cls-1" points="255.8 137.7 253.3 139.3 253.3 135.2 255.8 133.6 255.8 137.7"/>
      <polygon class="cls-1" points="258.3 136.2 255.8 137.7 255.8 133.6 258.3 132.1 258.3 136.2"/>
      <polygon class="cls-1" points="253.3 143.5 250.7 145.1 250.7 140.9 253.3 139.3 253.3 143.5"/>
      <polygon class="cls-1" points="255.8 141.9 253.3 143.5 253.3 139.3 255.8 137.7 255.8 141.9"/>
      <polygon class="cls-1" points="258.3 140.3 255.8 141.9 255.8 137.7 258.3 136.2 258.3 140.3"/>
      <polygon class="cls-1" points="253.3 147.7 250.7 149.3 250.7 145.1 253.3 143.5 253.3 147.7"/>
      <polygon class="cls-1" points="255.8 146 253.3 147.7 253.3 143.5 255.8 141.9 255.8 146"/>
      <polygon class="cls-1" points="258.3 144.4 255.8 146 255.8 141.9 258.3 140.3 258.3 144.4"/>
      <polygon class="cls-1" points="253.3 151.8 250.7 153.5 250.7 149.3 253.3 147.7 253.3 151.8"/>
      <polygon class="cls-1" points="255.8 150.1 253.3 151.8 253.3 147.7 255.8 146 255.8 150.1"/>
      <polygon class="cls-1" points="258.3 148.5 255.8 150.1 255.8 146 258.3 144.4 258.3 148.5"/>
      <polygon class="cls-1" points="253.3 156 250.7 157.7 250.7 153.5 253.3 151.8 253.3 156"/>
      <polygon class="cls-1" points="255.8 154.3 253.3 156 253.3 151.8 255.8 150.1 255.8 154.3"/>
      <polygon class="cls-1" points="258.3 152.6 255.8 154.3 255.8 150.1 258.3 148.5 258.3 152.6"/>
      <polygon class="cls-1" points="253.3 160.2 250.7 161.9 250.7 157.7 253.3 156 253.3 160.2"/>
      <polygon class="cls-1" points="255.8 158.4 253.3 160.2 253.3 156 255.8 154.3 255.8 158.4"/>
      <polygon class="cls-1" points="258.3 156.7 255.8 158.4 255.8 154.3 258.3 152.6 258.3 156.7"/>
      <polygon class="cls-1" points="253.3 164.3 250.7 166.1 250.7 161.9 253.3 160.2 253.3 164.3"/>
      <polygon class="cls-1" points="255.8 162.5 253.3 164.3 253.3 160.2 255.8 158.4 255.8 162.5"/>
      <polygon class="cls-1" points="258.3 160.8 255.8 162.5 255.8 158.4 258.3 156.7 258.3 160.8"/>
      <polygon class="cls-1" points="253.3 168.5 250.7 170.3 250.7 166.1 253.3 164.3 253.3 168.5"/>
      <polygon class="cls-1" points="255.8 166.7 253.3 168.5 253.3 164.3 255.8 162.5 255.8 166.7"/>
      <polygon class="cls-1" points="258.3 164.9 255.8 166.7 255.8 162.5 258.3 160.8 258.3 164.9"/>
      <polygon class="cls-1" points="253.3 172.6 250.7 174.5 250.7 170.3 253.3 168.5 253.3 172.6"/>
      <polygon class="cls-1" points="255.8 170.8 253.3 172.6 253.3 168.5 255.8 166.7 255.8 170.8"/>
      <polygon class="cls-1" points="258.3 169 255.8 170.8 255.8 166.7 258.3 164.9 258.3 169"/>
      <polygon class="cls-1" points="253.3 176.8 250.7 178.7 250.7 174.5 253.3 172.6 253.3 176.8"/>
      <polygon class="cls-1" points="255.8 174.9 253.3 176.8 253.3 172.6 255.8 170.8 255.8 174.9"/>
      <polygon class="cls-1" points="258.3 173.1 255.8 174.9 255.8 170.8 258.3 169 258.3 173.1"/>
      <polygon class="cls-1" points="253.3 181 250.7 182.9 250.7 178.7 253.3 176.8 253.3 181"/>
      <polygon class="cls-1" points="255.8 179.1 253.3 181 253.3 176.8 255.8 174.9 255.8 179.1"/>
      <polygon class="cls-1" points="258.3 177.2 255.8 179.1 255.8 174.9 258.3 173.1 258.3 177.2"/>
      <polygon class="cls-1" points="253.3 185.1 250.7 187.1 250.7 182.9 253.3 181 253.3 185.1"/>
      <polygon class="cls-1" points="255.8 183.2 253.3 185.1 253.3 181 255.8 179.1 255.8 183.2"/>
      <polygon class="cls-1" points="258.3 181.3 255.8 183.2 255.8 179.1 258.3 177.2 258.3 181.3"/>
      <polygon class="cls-1" points="253.3 189.3 250.7 191.3 250.7 187.1 253.3 185.1 253.3 189.3"/>
      <polygon class="cls-1" points="255.8 187.4 253.3 189.3 253.3 185.1 255.8 183.2 255.8 187.4"/>
      <polygon class="cls-1" points="258.3 185.4 255.8 187.4 255.8 183.2 258.3 181.3 258.3 185.4"/>
      <polygon class="cls-1" points="253.3 193.5 250.7 195.5 250.7 191.3 253.3 189.3 253.3 193.5"/>
      <polygon class="cls-1" points="255.8 191.5 253.3 193.5 253.3 189.3 255.8 187.4 255.8 191.5"/>
      <polygon class="cls-1" points="258.3 189.5 255.8 191.5 255.8 187.4 258.3 185.4 258.3 189.5"/>
      <polygon class="cls-1" points="253.3 197.6 250.7 199.7 250.7 195.5 253.3 193.5 253.3 197.6"/>
      <polygon class="cls-1" points="255.8 195.6 253.3 197.6 253.3 193.5 255.8 191.5 255.8 195.6"/>
      <polygon class="cls-1" points="258.3 193.7 255.8 195.6 255.8 191.5 258.3 189.5 258.3 193.7"/>
      <polygon class="cls-1" points="253.3 201.8 250.7 203.9 250.7 199.7 253.3 197.6 253.3 201.8"/>
      <polygon class="cls-1" points="255.8 199.8 253.3 201.8 253.3 197.6 255.8 195.6 255.8 199.8"/>
      <polygon class="cls-1" points="258.3 197.8 255.8 199.8 255.8 195.6 258.3 193.7 258.3 197.8"/>
      <polygon class="cls-1" points="253.3 206 250.7 208 250.7 203.9 253.3 201.8 253.3 206"/>
      <polygon class="cls-1" points="255.8 203.9 253.3 206 253.3 201.8 255.8 199.8 255.8 203.9"/>
      <polygon class="cls-1" points="258.3 201.9 255.8 203.9 255.8 199.8 258.3 197.8 258.3 201.9"/>
      <polygon class="cls-1" points="253.3 210.1 250.7 212.2 250.7 208.1 253.3 206 253.3 210.1"/>
      <polygon class="cls-1" points="255.8 208 253.3 210.1 253.3 206 255.8 203.9 255.8 208"/>
      <polygon class="cls-1" points="258.3 206 255.8 208 255.8 203.9 258.3 201.9 258.3 206"/>
      <polygon class="cls-1" points="253.3 214.3 250.7 216.4 250.7 212.2 253.3 210.1 253.3 214.3"/>
      <polygon class="cls-1" points="255.8 212.2 253.3 214.3 253.3 210.1 255.8 208 255.8 212.2"/>
      <polygon class="cls-1" points="258.3 210.1 255.8 212.2 255.8 208 258.3 206 258.3 210.1"/>
      <line class="cls-1" x1="22.3" y1="31.3" x2="45.5" y2="24.6"/>
      <line class="cls-1" x1="26.3" y1="31.6" x2="49.6" y2="24.9"/>
      <line class="cls-1" x1="30.2" y1="31.9" x2="53.4" y2="25.2"/>
      <line class="cls-1" x1="34.6" y1="32.1" x2="57.8" y2="25.5"/>
      <line class="cls-1" x1="38.8" y1="32.5" x2="62" y2="25.8"/>
      <line class="cls-1" x1="42.9" y1="32.8" x2="66.1" y2="26.1"/>
      <line class="cls-1" x1="46.9" y1="33" x2="70.1" y2="26.3"/>
      <line class="cls-1" x1="51" y1="33.3" x2="74.2" y2="26.6"/>
      <line class="cls-1" x1="55.1" y1="33.6" x2="78.3" y2="26.9"/>
      <line class="cls-1" x1="59.2" y1="33.9" x2="82.4" y2="27.2"/>
      <line class="cls-1" x1="63.4" y1="34.2" x2="86.6" y2="27.5"/>
      <line class="cls-1" x1="67.6" y1="34.5" x2="90.8" y2="27.8"/>
      <line class="cls-1" x1="71.8" y1="34.8" x2="95.1" y2="28.2"/>
      <line class="cls-1" x1="80.1" y1="35.4" x2="103.3" y2="28.7"/>
      <line class="cls-1" x1="84.1" y1="35.7" x2="107.3" y2="29"/>
      <line class="cls-1" x1="88.5" y1="35.9" x2="111.7" y2="29.2"/>
      <line class="cls-1" x1="92.4" y1="36.2" x2="115.6" y2="29.5"/>
      <line class="cls-1" x1="96.7" y1="36.5" x2="119.9" y2="29.9"/>
      <line class="cls-1" x1="101" y1="36.8" x2="124.2" y2="30.1"/>
      <line class="cls-1" x1="104.8" y1="37.1" x2="128" y2="30.4"/>
      <line class="cls-1" x1="109" y1="37.4" x2="132.2" y2="30.7"/>
      <line class="cls-1" x1="113.1" y1="37.7" x2="136.3" y2="31"/>
      <line class="cls-1" x1="117.3" y1="38" x2="140.6" y2="31.3"/>
      <line class="cls-1" x1="121.4" y1="38.3" x2="144.6" y2="31.6"/>
      <line class="cls-1" x1="125.8" y1="38.5" x2="149" y2="31.9"/>
      <line class="cls-1" x1="130.1" y1="38.8" x2="153.3" y2="32.1"/>
      <line class="cls-1" x1="133.7" y1="39.2" x2="156.9" y2="32.5"/>
      <line class="cls-1" x1="137.6" y1="39.5" x2="160.9" y2="32.8"/>
      <line class="cls-1" x1="142.1" y1="39.7" x2="165.3" y2="33"/>
      <line class="cls-1" x1="146.4" y1="40.1" x2="169.6" y2="33.4"/>
      <line class="cls-1" x1="150.7" y1="40.2" x2="173.9" y2="33.6"/>
      <line class="cls-1" x1="154.9" y1="40.5" x2="178.1" y2="33.8"/>
      <line class="cls-1" x1="158.8" y1="40.9" x2="182.1" y2="34.3"/>
      <line class="cls-1" x1="163.1" y1="41.1" x2="186.3" y2="34.4"/>
      <line class="cls-1" x1="167.1" y1="41.4" x2="190.3" y2="34.7"/>
      <line class="cls-1" x1="171.3" y1="41.7" x2="194.5" y2="35"/>
      <line class="cls-1" x1="175.3" y1="42" x2="198.5" y2="35.3"/>
      <line class="cls-1" x1="179.7" y1="42.3" x2="202.9" y2="35.6"/>
      <line class="cls-1" x1="183.8" y1="42.6" x2="207" y2="35.9"/>
      <line class="cls-1" x1="187.6" y1="42.8" x2="210.8" y2="36.2"/>
      <line class="cls-1" x1="191.8" y1="43.2" x2="215" y2="36.5"/>
      <line class="cls-1" x1="196.1" y1="43.5" x2="219.3" y2="36.8"/>
      <line class="cls-1" x1="200" y1="43.9" x2="223.2" y2="37.2"/>
      <line class="cls-1" x1="204" y1="44.1" x2="227.2" y2="37.4"/>
      <line class="cls-1" x1="208.3" y1="44.3" x2="231.6" y2="37.6"/>
      <line class="cls-1" x1="212.5" y1="44.6" x2="235.7" y2="37.9"/>
      <line class="cls-1" x1="216.5" y1="45" x2="239.7" y2="38.3"/>
      <line class="cls-1" x1="220.6" y1="45.2" x2="243.8" y2="38.6"/>
      <line class="cls-1" x1="225.1" y1="45.6" x2="248.3" y2="38.9"/>
      <line class="cls-1" x1="229.2" y1="45.8" x2="252.4" y2="39.1"/>
      <polyline class="cls-1" points="232.9 46.1 256.2 39.4 41.6 24.3 18.4 31 75.8 35.1 99 28.4"/>
      <line class="cls-1" x1="253.7" y1="40.1" x2="39.1" y2="25.1"/>
      <line class="cls-1" x1="251.1" y1="40.9" x2="36.5" y2="25.8"/>
      <line class="cls-1" x1="248.6" y1="41.5" x2="34" y2="26.4"/>
      <line class="cls-1" x1="245.9" y1="42.4" x2="31.4" y2="27.3"/>
      <line class="cls-1" x1="243.3" y1="43.1" x2="28.7" y2="28"/>
      <line class="cls-1" x1="240.7" y1="43.9" x2="26.1" y2="28.8"/>
      <line class="cls-1" x1="238.5" y1="44.6" x2="23.9" y2="29.5"/>
      <line class="cls-1" x1="235.9" y1="45.3" x2="21.3" y2="30.2"/>
      <path class="cls-2" d="M14.9,32.1s-.3-1.4,1.9-1.2c2.3.2,58.7,4.4,58.7,4.4"/>
      <polyline class="cls-2" points="73.9 38.7 17.6 34.1 17.6 35.9"/>
      <polyline class="cls-2" points="73.9 42.9 17.6 38.4 17.6 40.2"/>
      <polyline class="cls-2" points="73.9 47.2 17.6 42.6 17.6 44.4"/>
      <polyline class="cls-2" points="73.9 51.4 17.6 46.8 17.6 48.6"/>
      <polyline class="cls-2" points="73.9 55.7 17.6 51.1 17.6 52.9"/>
      <polyline class="cls-2" points="73.9 59.9 17.6 55.3 17.6 57.1"/>
      <polyline class="cls-2" points="73.9 64.1 17.6 59.6 17.6 61.4"/>
      <polyline class="cls-2" points="73.9 68.4 17.6 63.8 17.6 65.6"/>
      <polyline class="cls-2" points="73.9 72.6 17.6 68 17.6 69.8"/>
      <polyline class="cls-2" points="73.9 76.9 17.6 72.3 17.6 74.1"/>
      <polyline class="cls-2" points="73.9 81.1 17.6 76.5 17.6 78.3"/>
      <polyline class="cls-2" points="73.9 85.3 17.6 80.8 17.6 82.6"/>
      <polyline class="cls-2" points="73.9 89.6 17.6 85 17.6 86.8"/>
      <polyline class="cls-2" points="73.9 93.8 17.6 89.2 17.6 91"/>
      <polyline class="cls-2" points="73.9 98 17.6 93.5 17.6 95.3"/>
      <polyline class="cls-2" points="73.9 102.3 17.6 97.7 17.6 99.5"/>
      <polyline class="cls-2" points="73.9 106.5 17.6 101.9 17.6 103.7"/>
      <polyline class="cls-2" points="73.9 110.8 17.6 106.2 17.6 108"/>
      <polyline class="cls-2" points="73.9 115 17.6 110.4 17.6 112.2"/>
      <polyline class="cls-2" points="73.9 119.2 17.6 114.6 17.6 116.5"/>
      <polyline class="cls-2" points="73.9 123.5 17.6 118.9 17.6 120.7"/>
      <polyline class="cls-2" points="73.9 127.7 17.6 123.1 17.6 124.9"/>
      <polyline class="cls-2" points="73.9 131.9 17.6 127.4 17.6 129.2"/>
      <polyline class="cls-2" points="73.9 136.2 17.6 131.6 17.6 133.4"/>
      <polyline class="cls-2" points="73.9 140.4 17.6 135.8 17.6 137.7"/>
      <polyline class="cls-2" points="73.9 144.7 17.6 140.1 17.6 141.9"/>
      <polyline class="cls-2" points="73.9 148.9 17.6 144.3 17.6 146.1"/>
      <polyline class="cls-2" points="73.9 153.1 17.6 148.6 17.6 150.4"/>
      <polyline class="cls-2" points="73.9 157.4 17.6 152.8 17.6 154.6"/>
      <polyline class="cls-2" points="73.9 161.6 17.6 157 17.6 158.8"/>
      <polyline class="cls-2" points="73.9 165.8 17.6 161.3 17.6 163.1"/>
      <polyline class="cls-2" points="73.9 170.1 17.6 165.5 17.6 167.3"/>
      <polyline class="cls-2" points="73.9 174.3 17.6 169.8 17.6 171.5"/>
      <polyline class="cls-2" points="73.9 178.6 17.6 174 17.6 175.8"/>
      <polyline class="cls-2" points="73.9 182.8 17.6 178.2 17.6 180"/>
      <polyline class="cls-2" points="73.9 187 17.6 182.5 17.6 184.3"/>
      <polyline class="cls-2" points="73.9 191.3 17.6 186.7 17.6 188.5"/>
      <polyline class="cls-2" points="73.9 195.5 17.6 190.9 17.6 192.7"/>
      <polyline class="cls-2" points="73.9 199.7 17.6 195.2 17.6 197"/>
      <polyline class="cls-2" points="73.9 204 17.6 199.4 17.6 201.2"/>
      <polyline class="cls-2" points="73.9 208.2 17.6 203.7 17.6 205.4"/>
      <polyline class="cls-2" points="73.9 212.5 17.6 207.9 17.6 209.7"/>
      <polyline class="cls-2" points="73.9 216.7 17.6 212.1 17.6 213.9"/>
      <line class="cls-2" x1="257.6" y1="39.4" x2="40.3" y2="23.9"/>
      <path class="cls-5" d="M35.4,210.7c-.8.4-.9,1.6-.4,2.5.5,1,1.6,1.4,2.4,1,.8-.4.9-1.6.4-2.5-.5-1-1.6-1.4-2.4-1"/>
      <path class="cls-2" d="M35.4,210.7c-.8.4-.9,1.6-.4,2.5.5,1,1.6,1.4,2.4,1,.8-.4.9-1.6.4-2.5-.5-1-1.6-1.4-2.4-1Z"/>
      <path class="cls-5" d="M234.3,233.5c-.5.5-1.6.8-2.3.8l-154.2-12.7c-.7,0-1.3-.7-1.3-1.4V37.1c0-.7.6-1.5,1.3-1.7l13-3.9c.7-.2,1.8-.3,2.6-.3l154.9,10.4c.7,0,1.3.7,1.3,1.4v175.9c0,.7-.4,1.7-1,2.2l-14.2,12.4"/>
      <path class="cls-2" d="M234.3,233.5c-.5.5-1.6.8-2.3.8l-154.2-12.7c-.7,0-1.3-.7-1.3-1.4V37.1c0-.7.6-1.5,1.3-1.7l13-3.9c.7-.2,1.8-.3,2.6-.3l154.9,10.4c.7,0,1.3.7,1.3,1.4v175.9c0,.7-.4,1.7-1,2.2l-14.2,12.4Z"/>
      <path class="cls-2" d="M76.5,35.8l155.5,11.3c.7,0,1.3.7,1.3,1.4v186"/>
      <line class="cls-2" x1="233.6" y1="47" x2="248.2" y2="42.6"/>
      <path class="cls-4" d="M141.2,159.8c-.5.3-.7,1.1-.3,1.8.4.7,1.1,1,1.7.7.5-.3.6-1.1.2-1.8-.4-.7-1.1-1-1.6-.7M141.2,177.7c-.5.3-.7,1.1-.3,1.8.4.7,1.1,1,1.7.7.5-.3.6-1.1.2-1.8-.4-.7-1.1-1-1.6-.7M141.2,137.3c-.5.3-.7,1.1-.3,1.8.4.7,1.1,1,1.7.7.5-.3.6-1.1.2-1.8-.4-.7-1.1-1-1.6-.7M141.2,173.3c-.5.3-.7,1.1-.3,1.8.4.7,1.1,1,1.7.7.5-.3.6-1.1.2-1.8-.4-.7-1.1-1-1.6-.7M141.2,168.8c-.5.3-.7,1.1-.3,1.8.4.7,1.1,1,1.7.7.5-.3.6-1.1.2-1.8-.4-.7-1.1-1-1.6-.7M141.2,155.3c-.5.3-.7,1.1-.3,1.8.4.7,1.1,1,1.7.7.5-.3.6-1.1.2-1.8-.4-.7-1.1-1-1.6-.7M141.2,141.8c-.5.3-.7,1.1-.3,1.8.4.7,1.1,1,1.7.7.5-.3.6-1.1.2-1.8-.4-.7-1.1-1-1.6-.7M141.2,182.2c-.5.3-.7,1.1-.3,1.8.4.7,1.1,1,1.7.7.5-.3.6-1.1.2-1.8-.4-.7-1.1-1-1.6-.7M141.2,150.8c-.5.3-.7,1.1-.3,1.8.4.7,1.1,1,1.7.7.5-.3.6-1.1.2-1.8-.4-.7-1.1-1-1.6-.7M141.2,146.3c-.5.3-.7,1.1-.3,1.8.4.7,1.1,1,1.7.7.5-.3.6-1.1.2-1.8-.4-.7-1.1-1-1.6-.7M141.2,164.3c-.5.3-.7,1.1-.3,1.8.4.7,1.1,1,1.7.7.5-.3.6-1.1.2-1.8-.4-.7-1.1-1-1.6-.7M141.2,218.2c-.5.3-.7,1.1-.3,1.8.4.7,1.1,1,1.7.7.5-.3.6-1.1.2-1.8-.4-.7-1.1-1-1.6-.7M141.2,213.7c-.5.3-.7,1.1-.3,1.8.4.7,1.1,1,1.7.7.5-.3.6-1.1.2-1.8-.4-.7-1.1-1-1.6-.7M141.2,209.2c-.5.3-.7,1.1-.3,1.8.4.7,1.1,1,1.7.7.5-.3.6-1.1.2-1.8-.4-.7-1.1-1-1.6-.7M142.5,45.3c.5-.3.6-1.1.2-1.8-.4-.7-1.1-1-1.6-.7-.5.3-.7,1.1-.3,1.8.4.7,1.1,1,1.7.7M141.2,186.7c-.5.3-.7,1.1-.3,1.8.4.7,1.1,1,1.7.7.5-.3.6-1.1.2-1.8-.4-.7-1.1-1-1.6-.7M141.2,195.7c-.5.3-.7,1.1-.3,1.8.4.7,1.1,1,1.7.7.5-.3.6-1.1.2-1.8-.4-.7-1.1-1-1.6-.7M141.2,191.2c-.5.3-.7,1.1-.3,1.8.4.7,1.1,1,1.7.7.5-.3.6-1.1.2-1.8-.4-.7-1.1-1-1.6-.7M141.2,200.2c-.5.3-.7,1.1-.3,1.8.4.7,1.1,1,1.7.7.5-.3.6-1.1.2-1.8-.4-.7-1.1-1-1.6-.7M141.2,204.7c-.5.3-.7,1.1-.3,1.8.4.7,1.1,1,1.7.7.5-.3.6-1.1.2-1.8-.4-.7-1.1-1-1.6-.7M141.2,47.4c-.5.3-.7,1.1-.3,1.8.4.7,1.1,1,1.7.7.5-.3.6-1.1.2-1.8-.4-.7-1.1-1-1.6-.7M141.2,74.3c-.5.3-.7,1.1-.3,1.8.4.7,1.1,1,1.7.7.5-.3.6-1.1.2-1.8-.4-.7-1.1-1-1.6-.7M141.2,69.9c-.5.3-.7,1.1-.3,1.8.4.7,1.1,1,1.7.7.5-.3.6-1.1.2-1.8-.4-.7-1.1-1-1.6-.7M141.2,132.8c-.5.3-.7,1.1-.3,1.8.4.7,1.1,1,1.7.7.5-.3.6-1.1.2-1.8-.4-.7-1.1-1-1.6-.7M141.2,83.4c-.5.3-.7,1.1-.3,1.8.4.7,1.1,1,1.7.7.5-.3.6-1.1.2-1.8-.4-.7-1.1-1-1.6-.7M141.2,60.9c-.5.3-.7,1.1-.3,1.8.4.7,1.1,1,1.7.7.5-.3.6-1.1.2-1.8-.4-.7-1.1-1-1.6-.7M141.2,51.9c-.5.3-.7,1.1-.3,1.8.4.7,1.1,1,1.7.7.5-.3.6-1.1.2-1.8-.4-.7-1.1-1-1.6-.7M141.2,56.4c-.5.3-.7,1.1-.3,1.8.4.7,1.1,1,1.7.7.5-.3.6-1.1.2-1.8-.4-.7-1.1-1-1.6-.7M141.2,87.8c-.5.3-.7,1.1-.3,1.8.4.7,1.1,1,1.7.7.5-.3.6-1.1.2-1.8-.4-.7-1.1-1-1.6-.7M141.2,65.4c-.5.3-.7,1.1-.3,1.8.4.7,1.1,1,1.7.7.5-.3.6-1.1.2-1.8-.4-.7-1.1-1-1.6-.7M141.2,78.8c-.5.3-.7,1.1-.3,1.8.4.7,1.1,1,1.7.7.5-.3.6-1.1.2-1.8-.4-.7-1.1-1-1.6-.7M141.2,119.3c-.5.3-.7,1.1-.3,1.8.4.7,1.1,1,1.7.7.5-.3.6-1.1.2-1.8-.4-.7-1.1-1-1.6-.7M141.2,114.8c-.5.3-.7,1.1-.3,1.8.4.7,1.1,1,1.7.7.5-.3.6-1.1.2-1.8-.4-.7-1.1-1-1.6-.7M141.2,123.8c-.5.3-.7,1.1-.3,1.8.4.7,1.1,1,1.7.7.5-.3.6-1.1.2-1.8-.4-.7-1.1-1-1.6-.7M141.2,92.3c-.5.3-.7,1.1-.3,1.8.4.7,1.1,1,1.7.7.5-.3.6-1.1.2-1.8-.4-.7-1.1-1-1.6-.7M141.2,128.3c-.5.3-.7,1.1-.3,1.8.4.7,1.1,1,1.7.7.5-.3.6-1.1.2-1.8-.4-.7-1.1-1-1.6-.7M141.2,101.3c-.5.3-.7,1.1-.3,1.8.4.7,1.1,1,1.7.7.5-.3.6-1.1.2-1.8-.4-.7-1.1-1-1.6-.7M141.2,96.8c-.5.3-.7,1.1-.3,1.8.4.7,1.1,1,1.7.7.5-.3.6-1.1.2-1.8-.4-.7-1.1-1-1.6-.7M141.2,110.3c-.5.3-.7,1.1-.3,1.8.4.7,1.1,1,1.7.7.5-.3.6-1.1.2-1.8-.4-.7-1.1-1-1.6-.7M141.2,105.8c-.5.3-.7,1.1-.3,1.8.4.7,1.1,1,1.7.7.5-.3.6-1.1.2-1.8-.4-.7-1.1-1-1.6-.7M141.2,222.7c-.5.3-.7,1.1-.3,1.8.4.7,1.1,1,1.7.7.5-.3.6-1.1.2-1.8-.4-.7-1.1-1-1.6-.7"/>
      <path class="cls-4" d="M145.3,160.1c-.5.3-.6,1.1-.3,1.8.4.7,1.1,1,1.6.7.5-.3.6-1.1.3-1.8-.4-.7-1.1-1-1.6-.7M145.3,178.1c-.5.3-.6,1.1-.3,1.8.4.7,1.1,1,1.6.7.5-.3.6-1.1.3-1.8-.4-.7-1.1-1-1.6-.7M145.3,137.6c-.5.3-.6,1.1-.3,1.8.4.7,1.1,1,1.6.7.5-.3.6-1.1.3-1.8-.4-.7-1.1-1-1.6-.7M145.3,173.6c-.5.3-.6,1.1-.3,1.8.4.7,1.1,1,1.6.7.5-.3.6-1.1.3-1.8-.4-.7-1.1-1-1.6-.7M145.3,169.1c-.5.3-.6,1.1-.3,1.8.4.7,1.1,1,1.6.7.5-.3.6-1.1.3-1.8-.4-.7-1.1-1-1.6-.7M145.3,155.6c-.5.3-.6,1.1-.3,1.8.4.7,1.1,1,1.6.7.5-.3.6-1.1.3-1.8-.4-.7-1.1-1-1.6-.7M145.3,142.1c-.5.3-.6,1.1-.3,1.8.4.7,1.1,1,1.6.7.5-.3.6-1.1.3-1.8-.4-.7-1.1-1-1.6-.7M145.3,182.6c-.5.3-.6,1.1-.3,1.8.4.7,1.1,1,1.6.7.5-.3.6-1.1.3-1.8-.4-.7-1.1-1-1.6-.7M145.3,151.1c-.5.3-.6,1.1-.3,1.8.4.7,1.1,1,1.6.7.5-.3.6-1.1.3-1.8-.4-.7-1.1-1-1.6-.7M145.3,146.6c-.5.3-.6,1.1-.3,1.8.4.7,1.1,1,1.6.7.5-.3.6-1.1.3-1.8-.4-.7-1.1-1-1.6-.7M145.3,164.6c-.5.3-.6,1.1-.3,1.8.4.7,1.1,1,1.6.7.5-.3.6-1.1.3-1.8-.4-.7-1.1-1-1.6-.7M145.3,218.6c-.5.3-.6,1.1-.3,1.8.4.7,1.1,1,1.6.7.5-.3.6-1.1.3-1.8-.4-.7-1.1-1-1.6-.7M145.3,214.1c-.5.3-.6,1.1-.3,1.8.4.7,1.1,1,1.6.7.5-.3.6-1.1.3-1.8-.4-.7-1.1-1-1.6-.7M145.3,209.6c-.5.3-.6,1.1-.3,1.8.4.7,1.1,1,1.6.7.5-.3.6-1.1.3-1.8-.4-.7-1.1-1-1.6-.7M146.7,45.7c.5-.3.6-1.1.3-1.8-.4-.7-1.1-1-1.6-.7-.5.3-.6,1.1-.3,1.8.4.7,1.1,1,1.6.7M145.3,187.1c-.5.3-.6,1.1-.3,1.8.4.7,1.1,1,1.6.7.5-.3.6-1.1.3-1.8-.4-.7-1.1-1-1.6-.7M145.3,196.1c-.5.3-.6,1.1-.3,1.8.4.7,1.1,1,1.6.7.5-.3.6-1.1.3-1.8-.4-.7-1.1-1-1.6-.7M145.3,191.6c-.5.3-.6,1.1-.3,1.8.4.7,1.1,1,1.6.7.5-.3.6-1.1.3-1.8-.4-.7-1.1-1-1.6-.7M145.3,200.6c-.5.3-.6,1.1-.3,1.8.4.7,1.1,1,1.6.7.5-.3.6-1.1.3-1.8-.4-.7-1.1-1-1.6-.7M145.3,205.1c-.5.3-.6,1.1-.3,1.8.4.7,1.1,1,1.6.7.5-.3.6-1.1.3-1.8-.4-.7-1.1-1-1.6-.7M145.3,47.7c-.5.3-.6,1.1-.3,1.8.4.7,1.1,1,1.6.7.5-.3.6-1.1.3-1.8-.4-.7-1.1-1-1.6-.7M145.3,74.7c-.5.3-.6,1.1-.3,1.8.4.7,1.1,1,1.6.7.5-.3.6-1.1.3-1.8-.4-.7-1.1-1-1.6-.7M145.3,70.2c-.5.3-.6,1.1-.3,1.8.4.7,1.1,1,1.6.7.5-.3.6-1.1.3-1.8-.4-.7-1.1-1-1.6-.7M145.3,133.1c-.5.3-.6,1.1-.3,1.8.4.7,1.1,1,1.6.7.5-.3.6-1.1.3-1.8-.4-.7-1.1-1-1.6-.7M145.3,83.7c-.5.3-.6,1.1-.3,1.8.4.7,1.1,1,1.6.7.5-.3.6-1.1.3-1.8-.4-.7-1.1-1-1.6-.7M145.3,61.2c-.5.3-.6,1.1-.3,1.8.4.7,1.1,1,1.6.7.5-.3.6-1.1.3-1.8-.4-.7-1.1-1-1.6-.7M145.3,52.2c-.5.3-.6,1.1-.3,1.8.4.7,1.1,1,1.6.7.5-.3.6-1.1.3-1.8-.4-.7-1.1-1-1.6-.7M145.3,56.7c-.5.3-.6,1.1-.3,1.8.4.7,1.1,1,1.6.7.5-.3.6-1.1.3-1.8-.4-.7-1.1-1-1.6-.7M145.3,88.2c-.5.3-.6,1.1-.3,1.8.4.7,1.1,1,1.6.7.5-.3.6-1.1.3-1.8-.4-.7-1.1-1-1.6-.7M145.3,65.7c-.5.3-.6,1.1-.3,1.8.4.7,1.1,1,1.6.7.5-.3.6-1.1.3-1.8-.4-.7-1.1-1-1.6-.7M145.3,79.2c-.5.3-.6,1.1-.3,1.8.4.7,1.1,1,1.6.7.5-.3.6-1.1.3-1.8-.4-.7-1.1-1-1.6-.7M145.3,119.6c-.5.3-.6,1.1-.3,1.8.4.7,1.1,1,1.6.7.5-.3.6-1.1.3-1.8-.4-.7-1.1-1-1.6-.7M145.3,115.2c-.5.3-.6,1.1-.3,1.8.4.7,1.1,1,1.6.7.5-.3.6-1.1.3-1.8-.4-.7-1.1-1-1.6-.7M145.3,124.1c-.5.3-.6,1.1-.3,1.8.4.7,1.1,1,1.6.7.5-.3.6-1.1.3-1.8-.4-.7-1.1-1-1.6-.7M145.3,92.7c-.5.3-.6,1.1-.3,1.8.4.7,1.1,1,1.6.7.5-.3.6-1.1.3-1.8-.4-.7-1.1-1-1.6-.7M145.3,128.6c-.5.3-.6,1.1-.3,1.8.4.7,1.1,1,1.6.7.5-.3.6-1.1.3-1.8-.4-.7-1.1-1-1.6-.7M145.3,101.7c-.5.3-.6,1.1-.3,1.8.4.7,1.1,1,1.6.7.5-.3.6-1.1.3-1.8-.4-.7-1.1-1-1.6-.7M145.3,97.2c-.5.3-.6,1.1-.3,1.8.4.7,1.1,1,1.6.7.5-.3.6-1.1.3-1.8-.4-.7-1.1-1-1.6-.7M145.3,110.7c-.5.3-.6,1.1-.3,1.8.4.7,1.1,1,1.6.7.5-.3.6-1.1.3-1.8-.4-.7-1.1-1-1.6-.7M145.3,106.2c-.5.3-.6,1.1-.3,1.8.4.7,1.1,1,1.6.7.5-.3.6-1.1.3-1.8-.4-.7-1.1-1-1.6-.7M145.3,223c-.5.3-.6,1.1-.3,1.8.4.7,1.1,1,1.6.7.5-.3.6-1.1.3-1.8-.4-.7-1.1-1-1.6-.7"/>
      <path class="cls-4" d="M149.5,160.4c-.5.3-.6,1.1-.3,1.8.4.7,1.1,1,1.6.7.5-.3.6-1.1.3-1.8-.4-.7-1.1-1-1.6-.7M149.5,178.4c-.5.3-.6,1.1-.3,1.8.4.7,1.1,1,1.6.7.5-.3.6-1.1.3-1.8-.4-.7-1.1-1-1.6-.7M149.5,138c-.5.3-.6,1.1-.3,1.8.4.7,1.1,1,1.6.7.5-.3.6-1.1.3-1.8-.4-.7-1.1-1-1.6-.7M149.5,173.9c-.5.3-.6,1.1-.3,1.8.4.7,1.1,1,1.6.7.5-.3.6-1.1.3-1.8-.4-.7-1.1-1-1.6-.7M149.5,169.4c-.5.3-.6,1.1-.3,1.8.4.7,1.1,1,1.6.7.5-.3.6-1.1.3-1.8-.4-.7-1.1-1-1.6-.7M149.5,155.9c-.5.3-.6,1.1-.3,1.8.4.7,1.1,1,1.6.7.5-.3.6-1.1.3-1.8-.4-.7-1.1-1-1.6-.7M149.5,142.5c-.5.3-.6,1.1-.3,1.8.4.7,1.1,1,1.6.7.5-.3.6-1.1.3-1.8-.4-.7-1.1-1-1.6-.7M149.5,182.9c-.5.3-.6,1.1-.3,1.8.4.7,1.1,1,1.6.7.5-.3.6-1.1.3-1.8-.4-.7-1.1-1-1.6-.7M149.5,151.5c-.5.3-.6,1.1-.3,1.8.4.7,1.1,1,1.6.7.5-.3.6-1.1.3-1.8-.4-.7-1.1-1-1.6-.7M149.5,147c-.5.3-.6,1.1-.3,1.8.4.7,1.1,1,1.6.7.5-.3.6-1.1.3-1.8-.4-.7-1.1-1-1.6-.7M149.5,164.9c-.5.3-.6,1.1-.3,1.8.4.7,1.1,1,1.6.7.5-.3.6-1.1.3-1.8-.4-.7-1.1-1-1.6-.7M149.5,218.9c-.5.3-.6,1.1-.3,1.8.4.7,1.1,1,1.6.7.5-.3.6-1.1.3-1.8-.4-.7-1.1-1-1.6-.7M149.5,214.4c-.5.3-.6,1.1-.3,1.8.4.7,1.1,1,1.6.7.5-.3.6-1.1.3-1.8-.4-.7-1.1-1-1.6-.7M149.5,209.9c-.5.3-.6,1.1-.3,1.8.4.7,1.1,1,1.6.7.5-.3.6-1.1.3-1.8-.4-.7-1.1-1-1.6-.7M150.9,46c.5-.3.6-1.1.3-1.8-.4-.7-1.1-1-1.6-.7-.5.3-.6,1.1-.3,1.8.4.7,1.1,1,1.6.7M149.5,187.4c-.5.3-.6,1.1-.3,1.8.4.7,1.1,1,1.6.7.5-.3.6-1.1.3-1.8-.4-.7-1.1-1-1.6-.7M149.5,196.4c-.5.3-.6,1.1-.3,1.8.4.7,1.1,1,1.6.7.5-.3.6-1.1.3-1.8-.4-.7-1.1-1-1.6-.7M149.5,191.9c-.5.3-.6,1.1-.3,1.8.4.7,1.1,1,1.6.7.5-.3.6-1.1.3-1.8-.4-.7-1.1-1-1.6-.7M149.5,200.9c-.5.3-.6,1.1-.3,1.8.4.7,1.1,1,1.6.7.5-.3.6-1.1.3-1.8-.4-.7-1.1-1-1.6-.7M149.5,205.4c-.5.3-.6,1.1-.3,1.8.4.7,1.1,1,1.6.7.5-.3.6-1.1.3-1.8-.4-.7-1.1-1-1.6-.7M149.5,48.1c-.5.3-.6,1.1-.3,1.8.4.7,1.1,1,1.6.7.5-.3.6-1.1.3-1.8-.4-.7-1.1-1-1.6-.7M149.5,75c-.5.3-.6,1.1-.3,1.8.4.7,1.1,1,1.6.7.5-.3.6-1.1.3-1.8-.4-.7-1.1-1-1.6-.7M149.5,70.5c-.5.3-.6,1.1-.3,1.8.4.7,1.1,1,1.6.7.5-.3.6-1.1.3-1.8-.4-.7-1.1-1-1.6-.7M149.5,133.5c-.5.3-.6,1.1-.3,1.8.4.7,1.1,1,1.6.7.5-.3.6-1.1.3-1.8-.4-.7-1.1-1-1.6-.7M149.5,84c-.5.3-.6,1.1-.3,1.8.4.7,1.1,1,1.6.7.5-.3.6-1.1.3-1.8-.4-.7-1.1-1-1.6-.7M149.5,61.6c-.5.3-.6,1.1-.3,1.8.4.7,1.1,1,1.6.7.5-.3.6-1.1.3-1.8-.4-.7-1.1-1-1.6-.7M149.5,52.6c-.5.3-.6,1.1-.3,1.8.4.7,1.1,1,1.6.7.5-.3.6-1.1.3-1.8-.4-.7-1.1-1-1.6-.7M149.5,57.1c-.5.3-.6,1.1-.3,1.8.4.7,1.1,1,1.6.7.5-.3.6-1.1.3-1.8-.4-.7-1.1-1-1.6-.7M149.5,88.5c-.5.3-.6,1.1-.3,1.8.4.7,1.1,1,1.6.7.5-.3.6-1.1.3-1.8-.4-.7-1.1-1-1.6-.7M149.5,66c-.5.3-.6,1.1-.3,1.8.4.7,1.1,1,1.6.7.5-.3.6-1.1.3-1.8-.4-.7-1.1-1-1.6-.7M149.5,79.5c-.5.3-.6,1.1-.3,1.8.4.7,1.1,1,1.6.7.5-.3.6-1.1.3-1.8-.4-.7-1.1-1-1.6-.7M149.5,120c-.5.3-.6,1.1-.3,1.8.4.7,1.1,1,1.6.7.5-.3.6-1.1.3-1.8-.4-.7-1.1-1-1.6-.7M149.5,115.5c-.5.3-.6,1.1-.3,1.8.4.7,1.1,1,1.6.7.5-.3.6-1.1.3-1.8-.4-.7-1.1-1-1.6-.7M149.5,124.5c-.5.3-.6,1.1-.3,1.8.4.7,1.1,1,1.6.7.5-.3.6-1.1.3-1.8-.4-.7-1.1-1-1.6-.7M149.5,93c-.5.3-.6,1.1-.3,1.8.4.7,1.1,1,1.6.7.5-.3.6-1.1.3-1.8-.4-.7-1.1-1-1.6-.7M149.5,129c-.5.3-.6,1.1-.3,1.8.4.7,1.1,1,1.6.7.5-.3.6-1.1.3-1.8-.4-.7-1.1-1-1.6-.7M149.5,102c-.5.3-.6,1.1-.3,1.8.4.7,1.1,1,1.6.7.5-.3.6-1.1.3-1.8-.4-.7-1.1-1-1.6-.7M149.5,97.5c-.5.3-.6,1.1-.3,1.8.4.7,1.1,1,1.6.7.5-.3.6-1.1.3-1.8-.4-.7-1.1-1-1.6-.7M149.5,111c-.5.3-.6,1.1-.3,1.8.4.7,1.1,1,1.6.7.5-.3.6-1.1.3-1.8-.4-.7-1.1-1-1.6-.7M149.5,106.5c-.5.3-.6,1.1-.3,1.8.4.7,1.1,1,1.6.7.5-.3.6-1.1.3-1.8-.4-.7-1.1-1-1.6-.7M149.5,223.4c-.5.3-.6,1.1-.3,1.8.4.7,1.1,1,1.6.7.5-.3.6-1.1.3-1.8-.4-.7-1.1-1-1.6-.7"/>
      <path class="cls-4" d="M153.7,160.8c-.5.3-.6,1.1-.3,1.8.4.7,1.1,1,1.6.7.5-.3.6-1.1.2-1.8-.4-.7-1.1-1-1.6-.7M153.7,178.8c-.5.3-.6,1.1-.3,1.8.4.7,1.1,1,1.6.7.5-.3.6-1.1.2-1.8-.4-.7-1.1-1-1.6-.7M153.7,138.3c-.5.3-.6,1.1-.3,1.8.4.7,1.1,1,1.6.7.5-.3.6-1.1.2-1.8-.4-.7-1.1-1-1.6-.7M153.7,174.3c-.5.3-.6,1.1-.3,1.8.4.7,1.1,1,1.6.7.5-.3.6-1.1.2-1.8-.4-.7-1.1-1-1.6-.7M153.7,169.8c-.5.3-.6,1.1-.3,1.8.4.7,1.1,1,1.6.7.5-.3.6-1.1.2-1.8-.4-.7-1.1-1-1.6-.7M153.7,156.3c-.5.3-.6,1.1-.3,1.8.4.7,1.1,1,1.6.7.5-.3.6-1.1.2-1.8-.4-.7-1.1-1-1.6-.7M153.7,142.8c-.5.3-.6,1.1-.3,1.8.4.7,1.1,1,1.6.7.5-.3.6-1.1.2-1.8-.4-.7-1.1-1-1.6-.7M153.7,183.3c-.5.3-.6,1.1-.3,1.8.4.7,1.1,1,1.6.7.5-.3.6-1.1.2-1.8-.4-.7-1.1-1-1.6-.7M153.7,151.8c-.5.3-.6,1.1-.3,1.8.4.7,1.1,1,1.6.7.5-.3.6-1.1.2-1.8-.4-.7-1.1-1-1.6-.7M153.7,147.3c-.5.3-.6,1.1-.3,1.8.4.7,1.1,1,1.6.7.5-.3.6-1.1.2-1.8-.4-.7-1.1-1-1.6-.7M153.7,165.3c-.5.3-.6,1.1-.3,1.8.4.7,1.1,1,1.6.7.5-.3.6-1.1.2-1.8-.4-.7-1.1-1-1.6-.7M153.7,219.2c-.5.3-.6,1.1-.3,1.8.4.7,1.1,1,1.6.7.5-.3.6-1.1.2-1.8-.4-.7-1.1-1-1.6-.7M153.7,214.7c-.5.3-.6,1.1-.3,1.8.4.7,1.1,1,1.6.7.5-.3.6-1.1.2-1.8-.4-.7-1.1-1-1.6-.7M153.7,210.2c-.5.3-.6,1.1-.3,1.8.4.7,1.1,1,1.6.7.5-.3.6-1.1.2-1.8-.4-.7-1.1-1-1.6-.7M155.1,46.4c.5-.3.6-1.1.2-1.8-.4-.7-1.1-1-1.6-.7-.5.3-.6,1.1-.3,1.8.4.7,1.1,1,1.6.7M153.7,187.8c-.5.3-.6,1.1-.3,1.8.4.7,1.1,1,1.6.7.5-.3.6-1.1.2-1.8-.4-.7-1.1-1-1.6-.7M153.7,196.8c-.5.3-.6,1.1-.3,1.8.4.7,1.1,1,1.6.7.5-.3.6-1.1.2-1.8-.4-.7-1.1-1-1.6-.7M153.7,192.3c-.5.3-.6,1.1-.3,1.8.4.7,1.1,1,1.6.7.5-.3.6-1.1.2-1.8-.4-.7-1.1-1-1.6-.7M153.7,201.2c-.5.3-.6,1.1-.3,1.8.4.7,1.1,1,1.6.7.5-.3.6-1.1.2-1.8-.4-.7-1.1-1-1.6-.7M153.7,205.7c-.5.3-.6,1.1-.3,1.8.4.7,1.1,1,1.6.7.5-.3.6-1.1.2-1.8-.4-.7-1.1-1-1.6-.7M153.7,48.4c-.5.3-.6,1.1-.3,1.8.4.7,1.1,1,1.6.7.5-.3.6-1.1.2-1.8-.4-.7-1.1-1-1.6-.7M153.7,75.4c-.5.3-.6,1.1-.3,1.8.4.7,1.1,1,1.6.7.5-.3.6-1.1.2-1.8-.4-.7-1.1-1-1.6-.7M153.7,70.9c-.5.3-.6,1.1-.3,1.8.4.7,1.1,1,1.6.7.5-.3.6-1.1.2-1.8-.4-.7-1.1-1-1.6-.7M153.7,133.8c-.5.3-.6,1.1-.3,1.8.4.7,1.1,1,1.6.7.5-.3.6-1.1.2-1.8-.4-.7-1.1-1-1.6-.7M153.7,84.4c-.5.3-.6,1.1-.3,1.8.4.7,1.1,1,1.6.7.5-.3.6-1.1.2-1.8-.4-.7-1.1-1-1.6-.7M153.7,61.9c-.5.3-.6,1.1-.3,1.8.4.7,1.1,1,1.6.7.5-.3.6-1.1.2-1.8-.4-.7-1.1-1-1.6-.7M153.7,52.9c-.5.3-.6,1.1-.3,1.8.4.7,1.1,1,1.6.7.5-.3.6-1.1.2-1.8-.4-.7-1.1-1-1.6-.7M153.7,57.4c-.5.3-.6,1.1-.3,1.8.4.7,1.1,1,1.6.7.5-.3.6-1.1.2-1.8-.4-.7-1.1-1-1.6-.7M153.7,88.9c-.5.3-.6,1.1-.3,1.8.4.7,1.1,1,1.6.7.5-.3.6-1.1.2-1.8-.4-.7-1.1-1-1.6-.7M153.7,66.4c-.5.3-.6,1.1-.3,1.8.4.7,1.1,1,1.6.7.5-.3.6-1.1.2-1.8-.4-.7-1.1-1-1.6-.7M153.7,79.9c-.5.3-.6,1.1-.3,1.8.4.7,1.1,1,1.6.7.5-.3.6-1.1.2-1.8-.4-.7-1.1-1-1.6-.7M153.7,120.3c-.5.3-.6,1.1-.3,1.8.4.7,1.1,1,1.6.7.5-.3.6-1.1.2-1.8-.4-.7-1.1-1-1.6-.7M153.7,115.8c-.5.3-.6,1.1-.3,1.8.4.7,1.1,1,1.6.7.5-.3.6-1.1.2-1.8-.4-.7-1.1-1-1.6-.7M153.7,124.8c-.5.3-.6,1.1-.3,1.8.4.7,1.1,1,1.6.7.5-.3.6-1.1.2-1.8-.4-.7-1.1-1-1.6-.7M153.7,93.4c-.5.3-.6,1.1-.3,1.8.4.7,1.1,1,1.6.7.5-.3.6-1.1.2-1.8-.4-.7-1.1-1-1.6-.7M153.7,129.3c-.5.3-.6,1.1-.3,1.8.4.7,1.1,1,1.6.7.5-.3.6-1.1.2-1.8-.4-.7-1.1-1-1.6-.7M153.7,102.3c-.5.3-.6,1.1-.3,1.8.4.7,1.1,1,1.6.7.5-.3.6-1.1.2-1.8-.4-.7-1.1-1-1.6-.7M153.7,97.9c-.5.3-.6,1.1-.3,1.8.4.7,1.1,1,1.6.7.5-.3.6-1.1.2-1.8-.4-.7-1.1-1-1.6-.7M153.7,111.3c-.5.3-.6,1.1-.3,1.8.4.7,1.1,1,1.6.7.5-.3.6-1.1.2-1.8-.4-.7-1.1-1-1.6-.7M153.7,106.8c-.5.3-.6,1.1-.3,1.8.4.7,1.1,1,1.6.7.5-.3.6-1.1.2-1.8-.4-.7-1.1-1-1.6-.7M153.7,223.7c-.5.3-.6,1.1-.3,1.8.4.7,1.1,1,1.6.7.5-.3.6-1.1.2-1.8-.4-.7-1.1-1-1.6-.7"/>
      <path class="cls-4" d="M157.9,161.1c-.5.3-.6,1.1-.3,1.8.4.7,1.1,1,1.7.7.5-.3.6-1.1.2-1.8s-1.1-1-1.6-.7M157.9,179.1c-.5.3-.6,1.1-.3,1.8.4.7,1.1,1,1.7.7.5-.3.6-1.1.2-1.8-.4-.7-1.1-1-1.6-.7M157.9,138.7c-.5.3-.6,1.1-.3,1.8.4.7,1.1,1,1.7.7.5-.3.6-1.1.2-1.8-.4-.7-1.1-1-1.6-.7M157.9,174.6c-.5.3-.6,1.1-.3,1.8.4.7,1.1,1,1.7.7.5-.3.6-1.1.2-1.8-.4-.7-1.1-1-1.6-.7M157.9,170.1c-.5.3-.6,1.1-.3,1.8.4.7,1.1,1,1.7.7.5-.3.6-1.1.2-1.8-.4-.7-1.1-1-1.6-.7M157.9,156.6c-.5.3-.6,1.1-.3,1.8.4.7,1.1,1,1.7.7.5-.3.6-1.1.2-1.8-.4-.7-1.1-1-1.6-.7M157.9,143.1c-.5.3-.6,1.1-.3,1.8.4.7,1.1,1,1.7.7.5-.3.6-1.1.2-1.8-.4-.7-1.1-1-1.6-.7M157.9,183.6c-.5.3-.6,1.1-.3,1.8.4.7,1.1,1,1.7.7.5-.3.6-1.1.2-1.8-.4-.7-1.1-1-1.6-.7M157.9,152.1c-.5.3-.6,1.1-.3,1.8.4.7,1.1,1,1.7.7.5-.3.6-1.1.2-1.8s-1.1-1-1.6-.7M157.9,147.6c-.5.3-.6,1.1-.3,1.8.4.7,1.1,1,1.7.7.5-.3.6-1.1.2-1.8-.4-.7-1.1-1-1.6-.7M157.9,165.6c-.5.3-.6,1.1-.3,1.8.4.7,1.1,1,1.7.7.5-.3.6-1.1.2-1.8-.4-.7-1.1-1-1.6-.7M157.9,219.6c-.5.3-.6,1.1-.3,1.8.4.7,1.1,1,1.7.7.5-.3.6-1.1.2-1.8-.4-.7-1.1-1-1.6-.7M157.9,215.1c-.5.3-.6,1.1-.3,1.8.4.7,1.1,1,1.7.7.5-.3.6-1.1.2-1.8-.4-.7-1.1-1-1.6-.7M157.9,210.6c-.5.3-.6,1.1-.3,1.8.4.7,1.1,1,1.7.7.5-.3.6-1.1.2-1.8-.4-.7-1.1-1-1.6-.7M159.3,46.7c.5-.3.6-1.1.2-1.8-.4-.7-1.1-1-1.6-.7-.5.3-.6,1.1-.3,1.8.4.7,1.1,1,1.7.7M157.9,188.1c-.5.3-.6,1.1-.3,1.8.4.7,1.1,1,1.7.7.5-.3.6-1.1.2-1.8-.4-.7-1.1-1-1.6-.7M157.9,197.1c-.5.3-.6,1.1-.3,1.8.4.7,1.1,1,1.7.7.5-.3.6-1.1.2-1.8-.4-.7-1.1-1-1.6-.7M157.9,192.6c-.5.3-.6,1.1-.3,1.8.4.7,1.1,1,1.7.7.5-.3.6-1.1.2-1.8-.4-.7-1.1-1-1.6-.7M157.9,201.6c-.5.3-.6,1.1-.3,1.8.4.7,1.1,1,1.7.7.5-.3.6-1.1.2-1.8-.4-.7-1.1-1-1.6-.7M157.9,206.1c-.5.3-.6,1.1-.3,1.8.4.7,1.1,1,1.7.7.5-.3.6-1.1.2-1.8-.4-.7-1.1-1-1.6-.7M157.9,48.7c-.5.3-.6,1.1-.3,1.8.4.7,1.1,1,1.7.7.5-.3.6-1.1.2-1.8-.4-.7-1.1-1-1.6-.7M157.9,75.7c-.5.3-.6,1.1-.3,1.8.4.7,1.1,1,1.7.7.5-.3.6-1.1.2-1.8-.4-.7-1.1-1-1.6-.7M157.9,71.2c-.5.3-.6,1.1-.3,1.8.4.7,1.1,1,1.7.7.5-.3.6-1.1.2-1.8-.4-.7-1.1-1-1.6-.7M157.9,134.2c-.5.3-.6,1.1-.3,1.8.4.7,1.1,1,1.7.7.5-.3.6-1.1.2-1.8-.4-.7-1.1-1-1.6-.7M157.9,84.7c-.5.3-.6,1.1-.3,1.8.4.7,1.1,1,1.7.7.5-.3.6-1.1.2-1.8-.4-.7-1.1-1-1.6-.7M157.9,62.2c-.5.3-.6,1.1-.3,1.8.4.7,1.1,1,1.7.7.5-.3.6-1.1.2-1.8-.4-.7-1.1-1-1.6-.7M157.9,53.2c-.5.3-.6,1.1-.3,1.8.4.7,1.1,1,1.7.7.5-.3.6-1.1.2-1.8-.4-.7-1.1-1-1.6-.7M157.9,57.7c-.5.3-.6,1.1-.3,1.8.4.7,1.1,1,1.7.7.5-.3.6-1.1.2-1.8-.4-.7-1.1-1-1.6-.7M157.9,89.2c-.5.3-.6,1.1-.3,1.8.4.7,1.1,1,1.7.7.5-.3.6-1.1.2-1.8-.4-.7-1.1-1-1.6-.7M157.9,66.7c-.5.3-.6,1.1-.3,1.8.4.7,1.1,1,1.7.7.5-.3.6-1.1.2-1.8-.4-.7-1.1-1-1.6-.7M157.9,80.2c-.5.3-.6,1.1-.3,1.8.4.7,1.1,1,1.7.7.5-.3.6-1.1.2-1.8s-1.1-1-1.6-.7M157.9,120.7c-.5.3-.6,1.1-.3,1.8.4.7,1.1,1,1.7.7.5-.3.6-1.1.2-1.8-.4-.7-1.1-1-1.6-.7M157.9,116.2c-.5.3-.6,1.1-.3,1.8.4.7,1.1,1,1.7.7.5-.3.6-1.1.2-1.8-.4-.7-1.1-1-1.6-.7M157.9,125.2c-.5.3-.6,1.1-.3,1.8.4.7,1.1,1,1.7.7.5-.3.6-1.1.2-1.8-.4-.7-1.1-1-1.6-.7M157.9,93.7c-.5.3-.6,1.1-.3,1.8.4.7,1.1,1,1.7.7.5-.3.6-1.1.2-1.8-.4-.7-1.1-1-1.6-.7M157.9,129.7c-.5.3-.6,1.1-.3,1.8.4.7,1.1,1,1.7.7.5-.3.6-1.1.2-1.8s-1.1-1-1.6-.7M157.9,102.7c-.5.3-.6,1.1-.3,1.8.4.7,1.1,1,1.7.7.5-.3.6-1.1.2-1.8-.4-.7-1.1-1-1.6-.7M157.9,98.2c-.5.3-.6,1.1-.3,1.8.4.7,1.1,1,1.7.7.5-.3.6-1.1.2-1.8-.4-.7-1.1-1-1.6-.7M157.9,111.7c-.5.3-.6,1.1-.3,1.8.4.7,1.1,1,1.7.7.5-.3.6-1.1.2-1.8-.4-.7-1.1-1-1.6-.7M157.9,107.2c-.5.3-.6,1.1-.3,1.8.4.7,1.1,1,1.7.7.5-.3.6-1.1.2-1.8-.4-.7-1.1-1-1.6-.7M157.9,224.1c-.5.3-.6,1.1-.3,1.8.4.7,1.1,1,1.7.7.5-.3.6-1.1.2-1.8-.4-.7-1.1-1-1.6-.7"/>
      <path class="cls-4" d="M162.1,161.5c-.5.3-.6,1.1-.3,1.8.4.7,1.1,1,1.6.7.5-.3.6-1.1.2-1.8-.4-.7-1.1-1-1.6-.7M162.1,179.4c-.5.3-.6,1.1-.3,1.8.4.7,1.1,1,1.6.7.5-.3.6-1.1.2-1.8-.4-.7-1.1-1-1.6-.7M162.1,139c-.5.3-.6,1.1-.3,1.8.4.7,1.1,1,1.6.7.5-.3.6-1.1.2-1.8-.4-.7-1.1-1-1.6-.7M162.1,175c-.5.3-.6,1.1-.3,1.8.4.7,1.1,1,1.6.7.5-.3.6-1.1.2-1.8-.4-.7-1.1-1-1.6-.7M162.1,170.5c-.5.3-.6,1.1-.3,1.8.4.7,1.1,1,1.6.7.5-.3.6-1.1.2-1.8-.4-.7-1.1-1-1.6-.7M162.1,157c-.5.3-.6,1.1-.3,1.8.4.7,1.1,1,1.6.7.5-.3.6-1.1.2-1.8-.4-.7-1.1-1-1.6-.7M162.1,143.5c-.5.3-.6,1.1-.3,1.8.4.7,1.1,1,1.6.7.5-.3.6-1.1.2-1.8-.4-.7-1.1-1-1.6-.7M162.1,183.9c-.5.3-.6,1.1-.3,1.8.4.7,1.1,1,1.6.7.5-.3.6-1.1.2-1.8-.4-.7-1.1-1-1.6-.7M162.1,152.5c-.5.3-.6,1.1-.3,1.8.4.7,1.1,1,1.6.7.5-.3.6-1.1.2-1.8-.4-.7-1.1-1-1.6-.7M162.1,148c-.5.3-.6,1.1-.3,1.8.4.7,1.1,1,1.6.7.5-.3.6-1.1.2-1.8-.4-.7-1.1-1-1.6-.7M162.1,166c-.5.3-.6,1.1-.3,1.8.4.7,1.1,1,1.6.7.5-.3.6-1.1.2-1.8-.4-.7-1.1-1-1.6-.7M162.1,219.9c-.5.3-.6,1.1-.3,1.8.4.7,1.1,1,1.6.7.5-.3.6-1.1.2-1.8-.4-.7-1.1-1-1.6-.7M162.1,215.4c-.5.3-.6,1.1-.3,1.8.4.7,1.1,1,1.6.7.5-.3.6-1.1.2-1.8-.4-.7-1.1-1-1.6-.7M162.1,210.9c-.5.3-.6,1.1-.3,1.8.4.7,1.1,1,1.6.7.5-.3.6-1.1.2-1.8-.4-.7-1.1-1-1.6-.7M163.5,47c.5-.3.6-1.1.2-1.8-.4-.7-1.1-1-1.6-.7-.5.3-.6,1.1-.3,1.8.4.7,1.1,1,1.6.7M162.1,188.4c-.5.3-.6,1.1-.3,1.8.4.7,1.1,1,1.6.7.5-.3.6-1.1.2-1.8-.4-.7-1.1-1-1.6-.7M162.1,197.4c-.5.3-.6,1.1-.3,1.8.4.7,1.1,1,1.6.7.5-.3.6-1.1.2-1.8-.4-.7-1.1-1-1.6-.7M162.1,192.9c-.5.3-.6,1.1-.3,1.8.4.7,1.1,1,1.6.7.5-.3.6-1.1.2-1.8-.4-.7-1.1-1-1.6-.7M162.1,201.9c-.5.3-.6,1.1-.3,1.8.4.7,1.1,1,1.6.7.5-.3.6-1.1.2-1.8-.4-.7-1.1-1-1.6-.7M162.1,206.4c-.5.3-.6,1.1-.3,1.8.4.7,1.1,1,1.6.7.5-.3.6-1.1.2-1.8-.4-.7-1.1-1-1.6-.7M162.1,49.1c-.5.3-.6,1.1-.3,1.8.4.7,1.1,1,1.6.7.5-.3.6-1.1.2-1.8-.4-.7-1.1-1-1.6-.7M162.1,76.1c-.5.3-.6,1.1-.3,1.8.4.7,1.1,1,1.6.7.5-.3.6-1.1.2-1.8-.4-.7-1.1-1-1.6-.7M162.1,71.6c-.5.3-.6,1.1-.3,1.8.4.7,1.1,1,1.6.7.5-.3.6-1.1.2-1.8-.4-.7-1.1-1-1.6-.7M162.1,134.5c-.5.3-.6,1.1-.3,1.8.4.7,1.1,1,1.6.7.5-.3.6-1.1.2-1.8-.4-.7-1.1-1-1.6-.7M162.1,85c-.5.3-.6,1.1-.3,1.8.4.7,1.1,1,1.6.7.5-.3.6-1.1.2-1.8-.4-.7-1.1-1-1.6-.7M162.1,62.6c-.5.3-.6,1.1-.3,1.8.4.7,1.1,1,1.6.7.5-.3.6-1.1.2-1.8-.4-.7-1.1-1-1.6-.7M162.1,53.6c-.5.3-.6,1.1-.3,1.8.4.7,1.1,1,1.6.7.5-.3.6-1.1.2-1.8-.4-.7-1.1-1-1.6-.7M162.1,58.1c-.5.3-.6,1.1-.3,1.8.4.7,1.1,1,1.6.7.5-.3.6-1.1.2-1.8-.4-.7-1.1-1-1.6-.7M162.1,89.5c-.5.3-.6,1.1-.3,1.8.4.7,1.1,1,1.6.7.5-.3.6-1.1.2-1.8-.4-.7-1.1-1-1.6-.7M162.1,67.1c-.5.3-.6,1.1-.3,1.8.4.7,1.1,1,1.6.7.5-.3.6-1.1.2-1.8-.4-.7-1.1-1-1.6-.7M162.1,80.5c-.5.3-.6,1.1-.3,1.8.4.7,1.1,1,1.6.7.5-.3.6-1.1.2-1.8-.4-.7-1.1-1-1.6-.7M162.1,121c-.5.3-.6,1.1-.3,1.8.4.7,1.1,1,1.6.7.5-.3.6-1.1.2-1.8-.4-.7-1.1-1-1.6-.7M162.1,116.5c-.5.3-.6,1.1-.3,1.8.4.7,1.1,1,1.6.7.5-.3.6-1.1.2-1.8-.4-.7-1.1-1-1.6-.7M162.1,125.5c-.5.3-.6,1.1-.3,1.8.4.7,1.1,1,1.6.7.5-.3.6-1.1.2-1.8-.4-.7-1.1-1-1.6-.7M162.1,94c-.5.3-.6,1.1-.3,1.8.4.7,1.1,1,1.6.7.5-.3.6-1.1.2-1.8-.4-.7-1.1-1-1.6-.7M162.1,130c-.5.3-.6,1.1-.3,1.8.4.7,1.1,1,1.6.7.5-.3.6-1.1.2-1.8-.4-.7-1.1-1-1.6-.7M162.1,103c-.5.3-.6,1.1-.3,1.8.4.7,1.1,1,1.6.7.5-.3.6-1.1.2-1.8-.4-.7-1.1-1-1.6-.7M162.1,98.5c-.5.3-.6,1.1-.3,1.8.4.7,1.1,1,1.6.7.5-.3.6-1.1.2-1.8-.4-.7-1.1-1-1.6-.7M162.1,112c-.5.3-.6,1.1-.3,1.8.4.7,1.1,1,1.6.7.5-.3.6-1.1.2-1.8-.4-.7-1.1-1-1.6-.7M162.1,107.5c-.5.3-.6,1.1-.3,1.8.4.7,1.1,1,1.6.7.5-.3.6-1.1.2-1.8-.4-.7-1.1-1-1.6-.7M162.1,224.4c-.5.3-.6,1.1-.3,1.8.4.7,1.1,1,1.6.7.5-.3.6-1.1.2-1.8-.4-.7-1.1-1-1.6-.7"/>
      <path class="cls-4" d="M166.3,161.8c-.5.3-.6,1.1-.3,1.8.4.7,1.1,1,1.7.7.5-.3.6-1.1.2-1.8-.4-.7-1.1-1-1.6-.7M166.3,179.8c-.5.3-.6,1.1-.3,1.8.4.7,1.1,1,1.7.7.5-.3.6-1.1.2-1.8-.4-.7-1.1-1-1.6-.7M166.3,139.3c-.5.3-.6,1.1-.3,1.8.4.7,1.1,1,1.7.7.5-.3.6-1.1.2-1.8-.4-.7-1.1-1-1.6-.7M166.3,175.3c-.5.3-.6,1.1-.3,1.8.4.7,1.1,1,1.7.7.5-.3.6-1.1.2-1.8-.4-.7-1.1-1-1.6-.7M166.3,170.8c-.5.3-.6,1.1-.3,1.8.4.7,1.1,1,1.7.7.5-.3.6-1.1.2-1.8-.4-.7-1.1-1-1.6-.7M166.3,157.3c-.5.3-.6,1.1-.3,1.8.4.7,1.1,1,1.7.7.5-.3.6-1.1.2-1.8-.4-.7-1.1-1-1.6-.7M166.3,143.8c-.5.3-.6,1.1-.3,1.8.4.7,1.1,1,1.7.7.5-.3.6-1.1.2-1.8-.4-.7-1.1-1-1.6-.7M166.3,184.3c-.5.3-.6,1.1-.3,1.8.4.7,1.1,1,1.7.7.5-.3.6-1.1.2-1.8-.4-.7-1.1-1-1.6-.7M166.3,152.8c-.5.3-.6,1.1-.3,1.8.4.7,1.1,1,1.7.7.5-.3.6-1.1.2-1.8-.4-.7-1.1-1-1.6-.7M166.3,148.3c-.5.3-.6,1.1-.3,1.8.4.7,1.1,1,1.7.7.5-.3.6-1.1.2-1.8-.4-.7-1.1-1-1.6-.7M166.3,166.3c-.5.3-.6,1.1-.3,1.8.4.7,1.1,1,1.7.7.5-.3.6-1.1.2-1.8-.4-.7-1.1-1-1.6-.7M166.3,220.3c-.5.3-.6,1.1-.3,1.8.4.7,1.1,1,1.7.7.5-.3.6-1.1.2-1.8-.4-.7-1.1-1-1.6-.7M166.3,215.7c-.5.3-.6,1.1-.3,1.8s1.1,1,1.7.7c.5-.3.6-1.1.2-1.8-.4-.7-1.1-1-1.6-.7M166.3,211.3c-.5.3-.6,1.1-.3,1.8.4.7,1.1,1,1.7.7.5-.3.6-1.1.2-1.8-.4-.7-1.1-1-1.6-.7M167.7,47.4c.5-.3.6-1.1.2-1.8-.4-.7-1.1-1-1.6-.7-.5.3-.6,1.1-.3,1.8.4.7,1.1,1,1.7.7M166.3,188.8c-.5.3-.6,1.1-.3,1.8.4.7,1.1,1,1.7.7.5-.3.6-1.1.2-1.8-.4-.7-1.1-1-1.6-.7M166.3,197.8c-.5.3-.6,1.1-.3,1.8.4.7,1.1,1,1.7.7.5-.3.6-1.1.2-1.8-.4-.7-1.1-1-1.6-.7M166.3,193.3c-.5.3-.6,1.1-.3,1.8.4.7,1.1,1,1.7.7.5-.3.6-1.1.2-1.8-.4-.7-1.1-1-1.6-.7M166.3,202.3c-.5.3-.6,1.1-.3,1.8.4.7,1.1,1,1.7.7.5-.3.6-1.1.2-1.8-.4-.7-1.1-1-1.6-.7M166.3,206.8c-.5.3-.6,1.1-.3,1.8.4.7,1.1,1,1.7.7.5-.3.6-1.1.2-1.8-.4-.7-1.1-1-1.6-.7M166.3,49.4c-.5.3-.6,1.1-.3,1.8.4.7,1.1,1,1.7.7.5-.3.6-1.1.2-1.8-.4-.7-1.1-1-1.6-.7M166.3,76.4c-.5.3-.6,1.1-.3,1.8.4.7,1.1,1,1.7.7.5-.3.6-1.1.2-1.8-.4-.7-1.1-1-1.6-.7M166.3,71.9c-.5.3-.6,1.1-.3,1.8.4.7,1.1,1,1.7.7.5-.3.6-1.1.2-1.8-.4-.7-1.1-1-1.6-.7M166.3,134.8c-.5.3-.6,1.1-.3,1.8.4.7,1.1,1,1.7.7.5-.3.6-1.1.2-1.8-.4-.7-1.1-1-1.6-.7M166.3,85.4c-.5.3-.6,1.1-.3,1.8.4.7,1.1,1,1.7.7.5-.3.6-1.1.2-1.8-.4-.7-1.1-1-1.6-.7M166.3,62.9c-.5.3-.6,1.1-.3,1.8.4.7,1.1,1,1.7.7.5-.3.6-1.1.2-1.8-.4-.7-1.1-1-1.6-.7M166.3,53.9c-.5.3-.6,1.1-.3,1.8s1.1,1,1.7.7c.5-.3.6-1.1.2-1.8-.4-.7-1.1-1-1.6-.7M166.3,58.4c-.5.3-.6,1.1-.3,1.8.4.7,1.1,1,1.7.7.5-.3.6-1.1.2-1.8-.4-.7-1.1-1-1.6-.7M166.3,89.9c-.5.3-.6,1.1-.3,1.8s1.1,1,1.7.7c.5-.3.6-1.1.2-1.8-.4-.7-1.1-1-1.6-.7M166.3,67.4c-.5.3-.6,1.1-.3,1.8.4.7,1.1,1,1.7.7.5-.3.6-1.1.2-1.8-.4-.7-1.1-1-1.6-.7M166.3,80.9c-.5.3-.6,1.1-.3,1.8.4.7,1.1,1,1.7.7.5-.3.6-1.1.2-1.8-.4-.7-1.1-1-1.6-.7M166.3,121.4c-.5.3-.6,1.1-.3,1.8.4.7,1.1,1,1.7.7.5-.3.6-1.1.2-1.8-.4-.7-1.1-1-1.6-.7M166.3,116.9c-.5.3-.6,1.1-.3,1.8.4.7,1.1,1,1.7.7.5-.3.6-1.1.2-1.8-.4-.7-1.1-1-1.6-.7M166.3,125.8c-.5.3-.6,1.1-.3,1.8.4.7,1.1,1,1.7.7.5-.3.6-1.1.2-1.8-.4-.7-1.1-1-1.6-.7M166.3,94.4c-.5.3-.6,1.1-.3,1.8.4.7,1.1,1,1.7.7.5-.3.6-1.1.2-1.8-.4-.7-1.1-1-1.6-.7M166.3,130.3c-.5.3-.6,1.1-.3,1.8.4.7,1.1,1,1.7.7.5-.3.6-1.1.2-1.8-.4-.7-1.1-1-1.6-.7M166.3,103.4c-.5.3-.6,1.1-.3,1.8.4.7,1.1,1,1.7.7.5-.3.6-1.1.2-1.8-.4-.7-1.1-1-1.6-.7M166.3,98.9c-.5.3-.6,1.1-.3,1.8.4.7,1.1,1,1.7.7.5-.3.6-1.1.2-1.8-.4-.7-1.1-1-1.6-.7M166.3,112.4c-.5.3-.6,1.1-.3,1.8.4.7,1.1,1,1.7.7.5-.3.6-1.1.2-1.8-.4-.7-1.1-1-1.6-.7M166.3,107.9c-.5.3-.6,1.1-.3,1.8.4.7,1.1,1,1.7.7.5-.3.6-1.1.2-1.8-.4-.7-1.1-1-1.6-.7M166.3,224.7c-.5.3-.6,1.1-.3,1.8s1.1,1,1.7.7c.5-.3.6-1.1.2-1.8-.4-.7-1.1-1-1.6-.7"/>
      <path class="cls-4" d="M170.5,162.1c-.5.3-.6,1.1-.3,1.8.4.7,1.1,1,1.6.7.5-.3.6-1.1.3-1.8-.4-.7-1.1-1-1.6-.7M170.5,180.1c-.5.3-.6,1.1-.3,1.8.4.7,1.1,1,1.6.7.5-.3.6-1.1.3-1.8-.4-.7-1.1-1-1.6-.7M170.5,139.7c-.5.3-.6,1.1-.3,1.8.4.7,1.1,1,1.6.7.5-.3.6-1.1.3-1.8-.4-.7-1.1-1-1.6-.7M170.5,175.6c-.5.3-.6,1.1-.3,1.8.4.7,1.1,1,1.6.7.5-.3.6-1.1.3-1.8-.4-.7-1.1-1-1.6-.7M170.5,171.1c-.5.3-.6,1.1-.3,1.8.4.7,1.1,1,1.6.7.5-.3.6-1.1.3-1.8-.4-.7-1.1-1-1.6-.7M170.5,157.6c-.5.3-.6,1.1-.3,1.8.4.7,1.1,1,1.6.7.5-.3.6-1.1.3-1.8-.4-.7-1.1-1-1.6-.7M170.5,144.2c-.5.3-.6,1.1-.3,1.8.4.7,1.1,1,1.6.7.5-.3.6-1.1.3-1.8-.4-.7-1.1-1-1.6-.7M170.5,184.6c-.5.3-.6,1.1-.3,1.8.4.7,1.1,1,1.6.7.5-.3.6-1.1.3-1.8-.4-.7-1.1-1-1.6-.7M170.5,153.2c-.5.3-.6,1.1-.3,1.8.4.7,1.1,1,1.6.7.5-.3.6-1.1.3-1.8-.4-.7-1.1-1-1.6-.7M170.5,148.7c-.5.3-.6,1.1-.3,1.8.4.7,1.1,1,1.6.7.5-.3.6-1.1.3-1.8-.4-.7-1.1-1-1.6-.7M170.5,166.6c-.5.3-.6,1.1-.3,1.8.4.7,1.1,1,1.6.7.5-.3.6-1.1.3-1.8-.4-.7-1.1-1-1.6-.7M170.5,220.6c-.5.3-.6,1.1-.3,1.8.4.7,1.1,1,1.6.7.5-.3.6-1.1.3-1.8-.4-.7-1.1-1-1.6-.7M170.5,216.1c-.5.3-.6,1.1-.3,1.8.4.7,1.1,1,1.6.7.5-.3.6-1.1.3-1.8-.4-.7-1.1-1-1.6-.7M170.5,211.6c-.5.3-.6,1.1-.3,1.8.4.7,1.1,1,1.6.7.5-.3.6-1.1.3-1.8-.4-.7-1.1-1-1.6-.7M171.9,47.7c.5-.3.6-1.1.3-1.8-.4-.7-1.1-1-1.6-.7-.5.3-.6,1.1-.3,1.8.4.7,1.1,1,1.6.7M170.5,189.1c-.5.3-.6,1.1-.3,1.8.4.7,1.1,1,1.6.7.5-.3.6-1.1.3-1.8-.4-.7-1.1-1-1.6-.7M170.5,198.1c-.5.3-.6,1.1-.3,1.8.4.7,1.1,1,1.6.7.5-.3.6-1.1.3-1.8-.4-.7-1.1-1-1.6-.7M170.5,193.6c-.5.3-.6,1.1-.3,1.8.4.7,1.1,1,1.6.7.5-.3.6-1.1.3-1.8-.4-.7-1.1-1-1.6-.7M170.5,202.6c-.5.3-.6,1.1-.3,1.8.4.7,1.1,1,1.6.7.5-.3.6-1.1.3-1.8-.4-.7-1.1-1-1.6-.7M170.5,207.1c-.5.3-.6,1.1-.3,1.8.4.7,1.1,1,1.6.7.5-.3.6-1.1.3-1.8-.4-.7-1.1-1-1.6-.7M170.5,49.8c-.5.3-.6,1.1-.3,1.8.4.7,1.1,1,1.6.7.5-.3.6-1.1.3-1.8-.4-.7-1.1-1-1.6-.7M170.5,76.7c-.5.3-.6,1.1-.3,1.8.4.7,1.1,1,1.6.7.5-.3.6-1.1.3-1.8-.4-.7-1.1-1-1.6-.7M170.5,72.2c-.5.3-.6,1.1-.3,1.8.4.7,1.1,1,1.6.7.5-.3.6-1.1.3-1.8-.4-.7-1.1-1-1.6-.7M170.5,135.2c-.5.3-.6,1.1-.3,1.8.4.7,1.1,1,1.6.7.5-.3.6-1.1.3-1.8-.4-.7-1.1-1-1.6-.7M170.5,85.7c-.5.3-.6,1.1-.3,1.8.4.7,1.1,1,1.6.7.5-.3.6-1.1.3-1.8-.4-.7-1.1-1-1.6-.7M170.5,63.2c-.5.3-.6,1.1-.3,1.8.4.7,1.1,1,1.6.7.5-.3.6-1.1.3-1.8-.4-.7-1.1-1-1.6-.7M170.5,54.3c-.5.3-.6,1.1-.3,1.8.4.7,1.1,1,1.6.7.5-.3.6-1.1.3-1.8-.4-.7-1.1-1-1.6-.7M170.5,58.8c-.5.3-.6,1.1-.3,1.8.4.7,1.1,1,1.6.7.5-.3.6-1.1.3-1.8-.4-.7-1.1-1-1.6-.7M170.5,90.2c-.5.3-.6,1.1-.3,1.8.4.7,1.1,1,1.6.7.5-.3.6-1.1.3-1.8-.4-.7-1.1-1-1.6-.7M170.5,67.7c-.5.3-.6,1.1-.3,1.8.4.7,1.1,1,1.6.7.5-.3.6-1.1.3-1.8-.4-.7-1.1-1-1.6-.7M170.5,81.2c-.5.3-.6,1.1-.3,1.8.4.7,1.1,1,1.6.7.5-.3.6-1.1.3-1.8-.4-.7-1.1-1-1.6-.7M170.5,121.7c-.5.3-.6,1.1-.3,1.8.4.7,1.1,1,1.6.7.5-.3.6-1.1.3-1.8-.4-.7-1.1-1-1.6-.7M170.5,117.2c-.5.3-.6,1.1-.3,1.8.4.7,1.1,1,1.6.7.5-.3.6-1.1.3-1.8-.4-.7-1.1-1-1.6-.7M170.5,126.2c-.5.3-.6,1.1-.3,1.8.4.7,1.1,1,1.6.7.5-.3.6-1.1.3-1.8-.4-.7-1.1-1-1.6-.7M170.5,94.7c-.5.3-.6,1.1-.3,1.8.4.7,1.1,1,1.6.7.5-.3.6-1.1.3-1.8-.4-.7-1.1-1-1.6-.7M170.5,130.7c-.5.3-.6,1.1-.3,1.8.4.7,1.1,1,1.6.7.5-.3.6-1.1.3-1.8-.4-.7-1.1-1-1.6-.7M170.5,103.7c-.5.3-.6,1.1-.3,1.8.4.7,1.1,1,1.6.7.5-.3.6-1.1.3-1.8-.4-.7-1.1-1-1.6-.7M170.5,99.2c-.5.3-.6,1.1-.3,1.8.4.7,1.1,1,1.6.7.5-.3.6-1.1.3-1.8-.4-.7-1.1-1-1.6-.7M170.5,112.7c-.5.3-.6,1.1-.3,1.8.4.7,1.1,1,1.6.7.5-.3.6-1.1.3-1.8-.4-.7-1.1-1-1.6-.7M170.5,108.2c-.5.3-.6,1.1-.3,1.8.4.7,1.1,1,1.6.7.5-.3.6-1.1.3-1.8-.4-.7-1.1-1-1.6-.7M170.5,225.1c-.5.3-.6,1.1-.3,1.8.4.7,1.1,1,1.6.7.5-.3.6-1.1.3-1.8-.4-.7-1.1-1-1.6-.7"/>
      <path class="cls-4" d="M174.7,162.5c-.5.3-.6,1.1-.3,1.8.4.7,1.1,1,1.6.7.5-.3.6-1.1.3-1.8-.4-.7-1.1-1-1.6-.7M174.7,180.5c-.5.3-.6,1.1-.3,1.8.4.7,1.1,1,1.6.7.5-.3.6-1.1.3-1.8-.4-.7-1.1-1-1.6-.7M174.7,140c-.5.3-.6,1.1-.3,1.8.4.7,1.1,1,1.6.7.5-.3.6-1.1.3-1.8-.4-.7-1.1-1-1.6-.7M174.7,176c-.5.3-.6,1.1-.3,1.8.4.7,1.1,1,1.6.7.5-.3.6-1.1.3-1.8-.4-.7-1.1-1-1.6-.7M174.7,171.5c-.5.3-.6,1.1-.3,1.8.4.7,1.1,1,1.6.7.5-.3.6-1.1.3-1.8-.4-.7-1.1-1-1.6-.7M174.7,158c-.5.3-.6,1.1-.3,1.8.4.7,1.1,1,1.6.7.5-.3.6-1.1.3-1.8-.4-.7-1.1-1-1.6-.7M174.7,144.5c-.5.3-.6,1.1-.3,1.8.4.7,1.1,1,1.6.7.5-.3.6-1.1.3-1.8-.4-.7-1.1-1-1.6-.7M174.7,185c-.5.3-.6,1.1-.3,1.8.4.7,1.1,1,1.6.7.5-.3.6-1.1.3-1.8-.4-.7-1.1-1-1.6-.7M174.7,153.5c-.5.3-.6,1.1-.3,1.8.4.7,1.1,1,1.6.7.5-.3.6-1.1.3-1.8-.4-.7-1.1-1-1.6-.7M174.7,149c-.5.3-.6,1.1-.3,1.8.4.7,1.1,1,1.6.7.5-.3.6-1.1.3-1.8-.4-.7-1.1-1-1.6-.7M174.7,167c-.5.3-.6,1.1-.3,1.8.4.7,1.1,1,1.6.7.5-.3.6-1.1.3-1.8-.4-.7-1.1-1-1.6-.7M174.7,220.9c-.5.3-.6,1.1-.3,1.8.4.7,1.1,1,1.6.7.5-.3.6-1.1.3-1.8-.4-.7-1.1-1-1.6-.7M174.7,216.4c-.5.3-.6,1.1-.3,1.8.4.7,1.1,1,1.6.7.5-.3.6-1.1.3-1.8-.4-.7-1.1-1-1.6-.7M174.7,211.9c-.5.3-.6,1.1-.3,1.8.4.7,1.1,1,1.6.7.5-.3.6-1.1.3-1.8-.4-.7-1.1-1-1.6-.7M176.1,48.1c.5-.3.6-1.1.3-1.8-.4-.7-1.1-1-1.6-.7-.5.3-.6,1.1-.3,1.8.4.7,1.1,1,1.6.7M174.7,189.5c-.5.3-.6,1.1-.3,1.8.4.7,1.1,1,1.6.7.5-.3.6-1.1.3-1.8-.4-.7-1.1-1-1.6-.7M174.7,198.5c-.5.3-.6,1.1-.3,1.8.4.7,1.1,1,1.6.7.5-.3.6-1.1.3-1.8-.4-.7-1.1-1-1.6-.7M174.7,194c-.5.3-.6,1.1-.3,1.8.4.7,1.1,1,1.6.7.5-.3.6-1.1.3-1.8-.4-.7-1.1-1-1.6-.7M174.7,202.9c-.5.3-.6,1.1-.3,1.8.4.7,1.1,1,1.6.7.5-.3.6-1.1.3-1.8-.4-.7-1.1-1-1.6-.7M174.7,207.4c-.5.3-.6,1.1-.3,1.8.4.7,1.1,1,1.6.7.5-.3.6-1.1.3-1.8-.4-.7-1.1-1-1.6-.7M174.7,50.1c-.5.3-.6,1.1-.3,1.8.4.7,1.1,1,1.6.7.5-.3.6-1.1.3-1.8-.4-.7-1.1-1-1.6-.7M174.7,77.1c-.5.3-.6,1.1-.3,1.8.4.7,1.1,1,1.6.7.5-.3.6-1.1.3-1.8-.4-.7-1.1-1-1.6-.7M174.7,72.6c-.5.3-.6,1.1-.3,1.8.4.7,1.1,1,1.6.7.5-.3.6-1.1.3-1.8-.4-.7-1.1-1-1.6-.7M174.7,135.5c-.5.3-.6,1.1-.3,1.8.4.7,1.1,1,1.6.7.5-.3.6-1.1.3-1.8-.4-.7-1.1-1-1.6-.7M174.7,86.1c-.5.3-.6,1.1-.3,1.8.4.7,1.1,1,1.6.7.5-.3.6-1.1.3-1.8-.4-.7-1.1-1-1.6-.7M174.7,63.6c-.5.3-.6,1.1-.3,1.8.4.7,1.1,1,1.6.7.5-.3.6-1.1.3-1.8-.4-.7-1.1-1-1.6-.7M174.7,54.6c-.5.3-.6,1.1-.3,1.8.4.7,1.1,1,1.6.7.5-.3.6-1.1.3-1.8-.4-.7-1.1-1-1.6-.7M174.7,59.1c-.5.3-.6,1.1-.3,1.8.4.7,1.1,1,1.6.7.5-.3.6-1.1.3-1.8-.4-.7-1.1-1-1.6-.7M174.7,90.6c-.5.3-.6,1.1-.3,1.8.4.7,1.1,1,1.6.7.5-.3.6-1.1.3-1.8-.4-.7-1.1-1-1.6-.7M174.7,68.1c-.5.3-.6,1.1-.3,1.8.4.7,1.1,1,1.6.7.5-.3.6-1.1.3-1.8-.4-.7-1.1-1-1.6-.7M174.7,81.6c-.5.3-.6,1.1-.3,1.8.4.7,1.1,1,1.6.7.5-.3.6-1.1.3-1.8-.4-.7-1.1-1-1.6-.7M174.7,122c-.5.3-.6,1.1-.3,1.8.4.7,1.1,1,1.6.7.5-.3.6-1.1.3-1.8-.4-.7-1.1-1-1.6-.7M174.7,117.5c-.5.3-.6,1.1-.3,1.8.4.7,1.1,1,1.6.7.5-.3.6-1.1.3-1.8-.4-.7-1.1-1-1.6-.7M174.7,126.5c-.5.3-.6,1.1-.3,1.8.4.7,1.1,1,1.6.7.5-.3.6-1.1.3-1.8-.4-.7-1.1-1-1.6-.7M174.7,95.1c-.5.3-.6,1.1-.3,1.8.4.7,1.1,1,1.6.7.5-.3.6-1.1.3-1.8-.4-.7-1.1-1-1.6-.7M174.7,131c-.5.3-.6,1.1-.3,1.8.4.7,1.1,1,1.6.7.5-.3.6-1.1.3-1.8-.4-.7-1.1-1-1.6-.7M174.7,104c-.5.3-.6,1.1-.3,1.8.4.7,1.1,1,1.6.7.5-.3.6-1.1.3-1.8-.4-.7-1.1-1-1.6-.7M174.7,99.6c-.5.3-.6,1.1-.3,1.8.4.7,1.1,1,1.6.7.5-.3.6-1.1.3-1.8-.4-.7-1.1-1-1.6-.7M174.7,113c-.5.3-.6,1.1-.3,1.8.4.7,1.1,1,1.6.7.5-.3.6-1.1.3-1.8-.4-.7-1.1-1-1.6-.7M174.7,108.5c-.5.3-.6,1.1-.3,1.8.4.7,1.1,1,1.6.7.5-.3.6-1.1.3-1.8-.4-.7-1.1-1-1.6-.7M174.7,225.4c-.5.3-.6,1.1-.3,1.8.4.7,1.1,1,1.6.7.5-.3.6-1.1.3-1.8-.4-.7-1.1-1-1.6-.7"/>
      <path class="cls-4" d="M178.9,162.8c-.5.3-.6,1.1-.3,1.8.4.7,1.1,1,1.6.7.5-.3.6-1.1.3-1.8-.4-.7-1.1-1-1.6-.7M178.9,180.8c-.5.3-.6,1.1-.3,1.8.4.7,1.1,1,1.6.7.5-.3.6-1.1.3-1.8-.4-.7-1.1-1-1.6-.7M178.9,140.3c-.5.3-.6,1.1-.3,1.8.4.7,1.1,1,1.6.7.5-.3.6-1.1.3-1.8-.4-.7-1.1-1-1.6-.7M178.9,176.3c-.5.3-.6,1.1-.3,1.8.4.7,1.1,1,1.6.7.5-.3.6-1.1.3-1.8-.4-.7-1.1-1-1.6-.7M178.9,171.8c-.5.3-.6,1.1-.3,1.8.4.7,1.1,1,1.6.7.5-.3.6-1.1.3-1.8-.4-.7-1.1-1-1.6-.7M178.9,158.3c-.5.3-.6,1.1-.3,1.8.4.7,1.1,1,1.6.7.5-.3.6-1.1.3-1.8-.4-.7-1.1-1-1.6-.7M178.9,144.8c-.5.3-.6,1.1-.3,1.8.4.7,1.1,1,1.6.7.5-.3.6-1.1.3-1.8-.4-.7-1.1-1-1.6-.7M178.9,185.3c-.5.3-.6,1.1-.3,1.8.4.7,1.1,1,1.6.7s.6-1.1.3-1.8c-.4-.7-1.1-1-1.6-.7M178.9,153.8c-.5.3-.6,1.1-.3,1.8.4.7,1.1,1,1.6.7.5-.3.6-1.1.3-1.8-.4-.7-1.1-1-1.6-.7M178.9,149.3c-.5.3-.6,1.1-.3,1.8.4.7,1.1,1,1.6.7.5-.3.6-1.1.3-1.8-.4-.7-1.1-1-1.6-.7M178.9,167.3c-.5.3-.6,1.1-.3,1.8.4.7,1.1,1,1.6.7s.6-1.1.3-1.8c-.4-.7-1.1-1-1.6-.7M178.9,221.3c-.5.3-.6,1.1-.3,1.8.4.7,1.1,1,1.6.7.5-.3.6-1.1.3-1.8-.4-.7-1.1-1-1.6-.7M178.9,216.8c-.5.3-.6,1.1-.3,1.8.4.7,1.1,1,1.6.7.5-.3.6-1.1.3-1.8-.4-.7-1.1-1-1.6-.7M178.9,212.3c-.5.3-.6,1.1-.3,1.8.4.7,1.1,1,1.6.7.5-.3.6-1.1.3-1.8-.4-.7-1.1-1-1.6-.7M180.3,48.4c.5-.3.6-1.1.3-1.8-.4-.7-1.1-1-1.6-.7-.5.3-.6,1.1-.3,1.8.4.7,1.1,1,1.6.7M178.9,189.8c-.5.3-.6,1.1-.3,1.8.4.7,1.1,1,1.6.7.5-.3.6-1.1.3-1.8-.4-.7-1.1-1-1.6-.7M178.9,198.8c-.5.3-.6,1.1-.3,1.8.4.7,1.1,1,1.6.7.5-.3.6-1.1.3-1.8-.4-.7-1.1-1-1.6-.7M178.9,194.3c-.5.3-.6,1.1-.3,1.8.4.7,1.1,1,1.6.7.5-.3.6-1.1.3-1.8-.4-.7-1.1-1-1.6-.7M178.9,203.3c-.5.3-.6,1.1-.3,1.8.4.7,1.1,1,1.6.7.5-.3.6-1.1.3-1.8-.4-.7-1.1-1-1.6-.7M178.9,207.8c-.5.3-.6,1.1-.3,1.8.4.7,1.1,1,1.6.7.5-.3.6-1.1.3-1.8-.4-.7-1.1-1-1.6-.7M178.9,50.4c-.5.3-.6,1.1-.3,1.8.4.7,1.1,1,1.6.7.5-.3.6-1.1.3-1.8-.4-.7-1.1-1-1.6-.7M178.9,77.4c-.5.3-.6,1.1-.3,1.8.4.7,1.1,1,1.6.7.5-.3.6-1.1.3-1.8-.4-.7-1.1-1-1.6-.7M178.9,72.9c-.5.3-.6,1.1-.3,1.8.4.7,1.1,1,1.6.7.5-.3.6-1.1.3-1.8-.4-.7-1.1-1-1.6-.7M178.9,135.8c-.5.3-.6,1.1-.3,1.8.4.7,1.1,1,1.6.7.5-.3.6-1.1.3-1.8-.4-.7-1.1-1-1.6-.7M178.9,86.4c-.5.3-.6,1.1-.3,1.8.4.7,1.1,1,1.6.7.5-.3.6-1.1.3-1.8-.4-.7-1.1-1-1.6-.7M178.9,63.9c-.5.3-.6,1.1-.3,1.8.4.7,1.1,1,1.6.7.5-.3.6-1.1.3-1.8-.4-.7-1.1-1-1.6-.7M178.9,54.9c-.5.3-.6,1.1-.3,1.8.4.7,1.1,1,1.6.7.5-.3.6-1.1.3-1.8-.4-.7-1.1-1-1.6-.7M178.9,59.4c-.5.3-.6,1.1-.3,1.8.4.7,1.1,1,1.6.7.5-.3.6-1.1.3-1.8-.4-.7-1.1-1-1.6-.7M178.9,90.9c-.5.3-.6,1.1-.3,1.8.4.7,1.1,1,1.6.7.5-.3.6-1.1.3-1.8-.4-.7-1.1-1-1.6-.7M178.9,68.4c-.5.3-.6,1.1-.3,1.8.4.7,1.1,1,1.6.7.5-.3.6-1.1.3-1.8-.4-.7-1.1-1-1.6-.7M178.9,81.9c-.5.3-.6,1.1-.3,1.8.4.7,1.1,1,1.6.7s.6-1.1.3-1.8c-.4-.7-1.1-1-1.6-.7M178.9,122.4c-.5.3-.6,1.1-.3,1.8.4.7,1.1,1,1.6.7s.6-1.1.3-1.8c-.4-.7-1.1-1-1.6-.7M178.9,117.9c-.5.3-.6,1.1-.3,1.8.4.7,1.1,1,1.6.7.5-.3.6-1.1.3-1.8-.4-.7-1.1-1-1.6-.7M178.9,126.9c-.5.3-.6,1.1-.3,1.8.4.7,1.1,1,1.6.7.5-.3.6-1.1.3-1.8-.4-.7-1.1-1-1.6-.7M178.9,95.4c-.5.3-.6,1.1-.3,1.8.4.7,1.1,1,1.6.7.5-.3.6-1.1.3-1.8-.4-.7-1.1-1-1.6-.7M178.9,131.4c-.5.3-.6,1.1-.3,1.8.4.7,1.1,1,1.6.7.5-.3.6-1.1.3-1.8-.4-.7-1.1-1-1.6-.7M178.9,104.4c-.5.3-.6,1.1-.3,1.8.4.7,1.1,1,1.6.7.5-.3.6-1.1.3-1.8-.4-.7-1.1-1-1.6-.7M178.9,99.9c-.5.3-.6,1.1-.3,1.8.4.7,1.1,1,1.6.7s.6-1.1.3-1.8c-.4-.7-1.1-1-1.6-.7M178.9,113.4c-.5.3-.6,1.1-.3,1.8.4.7,1.1,1,1.6.7.5-.3.6-1.1.3-1.8-.4-.7-1.1-1-1.6-.7M178.9,108.9c-.5.3-.6,1.1-.3,1.8.4.7,1.1,1,1.6.7.5-.3.6-1.1.3-1.8-.4-.7-1.1-1-1.6-.7M178.9,225.8c-.5.3-.6,1.1-.3,1.8.4.7,1.1,1,1.6.7.5-.3.6-1.1.3-1.8-.4-.7-1.1-1-1.6-.7"/>
      <path class="cls-4" d="M183.1,163.2c-.5.3-.6,1.1-.3,1.8.4.7,1.1,1,1.6.7.5-.3.6-1.1.3-1.8-.4-.7-1.1-1-1.6-.7M183.1,181.1c-.5.3-.6,1.1-.3,1.8.4.7,1.1,1,1.6.7.5-.3.6-1.1.3-1.8-.4-.7-1.1-1-1.6-.7M183.1,140.7c-.5.3-.6,1.1-.3,1.8.4.7,1.1,1,1.6.7.5-.3.6-1.1.3-1.8-.4-.7-1.1-1-1.6-.7M183.1,176.7c-.5.3-.6,1.1-.3,1.8.4.7,1.1,1,1.6.7.5-.3.6-1.1.3-1.8-.4-.7-1.1-1-1.6-.7M183.1,172.2c-.5.3-.6,1.1-.3,1.8.4.7,1.1,1,1.6.7.5-.3.6-1.1.3-1.8-.4-.7-1.1-1-1.6-.7M183.1,158.7c-.5.3-.6,1.1-.3,1.8.4.7,1.1,1,1.6.7.5-.3.6-1.1.3-1.8-.4-.7-1.1-1-1.6-.7M183.1,145.2c-.5.3-.6,1.1-.3,1.8.4.7,1.1,1,1.6.7.5-.3.6-1.1.3-1.8-.4-.7-1.1-1-1.6-.7M183.1,185.6c-.5.3-.6,1.1-.3,1.8.4.7,1.1,1,1.6.7.5-.3.6-1.1.3-1.8-.4-.7-1.1-1-1.6-.7M183.1,154.2c-.5.3-.6,1.1-.3,1.8.4.7,1.1,1,1.6.7.5-.3.6-1.1.3-1.8-.4-.7-1.1-1-1.6-.7M183.1,149.7c-.5.3-.6,1.1-.3,1.8.4.7,1.1,1,1.6.7.5-.3.6-1.1.3-1.8-.4-.7-1.1-1-1.6-.7M183.1,167.7c-.5.3-.6,1.1-.3,1.8.4.7,1.1,1,1.6.7.5-.3.6-1.1.3-1.8-.4-.7-1.1-1-1.6-.7M183.1,221.6c-.5.3-.6,1.1-.3,1.8.4.7,1.1,1,1.6.7.5-.3.6-1.1.3-1.8-.4-.7-1.1-1-1.6-.7M183.1,217.1c-.5.3-.6,1.1-.3,1.8.4.7,1.1,1,1.6.7.5-.3.6-1.1.3-1.8-.4-.7-1.1-1-1.6-.7M183.1,212.6c-.5.3-.6,1.1-.3,1.8.4.7,1.1,1,1.6.7.5-.3.6-1.1.3-1.8-.4-.7-1.1-1-1.6-.7M184.5,48.8c.5-.3.6-1.1.3-1.8-.4-.7-1.1-1-1.6-.7-.5.3-.6,1.1-.3,1.8.4.7,1.1,1,1.6.7M183.1,190.1c-.5.3-.6,1.1-.3,1.8.4.7,1.1,1,1.6.7.5-.3.6-1.1.3-1.8-.4-.7-1.1-1-1.6-.7M183.1,199.1c-.5.3-.6,1.1-.3,1.8.4.7,1.1,1,1.6.7.5-.3.6-1.1.3-1.8-.4-.7-1.1-1-1.6-.7M183.1,194.6c-.5.3-.6,1.1-.3,1.8.4.7,1.1,1,1.6.7.5-.3.6-1.1.3-1.8-.4-.7-1.1-1-1.6-.7M183.1,203.6c-.5.3-.6,1.1-.3,1.8.4.7,1.1,1,1.6.7.5-.3.6-1.1.3-1.8-.4-.7-1.1-1-1.6-.7M183.1,208.1c-.5.3-.6,1.1-.3,1.8.4.7,1.1,1,1.6.7.5-.3.6-1.1.3-1.8-.4-.7-1.1-1-1.6-.7M183.1,50.8c-.5.3-.6,1.1-.3,1.8.4.7,1.1,1,1.6.7.5-.3.6-1.1.3-1.8-.4-.7-1.1-1-1.6-.7M183.1,77.8c-.5.3-.6,1.1-.3,1.8.4.7,1.1,1,1.6.7.5-.3.6-1.1.3-1.8-.4-.7-1.1-1-1.6-.7M183.1,73.3c-.5.3-.6,1.1-.3,1.8.4.7,1.1,1,1.6.7.5-.3.6-1.1.3-1.8-.4-.7-1.1-1-1.6-.7M183.1,136.2c-.5.3-.6,1.1-.3,1.8.4.7,1.1,1,1.6.7.5-.3.6-1.1.3-1.8-.4-.7-1.1-1-1.6-.7M183.1,86.8c-.5.3-.6,1.1-.3,1.8.4.7,1.1,1,1.6.7.5-.3.6-1.1.3-1.8-.4-.7-1.1-1-1.6-.7M183.1,64.3c-.5.3-.6,1.1-.3,1.8.4.7,1.1,1,1.6.7.5-.3.6-1.1.3-1.8-.4-.7-1.1-1-1.6-.7M183.1,55.3c-.5.3-.6,1.1-.3,1.8.4.7,1.1,1,1.6.7.5-.3.6-1.1.3-1.8-.4-.7-1.1-1-1.6-.7M183.1,59.8c-.5.3-.6,1.1-.3,1.7.4.7,1.1,1,1.6.7.5-.3.6-1.1.3-1.8-.4-.7-1.1-1-1.6-.7M183.1,91.2c-.5.3-.6,1.1-.3,1.8.4.7,1.1,1,1.6.7.5-.3.6-1.1.3-1.8-.4-.7-1.1-1-1.6-.7M183.1,68.8c-.5.3-.6,1.1-.3,1.8.4.7,1.1,1,1.6.7.5-.3.6-1.1.3-1.8-.4-.7-1.1-1-1.6-.7M183.1,82.3c-.5.3-.6,1.1-.3,1.8.4.7,1.1,1,1.6.7.5-.3.6-1.1.3-1.8-.4-.7-1.1-1-1.6-.7M183.1,122.7c-.5.3-.6,1.1-.3,1.8.4.7,1.1,1,1.6.7.5-.3.6-1.1.3-1.8-.4-.7-1.1-1-1.6-.7M183.1,118.2c-.5.3-.6,1.1-.3,1.8.4.7,1.1,1,1.6.7.5-.3.6-1.1.3-1.8-.4-.7-1.1-1-1.6-.7M183.1,127.2c-.5.3-.6,1.1-.3,1.8.4.7,1.1,1,1.6.7.5-.3.6-1.1.3-1.8-.4-.7-1.1-1-1.6-.7M183.1,95.7c-.5.3-.6,1.1-.3,1.8.4.7,1.1,1,1.6.7.5-.3.6-1.1.3-1.8-.4-.7-1.1-1-1.6-.7M183.1,131.7c-.5.3-.6,1.1-.3,1.8.4.7,1.1,1,1.6.7.5-.3.6-1.1.3-1.8-.4-.7-1.1-1-1.6-.7M183.1,104.7c-.5.3-.6,1.1-.3,1.8.4.7,1.1,1,1.6.7.5-.3.6-1.1.3-1.8-.4-.7-1.1-1-1.6-.7M183.1,100.2c-.5.3-.6,1.1-.3,1.8.4.7,1.1,1,1.6.7.5-.3.6-1.1.3-1.8-.4-.7-1.1-1-1.6-.7M183.1,113.7c-.5.3-.6,1.1-.3,1.8.4.7,1.1,1,1.6.7.5-.3.6-1.1.3-1.8-.4-.7-1.1-1-1.6-.7M183.1,109.2c-.5.3-.6,1.1-.3,1.8.4.7,1.1,1,1.6.7.5-.3.6-1.1.3-1.8-.4-.7-1.1-1-1.6-.7M183.1,226.1c-.5.3-.6,1.1-.3,1.8.4.7,1.1,1,1.6.7.5-.3.6-1.1.3-1.8-.4-.7-1.1-1-1.6-.7"/>
      <path class="cls-4" d="M187.3,163.5c-.5.3-.6,1.1-.3,1.8.4.7,1.1,1,1.6.7.5-.3.6-1.1.3-1.8-.4-.7-1.1-1-1.6-.7M187.3,181.5c-.5.3-.6,1.1-.3,1.8.4.7,1.1,1,1.6.7.5-.3.6-1.1.3-1.8-.4-.7-1.1-1-1.6-.7M187.3,141c-.5.3-.6,1.1-.3,1.8.4.7,1.1,1,1.6.7.5-.3.6-1.1.3-1.8-.4-.7-1.1-1-1.6-.7M187.3,177c-.5.3-.6,1.1-.3,1.8.4.7,1.1,1,1.6.7.5-.3.6-1.1.3-1.8-.4-.7-1.1-1-1.6-.7M187.3,172.5c-.5.3-.6,1.1-.3,1.8.4.7,1.1,1,1.6.7.5-.3.6-1.1.3-1.8-.4-.7-1.1-1-1.6-.7M187.3,159c-.5.3-.6,1.1-.3,1.8.4.7,1.1,1,1.6.7.5-.3.6-1.1.3-1.8-.4-.7-1.1-1-1.6-.7M187.3,145.5c-.5.3-.6,1.1-.3,1.8.4.7,1.1,1,1.6.7.5-.3.6-1.1.3-1.8-.4-.7-1.1-1-1.6-.7M187.3,186c-.5.3-.6,1.1-.3,1.8.4.7,1.1,1,1.6.7.5-.3.6-1.1.3-1.8-.4-.7-1.1-1-1.6-.7M187.3,154.5c-.5.3-.6,1.1-.3,1.8.4.7,1.1,1,1.6.7.5-.3.6-1.1.3-1.8-.4-.7-1.1-1-1.6-.7M187.3,150c-.5.3-.6,1.1-.3,1.8.4.7,1.1,1,1.6.7.5-.3.6-1.1.3-1.8-.4-.7-1.1-1-1.6-.7M187.3,168c-.5.3-.6,1.1-.3,1.8.4.7,1.1,1,1.6.7.5-.3.6-1.1.3-1.8-.4-.7-1.1-1-1.6-.7M187.3,221.9c-.5.3-.6,1.1-.3,1.8.4.7,1.1,1,1.6.7.5-.3.6-1.1.3-1.8-.4-.7-1.1-1-1.6-.7M187.3,217.4c-.5.3-.6,1.1-.3,1.8.4.7,1.1,1,1.6.7.5-.3.6-1.1.3-1.8-.4-.7-1.1-1-1.6-.7M187.3,212.9c-.5.3-.6,1.1-.3,1.8.4.7,1.1,1,1.6.7.5-.3.6-1.1.3-1.8-.4-.7-1.1-1-1.6-.7M188.7,49.1c.5-.3.6-1.1.3-1.8-.4-.7-1.1-1-1.6-.7-.5.3-.6,1.1-.3,1.8.4.7,1.1,1,1.6.7M187.3,190.5c-.5.3-.6,1.1-.3,1.8.4.7,1.1,1,1.6.7.5-.3.6-1.1.3-1.8-.4-.7-1.1-1-1.6-.7M187.3,199.5c-.5.3-.6,1.1-.3,1.8.4.7,1.1,1,1.6.7.5-.3.6-1.1.3-1.8-.4-.7-1.1-1-1.6-.7M187.3,195c-.5.3-.6,1.1-.3,1.8.4.7,1.1,1,1.6.7.5-.3.6-1.1.3-1.8-.4-.7-1.1-1-1.6-.7M187.3,204c-.5.3-.6,1.1-.3,1.8.4.7,1.1,1,1.6.7.5-.3.6-1.1.3-1.8-.4-.7-1.1-1-1.6-.7M187.3,208.4c-.5.3-.6,1.1-.3,1.8.4.7,1.1,1,1.6.7.5-.3.6-1.1.3-1.8-.4-.7-1.1-1-1.6-.7M187.3,51.1c-.5.3-.6,1.1-.3,1.8.4.7,1.1,1,1.6.7.5-.3.6-1.1.3-1.8-.4-.7-1.1-1-1.6-.7M187.3,78.1c-.5.3-.6,1.1-.3,1.8.4.7,1.1,1,1.6.7.5-.3.6-1.1.3-1.8-.4-.7-1.1-1-1.6-.7M187.3,73.6c-.5.3-.6,1.1-.3,1.8.4.7,1.1,1,1.6.7.5-.3.6-1.1.3-1.8-.4-.7-1.1-1-1.6-.7M187.3,136.5c-.5.3-.6,1.1-.3,1.8.4.7,1.1,1,1.6.7.5-.3.6-1.1.3-1.8-.4-.7-1.1-1-1.6-.7M187.3,87.1c-.5.3-.6,1.1-.3,1.8.4.7,1.1,1,1.6.7.5-.3.6-1.1.3-1.8-.4-.7-1.1-1-1.6-.7M187.3,64.6c-.5.3-.6,1.1-.3,1.8.4.7,1.1,1,1.6.7.5-.3.6-1.1.3-1.8-.4-.7-1.1-1-1.6-.7M187.3,55.6c-.5.3-.6,1.1-.3,1.8.4.7,1.1,1,1.6.7.5-.3.6-1.1.3-1.8-.4-.7-1.1-1-1.6-.7M187.3,60.1c-.5.3-.6,1.1-.3,1.8.4.7,1.1,1,1.6.7.5-.3.6-1.1.3-1.8-.4-.7-1.1-1-1.6-.7M187.3,91.6c-.5.3-.6,1.1-.3,1.8.4.7,1.1,1,1.6.7.5-.3.6-1.1.3-1.8-.4-.7-1.1-1-1.6-.7M187.3,69.1c-.5.3-.6,1.1-.3,1.8.4.7,1.1,1,1.6.7.5-.3.6-1.1.3-1.8-.4-.7-1.1-1-1.6-.7M187.3,82.6c-.5.3-.6,1.1-.3,1.8.4.7,1.1,1,1.6.7.5-.3.6-1.1.3-1.8-.4-.7-1.1-1-1.6-.7M187.3,123c-.5.3-.6,1.1-.3,1.8.4.7,1.1,1,1.6.7.5-.3.6-1.1.3-1.8-.4-.7-1.1-1-1.6-.7M187.3,118.5c-.5.3-.6,1.1-.3,1.8.4.7,1.1,1,1.6.7.5-.3.6-1.1.3-1.8-.4-.7-1.1-1-1.6-.7M187.3,127.5c-.5.3-.6,1.1-.3,1.8.4.7,1.1,1,1.6.7.5-.3.6-1.1.3-1.8-.4-.7-1.1-1-1.6-.7M187.3,96.1c-.5.3-.6,1.1-.3,1.8.4.7,1.1,1,1.6.7.5-.3.6-1.1.3-1.8-.4-.7-1.1-1-1.6-.7M187.3,132c-.5.3-.6,1.1-.3,1.8.4.7,1.1,1,1.6.7.5-.3.6-1.1.3-1.8-.4-.7-1.1-1-1.6-.7M187.3,105.1c-.5.3-.6,1.1-.3,1.8.4.7,1.1,1,1.6.7.5-.3.6-1.1.3-1.8-.4-.7-1.1-1-1.6-.7M187.3,100.6c-.5.3-.6,1.1-.3,1.8.4.7,1.1,1,1.6.7.5-.3.6-1.1.3-1.8-.4-.7-1.1-1-1.6-.7M187.3,114c-.5.3-.6,1.1-.3,1.8.4.7,1.1,1,1.6.7.5-.3.6-1.1.3-1.8-.4-.7-1.1-1-1.6-.7M187.3,109.6c-.5.3-.6,1.1-.3,1.8.4.7,1.1,1,1.6.7.5-.3.6-1.1.3-1.8-.4-.7-1.1-1-1.6-.7M187.3,226.4c-.5.3-.6,1.1-.3,1.8.4.7,1.1,1,1.6.7.5-.3.6-1.1.3-1.8-.4-.7-1.1-1-1.6-.7"/>
      <path class="cls-4" d="M191.5,163.8c-.5.3-.6,1.1-.3,1.8.4.7,1.1,1,1.7.7.5-.3.6-1.1.2-1.8-.4-.7-1.1-1-1.6-.7M191.5,181.8c-.5.3-.6,1.1-.3,1.8.4.7,1.1,1,1.7.7.5-.3.6-1.1.2-1.8-.4-.7-1.1-1-1.6-.7M191.5,141.4c-.5.3-.6,1.1-.3,1.8.4.7,1.1,1,1.7.7.5-.3.6-1.1.2-1.8-.4-.7-1.1-1-1.6-.7M191.5,177.3c-.5.3-.6,1.1-.3,1.8.4.7,1.1,1,1.7.7.5-.3.6-1.1.2-1.8-.4-.7-1.1-1-1.6-.7M191.5,172.8c-.5.3-.6,1.1-.3,1.8.4.7,1.1,1,1.7.7.5-.3.6-1.1.2-1.8-.4-.7-1.1-1-1.6-.7M191.5,159.3c-.5.3-.6,1.1-.3,1.8.4.7,1.1,1,1.7.7.5-.3.6-1.1.2-1.8-.4-.7-1.1-1-1.6-.7M191.5,145.9c-.5.3-.6,1.1-.3,1.8.4.7,1.1,1,1.7.7.5-.3.6-1.1.2-1.8-.4-.7-1.1-1-1.6-.7M191.5,186.3c-.5.3-.6,1.1-.3,1.8.4.7,1.1,1,1.7.7.5-.3.6-1.1.2-1.8-.4-.7-1.1-1-1.6-.7M191.5,154.9c-.5.3-.6,1.1-.3,1.8.4.7,1.1,1,1.7.7.5-.3.6-1.1.2-1.8-.4-.7-1.1-1-1.6-.7M191.5,150.4c-.5.3-.6,1.1-.3,1.8.4.7,1.1,1,1.7.7.5-.3.6-1.1.2-1.8-.4-.7-1.1-1-1.6-.7M191.5,168.3c-.5.3-.6,1.1-.3,1.8.4.7,1.1,1,1.7.7.5-.3.6-1.1.2-1.8-.4-.7-1.1-1-1.6-.7M191.5,222.3c-.5.3-.6,1.1-.3,1.8.4.7,1.1,1,1.7.7.5-.3.6-1.1.2-1.8-.4-.7-1.1-1-1.6-.7M191.5,217.8c-.5.3-.6,1.1-.3,1.8.4.7,1.1,1,1.7.7.5-.3.6-1.1.2-1.8-.4-.7-1.1-1-1.6-.7M191.5,213.3c-.5.3-.6,1.1-.3,1.8.4.7,1.1,1,1.7.7.5-.3.6-1.1.2-1.8-.4-.7-1.1-1-1.6-.7M192.9,49.4c.5-.3.6-1.1.2-1.8-.4-.7-1.1-1-1.6-.7-.5.3-.6,1.1-.3,1.8.4.7,1.1,1,1.7.7M191.5,190.8c-.5.3-.6,1.1-.3,1.8.4.7,1.1,1,1.7.7.5-.3.6-1.1.2-1.8-.4-.7-1.1-1-1.6-.7M191.5,199.8c-.5.3-.6,1.1-.3,1.8.4.7,1.1,1,1.7.7.5-.3.6-1.1.2-1.8-.4-.7-1.1-1-1.6-.7M191.5,195.3c-.5.3-.6,1.1-.3,1.8.4.7,1.1,1,1.7.7.5-.3.6-1.1.2-1.8-.4-.7-1.1-1-1.6-.7M191.5,204.3c-.5.3-.6,1.1-.3,1.8.4.7,1.1,1,1.7.7.5-.3.6-1.1.2-1.8-.4-.7-1.1-1-1.6-.7M191.5,208.8c-.5.3-.6,1.1-.3,1.8.4.7,1.1,1,1.7.7.5-.3.6-1.1.2-1.8-.4-.7-1.1-1-1.6-.7M191.5,51.5c-.5.3-.6,1.1-.3,1.8.4.7,1.1,1,1.7.7.5-.3.6-1.1.2-1.8-.4-.7-1.1-1-1.6-.7M191.5,78.4c-.5.3-.6,1.1-.3,1.8.4.7,1.1,1,1.7.7.5-.3.6-1.1.2-1.8-.4-.7-1.1-1-1.6-.7M191.5,73.9c-.5.3-.6,1.1-.3,1.8.4.7,1.1,1,1.7.7.5-.3.6-1.1.2-1.8-.4-.7-1.1-1-1.6-.7M191.5,136.9c-.5.3-.6,1.1-.3,1.8.4.7,1.1,1,1.7.7.5-.3.6-1.1.2-1.8-.4-.7-1.1-1-1.6-.7M191.5,87.4c-.5.3-.6,1.1-.3,1.8.4.7,1.1,1,1.7.7.5-.3.6-1.1.2-1.8-.4-.7-1.1-1-1.6-.7M191.5,65c-.5.3-.6,1.1-.3,1.8.4.7,1.1,1,1.7.7.5-.3.6-1.1.2-1.8-.4-.7-1.1-1-1.6-.7M191.5,56c-.5.3-.6,1.1-.3,1.8.4.7,1.1,1,1.7.7.5-.3.6-1.1.2-1.8-.4-.7-1.1-1-1.6-.7M191.5,60.5c-.5.3-.6,1.1-.3,1.8.4.7,1.1,1,1.7.7.5-.3.6-1.1.2-1.8-.4-.7-1.1-1-1.6-.7M191.5,91.9c-.5.3-.6,1.1-.3,1.8.4.7,1.1,1,1.7.7.5-.3.6-1.1.2-1.8-.4-.7-1.1-1-1.6-.7M191.5,69.4c-.5.3-.6,1.1-.3,1.8.4.7,1.1,1,1.7.7.5-.3.6-1.1.2-1.8-.4-.7-1.1-1-1.6-.7M191.5,82.9c-.5.3-.6,1.1-.3,1.8.4.7,1.1,1,1.7.7.5-.3.6-1.1.2-1.8-.4-.7-1.1-1-1.6-.7M191.5,123.4c-.5.3-.6,1.1-.3,1.8.4.7,1.1,1,1.7.7.5-.3.6-1.1.2-1.8-.4-.7-1.1-1-1.6-.7M191.5,118.9c-.5.3-.6,1.1-.3,1.8.4.7,1.1,1,1.7.7.5-.3.6-1.1.2-1.8-.4-.7-1.1-1-1.6-.7M191.5,127.9c-.5.3-.6,1.1-.3,1.8.4.7,1.1,1,1.7.7.5-.3.6-1.1.2-1.8-.4-.7-1.1-1-1.6-.7M191.5,96.4c-.5.3-.6,1.1-.3,1.8.4.7,1.1,1,1.7.7.5-.3.6-1.1.2-1.8-.4-.7-1.1-1-1.6-.7M191.5,132.4c-.5.3-.6,1.1-.3,1.8.4.7,1.1,1,1.7.7.5-.3.6-1.1.2-1.8-.4-.7-1.1-1-1.6-.7M191.5,105.4c-.5.3-.6,1.1-.3,1.8.4.7,1.1,1,1.7.7.5-.3.6-1.1.2-1.8-.4-.7-1.1-1-1.6-.7M191.5,100.9c-.5.3-.6,1.1-.3,1.8.4.7,1.1,1,1.7.7.5-.3.6-1.1.2-1.8-.4-.7-1.1-1-1.6-.7M191.5,114.4c-.5.3-.6,1.1-.3,1.8.4.7,1.1,1,1.7.7.5-.3.6-1.1.2-1.8-.4-.7-1.1-1-1.6-.7M191.5,109.9c-.5.3-.6,1.1-.3,1.8.4.7,1.1,1,1.7.7.5-.3.6-1.1.2-1.8-.4-.7-1.1-1-1.6-.7M191.5,226.8c-.5.3-.6,1.1-.3,1.8.4.7,1.1,1,1.7.7.5-.3.6-1.1.2-1.8-.4-.7-1.1-1-1.6-.7"/>
      <path class="cls-4" d="M195.7,164.2c-.5.3-.6,1.1-.3,1.8.4.7,1.1,1,1.7.7.5-.3.6-1.1.2-1.8-.4-.7-1.1-1-1.6-.7M195.7,182.2c-.5.3-.6,1.1-.3,1.8.4.7,1.1,1,1.7.7.5-.3.6-1.1.2-1.8-.4-.7-1.1-1-1.6-.7M195.7,141.7c-.5.3-.6,1.1-.3,1.8.4.7,1.1,1,1.7.7.5-.3.6-1.1.2-1.8-.4-.7-1.1-1-1.6-.7M195.7,177.7c-.5.3-.6,1.1-.3,1.8.4.7,1.1,1,1.7.7.5-.3.6-1.1.2-1.8-.4-.7-1.1-1-1.6-.7M195.7,173.2c-.5.3-.6,1.1-.3,1.8.4.7,1.1,1,1.7.7.5-.3.6-1.1.2-1.8-.4-.7-1.1-1-1.6-.7M195.7,159.7c-.5.3-.6,1.1-.3,1.8.4.7,1.1,1,1.7.7.5-.3.6-1.1.2-1.8-.4-.7-1.1-1-1.6-.7M195.7,146.2c-.5.3-.6,1.1-.3,1.8.4.7,1.1,1,1.7.7.5-.3.6-1.1.2-1.8-.4-.7-1.1-1-1.6-.7M195.7,186.7c-.5.3-.6,1.1-.3,1.8.4.7,1.1,1,1.7.7.5-.3.6-1.1.2-1.8-.4-.7-1.1-1-1.6-.7M195.7,155.2c-.5.3-.6,1.1-.3,1.8.4.7,1.1,1,1.7.7.5-.3.6-1.1.2-1.8-.4-.7-1.1-1-1.6-.7M195.7,150.7c-.5.3-.6,1.1-.3,1.8.4.7,1.1,1,1.7.7.5-.3.6-1.1.2-1.8-.4-.7-1.1-1-1.6-.7M195.7,168.7c-.5.3-.6,1.1-.3,1.8.4.7,1.1,1,1.7.7.5-.3.6-1.1.2-1.8-.4-.7-1.1-1-1.6-.7M195.7,222.6c-.5.3-.6,1.1-.3,1.8.4.7,1.1,1,1.7.7.5-.3.6-1.1.2-1.8-.4-.7-1.1-1-1.6-.7M195.7,218.1c-.5.3-.6,1.1-.3,1.8.4.7,1.1,1,1.7.7.5-.3.6-1.1.2-1.8-.4-.7-1.1-1-1.6-.7M195.7,213.6c-.5.3-.6,1.1-.3,1.8.4.7,1.1,1,1.7.7.5-.3.6-1.1.2-1.8-.4-.7-1.1-1-1.6-.7M197.1,49.8c.5-.3.6-1.1.2-1.8-.4-.7-1.1-1-1.6-.7-.5.3-.6,1.1-.3,1.8.4.7,1.1,1,1.7.7M195.7,191.2c-.5.3-.6,1.1-.3,1.8.4.7,1.1,1,1.7.7.5-.3.6-1.1.2-1.8-.4-.7-1.1-1-1.6-.7M195.7,200.2c-.5.3-.6,1.1-.3,1.8.4.7,1.1,1,1.7.7.5-.3.6-1.1.2-1.8-.4-.7-1.1-1-1.6-.7M195.7,195.6c-.5.3-.6,1.1-.3,1.8.4.7,1.1,1,1.7.7.5-.3.6-1.1.2-1.8-.4-.7-1.1-1-1.6-.7M195.7,204.6c-.5.3-.6,1.1-.3,1.8.4.7,1.1,1,1.7.7.5-.3.6-1.1.2-1.8-.4-.7-1.1-1-1.6-.7M195.7,209.1c-.5.3-.6,1.1-.3,1.8.4.7,1.1,1,1.7.7.5-.3.6-1.1.2-1.8-.4-.7-1.1-1-1.6-.7M195.7,51.8c-.5.3-.6,1.1-.3,1.8.4.7,1.1,1,1.7.7.5-.3.6-1.1.2-1.8-.4-.7-1.1-1-1.6-.7M195.7,78.8c-.5.3-.6,1.1-.3,1.8.4.7,1.1,1,1.7.7.5-.3.6-1.1.2-1.8-.4-.7-1.1-1-1.6-.7M195.7,74.3c-.5.3-.6,1.1-.3,1.8.4.7,1.1,1,1.7.7.5-.3.6-1.1.2-1.8-.4-.7-1.1-1-1.6-.7M195.7,137.2c-.5.3-.6,1.1-.3,1.8.4.7,1.1,1,1.7.7.5-.3.6-1.1.2-1.8-.4-.7-1.1-1-1.6-.7M195.7,87.8c-.5.3-.6,1.1-.3,1.8.4.7,1.1,1,1.7.7.5-.3.6-1.1.2-1.8-.4-.7-1.1-1-1.6-.7M195.7,65.3c-.5.3-.6,1.1-.3,1.8.4.7,1.1,1,1.7.7.5-.3.6-1.1.2-1.8-.4-.7-1.1-1-1.6-.7M195.7,56.3c-.5.3-.6,1.1-.3,1.8.4.7,1.1,1,1.7.7.5-.3.6-1.1.2-1.8-.4-.7-1.1-1-1.6-.7M195.7,60.8c-.5.3-.6,1.1-.3,1.7.4.7,1.1,1,1.7.7.5-.3.6-1.1.2-1.8-.4-.7-1.1-1-1.6-.7M195.7,92.3c-.5.3-.6,1.1-.3,1.8.4.7,1.1,1,1.7.7.5-.3.6-1.1.2-1.8-.4-.7-1.1-1-1.6-.7M195.7,69.8c-.5.3-.6,1.1-.3,1.8.4.7,1.1,1,1.7.7.5-.3.6-1.1.2-1.8-.4-.7-1.1-1-1.6-.7M195.7,83.3c-.5.3-.6,1.1-.3,1.8.4.7,1.1,1,1.7.7.5-.3.6-1.1.2-1.8-.4-.7-1.1-1-1.6-.7M195.7,123.7c-.5.3-.6,1.1-.3,1.8.4.7,1.1,1,1.7.7.5-.3.6-1.1.2-1.8-.4-.7-1.1-1-1.6-.7M195.7,119.2c-.5.3-.6,1.1-.3,1.8.4.7,1.1,1,1.7.7.5-.3.6-1.1.2-1.8-.4-.7-1.1-1-1.6-.7M195.7,128.2c-.5.3-.6,1.1-.3,1.8.4.7,1.1,1,1.7.7.5-.3.6-1.1.2-1.8-.4-.7-1.1-1-1.6-.7M195.7,96.8c-.5.3-.6,1.1-.3,1.8.4.7,1.1,1,1.7.7.5-.3.6-1.1.2-1.8-.4-.7-1.1-1-1.6-.7M195.7,132.7c-.5.3-.6,1.1-.3,1.8.4.7,1.1,1,1.7.7.5-.3.6-1.1.2-1.8-.4-.7-1.1-1-1.6-.7M195.7,105.8c-.5.3-.6,1.1-.3,1.8.4.7,1.1,1,1.7.7.5-.3.6-1.1.2-1.8-.4-.7-1.1-1-1.6-.7M195.7,101.3c-.5.3-.6,1.1-.3,1.8.4.7,1.1,1,1.7.7.5-.3.6-1.1.2-1.8-.4-.7-1.1-1-1.6-.7M195.7,114.7c-.5.3-.6,1.1-.3,1.8.4.7,1.1,1,1.7.7.5-.3.6-1.1.2-1.8-.4-.7-1.1-1-1.6-.7M195.7,110.2c-.5.3-.6,1.1-.3,1.8.4.7,1.1,1,1.7.7.5-.3.6-1.1.2-1.8-.4-.7-1.1-1-1.6-.7M195.7,227.1c-.5.3-.6,1.1-.3,1.8.4.7,1.1,1,1.7.7.5-.3.6-1.1.2-1.8-.4-.7-1.1-1-1.6-.7"/>
      <path class="cls-4" d="M199.8,164.5c-.5.3-.6,1.1-.3,1.8.4.7,1.1,1,1.6.7.5-.3.6-1.1.3-1.8-.4-.7-1.1-1-1.6-.7M199.8,182.5c-.5.3-.6,1.1-.3,1.8.4.7,1.1,1,1.6.7.5-.3.6-1.1.3-1.8-.4-.7-1.1-1-1.6-.7M199.8,142c-.5.3-.6,1.1-.3,1.8.4.7,1.1,1,1.6.7.5-.3.6-1.1.3-1.8-.4-.7-1.1-1-1.6-.7M199.8,178c-.5.3-.6,1.1-.3,1.8.4.7,1.1,1,1.6.7.5-.3.6-1.1.3-1.8-.4-.7-1.1-1-1.6-.7M199.8,173.5c-.5.3-.6,1.1-.3,1.8.4.7,1.1,1,1.6.7.5-.3.6-1.1.3-1.8-.4-.7-1.1-1-1.6-.7M199.8,160c-.5.3-.6,1.1-.3,1.8.4.7,1.1,1,1.6.7.5-.3.6-1.1.3-1.8-.4-.7-1.1-1-1.6-.7M199.8,146.5c-.5.3-.6,1.1-.3,1.8.4.7,1.1,1,1.6.7.5-.3.6-1.1.3-1.8-.4-.7-1.1-1-1.6-.7M199.8,187c-.5.3-.6,1.1-.3,1.8.4.7,1.1,1,1.6.7.5-.3.6-1.1.3-1.8-.4-.7-1.1-1-1.6-.7M199.8,155.5c-.5.3-.6,1.1-.3,1.8.4.7,1.1,1,1.6.7.5-.3.6-1.1.3-1.8-.4-.7-1.1-1-1.6-.7M199.8,151c-.5.3-.6,1.1-.3,1.8.4.7,1.1,1,1.6.7.5-.3.6-1.1.3-1.8-.4-.7-1.1-1-1.6-.7M199.8,169c-.5.3-.6,1.1-.3,1.8.4.7,1.1,1,1.6.7.5-.3.6-1.1.3-1.8-.4-.7-1.1-1-1.6-.7M199.8,223c-.5.3-.6,1.1-.3,1.8.4.7,1.1,1,1.6.7.5-.3.6-1.1.3-1.8-.4-.7-1.1-1-1.6-.7M199.8,218.5c-.5.3-.6,1.1-.3,1.8.4.7,1.1,1,1.6.7.5-.3.6-1.1.3-1.8-.4-.7-1.1-1-1.6-.7M199.8,214c-.5.3-.6,1.1-.3,1.8.4.7,1.1,1,1.6.7.5-.3.6-1.1.3-1.8-.4-.7-1.1-1-1.6-.7M201.2,50.1c.5-.3.6-1.1.3-1.8-.4-.7-1.1-1-1.6-.7-.5.3-.6,1.1-.3,1.8.4.7,1.1,1,1.6.7M199.8,191.5c-.5.3-.6,1.1-.3,1.8.4.7,1.1,1,1.6.7.5-.3.6-1.1.3-1.8-.4-.7-1.1-1-1.6-.7M199.8,200.5c-.5.3-.6,1.1-.3,1.8.4.7,1.1,1,1.6.7.5-.3.6-1.1.3-1.8-.4-.7-1.1-1-1.6-.7M199.8,196c-.5.3-.6,1.1-.3,1.8.4.7,1.1,1,1.6.7.5-.3.6-1.1.3-1.8-.4-.7-1.1-1-1.6-.7M199.8,205c-.5.3-.6,1.1-.3,1.8.4.7,1.1,1,1.6.7.5-.3.6-1.1.3-1.8-.4-.7-1.1-1-1.6-.7M199.8,209.5c-.5.3-.6,1.1-.3,1.8.4.7,1.1,1,1.6.7.5-.3.6-1.1.3-1.8-.4-.7-1.1-1-1.6-.7M199.8,52.1c-.5.3-.6,1.1-.3,1.8.4.7,1.1,1,1.6.7.5-.3.6-1.1.3-1.8-.4-.7-1.1-1-1.6-.7M199.8,79.1c-.5.3-.6,1.1-.3,1.8.4.7,1.1,1,1.6.7.5-.3.6-1.1.3-1.8-.4-.7-1.1-1-1.6-.7M199.8,74.6c-.5.3-.6,1.1-.3,1.8.4.7,1.1,1,1.6.7.5-.3.6-1.1.3-1.8-.4-.7-1.1-1-1.6-.7M199.8,137.5c-.5.3-.6,1.1-.3,1.8.4.7,1.1,1,1.6.7.5-.3.6-1.1.3-1.8-.4-.7-1.1-1-1.6-.7M199.8,88.1c-.5.3-.6,1.1-.3,1.8.4.7,1.1,1,1.6.7.5-.3.6-1.1.3-1.8-.4-.7-1.1-1-1.6-.7M199.8,65.6c-.5.3-.6,1.1-.3,1.8.4.7,1.1,1,1.6.7.5-.3.6-1.1.3-1.8-.4-.7-1.1-1-1.6-.7M199.8,56.6c-.5.3-.6,1.1-.3,1.8.4.7,1.1,1,1.6.7.5-.3.6-1.1.3-1.8-.4-.7-1.1-1-1.6-.7M199.8,61.1c-.5.3-.6,1.1-.3,1.8.4.7,1.1,1,1.6.7.5-.3.6-1.1.3-1.8-.4-.7-1.1-1-1.6-.7M199.8,92.6c-.5.3-.6,1.1-.3,1.8.4.7,1.1,1,1.6.7.5-.3.6-1.1.3-1.8-.4-.7-1.1-1-1.6-.7M199.8,70.1c-.5.3-.6,1.1-.3,1.8.4.7,1.1,1,1.6.7.5-.3.6-1.1.3-1.8-.4-.7-1.1-1-1.6-.7M199.8,83.6c-.5.3-.6,1.1-.3,1.8.4.7,1.1,1,1.6.7.5-.3.6-1.1.3-1.8-.4-.7-1.1-1-1.6-.7M199.8,124.1c-.5.3-.6,1.1-.3,1.8.4.7,1.1,1,1.6.7.5-.3.6-1.1.3-1.8-.4-.7-1.1-1-1.6-.7M199.8,119.6c-.5.3-.6,1.1-.3,1.8.4.7,1.1,1,1.6.7.5-.3.6-1.1.3-1.8-.4-.7-1.1-1-1.6-.7M199.8,128.6c-.5.3-.6,1.1-.3,1.8.4.7,1.1,1,1.6.7.5-.3.6-1.1.3-1.8-.4-.7-1.1-1-1.6-.7M199.8,97.1c-.5.3-.6,1.1-.3,1.8.4.7,1.1,1,1.6.7.5-.3.6-1.1.3-1.8-.4-.7-1.1-1-1.6-.7M199.8,133.1c-.5.3-.6,1.1-.3,1.8.4.7,1.1,1,1.6.7.5-.3.6-1.1.3-1.8-.4-.7-1.1-1-1.6-.7M199.8,106.1c-.5.3-.6,1.1-.3,1.8.4.7,1.1,1,1.6.7.5-.3.6-1.1.3-1.8-.4-.7-1.1-1-1.6-.7M199.8,101.6c-.5.3-.6,1.1-.3,1.8.4.7,1.1,1,1.6.7.5-.3.6-1.1.3-1.8-.4-.7-1.1-1-1.6-.7M199.8,115.1c-.5.3-.6,1.1-.3,1.8.4.7,1.1,1,1.6.7.5-.3.6-1.1.3-1.8-.4-.7-1.1-1-1.6-.7M199.8,110.6c-.5.3-.6,1.1-.3,1.8.4.7,1.1,1,1.6.7.5-.3.6-1.1.3-1.8-.4-.7-1.1-1-1.6-.7M199.8,227.5c-.5.3-.6,1.1-.3,1.8.4.7,1.1,1,1.6.7.5-.3.6-1.1.3-1.8-.4-.7-1.1-1-1.6-.7"/>
      <path class="cls-4" d="M204,164.9c-.5.3-.6,1.1-.3,1.8.4.7,1.1,1,1.6.7.5-.3.6-1.1.3-1.8-.4-.7-1.1-1-1.6-.7M204,182.8c-.5.3-.6,1.1-.3,1.8.4.7,1.1,1,1.6.7.5-.3.6-1.1.3-1.8-.4-.7-1.1-1-1.6-.7M204,142.4c-.5.3-.6,1.1-.3,1.8.4.7,1.1,1,1.6.7.5-.3.6-1.1.3-1.8-.4-.7-1.1-1-1.6-.7M204,178.4c-.5.3-.6,1.1-.3,1.8.4.7,1.1,1,1.6.7.5-.3.6-1.1.3-1.8-.4-.7-1.1-1-1.6-.7M204,173.9c-.5.3-.6,1.1-.3,1.8.4.7,1.1,1,1.6.7.5-.3.6-1.1.3-1.8-.4-.7-1.1-1-1.6-.7M204,160.4c-.5.3-.6,1.1-.3,1.8.4.7,1.1,1,1.6.7.5-.3.6-1.1.3-1.8-.4-.7-1.1-1-1.6-.7M204,146.9c-.5.3-.6,1.1-.3,1.8.4.7,1.1,1,1.6.7.5-.3.6-1.1.3-1.8-.4-.7-1.1-1-1.6-.7M204,187.3c-.5.3-.6,1.1-.3,1.8.4.7,1.1,1,1.6.7.5-.3.6-1.1.3-1.8-.4-.7-1.1-1-1.6-.7M204,155.9c-.5.3-.6,1.1-.3,1.8.4.7,1.1,1,1.6.7.5-.3.6-1.1.3-1.8-.4-.7-1.1-1-1.6-.7M204,151.4c-.5.3-.6,1.1-.3,1.8.4.7,1.1,1,1.6.7.5-.3.6-1.1.3-1.8-.4-.7-1.1-1-1.6-.7M204,169.4c-.5.3-.6,1.1-.3,1.8.4.7,1.1,1,1.6.7.5-.3.6-1.1.3-1.8-.4-.7-1.1-1-1.6-.7M204,223.3c-.5.3-.6,1.1-.3,1.8.4.7,1.1,1,1.6.7.5-.3.6-1.1.3-1.8-.4-.7-1.1-1-1.6-.7M204,218.8c-.5.3-.6,1.1-.3,1.8.4.7,1.1,1,1.6.7.5-.3.6-1.1.3-1.8-.4-.7-1.1-1-1.6-.7M204,214.3c-.5.3-.6,1.1-.3,1.8.4.7,1.1,1,1.6.7.5-.3.6-1.1.3-1.8-.4-.7-1.1-1-1.6-.7M205.4,50.4c.5-.3.6-1.1.3-1.8-.4-.7-1.1-1-1.6-.7-.5.3-.6,1.1-.3,1.8.4.7,1.1,1,1.6.7M204,191.8c-.5.3-.6,1.1-.3,1.8.4.7,1.1,1,1.6.7.5-.3.6-1.1.3-1.8-.4-.7-1.1-1-1.6-.7M204,200.8c-.5.3-.6,1.1-.3,1.8.4.7,1.1,1,1.6.7.5-.3.6-1.1.3-1.8-.4-.7-1.1-1-1.6-.7M204,196.3c-.5.3-.6,1.1-.3,1.8.4.7,1.1,1,1.6.7.5-.3.6-1.1.3-1.8-.4-.7-1.1-1-1.6-.7M204,205.3c-.5.3-.6,1.1-.3,1.8.4.7,1.1,1,1.6.7.5-.3.6-1.1.3-1.8-.4-.7-1.1-1-1.6-.7M204,209.8c-.5.3-.6,1.1-.3,1.8.4.7,1.1,1,1.6.7.5-.3.6-1.1.3-1.8-.4-.7-1.1-1-1.6-.7M204,52.5c-.5.3-.6,1.1-.3,1.8.4.7,1.1,1,1.6.7.5-.3.6-1.1.3-1.8-.4-.7-1.1-1-1.6-.7M204,79.5c-.5.3-.6,1.1-.3,1.8.4.7,1.1,1,1.6.7.5-.3.6-1.1.3-1.8-.4-.7-1.1-1-1.6-.7M204,75c-.5.3-.6,1.1-.3,1.8.4.7,1.1,1,1.6.7.5-.3.6-1.1.3-1.8-.4-.7-1.1-1-1.6-.7M204,137.9c-.5.3-.6,1.1-.3,1.8.4.7,1.1,1,1.6.7.5-.3.6-1.1.3-1.8-.4-.7-1.1-1-1.6-.7M204,88.4c-.5.3-.6,1.1-.3,1.8.4.7,1.1,1,1.6.7.5-.3.6-1.1.3-1.8-.4-.7-1.1-1-1.6-.7M204,66c-.5.3-.6,1.1-.3,1.8.4.7,1.1,1,1.6.7.5-.3.6-1.1.3-1.8-.4-.7-1.1-1-1.6-.7M204,57c-.5.3-.6,1.1-.3,1.8.4.7,1.1,1,1.6.7.5-.3.6-1.1.3-1.8-.4-.7-1.1-1-1.6-.7M204,61.5c-.5.3-.6,1.1-.3,1.8.4.7,1.1,1,1.6.7.5-.3.6-1.1.3-1.8-.4-.7-1.1-1-1.6-.7M204,92.9c-.5.3-.6,1.1-.3,1.8.4.7,1.1,1,1.6.7.5-.3.6-1.1.3-1.8-.4-.7-1.1-1-1.6-.7M204,70.5c-.5.3-.6,1.1-.3,1.8.4.7,1.1,1,1.6.7.5-.3.6-1.1.3-1.8-.4-.7-1.1-1-1.6-.7M204,83.9c-.5.3-.6,1.1-.3,1.8.4.7,1.1,1,1.6.7.5-.3.6-1.1.3-1.8-.4-.7-1.1-1-1.6-.7M204,124.4c-.5.3-.6,1.1-.3,1.8.4.7,1.1,1,1.6.7.5-.3.6-1.1.3-1.8-.4-.7-1.1-1-1.6-.7M204,119.9c-.5.3-.6,1.1-.3,1.8.4.7,1.1,1,1.6.7.5-.3.6-1.1.3-1.8-.4-.7-1.1-1-1.6-.7M204,128.9c-.5.3-.6,1.1-.3,1.8.4.7,1.1,1,1.6.7.5-.3.6-1.1.3-1.8-.4-.7-1.1-1-1.6-.7M204,97.4c-.5.3-.6,1.1-.3,1.8.4.7,1.1,1,1.6.7.5-.3.6-1.1.3-1.8-.4-.7-1.1-1-1.6-.7M204,133.4c-.5.3-.6,1.1-.3,1.8.4.7,1.1,1,1.6.7.5-.3.6-1.1.3-1.8-.4-.7-1.1-1-1.6-.7M204,106.4c-.5.3-.6,1.1-.3,1.8.4.7,1.1,1,1.6.7.5-.3.6-1.1.3-1.8-.4-.7-1.1-1-1.6-.7M204,101.9c-.5.3-.6,1.1-.3,1.8.4.7,1.1,1,1.6.7.5-.3.6-1.1.3-1.8-.4-.7-1.1-1-1.6-.7M204,115.4c-.5.3-.6,1.1-.3,1.8.4.7,1.1,1,1.6.7.5-.3.6-1.1.3-1.8-.4-.7-1.1-1-1.6-.7M204,110.9c-.5.3-.6,1.1-.3,1.8.4.7,1.1,1,1.6.7.5-.3.6-1.1.3-1.8-.4-.7-1.1-1-1.6-.7M204,227.8c-.5.3-.6,1.1-.3,1.8.4.7,1.1,1,1.6.7.5-.3.6-1.1.3-1.8-.4-.7-1.1-1-1.6-.7"/>
      <path class="cls-4" d="M208.2,165.2c-.5.3-.6,1.1-.3,1.8.4.7,1.1,1,1.6.7.5-.3.6-1.1.3-1.8-.4-.7-1.1-1-1.6-.7M208.2,183.2c-.5.3-.6,1.1-.3,1.8.4.7,1.1,1,1.6.7.5-.3.6-1.1.3-1.8-.4-.7-1.1-1-1.6-.7M208.2,142.7c-.5.3-.6,1.1-.3,1.8.4.7,1.1,1,1.6.7.5-.3.6-1.1.3-1.8-.4-.7-1.1-1-1.6-.7M208.2,178.7c-.5.3-.6,1.1-.3,1.8.4.7,1.1,1,1.6.7.5-.3.6-1.1.3-1.8-.4-.7-1.1-1-1.6-.7M208.2,174.2c-.5.3-.6,1.1-.3,1.8.4.7,1.1,1,1.6.7.5-.3.6-1.1.3-1.8-.4-.7-1.1-1-1.6-.7M208.2,160.7c-.5.3-.6,1.1-.3,1.8.4.7,1.1,1,1.6.7s.6-1.1.3-1.8c-.4-.7-1.1-1-1.6-.7M208.2,147.2c-.5.3-.6,1.1-.3,1.8.4.7,1.1,1,1.6.7.5-.3.6-1.1.3-1.8-.4-.7-1.1-1-1.6-.7M208.2,187.7c-.5.3-.6,1.1-.3,1.8.4.7,1.1,1,1.6.7s.6-1.1.3-1.8c-.4-.7-1.1-1-1.6-.7M208.2,156.2c-.5.3-.6,1.1-.3,1.8.4.7,1.1,1,1.6.7.5-.3.6-1.1.3-1.8-.4-.7-1.1-1-1.6-.7M208.2,151.7c-.5.3-.6,1.1-.3,1.8.4.7,1.1,1,1.6.7.5-.3.6-1.1.3-1.8-.4-.7-1.1-1-1.6-.7M208.2,169.7c-.5.3-.6,1.1-.3,1.8.4.7,1.1,1,1.6.7.5-.3.6-1.1.3-1.8-.4-.7-1.1-1-1.6-.7M208.2,223.6c-.5.3-.6,1.1-.3,1.8.4.7,1.1,1,1.6.7.5-.3.6-1.1.3-1.8-.4-.7-1.1-1-1.6-.7M208.2,219.1c-.5.3-.6,1.1-.3,1.8.4.7,1.1,1,1.6.7.5-.3.6-1.1.3-1.8-.4-.7-1.1-1-1.6-.7M208.2,214.6c-.5.3-.6,1.1-.3,1.8.4.7,1.1,1,1.6.7.5-.3.6-1.1.3-1.8-.4-.7-1.1-1-1.6-.7M209.6,50.8c.5-.3.6-1.1.3-1.8-.4-.7-1.1-1-1.6-.7-.5.3-.6,1.1-.3,1.8.4.7,1.1,1,1.6.7M208.2,192.2c-.5.3-.6,1.1-.3,1.8.4.7,1.1,1,1.6.7.5-.3.6-1.1.3-1.8-.4-.7-1.1-1-1.6-.7M208.2,201.2c-.5.3-.6,1.1-.3,1.8.4.7,1.1,1,1.6.7.5-.3.6-1.1.3-1.8-.4-.7-1.1-1-1.6-.7M208.2,196.7c-.5.3-.6,1.1-.3,1.8.4.7,1.1,1,1.6.7.5-.3.6-1.1.3-1.8-.4-.7-1.1-1-1.6-.7M208.2,205.7c-.5.3-.6,1.1-.3,1.8.4.7,1.1,1,1.6.7.5-.3.6-1.1.3-1.8-.4-.7-1.1-1-1.6-.7M208.2,210.1c-.5.3-.6,1.1-.3,1.8.4.7,1.1,1,1.6.7.5-.3.6-1.1.3-1.8-.4-.7-1.1-1-1.6-.7M208.2,52.8c-.5.3-.6,1.1-.3,1.8.4.7,1.1,1,1.6.7.5-.3.6-1.1.3-1.8-.4-.7-1.1-1-1.6-.7M208.2,79.8c-.5.3-.6,1.1-.3,1.8.4.7,1.1,1,1.6.7.5-.3.6-1.1.3-1.8-.4-.7-1.1-1-1.6-.7M208.2,75.3c-.5.3-.6,1.1-.3,1.8.4.7,1.1,1,1.6.7.5-.3.6-1.1.3-1.8-.4-.7-1.1-1-1.6-.7M208.2,138.2c-.5.3-.6,1.1-.3,1.8.4.7,1.1,1,1.6.7.5-.3.6-1.1.3-1.8-.4-.7-1.1-1-1.6-.7M208.2,88.8c-.5.3-.6,1.1-.3,1.8.4.7,1.1,1,1.6.7.5-.3.6-1.1.3-1.8-.4-.7-1.1-1-1.6-.7M208.2,66.3c-.5.3-.6,1.1-.3,1.8.4.7,1.1,1,1.6.7.5-.3.6-1.1.3-1.8-.4-.7-1.1-1-1.6-.7M208.2,57.3c-.5.3-.6,1.1-.3,1.8.4.7,1.1,1,1.6.7.5-.3.6-1.1.3-1.8-.4-.7-1.1-1-1.6-.7M208.2,61.8c-.5.3-.6,1.1-.3,1.8.4.7,1.1,1,1.6.7.5-.3.6-1.1.3-1.8-.4-.7-1.1-1-1.6-.7M208.2,93.3c-.5.3-.6,1.1-.3,1.8.4.7,1.1,1,1.6.7.5-.3.6-1.1.3-1.8-.4-.7-1.1-1-1.6-.7M208.2,70.8c-.5.3-.6,1.1-.3,1.8.4.7,1.1,1,1.6.7.5-.3.6-1.1.3-1.8-.4-.7-1.1-1-1.6-.7M208.2,84.3c-.5.3-.6,1.1-.3,1.8.4.7,1.1,1,1.6.7.5-.3.6-1.1.3-1.8-.4-.7-1.1-1-1.6-.7M208.2,124.7c-.5.3-.6,1.1-.3,1.8.4.7,1.1,1,1.6.7.5-.3.6-1.1.3-1.8-.4-.7-1.1-1-1.6-.7M208.2,120.3c-.5.3-.6,1.1-.3,1.8.4.7,1.1,1,1.6.7.5-.3.6-1.1.3-1.8-.4-.7-1.1-1-1.6-.7M208.2,129.2c-.5.3-.6,1.1-.3,1.8.4.7,1.1,1,1.6.7.5-.3.6-1.1.3-1.8-.4-.7-1.1-1-1.6-.7M208.2,97.8c-.5.3-.6,1.1-.3,1.8.4.7,1.1,1,1.6.7.5-.3.6-1.1.3-1.8-.4-.7-1.1-1-1.6-.7M208.2,133.7c-.5.3-.6,1.1-.3,1.8.4.7,1.1,1,1.6.7.5-.3.6-1.1.3-1.8-.4-.7-1.1-1-1.6-.7M208.2,106.8c-.5.3-.6,1.1-.3,1.8.4.7,1.1,1,1.6.7.5-.3.6-1.1.3-1.8-.4-.7-1.1-1-1.6-.7M208.2,102.3c-.5.3-.6,1.1-.3,1.8.4.7,1.1,1,1.6.7.5-.3.6-1.1.3-1.8-.4-.7-1.1-1-1.6-.7M208.2,115.7c-.5.3-.6,1.1-.3,1.8.4.7,1.1,1,1.6.7.5-.3.6-1.1.3-1.8-.4-.7-1.1-1-1.6-.7M208.2,111.3c-.5.3-.6,1.1-.3,1.8.4.7,1.1,1,1.6.7.5-.3.6-1.1.3-1.8-.4-.7-1.1-1-1.6-.7M208.2,228.1c-.5.3-.6,1.1-.3,1.8.4.7,1.1,1,1.6.7.5-.3.6-1.1.3-1.8-.4-.7-1.1-1-1.6-.7"/>
      <path class="cls-4" d="M212.4,165.5c-.5.3-.6,1.1-.3,1.8.4.7,1.1,1,1.7.7.5-.3.6-1.1.2-1.8-.4-.7-1.1-1-1.6-.7M212.4,183.5c-.5.3-.6,1.1-.3,1.8.4.7,1.1,1,1.7.7.5-.3.6-1.1.2-1.8-.4-.7-1.1-1-1.6-.7M212.4,143.1c-.5.3-.6,1.1-.3,1.8.4.7,1.1,1,1.7.7.5-.3.6-1.1.2-1.8-.4-.7-1.1-1-1.6-.7M212.4,179c-.5.3-.6,1.1-.3,1.8.4.7,1.1,1,1.7.7.5-.3.6-1.1.2-1.8-.4-.7-1.1-1-1.6-.7M212.4,174.5c-.5.3-.6,1.1-.3,1.8.4.7,1.1,1,1.7.7.5-.3.6-1.1.2-1.8-.4-.7-1.1-1-1.6-.7M212.4,161c-.5.3-.6,1.1-.3,1.8.4.7,1.1,1,1.7.7.5-.3.6-1.1.2-1.8-.4-.7-1.1-1-1.6-.7M212.4,147.6c-.5.3-.6,1.1-.3,1.8.4.7,1.1,1,1.7.7.5-.3.6-1.1.2-1.8-.4-.7-1.1-1-1.6-.7M212.4,188c-.5.3-.6,1.1-.3,1.8.4.7,1.1,1,1.7.7.5-.3.6-1.1.2-1.8-.4-.7-1.1-1-1.6-.7M212.4,156.6c-.5.3-.6,1.1-.3,1.8.4.7,1.1,1,1.7.7.5-.3.6-1.1.2-1.8-.4-.7-1.1-1-1.6-.7M212.4,152.1c-.5.3-.6,1.1-.3,1.8.4.7,1.1,1,1.7.7.5-.3.6-1.1.2-1.8-.4-.7-1.1-1-1.6-.7M212.4,170c-.5.3-.6,1.1-.3,1.8.4.7,1.1,1,1.7.7.5-.3.6-1.1.2-1.8-.4-.7-1.1-1-1.6-.7M212.4,219.5c-.5.3-.6,1.1-.3,1.8.4.7,1.1,1,1.7.7.5-.3.6-1.1.2-1.8-.4-.7-1.1-1-1.6-.7M212.4,215c-.5.3-.6,1.1-.3,1.8.4.7,1.1,1,1.7.7.5-.3.6-1.1.2-1.8-.4-.7-1.1-1-1.6-.7M213.8,51.1c.5-.3.6-1.1.2-1.8-.4-.7-1.1-1-1.6-.7-.5.3-.6,1.1-.3,1.8.4.7,1.1,1,1.7.7M212.4,192.5c-.5.3-.6,1.1-.3,1.8.4.7,1.1,1,1.7.7.5-.3.6-1.1.2-1.8-.4-.7-1.1-1-1.6-.7M212.4,201.5c-.5.3-.6,1.1-.3,1.8.4.7,1.1,1,1.7.7.5-.3.6-1.1.2-1.8-.4-.7-1.1-1-1.6-.7M212.4,197c-.5.3-.6,1.1-.3,1.8.4.7,1.1,1,1.7.7.5-.3.6-1.1.2-1.8-.4-.7-1.1-1-1.6-.7M212.4,206c-.5.3-.6,1.1-.3,1.8.4.7,1.1,1,1.7.7.5-.3.6-1.1.2-1.8-.4-.7-1.1-1-1.6-.7M212.4,210.5c-.5.3-.6,1.1-.3,1.8.4.7,1.1,1,1.7.7.5-.3.6-1.1.2-1.8-.4-.7-1.1-1-1.6-.7M212.4,53.2c-.5.3-.6,1.1-.3,1.8.4.7,1.1,1,1.7.7.5-.3.6-1.1.2-1.8-.4-.7-1.1-1-1.6-.7M212.4,80.1c-.5.3-.6,1.1-.3,1.8.4.7,1.1,1,1.7.7.5-.3.6-1.1.2-1.8-.4-.7-1.1-1-1.6-.7M212.4,75.6c-.5.3-.6,1.1-.3,1.8.4.7,1.1,1,1.7.7.5-.3.6-1.1.2-1.8-.4-.7-1.1-1-1.6-.7M212.4,138.6c-.5.3-.6,1.1-.3,1.8.4.7,1.1,1,1.7.7.5-.3.6-1.1.2-1.8-.4-.7-1.1-1-1.6-.7M212.4,89.1c-.5.3-.6,1.1-.3,1.8.4.7,1.1,1,1.7.7.5-.3.6-1.1.2-1.8-.4-.7-1.1-1-1.6-.7M212.4,66.6c-.5.3-.6,1.1-.3,1.8.4.7,1.1,1,1.7.7.5-.3.6-1.1.2-1.8-.4-.7-1.1-1-1.6-.7M212.4,57.7c-.5.3-.6,1.1-.3,1.8.4.7,1.1,1,1.7.7.5-.3.6-1.1.2-1.8-.4-.7-1.1-1-1.6-.7M212.4,62.1c-.5.3-.6,1.1-.3,1.8.4.7,1.1,1,1.7.7.5-.3.6-1.1.2-1.8-.4-.7-1.1-1-1.6-.7M212.4,93.6c-.5.3-.6,1.1-.3,1.8.4.7,1.1,1,1.7.7.5-.3.6-1.1.2-1.8-.4-.7-1.1-1-1.6-.7M212.4,71.1c-.5.3-.6,1.1-.3,1.8.4.7,1.1,1,1.7.7.5-.3.6-1.1.2-1.8-.4-.7-1.1-1-1.6-.7M212.4,84.6c-.5.3-.6,1.1-.3,1.8.4.7,1.1,1,1.7.7.5-.3.6-1.1.2-1.8-.4-.7-1.1-1-1.6-.7M212.4,125.1c-.5.3-.6,1.1-.3,1.8.4.7,1.1,1,1.7.7.5-.3.6-1.1.2-1.8-.4-.7-1.1-1-1.6-.7M212.4,120.6c-.5.3-.6,1.1-.3,1.8.4.7,1.1,1,1.7.7.5-.3.6-1.1.2-1.8-.4-.7-1.1-1-1.6-.7M212.4,129.6c-.5.3-.6,1.1-.3,1.8.4.7,1.1,1,1.7.7.5-.3.6-1.1.2-1.8-.4-.7-1.1-1-1.6-.7M212.4,98.1c-.5.3-.6,1.1-.3,1.8.4.7,1.1,1,1.7.7.5-.3.6-1.1.2-1.8-.4-.7-1.1-1-1.6-.7M212.4,134.1c-.5.3-.6,1.1-.3,1.8.4.7,1.1,1,1.7.7.5-.3.6-1.1.2-1.8-.4-.7-1.1-1-1.6-.7M212.4,107.1c-.5.3-.6,1.1-.3,1.8.4.7,1.1,1,1.7.7.5-.3.6-1.1.2-1.8-.4-.7-1.1-1-1.6-.7M212.4,102.6c-.5.3-.6,1.1-.3,1.8.4.7,1.1,1,1.7.7.5-.3.6-1.1.2-1.8-.4-.7-1.1-1-1.6-.7M212.4,116.1c-.5.3-.6,1.1-.3,1.8.4.7,1.1,1,1.7.7.5-.3.6-1.1.2-1.8-.4-.7-1.1-1-1.6-.7M212.4,111.6c-.5.3-.6,1.1-.3,1.8.4.7,1.1,1,1.7.7.5-.3.6-1.1.2-1.8-.4-.7-1.1-1-1.6-.7M212.4,228.5c-.5.3-.6,1.1-.3,1.8.4.7,1.1,1,1.7.7.5-.3.6-1.1.2-1.8-.4-.7-1.1-1-1.6-.7"/>
      <path class="cls-4" d="M216.6,165.9c-.5.3-.6,1.1-.3,1.8.4.7,1.1,1,1.6.7.5-.3.6-1.1.2-1.8-.4-.7-1.1-1-1.6-.7M216.6,183.9c-.5.3-.6,1.1-.3,1.8.4.7,1.1,1,1.6.7.5-.3.6-1.1.2-1.8-.4-.7-1.1-1-1.6-.7M216.6,143.4c-.5.3-.6,1.1-.3,1.8.4.7,1.1,1,1.6.7.5-.3.6-1.1.2-1.8-.4-.7-1.1-1-1.6-.7M216.6,179.4c-.5.3-.6,1.1-.3,1.8.4.7,1.1,1,1.6.7.5-.3.6-1.1.2-1.8-.4-.7-1.1-1-1.6-.7M216.6,174.9c-.5.3-.6,1.1-.3,1.8.4.7,1.1,1,1.6.7.5-.3.6-1.1.2-1.8-.4-.7-1.1-1-1.6-.7M216.6,161.4c-.5.3-.6,1.1-.3,1.8.4.7,1.1,1,1.6.7.5-.3.6-1.1.2-1.8-.4-.7-1.1-1-1.6-.7M216.6,147.9c-.5.3-.6,1.1-.3,1.8.4.7,1.1,1,1.6.7.5-.3.6-1.1.2-1.8-.4-.7-1.1-1-1.6-.7M216.6,188.4c-.5.3-.6,1.1-.3,1.8.4.7,1.1,1,1.6.7.5-.3.6-1.1.2-1.8-.4-.7-1.1-1-1.6-.7M216.6,156.9c-.5.3-.6,1.1-.3,1.8.4.7,1.1,1,1.6.7.5-.3.6-1.1.2-1.8-.4-.7-1.1-1-1.6-.7M216.6,152.4c-.5.3-.6,1.1-.3,1.8.4.7,1.1,1,1.6.7.5-.3.6-1.1.2-1.8-.4-.7-1.1-1-1.6-.7M216.6,170.4c-.5.3-.6,1.1-.3,1.8.4.7,1.1,1,1.6.7.5-.3.6-1.1.2-1.8-.4-.7-1.1-1-1.6-.7M216.6,224.3c-.5.3-.6,1.1-.3,1.8.4.7,1.1,1,1.6.7.5-.3.6-1.1.2-1.8-.4-.7-1.1-1-1.6-.7M216.6,219.8c-.5.3-.6,1.1-.3,1.8.4.7,1.1,1,1.6.7.5-.3.6-1.1.2-1.8-.4-.7-1.1-1-1.6-.7M216.6,215.3c-.5.3-.6,1.1-.3,1.8.4.7,1.1,1,1.6.7.5-.3.6-1.1.2-1.8-.4-.7-1.1-1-1.6-.7M218,51.5c.5-.3.6-1.1.2-1.8-.4-.7-1.1-1-1.6-.7-.5.3-.6,1.1-.3,1.8.4.7,1.1,1,1.6.7M216.6,192.9c-.5.3-.6,1.1-.3,1.8.4.7,1.1,1,1.6.7.5-.3.6-1.1.2-1.8-.4-.7-1.1-1-1.6-.7M216.6,201.9c-.5.3-.6,1.1-.3,1.8.4.7,1.1,1,1.6.7.5-.3.6-1.1.2-1.8-.4-.7-1.1-1-1.6-.7M216.6,197.4c-.5.3-.6,1.1-.3,1.8.4.7,1.1,1,1.6.7.5-.3.6-1.1.2-1.8-.4-.7-1.1-1-1.6-.7M216.6,206.3c-.5.3-.6,1.1-.3,1.8.4.7,1.1,1,1.6.7.5-.3.6-1.1.2-1.8-.4-.7-1.1-1-1.6-.7M216.6,210.8c-.5.3-.6,1.1-.3,1.8.4.7,1.1,1,1.6.7.5-.3.6-1.1.2-1.8-.4-.7-1.1-1-1.6-.7M216.6,53.5c-.5.3-.6,1.1-.3,1.8.4.7,1.1,1,1.6.7.5-.3.6-1.1.2-1.8-.4-.7-1.1-1-1.6-.7M216.6,80.5c-.5.3-.6,1.1-.3,1.8.4.7,1.1,1,1.6.7.5-.3.6-1.1.2-1.8-.4-.7-1.1-1-1.6-.7M216.6,76c-.5.3-.6,1.1-.3,1.8.4.7,1.1,1,1.6.7.5-.3.6-1.1.2-1.8-.4-.7-1.1-1-1.6-.7M216.6,138.9c-.5.3-.6,1.1-.3,1.8.4.7,1.1,1,1.6.7.5-.3.6-1.1.2-1.8-.4-.7-1.1-1-1.6-.7M216.6,89.5c-.5.3-.6,1.1-.3,1.8.4.7,1.1,1,1.6.7.5-.3.6-1.1.2-1.8-.4-.7-1.1-1-1.6-.7M216.6,67c-.5.3-.6,1.1-.3,1.8.4.7,1.1,1,1.6.7.5-.3.6-1.1.2-1.8-.4-.7-1.1-1-1.6-.7M216.6,58c-.5.3-.6,1.1-.3,1.8.4.7,1.1,1,1.6.7.5-.3.6-1.1.2-1.8-.4-.7-1.1-1-1.6-.7M216.6,62.5c-.5.3-.6,1.1-.3,1.8.4.7,1.1,1,1.6.7.5-.3.6-1.1.2-1.8-.4-.7-1.1-1-1.6-.7M216.6,94c-.5.3-.6,1.1-.3,1.8.4.7,1.1,1,1.6.7.5-.3.6-1.1.2-1.8-.4-.7-1.1-1-1.6-.7M216.6,71.5c-.5.3-.6,1.1-.3,1.8.4.7,1.1,1,1.6.7.5-.3.6-1.1.2-1.8-.4-.7-1.1-1-1.6-.7M216.6,85c-.5.3-.6,1.1-.3,1.8.4.7,1.1,1,1.6.7.5-.3.6-1.1.2-1.8-.4-.7-1.1-1-1.6-.7M216.6,125.4c-.5.3-.6,1.1-.3,1.8.4.7,1.1,1,1.6.7.5-.3.6-1.1.2-1.8-.4-.7-1.1-1-1.6-.7M216.6,120.9c-.5.3-.6,1.1-.3,1.8.4.7,1.1,1,1.6.7.5-.3.6-1.1.2-1.8-.4-.7-1.1-1-1.6-.7M216.6,129.9c-.5.3-.6,1.1-.3,1.8.4.7,1.1,1,1.6.7.5-.3.6-1.1.2-1.8-.4-.7-1.1-1-1.6-.7M216.6,98.4c-.5.3-.6,1.1-.3,1.8.4.7,1.1,1,1.6.7.5-.3.6-1.1.2-1.8-.4-.7-1.1-1-1.6-.7M216.6,134.4c-.5.3-.6,1.1-.3,1.8.4.7,1.1,1,1.6.7.5-.3.6-1.1.2-1.8-.4-.7-1.1-1-1.6-.7M216.6,107.4c-.5.3-.6,1.1-.3,1.8.4.7,1.1,1,1.6.7.5-.3.6-1.1.2-1.8-.4-.7-1.1-1-1.6-.7M216.6,102.9c-.5.3-.6,1.1-.3,1.8.4.7,1.1,1,1.6.7.5-.3.6-1.1.2-1.8-.4-.7-1.1-1-1.6-.7M216.6,116.4c-.5.3-.6,1.1-.3,1.8.4.7,1.1,1,1.6.7.5-.3.6-1.1.2-1.8-.4-.7-1.1-1-1.6-.7M216.6,111.9c-.5.3-.6,1.1-.3,1.8.4.7,1.1,1,1.6.7.5-.3.6-1.1.2-1.8-.4-.7-1.1-1-1.6-.7M216.6,228.8c-.5.3-.6,1.1-.3,1.8.4.7,1.1,1,1.6.7.5-.3.6-1.1.2-1.8-.4-.7-1.1-1-1.6-.7"/>
      <path class="cls-4" d="M220.8,166.2c-.5.3-.6,1.1-.3,1.8.4.7,1.1,1,1.6.7.5-.3.6-1.1.2-1.8-.4-.7-1.1-1-1.6-.7M220.8,184.2c-.5.3-.6,1.1-.3,1.8.4.7,1.1,1,1.6.7.5-.3.6-1.1.2-1.8-.4-.7-1.1-1-1.6-.7M220.8,143.7c-.5.3-.6,1.1-.3,1.8.4.7,1.1,1,1.6.7.5-.3.6-1.1.2-1.8-.4-.7-1.1-1-1.6-.7M220.8,179.7c-.5.3-.6,1.1-.3,1.8.4.7,1.1,1,1.6.7.5-.3.6-1.1.2-1.8-.4-.7-1.1-1-1.6-.7M220.8,175.2c-.5.3-.6,1.1-.3,1.8.4.7,1.1,1,1.6.7.5-.3.6-1.1.2-1.8-.4-.7-1.1-1-1.6-.7M220.8,161.7c-.5.3-.6,1.1-.3,1.8.4.7,1.1,1,1.6.7.5-.3.6-1.1.2-1.8-.4-.7-1.1-1-1.6-.7M220.8,148.2c-.5.3-.6,1.1-.3,1.8.4.7,1.1,1,1.6.7.5-.3.6-1.1.2-1.8-.4-.7-1.1-1-1.6-.7M220.8,188.7c-.5.3-.6,1.1-.3,1.8.4.7,1.1,1,1.6.7.5-.3.6-1.1.2-1.8-.4-.7-1.1-1-1.6-.7M220.8,157.2c-.5.3-.6,1.1-.3,1.8.4.7,1.1,1,1.6.7.5-.3.6-1.1.2-1.8-.4-.7-1.1-1-1.6-.7M220.8,152.7c-.5.3-.6,1.1-.3,1.8.4.7,1.1,1,1.6.7.5-.3.6-1.1.2-1.8-.4-.7-1.1-1-1.6-.7M220.8,170.7c-.5.3-.6,1.1-.3,1.8.4.7,1.1,1,1.6.7.5-.3.6-1.1.2-1.7-.4-.7-1.1-1-1.6-.7M220.8,224.7c-.5.3-.6,1.1-.3,1.8.4.7,1.1,1,1.6.7.5-.3.6-1.1.2-1.8-.4-.7-1.1-1-1.6-.7M220.8,220.2c-.5.3-.6,1.1-.3,1.8.4.7,1.1,1,1.6.7.5-.3.6-1.1.2-1.8-.4-.7-1.1-1-1.6-.7M220.8,215.7c-.5.3-.6,1.1-.3,1.8.4.7,1.1,1,1.6.7.5-.3.6-1.1.2-1.8-.4-.7-1.1-1-1.6-.7M222.2,51.8c.5-.3.6-1.1.2-1.8-.4-.7-1.1-1-1.6-.7-.5.3-.6,1.1-.3,1.8.4.7,1.1,1,1.6.7M220.8,193.2c-.5.3-.6,1.1-.3,1.8.4.7,1.1,1,1.6.7.5-.3.6-1.1.2-1.8-.4-.7-1.1-1-1.6-.7M220.8,202.2c-.5.3-.6,1.1-.3,1.8.4.7,1.1,1,1.6.7.5-.3.6-1.1.2-1.8-.4-.7-1.1-1-1.6-.7M220.8,197.7c-.5.3-.6,1.1-.3,1.8.4.7,1.1,1,1.6.7.5-.3.6-1.1.2-1.8-.4-.7-1.1-1-1.6-.7M220.8,206.7c-.5.3-.6,1.1-.3,1.8.4.7,1.1,1,1.6.7.5-.3.6-1.1.2-1.8-.4-.7-1.1-1-1.6-.7M220.8,211.2c-.5.3-.6,1.1-.3,1.8.4.7,1.1,1,1.6.7.5-.3.6-1.1.2-1.8-.4-.7-1.1-1-1.6-.7M220.8,53.8c-.5.3-.6,1.1-.3,1.8.4.7,1.1,1,1.6.7.5-.3.6-1.1.2-1.8-.4-.7-1.1-1-1.6-.7M220.8,80.8c-.5.3-.6,1.1-.3,1.8.4.7,1.1,1,1.6.7.5-.3.6-1.1.2-1.8-.4-.7-1.1-1-1.6-.7M220.8,76.3c-.5.3-.6,1.1-.3,1.8.4.7,1.1,1,1.6.7.5-.3.6-1.1.2-1.8-.4-.7-1.1-1-1.6-.7M220.8,139.3c-.5.3-.6,1.1-.3,1.8.4.7,1.1,1,1.6.7.5-.3.6-1.1.2-1.8-.4-.7-1.1-1-1.6-.7M220.8,89.8c-.5.3-.6,1.1-.3,1.8.4.7,1.1,1,1.6.7.5-.3.6-1.1.2-1.8-.4-.7-1.1-1-1.6-.7M220.8,67.3c-.5.3-.6,1.1-.3,1.8.4.7,1.1,1,1.6.7.5-.3.6-1.1.2-1.8-.4-.7-1.1-1-1.6-.7M220.8,58.3c-.5.3-.6,1.1-.3,1.8.4.7,1.1,1,1.6.7.5-.3.6-1.1.2-1.8-.4-.7-1.1-1-1.6-.7M220.8,62.8c-.5.3-.6,1.1-.3,1.8.4.7,1.1,1,1.6.7.5-.3.6-1.1.2-1.8-.4-.7-1.1-1-1.6-.7M220.8,94.3c-.5.3-.6,1.1-.3,1.8.4.7,1.1,1,1.6.7.5-.3.6-1.1.2-1.8-.4-.7-1.1-1-1.6-.7M220.8,71.8c-.5.3-.6,1.1-.3,1.8.4.7,1.1,1,1.6.7.5-.3.6-1.1.2-1.8-.4-.7-1.1-1-1.6-.7M220.8,85.3c-.5.3-.6,1.1-.3,1.8.4.7,1.1,1,1.6.7.5-.3.6-1.1.2-1.8-.4-.7-1.1-1-1.6-.7M220.8,125.8c-.5.3-.6,1.1-.3,1.8.4.7,1.1,1,1.6.7.5-.3.6-1.1.2-1.8-.4-.7-1.1-1-1.6-.7M220.8,121.3c-.5.3-.6,1.1-.3,1.8.4.7,1.1,1,1.6.7.5-.3.6-1.1.2-1.8-.4-.7-1.1-1-1.6-.7M220.8,130.3c-.5.3-.6,1.1-.3,1.8.4.7,1.1,1,1.6.7.5-.3.6-1.1.2-1.8-.4-.7-1.1-1-1.6-.7M220.8,98.8c-.5.3-.6,1.1-.3,1.8.4.7,1.1,1,1.6.7.5-.3.6-1.1.2-1.8-.4-.7-1.1-1-1.6-.7M220.8,134.8c-.5.3-.6,1.1-.3,1.8.4.7,1.1,1,1.6.7.5-.3.6-1.1.2-1.8-.4-.7-1.1-1-1.6-.7M220.8,107.8c-.5.3-.6,1.1-.3,1.8.4.7,1.1,1,1.6.7.5-.3.6-1.1.2-1.8-.4-.7-1.1-1-1.6-.7M220.8,103.3c-.5.3-.6,1.1-.3,1.8.4.7,1.1,1,1.6.7.5-.3.6-1.1.2-1.8-.4-.7-1.1-1-1.6-.7M220.8,116.8c-.5.3-.6,1.1-.3,1.8.4.7,1.1,1,1.6.7.5-.3.6-1.1.2-1.8-.4-.7-1.1-1-1.6-.7M220.8,112.3c-.5.3-.6,1.1-.3,1.8.4.7,1.1,1,1.6.7.5-.3.6-1.1.2-1.8-.4-.7-1.1-1-1.6-.7M220.8,229.2c-.5.3-.6,1.1-.3,1.8.4.7,1.1,1,1.6.7.5-.3.6-1.1.2-1.8-.4-.7-1.1-1-1.6-.7"/>
      <path class="cls-4" d="M225,166.6c-.5.3-.6,1.1-.3,1.8.4.7,1.1,1,1.6.7.5-.3.6-1.1.3-1.8-.4-.7-1.1-1-1.6-.7M225,184.5c-.5.3-.6,1.1-.3,1.8.4.7,1.1,1,1.6.7.5-.3.6-1.1.3-1.8-.4-.7-1.1-1-1.6-.7M225,144.1c-.5.3-.6,1.1-.3,1.8.4.7,1.1,1,1.6.7.5-.3.6-1.1.3-1.8-.4-.7-1.1-1-1.6-.7M225,180c-.5.3-.6,1.1-.3,1.8.4.7,1.1,1,1.6.7.5-.3.6-1.1.3-1.8-.4-.7-1.1-1-1.6-.7M225,175.5c-.5.3-.6,1.1-.3,1.8.4.7,1.1,1,1.6.7.5-.3.6-1.1.3-1.8-.4-.7-1.1-1-1.6-.7M225,162.1c-.5.3-.6,1.1-.3,1.8.4.7,1.1,1,1.6.7.5-.3.6-1.1.3-1.8-.4-.7-1.1-1-1.6-.7M225,148.6c-.5.3-.6,1.1-.3,1.8.4.7,1.1,1,1.6.7.5-.3.6-1.1.3-1.8-.4-.7-1.1-1-1.6-.7M225,189c-.5.3-.6,1.1-.3,1.8.4.7,1.1,1,1.6.7.5-.3.6-1.1.3-1.8-.4-.7-1.1-1-1.6-.7M225,157.6c-.5.3-.6,1.1-.3,1.8.4.7,1.1,1,1.6.7.5-.3.6-1.1.3-1.8-.4-.7-1.1-1-1.6-.7M225,153.1c-.5.3-.6,1.1-.3,1.8.4.7,1.1,1,1.6.7.5-.3.6-1.1.3-1.8-.4-.7-1.1-1-1.6-.7M225,171.1c-.5.3-.6,1.1-.3,1.8.4.7,1.1,1,1.6.7.5-.3.6-1.1.3-1.8-.4-.7-1.1-1-1.6-.7M225,225c-.5.3-.6,1.1-.3,1.8.4.7,1.1,1,1.6.7.5-.3.6-1.1.3-1.8-.4-.7-1.1-1-1.6-.7M225,220.5c-.5.3-.6,1.1-.3,1.8.4.7,1.1,1,1.6.7.5-.3.6-1.1.3-1.8-.4-.7-1.1-1-1.6-.7M225,216c-.5.3-.6,1.1-.3,1.8.4.7,1.1,1,1.6.7.5-.3.6-1.1.3-1.8-.4-.7-1.1-1-1.6-.7M226.4,52.1c.5-.3.6-1.1.3-1.8-.4-.7-1.1-1-1.6-.7-.5.3-.6,1.1-.3,1.8.4.7,1.1,1,1.6.7M225,193.5c-.5.3-.6,1.1-.3,1.8.4.7,1.1,1,1.6.7.5-.3.6-1.1.3-1.8-.4-.7-1.1-1-1.6-.7M225,202.5c-.5.3-.6,1.1-.3,1.8.4.7,1.1,1,1.6.7.5-.3.6-1.1.3-1.8-.4-.7-1.1-1-1.6-.7M225,198c-.5.3-.6,1.1-.3,1.8.4.7,1.1,1,1.6.7.5-.3.6-1.1.3-1.8-.4-.7-1.1-1-1.6-.7M225,207c-.5.3-.6,1.1-.3,1.8.4.7,1.1,1,1.6.7.5-.3.6-1.1.3-1.8-.4-.7-1.1-1-1.6-.7M225,211.5c-.5.3-.6,1.1-.3,1.8.4.7,1.1,1,1.6.7.5-.3.6-1.1.3-1.8-.4-.7-1.1-1-1.6-.7M225,54.2c-.5.3-.6,1.1-.3,1.8.4.7,1.1,1,1.6.7.5-.3.6-1.1.3-1.8-.4-.7-1.1-1-1.6-.7M225,81.2c-.5.3-.6,1.1-.3,1.8.4.7,1.1,1,1.6.7.5-.3.6-1.1.3-1.8-.4-.7-1.1-1-1.6-.7M225,76.7c-.5.3-.6,1.1-.3,1.8.4.7,1.1,1,1.6.7.5-.3.6-1.1.3-1.8-.4-.7-1.1-1-1.6-.7M225,139.6c-.5.3-.6,1.1-.3,1.8.4.7,1.1,1,1.6.7.5-.3.6-1.1.3-1.8-.4-.7-1.1-1-1.6-.7M225,90.1c-.5.3-.6,1.1-.3,1.8.4.7,1.1,1,1.6.7.5-.3.6-1.1.3-1.8-.4-.7-1.1-1-1.6-.7M225,67.7c-.5.3-.6,1.1-.3,1.8.4.7,1.1,1,1.6.7.5-.3.6-1.1.3-1.8-.4-.7-1.1-1-1.6-.7M225,58.7c-.5.3-.6,1.1-.3,1.8.4.7,1.1,1,1.6.7.5-.3.6-1.1.3-1.8-.4-.7-1.1-1-1.6-.7M225,63.2c-.5.3-.6,1.1-.3,1.8.4.7,1.1,1,1.6.7.5-.3.6-1.1.3-1.8-.4-.7-1.1-1-1.6-.7M225,94.6c-.5.3-.6,1.1-.3,1.8.4.7,1.1,1,1.6.7.5-.3.6-1.1.3-1.8-.4-.7-1.1-1-1.6-.7M225,72.2c-.5.3-.6,1.1-.3,1.8.4.7,1.1,1,1.6.7.5-.3.6-1.1.3-1.8-.4-.7-1.1-1-1.6-.7M225,85.6c-.5.3-.6,1.1-.3,1.8.4.7,1.1,1,1.6.7.5-.3.6-1.1.3-1.8-.4-.7-1.1-1-1.6-.7M225,126.1c-.5.3-.6,1.1-.3,1.8.4.7,1.1,1,1.6.7.5-.3.6-1.1.3-1.8-.4-.7-1.1-1-1.6-.7M225,121.6c-.5.3-.6,1.1-.3,1.8.4.7,1.1,1,1.6.7.5-.3.6-1.1.3-1.8-.4-.7-1.1-1-1.6-.7M225,130.6c-.5.3-.6,1.1-.3,1.8.4.7,1.1,1,1.6.7.5-.3.6-1.1.3-1.8-.4-.7-1.1-1-1.6-.7M225,99.1c-.5.3-.6,1.1-.3,1.8.4.7,1.1,1,1.6.7.5-.3.6-1.1.3-1.8-.4-.7-1.1-1-1.6-.7M225,135.1c-.5.3-.6,1.1-.3,1.8.4.7,1.1,1,1.6.7.5-.3.6-1.1.3-1.8-.4-.7-1.1-1-1.6-.7M225,108.1c-.5.3-.6,1.1-.3,1.8.4.7,1.1,1,1.6.7.5-.3.6-1.1.3-1.8-.4-.7-1.1-1-1.6-.7M225,103.6c-.5.3-.6,1.1-.3,1.8.4.7,1.1,1,1.6.7.5-.3.6-1.1.3-1.8-.4-.7-1.1-1-1.6-.7M225,117.1c-.5.3-.6,1.1-.3,1.8.4.7,1.1,1,1.6.7.5-.3.6-1.1.3-1.8-.4-.7-1.1-1-1.6-.7M225,112.6c-.5.3-.6,1.1-.3,1.8.4.7,1.1,1,1.6.7.5-.3.6-1.1.3-1.8-.4-.7-1.1-1-1.6-.7M225,229.5c-.5.3-.6,1.1-.3,1.8.4.7,1.1,1,1.6.7.5-.3.6-1.1.3-1.8-.4-.7-1.1-1-1.6-.7"/>
      <path class="cls-4" d="M229.2,166.9c-.5.3-.6,1.1-.3,1.8.4.7,1.1,1,1.6.7.5-.3.6-1.1.3-1.8-.4-.7-1.1-1-1.6-.7M229.2,184.9c-.5.3-.6,1.1-.3,1.8.4.7,1.1,1,1.6.7.5-.3.6-1.1.3-1.8-.4-.7-1.1-1-1.6-.7M229.2,144.4c-.5.3-.6,1.1-.3,1.8.4.7,1.1,1,1.6.7.5-.3.6-1.1.3-1.8-.4-.7-1.1-1-1.6-.7M229.2,180.4c-.5.3-.6,1.1-.3,1.8.4.7,1.1,1,1.6.7.5-.3.6-1.1.3-1.8-.4-.7-1.1-1-1.6-.7M229.2,175.9c-.5.3-.6,1.1-.3,1.8.4.7,1.1,1,1.6.7.5-.3.6-1.1.3-1.8-.4-.7-1.1-1-1.6-.7M229.2,162.4c-.5.3-.6,1.1-.3,1.8.4.7,1.1,1,1.6.7.5-.3.6-1.1.3-1.8-.4-.7-1.1-1-1.6-.7M229.2,148.9c-.5.3-.6,1.1-.3,1.8.4.7,1.1,1,1.6.7.5-.3.6-1.1.3-1.8-.4-.7-1.1-1-1.6-.7M229.2,189.4c-.5.3-.6,1.1-.3,1.8.4.7,1.1,1,1.6.7.5-.3.6-1.1.3-1.8-.4-.7-1.1-1-1.6-.7M229.2,157.9c-.5.3-.6,1.1-.3,1.8.4.7,1.1,1,1.6.7.5-.3.6-1.1.3-1.8-.4-.7-1.1-1-1.6-.7M229.2,153.4c-.5.3-.6,1.1-.3,1.8.4.7,1.1,1,1.6.7.5-.3.6-1.1.3-1.8-.4-.7-1.1-1-1.6-.7M229.2,171.4c-.5.3-.6,1.1-.3,1.8.4.7,1.1,1,1.6.7.5-.3.6-1.1.3-1.8-.4-.7-1.1-1-1.6-.7M229.2,225.3c-.5.3-.6,1.1-.3,1.8.4.7,1.1,1,1.6.7.5-.3.6-1.1.3-1.8-.4-.7-1.1-1-1.6-.7M229.2,220.8c-.5.3-.6,1.1-.3,1.8s1.1,1,1.6.7c.5-.3.6-1.1.3-1.8-.4-.7-1.1-1-1.6-.7M229.2,216.4c-.5.3-.6,1.1-.3,1.8.4.7,1.1,1,1.6.7.5-.3.6-1.1.3-1.8-.4-.7-1.1-1-1.6-.7M230.6,52.5c.5-.3.6-1.1.3-1.8-.4-.7-1.1-1-1.6-.7-.5.3-.6,1.1-.3,1.8.4.7,1.1,1,1.6.7M229.2,193.9c-.5.3-.6,1.1-.3,1.8.4.7,1.1,1,1.6.7.5-.3.6-1.1.3-1.8-.4-.7-1.1-1-1.6-.7M229.2,202.9c-.5.3-.6,1.1-.3,1.8.4.7,1.1,1,1.6.7.5-.3.6-1.1.3-1.8-.4-.7-1.1-1-1.6-.7M229.2,198.4c-.5.3-.6,1.1-.3,1.8.4.7,1.1,1,1.6.7.5-.3.6-1.1.3-1.8-.4-.7-1.1-1-1.6-.7M229.2,207.4c-.5.3-.6,1.1-.3,1.8.4.7,1.1,1,1.6.7.5-.3.6-1.1.3-1.8-.4-.7-1.1-1-1.6-.7M229.2,211.8c-.5.3-.6,1.1-.3,1.8.4.7,1.1,1,1.6.7.5-.3.6-1.1.3-1.8-.4-.7-1.1-1-1.6-.7M229.2,54.5c-.5.3-.6,1.1-.3,1.8.4.7,1.1,1,1.6.7.5-.3.6-1.1.3-1.8-.4-.7-1.1-1-1.6-.7M229.2,81.5c-.5.3-.6,1.1-.3,1.8.4.7,1.1,1,1.6.7.5-.3.6-1.1.3-1.8-.4-.7-1.1-1-1.6-.7M229.2,77c-.5.3-.6,1.1-.3,1.8.4.7,1.1,1,1.6.7.5-.3.6-1.1.3-1.8-.4-.7-1.1-1-1.6-.7M229.2,139.9c-.5.3-.6,1.1-.3,1.8.4.7,1.1,1,1.6.7.5-.3.6-1.1.3-1.8-.4-.7-1.1-1-1.6-.7M229.2,90.5c-.5.3-.6,1.1-.3,1.8.4.7,1.1,1,1.6.7.5-.3.6-1.1.3-1.8-.4-.7-1.1-1-1.6-.7M229.2,68c-.5.3-.6,1.1-.3,1.8.4.7,1.1,1,1.6.7.5-.3.6-1.1.3-1.8-.4-.7-1.1-1-1.6-.7M229.2,59c-.5.3-.6,1.1-.3,1.8.4.7,1.1,1,1.6.7.5-.3.6-1.1.3-1.8-.4-.7-1.1-1-1.6-.7M229.2,63.5c-.5.3-.6,1.1-.3,1.8.4.7,1.1,1,1.6.7.5-.3.6-1.1.3-1.8-.4-.7-1.1-1-1.6-.7M229.2,95c-.5.3-.6,1.1-.3,1.8.4.7,1.1,1,1.6.7.5-.3.6-1.1.3-1.8-.4-.7-1.1-1-1.6-.7M229.2,72.5c-.5.3-.6,1.1-.3,1.8.4.7,1.1,1,1.6.7.5-.3.6-1.1.3-1.8-.4-.7-1.1-1-1.6-.7M229.2,86c-.5.3-.6,1.1-.3,1.8.4.7,1.1,1,1.6.7.5-.3.6-1.1.3-1.8-.4-.7-1.1-1-1.6-.7M229.2,126.4c-.5.3-.6,1.1-.3,1.8.4.7,1.1,1,1.6.7.5-.3.6-1.1.3-1.8-.4-.7-1.1-1-1.6-.7M229.2,121.9c-.5.3-.6,1.1-.3,1.8s1.1,1,1.6.7c.5-.3.6-1.1.3-1.8-.4-.7-1.1-1-1.6-.7M229.2,130.9c-.5.3-.6,1.1-.3,1.8.4.7,1.1,1,1.6.7.5-.3.6-1.1.3-1.8-.4-.7-1.1-1-1.6-.7M229.2,99.5c-.5.3-.6,1.1-.3,1.8.4.7,1.1,1,1.6.7.5-.3.6-1.1.3-1.8-.4-.7-1.1-1-1.6-.7M229.2,135.4c-.5.3-.6,1.1-.3,1.8.4.7,1.1,1,1.6.7.5-.3.6-1.1.3-1.8-.4-.7-1.1-1-1.6-.7M229.2,108.5c-.5.3-.6,1.1-.3,1.8.4.7,1.1,1,1.6.7.5-.3.6-1.1.3-1.8-.4-.7-1.1-1-1.6-.7M229.2,104c-.5.3-.6,1.1-.3,1.8.4.7,1.1,1,1.6.7.5-.3.6-1.1.3-1.8-.4-.7-1.1-1-1.6-.7M229.2,117.4c-.5.3-.6,1.1-.3,1.8.4.7,1.1,1,1.6.7.5-.3.6-1.1.3-1.8-.4-.7-1.1-1-1.6-.7M229.2,113c-.5.3-.6,1.1-.3,1.8.4.7,1.1,1,1.6.7.5-.3.6-1.1.3-1.8-.4-.7-1.1-1-1.6-.7M229.2,229.8c-.5.3-.6,1.1-.3,1.8.4.7,1.1,1,1.6.7.5-.3.6-1.1.3-1.8-.4-.7-1.1-1-1.6-.7"/>
      <path class="cls-5" d="M212.1,223.4c-.7.4-.9,1.6-.4,2.5.5,1,1.6,1.4,2.4,1,.7-.4.9-1.6.4-2.5-.5-1-1.6-1.4-2.4-1"/>
      <path class="cls-2" d="M212.1,223.4c-.7.4-.9,1.6-.4,2.5.5,1,1.6,1.4,2.4,1,.7-.4.9-1.6.4-2.5-.5-1-1.6-1.4-2.4-1Z"/>
      <path class="cls-3" d="M234.3,233.5c-.5.5-1.6.8-2.3.8l-215.8-17.7c-.7,0-1.3-.7-1.3-1.4V32.1c0-.7.6-1.5,1.3-1.7l33.9-9.8c.7-.2,1.9-.3,2.6-.3l215.8,15.2c.7,0,1.3.7,1.3,1.4v164.6c0,.7-.4,1.7-1,2.2l-34.4,29.8Z"/>
    </g>
  </g>
</svg>