<?xml version="1.0" encoding="UTF-8"?>
<svg id="_レイヤー_1" data-name="レイヤー 1" xmlns="http://www.w3.org/2000/svg" version="1.1" viewBox="0 0 306.52 90.58">
  <defs>
    <style>
      .cls-1 {
        fill: #f39800;
      }

      .cls-1, .cls-2, .cls-3 {
        stroke-width: 0px;
      }

      .cls-2 {
        fill: #1d2088;
      }

      .cls-3 {
        fill: #fff;
      }
    </style>
  </defs>
  <rect class="cls-2" x="42.44" y="14.96" width="217.91" height="65.16"/>
  <polygon class="cls-3" points="67.78 64.43 89.19 38.54 91.43 29.96 56.99 29.96 54.15 38.37 79.05 38.36 56.36 64.41 67.78 64.43"/>
  <polygon class="cls-3" points="100.42 64.43 121.89 48.86 116.63 43.68 99.09 55.05 98.86 55.05 107.7 29.96 99.47 29.96 87 64.43 100.42 64.43"/>
  <polygon class="cls-3" points="189.77 29.81 180.99 29.81 176.1 43.8 184.78 43.8 189.77 29.81"/>
  <polygon class="cls-3" points="177.14 29.81 168.66 29.81 163.6 43.8 172.12 43.8 177.14 29.81"/>
  <polygon class="cls-3" points="205.38 29.8 195.22 29.8 182.87 64.14 193.02 64.14 205.38 29.8"/>
  <polygon class="cls-3" points="146.63 36.96 139.62 36.96 135.82 48.13 142.77 48.13 146.63 36.96"/>
  <polygon class="cls-3" points="136.47 36.96 129.71 36.97 125.77 48.13 132.58 48.14 136.47 36.96"/>
  <polygon class="cls-3" points="159.59 36.96 151.56 36.95 141.74 64.34 149.6 64.34 159.59 36.96"/>
  <polygon class="cls-1" points="242.81 39.47 249.22 29.66 240.53 29.67 234.11 39.47 242.81 39.47"/>
  <polygon class="cls-1" points="222.37 39.41 221.33 29.67 213.29 29.67 214.31 39.41 222.37 39.41"/>
  <polygon class="cls-1" points="245.38 48.74 247.69 41.29 231.34 41.3 234.88 29.67 226.85 29.67 223.26 41.3 208.86 41.3 206.55 48.75 215.62 48.75 213.66 54.83 203.16 64.72 213.12 64.72 221.3 56.55 223.85 48.75 226.79 48.75 221.89 64.69 240.39 64.68 243.87 53.38 236.23 53.39 234.61 58.06 231.94 58.06 234.81 48.75 245.38 48.74"/>
</svg>