<?xml version="1.0" encoding="UTF-8"?>
<svg id="_レイヤー_1" data-name=" レイヤー 1" xmlns="http://www.w3.org/2000/svg" version="1.1" viewBox="0 0 306.52 90.58">
  <defs>
    <style>
      .cls-1 {
        fill: #f39800;
      }

      .cls-1, .cls-2, .cls-3 {
        stroke-width: 0px;
      }

      .cls-2 {
        fill: #1d2088;
      }

      .cls-3 {
        fill: #fff;
      }
    </style>
  </defs>
  <rect class="cls-3" x="25.66" y="24.03" width="261" height="42.52"/>
  <rect class="cls-3" x="156.16" y="25.8" width="128.73" height="38.99"/>
  <path class="cls-2" d="M25.66,66.55h261V24.03H25.66v42.52ZM283.12,63.02h-125.19V27.56h125.19v35.46Z"/>
  <polygon class="cls-3" points="43.75 58.61 60.25 38.65 61.97 32.05 35.43 32.05 33.25 38.53 52.41 38.53 34.95 58.6 43.75 58.61"/>
  <polygon class="cls-3" points="68.91 58.62 85.44 46.6 81.4 42.61 67.87 51.38 67.69 51.38 74.51 32.05 68.16 32.05 58.56 58.62 68.91 58.62"/>
  <polygon class="cls-3" points="137.75 31.95 131 31.95 127.22 42.73 133.92 42.73 137.75 31.95"/>
  <polygon class="cls-3" points="128.02 31.95 121.5 31.95 117.59 42.73 124.14 42.73 128.02 31.95"/>
  <polygon class="cls-3" points="149.78 31.95 141.96 31.94 132.44 58.4 140.25 58.4 149.78 31.95"/>
  <polygon class="cls-3" points="104.5 37.43 99.1 37.43 96.19 46.05 101.55 46.05 104.5 37.43"/>
  <polygon class="cls-3" points="96.69 37.43 91.47 37.43 88.44 46.05 93.69 46.05 96.69 37.43"/>
  <polygon class="cls-3" points="114.51 37.43 108.33 37.42 100.73 58.55 106.78 58.55 114.51 37.43"/>
  <polygon class="cls-1" points="233.01 46.51 223.46 46.51 218.71 53.21 221.95 53.21 224.72 49.42 228.78 49.42 221.32 58.79 225.04 58.79 232.36 49.55 233.01 46.51"/>
  <polygon class="cls-1" points="256.52 49.46 257.48 46.51 247.78 46.51 246.86 49.46 252.71 49.46 244.63 58.79 248.27 58.79 251.33 55.34 253.32 58.79 257.02 58.79 253.59 52.79 256.52 49.46"/>
  <path class="cls-1" d="M230.92,58.79l4.26-12.28h10.95l-4.25,12.28h-10.95ZM234.68,56h5.37l2.31-6.71h-5.36l-2.33,6.71h0Z"/>
  <polygon class="cls-1" points="214.1 39.34 219.04 31.79 212.34 31.79 207.38 39.34 214.1 39.34"/>
  <polygon class="cls-1" points="198.35 39.29 197.56 31.79 191.37 31.79 192.16 39.29 198.35 39.29"/>
  <polygon class="cls-1" points="216.08 46.48 217.86 40.75 205.25 40.75 207.99 31.78 201.8 31.78 199.05 40.75 187.96 40.75 186.17 46.48 193.16 46.48 191.65 51.16 183.57 58.79 191.24 58.79 197.53 52.51 199.49 46.48 201.74 46.48 197.98 58.79 212.22 58.79 214.9 50.07 209.01 50.07 207.78 53.65 205.71 53.65 207.93 46.48 216.08 46.48"/>
</svg>