<?xml version="1.0" encoding="UTF-8"?>
<svg xmlns="http://www.w3.org/2000/svg" version="1.1" viewBox="0 0 283.5 283.5">
  <defs>
    <style>
      .cls-1 {
        fill: #e71f19;
      }
    </style>
  </defs>
  <!-- Generator: Adobe Illustrator 28.6.0, SVG Export Plug-In . SVG Version: 1.2.0 Build 709)  -->
  <g>
    <g id="_レイヤー_1" data-name="レイヤー_1">
      <path class="cls-1" d="M8.6,140.2c.3-.9.8-1.8.8-2.7-.4-14.6,3.4-28.4,8.1-42,6.7-19.3,18.1-35.8,32.8-49.9,9.8-9.4,21-17.1,33.5-22.9,10.2-4.8,20.8-8.4,31.7-10.9,4.3-1,8.8-1.3,13.3-2,1.5-.2,2.9-.6,4.3-.9,4.2,0,8.5,0,12.7,0,1.9.2,3.9.5,5.8.7,16.6,1.4,32.5,5.6,47.4,12.8,15.8,7.6,29.5,18.2,41.2,31.5,8.3,9.3,15.2,19.4,20.6,30.5,3.9,7.9,6.3,16.4,9.4,24.8-1.2.6-1.7,1-2.3,1.2-.6.2-1.2.3-2,.5-10.2-36.9-32.1-64.9-65.5-82.9-22.4-12.1-47-16.8-72.4-13.7C67.7,21.7,28.9,62.9,16.3,114.4c-3.3,13.5-3.9,27.5-1.9,41.6,2,14,4.9,27.7,11.5,40.4,6.5,12.4,13.5,24.4,23.8,34.1,10,9.4,19.8,19,33,24.5-6.2,1.9-10.2.9-16.4-4.3-6.1-5.1-12.6-9.9-18.2-15.6-9.5-9.7-17.9-20.2-24.1-32.5-6-11.9-10.1-24.3-12.6-37.3-1.1-5.8-1.3-11.9-2-17.8-.2-1.5-.6-2.9-.9-4.3,0-1,0-2,0-3Z"/>
      <path class="cls-1" d="M137.5,274.5c-3.4-.5-6.8-1.3-10.2-1.5-10.3-.4-20.1-3.5-29.7-6.8-4.9-1.7-9.7-3.7-14.6-5.6.6-1.5,1-2.2,1.5-3.6.8,1.1,1.3,1.9,1.3,2,2.7.3,5,0,6.8.9,9.8,4.6,20.2,7.2,30.8,8.5,13.6,1.6,27.2,1.8,40.9-.9,8.9-1.8,17.5-4.2,25.9-7.6,11.4-4.7,21.6-11.1,31.3-18.7,9.6-7.5,18-16.2,24.6-26.3,5.5-8.4,10.5-17.3,14-26.7,4.2-11.2,6.7-23,9.9-34.6-.4-.2-.7-.3-1.1-.5,1.2-.2,2.4-.5,4.1-.8-3.2,35-17.2,64-43.1,87.6-2.1-3-3.8-1.2-5.7.6.8.6,1.6,1.2,2.5,1.9-11.6,10-24.1,18.3-38.8,22.8-8.7,2.7-17.4,4.9-26.2,7.3-1.9.5-3.6.5-4.9-1.6-.4-.6-1.9-.5-3.2,0,.5.5,1,1.1,2,2.2-1.9,0-3.5.5-4.5,0-2.7-1.7-4.1-.1-5.6,1.6h-8.2Z"/>
      <path class="cls-1" d="M274,150c-1.4.2-2.8.4-4.2.6-.7-11-1.3-22.4-2-34.2,1.9-.3,3.8,0,4,3.6.3,6.9,1,13.9,1.6,20.8.1,1.3.5,2.7.7,4v5.2Z"/>
      <path class="cls-1" d="M175.7,69.8c2.5-4.2,4.8-8.1,7.2-12,2.9-4.6,2.8-6.1-1.9-10.1-2.8,4.3-5.5,8.5-8.3,12.7-1.3,2-1.8,5.2-5.5,4.5.6-2.2.8-4.7,1.9-6.7,2.1-3.9,4.8-7.5,7.5-11.7-3.6-.9-6,.5-7.7,3.1-2.1,3.2-3.9,6.6-6.1,9.8-.6.8-1.9,1.2-2.9,1.7-.2-1.2-1-2.7-.6-3.5,2.9-4.7,5.6-9.8,9.5-13.5,2.3-2.2,6.8-2.3,10.3-3.4-.6-.7-1.6-1.8-2.6-3-2.9-3.7-2.8-7.9.6-11,.8-.7,2.4-.6,3.6-.9,0,1.1.2,2.4-.3,3.2-2.2,4-1.9,5.3,2.1,7.7,1.1-2.1,2-4.3,3.4-6.1.7-.9,2.3-1,3.5-1.5.2,1.3.9,2.8.5,3.9-.7,1.9-2.1,3.6-3.3,5.5,3.1,2,5.2,1,6.9-1.5.6-.8.7-2,1.4-2.6.9-.7,2.2-1,3.4-1.5.2,1.2.9,2.6.5,3.5-2.7,6.5-5.6,8-12.6,6.7-.8-.1-1.6-.2-2.4-.4-.4.4-.7.9-1.1,1.3.9.4,2,.6,2.7,1.2,4.1,3.8,4.7,8.4,1.8,13.1-2.7,4.3-5.5,8.5-8.6,13.2,14.8,8.4,26.5,20,33.4,36.1-.7-.7-1.5-1.4-2.6-2.3-1.2,1.4-2.4,2.7-3.4,3.9-4.6-.5-9.2-1.1-13.7-1.3-1.1,0-2.2,1.5-2.7,1.8-2.7-.4-5.1-1.2-7.4-.9-6.3.9-6.1,1.1-6.2,7.5,0,1.6-1.1,3.2-2.7,5.1-.4-1.1-1.1-2.3-1-3.4.6-3.7-.1-7.7-2.4-11.1-2.4,1.8-4.8,3.5-7.2,5.3-1.9-1.6-2.3-3-.2-4.6,1.3-1,2.7-1.9,3.8-3.1,5.2-5.4,9-11.3,8-19.3-.2-1.3,1.2-2.8,1.9-4.2.8,1.2,2.1,2.3,2.4,3.7,1.1,5-.8,9.5-2.9,14-1,2.1-1.1,4.6-1.6,6.8,1,.3,1.1.4,1.2.4,9.8-1.5,9.7-1.5,9.3-11.2-.2-3.9.4-7.9,0-11.8-.1-1.5-1.4-3.3-2.7-4.1-15.2-9.8-31.7-13.9-49.9-11.8-9.1,1.1-17.4,4.1-25.5,7.9-.5.2-.9.6-1.6,1,6.1,2.4,6.5,3.1,6.1,9.8,0,.5,0,1-.1,1.5-.4,6.9-1.9,6.8,6.5,8.8,1.2.3,2.2,1.8,3.3,2.7-1.5.4-3.1,1.5-4.3,1.2-10.9-2.8-10.9-2.8-9.9-14,.1-1.3,0-2.7,0-4-5-.2-5.8.5-5.1,5,.7,5-.2,9.5-4,13-.9.8-2.8.5-4.2.7.3-1.4.1-3.1.9-4,3.8-4.2,4.1-9.2.2-13.9-1,.9-2,1.8-3,2.8,2.7,3,1.3,5.4-.8,7.6-1.3,1.3-2.8,3-4.4,3.3-9.5,1.9-11.6,10.2-14.7,17.3-3.9,8.8-4.9,18.2-5.5,27.7-.1,1.6-2.1,3.1-3.6,4.4-1.6-26.5,7.9-48.7,28-65.3,25.7-21.3,54.8-23.6,85-11.1ZM197.8,92.3c-.5.2-1,.4-1.4.6.3,3.1.5,6.2,1.1,9.2.1.8,1.2,1.9,2,2.1,2,.4,4.1.4,7.5.6-3.4-4.7-6.3-8.6-9.1-12.5ZM192.6,104.3c1.1-5.8-3.4-11,2.7-14.7-1.7-1.5-3.2-2.9-4.9-4.4-.4.7-.6,1-.6,1.3,0,5.2-.1,10.3,0,15.5,0,.7,1.5,1.3,2.7,2.3Z"/>
      <path class="cls-1" d="M178.2,206.5c-3.2-.6-4.2-2.2-3.3-5.6,1.1-4.1,1.9-8.5,0-13.2-3.7,6.2-7.2,12-10.9,18.1-1.8-1.2-2.9-1.9-4.4-2.8,6.3-8.5,12.6-16.8,14.5-27.9-2.7.3-4.9.8-7.1.7-1.1,0-2.1-1.4-3.1-2.2,1-.8,1.9-2.1,2.9-2.2,4.1-.6,8.3-.7,12.5-1.3.9-.1,2-1.3,2.3-2.2.4-1.4.1-3,.1-5.2-2.1.1-4.3.1-6.4.4-2.3.3-4.6,1.1-7,1.1-1,0-2-1.3-3-1.9.8-.8,1.6-2.2,2.5-2.4,3-.6,6.2-.9,9.3-1.1,6.1-.5,6.1-.5,5.5-7.3-4,.4-8.1.9-12.1,1-1.4,0-2.8-1.3-4.1-2,1.1-.8,2.1-2.1,3.3-2.3,3.1-.5,6.2-.7,9.3-.8,2.5-.1,4.3-.7,4.5-3.8,0-1,1.4-1.9,2.2-2.9.7,1.1,2.1,2.2,2,3.2-.2,3.1,1.6,3.3,3.9,3.6,3.3.3,6.7.8,10,1.6.9.2,1.6,1.7,2.4,2.6-1.1.5-2.3,1.4-3.4,1.3-4.3-.4-8.5-1.1-13.2-1.7-.2,2.5-.4,4.5-.6,7.1,5.3.8,11.3-.9,15.7,4.6-5.5,2.5-10.8-2.2-15.8,1.1v5.4c4.4.6,8.8,1.3,13.2,1.9,1.9.3,4.6-.5,4.3,2.5,0,.8-2.6,1.4-3.7,1.9-1.7,3.7-3.4,7.5-5.4,12,.4.5,1.3,1.7,2.8,3.6,15.2-18.3,21.3-38.8,17.6-62.3,1.6-.2,2.9-.3,4.3-.4,3.9,25.5-3,47.5-19.4,66.6-2.4,2.7-5.3,4.9-7.7,7.6-3.2,3.7-7.6,2.8-11.7,3.5,4.6-3.8,9.2-7.7,13.6-11.4-2-4-4-5-7.4-2.8-1.7,1.1-3.9,1.4-5.8,2-1,4.2-2,8.4-3,12.6ZM180.1,173.3c-3.8,5.9-.3,10.7.2,16.3,2.9-1.1,5.3-1.9,7.6-2.8-2.7-4.7-5.1-8.8-7.8-13.5ZM186,174.5c1.9,3.3,3.4,6,5.6,9.9,2.1-3.8,3.5-6.6,5.3-9.9h-10.8Z"/>
      <path class="cls-1" d="M104.1,188.9c5.9-6.9,7.4-14.4,6.1-22.7,0-.6-.1-1.3,0-1.9,2.1-6.1-1.1-7.3-6.9-8.9-.7-.2-2.2.4-2.4,1-.8,2.8-1.5,5.7-1.8,8.7-.3,2.6-.3,5.3.1,7.8.7,4-1.5,9.3,4.5,11.2-.7,0-1.4-.2-2.1-.2-1.3.1-2.5.4-3.7.7.6,1,1.3,2,1.6,3.1.3,1.3.3,2.7.3,4,0,3.6-.2,7.2,0,10.7,0,.8,1.1,1.9,1.9,2.4,17.1,10.6,35.4,14.4,55.2,9.8,5.7-1.3,11.2-3.1,16.9-4.8,1.5,2.4.4,3.8-2.3,4.9-10.3,4.3-21.1,6-31.7,6.1v-4.3c-7.5,6.9-14.7,2.5-21.3.7-15.4-4.2-28.2-13-38.4-25.7,1.8-1.1,4.2-2.1,1.8-4.6-3,3.3-3.6,3.3-5.9-.4-6.6-10.6-11.9-21.7-13-34.3-.1-1.8,1.4-3.7,2.7-5.4,2.4,9.8,3.7,19.6,9.4,28.9,1.6-10.4,3.6-19.9-.3-29.3-.4-1,.5-2.4.7-3.6,1,.7,2.4,1.2,2.9,2.2,1.1,2.1,1.7,4.4,2.7,7.3,2.9-2.1,5.6-3.9,8.2-5.9,1.7-1.3,3.2-2.9,5-3.9,1.3-.7,3-.5,4.5-.7-.7,1.3-1,3-2,3.9-2.7,2.4-5.6,4.7-8.7,6.4-6.2,3.3-8.1,8.3-6.8,15.1,3,.2,4.8-1.6,6.6-3.8.7-.9,2.1-1.2,3.2-1.7.1,1.3.7,2.8.2,3.9-1.5,3.7-4.7,5.4-8.5,6-5.1.8-3.9,5.4-4.4,8.3-.3,1.5,2.6,3.7,4.3,5.3.3.3,2.1-.6,2.7-1.3,1.1-1.5,1.7-3.4,2.8-4.8.7-.9,2-1.3,3-2,.2,1.1,1,2.5.6,3.2-1.9,3.5-4.1,6.8-6.6,10.7,2.2,2.1,5.1,5,8.7,8.5.5-4.4,1.2-8.2,1.3-11.9.3-5.1.3-10.1.2-15.2,0-4.6-.6-9.2-.8-13.8-.1-4.1,2.8-7.7,6.7-7.1,4,.6,7.9,2.5,11.7,4.3.9.4,1.4,2.2,1.6,3.5.4,2.7.8,5.6.5,8.3-.6,5.8-1.1,11.7-2.7,17.2-.9,3.2-4.7,3.9-8.6,3.9Z"/>
      <path class="cls-1" d="M151.3,176.3c-.9,8.8-1.8,17.5-2.7,26.3-1.9.2-3.1.4-4.7.5,1-8.8,1.9-17.3,2.9-26.6-3.4,2.1-3.6,2.9-4.5,11.9-.4,4-.9,8.1-1.4,12.1-.5.1-1,.3-1.5.4-.6-1.2-1.8-2.5-1.8-3.7,0-3.7.4-7.5.7-11.2,0-1.3.3-2.6.4-3.9-.4-.1-.8-.2-1.2-.4-.5,1.2-1.4,2.4-1.5,3.6-.1,4.7.1,9.5,0,14.2,0,.9-.7,1.8-1.1,2.7-.9-.5-2.4-.7-2.6-1.4-.7-2.1-1.5-4.3-1.2-6.4.4-4.3,1.5-8.5,2.2-12.7.1-.8-.2-1.6-.3-2.4l-1.1-.5c-.7,1.1-1.9,2.2-2,3.4-.7,7.2-1.2,14.4-1.8,21.6,0,1.2,0,2.4,0,3.8-2.8.4-4.3-.3-4.1-3,.3-6.5.4-13,1.1-19.4.2-1.6,2.2-3,3.5-4.6,0,0-.4-.4-.8-.5-5.7-1.3-6.8-3-5.5-8.9.2-1,.4-2,.8-2.9,1.1-2.2.6-3.7-1.7-4.8-2.5-1.2-3.4-3.2-2.2-5.9,2-4.4,4-8.8,6.4-13.1.5-.8,2.3-.9,3.5-1.3,0,1.2.4,2.6,0,3.6-1.5,3.4-3.3,6.7-5.1,9.9-1.3,2.3-.7,3.5,2,4.2,1.4-2.2,3.4-4.3,4.3-6.8,1.8-5,5.6-6.6,10.4-7.1,1.4-.1,2.7-.3,3.9-.5.3-.4.5-.6.5-.9.6-1.6.9-4.3,1.8-4.5,2.8-.7,2.1,2.2,2.8,3.7.4.9,1.7,1.5,2.8,1.8,1.8.4,3.8,0,5.5.7,1.2.4,2,1.9,3.1,3-1.2.4-2.4.9-3.6,1.3-.4.1-1,0-1.7,0-.4,2.7-.7,5.4-1.1,8.3,1.3.3,2.7.5,3.8,1.1,1,.6,1.8,1.7,2.6,2.6-1.1.5-2.1,1.4-3.2,1.6-2.1.3-4.2,0-6.5,0-.7,2.9-1.4,5.3,2.5,6.8,3.7,1.5,5.7,4.5,5.5,8.9-.2,5,.3,10,.1,15-.1,3.3-4.8,5.9-7.8,4.6-.6-.3-1.2-1.4-1.1-2,.2-.8,1.1-1.9,1.7-1.9,3.4.1,3.5-1.8,3.3-4.4-.3-4.1-.3-8.2-.7-12.3-.2-1.9-.6-4.1-3.5-3.7ZM146.9,165.7c-2.6.5-4.8,1.1-7,1.3-1,0-2-.9-3-1.4.6-1,1.1-1.9,1.7-2.9.6-1.1,1.8-2.1,1.9-3.3.1-2.3-.3-4.7-.5-7.5-7.5,1.1-6.3,8.5-9.5,11.9,5.2,4.3,4.7,11.1,7.8,15.2,2-2.2,3.5-5,5.8-6.1,3.5-1.7,3.7-3.8,2.8-7.2ZM144.9,155.9c-.3.1-.5.3-.8.4,1,1.6,1.7,4.4,2.9,4.6,3.4.5,3.5-2.7,4-5.1.2-.9.3-2.3-.2-2.9-.8-1-2.2-1.9-3.4-2-.8,0-1.9,1.4-2.5,2.4-.4.6,0,1.7,0,2.6ZM132.1,174.5c-1.1-2.6-1.9-4.6-2.7-6.5-.3,0-.6,0-.9,0-.8,2.2-1.6,4.5-2.9,7.8,2.7-.5,4.3-.8,6.5-1.3Z"/>
      <path class="cls-1" d="M135.5,124.9c-4.4.5-8.8,1-13.2,1.6-1,.1-2,.9-2.8.7-.9-.2-2-.9-2.5-1.7-.2-.4.8-2.1,1.4-2.2,7-1.6,5.6-7.7,6.3-12.2.9-6.1.9-12.4,1.5-18.6.1-1,1.4-1.9,2.2-2.8.8,1.1,1.6,2.1,2.2,3.2.3.6.3,1.4.4,2.1,5.9-.4,6.5-1.2,5.4-6.5-.3-1.5-.4-3-.6-5-1.7.2-3.4.4-5,.5-2.5.2-4.9.5-7.4.5-.8,0-2.1-1.2-2.1-1.8,0-.8,1.1-2.2,1.8-2.2,11.6-.9,23.3-3.4,34.9-.2,1.2.3,3,2.2,2.9,3.2-.2,2-1.9,1.7-3.8,1.4-4.4-.7-8.9-.9-13.4-1.3-2.5-.2-2.5,1.5-2.4,3.2.3,5.2.7,10.3.8,15.5.1,6.3,0,12.7,0,19.7,1.9-2.3,3.6-4,4.8-6,.6-.9.5-2.5.2-3.7-.6-3-1.6-6-2.2-9-.1-.6.7-1.4,1-2.1.7.4,1.6.8,1.9,1.4,1.2,2,2.1,4.2,3.8,7.5,1.9-4.3,3.6-7.8,4.8-11.4.2-.5-1.7-2.4-2.6-2.5-1.8,0-3.6.9-5.4,1.2-1.3.2-2.7-.1-4-.2.8-1.1,1.5-2.6,2.6-3.4,1.4-.9,3.2-1.3,4.9-1.6,2.8-.6,6.1-1,7.4,1.9,1.1,2.5,1.1,5.9.4,8.5-1.1,3.9-3.6,7.4-5.1,11.2-.5,1.4-.6,3.5.1,4.7,2.7,4.8,5.7,9.4,8.6,14.1.6,1,.8,2.2,1.2,3.4-4.9,1.6-6.2-2.1-7.8-4.6-2.5-3.7-4.4-7.7-6.9-12.1-2.4,3-4.5,5.7-6.7,8.3-2.9,3.4-6.3,6.3-6.1,11.5,0,1.2-1.4,2.7-2.5,3.5-.8.5-2.4.1-3.3-.3-.3-.2-.1-1.9.2-2.8,1.6-4.3,3.4-8.6,5.1-12.9-.4-.5-.8-1-1.2-1.5ZM137.6,121.3c.2-2.9.4-5.4.4-7.9,0-.7-.5-2-1-2.1-2.3-.7-4.8-1.5-7.2-1.4-.6,0-1.2,3.4-1.4,5.2-.2,1.8.1,3.6.2,5.6,3.3.2,6.2.5,9,.7ZM130.1,104.9c6.7,1.4,7.6,1.2,7.7-2.2,0-1.3-1.2-3.7-2.1-3.8-4.1-.7-5.8,1.3-5.5,6Z"/>
      <path class="cls-1" d="M261.8,116.9c.5,6,1.1,11.3,1.2,16.7,0,.9-1.9,1.8-2.9,2.7-.4-.1-.8-.2-1.2-.4-.3-4.6-.6-9.1-1-14-1.2.3-2.2.5-3.5.8.6,3.5,1.4,6.8,1.7,10,.1,1.1-.7,3.1-1.5,3.4-2.3.7-1.2-1.2-1.5-2.3-.9-3.2-2.4-6.3-3.8-9.6-1.9,0-2.6.7-2.6,3.1-.2,4.2,2,8.8-1.1,12.7-1.4,1.7-3.4,3.4-5.4,4.1-4,1.3-8.2,2-12.4,2.7-.9.1-1.9-.9-2.8-1.4.6-.9,1-2.4,1.8-2.7,2.9-.9,6-1.7,9-2.1,8.2-1.3,7.3-3,6.8-9.5-.4-5-1-9.1,4.8-11.4.8-.3,1.2-3.5.7-5-2.7-8.1-5.7-16.1-8.7-24.1-.4-1.1-1.4-2-2.1-3-.5.2-1,.4-1.5.6,2.8,9.3,5.7,18.7,8.5,28.1-3.2-.2-5-1.9-5.9-4.8-2.1-6.8-4.3-13.6-6.3-20.5-.4-1.2-.1-2.8.2-4,1.3-4.1,5.2-5.2,7.6-1.8,2.9,4,5.2,8.5,7.1,13,2,5,3.1,10.4,4.9,15.5,1.6,4.6,4.5,5.7,9.8,3.1Z"/>
      <path class="cls-1" d="M106,29.3c-2.8.6-5.9.6-8.5,1.8-6.6,3.1-13.2,6.4-19.5,10.1-2.8,1.7-4.8,4.7-7.3,6.9-1.1.9-2.5,1.4-3.8,2,0-1.8-.5-4.2.4-5.3,1.9-2.4,4.5-4.4,7.1-6,6.1-3.7,12.3-7.6,18.8-10.4,4.2-1.8,8.8-4.3,13.8-2.7,4.3,1.3,5.2,3.6,3.5,7.7-2.3,5.7-4.7,11.4-7.2,17.5,4.8.6,9.5.9,14,1.8,5.1,1,10.1,2.4,15,4,1,.3,1.5,2,2.2,3-1.3.3-2.7,1-3.9.8-8.3-1.6-16.5-3.4-24.8-4.9-4.2-.8-6.6,1.6-9,6.8-2.1,4.4-4.9,8.5-7.5,12.7-1.7,2.7-3.5,5.3-5.4,7.8-1.2,1.6-2.8,3.5-4.9,1.7-2-1.7-.2-3.3,1-4.7,6.8-7.8,12.1-16.6,16.6-25.8,2.7-5.5,5.5-10.9,8.1-16.5,1-2.1,1.2-4.5,1.8-6.8-.2-.5-.5-1-.7-1.5Z"/>
      <path class="cls-1" d="M205,58.4c-1.7-.8-3.5-1.6-5.2-2.6-1.7-1-5.4-.9-4.1-4.1,1.3-3.2,3.8-.7,5.7,0,2.1.8,4.1,1.9,6.2,2.8.2-.3.5-.6.7-.9-1.1-1-2.2-1.9-3.3-3-3.1-3-3.9-7.2-1.8-10.5.5-.9,1.9-1.2,2.9-1.8.4,1,1.4,2.4,1,3.1-2,4.2.3,6,3.6,7.5,1.1-1.4,2-2.9,3.1-4.1.5-.5,1.9-.9,2-.7.6.6,1.2,1.8,1,2.4-.6,1.9-1.6,3.6-2.7,5.8,3,1.6,5.9,3.2,8.8,4.7-1.4,1.8-2.6,2.4-5.2,1.7-2.1-.6-4-1.6-6.1-2.4-.2.3-.4.6-.7.9,1.5,1.4,3.1,2.8,4.6,4.3,1.3,1.3,3.3,2.8,1.3,4.6-.6.5-2.9-.7-4.3-1.4-1-.5-1.7-1.5-2.9-1.9.5.8,1.3,1.6,1.5,2.5.7,2.9,2.1,6.2,1.4,8.9-1.1,4.4-3.5,8.4-5.7,12.5-.5.8-2.2,1-3.4,1.4,0-1.3-.6-2.7-.1-3.7,1-2.4,2.5-4.6,3.9-6.8,2.5-4.2,2.1-7.9-1.5-11.3-2.5,4.2-4.9,8.4-7.3,12.6-.9,1.6-1.8,3.3-3.9,2.1-2.2-1.3-.6-2.7.2-4.1,2.5-4.3,4.9-8.5,7.3-12.8-6.1-2.4-10.3-.6-12.1,5-.5,1.7-1,3.9-3.3,2.8-.8-.4-1.3-3.1-.9-4.3,2.7-6.6,7.9-10.1,15-8.6,1.3.3,2.5.5,3.8.8.2-.5.3-.9.5-1.4Z"/>
      <path class="cls-1" d="M232.1,186c2.2-5.7,4.5-11.4,6.7-17.2,2.8.7,4,1.9,2.8,4.4-4.4,9.7-8.6,19.5-13.2,29.2-.9,1.9-2.7,3.6-4.4,5-.7.6-2.5-.1-3.7-.3.4-1.1.6-2.2,1.2-3.1,2.9-4.4,5.8-8.8,8.6-13.1-2.4-2-5.1-3.2-5.7-5.1-.5-1.6,1.4-4,2.1-6.1.9-2.6,1.7-5.2,2.3-7.9.2-.9-.5-1.9-.8-2.9-.9.4-2,.5-2.6,1.1-1.3,1.4-2.4,2.9-3.3,4.5-3.2,5.6-6.4,11.2-9.4,16.9-.6,1.1-.3,2.7-.5,4,1.5-.3,3.2-.2,4.6-.9,1.8-.9,3.4-4.4,5.5-1.9,2,2.5-1.3,4-3,5.4-3.8,3.3-5.9,3.7-9.4.8-1.4-1.2-2.6-3.8-2.4-5.6.3-2.7,1.8-5.4,3.2-7.9,2.6-4.8,5.4-9.6,8.4-14.1,1.5-2.2,3.6-4,5.5-5.9,2.2-2,4.3-1.8,6.7,0,2.3,1.8,3,3.7,2.1,6.5-1.1,3.4-2.2,6.8-3.1,10.3-.3,1.2.2,2.5.3,3.8.5,0,1,0,1.4,0Z"/>
      <path class="cls-1" d="M36.2,171.9c7.5-3.2,14.5-6.4,21.8-1.7,2.9,1.9,5.6,4.2,7.7,6.9,3,4,5.4,8.6,8,13.1-1.4.6-2.5,1-3.6,1.5-2.7-4.2-5.4-8.3-8-12.5-2.9-4.6-7-7-12.6-6.2-3.4.5-6.8,1.2-10,2.3-.8.3-1.6,2.5-1.3,3.5,3.2,8.7,6.5,17.5,12.8,24.7.9,1.1,1,3,1.5,4.5-.5.4-.9.7-1.4,1.1-1.3-.9-3-1.6-3.7-2.9-3.6-5.9-7.1-11.9-10.5-17.9-1.1-2-1.5-4.4-2.3-6.7-.8-2.5-2.2-3.9-5-2.4-1.3.7-2.8,1.3-4.2,1.5-1,.1-2.1-.6-3.1-.9.5-.9.7-2.2,1.5-2.6,2.3-1.4,4.8-2.4,6.9-3.4-.8-8-1.5-15.4-2.2-22.9,3.3-.6,4.1.3,4.4,3.4.5,4.9,1.2,9.7,2,14.6.2,1,.9,2,1.4,3.1Z"/>
      <path class="cls-1" d="M40.2,84.8c-5.1,3.8-7.9,8.8-9.4,14.6-2.4,9.5-4.6,19-7.1,28.5-.3,1.2-1.9,2.1-2.9,3.2-.5-1.4-1.5-3-1.3-4.3.7-4.8,1.3-9.7,2.8-14.3,3-9.4,4.7-19.2,11.1-27.4,5.4-6.8,6.9-5.3,13.5-1.8,3.6,1.9,6.3,5.6,8.9,8.8,4.9,5.9,5.5,13.3,5.6,20.5,0,4.6-.9,9.3-1.6,13.9-.2,1.3-1,2.6-1.8,3.6-.6.7-1.8.9-2.7,1.4-.2-1.2-1-2.7-.5-3.6,4.6-9.5,3.1-19.1,0-28.3-1.9-5.7-6.2-10.7-12.3-13.3-.8-.3-1.5-.9-2.5-1.5Z"/>
      <path class="cls-1" d="M235.3,161.1c3.9-4.6,6.9,0,10,1.5,2.5,1.2,5.1,2.9,6.8,5.1,1.5,2,2.4,5,2.4,7.5,0,7.5-3.1,14.3-6,21-1.7,3.9-4,7.6-5.9,11.4-4.1,8-13.6,11.4-21.6,7.4-7-3.5-13.9-7.1-20.8-10.9-.9-.5-1.3-2.1-1.9-3.2,1.1-.3,2.6-1.1,3.4-.7,3.3,1.5,6.3,3.4,9.5,5.1,5,2.5,9.9,5,15,7.3,2.5,1.1,9.5-2.5,11.8-6.2,5.3-8.5,9.5-17.6,11.7-27.5,1.3-5.8-.4-8.8-5.5-11.7-3.2-1.8-6-4.2-8.9-6.3Z"/>
      <path class="cls-1" d="M107.2,126.6c2.2,3.7,6.6,5.9,11.3,7.8,1.1.4,2.7,2.4,2.4,3.2-.7,2.2-2.6,1.9-4.2.8-4.4-2.8-8.8-5.6-13.4-8.6-3.6,2.7-7.4,5.7-11.4,8.4-.8.5-2.3,0-3.4,0,.4-1.3.5-2.9,1.4-3.7,2.7-2.5,5.9-4.4,8.6-7,.7-.7.7-2.9.2-4.1-1.9-4.3-4.2-8.3-6-12.6-.3-.8.5-2.4,1.2-3.2,3.3-4,8.4-4.4,12.9-5,4.1-.6,8.4,5.8,6.9,9.9-1.7,4.6-3.9,8.9-6.3,14.2ZM96.3,110c1.5,2.7,2.6,4.5,3.6,6.3,1.1,1.9,2.1,3.9,3.1,5.8.4,0,.8.2,1.2.3,1.6-3.2,3.4-6.4,4.8-9.7,1.2-2.9-.6-5.9-3.8-5.5-3,.4-5.9,1.8-9,2.9Z"/>
      <path class="cls-1" d="M64.1,230.2c3.7-6.7,6.6-13.3,10.9-18.9,2.1-2.7,6.7-4.5,10.3-4.7,3.4-.2,7.2,1.8,10.5,3.5,7.9,4,15.5,8.4,24.4,10,3,.5,6,1.2,9,2,.9.3,1.5,1.4,2.3,2.2-1,.6-1.9,1.5-3,1.7-5.9,1-11.1-1.9-16.3-3.6-6.7-2.1-12.9-5.8-19.1-9.1-3.7-2-6.7-2.9-11.3-1-4.9,2-6.1,6-8.3,9.5-1.7,2.8-2.8,6.1-4.3,9.1-.5.9-1.6,1.6-2.4,2.3-.8-.9-1.5-1.7-2.6-3Z"/>
      <path class="cls-1" d="M193.8,237.3c1.5-.8,3-1.8,4.5-2.4,1-.4,2.2,0,3.3,0-.3,1.2-.2,3.1-1,3.5-4.1,2.3-8.4,4.4-12.7,6.4-2.1,1-4.4,1.8-6.6,2.5-.8.2-2.2,0-2.6-.6-.4-.5,0-1.8.1-2.7.1-1.2.8-2.5.4-3.5-2.4-6-5.1-11.9-7.5-17.9-.5-1.2,0-2.8,0-4.3,1.4.9,3.5,1.5,4.1,2.8,3.2,6.5,5.9,13.1,8.9,19.7,4.3-.7,4.8-1.4,3.3-5.5-1.7-4.7-3.5-9.3-5.3-13.9-.4-.9-1.4-1.6-2.4-2.7,1-.9,2-1.8,3.6-3.3,3.4,7.5,6.6,14.6,10,21.9Z"/>
      <path class="cls-1" d="M236.6,114.8c-2.3.8-3.4,1.1-4.8,1.6-.8-1.9-1.4-3.6-2.2-5.5-2.3.9-5,1.2-3.1,4.5,1.7,3,.2,4-2.6,4.5-3.1-7.2-6.3-14.4-9.5-21.8,2.7-1.8,4.4-.9,5.7,1.9,1.2,2.7,2.6,5.3,4.1,8.2,1.3-.6,2.3-1,3.9-1.7-1.1-2.4-1.9-4.8-3.2-6.8-1.8-2.8-.6-6.8-4-8.8.8-.7,1.5-1.5,2.3-2,.2-.1,1.3.8,1.6,1.4,3.9,8,7.7,16,11.8,24.5Z"/>
      <path class="cls-1" d="M150,253.5c1.2-.9,2.1-1.7,3.4-2.7,4.3,6.1,8.7,5.1,12.5-.7,1.1,1.5,1.8,2.3,2.4,3.2,3.5-2.1,4.8-6.5,3.1-10.8-1.7-4.2-3.6-8.2-5.2-12.4-.3-.8.5-2,.9-3,.9.3,2.4.3,2.7.9,3,6.7,7.2,13,6.2,21-.4,3.2-1.6,5.3-4.1,7.1-1.2.8-1.9,2.4-3.1,3.4-.8.6-2,1.1-3,1-1.6-.2-3.2-1.1-4.8-1.2-5.9-.3-6.8-.6-10.9-5.8Z"/>
      <path class="cls-1" d="M149.7,35.3c-.6,1.2-1.1,2.1-1.7,3.4,2.3.4,5.1,0,4.8,3.5-.2,3.4-2.8,7-6,7.8-3.8.9-7.7-.5-9.5-3.5-1.9-3.1-1.6-7.7.6-10.2,2.3-2.7,6.2-3.5,9.8-2.1.6.2,1.1.6,2,1.1Z"/>
      <path class="cls-1" d="M80.2,138.3c4.4-9.1,4.2-18.8,4.4-29-2.2,1.3-3.9,2.4-5.7,3.2-.7.3-1.8,0-2.7,0,.2-.9.2-2,.7-2.6,2.9-3.2,5.9-6.3,9-9.3.5-.5,1.9-.8,2.3-.4.7.6,1.3,1.8,1.3,2.7,0,3.6,0,7.2-.4,10.8-.8,7.1-1.8,14.2-2.9,21.3-.4,2.9-2.1,4.4-6,3.3Z"/>
      <path class="cls-1" d="M158,226.9c1.7,4.5,3.3,8.8,4.8,13-1.5.3-2.7.6-4.4,1-1.1-3-2.5-6.2-3.3-9.5-.8-3.1-2.1-4-5.3-3.2-2.4.6-5,.6-7.4.4-1,0-2-1.3-3-2.1,1-.7,1.9-2.2,2.9-2.1,7.7.4,14.7-1.9,21.8-4.6.9-.3,2.3.6,3.4.9-.5,1-.8,2.4-1.6,2.9-2.4,1.3-5,2.2-7.9,3.4Z"/>
      <path class="cls-1" d="M244.7,80.4c8.7,9.6,13.2,21.3,16.2,34-3.4-.1-5-1.4-6.1-4.7-2.8-8.1-5.3-16.4-10.7-23.4-1.3-1.7-3.2-4,.6-5.9Z"/>
      <path class="cls-1" d="M248.3,178.5c-1.6,4.1-2.8,7.9-4.6,11.5-2.1,4.5-4.7,8.8-7.1,13.2-.5.9-1.1,1.8-1.9,2.3-1.4,1-2.6,3.9-4.9,1.7-2.2-2.1.8-3,1.6-4.5,3.8-7.1,7.5-14.3,11.2-21.5.6-1.1.7-2.4,1.4-3.5.4-.7,1.7-1.5,2.2-1.3.9.3,1.5,1.4,2,2Z"/>
      <path class="cls-1" d="M113.1,261.6c-2.9-.7-5.1-1.1-7.2-1.8-6.7-2.4-13.2-5.2-18.5-10.3-.7-.7-1.6-1.4-1.9-2.3-.3-1-.2-2.2-.2-3.3,1.1.2,2.5,0,3.3.5,3.2,2.2,5.9,5.1,9.3,6.8,4.7,2.4,9.9,4,14.8,6.1,1.1.4,1.9,1.4,2.8,2.1-.9.8-1.8,1.6-2.5,2.1Z"/>
      <path class="cls-1" d="M120.2,249.9c-4.2-1.2-8.1-2-11.8-3.5-6.1-2.5-12-5.5-15.8-11.2-.5-.8-.3-2.1-.4-3.1,1.1.1,2.8-.2,3.3.5,6.4,7.6,15.2,10.3,24.3,12.7,1.1.3,1.8,1.9,2.7,2.8-.8.6-1.6,1.2-2.3,1.8Z"/>
      <path class="cls-1" d="M191,114.9v7.2c1.7,2,3.5,3.7,5.1,5.7,1.4,1.7,2.7,3.6,3.8,5.5,1.6,2.7,3.7,3.7,6.8,3.6,1.1,0,2.3,1.2,3.4,1.9-1.1.7-2.1,1.9-3.2,2-4.4.5-7.1-1.7-10.3-5-4.1-4.3-6.2-9.3-8.6-14.4-1.4-3-1.1-5.3,3.1-6.5Z"/>
      <path class="cls-1" d="M40.9,72.9c.2-4.3,3.3-7.5,7.3-7.5,3.5,0,5.9,2.9,5.8,6.9,0,4.4-3.4,7.8-7.5,7.7-3.3-.1-5.7-3.2-5.6-7.1ZM48.1,68.5c-1.4,2-2.5,3-2.8,4.3-.2.8,1.1,1.8,1.7,2.7.9-1.1,2.1-2.1,2.6-3.3.3-.6-.7-1.8-1.5-3.7Z"/>
      <path class="cls-1" d="M205.6,243.5c-1.2,1.5-1.6,2.4-2.3,2.7-5.7,2.7-11.4,5.4-17.2,7.9-.7.3-1.9-.6-2.8-1,.4-.9.5-2.3,1.2-2.7,5.6-2.9,11.3-5.6,17.1-8.2.8-.4,2.3.7,4,1.2Z"/>
      <path class="cls-1" d="M190.1,213.2c1.4-.9,2.4-1.5,3.9-2.5.7,2,1.3,3.6,1.9,5.4,1.4,4.4,2.9,8.7,4.1,13.1.3,1.1-.7,2.4-1.1,3.7-1-.7-2.5-1.2-2.8-2.1-2.1-5.7-3.9-11.5-5.9-17.6Z"/>
      <path class="cls-1" d="M123.2,187.7c-.4,4.2-.8,9.2-1.6,14.1-.2,1.2-1.8,2.2-2.8,3.2-.4-1.3-1.3-2.6-1.2-3.9.2-4.3.7-8.6,1.1-13,.1-1.2.2-2.5.7-3.7.4-.9,1.3-1.5,2.1-2.2.6.8,1.3,1.6,1.7,2.5.3.6,0,1.5,0,2.9Z"/>
      <path class="cls-1" d="M152.3,249.4c-1.8-.1-3.2-.2-4.7-.3-1.8-5.2-3.8-10.3-5.4-15.5-.3-.8.9-2.1,1.4-3.2.9.5,2.4.9,2.7,1.7,2.1,5.7,3.9,11.4,5.9,17.4Z"/>
      <path class="cls-1" d="M173.4,127.2c-.5-1.1-1-2.4-1.7-4.1,2,.4,3.3.6,5.3.9-1.3,5.4-2.6,10.8-4.1,16.1-.6,2.3-2.7,2.8-4.4,1.7-.6-.3-.1-2.8.3-4.2.6-2.1,1.5-4.2,2.4-6.2.7-1.6,1.6-3,2.3-4.3Z"/>
      <path class="cls-1" d="M233.8,119.5c2.1-.6,3.6-.1,4.1,2.3.6,2.9,1.6,5.7,2.1,8.7.2.9-.8,2.1-1.2,3.1-1-.6-2.7-1-2.8-1.7-.7-3.2-.9-6.6-1.4-9.9-.1-.9-.5-1.7-.7-2.5Z"/>
      <path class="cls-1" d="M214.9,112.1c1,3,1.9,5.7,2.8,8.4-1.4.5-2.6.9-3.9,1.4-.9-2.6-1.9-5.3-3-8.3,1.3-.5,2.5-.9,4-1.5Z"/>
      <path class="cls-1" d="M228.3,124.2c.7,3.1,1.3,4.9,1.5,6.7,0,.7-.3,1.9-.9,2.1-.6.3-2.1,0-2.3-.4-.7-1.5-1.6-3.2-1.4-4.7.1-1.1,1.6-2.1,3-3.7Z"/>
      <path class="cls-1" d="M230.6,155.5c-1.7.5-3.3,1-5,1.5,0-.9-.1-2.6.2-2.6,1.5-.4,3-.4,4.5-.5,0,.5.2,1.1.3,1.6Z"/>
      <path class="cls-1" d="M216.4,96.6c-1.4-.6-2.9-1.2-5.2-2.1,1.3-1,2.4-2.2,2.7-2.1,1.2.7,2.3,1.8,3.4,2.8l-.9,1.3Z"/>
    </g>
  </g>
</svg>