<?xml version="1.0" encoding="UTF-8"?>
<svg id="_レイヤー_1" data-name="レイヤー 1" xmlns="http://www.w3.org/2000/svg" xmlns:xlink="http://www.w3.org/1999/xlink" version="1.1" viewBox="0 0 283.46 283.46">
  <defs>
    <style>
      .cls-1 {
        fill: url(#_名称未設定グラデーション_10-3);
      }

      .cls-1, .cls-2, .cls-3, .cls-4, .cls-5, .cls-6, .cls-7, .cls-8, .cls-9, .cls-10, .cls-11, .cls-12, .cls-13, .cls-14, .cls-15, .cls-16, .cls-17, .cls-18 {
        stroke-width: 0px;
      }

      .cls-2 {
        fill: url(#_名称未設定グラデーション_10-2);
      }

      .cls-3 {
        fill: #3e3a39;
      }

      .cls-4 {
        fill: #4b86be;
      }

      .cls-5 {
        fill: #352f2d;
      }

      .cls-19 {
        clip-path: url(#clippath);
      }

      .cls-6, .cls-20, .cls-21, .cls-22, .cls-23, .cls-24, .cls-25, .cls-26, .cls-27, .cls-28, .cls-29, .cls-30, .cls-31 {
        fill: none;
      }

      .cls-7 {
        fill: url(#_名称未設定グラデーション_10);
      }

      .cls-8 {
        fill: #0f73b4;
      }

      .cls-9 {
        fill: #727171;
      }

      .cls-20 {
        stroke: #2f2724;
      }

      .cls-20, .cls-21, .cls-22, .cls-24, .cls-26, .cls-27, .cls-28, .cls-30, .cls-31 {
        stroke-linecap: round;
        stroke-linejoin: round;
      }

      .cls-20, .cls-27 {
        stroke-width: .96px;
      }

      .cls-21, .cls-22, .cls-23, .cls-24, .cls-25, .cls-26, .cls-27, .cls-28, .cls-29, .cls-31 {
        stroke: #221714;
      }

      .cls-21, .cls-25 {
        stroke-width: 1.07px;
      }

      .cls-10 {
        fill: #055697;
      }

      .cls-22, .cls-30 {
        stroke-width: .54px;
      }

      .cls-32 {
        clip-path: url(#clippath-1);
      }

      .cls-33 {
        clip-path: url(#clippath-3);
      }

      .cls-34 {
        clip-path: url(#clippath-2);
      }

      .cls-23 {
        stroke-width: .34px;
      }

      .cls-23, .cls-25, .cls-29 {
        stroke-miterlimit: 10;
      }

      .cls-24 {
        stroke-width: .77px;
      }

      .cls-11 {
        fill: #4d4948;
      }

      .cls-12 {
        fill: url(#_名称未設定グラデーション_9);
      }

      .cls-13 {
        fill: #1163aa;
      }

      .cls-14 {
        fill: #f3c921;
      }

      .cls-15 {
        fill: #595857;
      }

      .cls-26 {
        stroke-width: 3.83px;
      }

      .cls-16 {
        fill: #221714;
      }

      .cls-17 {
        fill: #666565;
      }

      .cls-18 {
        fill: #2f2724;
      }

      .cls-28 {
        stroke-width: .48px;
      }

      .cls-29 {
        stroke-width: .96px;
      }

      .cls-30 {
        stroke: #3e3a39;
      }

      .cls-31 {
        stroke-width: .51px;
      }
    </style>
    <clipPath id="clippath">
      <polygon class="cls-6" points="206.79 119.78 228.25 131.14 270.45 128.48 248.99 117.11 206.79 119.78"/>
    </clipPath>
    <linearGradient id="_名称未設定グラデーション_10" data-name="名称未設定グラデーション 10" x1="-264" y1="439.71" x2="-261.4" y2="439.71" gradientTransform="translate(6663.89 10879) scale(24.46 -24.46)" gradientUnits="userSpaceOnUse">
      <stop offset="0" stop-color="#fff"/>
      <stop offset=".09" stop-color="#f3f3f3"/>
      <stop offset=".26" stop-color="#d6d4d3"/>
      <stop offset=".49" stop-color="#a5a1a0"/>
      <stop offset=".76" stop-color="#645c5a"/>
      <stop offset="1" stop-color="#231815"/>
    </linearGradient>
    <clipPath id="clippath-1">
      <polygon class="cls-6" points="206.79 122.18 228.25 133.54 228.25 131.14 206.79 119.78 206.79 122.18"/>
    </clipPath>
    <linearGradient id="_名称未設定グラデーション_10-2" data-name="名称未設定グラデーション 10" x1="-236.46" y1="440.92" x2="-233.86" y2="440.92" gradientTransform="translate(2156.18 3761.68) scale(8.24 -8.24)" xlink:href="#_名称未設定グラデーション_10"/>
    <clipPath id="clippath-2">
      <polygon class="cls-6" points="30.84 137.14 52.3 148.51 228.25 133.54 206.79 122.18 30.84 137.14"/>
    </clipPath>
    <linearGradient id="_名称未設定グラデーション_9" data-name="名称未設定グラデーション 9" x1="-274.91" y1="439.14" x2="-272.31" y2="439.14" gradientTransform="translate(20882.76 33443.61) scale(75.85 -75.85)" gradientUnits="userSpaceOnUse">
      <stop offset="0" stop-color="#fff"/>
      <stop offset=".15" stop-color="#ededed"/>
      <stop offset=".46" stop-color="#c1c0c0"/>
      <stop offset=".89" stop-color="#797877"/>
      <stop offset="1" stop-color="#666564"/>
    </linearGradient>
    <clipPath id="clippath-3">
      <polygon class="cls-6" points="228.25 131.14 228.25 133.54 52.3 148.51 52.3 187.12 270.45 167.1 270.45 128.48 228.25 131.14"/>
    </clipPath>
    <linearGradient id="_名称未設定グラデーション_10-3" data-name="名称未設定グラデーション 10" x1="-275.98" y1="452.44" x2="-273.38" y2="452.44" gradientTransform="translate(-10243.77 6485.05) rotate(90) scale(23 -23)" xlink:href="#_名称未設定グラデーション_10"/>
  </defs>
  <polygon class="cls-16" points="248.99 117.11 206.79 119.78 206.79 122.18 65.26 134.21 61.17 132.2 29.5 134.44 29.23 134.3 29.23 134.45 22.42 134.94 28.72 138.81 28.58 138.83 29.23 139.25 29.23 139.26 28.58 138.85 28.58 138.87 22.42 134.94 22.42 138.78 24.05 139.77 24.04 139.77 24.04 175.69 45.5 188.1 50.62 187.62 53.91 189.36 85.85 186.35 85.85 184.04 270.45 167.1 270.45 128.48 248.99 117.11"/>
  <polygon class="cls-26" points="248.99 117.11 206.79 119.78 206.79 122.18 65.26 134.21 61.17 132.2 29.5 134.44 29.23 134.3 29.23 134.45 22.42 134.94 28.72 138.81 28.58 138.83 29.23 139.25 29.23 139.26 28.58 138.85 28.58 138.87 22.42 134.94 22.42 138.78 24.05 139.77 24.04 139.77 24.04 175.69 45.5 188.1 50.62 187.62 53.91 189.36 85.85 186.35 85.85 184.04 270.45 167.1 270.45 128.48 248.99 117.11"/>
  <g class="cls-19">
    <rect class="cls-7" x="206.79" y="117.11" width="63.66" height="14.03"/>
  </g>
  <g class="cls-32">
    <rect class="cls-2" x="206.79" y="119.78" width="21.46" height="13.76"/>
  </g>
  <g class="cls-34">
    <rect class="cls-12" x="30.84" y="122.18" width="197.41" height="26.33"/>
  </g>
  <g class="cls-33">
    <rect class="cls-1" x="48.84" y="109.73" width="225.07" height="96.13" transform="translate(-25.26 30.88) rotate(-10.14)"/>
  </g>
  <polygon class="cls-3" points="57.3 173.18 30.84 175.77 55.53 188.83 81.98 185.33 57.3 173.18"/>
  <polygon class="cls-30" points="57.3 173.18 30.84 175.77 55.53 188.83 81.98 185.33 57.3 173.18"/>
  <path class="cls-16" d="M29.23,134.3v42l24.69,13.06v-41.99l-24.69-13.07ZM52.3,187.12l-21.46-11.35v-38.63l21.46,11.37v38.61Z"/>
  <path class="cls-22" d="M29.23,134.3v42l24.69,13.06v-41.99l-24.69-13.07ZM52.3,187.12l-21.46-11.35v-38.63l21.46,11.37v38.61Z"/>
  <polygon class="cls-22" points="228.25 131.14 206.79 119.78 248.99 117.11 270.45 128.48 228.25 131.14"/>
  <polygon class="cls-22" points="228.25 133.54 206.79 122.18 206.79 119.78 228.25 131.14 228.25 133.54"/>
  <polygon class="cls-22" points="228.25 133.54 206.79 122.18 30.84 137.14 52.3 148.51 228.25 133.54"/>
  <polygon class="cls-22" points="270.45 167.1 52.3 187.12 52.3 148.51 228.25 133.54 228.25 131.14 270.45 128.48 270.45 167.1"/>
  <polygon class="cls-16" points="53.92 147.37 53.92 189.36 85.85 186.35 85.85 144.36 53.92 147.37"/>
  <polygon class="cls-22" points="53.92 147.37 53.92 189.36 85.85 186.35 85.85 144.36 53.92 147.37"/>
  <line class="cls-22" x1="120.6" y1="142.9" x2="120.6" y2="181.14"/>
  <line class="cls-22" x1="100.85" y1="131.25" x2="120.6" y2="142.91"/>
  <polygon class="cls-13" points="55.67 160.74 52.3 160.94 52.3 151.55 45.5 152.19 45.5 188.1 52.3 187.46 52.3 176.84 55.67 176.64 55.67 160.74"/>
  <polygon class="cls-29" points="55.67 160.74 52.3 160.94 52.3 151.55 45.5 152.19 45.5 188.1 52.3 187.46 52.3 176.84 55.67 176.64 55.67 160.74"/>
  <polygon class="cls-13" points="30.84 139.13 24.04 139.77 24.04 175.69 30.84 175.05 30.84 139.13"/>
  <polygon class="cls-4" points="52.3 151.55 45.5 152.19 24.04 139.77 30.84 139.13 52.3 151.55"/>
  <polygon class="cls-8" points="45.5 188.1 45.5 152.19 24.04 139.77 24.04 175.69 45.5 188.1"/>
  <polygon class="cls-25" points="45.5 188.1 45.5 152.19 24.04 139.77 24.04 175.69 45.5 188.1"/>
  <polygon class="cls-14" points="113.78 163.63 90.96 146.92 90.96 180.33 113.78 163.63"/>
  <polygon class="cls-24" points="113.78 163.63 90.96 146.92 90.96 180.33 113.78 163.63"/>
  <polyline class="cls-31" points="133.12 142.34 133.12 147.24 144.92 146.06 144.92 152.26 125.96 154.15 125.96 157.09"/>
  <polyline class="cls-31" points="133.12 178.89 133.12 174 144.92 172.82 144.92 166.62 125.96 168.51 125.96 165.57"/>
  <polygon class="cls-31" points="143.49 163.17 120.6 165.46 120.6 158.28 143.49 155.99 143.49 163.17"/>
  <polygon class="cls-10" points="26.55 144.27 26.55 174.11 42.64 183.41 42.64 153.58 26.55 144.27"/>
  <polygon class="cls-25" points="26.55 144.27 26.55 174.11 42.64 183.41 42.64 153.58 26.55 144.27"/>
  <polygon class="cls-16" points="52.3 148.51 45.5 149.15 45.5 152.86 52.3 152.27 52.3 148.51"/>
  <polygon class="cls-21" points="52.3 148.51 45.5 149.15 45.5 152.86 52.3 152.27 52.3 148.51"/>
  <polygon class="cls-18" points="61.17 132.2 22.42 134.94 45.5 149.15 85.85 144.36 61.17 132.2"/>
  <polygon class="cls-20" points="61.17 132.2 22.42 134.94 45.5 149.15 85.85 144.36 61.17 132.2"/>
  <line class="cls-25" x1="42.66" y1="172.63" x2="26.55" y2="174.1"/>
  <polygon class="cls-5" points="45.5 149.68 22.42 134.94 22.42 138.78 45.5 152.86 45.5 149.68"/>
  <polygon class="cls-27" points="45.5 149.68 22.42 134.94 22.42 138.78 45.5 152.86 45.5 149.68"/>
  <line class="cls-11" x1="34.39" y1="145.71" x2="34.39" y2="142.41"/>
  <line class="cls-28" x1="34.39" y1="145.71" x2="34.39" y2="142.41"/>
  <polygon class="cls-11" points="38.44 145.02 34.39 142.41 34.39 145.71 38.44 148.2 38.44 145.02"/>
  <polygon class="cls-28" points="38.44 145.02 34.39 142.41 34.39 145.71 38.44 148.2 38.44 145.02"/>
  <polygon class="cls-11" points="34.39 142.39 38.44 145.02 43.73 144.32 39.49 141.72 34.39 142.39"/>
  <polygon class="cls-28" points="34.39 142.39 38.44 145.02 43.73 144.32 39.49 141.72 34.39 142.39"/>
  <line class="cls-11" x1="28.58" y1="142.14" x2="28.58" y2="138.85"/>
  <line class="cls-28" x1="28.58" y1="142.14" x2="28.58" y2="138.85"/>
  <polygon class="cls-11" points="32.64 141.45 28.58 138.85 28.58 142.14 32.64 144.64 32.64 141.45"/>
  <polygon class="cls-28" points="32.64 141.45 28.58 138.85 28.58 142.14 32.64 144.64 32.64 141.45"/>
  <polygon class="cls-11" points="28.58 138.83 32.64 141.45 37.93 140.76 33.69 138.15 28.58 138.83"/>
  <polygon class="cls-28" points="28.58 138.83 32.64 141.45 37.93 140.76 33.69 138.15 28.58 138.83"/>
  <path class="cls-9" d="M43.29,151.47l-17.76-10.28c-.47-.27-.89-.29-1.2-.12l-4.02.88,3.5,10.67v21.08c0,1.1.78,2.44,1.72,2.99l9.37,5.42,2.53,5.82,2.91,1.04,4.15-1.8-.03-.08c.33-.17.55-.56.55-1.13v-31.5c0-1.09-.78-2.44-1.73-2.99"/>
  <path class="cls-23" d="M43.29,151.47l-17.76-10.28c-.47-.27-.89-.29-1.2-.12l-4.02.88,3.5,10.67v21.08c0,1.1.78,2.44,1.72,2.99l9.37,5.42,2.53,5.82,2.91,1.04,4.15-1.8-.03-.08c.33-.17.55-.56.55-1.13v-31.5c0-1.09-.78-2.44-1.73-2.99Z"/>
  <path class="cls-17" d="M39.19,152.58l-18.12-10.49c-.49-.29-.94-.3-1.26-.11l-4.47,1.87,4.52,9.66v21.66c0,1.11.79,2.49,1.76,3.05l11.72,6.78,1.53,4.16h4.25s1.06-.16,1.08-.16l.14-.03v-.02c.36-.16.6-.56.6-1.18v-32.15c0-1.12-.79-2.49-1.76-3.05"/>
  <path class="cls-23" d="M39.19,152.58l-18.12-10.49c-.49-.29-.94-.3-1.26-.11l-4.47,1.87,4.52,9.66v21.66c0,1.11.79,2.49,1.76,3.05l11.72,6.78,1.53,4.16h4.25s1.06-.16,1.08-.16l.14-.03v-.02c.36-.16.6-.56.6-1.18v-32.15c0-1.12-.79-2.49-1.76-3.05Z"/>
  <path class="cls-9" d="M33.97,188.94c.93.54,1.69.1,1.69-.98v-30.96c0-1.08-.76-2.4-1.69-2.94l-17.45-10.09c-.93-.54-1.69-.1-1.69.97v30.97c0,1.07.76,2.4,1.69,2.94l17.45,10.09Z"/>
  <path class="cls-23" d="M33.97,188.94c.93.54,1.69.1,1.69-.98v-30.96c0-1.08-.76-2.4-1.69-2.94l-17.45-10.09c-.93-.54-1.69-.1-1.69.97v30.97c0,1.07.76,2.4,1.69,2.94l17.45,10.09Z"/>
  <polygon class="cls-3" points="32.13 157.29 18.03 149.13 18.03 175.27 18.25 175.41 32.13 174.12 32.13 157.29"/>
  <polygon class="cls-15" points="32.13 174.12 18.25 175.41 32.13 183.42 32.13 174.12"/>
</svg>