<?xml version="1.0" encoding="UTF-8"?>
<svg id="_レイヤー_1" data-name="レイヤー 1" xmlns="http://www.w3.org/2000/svg" version="1.1" viewBox="0 0 283.46 47.47">
  <defs>
    <style>
      .cls-1 {
        fill: #231815;
        stroke-width: 0px;
      }
    </style>
  </defs>
  <path class="cls-1" d="M7.51,31.17v-14.89h2.21v17.75c0,.48-.19.96-.56,1.43-.42.48-.96.73-1.62.75h-.31l-.69-4.2h.12c.31,0,.53-.08.65-.25.12-.19.19-.38.19-.59ZM19.43,10.59v4.2h-3.61v23.67h-5.2V14.79h-3.77v-4.2h3.77v-2.4h5.2v2.4h3.61ZM16.73,35.6v-19.31h2.21v19.31h-2.21ZM19.93,19.56h6.13v-4.02h-2.3c-.08,1.72-.63,2.59-1.65,2.62h-1.71l-.69-3.96h.44c.37,0,.57-.21.59-.62l.53-4.14h3.33l-.28,1.9h1.74v-3.02h5.2v3.02h5.36v4.2h-5.36v4.02h5.85v4.2h-5.85v14.7h-5.2v-14.7h-6.13v-4.2ZM21.33,33.6l.5-8.22h3.46l-.78,10.28c-.04,1.85-.61,2.78-1.71,2.8h-2.4l-.69-4.2h1c.37,0,.58-.22.62-.65ZM32.95,36.34l-.78-10.96h3.46l.31,8.07c.04.52.22.79.53.81h.65v4.2h-2.46c-1.04,0-1.61-.71-1.71-2.12Z"/>
  <path class="cls-1" d="M59.85,36.03l-3.21-20.12h-17.78v-4.2h17.13l-.53-3.4h5.45l.5,3.4h2.18l-.53-2.52h4.2l.53,2.52h1.21v4.2h-6.94l2.65,17.32c.19.66.63,1.01,1.34,1.03h2.96v4.2h-5.98c-1.66,0-2.72-.81-3.18-2.43ZM39.24,19.68h17.06v4.2h-5.98v10.37h6.73v4.2h-18.06v-4.2h6.13v-10.37h-5.88v-4.2Z"/>
  <path class="cls-1" d="M74.8,8.6h21.95l1.5,3.83c.12.23.38.36.78.4h1.87v4.2h-4.7c-1.22,0-2.15-.73-2.77-2.18l-.69-2.06h-14.01l-.69,1.96c-.6,1.47-1.54,2.23-2.8,2.27h-4.61v-4.2h1.77c.5,0,.82-.23.97-.69l1.43-3.55ZM70.63,24.54h30.27v4.2h-16.26l-5.6,5.51h13.95c.35,0,.63-.05.84-.15.12-.06.03-.21-.28-.44l-2.21-2.18h6.2l2.27,2.37c.81.96.98,1.95.5,2.99s-1.54,1.58-3.18,1.62h-26.19v-3.24l7.29-6.48h-7.6v-4.2ZM71.88,22.27v-3.95h27.78v3.95h-27.78Z"/>
  <path class="cls-1" d="M116.22,14.39l-4.39,8.16s-.05.15-.09.34v15.57h-5.2v-13.08h-3.3l-.68-4.2h3.92c.37,0,.62-.26.75-.78l2.96-5.6h-7.29v-4.2h4.39v-2.4h5.2v2.4h3.74v3.8ZM113.14,30.8l-.12-9.9h2.46l.16,7.38c.04.39.22.6.53.62h.81v4.2h-1.59c-1.39,0-2.14-.77-2.24-2.3ZM122.36,34.26V15.42h-4.77v-4.2h4.77v-3.02h5.2v3.02h5.11v4.2h-5.11v18.84h5.23v4.2h-15.57v-4.2h5.14Z"/>
  <path class="cls-1" d="M151.52,9.89c4.84,0,8.95.34,12.33,1.03v4.52c-3.61-.75-7.72-1.13-12.33-1.13v-4.42ZM151.56,17.94c4.18,0,8.3.37,12.37,1.1v4.56c-4.5-.75-8.62-1.14-12.37-1.17v-4.49ZM178.25,15.37c-.59,8.13-2.75,13.71-6.47,16.75-3.81,3.11-10.28,4.67-19.39,4.69v-5.48c7.4,0,12.73-1.18,16-3.53,3.15-2.26,4.9-6.4,5.24-12.43h4.62Z"/>
  <path class="cls-1" d="M182.15,16.26h12.85v-7.88h5.69v7.88h10.93v4.59h-10.93v1.47c0,5.12-1.25,8.78-3.73,11-3.27,2.85-7.4,4.29-12.4,4.32v-4.66c4.04-.59,6.78-1.66,8.22-3.19,1.48-1.58,2.23-4.06,2.23-7.47v-1.47h-12.85v-4.59Z"/>
  <path class="cls-1" d="M214.8,10.89h21.86c.14,1.21.56,2.18,1.27,2.91.82.78,2.03,1.18,3.63,1.2-.05,5.32-.82,9.58-2.33,12.78-1.35,2.99-3.63,5.26-6.85,6.82-3.72,1.8-8.42,2.72-14.08,2.74h-1.78v-4.45h1.27c4.25,0,8.05-.72,11.41-2.16,2.17-.94,3.71-2.37,4.62-4.32,1.21-2.58,1.82-5.7,1.82-9.35v-1.58h-20.83v-4.59ZM244.54,13.04c-.64.64-1.62.97-2.95.99-1.28,0-2.26-.32-2.95-.96-.66-.69-1.01-1.66-1.03-2.91,0-1.28.35-2.26,1.06-2.95.68-.62,1.65-.92,2.91-.92s2.26.32,2.95.96c.68.59,1.03,1.56,1.03,2.91,0,1.21-.35,2.17-1.03,2.88ZM243.13,10.17c0-.48-.14-.84-.41-1.1-.3-.27-.67-.42-1.13-.44-.5,0-.88.13-1.13.38-.25.25-.39.64-.41,1.17,0,.43.11.78.34,1.03.27.32.67.49,1.2.51.52,0,.9-.15,1.13-.45.28-.32.41-.69.41-1.1Z"/>
  <path class="cls-1" d="M247.7,10.58h22.68c-.32,5.46-1.76,10.2-4.32,14.22,4.38,3.75,8,7.88,10.86,12.4h-6.75c-2.56-3.47-4.99-6.28-7.3-8.43-4.22,4.36-9.72,7.33-16.48,8.91v-4.76c4.93-1.42,9.02-3.78,12.26-7.09,3.01-3.08,4.78-6.63,5.31-10.65h-16.27v-4.59Z"/>
</svg>